<?xml version="1.0" encoding="UTF-8" standalone="no"?><!-- Generator: Gravit.io --><svg xmlns="http://www.w3.org/2000/svg" xmlns:xlink="http://www.w3.org/1999/xlink" style="isolation:isolate" viewBox="0 0 992 250" width="992pt" height="250pt"><defs><clipPath id="_clipPath_UbQTulFfElB0xFrj58jacPU5lcZvnVbA"><rect width="992" height="250"/></clipPath></defs><g clip-path="url(#_clipPath_UbQTulFfElB0xFrj58jacPU5lcZvnVbA)"><path d=" M 254 154.146 L 254 52.5 C 254 23.524 277.524 0 306.5 0 L 685.5 0 C 714.476 0 738 23.524 738 52.5 L 738 154.007 L 254 154.146 L 254 154.146 Z " fill="rgb(235,224,204)"/><path d=" M 254 154.146 L 254 197.5 C 254 226.476 277.524 250 306.5 250 L 685.5 250 C 714.476 250 738 226.476 738 197.5 L 738 154.007 L 254 154.146 L 254 154.146 Z " fill="rgb(232,179,129)"/><path d=" M 390.158 170.412 L 390.158 192.501 L 303.328 192.501 L 303.328 174.235 L 334.509 142.714 L 334.509 142.714 Q 348.357 128.526 352.605 123.046 L 352.605 123.046 L 352.605 123.046 Q 356.854 117.566 358.723 112.893 L 358.723 112.893 L 358.723 112.893 Q 360.592 108.22 360.592 103.208 L 360.592 103.208 L 360.592 103.208 Q 360.592 95.731 356.471 92.078 L 356.471 92.078 L 356.471 92.078 Q 352.351 88.424 345.469 88.424 L 345.469 88.424 L 345.469 88.424 Q 338.247 88.424 331.45 91.738 L 331.45 91.738 L 331.45 91.738 Q 324.653 95.051 317.262 101.168 L 317.262 101.168 L 302.988 84.261 L 302.988 84.261 Q 312.164 76.445 318.196 73.216 L 318.196 73.216 L 318.196 73.216 Q 324.229 69.988 331.365 68.246 L 331.365 68.246 L 331.365 68.246 Q 338.502 66.504 347.338 66.504 L 347.338 66.504 L 347.338 66.504 Q 358.978 66.504 367.898 70.752 L 367.898 70.752 L 367.898 70.752 Q 376.819 75 381.747 82.647 L 381.747 82.647 L 381.747 82.647 Q 386.675 90.293 386.675 100.149 L 386.675 100.149 L 386.675 100.149 Q 386.675 108.73 383.659 116.249 L 383.659 116.249 L 383.659 116.249 Q 380.643 123.768 374.313 131.669 L 374.313 131.669 L 374.313 131.669 Q 367.983 139.571 352.011 154.184 L 352.011 154.184 L 336.038 169.222 L 336.038 170.412 L 390.158 170.412 Z  M 488.798 130.395 L 488.798 130.395 L 488.798 130.395 Q 488.798 162.935 478.135 178.568 L 478.135 178.568 L 478.135 178.568 Q 467.473 194.201 445.298 194.201 L 445.298 194.201 L 445.298 194.201 Q 423.803 194.201 412.885 178.058 L 412.885 178.058 L 412.885 178.058 Q 401.968 161.916 401.968 130.395 L 401.968 130.395 L 401.968 130.395 Q 401.968 97.515 412.588 81.925 L 412.588 81.925 L 412.588 81.925 Q 423.208 66.334 445.298 66.334 L 445.298 66.334 L 445.298 66.334 Q 466.793 66.334 477.795 82.647 L 477.795 82.647 L 477.795 82.647 Q 488.798 98.959 488.798 130.395 Z  M 428.051 130.395 L 428.051 130.395 L 428.051 130.395 Q 428.051 153.25 432.001 163.147 L 432.001 163.147 L 432.001 163.147 Q 435.952 173.045 445.298 173.045 L 445.298 173.045 L 445.298 173.045 Q 454.474 173.045 458.552 163.02 L 458.552 163.02 L 458.552 163.02 Q 462.63 152.995 462.63 130.395 L 462.63 130.395 L 462.63 130.395 Q 462.63 107.541 458.509 97.558 L 458.509 97.558 L 458.509 97.558 Q 454.389 87.575 445.298 87.575 L 445.298 87.575 L 445.298 87.575 Q 436.037 87.575 432.044 97.558 L 432.044 97.558 L 432.044 97.558 Q 428.051 107.541 428.051 130.395 Z  M 591.601 146.368 L 591.601 166.758 L 576.647 166.758 L 576.647 192.501 L 550.989 192.501 L 550.989 166.758 L 497.974 166.758 L 497.974 148.492 L 552.434 68.289 L 576.647 68.289 L 576.647 146.368 L 591.601 146.368 Z  M 521.083 146.368 L 550.989 146.368 L 550.989 125.297 L 550.989 125.297 Q 550.989 120.03 551.414 110.004 L 551.414 110.004 L 551.414 110.004 Q 551.839 99.979 552.094 98.365 L 552.094 98.365 L 551.414 98.365 L 551.414 98.365 Q 548.271 105.332 543.853 111.958 L 543.853 111.958 L 521.083 146.368 Z  M 644.106 66.674 L 644.106 66.674 L 644.106 66.674 Q 661.948 66.674 672.866 74.788 L 672.866 74.788 L 672.866 74.788 Q 683.783 82.902 683.783 96.666 L 683.783 96.666 L 683.783 96.666 Q 683.783 106.181 678.516 113.615 L 678.516 113.615 L 678.516 113.615 Q 673.248 121.049 661.523 126.912 L 661.523 126.912 L 661.523 126.912 Q 675.457 134.388 681.532 142.502 L 681.532 142.502 L 681.532 142.502 Q 687.606 150.616 687.606 160.301 L 687.606 160.301 L 687.606 160.301 Q 687.606 175.594 675.627 184.897 L 675.627 184.897 L 675.627 184.897 Q 663.647 194.201 644.106 194.201 L 644.106 194.201 L 644.106 194.201 Q 623.716 194.201 612.076 185.535 L 612.076 185.535 L 612.076 185.535 Q 600.437 176.869 600.437 160.981 L 600.437 160.981 L 600.437 160.981 Q 600.437 150.361 606.086 142.12 L 606.086 142.12 L 606.086 142.12 Q 611.736 133.878 624.226 127.591 L 624.226 127.591 L 624.226 127.591 Q 613.605 120.879 608.933 113.233 L 608.933 113.233 L 608.933 113.233 Q 604.26 105.586 604.26 96.496 L 604.26 96.496 L 604.26 96.496 Q 604.26 83.157 615.305 74.916 L 615.305 74.916 L 615.305 74.916 Q 626.35 66.674 644.106 66.674 Z  M 624.735 159.452 L 624.735 159.452 L 624.735 159.452 Q 624.735 166.758 629.833 170.836 L 629.833 170.836 L 629.833 170.836 Q 634.931 174.915 643.767 174.915 L 643.767 174.915 L 643.767 174.915 Q 653.537 174.915 658.38 170.709 L 658.38 170.709 L 658.38 170.709 Q 663.223 166.503 663.223 159.622 L 663.223 159.622 L 663.223 159.622 Q 663.223 153.929 658.422 148.959 L 658.422 148.959 L 658.422 148.959 Q 653.622 143.989 642.832 138.381 L 642.832 138.381 L 642.832 138.381 Q 624.735 146.708 624.735 159.452 Z  M 643.937 85.875 L 643.937 85.875 L 643.937 85.875 Q 637.225 85.875 633.104 89.316 L 633.104 89.316 L 633.104 89.316 Q 628.983 92.757 628.983 98.535 L 628.983 98.535 L 628.983 98.535 Q 628.983 103.632 632.254 107.668 L 632.254 107.668 L 632.254 107.668 Q 635.525 111.704 644.106 115.952 L 644.106 115.952 L 644.106 115.952 Q 652.433 112.043 655.746 107.965 L 655.746 107.965 L 655.746 107.965 Q 659.06 103.887 659.06 98.535 L 659.06 98.535 L 659.06 98.535 Q 659.06 92.672 654.812 89.274 L 654.812 89.274 L 654.812 89.274 Q 650.563 85.875 643.937 85.875 Z " fill="rgb(117,108,101)"/></g></svg>