<?xml version="1.0" encoding="UTF-8" standalone="no"?><!-- Generator: Gravit.io --><svg xmlns="http://www.w3.org/2000/svg" xmlns:xlink="http://www.w3.org/1999/xlink" style="isolation:isolate" viewBox="0 0 992 250" width="992pt" height="250pt"><defs><clipPath id="_clipPath_VQ6GElDdECLmlMIS4Wg8EK1HYJVvBwJF"><rect width="992" height="250"/></clipPath></defs><g clip-path="url(#_clipPath_VQ6GElDdECLmlMIS4Wg8EK1HYJVvBwJF)"><path d=" M 42.994 167.29 L 42.994 59.382 L 89.178 59.382 L 89.178 59.382 Q 109.777 59.382 120.799 68.525 L 120.799 68.525 L 120.799 68.525 Q 131.821 77.668 131.821 94.58 L 131.821 94.58 L 131.821 94.58 Q 131.821 111.565 120.799 120.708 L 120.799 120.708 L 120.799 120.708 Q 109.777 129.851 89.178 129.851 L 89.178 129.851 L 70.82 129.851 L 70.82 167.29 L 42.994 167.29 Z  M 86.215 79.547 L 70.82 79.547 L 70.82 109.686 L 86.215 109.686 L 86.215 109.686 Q 94.31 109.686 98.719 105.747 L 98.719 105.747 L 98.719 105.747 Q 103.128 101.808 103.128 94.58 L 103.128 94.58 L 103.128 94.58 Q 103.128 87.353 98.719 83.45 L 98.719 83.45 L 98.719 83.45 Q 94.31 79.547 86.215 79.547 L 86.215 79.547 Z  M 184.585 130.863 L 171.142 130.863 L 171.142 130.863 Q 163.047 130.863 158.963 133.61 L 158.963 133.61 L 158.963 133.61 Q 154.88 136.356 154.88 141.705 L 154.88 141.705 L 154.88 141.705 Q 154.88 146.619 158.168 149.402 L 158.168 149.402 L 158.168 149.402 Q 161.457 152.185 167.311 152.185 L 167.311 152.185 L 167.311 152.185 Q 174.611 152.185 179.598 146.945 L 179.598 146.945 L 179.598 146.945 Q 184.585 141.705 184.585 133.826 L 184.585 133.826 L 184.585 130.863 Z  M 210.677 121.106 L 210.677 121.106 L 210.677 167.29 L 184.585 167.29 L 184.585 155.293 L 184.585 155.293 Q 179.381 162.665 172.877 166.026 L 172.877 166.026 L 172.877 166.026 Q 166.372 169.386 157.048 169.386 L 157.048 169.386 L 157.048 169.386 Q 144.472 169.386 136.63 162.05 L 136.63 162.05 L 136.63 162.05 Q 128.788 154.714 128.788 143.006 L 128.788 143.006 L 128.788 143.006 Q 128.788 128.767 138.581 122.118 L 138.581 122.118 L 138.581 122.118 Q 148.375 115.468 169.335 115.468 L 169.335 115.468 L 184.585 115.468 L 184.585 113.445 L 184.585 113.445 Q 184.585 107.301 179.743 104.446 L 179.743 104.446 L 179.743 104.446 Q 174.9 101.591 164.637 101.591 L 164.637 101.591 L 164.637 101.591 Q 156.325 101.591 149.17 103.254 L 149.17 103.254 L 149.17 103.254 Q 142.015 104.916 135.871 108.241 L 135.871 108.241 L 135.871 88.509 L 135.871 88.509 Q 144.183 86.486 152.567 85.438 L 152.567 85.438 L 152.567 85.438 Q 160.951 84.39 169.335 84.39 L 169.335 84.39 L 169.335 84.39 Q 191.235 84.39 200.956 93.027 L 200.956 93.027 L 200.956 93.027 Q 210.677 101.664 210.677 121.106 Z  M 300.663 117.998 L 300.663 117.998 L 300.663 167.29 L 274.644 167.29 L 274.644 159.268 L 274.644 129.562 L 274.644 129.562 Q 274.644 119.082 274.174 115.107 L 274.174 115.107 L 274.174 115.107 Q 273.704 111.132 272.548 109.253 L 272.548 109.253 L 272.548 109.253 Q 271.03 106.723 268.428 105.313 L 268.428 105.313 L 268.428 105.313 Q 265.826 103.904 262.501 103.904 L 262.501 103.904 L 262.501 103.904 Q 254.406 103.904 249.781 110.156 L 249.781 110.156 L 249.781 110.156 Q 245.155 116.408 245.155 127.466 L 245.155 127.466 L 245.155 167.29 L 219.28 167.29 L 219.28 86.341 L 245.155 86.341 L 245.155 98.194 L 245.155 98.194 Q 251.009 91.111 257.586 87.75 L 257.586 87.75 L 257.586 87.75 Q 264.164 84.39 272.114 84.39 L 272.114 84.39 L 272.114 84.39 Q 286.136 84.39 293.399 92.99 L 293.399 92.99 L 293.399 92.99 Q 300.663 101.591 300.663 117.998 Z  M 358.92 130.863 L 345.477 130.863 L 345.477 130.863 Q 337.382 130.863 333.298 133.61 L 333.298 133.61 L 333.298 133.61 Q 329.214 136.356 329.214 141.705 L 329.214 141.705 L 329.214 141.705 Q 329.214 146.619 332.503 149.402 L 332.503 149.402 L 332.503 149.402 Q 335.792 152.185 341.646 152.185 L 341.646 152.185 L 341.646 152.185 Q 348.946 152.185 353.933 146.945 L 353.933 146.945 L 353.933 146.945 Q 358.92 141.705 358.92 133.826 L 358.92 133.826 L 358.92 130.863 Z  M 385.012 121.106 L 385.012 121.106 L 385.012 167.29 L 358.92 167.29 L 358.92 155.293 L 358.92 155.293 Q 353.716 162.665 347.211 166.026 L 347.211 166.026 L 347.211 166.026 Q 340.706 169.386 331.383 169.386 L 331.383 169.386 L 331.383 169.386 Q 318.807 169.386 310.965 162.05 L 310.965 162.05 L 310.965 162.05 Q 303.123 154.714 303.123 143.006 L 303.123 143.006 L 303.123 143.006 Q 303.123 128.767 312.916 122.118 L 312.916 122.118 L 312.916 122.118 Q 322.71 115.468 343.67 115.468 L 343.67 115.468 L 358.92 115.468 L 358.92 113.445 L 358.92 113.445 Q 358.92 107.301 354.077 104.446 L 354.077 104.446 L 354.077 104.446 Q 349.235 101.591 338.972 101.591 L 338.972 101.591 L 338.972 101.591 Q 330.66 101.591 323.505 103.254 L 323.505 103.254 L 323.505 103.254 Q 316.349 104.916 310.206 108.241 L 310.206 108.241 L 310.206 88.509 L 310.206 88.509 Q 318.517 86.486 326.902 85.438 L 326.902 85.438 L 326.902 85.438 Q 335.286 84.39 343.67 84.39 L 343.67 84.39 L 343.67 84.39 Q 365.569 84.39 375.29 93.027 L 375.29 93.027 L 375.29 93.027 Q 385.012 101.664 385.012 121.106 Z  M 456.856 88.871 L 456.856 88.871 L 456.856 108.53 L 456.856 108.53 Q 448.545 105.061 440.811 103.326 L 440.811 103.326 L 440.811 103.326 Q 433.077 101.591 426.211 101.591 L 426.211 101.591 L 426.211 101.591 Q 418.839 101.591 415.261 103.434 L 415.261 103.434 L 415.261 103.434 Q 411.684 105.277 411.684 109.108 L 411.684 109.108 L 411.684 109.108 Q 411.684 112.216 414.394 113.878 L 414.394 113.878 L 414.394 113.878 Q 417.104 115.541 424.115 116.336 L 424.115 116.336 L 428.669 116.986 L 428.669 116.986 Q 448.545 119.516 455.411 125.298 L 455.411 125.298 L 455.411 125.298 Q 462.277 131.08 462.277 143.439 L 462.277 143.439 L 462.277 143.439 Q 462.277 156.377 452.737 162.882 L 452.737 162.882 L 452.737 162.882 Q 443.196 169.386 424.26 169.386 L 424.26 169.386 L 424.26 169.386 Q 416.237 169.386 407.672 168.122 L 407.672 168.122 L 407.672 168.122 Q 399.108 166.857 390.073 164.327 L 390.073 164.327 L 390.073 144.668 L 390.073 144.668 Q 397.807 148.426 405.938 150.305 L 405.938 150.305 L 405.938 150.305 Q 414.069 152.185 422.453 152.185 L 422.453 152.185 L 422.453 152.185 Q 430.042 152.185 433.873 150.089 L 433.873 150.089 L 433.873 150.089 Q 437.703 147.993 437.703 143.873 L 437.703 143.873 L 437.703 143.873 Q 437.703 140.404 435.065 138.705 L 435.065 138.705 L 435.065 138.705 Q 432.427 137.007 424.549 136.067 L 424.549 136.067 L 419.995 135.489 L 419.995 135.489 Q 402.721 133.321 395.783 127.466 L 395.783 127.466 L 395.783 127.466 Q 388.844 121.612 388.844 109.686 L 388.844 109.686 L 388.844 109.686 Q 388.844 96.821 397.662 90.605 L 397.662 90.605 L 397.662 90.605 Q 406.48 84.39 424.693 84.39 L 424.693 84.39 L 424.693 84.39 Q 431.849 84.39 439.727 85.474 L 439.727 85.474 L 439.727 85.474 Q 447.605 86.558 456.856 88.871 Z  M 504.778 102.892 L 504.778 102.892 L 504.778 102.892 Q 496.177 102.892 491.66 109.072 L 491.66 109.072 L 491.66 109.072 Q 487.142 115.251 487.142 126.888 L 487.142 126.888 L 487.142 126.888 Q 487.142 138.524 491.66 144.704 L 491.66 144.704 L 491.66 144.704 Q 496.177 150.884 504.778 150.884 L 504.778 150.884 L 504.778 150.884 Q 513.234 150.884 517.715 144.704 L 517.715 144.704 L 517.715 144.704 Q 522.196 138.524 522.196 126.888 L 522.196 126.888 L 522.196 126.888 Q 522.196 115.251 517.715 109.072 L 517.715 109.072 L 517.715 109.072 Q 513.234 102.892 504.778 102.892 Z  M 504.778 84.39 L 504.778 84.39 L 504.778 84.39 Q 525.666 84.39 537.41 95.665 L 537.41 95.665 L 537.41 95.665 Q 549.155 106.94 549.155 126.888 L 549.155 126.888 L 549.155 126.888 Q 549.155 146.836 537.41 158.111 L 537.41 158.111 L 537.41 158.111 Q 525.666 169.386 504.778 169.386 L 504.778 169.386 L 504.778 169.386 Q 483.818 169.386 472 158.111 L 472 158.111 L 472 158.111 Q 460.183 146.836 460.183 126.888 L 460.183 126.888 L 460.183 126.888 Q 460.183 106.94 472 95.665 L 472 95.665 L 472 95.665 Q 483.818 84.39 504.778 84.39 Z  M 633.865 117.998 L 633.865 117.998 L 633.865 167.29 L 607.846 167.29 L 607.846 159.268 L 607.846 129.562 L 607.846 129.562 Q 607.846 119.082 607.376 115.107 L 607.376 115.107 L 607.376 115.107 Q 606.906 111.132 605.75 109.253 L 605.75 109.253 L 605.75 109.253 Q 604.232 106.723 601.63 105.313 L 601.63 105.313 L 601.63 105.313 Q 599.028 103.904 595.703 103.904 L 595.703 103.904 L 595.703 103.904 Q 587.608 103.904 582.983 110.156 L 582.983 110.156 L 582.983 110.156 Q 578.357 116.408 578.357 127.466 L 578.357 127.466 L 578.357 167.29 L 552.482 167.29 L 552.482 86.341 L 578.357 86.341 L 578.357 98.194 L 578.357 98.194 Q 584.211 91.111 590.789 87.75 L 590.789 87.75 L 590.789 87.75 Q 597.366 84.39 605.316 84.39 L 605.316 84.39 L 605.316 84.39 Q 619.338 84.39 626.601 92.99 L 626.601 92.99 L 626.601 92.99 Q 633.865 101.591 633.865 117.998 Z  M 642.396 167.29 L 642.396 86.341 L 668.271 86.341 L 668.271 167.29 L 642.396 167.29 Z  M 642.396 75.933 L 642.396 54.829 L 668.271 54.829 L 668.271 75.933 L 642.396 75.933 Z  M 743.079 88.871 L 743.079 88.871 L 743.079 109.975 L 743.079 109.975 Q 737.803 106.361 732.49 104.627 L 732.49 104.627 L 732.49 104.627 Q 727.178 102.892 721.468 102.892 L 721.468 102.892 L 721.468 102.892 Q 710.627 102.892 704.592 109.216 L 704.592 109.216 L 704.592 109.216 Q 698.557 115.541 698.557 126.888 L 698.557 126.888 L 698.557 126.888 Q 698.557 138.235 704.592 144.559 L 704.592 144.559 L 704.592 144.559 Q 710.627 150.884 721.468 150.884 L 721.468 150.884 L 721.468 150.884 Q 727.54 150.884 732.996 149.077 L 732.996 149.077 L 732.996 149.077 Q 738.453 147.27 743.079 143.728 L 743.079 143.728 L 743.079 164.905 L 743.079 164.905 Q 737.008 167.146 730.756 168.266 L 730.756 168.266 L 730.756 168.266 Q 724.504 169.386 718.216 169.386 L 718.216 169.386 L 718.216 169.386 Q 696.316 169.386 683.957 158.147 L 683.957 158.147 L 683.957 158.147 Q 671.598 146.908 671.598 126.888 L 671.598 126.888 L 671.598 126.888 Q 671.598 106.867 683.957 95.628 L 683.957 95.628 L 683.957 95.628 Q 696.316 84.39 718.216 84.39 L 718.216 84.39 L 718.216 84.39 Q 724.576 84.39 730.756 85.51 L 730.756 85.51 L 730.756 85.51 Q 736.935 86.63 743.079 88.871 Z " fill="rgb(119,119,119)"/><path d=" M 829.731 210.07 L 829.731 210.07 L 829.731 210.07 Q 834.618 211.333 837.158 214.455 L 837.158 214.455 L 837.158 214.455 Q 839.699 217.578 839.699 222.4 L 839.699 222.4 L 839.699 222.4 Q 839.699 229.585 834.197 233.323 L 834.197 233.323 L 834.197 233.323 Q 828.696 237.061 818.145 237.061 L 818.145 237.061 L 818.145 237.061 Q 814.424 237.061 810.686 236.462 L 810.686 236.462 L 810.686 236.462 Q 806.948 235.863 803.291 234.666 L 803.291 234.666 L 803.291 225.054 L 803.291 225.054 Q 806.786 226.802 810.233 227.692 L 810.233 227.692 L 810.233 227.692 Q 813.679 228.582 817.013 228.582 L 817.013 228.582 L 817.013 228.582 Q 821.964 228.582 824.602 226.867 L 824.602 226.867 L 824.602 226.867 Q 827.239 225.151 827.239 221.947 L 827.239 221.947 L 827.239 221.947 Q 827.239 218.646 824.537 216.947 L 824.537 216.947 L 824.537 216.947 Q 821.835 215.248 816.56 215.248 L 816.56 215.248 L 811.576 215.248 L 811.576 207.222 L 816.819 207.222 L 816.819 207.222 Q 821.511 207.222 823.809 205.75 L 823.809 205.75 L 823.809 205.75 Q 826.107 204.277 826.107 201.268 L 826.107 201.268 L 826.107 201.268 Q 826.107 198.485 823.874 196.964 L 823.874 196.964 L 823.874 196.964 Q 821.641 195.443 817.563 195.443 L 817.563 195.443 L 817.563 195.443 Q 814.553 195.443 811.479 196.122 L 811.479 196.122 L 811.479 196.122 Q 808.404 196.802 805.362 198.129 L 805.362 198.129 L 805.362 189.002 L 805.362 189.002 Q 809.052 187.967 812.676 187.449 L 812.676 187.449 L 812.676 187.449 Q 816.301 186.931 819.796 186.931 L 819.796 186.931 L 819.796 186.931 Q 829.213 186.931 833.89 190.022 L 833.89 190.022 L 833.89 190.022 Q 838.566 193.112 838.566 199.326 L 838.566 199.326 L 838.566 199.326 Q 838.566 203.566 836.333 206.268 L 836.333 206.268 L 836.333 206.268 Q 834.1 208.97 829.731 210.07 Z  M 867.984 197.222 L 863.518 197.222 L 863.518 226.705 L 867.984 226.705 L 867.984 226.705 Q 875.621 226.705 879.65 222.918 L 879.65 222.918 L 879.65 222.918 Q 883.68 219.132 883.68 211.915 L 883.68 211.915 L 883.68 211.915 Q 883.68 204.731 879.667 200.977 L 879.667 200.977 L 879.667 200.977 Q 875.654 197.222 867.984 197.222 L 867.984 197.222 Z  M 851.058 236.122 L 851.058 187.805 L 864.197 187.805 L 864.197 187.805 Q 875.201 187.805 880.589 189.375 L 880.589 189.375 L 880.589 189.375 Q 885.977 190.944 889.828 194.698 L 889.828 194.698 L 889.828 194.698 Q 893.226 197.967 894.877 202.239 L 894.877 202.239 L 894.877 202.239 Q 896.527 206.51 896.527 211.915 L 896.527 211.915 L 896.527 211.915 Q 896.527 217.384 894.877 221.672 L 894.877 221.672 L 894.877 221.672 Q 893.226 225.96 889.828 229.229 L 889.828 229.229 L 889.828 229.229 Q 885.945 232.983 880.508 234.553 L 880.508 234.553 L 880.508 234.553 Q 875.071 236.122 864.197 236.122 L 864.197 236.122 L 851.058 236.122 Z  M 928.146 195.96 L 928.146 195.96 L 928.146 195.96 Q 922.45 195.96 919.311 200.167 L 919.311 200.167 L 919.311 200.167 Q 916.171 204.375 916.171 212.012 L 916.171 212.012 L 916.171 212.012 Q 916.171 219.617 919.311 223.824 L 919.311 223.824 L 919.311 223.824 Q 922.45 228.032 928.146 228.032 L 928.146 228.032 L 928.146 228.032 Q 933.874 228.032 937.013 223.824 L 937.013 223.824 L 937.013 223.824 Q 940.152 219.617 940.152 212.012 L 940.152 212.012 L 940.152 212.012 Q 940.152 204.375 937.013 200.167 L 937.013 200.167 L 937.013 200.167 Q 933.874 195.96 928.146 195.96 Z  M 928.146 186.931 L 928.146 186.931 L 928.146 186.931 Q 939.796 186.931 946.398 193.598 L 946.398 193.598 L 946.398 193.598 Q 953 200.265 953 212.012 L 953 212.012 L 953 212.012 Q 953 223.727 946.398 230.394 L 946.398 230.394 L 946.398 230.394 Q 939.796 237.061 928.146 237.061 L 928.146 237.061 L 928.146 237.061 Q 916.527 237.061 909.909 230.394 L 909.909 230.394 L 909.909 230.394 Q 903.291 223.727 903.291 212.012 L 903.291 212.012 L 903.291 212.012 Q 903.291 200.265 909.909 193.598 L 909.909 193.598 L 909.909 193.598 Q 916.527 186.931 928.146 186.931 Z " fill="rgb(119,119,119)"/><path d=" M 39.68 163.976 L 39.68 56.068 L 85.865 56.068 L 85.865 56.068 Q 106.463 56.068 117.485 65.211 L 117.485 65.211 L 117.485 65.211 Q 128.508 74.354 128.508 91.267 L 128.508 91.267 L 128.508 91.267 Q 128.508 108.251 117.485 117.394 L 117.485 117.394 L 117.485 117.394 Q 106.463 126.537 85.865 126.537 L 85.865 126.537 L 67.506 126.537 L 67.506 163.976 L 39.68 163.976 Z  M 82.901 76.233 L 67.506 76.233 L 67.506 106.372 L 82.901 106.372 L 82.901 106.372 Q 90.996 106.372 95.405 102.433 L 95.405 102.433 L 95.405 102.433 Q 99.814 98.494 99.814 91.267 L 99.814 91.267 L 99.814 91.267 Q 99.814 84.039 95.405 80.136 L 95.405 80.136 L 95.405 80.136 Q 90.996 76.233 82.901 76.233 L 82.901 76.233 Z  M 181.271 127.549 L 167.828 127.549 L 167.828 127.549 Q 159.733 127.549 155.649 130.296 L 155.649 130.296 L 155.649 130.296 Q 151.566 133.042 151.566 138.391 L 151.566 138.391 L 151.566 138.391 Q 151.566 143.305 154.854 146.088 L 154.854 146.088 L 154.854 146.088 Q 158.143 148.871 163.997 148.871 L 163.997 148.871 L 163.997 148.871 Q 171.297 148.871 176.284 143.631 L 176.284 143.631 L 176.284 143.631 Q 181.271 138.391 181.271 130.513 L 181.271 130.513 L 181.271 127.549 Z  M 207.363 117.792 L 207.363 117.792 L 207.363 163.976 L 181.271 163.976 L 181.271 151.979 L 181.271 151.979 Q 176.067 159.351 169.563 162.712 L 169.563 162.712 L 169.563 162.712 Q 163.058 166.072 153.734 166.072 L 153.734 166.072 L 153.734 166.072 Q 141.158 166.072 133.316 158.736 L 133.316 158.736 L 133.316 158.736 Q 125.474 151.4 125.474 139.692 L 125.474 139.692 L 125.474 139.692 Q 125.474 125.453 135.268 118.804 L 135.268 118.804 L 135.268 118.804 Q 145.061 112.154 166.021 112.154 L 166.021 112.154 L 181.271 112.154 L 181.271 110.131 L 181.271 110.131 Q 181.271 103.987 176.429 101.132 L 176.429 101.132 L 176.429 101.132 Q 171.586 98.277 161.323 98.277 L 161.323 98.277 L 161.323 98.277 Q 153.011 98.277 145.856 99.94 L 145.856 99.94 L 145.856 99.94 Q 138.701 101.602 132.557 104.927 L 132.557 104.927 L 132.557 85.195 L 132.557 85.195 Q 140.869 83.172 149.253 82.124 L 149.253 82.124 L 149.253 82.124 Q 157.637 81.076 166.021 81.076 L 166.021 81.076 L 166.021 81.076 Q 187.921 81.076 197.642 89.713 L 197.642 89.713 L 197.642 89.713 Q 207.363 98.35 207.363 117.792 Z  M 297.349 114.684 L 297.349 114.684 L 297.349 163.976 L 271.33 163.976 L 271.33 155.954 L 271.33 126.248 L 271.33 126.248 Q 271.33 115.768 270.86 111.793 L 270.86 111.793 L 270.86 111.793 Q 270.39 107.818 269.234 105.939 L 269.234 105.939 L 269.234 105.939 Q 267.716 103.409 265.114 102 L 265.114 102 L 265.114 102 Q 262.512 100.59 259.187 100.59 L 259.187 100.59 L 259.187 100.59 Q 251.092 100.59 246.467 106.842 L 246.467 106.842 L 246.467 106.842 Q 241.841 113.094 241.841 124.152 L 241.841 124.152 L 241.841 163.976 L 215.966 163.976 L 215.966 83.027 L 241.841 83.027 L 241.841 94.88 L 241.841 94.88 Q 247.695 87.797 254.273 84.436 L 254.273 84.436 L 254.273 84.436 Q 260.85 81.076 268.8 81.076 L 268.8 81.076 L 268.8 81.076 Q 282.822 81.076 290.085 89.676 L 290.085 89.676 L 290.085 89.676 Q 297.349 98.277 297.349 114.684 Z  M 355.606 127.549 L 342.163 127.549 L 342.163 127.549 Q 334.068 127.549 329.984 130.296 L 329.984 130.296 L 329.984 130.296 Q 325.9 133.042 325.9 138.391 L 325.9 138.391 L 325.9 138.391 Q 325.9 143.305 329.189 146.088 L 329.189 146.088 L 329.189 146.088 Q 332.478 148.871 338.332 148.871 L 338.332 148.871 L 338.332 148.871 Q 345.632 148.871 350.619 143.631 L 350.619 143.631 L 350.619 143.631 Q 355.606 138.391 355.606 130.513 L 355.606 130.513 L 355.606 127.549 Z  M 381.698 117.792 L 381.698 117.792 L 381.698 163.976 L 355.606 163.976 L 355.606 151.979 L 355.606 151.979 Q 350.402 159.351 343.897 162.712 L 343.897 162.712 L 343.897 162.712 Q 337.392 166.072 328.069 166.072 L 328.069 166.072 L 328.069 166.072 Q 315.493 166.072 307.651 158.736 L 307.651 158.736 L 307.651 158.736 Q 299.809 151.4 299.809 139.692 L 299.809 139.692 L 299.809 139.692 Q 299.809 125.453 309.602 118.804 L 309.602 118.804 L 309.602 118.804 Q 319.396 112.154 340.356 112.154 L 340.356 112.154 L 355.606 112.154 L 355.606 110.131 L 355.606 110.131 Q 355.606 103.987 350.763 101.132 L 350.763 101.132 L 350.763 101.132 Q 345.921 98.277 335.658 98.277 L 335.658 98.277 L 335.658 98.277 Q 327.346 98.277 320.191 99.94 L 320.191 99.94 L 320.191 99.94 Q 313.035 101.602 306.892 104.927 L 306.892 104.927 L 306.892 85.195 L 306.892 85.195 Q 315.204 83.172 323.588 82.124 L 323.588 82.124 L 323.588 82.124 Q 331.972 81.076 340.356 81.076 L 340.356 81.076 L 340.356 81.076 Q 362.255 81.076 371.977 89.713 L 371.977 89.713 L 371.977 89.713 Q 381.698 98.35 381.698 117.792 Z  M 453.542 85.557 L 453.542 85.557 L 453.542 105.216 L 453.542 105.216 Q 445.231 101.747 437.497 100.012 L 437.497 100.012 L 437.497 100.012 Q 429.764 98.277 422.897 98.277 L 422.897 98.277 L 422.897 98.277 Q 415.525 98.277 411.947 100.12 L 411.947 100.12 L 411.947 100.12 Q 408.37 101.963 408.37 105.794 L 408.37 105.794 L 408.37 105.794 Q 408.37 108.902 411.08 110.564 L 411.08 110.564 L 411.08 110.564 Q 413.791 112.227 420.801 113.022 L 420.801 113.022 L 425.355 113.672 L 425.355 113.672 Q 445.231 116.202 452.097 121.984 L 452.097 121.984 L 452.097 121.984 Q 458.963 127.766 458.963 140.125 L 458.963 140.125 L 458.963 140.125 Q 458.963 153.063 449.423 159.568 L 449.423 159.568 L 449.423 159.568 Q 439.882 166.072 420.946 166.072 L 420.946 166.072 L 420.946 166.072 Q 412.923 166.072 404.358 164.808 L 404.358 164.808 L 404.358 164.808 Q 395.794 163.543 386.759 161.013 L 386.759 161.013 L 386.759 141.354 L 386.759 141.354 Q 394.493 145.112 402.624 146.992 L 402.624 146.992 L 402.624 146.992 Q 410.755 148.871 419.139 148.871 L 419.139 148.871 L 419.139 148.871 Q 426.728 148.871 430.559 146.775 L 430.559 146.775 L 430.559 146.775 Q 434.389 144.679 434.389 140.559 L 434.389 140.559 L 434.389 140.559 Q 434.389 137.09 431.751 135.391 L 431.751 135.391 L 431.751 135.391 Q 429.113 133.693 421.235 132.753 L 421.235 132.753 L 416.682 132.175 L 416.682 132.175 Q 399.408 130.007 392.469 124.152 L 392.469 124.152 L 392.469 124.152 Q 385.531 118.298 385.531 106.372 L 385.531 106.372 L 385.531 106.372 Q 385.531 93.507 394.348 87.291 L 394.348 87.291 L 394.348 87.291 Q 403.166 81.076 421.38 81.076 L 421.38 81.076 L 421.38 81.076 Q 428.535 81.076 436.413 82.16 L 436.413 82.16 L 436.413 82.16 Q 444.291 83.244 453.542 85.557 Z  M 501.464 99.578 L 501.464 99.578 L 501.464 99.578 Q 492.863 99.578 488.346 105.758 L 488.346 105.758 L 488.346 105.758 Q 483.828 111.938 483.828 123.574 L 483.828 123.574 L 483.828 123.574 Q 483.828 135.211 488.346 141.39 L 488.346 141.39 L 488.346 141.39 Q 492.863 147.57 501.464 147.57 L 501.464 147.57 L 501.464 147.57 Q 509.92 147.57 514.401 141.39 L 514.401 141.39 L 514.401 141.39 Q 518.882 135.211 518.882 123.574 L 518.882 123.574 L 518.882 123.574 Q 518.882 111.938 514.401 105.758 L 514.401 105.758 L 514.401 105.758 Q 509.92 99.578 501.464 99.578 Z  M 501.464 81.076 L 501.464 81.076 L 501.464 81.076 Q 522.352 81.076 534.096 92.351 L 534.096 92.351 L 534.096 92.351 Q 545.841 103.626 545.841 123.574 L 545.841 123.574 L 545.841 123.574 Q 545.841 143.522 534.096 154.797 L 534.096 154.797 L 534.096 154.797 Q 522.352 166.072 501.464 166.072 L 501.464 166.072 L 501.464 166.072 Q 480.504 166.072 468.686 154.797 L 468.686 154.797 L 468.686 154.797 Q 456.869 143.522 456.869 123.574 L 456.869 123.574 L 456.869 123.574 Q 456.869 103.626 468.686 92.351 L 468.686 92.351 L 468.686 92.351 Q 480.504 81.076 501.464 81.076 Z  M 630.551 114.684 L 630.551 114.684 L 630.551 163.976 L 604.532 163.976 L 604.532 155.954 L 604.532 126.248 L 604.532 126.248 Q 604.532 115.768 604.062 111.793 L 604.062 111.793 L 604.062 111.793 Q 603.592 107.818 602.436 105.939 L 602.436 105.939 L 602.436 105.939 Q 600.918 103.409 598.316 102 L 598.316 102 L 598.316 102 Q 595.714 100.59 592.389 100.59 L 592.389 100.59 L 592.389 100.59 Q 584.295 100.59 579.669 106.842 L 579.669 106.842 L 579.669 106.842 Q 575.043 113.094 575.043 124.152 L 575.043 124.152 L 575.043 163.976 L 549.168 163.976 L 549.168 83.027 L 575.043 83.027 L 575.043 94.88 L 575.043 94.88 Q 580.898 87.797 587.475 84.436 L 587.475 84.436 L 587.475 84.436 Q 594.052 81.076 602.002 81.076 L 602.002 81.076 L 602.002 81.076 Q 616.024 81.076 623.288 89.676 L 623.288 89.676 L 623.288 89.676 Q 630.551 98.277 630.551 114.684 Z  M 639.082 163.976 L 639.082 83.027 L 664.957 83.027 L 664.957 163.976 L 639.082 163.976 Z  M 639.082 72.619 L 639.082 51.515 L 664.957 51.515 L 664.957 72.619 L 639.082 72.619 Z  M 739.765 85.557 L 739.765 85.557 L 739.765 106.661 L 739.765 106.661 Q 734.489 103.048 729.177 101.313 L 729.177 101.313 L 729.177 101.313 Q 723.864 99.578 718.154 99.578 L 718.154 99.578 L 718.154 99.578 Q 707.313 99.578 701.278 105.902 L 701.278 105.902 L 701.278 105.902 Q 695.243 112.227 695.243 123.574 L 695.243 123.574 L 695.243 123.574 Q 695.243 134.921 701.278 141.246 L 701.278 141.246 L 701.278 141.246 Q 707.313 147.57 718.154 147.57 L 718.154 147.57 L 718.154 147.57 Q 724.226 147.57 729.683 145.763 L 729.683 145.763 L 729.683 145.763 Q 735.139 143.956 739.765 140.414 L 739.765 140.414 L 739.765 161.591 L 739.765 161.591 Q 733.694 163.832 727.442 164.952 L 727.442 164.952 L 727.442 164.952 Q 721.19 166.072 714.902 166.072 L 714.902 166.072 L 714.902 166.072 Q 693.002 166.072 680.643 154.834 L 680.643 154.834 L 680.643 154.834 Q 668.284 143.595 668.284 123.574 L 668.284 123.574 L 668.284 123.574 Q 668.284 103.554 680.643 92.315 L 680.643 92.315 L 680.643 92.315 Q 693.002 81.076 714.902 81.076 L 714.902 81.076 L 714.902 81.076 Q 721.262 81.076 727.442 82.196 L 727.442 82.196 L 727.442 82.196 Q 733.622 83.316 739.765 85.557 Z " fill="rgb(244,244,244)"/><path d=" M 826.417 206.756 L 826.417 206.756 L 826.417 206.756 Q 831.304 208.019 833.845 211.142 L 833.845 211.142 L 833.845 211.142 Q 836.385 214.265 836.385 219.087 L 836.385 219.087 L 836.385 219.087 Q 836.385 226.271 830.883 230.009 L 830.883 230.009 L 830.883 230.009 Q 825.382 233.747 814.832 233.747 L 814.832 233.747 L 814.832 233.747 Q 811.11 233.747 807.372 233.148 L 807.372 233.148 L 807.372 233.148 Q 803.634 232.549 799.977 231.352 L 799.977 231.352 L 799.977 221.74 L 799.977 221.74 Q 803.472 223.488 806.919 224.378 L 806.919 224.378 L 806.919 224.378 Q 810.366 225.268 813.699 225.268 L 813.699 225.268 L 813.699 225.268 Q 818.65 225.268 821.288 223.553 L 821.288 223.553 L 821.288 223.553 Q 823.925 221.837 823.925 218.633 L 823.925 218.633 L 823.925 218.633 Q 823.925 215.333 821.223 213.633 L 821.223 213.633 L 821.223 213.633 Q 818.521 211.934 813.246 211.934 L 813.246 211.934 L 808.262 211.934 L 808.262 203.909 L 813.505 203.909 L 813.505 203.909 Q 818.197 203.909 820.495 202.436 L 820.495 202.436 L 820.495 202.436 Q 822.793 200.964 822.793 197.954 L 822.793 197.954 L 822.793 197.954 Q 822.793 195.171 820.56 193.65 L 820.56 193.65 L 820.56 193.65 Q 818.327 192.129 814.249 192.129 L 814.249 192.129 L 814.249 192.129 Q 811.239 192.129 808.165 192.808 L 808.165 192.808 L 808.165 192.808 Q 805.09 193.488 802.048 194.815 L 802.048 194.815 L 802.048 185.688 L 802.048 185.688 Q 805.738 184.653 809.362 184.135 L 809.362 184.135 L 809.362 184.135 Q 812.987 183.617 816.482 183.617 L 816.482 183.617 L 816.482 183.617 Q 825.9 183.617 830.576 186.708 L 830.576 186.708 L 830.576 186.708 Q 835.252 189.798 835.252 196.012 L 835.252 196.012 L 835.252 196.012 Q 835.252 200.252 833.019 202.954 L 833.019 202.954 L 833.019 202.954 Q 830.786 205.656 826.417 206.756 Z  M 864.67 193.909 L 860.204 193.909 L 860.204 223.391 L 864.67 223.391 L 864.67 223.391 Q 872.307 223.391 876.336 219.604 L 876.336 219.604 L 876.336 219.604 Q 880.366 215.818 880.366 208.601 L 880.366 208.601 L 880.366 208.601 Q 880.366 201.417 876.353 197.663 L 876.353 197.663 L 876.353 197.663 Q 872.34 193.909 864.67 193.909 L 864.67 193.909 Z  M 847.744 232.808 L 847.744 184.491 L 860.883 184.491 L 860.883 184.491 Q 871.887 184.491 877.275 186.061 L 877.275 186.061 L 877.275 186.061 Q 882.663 187.63 886.514 191.384 L 886.514 191.384 L 886.514 191.384 Q 889.913 194.653 891.563 198.925 L 891.563 198.925 L 891.563 198.925 Q 893.214 203.197 893.214 208.601 L 893.214 208.601 L 893.214 208.601 Q 893.214 214.07 891.563 218.358 L 891.563 218.358 L 891.563 218.358 Q 889.913 222.646 886.514 225.915 L 886.514 225.915 L 886.514 225.915 Q 882.631 229.669 877.194 231.239 L 877.194 231.239 L 877.194 231.239 Q 871.757 232.808 860.883 232.808 L 860.883 232.808 L 847.744 232.808 Z  M 924.832 192.646 L 924.832 192.646 L 924.832 192.646 Q 919.136 192.646 915.997 196.854 L 915.997 196.854 L 915.997 196.854 Q 912.858 201.061 912.858 208.698 L 912.858 208.698 L 912.858 208.698 Q 912.858 216.303 915.997 220.511 L 915.997 220.511 L 915.997 220.511 Q 919.136 224.718 924.832 224.718 L 924.832 224.718 L 924.832 224.718 Q 930.56 224.718 933.699 220.511 L 933.699 220.511 L 933.699 220.511 Q 936.838 216.303 936.838 208.698 L 936.838 208.698 L 936.838 208.698 Q 936.838 201.061 933.699 196.854 L 933.699 196.854 L 933.699 196.854 Q 930.56 192.646 924.832 192.646 Z  M 924.832 183.617 L 924.832 183.617 L 924.832 183.617 Q 936.482 183.617 943.084 190.284 L 943.084 190.284 L 943.084 190.284 Q 949.686 196.951 949.686 208.698 L 949.686 208.698 L 949.686 208.698 Q 949.686 220.413 943.084 227.08 L 943.084 227.08 L 943.084 227.08 Q 936.482 233.747 924.832 233.747 L 924.832 233.747 L 924.832 233.747 Q 913.214 233.747 906.595 227.08 L 906.595 227.08 L 906.595 227.08 Q 899.977 220.413 899.977 208.698 L 899.977 208.698 L 899.977 208.698 Q 899.977 196.951 906.595 190.284 L 906.595 190.284 L 906.595 190.284 Q 913.214 183.617 924.832 183.617 Z " fill="rgb(244,244,244)"/><rect x="854.908" y="20.27" width="40.956" height="40.956" transform="matrix(0.707,0.707,-0.707,0.707,285.208,-607.057)" fill="rgb(255,0,0)"/><path d="M 849.896 75.37 L 900.884 75.37 C 902.797 75.37 904.35 76.923 904.35 78.837 L 904.35 108.393 C 904.35 110.307 902.797 111.86 900.884 111.86 L 849.896 111.86 C 847.983 111.86 846.43 110.307 846.43 108.393 L 846.43 78.837 C 846.43 76.923 847.983 75.37 849.896 75.37 Z" style="stroke:none;fill:#2C0EC3;stroke-miterlimit:10;"/><circle vector-effect="non-scaling-stroke" cx="875.3860746746268" cy="140.5319772446968" r="17.4994891397223" fill="rgb(242,218,2)"/></g></svg>