<?xml version="1.0" encoding="UTF-8" standalone="no"?><!-- Generator: Gravit.io --><svg xmlns="http://www.w3.org/2000/svg" xmlns:xlink="http://www.w3.org/1999/xlink" style="isolation:isolate" viewBox="0 0 992 250" width="992pt" height="250pt"><defs><clipPath id="_clipPath_ovzJChbaReWf7mkq55RZl5FWgQ6wUUy0"><rect width="992" height="250"/></clipPath></defs><g clip-path="url(#_clipPath_ovzJChbaReWf7mkq55RZl5FWgQ6wUUy0)"><path d=" M 53.02 144.169 L 53.02 49.684 L 80.232 49.684 L 114.596 114.488 L 114.596 49.684 L 137.696 49.684 L 137.696 144.169 L 110.483 144.169 L 76.119 79.365 L 76.119 144.169 L 53.02 144.169 Z  M 161.491 144.169 L 161.491 49.684 L 185.856 49.684 L 185.856 144.169 L 161.491 144.169 Z  M 209.715 144.169 L 209.715 49.684 L 236.927 49.684 L 271.291 114.488 L 271.291 49.684 L 294.391 49.684 L 294.391 144.169 L 267.178 144.169 L 232.814 79.365 L 232.814 144.169 L 209.715 144.169 Z  M 306.921 68.1 L 306.921 49.684 L 394.002 49.684 L 394.002 68.1 L 362.676 68.1 L 362.676 144.169 L 338.311 144.169 L 338.311 68.1 L 306.921 68.1 Z  M 406.596 144.169 L 406.596 49.684 L 472.349 49.684 L 472.349 68.1 L 430.961 68.1 L 430.961 85.694 L 469.881 85.694 L 469.881 104.11 L 430.961 104.11 L 430.961 125.753 L 473.742 125.753 L 473.742 144.169 L 406.596 144.169 Z  M 495.132 144.169 L 495.132 49.684 L 522.345 49.684 L 556.709 114.488 L 556.709 49.684 L 579.808 49.684 L 579.808 144.169 L 552.595 144.169 L 518.231 79.365 L 518.231 144.169 L 495.132 144.169 Z  M 636.702 68.1 L 627.968 68.1 L 627.968 125.753 L 636.702 125.753 L 636.702 125.753 Q 651.637 125.753 659.516 118.349 L 659.516 118.349 L 659.516 118.349 Q 667.395 110.944 667.395 96.832 L 667.395 96.832 L 667.395 96.832 Q 667.395 82.782 659.548 75.441 L 659.548 75.441 L 659.548 75.441 Q 651.7 68.1 636.702 68.1 L 636.702 68.1 Z  M 603.603 144.169 L 603.603 49.684 L 629.297 49.684 L 629.297 49.684 Q 650.814 49.684 661.351 52.753 L 661.351 52.753 L 661.351 52.753 Q 671.889 55.823 679.42 63.164 L 679.42 63.164 L 679.42 63.164 Q 686.064 69.556 689.292 77.909 L 689.292 77.909 L 689.292 77.909 Q 692.52 86.263 692.52 96.832 L 692.52 96.832 L 692.52 96.832 Q 692.52 107.527 689.292 115.912 L 689.292 115.912 L 689.292 115.912 Q 686.064 124.298 679.42 130.69 L 679.42 130.69 L 679.42 130.69 Q 671.825 138.031 661.193 141.1 L 661.193 141.1 L 661.193 141.1 Q 650.561 144.169 629.297 144.169 L 629.297 144.169 L 603.603 144.169 Z  M 754.35 65.632 L 754.35 65.632 L 754.35 65.632 Q 743.211 65.632 737.073 73.859 L 737.073 73.859 L 737.073 73.859 Q 730.934 82.086 730.934 97.022 L 730.934 97.022 L 730.934 97.022 Q 730.934 111.894 737.073 120.121 L 737.073 120.121 L 737.073 120.121 Q 743.211 128.348 754.35 128.348 L 754.35 128.348 L 754.35 128.348 Q 765.551 128.348 771.69 120.121 L 771.69 120.121 L 771.69 120.121 Q 777.828 111.894 777.828 97.022 L 777.828 97.022 L 777.828 97.022 Q 777.828 82.086 771.69 73.859 L 771.69 73.859 L 771.69 73.859 Q 765.551 65.632 754.35 65.632 Z  M 754.35 47.975 L 754.35 47.975 L 754.35 47.975 Q 777.132 47.975 790.043 61.012 L 790.043 61.012 L 790.043 61.012 Q 802.953 74.049 802.953 97.022 L 802.953 97.022 L 802.953 97.022 Q 802.953 119.931 790.043 132.968 L 790.043 132.968 L 790.043 132.968 Q 777.132 146.005 754.35 146.005 L 754.35 146.005 L 754.35 146.005 Q 731.63 146.005 718.688 132.968 L 718.688 132.968 L 718.688 132.968 Q 705.746 119.931 705.746 97.022 L 705.746 97.022 L 705.746 97.022 Q 705.746 74.049 718.688 61.012 L 718.688 61.012 L 718.688 61.012 Q 731.63 47.975 754.35 47.975 Z " fill="rgb(0,68,255)"/><path d=" M 844.691 48.171 L 844.691 48.171 L 844.691 48.171 Q 840.064 48.171 837.75 51.172 L 837.75 51.172 L 837.75 51.172 Q 835.437 54.172 835.437 60.173 L 835.437 60.173 L 835.437 60.173 Q 835.437 66.175 837.75 69.175 L 837.75 69.175 L 837.75 69.175 Q 840.064 72.176 844.691 72.176 L 844.691 72.176 L 844.691 72.176 Q 849.363 72.176 851.677 69.175 L 851.677 69.175 L 851.677 69.175 Q 853.99 66.175 853.99 60.173 L 853.99 60.173 L 853.99 60.173 Q 853.99 54.172 851.677 51.172 L 851.677 51.172 L 851.677 51.172 Q 849.363 48.171 844.691 48.171 Z  M 866.497 15.324 L 866.497 15.324 L 866.497 27.968 L 866.497 27.968 Q 862.145 25.907 858.296 24.922 L 858.296 24.922 L 858.296 24.922 Q 854.448 23.937 850.783 23.937 L 850.783 23.937 L 850.783 23.937 Q 842.904 23.937 838.506 28.312 L 838.506 28.312 L 838.506 28.312 Q 834.108 32.687 833.375 41.299 L 833.375 41.299 L 833.375 41.299 Q 836.399 39.055 839.926 37.932 L 839.926 37.932 L 839.926 37.932 Q 843.454 36.81 847.622 36.81 L 847.622 36.81 L 847.622 36.81 Q 858.113 36.81 864.55 42.948 L 864.55 42.948 L 864.55 42.948 Q 870.986 49.087 870.986 59.028 L 870.986 59.028 L 870.986 59.028 Q 870.986 70.023 863.794 76.643 L 863.794 76.643 L 863.794 76.643 Q 856.601 83.262 844.507 83.262 L 844.507 83.262 L 844.507 83.262 Q 831.176 83.262 823.869 74.26 L 823.869 74.26 L 823.869 74.26 Q 816.562 65.258 816.562 48.721 L 816.562 48.721 L 816.562 48.721 Q 816.562 31.771 825.106 22.081 L 825.106 22.081 L 825.106 22.081 Q 833.65 12.392 848.539 12.392 L 848.539 12.392 L 848.539 12.392 Q 853.257 12.392 857.701 13.125 L 857.701 13.125 L 857.701 13.125 Q 862.145 13.858 866.497 15.324 Z  M 910.567 56.692 L 910.567 28.06 L 891.235 56.692 L 910.567 56.692 Z  M 880.24 54.355 L 907.635 13.538 L 927.242 13.538 L 927.242 56.692 L 937 56.692 L 937 69.473 L 927.242 69.473 L 927.242 81.934 L 910.567 81.934 L 910.567 69.473 L 880.24 69.473 L 880.24 54.355 Z " fill="rgb(255,0,0)"/><path d=" M 414.422 198.537 L 414.422 198.537 L 414.422 198.537 Q 409.271 198.537 406.695 201.878 L 406.695 201.878 L 406.695 201.878 Q 404.119 205.219 404.119 211.9 L 404.119 211.9 L 404.119 211.9 Q 404.119 218.582 406.695 221.923 L 406.695 221.923 L 406.695 221.923 Q 409.271 225.264 414.422 225.264 L 414.422 225.264 L 414.422 225.264 Q 419.625 225.264 422.201 221.923 L 422.201 221.923 L 422.201 221.923 Q 424.777 218.582 424.777 211.9 L 424.777 211.9 L 424.777 211.9 Q 424.777 205.219 422.201 201.878 L 422.201 201.878 L 422.201 201.878 Q 419.625 198.537 414.422 198.537 Z  M 438.701 161.965 L 438.701 161.965 L 438.701 176.043 L 438.701 176.043 Q 433.856 173.748 429.571 172.651 L 429.571 172.651 L 429.571 172.651 Q 425.287 171.555 421.206 171.555 L 421.206 171.555 L 421.206 171.555 Q 412.433 171.555 407.536 176.426 L 407.536 176.426 L 407.536 176.426 Q 402.64 181.297 401.824 190.886 L 401.824 190.886 L 401.824 190.886 Q 405.19 188.387 409.118 187.137 L 409.118 187.137 L 409.118 187.137 Q 413.045 185.887 417.687 185.887 L 417.687 185.887 L 417.687 185.887 Q 429.367 185.887 436.534 192.722 L 436.534 192.722 L 436.534 192.722 Q 443.7 199.557 443.7 210.625 L 443.7 210.625 L 443.7 210.625 Q 443.7 222.867 435.692 230.237 L 435.692 230.237 L 435.692 230.237 Q 427.684 237.608 414.218 237.608 L 414.218 237.608 L 414.218 237.608 Q 399.375 237.608 391.24 227.585 L 391.24 227.585 L 391.24 227.585 Q 383.105 217.562 383.105 199.149 L 383.105 199.149 L 383.105 199.149 Q 383.105 180.277 392.617 169.489 L 392.617 169.489 L 392.617 169.489 Q 402.13 158.701 418.707 158.701 L 418.707 158.701 L 418.707 158.701 Q 423.96 158.701 428.908 159.517 L 428.908 159.517 L 428.908 159.517 Q 433.856 160.333 438.701 161.965 Z  M 470.359 208.024 L 470.359 176.145 L 448.835 208.024 L 470.359 208.024 Z  M 436.593 205.423 L 467.095 159.976 L 488.925 159.976 L 488.925 208.024 L 499.79 208.024 L 499.79 222.255 L 488.925 222.255 L 488.925 236.128 L 470.359 236.128 L 470.359 222.255 L 436.593 222.255 L 436.593 205.423 Z  M 523.44 174.819 L 516.401 174.819 L 516.401 221.286 L 523.44 221.286 L 523.44 221.286 Q 535.477 221.286 541.827 215.318 L 541.827 215.318 L 541.827 215.318 Q 548.178 209.35 548.178 197.976 L 548.178 197.976 L 548.178 197.976 Q 548.178 186.652 541.853 180.736 L 541.853 180.736 L 541.853 180.736 Q 535.528 174.819 523.44 174.819 L 523.44 174.819 Z  M 496.763 236.128 L 496.763 159.976 L 517.472 159.976 L 517.472 159.976 Q 534.814 159.976 543.307 162.45 L 543.307 162.45 L 543.307 162.45 Q 551.799 164.924 557.869 170.84 L 557.869 170.84 L 557.869 170.84 Q 563.224 175.992 565.826 182.725 L 565.826 182.725 L 565.826 182.725 Q 568.427 189.458 568.427 197.976 L 568.427 197.976 L 568.427 197.976 Q 568.427 206.596 565.826 213.354 L 565.826 213.354 L 565.826 213.354 Q 563.224 220.112 557.869 225.264 L 557.869 225.264 L 557.869 225.264 Q 551.748 231.181 543.179 233.655 L 543.179 233.655 L 543.179 233.655 Q 534.61 236.128 517.472 236.128 L 517.472 236.128 L 496.763 236.128 Z  M 592.74 174.819 L 585.701 174.819 L 585.701 221.286 L 592.74 221.286 L 592.74 221.286 Q 604.778 221.286 611.128 215.318 L 611.128 215.318 L 611.128 215.318 Q 617.478 209.35 617.478 197.976 L 617.478 197.976 L 617.478 197.976 Q 617.478 186.652 611.153 180.736 L 611.153 180.736 L 611.153 180.736 Q 604.829 174.819 592.74 174.819 L 592.74 174.819 Z  M 566.064 236.128 L 566.064 159.976 L 586.772 159.976 L 586.772 159.976 Q 604.114 159.976 612.607 162.45 L 612.607 162.45 L 612.607 162.45 Q 621.1 164.924 627.169 170.84 L 627.169 170.84 L 627.169 170.84 Q 632.525 175.992 635.126 182.725 L 635.126 182.725 L 635.126 182.725 Q 637.728 189.458 637.728 197.976 L 637.728 197.976 L 637.728 197.976 Q 637.728 206.596 635.126 213.354 L 635.126 213.354 L 635.126 213.354 Q 632.525 220.112 627.169 225.264 L 627.169 225.264 L 627.169 225.264 Q 621.049 231.181 612.48 233.655 L 612.48 233.655 L 612.48 233.655 Q 603.91 236.128 586.772 236.128 L 586.772 236.128 L 566.064 236.128 Z " fill="rgb(119,119,119)"/><path d=" M 411.521 196.602 L 411.521 196.602 L 411.521 196.602 Q 406.369 196.602 403.793 199.943 L 403.793 199.943 L 403.793 199.943 Q 401.217 203.284 401.217 209.966 L 401.217 209.966 L 401.217 209.966 Q 401.217 216.648 403.793 219.989 L 403.793 219.989 L 403.793 219.989 Q 406.369 223.33 411.521 223.33 L 411.521 223.33 L 411.521 223.33 Q 416.723 223.33 419.299 219.989 L 419.299 219.989 L 419.299 219.989 Q 421.875 216.648 421.875 209.966 L 421.875 209.966 L 421.875 209.966 Q 421.875 203.284 419.299 199.943 L 419.299 199.943 L 419.299 199.943 Q 416.723 196.602 411.521 196.602 Z  M 435.8 160.031 L 435.8 160.031 L 435.8 174.109 L 435.8 174.109 Q 430.954 171.813 426.669 170.717 L 426.669 170.717 L 426.669 170.717 Q 422.385 169.62 418.304 169.62 L 418.304 169.62 L 418.304 169.62 Q 409.531 169.62 404.635 174.491 L 404.635 174.491 L 404.635 174.491 Q 399.738 179.362 398.922 188.951 L 398.922 188.951 L 398.922 188.951 Q 402.289 186.452 406.216 185.202 L 406.216 185.202 L 406.216 185.202 Q 410.143 183.953 414.785 183.953 L 414.785 183.953 L 414.785 183.953 Q 426.465 183.953 433.632 190.788 L 433.632 190.788 L 433.632 190.788 Q 440.798 197.622 440.798 208.691 L 440.798 208.691 L 440.798 208.691 Q 440.798 220.932 432.79 228.303 L 432.79 228.303 L 432.79 228.303 Q 424.782 235.673 411.317 235.673 L 411.317 235.673 L 411.317 235.673 Q 396.474 235.673 388.338 225.65 L 388.338 225.65 L 388.338 225.65 Q 380.203 215.628 380.203 197.214 L 380.203 197.214 L 380.203 197.214 Q 380.203 178.342 389.715 167.554 L 389.715 167.554 L 389.715 167.554 Q 399.228 156.766 415.805 156.766 L 415.805 156.766 L 415.805 156.766 Q 421.059 156.766 426.006 157.583 L 426.006 157.583 L 426.006 157.583 Q 430.954 158.399 435.8 160.031 Z  M 467.457 206.09 L 467.457 174.211 L 445.933 206.09 L 467.457 206.09 Z  M 433.691 203.488 L 464.193 158.042 L 486.024 158.042 L 486.024 206.09 L 496.888 206.09 L 496.888 220.32 L 486.024 220.32 L 486.024 234.194 L 467.457 234.194 L 467.457 220.32 L 433.691 220.32 L 433.691 203.488 Z  M 520.538 172.884 L 513.499 172.884 L 513.499 219.351 L 520.538 219.351 L 520.538 219.351 Q 532.575 219.351 538.926 213.383 L 538.926 213.383 L 538.926 213.383 Q 545.276 207.416 545.276 196.041 L 545.276 196.041 L 545.276 196.041 Q 545.276 184.718 538.951 178.801 L 538.951 178.801 L 538.951 178.801 Q 532.626 172.884 520.538 172.884 L 520.538 172.884 Z  M 493.862 234.194 L 493.862 158.042 L 514.57 158.042 L 514.57 158.042 Q 531.912 158.042 540.405 160.515 L 540.405 160.515 L 540.405 160.515 Q 548.897 162.989 554.967 168.906 L 554.967 168.906 L 554.967 168.906 Q 560.323 174.058 562.924 180.79 L 562.924 180.79 L 562.924 180.79 Q 565.525 187.523 565.525 196.041 L 565.525 196.041 L 565.525 196.041 Q 565.525 204.661 562.924 211.42 L 562.924 211.42 L 562.924 211.42 Q 560.323 218.178 554.967 223.33 L 554.967 223.33 L 554.967 223.33 Q 548.846 229.246 540.277 231.72 L 540.277 231.72 L 540.277 231.72 Q 531.708 234.194 514.57 234.194 L 514.57 234.194 L 493.862 234.194 Z  M 589.838 172.884 L 582.8 172.884 L 582.8 219.351 L 589.838 219.351 L 589.838 219.351 Q 601.876 219.351 608.226 213.383 L 608.226 213.383 L 608.226 213.383 Q 614.576 207.416 614.576 196.041 L 614.576 196.041 L 614.576 196.041 Q 614.576 184.718 608.252 178.801 L 608.252 178.801 L 608.252 178.801 Q 601.927 172.884 589.838 172.884 L 589.838 172.884 Z  M 563.162 234.194 L 563.162 158.042 L 583.871 158.042 L 583.871 158.042 Q 601.213 158.042 609.705 160.515 L 609.705 160.515 L 609.705 160.515 Q 618.198 162.989 624.268 168.906 L 624.268 168.906 L 624.268 168.906 Q 629.623 174.058 632.225 180.79 L 632.225 180.79 L 632.225 180.79 Q 634.826 187.523 634.826 196.041 L 634.826 196.041 L 634.826 196.041 Q 634.826 204.661 632.225 211.42 L 632.225 211.42 L 632.225 211.42 Q 629.623 218.178 624.268 223.33 L 624.268 223.33 L 624.268 223.33 Q 618.147 229.246 609.578 231.72 L 609.578 231.72 L 609.578 231.72 Q 601.009 234.194 583.871 234.194 L 583.871 234.194 L 563.162 234.194 Z " fill="rgb(251,251,251)"/></g></svg>