<?xml version="1.0" encoding="UTF-8" standalone="no"?><!-- Generator: Gravit.io --><svg xmlns="http://www.w3.org/2000/svg" xmlns:xlink="http://www.w3.org/1999/xlink" style="isolation:isolate" viewBox="0 0 992 250" width="992pt" height="250pt"><defs><clipPath id="_clipPath_JxNhlvWcVgxJhtfTFLGEjjUm0U2VOpys"><rect width="992" height="250"/></clipPath></defs><g clip-path="url(#_clipPath_JxNhlvWcVgxJhtfTFLGEjjUm0U2VOpys)"><path d=" M 159.116 229.461 L 133.414 229.461 L 134.745 222.457 L 141.808 222.457 L 189.797 143.034 L 203.632 143.034 L 220.767 222.457 L 228.988 222.457 L 227.656 229.461 L 187.192 229.461 L 188.524 222.457 L 196.975 222.457 L 193.328 204.801 L 160.853 204.801 L 150.144 222.457 L 160.448 222.457 L 159.116 229.461 Z  M 184.935 164.742 L 165.021 197.796 L 191.823 197.796 L 184.935 164.742 Z  M 257.952 229.461 L 227.85 229.461 L 229.182 222.457 L 240.18 222.457 L 254.305 150.038 L 243.306 150.038 L 244.638 143.034 L 280.297 143.034 L 294.19 198.491 L 329.734 143.034 L 365.335 143.034 L 364.004 150.038 L 352.947 150.038 L 338.822 222.457 L 349.879 222.457 L 348.548 229.461 L 304.089 229.461 L 305.421 222.457 L 316.419 222.457 L 329.271 156.522 L 290.717 216.784 L 276.071 216.784 L 261.136 156.522 L 248.285 222.457 L 259.284 222.457 L 257.952 229.461 Z  M 400.667 229.461 L 356.209 229.461 L 357.54 222.457 L 368.597 222.457 L 382.722 150.038 L 371.665 150.038 L 372.997 143.034 L 417.455 143.034 L 416.124 150.038 L 405.009 150.038 L 390.884 222.457 L 401.999 222.457 L 400.667 229.461 Z  M 503.092 170.183 L 495.74 170.183 L 495.74 170.183 Q 495.393 158.721 490.299 153.598 L 490.299 153.598 L 490.299 153.598 Q 485.205 148.475 474.148 148.475 L 474.148 148.475 L 474.148 148.475 Q 460.718 148.475 452.671 157.593 L 452.671 157.593 L 452.671 157.593 Q 444.625 166.71 440.804 186.334 L 440.804 186.334 L 440.804 186.334 Q 437.042 205.785 441.267 214.96 L 441.267 214.96 L 441.267 214.96 Q 445.493 224.135 458.229 224.135 L 458.229 224.135 L 458.229 224.135 Q 463.091 224.135 467.462 223.035 L 467.462 223.035 L 467.462 223.035 Q 471.832 221.936 475.711 219.736 L 475.711 219.736 L 480.284 196.002 L 469.864 196.002 L 471.254 189.055 L 502.398 189.055 L 495.914 222.225 L 495.914 222.225 Q 485.321 226.74 475.19 228.94 L 475.19 228.94 L 475.19 228.94 Q 465.06 231.14 454.929 231.14 L 454.929 231.14 L 454.929 231.14 Q 432.7 231.14 422.338 219.157 L 422.338 219.157 L 422.338 219.157 Q 411.976 207.174 416.028 186.334 L 416.028 186.334 L 416.028 186.334 Q 420.08 165.436 435.131 153.454 L 435.131 153.454 L 435.131 153.454 Q 450.182 141.471 472.411 141.471 L 472.411 141.471 L 472.411 141.471 Q 481.674 141.471 490.27 143.323 L 490.27 143.323 L 490.27 143.323 Q 498.866 145.176 507.202 148.938 L 507.202 148.938 L 503.092 170.183 Z  M 525.226 229.461 L 499.523 229.461 L 500.855 222.457 L 507.917 222.457 L 555.907 143.034 L 569.742 143.034 L 586.877 222.457 L 595.097 222.457 L 593.766 229.461 L 553.302 229.461 L 554.633 222.457 L 563.085 222.457 L 559.438 204.801 L 526.963 204.801 L 516.253 222.457 L 526.557 222.457 L 525.226 229.461 Z  M 551.044 164.742 L 531.131 197.796 L 557.933 197.796 L 551.044 164.742 Z " fill="rgb(185,185,185)"/><path d=" M 194.532 87.573 L 194.532 105.461 L 194.532 105.461 Q 188.396 108.645 181.739 110.265 L 181.739 110.265 L 181.739 110.265 Q 175.082 111.886 167.846 111.886 L 167.846 111.886 L 167.846 111.886 Q 146.253 111.886 133.634 99.817 L 133.634 99.817 L 133.634 99.817 Q 121.014 87.747 121.014 67.081 L 121.014 67.081 L 121.014 67.081 Q 121.014 46.357 133.634 34.287 L 133.634 34.287 L 133.634 34.287 Q 146.253 22.217 167.846 22.217 L 167.846 22.217 L 167.846 22.217 Q 175.082 22.217 181.739 23.838 L 181.739 23.838 L 181.739 23.838 Q 188.396 25.459 194.532 28.643 L 194.532 28.643 L 194.532 46.53 L 194.532 46.53 Q 188.338 42.304 182.318 40.336 L 182.318 40.336 L 182.318 40.336 Q 176.297 38.368 169.64 38.368 L 169.64 38.368 L 169.64 38.368 Q 157.715 38.368 150.884 46.009 L 150.884 46.009 L 150.884 46.009 Q 144.053 53.65 144.053 67.081 L 144.053 67.081 L 144.053 67.081 Q 144.053 80.453 150.884 88.094 L 150.884 88.094 L 150.884 88.094 Q 157.715 95.735 169.64 95.735 L 169.64 95.735 L 169.64 95.735 Q 176.297 95.735 182.318 93.767 L 182.318 93.767 L 182.318 93.767 Q 188.338 91.799 194.532 87.573 L 194.532 87.573 Z  M 239.474 58.629 L 239.474 58.629 L 239.474 58.629 Q 232.585 58.629 228.967 63.578 L 228.967 63.578 L 228.967 63.578 Q 225.349 68.528 225.349 77.848 L 225.349 77.848 L 225.349 77.848 Q 225.349 87.168 228.967 92.117 L 228.967 92.117 L 228.967 92.117 Q 232.585 97.067 239.474 97.067 L 239.474 97.067 L 239.474 97.067 Q 246.247 97.067 249.836 92.117 L 249.836 92.117 L 249.836 92.117 Q 253.425 87.168 253.425 77.848 L 253.425 77.848 L 253.425 77.848 Q 253.425 68.528 249.836 63.578 L 249.836 63.578 L 249.836 63.578 Q 246.247 58.629 239.474 58.629 Z  M 239.474 43.809 L 239.474 43.809 L 239.474 43.809 Q 256.204 43.809 265.61 52.84 L 265.61 52.84 L 265.61 52.84 Q 275.017 61.871 275.017 77.848 L 275.017 77.848 L 275.017 77.848 Q 275.017 93.825 265.61 102.856 L 265.61 102.856 L 265.61 102.856 Q 256.204 111.886 239.474 111.886 L 239.474 111.886 L 239.474 111.886 Q 222.686 111.886 213.221 102.856 L 213.221 102.856 L 213.221 102.856 Q 203.757 93.825 203.757 77.848 L 203.757 77.848 L 203.757 77.848 Q 203.757 61.871 213.221 52.84 L 213.221 52.84 L 213.221 52.84 Q 222.686 43.809 239.474 43.809 Z  M 346.704 56.14 L 346.704 56.14 L 346.704 56.14 Q 350.64 50.119 356.052 46.964 L 356.052 46.964 L 356.052 46.964 Q 361.465 43.809 367.949 43.809 L 367.949 43.809 L 367.949 43.809 Q 379.121 43.809 384.968 50.698 L 384.968 50.698 L 384.968 50.698 Q 390.815 57.587 390.815 70.728 L 390.815 70.728 L 390.815 110.208 L 369.975 110.208 L 369.975 76.401 L 369.975 76.401 Q 370.033 75.648 370.061 74.838 L 370.061 74.838 L 370.061 74.838 Q 370.09 74.027 370.09 72.522 L 370.09 72.522 L 370.09 72.522 Q 370.09 65.633 368.064 62.536 L 368.064 62.536 L 368.064 62.536 Q 366.038 59.439 361.523 59.439 L 361.523 59.439 L 361.523 59.439 Q 355.618 59.439 352.406 64.302 L 352.406 64.302 L 352.406 64.302 Q 349.193 69.165 349.077 78.369 L 349.077 78.369 L 349.077 110.208 L 328.237 110.208 L 328.237 76.401 L 328.237 76.401 Q 328.237 65.633 326.385 62.536 L 326.385 62.536 L 326.385 62.536 Q 324.532 59.439 319.785 59.439 L 319.785 59.439 L 319.785 59.439 Q 313.823 59.439 310.581 64.331 L 310.581 64.331 L 310.581 64.331 Q 307.339 69.222 307.339 78.311 L 307.339 78.311 L 307.339 110.208 L 286.5 110.208 L 286.5 45.372 L 307.339 45.372 L 307.339 54.866 L 307.339 54.866 Q 311.16 49.367 316.109 46.588 L 316.109 46.588 L 316.109 46.588 Q 321.059 43.809 327.021 43.809 L 327.021 43.809 L 327.021 43.809 Q 333.736 43.809 338.889 47.051 L 338.889 47.051 L 338.889 47.051 Q 344.041 50.293 346.704 56.14 Z  M 466.784 56.14 L 466.784 56.14 L 466.784 56.14 Q 470.721 50.119 476.133 46.964 L 476.133 46.964 L 476.133 46.964 Q 481.546 43.809 488.029 43.809 L 488.029 43.809 L 488.029 43.809 Q 499.202 43.809 505.049 50.698 L 505.049 50.698 L 505.049 50.698 Q 510.895 57.587 510.895 70.728 L 510.895 70.728 L 510.895 110.208 L 490.056 110.208 L 490.056 76.401 L 490.056 76.401 Q 490.113 75.648 490.142 74.838 L 490.142 74.838 L 490.142 74.838 Q 490.171 74.027 490.171 72.522 L 490.171 72.522 L 490.171 72.522 Q 490.171 65.633 488.145 62.536 L 488.145 62.536 L 488.145 62.536 Q 486.119 59.439 481.604 59.439 L 481.604 59.439 L 481.604 59.439 Q 475.699 59.439 472.486 64.302 L 472.486 64.302 L 472.486 64.302 Q 469.274 69.165 469.158 78.369 L 469.158 78.369 L 469.158 110.208 L 448.318 110.208 L 448.318 76.401 L 448.318 76.401 Q 448.318 65.633 446.466 62.536 L 446.466 62.536 L 446.466 62.536 Q 444.613 59.439 439.866 59.439 L 439.866 59.439 L 439.866 59.439 Q 433.904 59.439 430.662 64.331 L 430.662 64.331 L 430.662 64.331 Q 427.42 69.222 427.42 78.311 L 427.42 78.311 L 427.42 110.208 L 406.58 110.208 L 406.58 45.372 L 427.42 45.372 L 427.42 54.866 L 427.42 54.866 Q 431.241 49.367 436.19 46.588 L 436.19 46.588 L 436.19 46.588 Q 441.14 43.809 447.102 43.809 L 447.102 43.809 L 447.102 43.809 Q 453.817 43.809 458.969 47.051 L 458.969 47.051 L 458.969 47.051 Q 464.122 50.293 466.784 56.14 Z  M 557.632 58.629 L 557.632 58.629 L 557.632 58.629 Q 550.743 58.629 547.125 63.578 L 547.125 63.578 L 547.125 63.578 Q 543.507 68.528 543.507 77.848 L 543.507 77.848 L 543.507 77.848 Q 543.507 87.168 547.125 92.117 L 547.125 92.117 L 547.125 92.117 Q 550.743 97.067 557.632 97.067 L 557.632 97.067 L 557.632 97.067 Q 564.405 97.067 567.994 92.117 L 567.994 92.117 L 567.994 92.117 Q 571.583 87.168 571.583 77.848 L 571.583 77.848 L 571.583 77.848 Q 571.583 68.528 567.994 63.578 L 567.994 63.578 L 567.994 63.578 Q 564.405 58.629 557.632 58.629 Z  M 557.632 43.809 L 557.632 43.809 L 557.632 43.809 Q 574.361 43.809 583.768 52.84 L 583.768 52.84 L 583.768 52.84 Q 593.175 61.871 593.175 77.848 L 593.175 77.848 L 593.175 77.848 Q 593.175 93.825 583.768 102.856 L 583.768 102.856 L 583.768 102.856 Q 574.361 111.886 557.632 111.886 L 557.632 111.886 L 557.632 111.886 Q 540.844 111.886 531.379 102.856 L 531.379 102.856 L 531.379 102.856 Q 521.914 93.825 521.914 77.848 L 521.914 77.848 L 521.914 77.848 Q 521.914 61.871 531.379 52.84 L 531.379 52.84 L 531.379 52.84 Q 540.844 43.809 557.632 43.809 Z  M 648.884 54.866 L 648.884 54.866 L 648.884 20.133 L 669.724 20.133 L 669.724 110.208 L 648.884 110.208 L 648.884 100.83 L 648.884 100.83 Q 644.6 106.561 639.448 109.223 L 639.448 109.223 L 639.448 109.223 Q 634.296 111.886 627.523 111.886 L 627.523 111.886 L 627.523 111.886 Q 615.54 111.886 607.841 102.364 L 607.841 102.364 L 607.841 102.364 Q 600.142 92.841 600.142 77.848 L 600.142 77.848 L 600.142 77.848 Q 600.142 62.855 607.841 53.332 L 607.841 53.332 L 607.841 53.332 Q 615.54 43.809 627.523 43.809 L 627.523 43.809 L 627.523 43.809 Q 634.238 43.809 639.419 46.501 L 639.419 46.501 L 639.419 46.501 Q 644.6 49.193 648.884 54.866 Z  M 635.222 96.835 L 635.222 96.835 L 635.222 96.835 Q 641.88 96.835 645.382 91.973 L 645.382 91.973 L 645.382 91.973 Q 648.884 87.11 648.884 77.848 L 648.884 77.848 L 648.884 77.848 Q 648.884 68.586 645.382 63.723 L 645.382 63.723 L 645.382 63.723 Q 641.88 58.86 635.222 58.86 L 635.222 58.86 L 635.222 58.86 Q 628.623 58.86 625.121 63.723 L 625.121 63.723 L 625.121 63.723 Q 621.619 68.586 621.619 77.848 L 621.619 77.848 L 621.619 77.848 Q 621.619 87.11 625.121 91.973 L 625.121 91.973 L 625.121 91.973 Q 628.623 96.835 635.222 96.835 Z  M 717.039 58.629 L 717.039 58.629 L 717.039 58.629 Q 710.15 58.629 706.532 63.578 L 706.532 63.578 L 706.532 63.578 Q 702.914 68.528 702.914 77.848 L 702.914 77.848 L 702.914 77.848 Q 702.914 87.168 706.532 92.117 L 706.532 92.117 L 706.532 92.117 Q 710.15 97.067 717.039 97.067 L 717.039 97.067 L 717.039 97.067 Q 723.812 97.067 727.401 92.117 L 727.401 92.117 L 727.401 92.117 Q 730.99 87.168 730.99 77.848 L 730.99 77.848 L 730.99 77.848 Q 730.99 68.528 727.401 63.578 L 727.401 63.578 L 727.401 63.578 Q 723.812 58.629 717.039 58.629 Z  M 717.039 43.809 L 717.039 43.809 L 717.039 43.809 Q 733.769 43.809 743.176 52.84 L 743.176 52.84 L 743.176 52.84 Q 752.583 61.871 752.583 77.848 L 752.583 77.848 L 752.583 77.848 Q 752.583 93.825 743.176 102.856 L 743.176 102.856 L 743.176 102.856 Q 733.769 111.886 717.039 111.886 L 717.039 111.886 L 717.039 111.886 Q 700.251 111.886 690.787 102.856 L 690.787 102.856 L 690.787 102.856 Q 681.322 93.825 681.322 77.848 L 681.322 77.848 L 681.322 77.848 Q 681.322 61.871 690.787 52.84 L 690.787 52.84 L 690.787 52.84 Q 700.251 43.809 717.039 43.809 Z  M 812.286 44.273 L 812.344 63.028 L 812.344 63.028 Q 809.623 61.755 806.931 61.147 L 806.931 61.147 L 806.931 61.147 Q 804.239 60.539 801.518 60.539 L 801.518 60.539 L 801.518 60.539 Q 793.53 60.539 789.217 65.662 L 789.217 65.662 L 789.217 65.662 Q 784.904 70.785 784.904 80.337 L 784.904 80.337 L 784.904 110.208 L 764.18 110.208 L 764.18 45.372 L 784.904 45.372 L 784.904 56.024 L 784.904 56.024 Q 788.899 49.656 794.08 46.733 L 794.08 46.733 L 794.08 46.733 Q 799.261 43.809 806.497 43.809 L 806.497 43.809 L 806.497 43.809 Q 807.539 43.809 808.755 43.896 L 808.755 43.896 L 808.755 43.896 Q 809.97 43.983 812.286 44.273 L 812.286 44.273 Z  M 883.914 77.616 L 883.914 77.616 L 883.914 83.521 L 835.461 83.521 L 835.461 83.521 Q 836.214 90.815 840.729 94.462 L 840.729 94.462 L 840.729 94.462 Q 845.245 98.109 853.349 98.109 L 853.349 98.109 L 853.349 98.109 Q 859.89 98.109 866.75 96.17 L 866.75 96.17 L 866.75 96.17 Q 873.61 94.23 880.846 90.294 L 880.846 90.294 L 880.846 106.271 L 880.846 106.271 Q 873.494 109.05 866.142 110.468 L 866.142 110.468 L 866.142 110.468 Q 858.79 111.886 851.439 111.886 L 851.439 111.886 L 851.439 111.886 Q 833.84 111.886 824.086 102.943 L 824.086 102.943 L 824.086 102.943 Q 814.332 93.999 814.332 77.848 L 814.332 77.848 L 814.332 77.848 Q 814.332 61.986 823.913 52.898 L 823.913 52.898 L 823.913 52.898 Q 833.493 43.809 850.281 43.809 L 850.281 43.809 L 850.281 43.809 Q 865.563 43.809 874.739 53.014 L 874.739 53.014 L 874.739 53.014 Q 883.914 62.218 883.914 77.616 Z  M 835.693 70.728 L 862.611 70.728 L 862.611 70.728 Q 862.611 64.823 859.167 61.205 L 859.167 61.205 L 859.167 61.205 Q 855.722 57.587 850.165 57.587 L 850.165 57.587 L 850.165 57.587 Q 844.145 57.587 840.382 60.973 L 840.382 60.973 L 840.382 60.973 Q 836.619 64.36 835.693 70.728 L 835.693 70.728 Z " fill="rgb(185,185,185)"/><path d=" M 608.639 227.037 L 608.639 217.195 L 627.742 217.195 L 627.742 151.261 L 606.96 155.429 L 606.96 144.777 L 627.627 140.609 L 639.32 140.609 L 639.32 217.195 L 658.423 217.195 L 658.423 227.037 L 608.639 227.037 Z  M 685.208 217.195 L 685.208 217.195 L 726.02 217.195 L 726.02 227.037 L 671.141 227.037 L 671.141 217.195 L 671.141 217.195 Q 677.798 210.307 689.289 198.7 L 689.289 198.7 L 689.289 198.7 Q 700.78 187.093 703.733 183.736 L 703.733 183.736 L 703.733 183.736 Q 709.348 177.426 711.576 173.056 L 711.576 173.056 L 711.576 173.056 Q 713.805 168.685 713.805 164.459 L 713.805 164.459 L 713.805 164.459 Q 713.805 157.57 708.971 153.229 L 708.971 153.229 L 708.971 153.229 Q 704.138 148.887 696.381 148.887 L 696.381 148.887 L 696.381 148.887 Q 690.881 148.887 684.774 150.797 L 684.774 150.797 L 684.774 150.797 Q 678.667 152.708 671.72 156.586 L 671.72 156.586 L 671.72 144.777 L 671.72 144.777 Q 678.783 141.941 684.919 140.493 L 684.919 140.493 L 684.919 140.493 Q 691.055 139.046 696.149 139.046 L 696.149 139.046 L 696.149 139.046 Q 709.579 139.046 717.568 145.761 L 717.568 145.761 L 717.568 145.761 Q 725.556 152.476 725.556 163.707 L 725.556 163.707 L 725.556 163.707 Q 725.556 169.032 723.559 173.808 L 723.559 173.808 L 723.559 173.808 Q 721.562 178.584 716.294 185.067 L 716.294 185.067 L 716.294 185.067 Q 714.847 186.746 707.09 194.764 L 707.09 194.764 L 707.09 194.764 Q 699.333 202.781 685.208 217.195 Z  M 768.666 148.308 L 768.666 148.308 L 768.666 148.308 Q 759.635 148.308 755.091 157.194 L 755.091 157.194 L 755.091 157.194 Q 750.547 166.08 750.547 183.91 L 750.547 183.91 L 750.547 183.91 Q 750.547 201.681 755.091 210.567 L 755.091 210.567 L 755.091 210.567 Q 759.635 219.453 768.666 219.453 L 768.666 219.453 L 768.666 219.453 Q 777.754 219.453 782.299 210.567 L 782.299 210.567 L 782.299 210.567 Q 786.843 201.681 786.843 183.91 L 786.843 183.91 L 786.843 183.91 Q 786.843 166.08 782.299 157.194 L 782.299 157.194 L 782.299 157.194 Q 777.754 148.308 768.666 148.308 Z  M 768.666 139.046 L 768.666 139.046 L 768.666 139.046 Q 783.196 139.046 790.866 150.537 L 790.866 150.537 L 790.866 150.537 Q 798.536 162.028 798.536 183.91 L 798.536 183.91 L 798.536 183.91 Q 798.536 205.734 790.866 217.224 L 790.866 217.224 L 790.866 217.224 Q 783.196 228.715 768.666 228.715 L 768.666 228.715 L 768.666 228.715 Q 754.136 228.715 746.466 217.224 L 746.466 217.224 L 746.466 217.224 Q 738.796 205.734 738.796 183.91 L 738.796 183.91 L 738.796 183.91 Q 738.796 162.028 746.466 150.537 L 746.466 150.537 L 746.466 150.537 Q 754.136 139.046 768.666 139.046 Z  M 837.188 148.308 L 837.188 148.308 L 837.188 148.308 Q 828.158 148.308 823.614 157.194 L 823.614 157.194 L 823.614 157.194 Q 819.069 166.08 819.069 183.91 L 819.069 183.91 L 819.069 183.91 Q 819.069 201.681 823.614 210.567 L 823.614 210.567 L 823.614 210.567 Q 828.158 219.453 837.188 219.453 L 837.188 219.453 L 837.188 219.453 Q 846.277 219.453 850.821 210.567 L 850.821 210.567 L 850.821 210.567 Q 855.365 201.681 855.365 183.91 L 855.365 183.91 L 855.365 183.91 Q 855.365 166.08 850.821 157.194 L 850.821 157.194 L 850.821 157.194 Q 846.277 148.308 837.188 148.308 Z  M 837.188 139.046 L 837.188 139.046 L 837.188 139.046 Q 851.718 139.046 859.389 150.537 L 859.389 150.537 L 859.389 150.537 Q 867.059 162.028 867.059 183.91 L 867.059 183.91 L 867.059 183.91 Q 867.059 205.734 859.389 217.224 L 859.389 217.224 L 859.389 217.224 Q 851.718 228.715 837.188 228.715 L 837.188 228.715 L 837.188 228.715 Q 822.658 228.715 814.988 217.224 L 814.988 217.224 L 814.988 217.224 Q 807.318 205.734 807.318 183.91 L 807.318 183.91 L 807.318 183.91 Q 807.318 162.028 814.988 150.537 L 814.988 150.537 L 814.988 150.537 Q 822.658 139.046 837.188 139.046 Z " fill="rgb(185,185,185)"/><path d=" M 104.75 120.588 L 905 120.588 L 905 127.062 L 104.75 127.062 L 104.75 120.588 Z " fill="rgb(185,185,185)"/><path d=" M 192.532 85.573 L 192.532 103.461 L 192.532 103.461 Q 186.396 106.645 179.739 108.265 L 179.739 108.265 L 179.739 108.265 Q 173.082 109.886 165.846 109.886 L 165.846 109.886 L 165.846 109.886 Q 144.253 109.886 131.634 97.817 L 131.634 97.817 L 131.634 97.817 Q 119.014 85.747 119.014 65.081 L 119.014 65.081 L 119.014 65.081 Q 119.014 44.357 131.634 32.287 L 131.634 32.287 L 131.634 32.287 Q 144.253 20.217 165.846 20.217 L 165.846 20.217 L 165.846 20.217 Q 173.082 20.217 179.739 21.838 L 179.739 21.838 L 179.739 21.838 Q 186.396 23.459 192.532 26.643 L 192.532 26.643 L 192.532 44.53 L 192.532 44.53 Q 186.338 40.304 180.318 38.336 L 180.318 38.336 L 180.318 38.336 Q 174.297 36.368 167.64 36.368 L 167.64 36.368 L 167.64 36.368 Q 155.715 36.368 148.884 44.009 L 148.884 44.009 L 148.884 44.009 Q 142.053 51.65 142.053 65.081 L 142.053 65.081 L 142.053 65.081 Q 142.053 78.453 148.884 86.094 L 148.884 86.094 L 148.884 86.094 Q 155.715 93.735 167.64 93.735 L 167.64 93.735 L 167.64 93.735 Q 174.297 93.735 180.318 91.767 L 180.318 91.767 L 180.318 91.767 Q 186.338 89.799 192.532 85.573 L 192.532 85.573 Z  M 237.474 56.629 L 237.474 56.629 L 237.474 56.629 Q 230.585 56.629 226.967 61.578 L 226.967 61.578 L 226.967 61.578 Q 223.349 66.528 223.349 75.848 L 223.349 75.848 L 223.349 75.848 Q 223.349 85.168 226.967 90.117 L 226.967 90.117 L 226.967 90.117 Q 230.585 95.067 237.474 95.067 L 237.474 95.067 L 237.474 95.067 Q 244.247 95.067 247.836 90.117 L 247.836 90.117 L 247.836 90.117 Q 251.425 85.168 251.425 75.848 L 251.425 75.848 L 251.425 75.848 Q 251.425 66.528 247.836 61.578 L 247.836 61.578 L 247.836 61.578 Q 244.247 56.629 237.474 56.629 Z  M 237.474 41.809 L 237.474 41.809 L 237.474 41.809 Q 254.204 41.809 263.61 50.84 L 263.61 50.84 L 263.61 50.84 Q 273.017 59.871 273.017 75.848 L 273.017 75.848 L 273.017 75.848 Q 273.017 91.825 263.61 100.856 L 263.61 100.856 L 263.61 100.856 Q 254.204 109.886 237.474 109.886 L 237.474 109.886 L 237.474 109.886 Q 220.686 109.886 211.221 100.856 L 211.221 100.856 L 211.221 100.856 Q 201.757 91.825 201.757 75.848 L 201.757 75.848 L 201.757 75.848 Q 201.757 59.871 211.221 50.84 L 211.221 50.84 L 211.221 50.84 Q 220.686 41.809 237.474 41.809 Z  M 344.704 54.14 L 344.704 54.14 L 344.704 54.14 Q 348.64 48.119 354.052 44.964 L 354.052 44.964 L 354.052 44.964 Q 359.465 41.809 365.949 41.809 L 365.949 41.809 L 365.949 41.809 Q 377.121 41.809 382.968 48.698 L 382.968 48.698 L 382.968 48.698 Q 388.815 55.587 388.815 68.728 L 388.815 68.728 L 388.815 108.208 L 367.975 108.208 L 367.975 74.401 L 367.975 74.401 Q 368.033 73.648 368.061 72.838 L 368.061 72.838 L 368.061 72.838 Q 368.09 72.027 368.09 70.522 L 368.09 70.522 L 368.09 70.522 Q 368.09 63.633 366.064 60.536 L 366.064 60.536 L 366.064 60.536 Q 364.038 57.439 359.523 57.439 L 359.523 57.439 L 359.523 57.439 Q 353.618 57.439 350.406 62.302 L 350.406 62.302 L 350.406 62.302 Q 347.193 67.165 347.077 76.369 L 347.077 76.369 L 347.077 108.208 L 326.237 108.208 L 326.237 74.401 L 326.237 74.401 Q 326.237 63.633 324.385 60.536 L 324.385 60.536 L 324.385 60.536 Q 322.532 57.439 317.785 57.439 L 317.785 57.439 L 317.785 57.439 Q 311.823 57.439 308.581 62.331 L 308.581 62.331 L 308.581 62.331 Q 305.339 67.222 305.339 76.311 L 305.339 76.311 L 305.339 108.208 L 284.5 108.208 L 284.5 43.372 L 305.339 43.372 L 305.339 52.866 L 305.339 52.866 Q 309.16 47.367 314.109 44.588 L 314.109 44.588 L 314.109 44.588 Q 319.059 41.809 325.021 41.809 L 325.021 41.809 L 325.021 41.809 Q 331.736 41.809 336.889 45.051 L 336.889 45.051 L 336.889 45.051 Q 342.041 48.293 344.704 54.14 Z  M 464.784 54.14 L 464.784 54.14 L 464.784 54.14 Q 468.721 48.119 474.133 44.964 L 474.133 44.964 L 474.133 44.964 Q 479.546 41.809 486.029 41.809 L 486.029 41.809 L 486.029 41.809 Q 497.202 41.809 503.049 48.698 L 503.049 48.698 L 503.049 48.698 Q 508.895 55.587 508.895 68.728 L 508.895 68.728 L 508.895 108.208 L 488.056 108.208 L 488.056 74.401 L 488.056 74.401 Q 488.113 73.648 488.142 72.838 L 488.142 72.838 L 488.142 72.838 Q 488.171 72.027 488.171 70.522 L 488.171 70.522 L 488.171 70.522 Q 488.171 63.633 486.145 60.536 L 486.145 60.536 L 486.145 60.536 Q 484.119 57.439 479.604 57.439 L 479.604 57.439 L 479.604 57.439 Q 473.699 57.439 470.486 62.302 L 470.486 62.302 L 470.486 62.302 Q 467.274 67.165 467.158 76.369 L 467.158 76.369 L 467.158 108.208 L 446.318 108.208 L 446.318 74.401 L 446.318 74.401 Q 446.318 63.633 444.466 60.536 L 444.466 60.536 L 444.466 60.536 Q 442.613 57.439 437.866 57.439 L 437.866 57.439 L 437.866 57.439 Q 431.904 57.439 428.662 62.331 L 428.662 62.331 L 428.662 62.331 Q 425.42 67.222 425.42 76.311 L 425.42 76.311 L 425.42 108.208 L 404.58 108.208 L 404.58 43.372 L 425.42 43.372 L 425.42 52.866 L 425.42 52.866 Q 429.241 47.367 434.19 44.588 L 434.19 44.588 L 434.19 44.588 Q 439.14 41.809 445.102 41.809 L 445.102 41.809 L 445.102 41.809 Q 451.817 41.809 456.969 45.051 L 456.969 45.051 L 456.969 45.051 Q 462.122 48.293 464.784 54.14 Z  M 555.632 56.629 L 555.632 56.629 L 555.632 56.629 Q 548.743 56.629 545.125 61.578 L 545.125 61.578 L 545.125 61.578 Q 541.507 66.528 541.507 75.848 L 541.507 75.848 L 541.507 75.848 Q 541.507 85.168 545.125 90.117 L 545.125 90.117 L 545.125 90.117 Q 548.743 95.067 555.632 95.067 L 555.632 95.067 L 555.632 95.067 Q 562.405 95.067 565.994 90.117 L 565.994 90.117 L 565.994 90.117 Q 569.583 85.168 569.583 75.848 L 569.583 75.848 L 569.583 75.848 Q 569.583 66.528 565.994 61.578 L 565.994 61.578 L 565.994 61.578 Q 562.405 56.629 555.632 56.629 Z  M 555.632 41.809 L 555.632 41.809 L 555.632 41.809 Q 572.361 41.809 581.768 50.84 L 581.768 50.84 L 581.768 50.84 Q 591.175 59.871 591.175 75.848 L 591.175 75.848 L 591.175 75.848 Q 591.175 91.825 581.768 100.856 L 581.768 100.856 L 581.768 100.856 Q 572.361 109.886 555.632 109.886 L 555.632 109.886 L 555.632 109.886 Q 538.844 109.886 529.379 100.856 L 529.379 100.856 L 529.379 100.856 Q 519.914 91.825 519.914 75.848 L 519.914 75.848 L 519.914 75.848 Q 519.914 59.871 529.379 50.84 L 529.379 50.84 L 529.379 50.84 Q 538.844 41.809 555.632 41.809 Z  M 646.884 52.866 L 646.884 52.866 L 646.884 18.133 L 667.724 18.133 L 667.724 108.208 L 646.884 108.208 L 646.884 98.83 L 646.884 98.83 Q 642.6 104.561 637.448 107.223 L 637.448 107.223 L 637.448 107.223 Q 632.296 109.886 625.523 109.886 L 625.523 109.886 L 625.523 109.886 Q 613.54 109.886 605.841 100.364 L 605.841 100.364 L 605.841 100.364 Q 598.142 90.841 598.142 75.848 L 598.142 75.848 L 598.142 75.848 Q 598.142 60.855 605.841 51.332 L 605.841 51.332 L 605.841 51.332 Q 613.54 41.809 625.523 41.809 L 625.523 41.809 L 625.523 41.809 Q 632.238 41.809 637.419 44.501 L 637.419 44.501 L 637.419 44.501 Q 642.6 47.193 646.884 52.866 Z  M 633.222 94.835 L 633.222 94.835 L 633.222 94.835 Q 639.88 94.835 643.382 89.973 L 643.382 89.973 L 643.382 89.973 Q 646.884 85.11 646.884 75.848 L 646.884 75.848 L 646.884 75.848 Q 646.884 66.586 643.382 61.723 L 643.382 61.723 L 643.382 61.723 Q 639.88 56.86 633.222 56.86 L 633.222 56.86 L 633.222 56.86 Q 626.623 56.86 623.121 61.723 L 623.121 61.723 L 623.121 61.723 Q 619.619 66.586 619.619 75.848 L 619.619 75.848 L 619.619 75.848 Q 619.619 85.11 623.121 89.973 L 623.121 89.973 L 623.121 89.973 Q 626.623 94.835 633.222 94.835 Z  M 715.039 56.629 L 715.039 56.629 L 715.039 56.629 Q 708.15 56.629 704.532 61.578 L 704.532 61.578 L 704.532 61.578 Q 700.914 66.528 700.914 75.848 L 700.914 75.848 L 700.914 75.848 Q 700.914 85.168 704.532 90.117 L 704.532 90.117 L 704.532 90.117 Q 708.15 95.067 715.039 95.067 L 715.039 95.067 L 715.039 95.067 Q 721.812 95.067 725.401 90.117 L 725.401 90.117 L 725.401 90.117 Q 728.99 85.168 728.99 75.848 L 728.99 75.848 L 728.99 75.848 Q 728.99 66.528 725.401 61.578 L 725.401 61.578 L 725.401 61.578 Q 721.812 56.629 715.039 56.629 Z  M 715.039 41.809 L 715.039 41.809 L 715.039 41.809 Q 731.769 41.809 741.176 50.84 L 741.176 50.84 L 741.176 50.84 Q 750.583 59.871 750.583 75.848 L 750.583 75.848 L 750.583 75.848 Q 750.583 91.825 741.176 100.856 L 741.176 100.856 L 741.176 100.856 Q 731.769 109.886 715.039 109.886 L 715.039 109.886 L 715.039 109.886 Q 698.251 109.886 688.787 100.856 L 688.787 100.856 L 688.787 100.856 Q 679.322 91.825 679.322 75.848 L 679.322 75.848 L 679.322 75.848 Q 679.322 59.871 688.787 50.84 L 688.787 50.84 L 688.787 50.84 Q 698.251 41.809 715.039 41.809 Z  M 810.286 42.273 L 810.344 61.028 L 810.344 61.028 Q 807.623 59.755 804.931 59.147 L 804.931 59.147 L 804.931 59.147 Q 802.239 58.539 799.518 58.539 L 799.518 58.539 L 799.518 58.539 Q 791.53 58.539 787.217 63.662 L 787.217 63.662 L 787.217 63.662 Q 782.904 68.785 782.904 78.337 L 782.904 78.337 L 782.904 108.208 L 762.18 108.208 L 762.18 43.372 L 782.904 43.372 L 782.904 54.024 L 782.904 54.024 Q 786.899 47.656 792.08 44.733 L 792.08 44.733 L 792.08 44.733 Q 797.261 41.809 804.497 41.809 L 804.497 41.809 L 804.497 41.809 Q 805.539 41.809 806.755 41.896 L 806.755 41.896 L 806.755 41.896 Q 807.97 41.983 810.286 42.273 L 810.286 42.273 Z  M 881.914 75.616 L 881.914 75.616 L 881.914 81.521 L 833.461 81.521 L 833.461 81.521 Q 834.214 88.815 838.729 92.462 L 838.729 92.462 L 838.729 92.462 Q 843.245 96.109 851.349 96.109 L 851.349 96.109 L 851.349 96.109 Q 857.89 96.109 864.75 94.17 L 864.75 94.17 L 864.75 94.17 Q 871.61 92.23 878.846 88.294 L 878.846 88.294 L 878.846 104.271 L 878.846 104.271 Q 871.494 107.05 864.142 108.468 L 864.142 108.468 L 864.142 108.468 Q 856.79 109.886 849.439 109.886 L 849.439 109.886 L 849.439 109.886 Q 831.84 109.886 822.086 100.943 L 822.086 100.943 L 822.086 100.943 Q 812.332 91.999 812.332 75.848 L 812.332 75.848 L 812.332 75.848 Q 812.332 59.986 821.913 50.898 L 821.913 50.898 L 821.913 50.898 Q 831.493 41.809 848.281 41.809 L 848.281 41.809 L 848.281 41.809 Q 863.563 41.809 872.739 51.014 L 872.739 51.014 L 872.739 51.014 Q 881.914 60.218 881.914 75.616 Z  M 833.693 68.728 L 860.611 68.728 L 860.611 68.728 Q 860.611 62.823 857.167 59.205 L 857.167 59.205 L 857.167 59.205 Q 853.722 55.587 848.165 55.587 L 848.165 55.587 L 848.165 55.587 Q 842.145 55.587 838.382 58.973 L 838.382 58.973 L 838.382 58.973 Q 834.619 62.36 833.693 68.728 L 833.693 68.728 Z " fill="rgb(0,68,255)"/><path d=" M 157.116 227.461 L 131.414 227.461 L 132.745 220.457 L 139.808 220.457 L 187.797 141.034 L 201.632 141.034 L 218.767 220.457 L 226.988 220.457 L 225.656 227.461 L 185.192 227.461 L 186.524 220.457 L 194.975 220.457 L 191.328 202.801 L 158.853 202.801 L 148.144 220.457 L 158.448 220.457 L 157.116 227.461 Z  M 182.935 162.742 L 163.021 195.796 L 189.823 195.796 L 182.935 162.742 Z  M 255.952 227.461 L 225.85 227.461 L 227.182 220.457 L 238.18 220.457 L 252.305 148.038 L 241.306 148.038 L 242.638 141.034 L 278.297 141.034 L 292.19 196.491 L 327.734 141.034 L 363.335 141.034 L 362.004 148.038 L 350.947 148.038 L 336.822 220.457 L 347.879 220.457 L 346.548 227.461 L 302.089 227.461 L 303.421 220.457 L 314.419 220.457 L 327.271 154.522 L 288.717 214.784 L 274.071 214.784 L 259.136 154.522 L 246.285 220.457 L 257.284 220.457 L 255.952 227.461 Z  M 398.667 227.461 L 354.209 227.461 L 355.54 220.457 L 366.597 220.457 L 380.722 148.038 L 369.665 148.038 L 370.997 141.034 L 415.455 141.034 L 414.124 148.038 L 403.009 148.038 L 388.884 220.457 L 399.999 220.457 L 398.667 227.461 Z  M 501.092 168.183 L 493.74 168.183 L 493.74 168.183 Q 493.393 156.721 488.299 151.598 L 488.299 151.598 L 488.299 151.598 Q 483.205 146.475 472.148 146.475 L 472.148 146.475 L 472.148 146.475 Q 458.718 146.475 450.671 155.593 L 450.671 155.593 L 450.671 155.593 Q 442.625 164.71 438.804 184.334 L 438.804 184.334 L 438.804 184.334 Q 435.042 203.785 439.267 212.96 L 439.267 212.96 L 439.267 212.96 Q 443.493 222.135 456.229 222.135 L 456.229 222.135 L 456.229 222.135 Q 461.091 222.135 465.462 221.035 L 465.462 221.035 L 465.462 221.035 Q 469.832 219.936 473.711 217.736 L 473.711 217.736 L 478.284 194.002 L 467.864 194.002 L 469.254 187.055 L 500.398 187.055 L 493.914 220.225 L 493.914 220.225 Q 483.321 224.74 473.19 226.94 L 473.19 226.94 L 473.19 226.94 Q 463.06 229.14 452.929 229.14 L 452.929 229.14 L 452.929 229.14 Q 430.7 229.14 420.338 217.157 L 420.338 217.157 L 420.338 217.157 Q 409.976 205.174 414.028 184.334 L 414.028 184.334 L 414.028 184.334 Q 418.08 163.436 433.131 151.454 L 433.131 151.454 L 433.131 151.454 Q 448.182 139.471 470.411 139.471 L 470.411 139.471 L 470.411 139.471 Q 479.674 139.471 488.27 141.323 L 488.27 141.323 L 488.27 141.323 Q 496.866 143.176 505.202 146.938 L 505.202 146.938 L 501.092 168.183 Z  M 523.226 227.461 L 497.523 227.461 L 498.855 220.457 L 505.917 220.457 L 553.907 141.034 L 567.742 141.034 L 584.877 220.457 L 593.097 220.457 L 591.766 227.461 L 551.302 227.461 L 552.633 220.457 L 561.085 220.457 L 557.438 202.801 L 524.963 202.801 L 514.253 220.457 L 524.557 220.457 L 523.226 227.461 Z  M 549.044 162.742 L 529.131 195.796 L 555.933 195.796 L 549.044 162.742 Z " fill="rgb(255,0,0)"/><path d=" M 606.639 225.037 L 606.639 215.195 L 625.742 215.195 L 625.742 149.261 L 604.96 153.429 L 604.96 142.777 L 625.627 138.609 L 637.32 138.609 L 637.32 215.195 L 656.423 215.195 L 656.423 225.037 L 606.639 225.037 Z  M 683.208 215.195 L 683.208 215.195 L 724.02 215.195 L 724.02 225.037 L 669.141 225.037 L 669.141 215.195 L 669.141 215.195 Q 675.798 208.307 687.289 196.7 L 687.289 196.7 L 687.289 196.7 Q 698.78 185.093 701.733 181.736 L 701.733 181.736 L 701.733 181.736 Q 707.348 175.426 709.576 171.056 L 709.576 171.056 L 709.576 171.056 Q 711.805 166.685 711.805 162.459 L 711.805 162.459 L 711.805 162.459 Q 711.805 155.57 706.971 151.229 L 706.971 151.229 L 706.971 151.229 Q 702.138 146.887 694.381 146.887 L 694.381 146.887 L 694.381 146.887 Q 688.881 146.887 682.774 148.797 L 682.774 148.797 L 682.774 148.797 Q 676.667 150.708 669.72 154.586 L 669.72 154.586 L 669.72 142.777 L 669.72 142.777 Q 676.783 139.941 682.919 138.493 L 682.919 138.493 L 682.919 138.493 Q 689.055 137.046 694.149 137.046 L 694.149 137.046 L 694.149 137.046 Q 707.579 137.046 715.568 143.761 L 715.568 143.761 L 715.568 143.761 Q 723.556 150.476 723.556 161.707 L 723.556 161.707 L 723.556 161.707 Q 723.556 167.032 721.559 171.808 L 721.559 171.808 L 721.559 171.808 Q 719.562 176.584 714.294 183.067 L 714.294 183.067 L 714.294 183.067 Q 712.847 184.746 705.09 192.764 L 705.09 192.764 L 705.09 192.764 Q 697.333 200.781 683.208 215.195 Z  M 766.666 146.308 L 766.666 146.308 L 766.666 146.308 Q 757.635 146.308 753.091 155.194 L 753.091 155.194 L 753.091 155.194 Q 748.547 164.08 748.547 181.91 L 748.547 181.91 L 748.547 181.91 Q 748.547 199.681 753.091 208.567 L 753.091 208.567 L 753.091 208.567 Q 757.635 217.453 766.666 217.453 L 766.666 217.453 L 766.666 217.453 Q 775.754 217.453 780.299 208.567 L 780.299 208.567 L 780.299 208.567 Q 784.843 199.681 784.843 181.91 L 784.843 181.91 L 784.843 181.91 Q 784.843 164.08 780.299 155.194 L 780.299 155.194 L 780.299 155.194 Q 775.754 146.308 766.666 146.308 Z  M 766.666 137.046 L 766.666 137.046 L 766.666 137.046 Q 781.196 137.046 788.866 148.537 L 788.866 148.537 L 788.866 148.537 Q 796.536 160.028 796.536 181.91 L 796.536 181.91 L 796.536 181.91 Q 796.536 203.734 788.866 215.224 L 788.866 215.224 L 788.866 215.224 Q 781.196 226.715 766.666 226.715 L 766.666 226.715 L 766.666 226.715 Q 752.136 226.715 744.466 215.224 L 744.466 215.224 L 744.466 215.224 Q 736.796 203.734 736.796 181.91 L 736.796 181.91 L 736.796 181.91 Q 736.796 160.028 744.466 148.537 L 744.466 148.537 L 744.466 148.537 Q 752.136 137.046 766.666 137.046 Z  M 835.188 146.308 L 835.188 146.308 L 835.188 146.308 Q 826.158 146.308 821.614 155.194 L 821.614 155.194 L 821.614 155.194 Q 817.069 164.08 817.069 181.91 L 817.069 181.91 L 817.069 181.91 Q 817.069 199.681 821.614 208.567 L 821.614 208.567 L 821.614 208.567 Q 826.158 217.453 835.188 217.453 L 835.188 217.453 L 835.188 217.453 Q 844.277 217.453 848.821 208.567 L 848.821 208.567 L 848.821 208.567 Q 853.365 199.681 853.365 181.91 L 853.365 181.91 L 853.365 181.91 Q 853.365 164.08 848.821 155.194 L 848.821 155.194 L 848.821 155.194 Q 844.277 146.308 835.188 146.308 Z  M 835.188 137.046 L 835.188 137.046 L 835.188 137.046 Q 849.718 137.046 857.389 148.537 L 857.389 148.537 L 857.389 148.537 Q 865.059 160.028 865.059 181.91 L 865.059 181.91 L 865.059 181.91 Q 865.059 203.734 857.389 215.224 L 857.389 215.224 L 857.389 215.224 Q 849.718 226.715 835.188 226.715 L 835.188 226.715 L 835.188 226.715 Q 820.658 226.715 812.988 215.224 L 812.988 215.224 L 812.988 215.224 Q 805.318 203.734 805.318 181.91 L 805.318 181.91 L 805.318 181.91 Q 805.318 160.028 812.988 148.537 L 812.988 148.537 L 812.988 148.537 Q 820.658 137.046 835.188 137.046 Z " fill="rgb(0,68,255)"/><path d=" M 102.75 118.588 L 903 118.588 L 903 125.062 L 102.75 125.062 L 102.75 118.588 Z " fill="rgb(0,68,255)"/></g></svg>