<?xml version="1.0" encoding="UTF-8" standalone="no"?><!-- Generator: Gravit.io --><svg xmlns="http://www.w3.org/2000/svg" xmlns:xlink="http://www.w3.org/1999/xlink" style="isolation:isolate" viewBox="0 0 992 250" width="992pt" height="250pt"><defs><clipPath id="_clipPath_WkBcveLBmVnOK8udhWBcqxrWq0Sta7LD"><rect width="992" height="250"/></clipPath></defs><g clip-path="url(#_clipPath_WkBcveLBmVnOK8udhWBcqxrWq0Sta7LD)"><path d=" M 631.233 158.575 L 615.649 198.957 L 646.817 198.957 L 631.233 158.575 Z  M 615.535 229.727 L 591.647 229.727 L 591.647 223.698 L 599.098 223.698 L 629.356 144.811 L 638.911 144.811 L 669.226 223.698 L 677.587 223.698 L 677.587 229.727 L 646.703 229.727 L 646.703 223.698 L 656.145 223.698 L 649.035 205.042 L 613.317 205.042 L 606.208 223.698 L 615.535 223.698 L 615.535 229.727 Z  M 707.771 225.745 L 707.771 225.745 L 707.771 225.745 Q 715.79 225.745 720.113 219.859 L 720.113 219.859 L 720.113 219.859 Q 724.435 213.972 724.435 202.938 L 724.435 202.938 L 724.435 202.938 Q 724.435 191.904 720.113 186.018 L 720.113 186.018 L 720.113 186.018 Q 715.79 180.131 707.771 180.131 L 707.771 180.131 L 707.771 180.131 Q 699.637 180.131 695.372 185.818 L 695.372 185.818 L 695.372 185.818 Q 691.106 191.506 691.106 202.256 L 691.106 202.256 L 691.106 202.256 Q 691.106 213.574 695.429 219.66 L 695.429 219.66 L 695.429 219.66 Q 699.751 225.745 707.771 225.745 Z  M 689.229 182.975 L 689.229 182.975 L 689.229 182.975 Q 693.097 178.709 697.988 176.605 L 697.988 176.605 L 697.988 176.605 Q 702.879 174.5 709.022 174.5 L 709.022 174.5 L 709.022 174.5 Q 721.705 174.5 729.071 182.122 L 729.071 182.122 L 729.071 182.122 Q 736.436 189.743 736.436 202.938 L 736.436 202.938 L 736.436 202.938 Q 736.436 215.849 728.502 223.612 L 728.502 223.612 L 728.502 223.612 Q 720.568 231.376 707.316 231.376 L 707.316 231.376 L 707.316 231.376 Q 692.926 231.376 685.191 220.655 L 685.191 220.655 L 685.191 220.655 Q 677.456 209.934 677.456 190.027 L 677.456 190.027 L 677.456 190.027 Q 677.456 167.732 686.613 155.504 L 686.613 155.504 L 686.613 155.504 Q 695.77 143.275 712.434 143.275 L 712.434 143.275 L 712.434 143.275 Q 716.928 143.275 721.876 144.129 L 721.876 144.129 L 721.876 144.129 Q 726.824 144.982 732 146.688 L 732 146.688 L 732 160.679 L 725.573 160.679 L 725.573 160.679 Q 724.89 154.935 721.193 151.921 L 721.193 151.921 L 721.193 151.921 Q 717.496 148.906 711.24 148.906 L 711.24 148.906 L 711.24 148.906 Q 700.206 148.906 694.803 157.267 L 694.803 157.267 L 694.803 157.267 Q 689.4 165.628 689.229 182.975 Z  M 774.014 225.745 L 774.014 225.745 L 774.014 225.745 Q 782.716 225.745 787.038 216.19 L 787.038 216.19 L 787.038 216.19 Q 791.361 206.635 791.361 187.354 L 791.361 187.354 L 791.361 187.354 Q 791.361 168.016 787.038 158.461 L 787.038 158.461 L 787.038 158.461 Q 782.716 148.906 774.014 148.906 L 774.014 148.906 L 774.014 148.906 Q 765.312 148.906 760.989 158.461 L 760.989 158.461 L 760.989 158.461 Q 756.667 168.016 756.667 187.354 L 756.667 187.354 L 756.667 187.354 Q 756.667 206.635 760.989 216.19 L 760.989 216.19 L 760.989 216.19 Q 765.312 225.745 774.014 225.745 Z  M 774.014 231.376 L 774.014 231.376 L 774.014 231.376 Q 760.193 231.376 752.429 219.773 L 752.429 219.773 L 752.429 219.773 Q 744.666 208.171 744.666 187.354 L 744.666 187.354 L 744.666 187.354 Q 744.666 166.481 752.429 154.878 L 752.429 154.878 L 752.429 154.878 Q 760.193 143.275 774.014 143.275 L 774.014 143.275 L 774.014 143.275 Q 787.891 143.275 795.626 154.878 L 795.626 154.878 L 795.626 154.878 Q 803.362 166.481 803.362 187.354 L 803.362 187.354 L 803.362 187.354 Q 803.362 208.171 795.626 219.773 L 795.626 219.773 L 795.626 219.773 Q 787.891 231.376 774.014 231.376 Z  M 841.337 225.745 L 841.337 225.745 L 841.337 225.745 Q 850.039 225.745 854.362 216.19 L 854.362 216.19 L 854.362 216.19 Q 858.685 206.635 858.685 187.354 L 858.685 187.354 L 858.685 187.354 Q 858.685 168.016 854.362 158.461 L 854.362 158.461 L 854.362 158.461 Q 850.039 148.906 841.337 148.906 L 841.337 148.906 L 841.337 148.906 Q 832.635 148.906 828.313 158.461 L 828.313 158.461 L 828.313 158.461 Q 823.99 168.016 823.99 187.354 L 823.99 187.354 L 823.99 187.354 Q 823.99 206.635 828.313 216.19 L 828.313 216.19 L 828.313 216.19 Q 832.635 225.745 841.337 225.745 Z  M 841.337 231.376 L 841.337 231.376 L 841.337 231.376 Q 827.517 231.376 819.753 219.773 L 819.753 219.773 L 819.753 219.773 Q 811.99 208.171 811.99 187.354 L 811.99 187.354 L 811.99 187.354 Q 811.99 166.481 819.753 154.878 L 819.753 154.878 L 819.753 154.878 Q 827.517 143.275 841.337 143.275 L 841.337 143.275 L 841.337 143.275 Q 855.215 143.275 862.95 154.878 L 862.95 154.878 L 862.95 154.878 Q 870.685 166.481 870.685 187.354 L 870.685 187.354 L 870.685 187.354 Q 870.685 208.171 862.95 219.773 L 862.95 219.773 L 862.95 219.773 Q 855.215 231.376 841.337 231.376 Z " fill="rgb(174,174,174)"/><path d=" M 199.961 87.988 L 199.961 105.563 L 199.961 105.563 Q 193.933 108.691 187.392 110.284 L 187.392 110.284 L 187.392 110.284 Q 180.851 111.876 173.742 111.876 L 173.742 111.876 L 173.742 111.876 Q 152.527 111.876 140.128 100.018 L 140.128 100.018 L 140.128 100.018 Q 127.729 88.159 127.729 67.854 L 127.729 67.854 L 127.729 67.854 Q 127.729 47.493 140.128 35.634 L 140.128 35.634 L 140.128 35.634 Q 152.527 23.776 173.742 23.776 L 173.742 23.776 L 173.742 23.776 Q 180.851 23.776 187.392 25.368 L 187.392 25.368 L 187.392 25.368 Q 193.933 26.961 199.961 30.089 L 199.961 30.089 L 199.961 47.663 L 199.961 47.663 Q 193.876 43.511 187.961 41.578 L 187.961 41.578 L 187.961 41.578 Q 182.046 39.644 175.505 39.644 L 175.505 39.644 L 175.505 39.644 Q 163.789 39.644 157.077 47.152 L 157.077 47.152 L 157.077 47.152 Q 150.366 54.659 150.366 67.854 L 150.366 67.854 L 150.366 67.854 Q 150.366 80.993 157.077 88.5 L 157.077 88.5 L 157.077 88.5 Q 163.789 96.008 175.505 96.008 L 175.505 96.008 L 175.505 96.008 Q 182.046 96.008 187.961 94.074 L 187.961 94.074 L 187.961 94.074 Q 193.876 92.14 199.961 87.988 L 199.961 87.988 Z  M 244.117 59.55 L 244.117 59.55 L 244.117 59.55 Q 237.349 59.55 233.794 64.413 L 233.794 64.413 L 233.794 64.413 Q 230.239 69.276 230.239 78.433 L 230.239 78.433 L 230.239 78.433 Q 230.239 87.59 233.794 92.453 L 233.794 92.453 L 233.794 92.453 Q 237.349 97.316 244.117 97.316 L 244.117 97.316 L 244.117 97.316 Q 250.771 97.316 254.298 92.453 L 254.298 92.453 L 254.298 92.453 Q 257.824 87.59 257.824 78.433 L 257.824 78.433 L 257.824 78.433 Q 257.824 69.276 254.298 64.413 L 254.298 64.413 L 254.298 64.413 Q 250.771 59.55 244.117 59.55 Z  M 244.117 44.99 L 244.117 44.99 L 244.117 44.99 Q 260.554 44.99 269.796 53.863 L 269.796 53.863 L 269.796 53.863 Q 279.039 62.735 279.039 78.433 L 279.039 78.433 L 279.039 78.433 Q 279.039 94.131 269.796 103.004 L 269.796 103.004 L 269.796 103.004 Q 260.554 111.876 244.117 111.876 L 244.117 111.876 L 244.117 111.876 Q 227.623 111.876 218.324 103.004 L 218.324 103.004 L 218.324 103.004 Q 209.025 94.131 209.025 78.433 L 209.025 78.433 L 209.025 78.433 Q 209.025 62.735 218.324 53.863 L 218.324 53.863 L 218.324 53.863 Q 227.623 44.99 244.117 44.99 Z  M 349.471 57.105 L 349.471 57.105 L 349.471 57.105 Q 353.338 51.19 358.656 48.09 L 358.656 48.09 L 358.656 48.09 Q 363.974 44.99 370.344 44.99 L 370.344 44.99 L 370.344 44.99 Q 381.321 44.99 387.065 51.758 L 387.065 51.758 L 387.065 51.758 Q 392.81 58.527 392.81 71.437 L 392.81 71.437 L 392.81 110.227 L 372.335 110.227 L 372.335 77.011 L 372.335 77.011 Q 372.392 76.272 372.42 75.476 L 372.42 75.476 L 372.42 75.476 Q 372.448 74.679 372.448 73.201 L 372.448 73.201 L 372.448 73.201 Q 372.448 66.432 370.458 63.39 L 370.458 63.39 L 370.458 63.39 Q 368.467 60.347 364.031 60.347 L 364.031 60.347 L 364.031 60.347 Q 358.23 60.347 355.073 65.124 L 355.073 65.124 L 355.073 65.124 Q 351.916 69.902 351.803 78.945 L 351.803 78.945 L 351.803 110.227 L 331.327 110.227 L 331.327 77.011 L 331.327 77.011 Q 331.327 66.432 329.507 63.39 L 329.507 63.39 L 329.507 63.39 Q 327.687 60.347 323.023 60.347 L 323.023 60.347 L 323.023 60.347 Q 317.165 60.347 313.98 65.153 L 313.98 65.153 L 313.98 65.153 Q 310.795 69.959 310.795 78.888 L 310.795 78.888 L 310.795 110.227 L 290.32 110.227 L 290.32 46.526 L 310.795 46.526 L 310.795 55.854 L 310.795 55.854 Q 314.549 50.45 319.412 47.72 L 319.412 47.72 L 319.412 47.72 Q 324.275 44.99 330.133 44.99 L 330.133 44.99 L 330.133 44.99 Q 336.73 44.99 341.792 48.175 L 341.792 48.175 L 341.792 48.175 Q 346.854 51.36 349.471 57.105 Z  M 467.451 57.105 L 467.451 57.105 L 467.451 57.105 Q 471.318 51.19 476.636 48.09 L 476.636 48.09 L 476.636 48.09 Q 481.954 44.99 488.324 44.99 L 488.324 44.99 L 488.324 44.99 Q 499.301 44.99 505.046 51.758 L 505.046 51.758 L 505.046 51.758 Q 510.79 58.527 510.79 71.437 L 510.79 71.437 L 510.79 110.227 L 490.315 110.227 L 490.315 77.011 L 490.315 77.011 Q 490.372 76.272 490.4 75.476 L 490.4 75.476 L 490.4 75.476 Q 490.429 74.679 490.429 73.201 L 490.429 73.201 L 490.429 73.201 Q 490.429 66.432 488.438 63.39 L 488.438 63.39 L 488.438 63.39 Q 486.447 60.347 482.011 60.347 L 482.011 60.347 L 482.011 60.347 Q 476.21 60.347 473.053 65.124 L 473.053 65.124 L 473.053 65.124 Q 469.896 69.902 469.783 78.945 L 469.783 78.945 L 469.783 110.227 L 449.307 110.227 L 449.307 77.011 L 449.307 77.011 Q 449.307 66.432 447.487 63.39 L 447.487 63.39 L 447.487 63.39 Q 445.667 60.347 441.004 60.347 L 441.004 60.347 L 441.004 60.347 Q 435.145 60.347 431.96 65.153 L 431.96 65.153 L 431.96 65.153 Q 428.775 69.959 428.775 78.888 L 428.775 78.888 L 428.775 110.227 L 408.3 110.227 L 408.3 46.526 L 428.775 46.526 L 428.775 55.854 L 428.775 55.854 Q 432.529 50.45 437.392 47.72 L 437.392 47.72 L 437.392 47.72 Q 442.255 44.99 448.113 44.99 L 448.113 44.99 L 448.113 44.99 Q 454.711 44.99 459.773 48.175 L 459.773 48.175 L 459.773 48.175 Q 464.834 51.36 467.451 57.105 Z  M 556.709 59.55 L 556.709 59.55 L 556.709 59.55 Q 549.94 59.55 546.386 64.413 L 546.386 64.413 L 546.386 64.413 Q 542.831 69.276 542.831 78.433 L 542.831 78.433 L 542.831 78.433 Q 542.831 87.59 546.386 92.453 L 546.386 92.453 L 546.386 92.453 Q 549.94 97.316 556.709 97.316 L 556.709 97.316 L 556.709 97.316 Q 563.363 97.316 566.889 92.453 L 566.889 92.453 L 566.889 92.453 Q 570.416 87.59 570.416 78.433 L 570.416 78.433 L 570.416 78.433 Q 570.416 69.276 566.889 64.413 L 566.889 64.413 L 566.889 64.413 Q 563.363 59.55 556.709 59.55 Z  M 556.709 44.99 L 556.709 44.99 L 556.709 44.99 Q 573.146 44.99 582.388 53.863 L 582.388 53.863 L 582.388 53.863 Q 591.63 62.735 591.63 78.433 L 591.63 78.433 L 591.63 78.433 Q 591.63 94.131 582.388 103.004 L 582.388 103.004 L 582.388 103.004 Q 573.146 111.876 556.709 111.876 L 556.709 111.876 L 556.709 111.876 Q 540.215 111.876 530.916 103.004 L 530.916 103.004 L 530.916 103.004 Q 521.616 94.131 521.616 78.433 L 521.616 78.433 L 521.616 78.433 Q 521.616 62.735 530.916 53.863 L 530.916 53.863 L 530.916 53.863 Q 540.215 44.99 556.709 44.99 Z  M 646.365 55.854 L 646.365 55.854 L 646.365 21.728 L 666.84 21.728 L 666.84 110.227 L 646.365 110.227 L 646.365 101.013 L 646.365 101.013 Q 642.156 106.644 637.094 109.26 L 637.094 109.26 L 637.094 109.26 Q 632.032 111.876 625.378 111.876 L 625.378 111.876 L 625.378 111.876 Q 613.604 111.876 606.04 102.52 L 606.04 102.52 L 606.04 102.52 Q 598.475 93.164 598.475 78.433 L 598.475 78.433 L 598.475 78.433 Q 598.475 63.702 606.04 54.346 L 606.04 54.346 L 606.04 54.346 Q 613.604 44.99 625.378 44.99 L 625.378 44.99 L 625.378 44.99 Q 631.975 44.99 637.066 47.635 L 637.066 47.635 L 637.066 47.635 Q 642.156 50.28 646.365 55.854 Z  M 632.942 97.088 L 632.942 97.088 L 632.942 97.088 Q 639.483 97.088 642.924 92.311 L 642.924 92.311 L 642.924 92.311 Q 646.365 87.533 646.365 78.433 L 646.365 78.433 L 646.365 78.433 Q 646.365 69.333 642.924 64.556 L 642.924 64.556 L 642.924 64.556 Q 639.483 59.778 632.942 59.778 L 632.942 59.778 L 632.942 59.778 Q 626.458 59.778 623.017 64.556 L 623.017 64.556 L 623.017 64.556 Q 619.576 69.333 619.576 78.433 L 619.576 78.433 L 619.576 78.433 Q 619.576 87.533 623.017 92.311 L 623.017 92.311 L 623.017 92.311 Q 626.458 97.088 632.942 97.088 Z  M 713.327 59.55 L 713.327 59.55 L 713.327 59.55 Q 706.559 59.55 703.004 64.413 L 703.004 64.413 L 703.004 64.413 Q 699.45 69.276 699.45 78.433 L 699.45 78.433 L 699.45 78.433 Q 699.45 87.59 703.004 92.453 L 703.004 92.453 L 703.004 92.453 Q 706.559 97.316 713.327 97.316 L 713.327 97.316 L 713.327 97.316 Q 719.982 97.316 723.508 92.453 L 723.508 92.453 L 723.508 92.453 Q 727.034 87.59 727.034 78.433 L 727.034 78.433 L 727.034 78.433 Q 727.034 69.276 723.508 64.413 L 723.508 64.413 L 723.508 64.413 Q 719.982 59.55 713.327 59.55 Z  M 713.327 44.99 L 713.327 44.99 L 713.327 44.99 Q 729.764 44.99 739.007 53.863 L 739.007 53.863 L 739.007 53.863 Q 748.249 62.735 748.249 78.433 L 748.249 78.433 L 748.249 78.433 Q 748.249 94.131 739.007 103.004 L 739.007 103.004 L 739.007 103.004 Q 729.764 111.876 713.327 111.876 L 713.327 111.876 L 713.327 111.876 Q 696.833 111.876 687.534 103.004 L 687.534 103.004 L 687.534 103.004 Q 678.235 94.131 678.235 78.433 L 678.235 78.433 L 678.235 78.433 Q 678.235 62.735 687.534 53.863 L 687.534 53.863 L 687.534 53.863 Q 696.833 44.99 713.327 44.99 Z  M 806.908 45.445 L 806.965 63.873 L 806.965 63.873 Q 804.291 62.622 801.647 62.025 L 801.647 62.025 L 801.647 62.025 Q 799.002 61.427 796.329 61.427 L 796.329 61.427 L 796.329 61.427 Q 788.48 61.427 784.243 66.461 L 784.243 66.461 L 784.243 66.461 Q 780.006 71.494 780.006 80.879 L 780.006 80.879 L 780.006 110.227 L 759.644 110.227 L 759.644 46.526 L 780.006 46.526 L 780.006 56.991 L 780.006 56.991 Q 783.93 50.735 789.02 47.862 L 789.02 47.862 L 789.02 47.862 Q 794.111 44.99 801.22 44.99 L 801.22 44.99 L 801.22 44.99 Q 802.244 44.99 803.438 45.076 L 803.438 45.076 L 803.438 45.076 Q 804.633 45.161 806.908 45.445 L 806.908 45.445 Z  M 877.283 78.206 L 877.283 78.206 L 877.283 84.007 L 829.678 84.007 L 829.678 84.007 Q 830.417 91.173 834.854 94.757 L 834.854 94.757 L 834.854 94.757 Q 839.29 98.34 847.252 98.34 L 847.252 98.34 L 847.252 98.34 Q 853.679 98.34 860.419 96.434 L 860.419 96.434 L 860.419 96.434 Q 867.159 94.529 874.268 90.661 L 874.268 90.661 L 874.268 106.359 L 874.268 106.359 Q 867.045 109.089 859.822 110.483 L 859.822 110.483 L 859.822 110.483 Q 852.599 111.876 845.376 111.876 L 845.376 111.876 L 845.376 111.876 Q 828.085 111.876 818.502 103.089 L 818.502 103.089 L 818.502 103.089 Q 808.918 94.302 808.918 78.433 L 808.918 78.433 L 808.918 78.433 Q 808.918 62.849 818.331 53.92 L 818.331 53.92 L 818.331 53.92 Q 827.744 44.99 844.238 44.99 L 844.238 44.99 L 844.238 44.99 Q 859.253 44.99 868.268 54.034 L 868.268 54.034 L 868.268 54.034 Q 877.283 63.077 877.283 78.206 Z  M 829.905 71.437 L 856.353 71.437 L 856.353 71.437 Q 856.353 65.636 852.969 62.081 L 852.969 62.081 L 852.969 62.081 Q 849.584 58.527 844.124 58.527 L 844.124 58.527 L 844.124 58.527 Q 838.209 58.527 834.512 61.854 L 834.512 61.854 L 834.512 61.854 Q 830.815 65.181 829.905 71.437 L 829.905 71.437 Z " fill="rgb(174,174,174)"/><path d=" M 111.75 120.425 L 898 120.425 L 898 126.786 L 111.75 126.786 L 111.75 120.425 Z " fill="rgb(174,174,174)"/><path d=" M 629.233 156.575 L 613.649 196.957 L 644.817 196.957 L 629.233 156.575 Z  M 613.535 227.727 L 589.647 227.727 L 589.647 221.698 L 597.098 221.698 L 627.356 142.811 L 636.911 142.811 L 667.226 221.698 L 675.587 221.698 L 675.587 227.727 L 644.703 227.727 L 644.703 221.698 L 654.145 221.698 L 647.035 203.042 L 611.317 203.042 L 604.208 221.698 L 613.535 221.698 L 613.535 227.727 Z  M 705.771 223.745 L 705.771 223.745 L 705.771 223.745 Q 713.79 223.745 718.113 217.859 L 718.113 217.859 L 718.113 217.859 Q 722.435 211.972 722.435 200.938 L 722.435 200.938 L 722.435 200.938 Q 722.435 189.904 718.113 184.018 L 718.113 184.018 L 718.113 184.018 Q 713.79 178.131 705.771 178.131 L 705.771 178.131 L 705.771 178.131 Q 697.637 178.131 693.372 183.818 L 693.372 183.818 L 693.372 183.818 Q 689.106 189.506 689.106 200.256 L 689.106 200.256 L 689.106 200.256 Q 689.106 211.574 693.429 217.66 L 693.429 217.66 L 693.429 217.66 Q 697.751 223.745 705.771 223.745 Z  M 687.229 180.975 L 687.229 180.975 L 687.229 180.975 Q 691.097 176.709 695.988 174.605 L 695.988 174.605 L 695.988 174.605 Q 700.879 172.5 707.022 172.5 L 707.022 172.5 L 707.022 172.5 Q 719.705 172.5 727.071 180.122 L 727.071 180.122 L 727.071 180.122 Q 734.436 187.743 734.436 200.938 L 734.436 200.938 L 734.436 200.938 Q 734.436 213.849 726.502 221.612 L 726.502 221.612 L 726.502 221.612 Q 718.568 229.376 705.316 229.376 L 705.316 229.376 L 705.316 229.376 Q 690.926 229.376 683.191 218.655 L 683.191 218.655 L 683.191 218.655 Q 675.456 207.934 675.456 188.027 L 675.456 188.027 L 675.456 188.027 Q 675.456 165.732 684.613 153.504 L 684.613 153.504 L 684.613 153.504 Q 693.77 141.275 710.434 141.275 L 710.434 141.275 L 710.434 141.275 Q 714.928 141.275 719.876 142.129 L 719.876 142.129 L 719.876 142.129 Q 724.824 142.982 730 144.688 L 730 144.688 L 730 158.679 L 723.573 158.679 L 723.573 158.679 Q 722.89 152.935 719.193 149.921 L 719.193 149.921 L 719.193 149.921 Q 715.496 146.906 709.24 146.906 L 709.24 146.906 L 709.24 146.906 Q 698.206 146.906 692.803 155.267 L 692.803 155.267 L 692.803 155.267 Q 687.4 163.628 687.229 180.975 Z  M 772.014 223.745 L 772.014 223.745 L 772.014 223.745 Q 780.716 223.745 785.038 214.19 L 785.038 214.19 L 785.038 214.19 Q 789.361 204.635 789.361 185.354 L 789.361 185.354 L 789.361 185.354 Q 789.361 166.016 785.038 156.461 L 785.038 156.461 L 785.038 156.461 Q 780.716 146.906 772.014 146.906 L 772.014 146.906 L 772.014 146.906 Q 763.312 146.906 758.989 156.461 L 758.989 156.461 L 758.989 156.461 Q 754.667 166.016 754.667 185.354 L 754.667 185.354 L 754.667 185.354 Q 754.667 204.635 758.989 214.19 L 758.989 214.19 L 758.989 214.19 Q 763.312 223.745 772.014 223.745 Z  M 772.014 229.376 L 772.014 229.376 L 772.014 229.376 Q 758.193 229.376 750.429 217.773 L 750.429 217.773 L 750.429 217.773 Q 742.666 206.171 742.666 185.354 L 742.666 185.354 L 742.666 185.354 Q 742.666 164.481 750.429 152.878 L 750.429 152.878 L 750.429 152.878 Q 758.193 141.275 772.014 141.275 L 772.014 141.275 L 772.014 141.275 Q 785.891 141.275 793.626 152.878 L 793.626 152.878 L 793.626 152.878 Q 801.362 164.481 801.362 185.354 L 801.362 185.354 L 801.362 185.354 Q 801.362 206.171 793.626 217.773 L 793.626 217.773 L 793.626 217.773 Q 785.891 229.376 772.014 229.376 Z  M 839.337 223.745 L 839.337 223.745 L 839.337 223.745 Q 848.039 223.745 852.362 214.19 L 852.362 214.19 L 852.362 214.19 Q 856.685 204.635 856.685 185.354 L 856.685 185.354 L 856.685 185.354 Q 856.685 166.016 852.362 156.461 L 852.362 156.461 L 852.362 156.461 Q 848.039 146.906 839.337 146.906 L 839.337 146.906 L 839.337 146.906 Q 830.635 146.906 826.313 156.461 L 826.313 156.461 L 826.313 156.461 Q 821.99 166.016 821.99 185.354 L 821.99 185.354 L 821.99 185.354 Q 821.99 204.635 826.313 214.19 L 826.313 214.19 L 826.313 214.19 Q 830.635 223.745 839.337 223.745 Z  M 839.337 229.376 L 839.337 229.376 L 839.337 229.376 Q 825.517 229.376 817.753 217.773 L 817.753 217.773 L 817.753 217.773 Q 809.99 206.171 809.99 185.354 L 809.99 185.354 L 809.99 185.354 Q 809.99 164.481 817.753 152.878 L 817.753 152.878 L 817.753 152.878 Q 825.517 141.275 839.337 141.275 L 839.337 141.275 L 839.337 141.275 Q 853.215 141.275 860.95 152.878 L 860.95 152.878 L 860.95 152.878 Q 868.685 164.481 868.685 185.354 L 868.685 185.354 L 868.685 185.354 Q 868.685 206.171 860.95 217.773 L 860.95 217.773 L 860.95 217.773 Q 853.215 229.376 839.337 229.376 Z " fill="rgb(0,68,255)"/><path d=" M 197.961 85.988 L 197.961 103.563 L 197.961 103.563 Q 191.933 106.691 185.392 108.284 L 185.392 108.284 L 185.392 108.284 Q 178.851 109.876 171.742 109.876 L 171.742 109.876 L 171.742 109.876 Q 150.527 109.876 138.128 98.018 L 138.128 98.018 L 138.128 98.018 Q 125.729 86.159 125.729 65.854 L 125.729 65.854 L 125.729 65.854 Q 125.729 45.493 138.128 33.634 L 138.128 33.634 L 138.128 33.634 Q 150.527 21.776 171.742 21.776 L 171.742 21.776 L 171.742 21.776 Q 178.851 21.776 185.392 23.368 L 185.392 23.368 L 185.392 23.368 Q 191.933 24.961 197.961 28.089 L 197.961 28.089 L 197.961 45.663 L 197.961 45.663 Q 191.876 41.511 185.961 39.578 L 185.961 39.578 L 185.961 39.578 Q 180.046 37.644 173.505 37.644 L 173.505 37.644 L 173.505 37.644 Q 161.789 37.644 155.077 45.152 L 155.077 45.152 L 155.077 45.152 Q 148.366 52.659 148.366 65.854 L 148.366 65.854 L 148.366 65.854 Q 148.366 78.993 155.077 86.5 L 155.077 86.5 L 155.077 86.5 Q 161.789 94.008 173.505 94.008 L 173.505 94.008 L 173.505 94.008 Q 180.046 94.008 185.961 92.074 L 185.961 92.074 L 185.961 92.074 Q 191.876 90.14 197.961 85.988 L 197.961 85.988 Z  M 242.117 57.55 L 242.117 57.55 L 242.117 57.55 Q 235.349 57.55 231.794 62.413 L 231.794 62.413 L 231.794 62.413 Q 228.239 67.276 228.239 76.433 L 228.239 76.433 L 228.239 76.433 Q 228.239 85.59 231.794 90.453 L 231.794 90.453 L 231.794 90.453 Q 235.349 95.316 242.117 95.316 L 242.117 95.316 L 242.117 95.316 Q 248.771 95.316 252.298 90.453 L 252.298 90.453 L 252.298 90.453 Q 255.824 85.59 255.824 76.433 L 255.824 76.433 L 255.824 76.433 Q 255.824 67.276 252.298 62.413 L 252.298 62.413 L 252.298 62.413 Q 248.771 57.55 242.117 57.55 Z  M 242.117 42.99 L 242.117 42.99 L 242.117 42.99 Q 258.554 42.99 267.796 51.863 L 267.796 51.863 L 267.796 51.863 Q 277.039 60.735 277.039 76.433 L 277.039 76.433 L 277.039 76.433 Q 277.039 92.131 267.796 101.004 L 267.796 101.004 L 267.796 101.004 Q 258.554 109.876 242.117 109.876 L 242.117 109.876 L 242.117 109.876 Q 225.623 109.876 216.324 101.004 L 216.324 101.004 L 216.324 101.004 Q 207.025 92.131 207.025 76.433 L 207.025 76.433 L 207.025 76.433 Q 207.025 60.735 216.324 51.863 L 216.324 51.863 L 216.324 51.863 Q 225.623 42.99 242.117 42.99 Z  M 347.471 55.105 L 347.471 55.105 L 347.471 55.105 Q 351.338 49.19 356.656 46.09 L 356.656 46.09 L 356.656 46.09 Q 361.974 42.99 368.344 42.99 L 368.344 42.99 L 368.344 42.99 Q 379.321 42.99 385.065 49.758 L 385.065 49.758 L 385.065 49.758 Q 390.81 56.527 390.81 69.437 L 390.81 69.437 L 390.81 108.227 L 370.335 108.227 L 370.335 75.011 L 370.335 75.011 Q 370.392 74.272 370.42 73.476 L 370.42 73.476 L 370.42 73.476 Q 370.448 72.679 370.448 71.201 L 370.448 71.201 L 370.448 71.201 Q 370.448 64.432 368.458 61.39 L 368.458 61.39 L 368.458 61.39 Q 366.467 58.347 362.031 58.347 L 362.031 58.347 L 362.031 58.347 Q 356.23 58.347 353.073 63.124 L 353.073 63.124 L 353.073 63.124 Q 349.916 67.902 349.803 76.945 L 349.803 76.945 L 349.803 108.227 L 329.327 108.227 L 329.327 75.011 L 329.327 75.011 Q 329.327 64.432 327.507 61.39 L 327.507 61.39 L 327.507 61.39 Q 325.687 58.347 321.023 58.347 L 321.023 58.347 L 321.023 58.347 Q 315.165 58.347 311.98 63.153 L 311.98 63.153 L 311.98 63.153 Q 308.795 67.959 308.795 76.888 L 308.795 76.888 L 308.795 108.227 L 288.32 108.227 L 288.32 44.526 L 308.795 44.526 L 308.795 53.854 L 308.795 53.854 Q 312.549 48.45 317.412 45.72 L 317.412 45.72 L 317.412 45.72 Q 322.275 42.99 328.133 42.99 L 328.133 42.99 L 328.133 42.99 Q 334.73 42.99 339.792 46.175 L 339.792 46.175 L 339.792 46.175 Q 344.854 49.36 347.471 55.105 Z  M 465.451 55.105 L 465.451 55.105 L 465.451 55.105 Q 469.318 49.19 474.636 46.09 L 474.636 46.09 L 474.636 46.09 Q 479.954 42.99 486.324 42.99 L 486.324 42.99 L 486.324 42.99 Q 497.301 42.99 503.046 49.758 L 503.046 49.758 L 503.046 49.758 Q 508.79 56.527 508.79 69.437 L 508.79 69.437 L 508.79 108.227 L 488.315 108.227 L 488.315 75.011 L 488.315 75.011 Q 488.372 74.272 488.4 73.476 L 488.4 73.476 L 488.4 73.476 Q 488.429 72.679 488.429 71.201 L 488.429 71.201 L 488.429 71.201 Q 488.429 64.432 486.438 61.39 L 486.438 61.39 L 486.438 61.39 Q 484.447 58.347 480.011 58.347 L 480.011 58.347 L 480.011 58.347 Q 474.21 58.347 471.053 63.124 L 471.053 63.124 L 471.053 63.124 Q 467.896 67.902 467.783 76.945 L 467.783 76.945 L 467.783 108.227 L 447.307 108.227 L 447.307 75.011 L 447.307 75.011 Q 447.307 64.432 445.487 61.39 L 445.487 61.39 L 445.487 61.39 Q 443.667 58.347 439.004 58.347 L 439.004 58.347 L 439.004 58.347 Q 433.145 58.347 429.96 63.153 L 429.96 63.153 L 429.96 63.153 Q 426.775 67.959 426.775 76.888 L 426.775 76.888 L 426.775 108.227 L 406.3 108.227 L 406.3 44.526 L 426.775 44.526 L 426.775 53.854 L 426.775 53.854 Q 430.529 48.45 435.392 45.72 L 435.392 45.72 L 435.392 45.72 Q 440.255 42.99 446.113 42.99 L 446.113 42.99 L 446.113 42.99 Q 452.711 42.99 457.773 46.175 L 457.773 46.175 L 457.773 46.175 Q 462.834 49.36 465.451 55.105 Z  M 554.709 57.55 L 554.709 57.55 L 554.709 57.55 Q 547.94 57.55 544.386 62.413 L 544.386 62.413 L 544.386 62.413 Q 540.831 67.276 540.831 76.433 L 540.831 76.433 L 540.831 76.433 Q 540.831 85.59 544.386 90.453 L 544.386 90.453 L 544.386 90.453 Q 547.94 95.316 554.709 95.316 L 554.709 95.316 L 554.709 95.316 Q 561.363 95.316 564.889 90.453 L 564.889 90.453 L 564.889 90.453 Q 568.416 85.59 568.416 76.433 L 568.416 76.433 L 568.416 76.433 Q 568.416 67.276 564.889 62.413 L 564.889 62.413 L 564.889 62.413 Q 561.363 57.55 554.709 57.55 Z  M 554.709 42.99 L 554.709 42.99 L 554.709 42.99 Q 571.146 42.99 580.388 51.863 L 580.388 51.863 L 580.388 51.863 Q 589.63 60.735 589.63 76.433 L 589.63 76.433 L 589.63 76.433 Q 589.63 92.131 580.388 101.004 L 580.388 101.004 L 580.388 101.004 Q 571.146 109.876 554.709 109.876 L 554.709 109.876 L 554.709 109.876 Q 538.215 109.876 528.916 101.004 L 528.916 101.004 L 528.916 101.004 Q 519.616 92.131 519.616 76.433 L 519.616 76.433 L 519.616 76.433 Q 519.616 60.735 528.916 51.863 L 528.916 51.863 L 528.916 51.863 Q 538.215 42.99 554.709 42.99 Z  M 644.365 53.854 L 644.365 53.854 L 644.365 19.728 L 664.84 19.728 L 664.84 108.227 L 644.365 108.227 L 644.365 99.013 L 644.365 99.013 Q 640.156 104.644 635.094 107.26 L 635.094 107.26 L 635.094 107.26 Q 630.032 109.876 623.378 109.876 L 623.378 109.876 L 623.378 109.876 Q 611.604 109.876 604.04 100.52 L 604.04 100.52 L 604.04 100.52 Q 596.475 91.164 596.475 76.433 L 596.475 76.433 L 596.475 76.433 Q 596.475 61.702 604.04 52.346 L 604.04 52.346 L 604.04 52.346 Q 611.604 42.99 623.378 42.99 L 623.378 42.99 L 623.378 42.99 Q 629.975 42.99 635.066 45.635 L 635.066 45.635 L 635.066 45.635 Q 640.156 48.28 644.365 53.854 Z  M 630.942 95.088 L 630.942 95.088 L 630.942 95.088 Q 637.483 95.088 640.924 90.311 L 640.924 90.311 L 640.924 90.311 Q 644.365 85.533 644.365 76.433 L 644.365 76.433 L 644.365 76.433 Q 644.365 67.333 640.924 62.556 L 640.924 62.556 L 640.924 62.556 Q 637.483 57.778 630.942 57.778 L 630.942 57.778 L 630.942 57.778 Q 624.458 57.778 621.017 62.556 L 621.017 62.556 L 621.017 62.556 Q 617.576 67.333 617.576 76.433 L 617.576 76.433 L 617.576 76.433 Q 617.576 85.533 621.017 90.311 L 621.017 90.311 L 621.017 90.311 Q 624.458 95.088 630.942 95.088 Z  M 711.327 57.55 L 711.327 57.55 L 711.327 57.55 Q 704.559 57.55 701.004 62.413 L 701.004 62.413 L 701.004 62.413 Q 697.45 67.276 697.45 76.433 L 697.45 76.433 L 697.45 76.433 Q 697.45 85.59 701.004 90.453 L 701.004 90.453 L 701.004 90.453 Q 704.559 95.316 711.327 95.316 L 711.327 95.316 L 711.327 95.316 Q 717.982 95.316 721.508 90.453 L 721.508 90.453 L 721.508 90.453 Q 725.034 85.59 725.034 76.433 L 725.034 76.433 L 725.034 76.433 Q 725.034 67.276 721.508 62.413 L 721.508 62.413 L 721.508 62.413 Q 717.982 57.55 711.327 57.55 Z  M 711.327 42.99 L 711.327 42.99 L 711.327 42.99 Q 727.764 42.99 737.007 51.863 L 737.007 51.863 L 737.007 51.863 Q 746.249 60.735 746.249 76.433 L 746.249 76.433 L 746.249 76.433 Q 746.249 92.131 737.007 101.004 L 737.007 101.004 L 737.007 101.004 Q 727.764 109.876 711.327 109.876 L 711.327 109.876 L 711.327 109.876 Q 694.833 109.876 685.534 101.004 L 685.534 101.004 L 685.534 101.004 Q 676.235 92.131 676.235 76.433 L 676.235 76.433 L 676.235 76.433 Q 676.235 60.735 685.534 51.863 L 685.534 51.863 L 685.534 51.863 Q 694.833 42.99 711.327 42.99 Z  M 804.908 43.445 L 804.965 61.873 L 804.965 61.873 Q 802.291 60.622 799.647 60.025 L 799.647 60.025 L 799.647 60.025 Q 797.002 59.427 794.329 59.427 L 794.329 59.427 L 794.329 59.427 Q 786.48 59.427 782.243 64.461 L 782.243 64.461 L 782.243 64.461 Q 778.006 69.494 778.006 78.879 L 778.006 78.879 L 778.006 108.227 L 757.644 108.227 L 757.644 44.526 L 778.006 44.526 L 778.006 54.991 L 778.006 54.991 Q 781.93 48.735 787.02 45.862 L 787.02 45.862 L 787.02 45.862 Q 792.111 42.99 799.22 42.99 L 799.22 42.99 L 799.22 42.99 Q 800.244 42.99 801.438 43.076 L 801.438 43.076 L 801.438 43.076 Q 802.633 43.161 804.908 43.445 L 804.908 43.445 Z  M 875.283 76.206 L 875.283 76.206 L 875.283 82.007 L 827.678 82.007 L 827.678 82.007 Q 828.417 89.173 832.854 92.757 L 832.854 92.757 L 832.854 92.757 Q 837.29 96.34 845.252 96.34 L 845.252 96.34 L 845.252 96.34 Q 851.679 96.34 858.419 94.434 L 858.419 94.434 L 858.419 94.434 Q 865.159 92.529 872.268 88.661 L 872.268 88.661 L 872.268 104.359 L 872.268 104.359 Q 865.045 107.089 857.822 108.483 L 857.822 108.483 L 857.822 108.483 Q 850.599 109.876 843.376 109.876 L 843.376 109.876 L 843.376 109.876 Q 826.085 109.876 816.502 101.089 L 816.502 101.089 L 816.502 101.089 Q 806.918 92.302 806.918 76.433 L 806.918 76.433 L 806.918 76.433 Q 806.918 60.849 816.331 51.92 L 816.331 51.92 L 816.331 51.92 Q 825.744 42.99 842.238 42.99 L 842.238 42.99 L 842.238 42.99 Q 857.253 42.99 866.268 52.034 L 866.268 52.034 L 866.268 52.034 Q 875.283 61.077 875.283 76.206 Z  M 827.905 69.437 L 854.353 69.437 L 854.353 69.437 Q 854.353 63.636 850.969 60.081 L 850.969 60.081 L 850.969 60.081 Q 847.584 56.527 842.124 56.527 L 842.124 56.527 L 842.124 56.527 Q 836.209 56.527 832.512 59.854 L 832.512 59.854 L 832.512 59.854 Q 828.815 63.181 827.905 69.437 L 827.905 69.437 Z " fill="rgb(0,68,255)"/><path d=" M 109.75 118.425 L 896 118.425 L 896 124.786 L 109.75 124.786 L 109.75 118.425 Z " fill="rgb(0,68,255)"/><path d=" M 144.116 229.461 L 118.414 229.461 L 119.745 222.457 L 126.808 222.457 L 174.797 143.034 L 188.632 143.034 L 205.767 222.457 L 213.988 222.457 L 212.656 229.461 L 172.192 229.461 L 173.524 222.457 L 181.975 222.457 L 178.328 204.801 L 145.853 204.801 L 135.144 222.457 L 145.448 222.457 L 144.116 229.461 Z  M 169.935 164.742 L 150.021 197.796 L 176.823 197.796 L 169.935 164.742 Z  M 242.952 229.461 L 212.85 229.461 L 214.182 222.457 L 225.18 222.457 L 239.305 150.038 L 228.306 150.038 L 229.638 143.034 L 265.297 143.034 L 279.19 198.491 L 314.734 143.034 L 350.335 143.034 L 349.004 150.038 L 337.947 150.038 L 323.822 222.457 L 334.879 222.457 L 333.548 229.461 L 289.089 229.461 L 290.421 222.457 L 301.419 222.457 L 314.271 156.522 L 275.717 216.784 L 261.071 216.784 L 246.136 156.522 L 233.285 222.457 L 244.284 222.457 L 242.952 229.461 Z  M 385.667 229.461 L 341.209 229.461 L 342.54 222.457 L 353.597 222.457 L 367.722 150.038 L 356.665 150.038 L 357.997 143.034 L 402.455 143.034 L 401.124 150.038 L 390.009 150.038 L 375.884 222.457 L 386.999 222.457 L 385.667 229.461 Z  M 488.092 170.183 L 480.74 170.183 L 480.74 170.183 Q 480.393 158.721 475.299 153.598 L 475.299 153.598 L 475.299 153.598 Q 470.205 148.475 459.148 148.475 L 459.148 148.475 L 459.148 148.475 Q 445.718 148.475 437.671 157.593 L 437.671 157.593 L 437.671 157.593 Q 429.625 166.71 425.804 186.334 L 425.804 186.334 L 425.804 186.334 Q 422.042 205.785 426.267 214.96 L 426.267 214.96 L 426.267 214.96 Q 430.493 224.135 443.229 224.135 L 443.229 224.135 L 443.229 224.135 Q 448.091 224.135 452.462 223.035 L 452.462 223.035 L 452.462 223.035 Q 456.832 221.936 460.711 219.736 L 460.711 219.736 L 465.284 196.002 L 454.864 196.002 L 456.254 189.055 L 487.398 189.055 L 480.914 222.225 L 480.914 222.225 Q 470.321 226.74 460.19 228.94 L 460.19 228.94 L 460.19 228.94 Q 450.06 231.14 439.929 231.14 L 439.929 231.14 L 439.929 231.14 Q 417.7 231.14 407.338 219.157 L 407.338 219.157 L 407.338 219.157 Q 396.976 207.174 401.028 186.334 L 401.028 186.334 L 401.028 186.334 Q 405.08 165.436 420.131 153.454 L 420.131 153.454 L 420.131 153.454 Q 435.182 141.471 457.411 141.471 L 457.411 141.471 L 457.411 141.471 Q 466.674 141.471 475.27 143.323 L 475.27 143.323 L 475.27 143.323 Q 483.866 145.176 492.202 148.938 L 492.202 148.938 L 488.092 170.183 Z  M 510.226 229.461 L 484.523 229.461 L 485.855 222.457 L 492.917 222.457 L 540.907 143.034 L 554.742 143.034 L 571.877 222.457 L 580.097 222.457 L 578.766 229.461 L 538.302 229.461 L 539.633 222.457 L 548.085 222.457 L 544.438 204.801 L 511.963 204.801 L 501.253 222.457 L 511.557 222.457 L 510.226 229.461 Z  M 536.044 164.742 L 516.131 197.796 L 542.933 197.796 L 536.044 164.742 Z " fill="rgb(185,185,185)"/><path d=" M 142.116 227.461 L 116.414 227.461 L 117.745 220.457 L 124.808 220.457 L 172.797 141.034 L 186.632 141.034 L 203.767 220.457 L 211.988 220.457 L 210.656 227.461 L 170.192 227.461 L 171.524 220.457 L 179.975 220.457 L 176.328 202.801 L 143.853 202.801 L 133.144 220.457 L 143.448 220.457 L 142.116 227.461 Z  M 167.935 162.742 L 148.021 195.796 L 174.823 195.796 L 167.935 162.742 Z  M 240.952 227.461 L 210.85 227.461 L 212.182 220.457 L 223.18 220.457 L 237.305 148.038 L 226.306 148.038 L 227.638 141.034 L 263.297 141.034 L 277.19 196.491 L 312.734 141.034 L 348.335 141.034 L 347.004 148.038 L 335.947 148.038 L 321.822 220.457 L 332.879 220.457 L 331.548 227.461 L 287.089 227.461 L 288.421 220.457 L 299.419 220.457 L 312.271 154.522 L 273.717 214.784 L 259.071 214.784 L 244.136 154.522 L 231.285 220.457 L 242.284 220.457 L 240.952 227.461 Z  M 383.667 227.461 L 339.209 227.461 L 340.54 220.457 L 351.597 220.457 L 365.722 148.038 L 354.665 148.038 L 355.997 141.034 L 400.455 141.034 L 399.124 148.038 L 388.009 148.038 L 373.884 220.457 L 384.999 220.457 L 383.667 227.461 Z  M 486.092 168.183 L 478.74 168.183 L 478.74 168.183 Q 478.393 156.721 473.299 151.598 L 473.299 151.598 L 473.299 151.598 Q 468.205 146.475 457.148 146.475 L 457.148 146.475 L 457.148 146.475 Q 443.718 146.475 435.671 155.593 L 435.671 155.593 L 435.671 155.593 Q 427.625 164.71 423.804 184.334 L 423.804 184.334 L 423.804 184.334 Q 420.042 203.785 424.267 212.96 L 424.267 212.96 L 424.267 212.96 Q 428.493 222.135 441.229 222.135 L 441.229 222.135 L 441.229 222.135 Q 446.091 222.135 450.462 221.035 L 450.462 221.035 L 450.462 221.035 Q 454.832 219.936 458.711 217.736 L 458.711 217.736 L 463.284 194.002 L 452.864 194.002 L 454.254 187.055 L 485.398 187.055 L 478.914 220.225 L 478.914 220.225 Q 468.321 224.74 458.19 226.94 L 458.19 226.94 L 458.19 226.94 Q 448.06 229.14 437.929 229.14 L 437.929 229.14 L 437.929 229.14 Q 415.7 229.14 405.338 217.157 L 405.338 217.157 L 405.338 217.157 Q 394.976 205.174 399.028 184.334 L 399.028 184.334 L 399.028 184.334 Q 403.08 163.436 418.131 151.454 L 418.131 151.454 L 418.131 151.454 Q 433.182 139.471 455.411 139.471 L 455.411 139.471 L 455.411 139.471 Q 464.674 139.471 473.27 141.323 L 473.27 141.323 L 473.27 141.323 Q 481.866 143.176 490.202 146.938 L 490.202 146.938 L 486.092 168.183 Z  M 508.226 227.461 L 482.523 227.461 L 483.855 220.457 L 490.917 220.457 L 538.907 141.034 L 552.742 141.034 L 569.877 220.457 L 578.097 220.457 L 576.766 227.461 L 536.302 227.461 L 537.633 220.457 L 546.085 220.457 L 542.438 202.801 L 509.963 202.801 L 499.253 220.457 L 509.557 220.457 L 508.226 227.461 Z  M 534.044 162.742 L 514.131 195.796 L 540.933 195.796 L 534.044 162.742 Z " fill="rgb(255,0,0)"/></g></svg>