<?xml version="1.0" encoding="UTF-8" standalone="no"?><!-- Generator: Gravit.io --><svg xmlns="http://www.w3.org/2000/svg" xmlns:xlink="http://www.w3.org/1999/xlink" style="isolation:isolate" viewBox="0 0 992 250" width="992pt" height="250pt"><defs><clipPath id="_clipPath_xpA6wHYwp8XmOydEdZpxZb5E4m7tVuLe"><rect width="992" height="250"/></clipPath></defs><g clip-path="url(#_clipPath_xpA6wHYwp8XmOydEdZpxZb5E4m7tVuLe)"><path d=" M 376.733 11.418 L 500.871 11.418 L 386.375 238 L 262.237 238 L 376.733 11.418 Z " fill="rgb(161,30,74)"/><path d=" M 68.012 201.348 L 62.591 174.096 L 27.873 174.096 L 22.394 201.348 L 0.075 201.348 L 31.967 51.764 L 58.439 51.764 L 90.331 201.348 L 68.012 201.348 Z  M 45.232 86.831 L 33.409 146.344 L 56.997 146.344 L 45.232 86.831 Z  M 92.109 201.348 L 92.109 51.764 L 120.368 51.764 L 139.976 131.816 L 159.7 51.764 L 187.901 51.764 L 187.901 201.348 L 166.909 201.348 L 166.909 91.94 L 147.07 172.594 L 132.998 172.594 L 113.159 91.94 L 113.159 201.348 L 92.109 201.348 Z  M 259.923 56.473 L 259.923 56.473 L 259.923 88.133 L 259.923 88.133 Q 252.829 82.623 246.082 79.817 L 246.082 79.817 L 246.082 79.817 Q 239.334 77.012 233.336 77.012 L 233.336 77.012 L 233.336 77.012 Q 225.378 77.012 221.571 80.819 L 221.571 80.819 L 221.571 80.819 Q 217.765 84.626 217.765 92.642 L 217.765 92.642 L 217.765 92.642 Q 217.765 98.653 220.331 102.009 L 220.331 102.009 L 220.331 102.009 Q 222.898 105.366 229.645 107.77 L 229.645 107.77 L 239.103 111.077 L 239.103 111.077 Q 253.464 116.086 259.519 126.306 L 259.519 126.306 L 259.519 126.306 Q 265.575 136.525 265.575 155.361 L 265.575 155.361 L 265.575 155.361 Q 265.575 180.108 257.126 192.181 L 257.126 192.181 L 257.126 192.181 Q 248.677 204.254 231.318 204.254 L 231.318 204.254 L 231.318 204.254 Q 223.128 204.254 214.881 201.549 L 214.881 201.549 L 214.881 201.549 Q 206.634 198.843 198.387 193.533 L 198.387 193.533 L 198.387 160.971 L 198.387 160.971 Q 206.634 168.586 214.333 172.443 L 214.333 172.443 L 214.333 172.443 Q 222.033 176.301 229.184 176.301 L 229.184 176.301 L 229.184 176.301 Q 236.451 176.301 240.315 172.093 L 240.315 172.093 L 240.315 172.093 Q 244.179 167.885 244.179 160.07 L 244.179 160.07 L 244.179 160.07 Q 244.179 153.056 241.555 149.249 L 241.555 149.249 L 241.555 149.249 Q 238.93 145.442 231.087 142.436 L 231.087 142.436 L 222.494 139.13 L 222.494 139.13 Q 209.575 134.321 203.606 123.801 L 203.606 123.801 L 203.606 123.801 Q 197.637 113.281 197.637 95.447 L 197.637 95.447 L 197.637 95.447 Q 197.637 73.104 205.942 61.082 L 205.942 61.082 L 205.942 61.082 Q 214.247 49.059 229.818 49.059 L 229.818 49.059 L 229.818 49.059 Q 236.912 49.059 244.409 50.912 L 244.409 50.912 L 244.409 50.912 Q 251.907 52.766 259.923 56.473 Z  M 265.161 80.919 L 265.161 51.764 L 344.517 51.764 L 344.517 80.919 L 315.969 80.919 L 315.969 201.348 L 293.766 201.348 L 293.766 80.919 L 265.161 80.919 Z  M 368.556 118.09 L 377.898 118.09 L 377.898 118.09 Q 384.877 118.09 387.904 113.581 L 387.904 113.581 L 387.904 113.581 Q 390.932 109.073 390.932 98.753 L 390.932 98.753 L 390.932 98.753 Q 390.932 88.534 387.904 84.125 L 387.904 84.125 L 387.904 84.125 Q 384.877 79.717 377.898 79.717 L 377.898 79.717 L 368.556 79.717 L 368.556 118.09 Z  M 374.842 144.741 L 368.556 144.741 L 368.556 201.348 L 346.352 201.348 L 346.352 51.764 L 380.263 51.764 L 380.263 51.764 Q 397.276 51.764 405.206 61.683 L 405.206 61.683 L 405.206 61.683 Q 413.136 71.602 413.136 93.042 L 413.136 93.042 L 413.136 93.042 Q 413.136 107.871 409.012 117.389 L 409.012 117.389 L 409.012 117.389 Q 404.889 126.907 396.584 131.415 L 396.584 131.415 L 396.584 131.415 Q 401.14 133.219 404.745 139.581 L 404.745 139.581 L 404.745 139.581 Q 408.349 145.943 412.04 158.867 L 412.04 158.867 L 424.094 201.348 L 400.448 201.348 L 389.952 164.178 L 389.952 164.178 Q 386.78 152.956 383.521 148.848 L 383.521 148.848 L 383.521 148.848 Q 380.263 144.741 374.842 144.741 L 374.842 144.741 Z  M 485.33 201.348 L 479.909 174.096 L 445.191 174.096 L 439.712 201.348 L 417.393 201.348 L 449.286 51.764 L 475.757 51.764 L 507.649 201.348 L 485.33 201.348 Z  M 462.55 86.831 L 450.727 146.344 L 474.315 146.344 L 462.55 86.831 Z  M 539.589 80.919 L 531.63 80.919 L 531.63 172.193 L 539.589 172.193 L 539.589 172.193 Q 553.2 172.193 560.38 160.471 L 560.38 160.471 L 560.38 160.471 Q 567.56 148.748 567.56 126.406 L 567.56 126.406 L 567.56 126.406 Q 567.56 104.164 560.409 92.541 L 560.409 92.541 L 560.409 92.541 Q 553.257 80.919 539.589 80.919 L 539.589 80.919 Z  M 509.427 201.348 L 509.427 51.764 L 532.841 51.764 L 532.841 51.764 Q 552.45 51.764 562.052 56.623 L 562.052 56.623 L 562.052 56.623 Q 571.655 61.482 578.518 73.104 L 578.518 73.104 L 578.518 73.104 Q 584.573 83.224 587.514 96.449 L 587.514 96.449 L 587.514 96.449 Q 590.456 109.674 590.456 126.406 L 590.456 126.406 L 590.456 126.406 Q 590.456 143.338 587.514 156.613 L 587.514 156.613 L 587.514 156.613 Q 584.573 169.888 578.518 180.008 L 578.518 180.008 L 578.518 180.008 Q 571.597 191.63 561.908 196.489 L 561.908 196.489 L 561.908 196.489 Q 552.219 201.348 532.841 201.348 L 532.841 201.348 L 509.427 201.348 Z " fill="rgb(234,234,234)"/><path d=" M 738.887 165.579 L 754.111 165.579 L 754.111 165.579 Q 748.651 187.226 735.785 198.361 L 735.785 198.361 L 735.785 198.361 Q 722.919 209.495 703.227 209.495 L 703.227 209.495 L 703.227 209.495 Q 691.147 209.495 680.805 204.316 L 680.805 204.316 L 680.805 204.316 Q 670.463 199.137 662.437 189.091 L 662.437 189.091 L 662.437 189.091 Q 653.17 177.49 648.661 162.731 L 648.661 162.731 L 648.661 162.731 Q 644.152 147.972 644.152 129.329 L 644.152 129.329 L 644.152 129.329 Q 644.152 93.285 660.782 71.172 L 660.782 71.172 L 660.782 71.172 Q 677.413 49.059 704.634 49.059 L 704.634 49.059 L 704.634 49.059 Q 714.728 49.059 726.146 52.373 L 726.146 52.373 L 726.146 52.373 Q 737.564 55.688 750.719 62.42 L 750.719 62.42 L 750.719 98.049 L 741.37 98.049 L 741.37 98.049 Q 738.308 78.577 729.083 69.359 L 729.083 69.359 L 729.083 69.359 Q 719.858 60.141 703.227 60.141 L 703.227 60.141 L 703.227 60.141 Q 683.453 60.141 673.276 77.697 L 673.276 77.697 L 673.276 77.697 Q 663.099 95.253 663.099 129.329 L 663.099 129.329 L 663.099 129.329 Q 663.099 163.301 673.276 180.857 L 673.276 180.857 L 673.276 180.857 Q 683.453 198.412 703.227 198.412 L 703.227 198.412 L 703.227 198.412 Q 717.044 198.412 725.98 190.178 L 725.98 190.178 L 725.98 190.178 Q 734.916 181.944 738.887 165.579 L 738.887 165.579 Z  M 803.266 62.938 L 803.266 127.775 L 825.109 127.775 L 825.109 127.775 Q 837.437 127.775 843.89 119.437 L 843.89 119.437 L 843.89 119.437 Q 850.344 111.1 850.344 95.356 L 850.344 95.356 L 850.344 95.356 Q 850.344 79.51 843.89 71.224 L 843.89 71.224 L 843.89 71.224 Q 837.437 62.938 825.109 62.938 L 825.109 62.938 L 803.266 62.938 Z  M 822.378 206.491 L 770.749 206.491 L 770.749 195.512 L 786.47 195.512 L 786.47 62.938 L 770.749 62.938 L 770.749 51.855 L 829.163 51.855 L 829.163 51.855 Q 847.696 51.855 858.535 63.611 L 858.535 63.611 L 858.535 63.611 Q 869.374 75.367 869.374 95.356 L 869.374 95.356 L 869.374 95.356 Q 869.374 115.243 858.535 127.05 L 858.535 127.05 L 858.535 127.05 Q 847.696 138.857 829.163 138.857 L 829.163 138.857 L 803.266 138.857 L 803.266 195.512 L 822.378 195.512 L 822.378 206.491 Z  M 976.776 165.579 L 992 165.579 L 992 165.579 Q 986.539 187.226 973.673 198.361 L 973.673 198.361 L 973.673 198.361 Q 960.808 209.495 941.116 209.495 L 941.116 209.495 L 941.116 209.495 Q 929.036 209.495 918.694 204.316 L 918.694 204.316 L 918.694 204.316 Q 908.351 199.137 900.326 189.091 L 900.326 189.091 L 900.326 189.091 Q 891.059 177.49 886.55 162.731 L 886.55 162.731 L 886.55 162.731 Q 882.04 147.972 882.04 129.329 L 882.04 129.329 L 882.04 129.329 Q 882.04 93.285 898.671 71.172 L 898.671 71.172 L 898.671 71.172 Q 915.301 49.059 942.522 49.059 L 942.522 49.059 L 942.522 49.059 Q 952.616 49.059 964.034 52.373 L 964.034 52.373 L 964.034 52.373 Q 975.452 55.688 988.608 62.42 L 988.608 62.42 L 988.608 98.049 L 979.258 98.049 L 979.258 98.049 Q 976.197 78.577 966.972 69.359 L 966.972 69.359 L 966.972 69.359 Q 957.746 60.141 941.116 60.141 L 941.116 60.141 L 941.116 60.141 Q 921.341 60.141 911.164 77.697 L 911.164 77.697 L 911.164 77.697 Q 900.987 95.253 900.987 129.329 L 900.987 129.329 L 900.987 129.329 Q 900.987 163.301 911.164 180.857 L 911.164 180.857 L 911.164 180.857 Q 921.341 198.412 941.116 198.412 L 941.116 198.412 L 941.116 198.412 Q 954.933 198.412 963.869 190.178 L 963.869 190.178 L 963.869 190.178 Q 972.805 181.944 976.776 165.579 L 976.776 165.579 Z " fill="rgb(234,234,234)"/></g></svg>