<?xml version="1.0" encoding="UTF-8" standalone="no"?><!-- Generator: Gravit.io --><svg xmlns="http://www.w3.org/2000/svg" xmlns:xlink="http://www.w3.org/1999/xlink" style="isolation:isolate" viewBox="0 0 992 250" width="992pt" height="250pt"><defs><clipPath id="_clipPath_Mpbgtp3UCkabfzXTNjsd29m9lA5fMHPF"><rect width="992" height="250"/></clipPath></defs><g clip-path="url(#_clipPath_Mpbgtp3UCkabfzXTNjsd29m9lA5fMHPF)"><path d=" M 840.901 186.758 L 840.901 56.209 L 859.174 56.209 L 859.174 186.758 L 840.901 186.758 Z  M 891.576 186.758 L 891.576 56.209 L 909.849 56.209 L 909.849 186.758 L 891.576 186.758 Z  M 352.424 174.137 L 352.424 174.137 L 352.424 174.137 Q 358.641 174.137 363.445 173.854 L 363.445 173.854 L 363.445 173.854 Q 368.249 173.572 371.451 172.818 L 371.451 172.818 L 371.451 143.619 L 371.451 143.619 Q 369.567 142.677 365.329 142.018 L 365.329 142.018 L 365.329 142.018 Q 361.09 141.358 355.062 141.358 L 355.062 141.358 L 355.062 141.358 Q 351.106 141.358 346.679 141.923 L 346.679 141.923 L 346.679 141.923 Q 342.252 142.489 338.578 144.278 L 338.578 144.278 L 338.578 144.278 Q 334.905 146.068 332.456 149.176 L 332.456 149.176 L 332.456 149.176 Q 330.007 152.284 330.007 157.371 L 330.007 157.371 L 330.007 157.371 Q 330.007 166.79 336.035 170.463 L 336.035 170.463 L 336.035 170.463 Q 342.063 174.137 352.424 174.137 Z  M 350.917 86.351 L 350.917 86.351 L 350.917 86.351 Q 361.467 86.351 368.72 89.082 L 368.72 89.082 L 368.72 89.082 Q 375.972 91.814 380.399 96.806 L 380.399 96.806 L 380.399 96.806 Q 384.826 101.798 386.71 108.674 L 386.71 108.674 L 386.71 108.674 Q 388.594 115.55 388.594 123.839 L 388.594 123.839 L 388.594 185.063 L 388.594 185.063 Q 386.333 185.44 382.283 186.099 L 382.283 186.099 L 382.283 186.099 Q 378.233 186.758 373.147 187.324 L 373.147 187.324 L 373.147 187.324 Q 368.06 187.889 362.126 188.36 L 362.126 188.36 L 362.126 188.36 Q 356.192 188.831 350.352 188.831 L 350.352 188.831 L 350.352 188.831 Q 342.063 188.831 335.093 187.135 L 335.093 187.135 L 335.093 187.135 Q 328.123 185.44 323.037 181.766 L 323.037 181.766 L 323.037 181.766 Q 317.95 178.093 315.125 172.065 L 315.125 172.065 L 315.125 172.065 Q 312.299 166.036 312.299 157.559 L 312.299 157.559 L 312.299 157.559 Q 312.299 149.459 315.596 143.619 L 315.596 143.619 L 315.596 143.619 Q 318.892 137.779 324.544 134.2 L 324.544 134.2 L 324.544 134.2 Q 330.195 130.62 337.731 128.925 L 337.731 128.925 L 337.731 128.925 Q 345.266 127.23 353.555 127.23 L 353.555 127.23 L 353.555 127.23 Q 356.192 127.23 359.018 127.512 L 359.018 127.512 L 359.018 127.512 Q 361.844 127.795 364.387 128.266 L 364.387 128.266 L 364.387 128.266 Q 366.93 128.737 368.814 129.113 L 368.814 129.113 L 368.814 129.113 Q 370.698 129.49 371.451 129.679 L 371.451 129.679 L 371.451 124.781 L 371.451 124.781 Q 371.451 120.448 370.509 116.209 L 370.509 116.209 L 370.509 116.209 Q 369.567 111.971 367.118 108.674 L 367.118 108.674 L 367.118 108.674 Q 364.669 105.377 360.431 103.399 L 360.431 103.399 L 360.431 103.399 Q 356.192 101.421 349.41 101.421 L 349.41 101.421 L 349.41 101.421 Q 340.745 101.421 334.246 102.646 L 334.246 102.646 L 334.246 102.646 Q 327.746 103.87 324.544 105.189 L 324.544 105.189 L 322.472 90.683 L 322.472 90.683 Q 325.862 89.176 333.775 87.763 L 333.775 87.763 L 333.775 87.763 Q 341.687 86.351 350.917 86.351 Z  M 485.611 137.967 L 485.611 137.967 L 485.611 137.967 Q 485.611 120.825 477.134 111.594 L 477.134 111.594 L 477.134 111.594 Q 468.657 102.363 454.528 102.363 L 454.528 102.363 L 454.528 102.363 Q 446.616 102.363 442.189 102.928 L 442.189 102.928 L 442.189 102.928 Q 437.762 103.493 435.124 104.247 L 435.124 104.247 L 435.124 166.036 L 435.124 166.036 Q 438.327 168.674 444.355 171.123 L 444.355 171.123 L 444.355 171.123 Q 450.383 173.572 457.542 173.572 L 457.542 173.572 L 457.542 173.572 Q 465.077 173.572 470.446 170.84 L 470.446 170.84 L 470.446 170.84 Q 475.815 168.109 479.206 163.305 L 479.206 163.305 L 479.206 163.305 Q 482.597 158.501 484.104 152.002 L 484.104 152.002 L 484.104 152.002 Q 485.611 145.503 485.611 137.967 Z  M 503.884 137.967 L 503.884 137.967 L 503.884 137.967 Q 503.884 149.082 500.964 158.501 L 500.964 158.501 L 500.964 158.501 Q 498.044 167.92 492.393 174.702 L 492.393 174.702 L 492.393 174.702 Q 486.741 181.484 478.547 185.251 L 478.547 185.251 L 478.547 185.251 Q 470.352 189.019 459.803 189.019 L 459.803 189.019 L 459.803 189.019 Q 451.325 189.019 444.826 186.758 L 444.826 186.758 L 444.826 186.758 Q 438.327 184.498 435.124 182.426 L 435.124 182.426 L 435.124 221.609 L 417.605 221.609 L 417.605 91.814 L 417.605 91.814 Q 423.821 90.307 433.146 88.517 L 433.146 88.517 L 433.146 88.517 Q 442.471 86.727 454.716 86.727 L 454.716 86.727 L 454.716 86.727 Q 466.019 86.727 475.062 90.307 L 475.062 90.307 L 475.062 90.307 Q 484.104 93.886 490.509 100.479 L 490.509 100.479 L 490.509 100.479 Q 496.914 107.073 500.399 116.586 L 500.399 116.586 L 500.399 116.586 Q 503.884 126.099 503.884 137.967 Z  M 596.568 137.967 L 596.568 137.967 L 596.568 137.967 Q 596.568 120.825 588.091 111.594 L 588.091 111.594 L 588.091 111.594 Q 579.614 102.363 565.485 102.363 L 565.485 102.363 L 565.485 102.363 Q 557.573 102.363 553.146 102.928 L 553.146 102.928 L 553.146 102.928 Q 548.719 103.493 546.082 104.247 L 546.082 104.247 L 546.082 166.036 L 546.082 166.036 Q 549.284 168.674 555.313 171.123 L 555.313 171.123 L 555.313 171.123 Q 561.341 173.572 568.499 173.572 L 568.499 173.572 L 568.499 173.572 Q 576.035 173.572 581.404 170.84 L 581.404 170.84 L 581.404 170.84 Q 586.772 168.109 590.163 163.305 L 590.163 163.305 L 590.163 163.305 Q 593.554 158.501 595.061 152.002 L 595.061 152.002 L 595.061 152.002 Q 596.568 145.503 596.568 137.967 Z  M 614.841 137.967 L 614.841 137.967 L 614.841 137.967 Q 614.841 149.082 611.921 158.501 L 611.921 158.501 L 611.921 158.501 Q 609.002 167.92 603.35 174.702 L 603.35 174.702 L 603.35 174.702 Q 597.699 181.484 589.504 185.251 L 589.504 185.251 L 589.504 185.251 Q 581.309 189.019 570.76 189.019 L 570.76 189.019 L 570.76 189.019 Q 562.283 189.019 555.783 186.758 L 555.783 186.758 L 555.783 186.758 Q 549.284 184.498 546.082 182.426 L 546.082 182.426 L 546.082 221.609 L 528.562 221.609 L 528.562 91.814 L 528.562 91.814 Q 534.779 90.307 544.104 88.517 L 544.104 88.517 L 544.104 88.517 Q 553.429 86.727 565.674 86.727 L 565.674 86.727 L 565.674 86.727 Q 576.977 86.727 586.019 90.307 L 586.019 90.307 L 586.019 90.307 Q 595.061 93.886 601.466 100.479 L 601.466 100.479 L 601.466 100.479 Q 607.871 107.073 611.356 116.586 L 611.356 116.586 L 611.356 116.586 Q 614.841 126.099 614.841 137.967 Z  M 671.356 173.948 L 668.907 188.642 L 668.907 188.642 Q 652.706 188.266 645.925 181.672 L 645.925 181.672 L 645.925 181.672 Q 639.143 175.079 639.143 161.138 L 639.143 161.138 L 639.143 43.588 L 656.662 40.574 L 656.662 158.313 L 656.662 158.313 Q 656.662 162.645 657.416 165.471 L 657.416 165.471 L 657.416 165.471 Q 658.169 168.297 659.865 169.992 L 659.865 169.992 L 659.865 169.992 Q 661.56 171.688 664.386 172.536 L 664.386 172.536 L 664.386 172.536 Q 667.212 173.383 671.356 173.948 L 671.356 173.948 Z  M 685.485 137.967 L 685.485 137.967 L 685.485 137.967 Q 685.485 124.969 689.253 115.267 L 689.253 115.267 L 689.253 115.267 Q 693.02 105.566 699.237 99.161 L 699.237 99.161 L 699.237 99.161 Q 705.453 92.756 713.554 89.553 L 713.554 89.553 L 713.554 89.553 Q 721.654 86.351 730.132 86.351 L 730.132 86.351 L 730.132 86.351 Q 749.912 86.351 760.461 98.69 L 760.461 98.69 L 760.461 98.69 Q 771.011 111.029 771.011 136.272 L 771.011 136.272 L 771.011 136.272 Q 771.011 137.402 771.011 139.192 L 771.011 139.192 L 771.011 139.192 Q 771.011 140.981 770.822 142.489 L 770.822 142.489 L 703.758 142.489 L 703.758 142.489 Q 704.888 157.748 712.612 165.66 L 712.612 165.66 L 712.612 165.66 Q 720.336 173.572 736.725 173.572 L 736.725 173.572 L 736.725 173.572 Q 745.956 173.572 752.267 171.97 L 752.267 171.97 L 752.267 171.97 Q 758.577 170.369 761.78 168.862 L 761.78 168.862 L 764.229 183.556 L 764.229 183.556 Q 761.026 185.251 753.02 187.135 L 753.02 187.135 L 753.02 187.135 Q 745.014 189.019 734.841 189.019 L 734.841 189.019 L 734.841 189.019 Q 722.031 189.019 712.706 185.157 L 712.706 185.157 L 712.706 185.157 Q 703.381 181.295 697.353 174.514 L 697.353 174.514 L 697.353 174.514 Q 691.325 167.732 688.405 158.407 L 688.405 158.407 L 688.405 158.407 Q 685.485 149.082 685.485 137.967 Z  M 704.135 128.36 L 752.737 128.36 L 752.737 128.36 Q 752.926 116.492 746.803 108.862 L 746.803 108.862 L 746.803 108.862 Q 740.681 101.233 729.943 101.233 L 729.943 101.233 L 729.943 101.233 Q 723.915 101.233 719.3 103.588 L 719.3 103.588 L 719.3 103.588 Q 714.684 105.942 711.482 109.71 L 711.482 109.71 L 711.482 109.71 Q 708.279 113.478 706.49 118.376 L 706.49 118.376 L 706.49 118.376 Q 704.7 123.274 704.135 128.36 L 704.135 128.36 Z " fill="rgb(255,255,255)"/><path d=" M 254.602 201.188 C 237.437 218.756 217.847 228.332 205.647 228.332 C 198.699 228.343 191.849 226.698 185.665 223.533 C 179.354 226.742 172.608 228.332 165.687 228.332 C 154.959 228.332 136.716 218.136 119.985 201.188 L 254.602 201.188 L 254.602 201.188 Z " fill="rgb(0,0,255)"/><path d=" M 254.602 201.188 C 262.718 192.941 270.285 182.89 276.284 171.234 C 276.066 171.106 275.85 170.977 275.638 170.84 L 275.638 170.84 L 96.966 170.84 C 103.481 182.38 111.54 192.646 119.985 201.188 L 254.602 201.188 L 254.602 201.188 Z " fill="rgb(153,0,255)"/><path d=" M 275.638 170.84 C 264.033 163.799 255.27 152.54 251.487 139.192 L 251.487 139.192 L 84.511 139.192 C 87.108 150.466 91.496 161.1 96.966 170.84 L 275.638 170.84 L 275.638 170.84 Z " fill="rgb(255,0,0)"/><path d=" M 251.487 139.192 C 250.12 134.455 249.397 129.449 249.397 124.275 C 249.397 117.562 250.614 111.13 252.836 105.189 L 252.836 105.189 L 82.986 105.189 C 82.24 108.888 81.873 112.716 81.873 116.627 C 81.873 124.371 82.807 131.919 84.511 139.192 L 251.487 139.192 L 251.487 139.192 Z " fill="rgb(255,153,0)"/><path d=" M 252.836 105.189 C 257.151 93.687 265.244 84.026 275.605 77.728 C 274.93 76.894 274.233 76.078 273.533 75.264 L 273.533 75.264 L 97.847 75.264 C 90.359 83.575 85.089 93.843 82.986 105.189 L 252.836 105.189 L 252.836 105.189 Z " fill="rgb(255,255,0)"/><path d=" M 273.533 75.264 C 261.784 62.216 244.602 53.962 225.496 53.962 C 211.053 53.956 197.026 58.8 185.665 67.716 C 174.303 58.8 160.276 53.956 145.833 53.962 L 145.833 53.962 C 126.739 53.962 109.567 62.206 97.847 75.264 L 273.533 75.264 L 273.533 75.264 Z  M 186.592 56.834 C 185.665 37.985 204.205 19.754 224.599 22.226 C 221.509 39.839 208.531 54.362 186.592 56.834 L 186.592 56.834 Z " fill-rule="evenodd" fill="rgb(0,162,19)"/></g></svg>