<?xml version="1.0" encoding="UTF-8" standalone="no"?><!-- Generator: Gravit.io --><svg xmlns="http://www.w3.org/2000/svg" xmlns:xlink="http://www.w3.org/1999/xlink" style="isolation:isolate" viewBox="0 0 992 250" width="992pt" height="250pt"><defs><clipPath id="_clipPath_46LOCGHDBBoBu6NcdAFVyBIub83Aw2yM"><rect width="992" height="250"/></clipPath></defs><g clip-path="url(#_clipPath_46LOCGHDBBoBu6NcdAFVyBIub83Aw2yM)"><path d=" M 747.438 186.863 L 747.438 56.524 L 765.682 56.524 L 765.682 186.863 L 747.438 186.863 Z  M 798.031 186.863 L 798.031 56.524 L 816.275 56.524 L 816.275 186.863 L 798.031 186.863 Z  M 259.748 174.261 L 259.748 174.261 L 259.748 174.261 Q 265.955 174.261 270.751 173.979 L 270.751 173.979 L 270.751 173.979 Q 275.547 173.697 278.744 172.945 L 278.744 172.945 L 278.744 143.792 L 278.744 143.792 Q 276.863 142.852 272.631 142.194 L 272.631 142.194 L 272.631 142.194 Q 268.4 141.535 262.381 141.535 L 262.381 141.535 L 262.381 141.535 Q 258.431 141.535 254.012 142.1 L 254.012 142.1 L 254.012 142.1 Q 249.592 142.664 245.924 144.451 L 245.924 144.451 L 245.924 144.451 Q 242.257 146.237 239.812 149.341 L 239.812 149.341 L 239.812 149.341 Q 237.366 152.444 237.366 157.522 L 237.366 157.522 L 237.366 157.522 Q 237.366 166.926 243.385 170.594 L 243.385 170.594 L 243.385 170.594 Q 249.404 174.261 259.748 174.261 Z  M 258.243 86.616 L 258.243 86.616 L 258.243 86.616 Q 268.776 86.616 276.017 89.343 L 276.017 89.343 L 276.017 89.343 Q 283.258 92.071 287.678 97.055 L 287.678 97.055 L 287.678 97.055 Q 292.098 102.039 293.978 108.904 L 293.978 108.904 L 293.978 108.904 Q 295.859 115.769 295.859 124.044 L 295.859 124.044 L 295.859 185.17 L 295.859 185.17 Q 293.602 185.546 289.559 186.204 L 289.559 186.204 L 289.559 186.204 Q 285.515 186.863 280.437 187.427 L 280.437 187.427 L 280.437 187.427 Q 275.359 187.991 269.434 188.461 L 269.434 188.461 L 269.434 188.461 Q 263.51 188.932 257.679 188.932 L 257.679 188.932 L 257.679 188.932 Q 249.404 188.932 242.445 187.239 L 242.445 187.239 L 242.445 187.239 Q 235.486 185.546 230.408 181.879 L 230.408 181.879 L 230.408 181.879 Q 225.329 178.211 222.508 172.192 L 222.508 172.192 L 222.508 172.192 Q 219.687 166.174 219.687 157.71 L 219.687 157.71 L 219.687 157.71 Q 219.687 149.623 222.978 143.792 L 222.978 143.792 L 222.978 143.792 Q 226.27 137.962 231.912 134.388 L 231.912 134.388 L 231.912 134.388 Q 237.555 130.815 245.078 129.122 L 245.078 129.122 L 245.078 129.122 Q 252.601 127.43 260.876 127.43 L 260.876 127.43 L 260.876 127.43 Q 263.51 127.43 266.331 127.712 L 266.331 127.712 L 266.331 127.712 Q 269.152 127.994 271.691 128.464 L 271.691 128.464 L 271.691 128.464 Q 274.23 128.934 276.111 129.31 L 276.111 129.31 L 276.111 129.31 Q 277.992 129.686 278.744 129.875 L 278.744 129.875 L 278.744 124.985 L 278.744 124.985 Q 278.744 120.659 277.804 116.427 L 277.804 116.427 L 277.804 116.427 Q 276.863 112.195 274.418 108.904 L 274.418 108.904 L 274.418 108.904 Q 271.973 105.612 267.741 103.637 L 267.741 103.637 L 267.741 103.637 Q 263.51 101.663 256.739 101.663 L 256.739 101.663 L 256.739 101.663 Q 248.087 101.663 241.598 102.885 L 241.598 102.885 L 241.598 102.885 Q 235.11 104.108 231.912 105.424 L 231.912 105.424 L 229.843 90.942 L 229.843 90.942 Q 233.229 89.437 241.128 88.027 L 241.128 88.027 L 241.128 88.027 Q 249.027 86.616 258.243 86.616 Z  M 392.72 138.15 L 392.72 138.15 L 392.72 138.15 Q 392.72 121.035 384.257 111.819 L 384.257 111.819 L 384.257 111.819 Q 375.793 102.603 361.687 102.603 L 361.687 102.603 L 361.687 102.603 Q 353.788 102.603 349.368 103.167 L 349.368 103.167 L 349.368 103.167 Q 344.948 103.732 342.315 104.484 L 342.315 104.484 L 342.315 166.174 L 342.315 166.174 Q 345.512 168.807 351.531 171.252 L 351.531 171.252 L 351.531 171.252 Q 357.549 173.697 364.696 173.697 L 364.696 173.697 L 364.696 173.697 Q 372.219 173.697 377.58 170.97 L 377.58 170.97 L 377.58 170.97 Q 382.94 168.243 386.325 163.447 L 386.325 163.447 L 386.325 163.447 Q 389.711 158.651 391.215 152.162 L 391.215 152.162 L 391.215 152.162 Q 392.72 145.673 392.72 138.15 Z  M 410.964 138.15 L 410.964 138.15 L 410.964 138.15 Q 410.964 149.247 408.049 158.651 L 408.049 158.651 L 408.049 158.651 Q 405.133 168.055 399.491 174.826 L 399.491 174.826 L 399.491 174.826 Q 393.849 181.596 385.667 185.358 L 385.667 185.358 L 385.667 185.358 Q 377.486 189.12 366.953 189.12 L 366.953 189.12 L 366.953 189.12 Q 358.49 189.12 352.001 186.863 L 352.001 186.863 L 352.001 186.863 Q 345.512 184.606 342.315 182.537 L 342.315 182.537 L 342.315 221.657 L 324.823 221.657 L 324.823 92.071 L 324.823 92.071 Q 331.03 90.566 340.34 88.779 L 340.34 88.779 L 340.34 88.779 Q 349.65 86.992 361.875 86.992 L 361.875 86.992 L 361.875 86.992 Q 373.16 86.992 382.188 90.566 L 382.188 90.566 L 382.188 90.566 Q 391.215 94.139 397.61 100.722 L 397.61 100.722 L 397.61 100.722 Q 404.005 107.305 407.484 116.803 L 407.484 116.803 L 407.484 116.803 Q 410.964 126.301 410.964 138.15 Z  M 503.499 138.15 L 503.499 138.15 L 503.499 138.15 Q 503.499 121.035 495.035 111.819 L 495.035 111.819 L 495.035 111.819 Q 486.572 102.603 472.466 102.603 L 472.466 102.603 L 472.466 102.603 Q 464.566 102.603 460.147 103.167 L 460.147 103.167 L 460.147 103.167 Q 455.727 103.732 453.094 104.484 L 453.094 104.484 L 453.094 166.174 L 453.094 166.174 Q 456.291 168.807 462.309 171.252 L 462.309 171.252 L 462.309 171.252 Q 468.328 173.697 475.475 173.697 L 475.475 173.697 L 475.475 173.697 Q 482.998 173.697 488.358 170.97 L 488.358 170.97 L 488.358 170.97 Q 493.719 168.243 497.104 163.447 L 497.104 163.447 L 497.104 163.447 Q 500.49 158.651 501.994 152.162 L 501.994 152.162 L 501.994 152.162 Q 503.499 145.673 503.499 138.15 Z  M 521.743 138.15 L 521.743 138.15 L 521.743 138.15 Q 521.743 149.247 518.827 158.651 L 518.827 158.651 L 518.827 158.651 Q 515.912 168.055 510.27 174.826 L 510.27 174.826 L 510.27 174.826 Q 504.627 181.596 496.446 185.358 L 496.446 185.358 L 496.446 185.358 Q 488.264 189.12 477.732 189.12 L 477.732 189.12 L 477.732 189.12 Q 469.268 189.12 462.78 186.863 L 462.78 186.863 L 462.78 186.863 Q 456.291 184.606 453.094 182.537 L 453.094 182.537 L 453.094 221.657 L 435.602 221.657 L 435.602 92.071 L 435.602 92.071 Q 441.809 90.566 451.119 88.779 L 451.119 88.779 L 451.119 88.779 Q 460.429 86.992 472.654 86.992 L 472.654 86.992 L 472.654 86.992 Q 483.939 86.992 492.966 90.566 L 492.966 90.566 L 492.966 90.566 Q 501.994 94.139 508.389 100.722 L 508.389 100.722 L 508.389 100.722 Q 514.784 107.305 518.263 116.803 L 518.263 116.803 L 518.263 116.803 Q 521.743 126.301 521.743 138.15 Z  M 578.166 174.073 L 575.721 188.743 L 575.721 188.743 Q 559.547 188.367 552.776 181.785 L 552.776 181.785 L 552.776 181.785 Q 546.005 175.202 546.005 161.284 L 546.005 161.284 L 546.005 43.922 L 563.496 40.913 L 563.496 158.463 L 563.496 158.463 Q 563.496 162.788 564.249 165.61 L 564.249 165.61 L 564.249 165.61 Q 565.001 168.431 566.694 170.124 L 566.694 170.124 L 566.694 170.124 Q 568.386 171.816 571.208 172.663 L 571.208 172.663 L 571.208 172.663 Q 574.029 173.509 578.166 174.073 L 578.166 174.073 Z  M 592.272 138.15 L 592.272 138.15 L 592.272 138.15 Q 592.272 125.173 596.034 115.486 L 596.034 115.486 L 596.034 115.486 Q 599.796 105.8 606.002 99.406 L 606.002 99.406 L 606.002 99.406 Q 612.209 93.011 620.296 89.814 L 620.296 89.814 L 620.296 89.814 Q 628.384 86.616 636.847 86.616 L 636.847 86.616 L 636.847 86.616 Q 656.596 86.616 667.128 98.935 L 667.128 98.935 L 667.128 98.935 Q 677.66 111.255 677.66 136.457 L 677.66 136.457 L 677.66 136.457 Q 677.66 137.586 677.66 139.373 L 677.66 139.373 L 677.66 139.373 Q 677.66 141.159 677.472 142.664 L 677.472 142.664 L 610.516 142.664 L 610.516 142.664 Q 611.645 157.898 619.356 165.798 L 619.356 165.798 L 619.356 165.798 Q 627.067 173.697 643.43 173.697 L 643.43 173.697 L 643.43 173.697 Q 652.646 173.697 658.947 172.098 L 658.947 172.098 L 658.947 172.098 Q 665.247 170.5 668.445 168.995 L 668.445 168.995 L 670.89 183.665 L 670.89 183.665 Q 667.692 185.358 659.699 187.239 L 659.699 187.239 L 659.699 187.239 Q 651.706 189.12 641.549 189.12 L 641.549 189.12 L 641.549 189.12 Q 628.76 189.12 619.45 185.264 L 619.45 185.264 L 619.45 185.264 Q 610.14 181.408 604.121 174.637 L 604.121 174.637 L 604.121 174.637 Q 598.103 167.867 595.188 158.557 L 595.188 158.557 L 595.188 158.557 Q 592.272 149.247 592.272 138.15 Z  M 610.892 128.558 L 659.417 128.558 L 659.417 128.558 Q 659.605 116.709 653.492 109.092 L 653.492 109.092 L 653.492 109.092 Q 647.38 101.475 636.659 101.475 L 636.659 101.475 L 636.659 101.475 Q 630.641 101.475 626.033 103.826 L 626.033 103.826 L 626.033 103.826 Q 621.425 106.177 618.227 109.938 L 618.227 109.938 L 618.227 109.938 Q 615.03 113.7 613.243 118.59 L 613.243 118.59 L 613.243 118.59 Q 611.456 123.48 610.892 128.558 L 610.892 128.558 Z " fill="rgb(255,255,255)"/><path d=" M 905.581 178.012 L 905.581 144.91 L 918.026 144.91 L 918.026 186.48 L 918.026 186.48 Q 916.487 186.993 913.6 187.635 L 913.6 187.635 L 913.6 187.635 Q 910.713 188.276 906.928 188.918 L 906.928 188.918 L 906.928 188.918 Q 903.143 189.559 898.653 190.008 L 898.653 190.008 L 898.653 190.008 Q 894.162 190.457 889.543 190.457 L 889.543 190.457 L 889.543 190.457 Q 880.177 190.457 872.479 187.378 L 872.479 187.378 L 872.479 187.378 Q 864.781 184.299 859.264 178.397 L 859.264 178.397 L 859.264 178.397 Q 853.747 172.495 850.732 163.899 L 850.732 163.899 L 850.732 163.899 Q 847.717 155.303 847.717 144.14 L 847.717 144.14 L 847.717 144.14 Q 847.717 132.978 851.117 124.318 L 851.117 124.318 L 851.117 124.318 Q 854.517 115.657 860.29 109.755 L 860.29 109.755 L 860.29 109.755 Q 866.064 103.853 873.826 100.774 L 873.826 100.774 L 873.826 100.774 Q 881.588 97.695 890.441 97.695 L 890.441 97.695 L 890.441 97.695 Q 896.471 97.695 901.154 98.465 L 901.154 98.465 L 901.154 98.465 Q 905.837 99.234 909.173 100.261 L 909.173 100.261 L 909.173 100.261 Q 912.509 101.287 914.626 102.314 L 914.626 102.314 L 914.626 102.314 Q 916.743 103.34 917.513 103.853 L 917.513 103.853 L 913.536 114.246 L 913.536 114.246 Q 909.815 111.808 903.656 110.204 L 903.656 110.204 L 903.656 110.204 Q 897.498 108.601 891.083 108.601 L 891.083 108.601 L 891.083 108.601 Q 884.283 108.601 878.702 111.038 L 878.702 111.038 L 878.702 111.038 Q 873.12 113.476 869.207 118.095 L 869.207 118.095 L 869.207 118.095 Q 865.294 122.714 863.113 129.321 L 863.113 129.321 L 863.113 129.321 Q 860.932 135.929 860.932 144.14 L 860.932 144.14 L 860.932 144.14 Q 860.932 152.095 862.792 158.638 L 862.792 158.638 L 862.792 158.638 Q 864.652 165.182 868.437 169.865 L 868.437 169.865 L 868.437 169.865 Q 872.222 174.548 877.803 177.114 L 877.803 177.114 L 877.803 177.114 Q 883.385 179.68 890.954 179.68 L 890.954 179.68 L 890.954 179.68 Q 896.343 179.68 900.128 179.103 L 900.128 179.103 L 900.128 179.103 Q 903.913 178.525 905.581 178.012 L 905.581 178.012 Z  M 958.185 179.808 L 958.185 179.808 L 958.185 179.808 Q 977.687 179.808 977.687 166.465 L 977.687 166.465 L 977.687 166.465 Q 977.687 162.359 975.955 159.472 L 975.955 159.472 L 975.955 159.472 Q 974.223 156.586 971.272 154.469 L 971.272 154.469 L 971.272 154.469 Q 968.321 152.352 964.536 150.812 L 964.536 150.812 L 964.536 150.812 Q 960.751 149.272 956.517 147.733 L 956.517 147.733 L 956.517 147.733 Q 951.641 146.065 947.279 143.948 L 947.279 143.948 L 947.279 143.948 Q 942.917 141.831 939.709 138.944 L 939.709 138.944 L 939.709 138.944 Q 936.502 136.057 934.641 132.08 L 934.641 132.08 L 934.641 132.08 Q 932.781 128.102 932.781 122.457 L 932.781 122.457 L 932.781 122.457 Q 932.781 110.782 940.736 104.238 L 940.736 104.238 L 940.736 104.238 Q 948.69 97.695 962.675 97.695 L 962.675 97.695 L 962.675 97.695 Q 970.758 97.695 977.366 99.427 L 977.366 99.427 L 977.366 99.427 Q 983.974 101.159 987.053 103.212 L 987.053 103.212 L 983.075 113.348 L 983.075 113.348 Q 980.381 111.68 975.057 110.076 L 975.057 110.076 L 975.057 110.076 Q 969.732 108.472 962.675 108.472 L 962.675 108.472 L 962.675 108.472 Q 959.083 108.472 956.004 109.242 L 956.004 109.242 L 956.004 109.242 Q 952.924 110.012 950.615 111.551 L 950.615 111.551 L 950.615 111.551 Q 948.306 113.091 946.958 115.465 L 946.958 115.465 L 946.958 115.465 Q 945.611 117.838 945.611 121.046 L 945.611 121.046 L 945.611 121.046 Q 945.611 124.638 947.023 127.076 L 947.023 127.076 L 947.023 127.076 Q 948.434 129.514 951 131.374 L 951 131.374 L 951 131.374 Q 953.566 133.235 956.966 134.774 L 956.966 134.774 L 956.966 134.774 Q 960.366 136.314 964.472 137.853 L 964.472 137.853 L 964.472 137.853 Q 970.245 140.163 975.057 142.472 L 975.057 142.472 L 975.057 142.472 Q 979.868 144.782 983.396 147.989 L 983.396 147.989 L 983.396 147.989 Q 986.925 151.197 988.849 155.623 L 988.849 155.623 L 988.849 155.623 Q 990.774 160.05 990.774 166.337 L 990.774 166.337 L 990.774 166.337 Q 990.774 178.012 982.242 184.299 L 982.242 184.299 L 982.242 184.299 Q 973.709 190.586 958.185 190.586 L 958.185 190.586 L 958.185 190.586 Q 952.924 190.586 948.498 189.88 L 948.498 189.88 L 948.498 189.88 Q 944.072 189.174 940.607 188.212 L 940.607 188.212 L 940.607 188.212 Q 937.143 187.25 934.641 186.159 L 934.641 186.159 L 934.641 186.159 Q 932.139 185.069 930.728 184.299 L 930.728 184.299 L 934.449 174.035 L 934.449 174.035 Q 937.4 175.703 943.43 177.755 L 943.43 177.755 L 943.43 177.755 Q 949.46 179.808 958.185 179.808 Z " fill="rgb(255,255,255)"/><path d=" M 171.395 200.9 C 154.258 218.439 134.7 228 122.519 228 C 115.583 228.011 108.744 226.368 102.569 223.208 C 96.269 226.412 89.533 228 82.623 228 C 71.913 228 53.7 217.82 36.995 200.9 L 171.395 200.9 L 171.395 200.9 Z " fill="rgb(0,0,255)"/><path d=" M 171.395 200.9 C 179.498 192.666 187.054 182.631 193.043 170.994 C 192.825 170.866 192.609 170.737 192.398 170.601 L 192.398 170.601 L 14.013 170.601 C 20.518 182.122 28.564 192.371 36.995 200.9 L 171.395 200.9 L 171.395 200.9 Z " fill="rgb(153,0,255)"/><path d=" M 192.398 170.601 C 180.811 163.571 172.062 152.33 168.285 139.003 L 168.285 139.003 L 1.578 139.003 C 4.171 150.259 8.552 160.876 14.013 170.601 L 192.398 170.601 L 192.398 170.601 Z " fill="rgb(255,0,0)"/><path d=" M 168.285 139.003 C 166.921 134.274 166.199 129.276 166.199 124.11 C 166.199 117.408 167.414 110.987 169.633 105.055 L 169.633 105.055 L 0.056 105.055 C -0.689 108.748 -1.056 112.57 -1.056 116.475 C -1.056 124.206 -0.123 131.742 1.578 139.003 L 168.285 139.003 L 168.285 139.003 Z " fill="rgb(255,153,0)"/><path d=" M 169.633 105.055 C 173.94 93.572 182.021 83.926 192.365 77.638 C 191.691 76.806 190.995 75.991 190.296 75.179 L 190.296 75.179 L 14.893 75.179 C 7.417 83.476 2.156 93.728 0.056 105.055 L 169.633 105.055 L 169.633 105.055 Z " fill="rgb(255,255,0)"/><path d=" M 190.296 75.179 C 178.566 62.152 161.412 53.91 142.336 53.91 C 127.917 53.905 113.913 58.74 102.569 67.643 C 91.226 58.74 77.222 53.905 62.802 53.91 L 62.802 53.91 C 43.739 53.91 26.594 62.141 14.893 75.179 L 190.296 75.179 L 190.296 75.179 Z  M 103.495 56.778 C 102.569 37.959 121.08 19.757 141.441 22.225 C 138.356 39.81 125.399 54.31 103.495 56.778 L 103.495 56.778 Z " fill-rule="evenodd" fill="rgb(0,162,19)"/></g></svg>