<?xml version="1.0" encoding="UTF-8" standalone="no"?><!-- Generator: Gravit.io --><svg xmlns="http://www.w3.org/2000/svg" xmlns:xlink="http://www.w3.org/1999/xlink" style="isolation:isolate" viewBox="0 0 992 250" width="992pt" height="250pt"><defs><clipPath id="_clipPath_JzpQ46GwnLewuKM2sLI07OWvT1S6sDYI"><rect width="992" height="250"/></clipPath></defs><g clip-path="url(#_clipPath_JzpQ46GwnLewuKM2sLI07OWvT1S6sDYI)"><path d=" M 757.67 196.877 L 757.67 196.877 L 757.67 174.45 L 763.077 174.45 L 763.077 204.607 L 757.67 204.607 L 757.67 204.607 Q 753.884 200.949 747.506 194.634 L 747.506 194.634 L 747.506 194.634 Q 741.128 188.32 739.282 186.697 L 739.282 186.697 L 739.282 186.697 Q 735.815 183.612 733.413 182.387 L 733.413 182.387 L 733.413 182.387 Q 731.011 181.162 728.689 181.162 L 728.689 181.162 L 728.689 181.162 Q 724.904 181.162 722.518 183.818 L 722.518 183.818 L 722.518 183.818 Q 720.132 186.475 720.132 190.737 L 720.132 190.737 L 720.132 190.737 Q 720.132 193.759 721.182 197.116 L 721.182 197.116 L 721.182 197.116 Q 722.231 200.472 724.363 204.289 L 724.363 204.289 L 717.873 204.289 L 717.873 204.289 Q 716.315 200.408 715.519 197.036 L 715.519 197.036 L 715.519 197.036 Q 714.724 193.664 714.724 190.865 L 714.724 190.865 L 714.724 190.865 Q 714.724 183.484 718.414 179.094 L 718.414 179.094 L 718.414 179.094 Q 722.104 174.704 728.276 174.704 L 728.276 174.704 L 728.276 174.704 Q 731.202 174.704 733.827 175.802 L 733.827 175.802 L 733.827 175.802 Q 736.451 176.899 740.014 179.794 L 740.014 179.794 L 740.014 179.794 Q 740.937 180.589 745.343 184.852 L 745.343 184.852 L 745.343 184.852 Q 749.748 189.115 757.67 196.877 Z  M 736.769 146.424 L 736.769 146.424 L 736.769 146.424 Q 736.769 150.75 739.728 153.279 L 739.728 153.279 L 739.728 153.279 Q 742.686 155.808 747.84 155.808 L 747.84 155.808 L 747.84 155.808 Q 752.961 155.808 755.936 153.279 L 755.936 153.279 L 755.936 153.279 Q 758.91 150.75 758.91 146.424 L 758.91 146.424 L 758.91 146.424 Q 758.91 142.098 755.936 139.569 L 755.936 139.569 L 755.936 139.569 Q 752.961 137.04 747.84 137.04 L 747.84 137.04 L 747.84 137.04 Q 742.686 137.04 739.728 139.569 L 739.728 139.569 L 739.728 139.569 Q 736.769 142.098 736.769 146.424 Z  M 716.633 133.667 L 716.633 133.667 L 722.486 133.667 L 722.486 133.667 Q 721.341 136.085 720.736 138.551 L 720.736 138.551 L 720.736 138.551 Q 720.132 141.016 720.132 143.434 L 720.132 143.434 L 720.132 143.434 Q 720.132 149.796 724.426 153.152 L 724.426 153.152 L 724.426 153.152 Q 728.721 156.508 737.406 156.985 L 737.406 156.985 L 737.406 156.985 Q 734.638 155.108 733.159 152.277 L 733.159 152.277 L 733.159 152.277 Q 731.68 149.446 731.68 146.042 L 731.68 146.042 L 731.68 146.042 Q 731.68 138.885 736.022 134.733 L 736.022 134.733 L 736.022 134.733 Q 740.364 130.582 747.84 130.582 L 747.84 130.582 L 747.84 130.582 Q 755.156 130.582 759.578 134.908 L 759.578 134.908 L 759.578 134.908 Q 764 139.235 764 146.424 L 764 146.424 L 764 146.424 Q 764 154.663 757.685 159.021 L 757.685 159.021 L 757.685 159.021 Q 751.371 163.379 739.378 163.379 L 739.378 163.379 L 739.378 163.379 Q 728.117 163.379 721.42 158.035 L 721.42 158.035 L 721.42 158.035 Q 714.724 152.691 714.724 143.688 L 714.724 143.688 L 714.724 143.688 Q 714.724 141.27 715.201 138.805 L 715.201 138.805 L 715.201 138.805 Q 715.678 136.34 716.633 133.667 Z  M 719.814 105.769 L 719.814 105.769 L 719.814 105.769 Q 719.814 110.731 724.697 113.229 L 724.697 113.229 L 724.697 113.229 Q 729.58 115.726 739.378 115.726 L 739.378 115.726 L 739.378 115.726 Q 749.144 115.726 754.027 113.229 L 754.027 113.229 L 754.027 113.229 Q 758.91 110.731 758.91 105.769 L 758.91 105.769 L 758.91 105.769 Q 758.91 100.774 754.027 98.277 L 754.027 98.277 L 754.027 98.277 Q 749.144 95.78 739.378 95.78 L 739.378 95.78 L 739.378 95.78 Q 729.58 95.78 724.697 98.277 L 724.697 98.277 L 724.697 98.277 Q 719.814 100.774 719.814 105.769 Z  M 714.724 105.769 L 714.724 105.769 L 714.724 105.769 Q 714.724 97.784 721.039 93.569 L 721.039 93.569 L 721.039 93.569 Q 727.353 89.354 739.378 89.354 L 739.378 89.354 L 739.378 89.354 Q 751.371 89.354 757.685 93.569 L 757.685 93.569 L 757.685 93.569 Q 764 97.784 764 105.769 L 764 105.769 L 764 105.769 Q 764 113.753 757.685 117.969 L 757.685 117.969 L 757.685 117.969 Q 751.371 122.184 739.378 122.184 L 739.378 122.184 L 739.378 122.184 Q 727.353 122.184 721.039 117.969 L 721.039 117.969 L 721.039 117.969 Q 714.724 113.753 714.724 105.769 Z  M 719.814 64.318 L 719.814 64.318 L 719.814 64.318 Q 719.814 69.281 724.697 71.778 L 724.697 71.778 L 724.697 71.778 Q 729.58 74.275 739.378 74.275 L 739.378 74.275 L 739.378 74.275 Q 749.144 74.275 754.027 71.778 L 754.027 71.778 L 754.027 71.778 Q 758.91 69.281 758.91 64.318 L 758.91 64.318 L 758.91 64.318 Q 758.91 59.324 754.027 56.827 L 754.027 56.827 L 754.027 56.827 Q 749.144 54.33 739.378 54.33 L 739.378 54.33 L 739.378 54.33 Q 729.58 54.33 724.697 56.827 L 724.697 56.827 L 724.697 56.827 Q 719.814 59.324 719.814 64.318 Z  M 714.724 64.318 L 714.724 64.318 L 714.724 64.318 Q 714.724 56.334 721.039 52.119 L 721.039 52.119 L 721.039 52.119 Q 727.353 47.904 739.378 47.904 L 739.378 47.904 L 739.378 47.904 Q 751.371 47.904 757.685 52.119 L 757.685 52.119 L 757.685 52.119 Q 764 56.334 764 64.318 L 764 64.318 L 764 64.318 Q 764 72.303 757.685 76.518 L 757.685 76.518 L 757.685 76.518 Q 751.371 80.733 739.378 80.733 L 739.378 80.733 L 739.378 80.733 Q 727.353 80.733 721.039 76.518 L 721.039 76.518 L 721.039 76.518 Q 714.724 72.303 714.724 64.318 Z " fill="rgb(174,0,3)"/><path d=" M 327.796 203.646 L 318.16 171.039 L 267.976 171.039 L 258.435 203.646 L 228 203.646 L 279.711 45.393 L 306.234 45.393 L 358.231 203.646 L 327.796 203.646 Z  M 292.972 85.391 L 275.704 144.627 L 310.432 144.627 L 292.972 85.391 Z  M 442.356 45.393 L 442.356 71.805 L 399.804 71.805 L 399.804 203.646 L 371.182 203.646 L 371.182 71.805 L 329.203 71.805 L 329.203 45.393 L 442.356 45.393 Z  M 513.315 203.646 L 503.679 171.039 L 453.495 171.039 L 443.954 203.646 L 413.519 203.646 L 465.23 45.393 L 491.753 45.393 L 543.75 203.646 L 513.315 203.646 Z  M 478.492 85.391 L 461.223 144.627 L 495.951 144.627 L 478.492 85.391 Z  M 629.143 203.646 L 603.097 145.714 L 580.295 145.714 L 580.295 203.646 L 551.673 203.646 L 551.673 45.393 L 603.288 45.393 L 603.288 45.393 Q 627.903 45.393 641.26 57.892 L 641.26 57.892 L 641.26 57.892 Q 654.617 70.392 654.617 93.217 L 654.617 93.217 L 654.617 93.217 Q 654.617 109.412 648.463 120.226 L 648.463 120.226 L 648.463 120.226 Q 642.309 131.041 629.811 137.454 L 629.811 137.454 L 659.864 202.125 L 659.864 203.646 L 629.143 203.646 Z  M 580.295 71.805 L 580.295 119.302 L 603.383 119.302 L 603.383 119.302 Q 614.164 119.302 620.079 113.053 L 620.079 113.053 L 620.079 113.053 Q 625.995 106.803 625.995 95.825 L 625.995 95.825 L 625.995 95.825 Q 625.995 84.63 620.413 78.217 L 620.413 78.217 L 620.413 78.217 Q 614.832 71.805 603.288 71.805 L 603.288 71.805 L 580.295 71.805 Z  M 695.409 45.393 L 695.409 203.646 L 666.787 203.646 L 666.787 45.393 L 695.409 45.393 Z " fill="rgb(174,0,3)"/></g></svg>