<?xml version="1.0" encoding="UTF-8" standalone="no"?><!-- Generator: Gravit.io --><svg xmlns="http://www.w3.org/2000/svg" xmlns:xlink="http://www.w3.org/1999/xlink" style="isolation:isolate" viewBox="0 0 992 250" width="992pt" height="250pt"><defs><clipPath id="_clipPath_8esLVnB3RiC7g2Qp8SFOdzyGcCmtmrWL"><rect width="992" height="250"/></clipPath></defs><g clip-path="url(#_clipPath_8esLVnB3RiC7g2Qp8SFOdzyGcCmtmrWL)"><path d=" M 267.926 205.207 L 258.159 172.155 L 207.289 172.155 L 197.618 205.207 L 166.768 205.207 L 219.185 44.793 L 246.07 44.793 L 298.777 205.207 L 267.926 205.207 Z  M 232.627 85.337 L 215.123 145.382 L 250.325 145.382 L 232.627 85.337 Z  M 384.05 44.793 L 384.05 71.566 L 340.918 71.566 L 340.918 205.207 L 311.905 205.207 L 311.905 71.566 L 269.353 71.566 L 269.353 44.793 L 384.05 44.793 Z  M 455.978 205.207 L 446.21 172.155 L 395.341 172.155 L 385.67 205.207 L 354.82 205.207 L 407.236 44.793 L 434.122 44.793 L 486.828 205.207 L 455.978 205.207 Z  M 420.679 85.337 L 403.175 145.382 L 438.377 145.382 L 420.679 85.337 Z  M 573.387 205.207 L 546.985 146.484 L 523.872 146.484 L 523.872 205.207 L 494.859 205.207 L 494.859 44.793 L 547.179 44.793 L 547.179 44.793 Q 572.13 44.793 585.669 57.463 L 585.669 57.463 L 585.669 57.463 Q 599.208 70.133 599.208 93.27 L 599.208 93.27 L 599.208 93.27 Q 599.208 109.686 592.971 120.648 L 592.971 120.648 L 592.971 120.648 Q 586.733 131.61 574.064 138.111 L 574.064 138.111 L 604.527 203.664 L 604.527 205.207 L 573.387 205.207 Z  M 523.872 71.566 L 523.872 119.712 L 547.275 119.712 L 547.275 119.712 Q 558.204 119.712 564.2 113.377 L 564.2 113.377 L 564.2 113.377 Q 570.196 107.042 570.196 95.914 L 570.196 95.914 L 570.196 95.914 Q 570.196 84.566 564.538 78.066 L 564.538 78.066 L 564.538 78.066 Q 558.881 71.566 547.179 71.566 L 547.179 71.566 L 523.872 71.566 Z  M 640.557 44.793 L 640.557 205.207 L 611.544 205.207 L 611.544 44.793 L 640.557 44.793 Z " fill="rgb(174,0,3)"/><path d=" M 704.822 181.24 L 704.822 181.24 L 704.822 181.24 Q 704.822 185.642 707.227 188.006 L 707.227 188.006 L 707.227 188.006 Q 709.632 190.37 714.115 190.37 L 714.115 190.37 L 714.115 190.37 Q 718.599 190.37 720.983 188.006 L 720.983 188.006 L 720.983 188.006 Q 723.368 185.642 723.368 181.24 L 723.368 181.24 L 723.368 181.24 Q 723.368 176.878 720.983 174.555 L 720.983 174.555 L 720.983 174.555 Q 718.599 172.232 714.115 172.232 L 714.115 172.232 L 714.115 172.232 Q 709.591 172.232 707.206 174.555 L 707.206 174.555 L 707.206 174.555 Q 704.822 176.878 704.822 181.24 Z  M 699.645 192.693 L 699.645 192.693 L 699.645 192.693 Q 697.974 198.237 694.509 201.049 L 694.509 201.049 L 694.509 201.049 Q 691.045 203.862 685.868 203.862 L 685.868 203.862 L 685.868 203.862 Q 678.165 203.862 674.129 198.114 L 674.129 198.114 L 674.129 198.114 Q 670.094 192.367 670.094 181.24 L 670.094 181.24 L 670.094 181.24 Q 670.094 170.194 674.109 164.446 L 674.109 164.446 L 674.109 164.446 Q 678.124 158.699 685.868 158.699 L 685.868 158.699 L 685.868 158.699 Q 691.045 158.699 694.509 161.532 L 694.509 161.532 L 694.509 161.532 Q 697.974 164.365 699.645 169.908 L 699.645 169.908 L 699.645 169.908 Q 701.357 163.713 705.209 160.554 L 705.209 160.554 L 705.209 160.554 Q 709.061 157.395 714.93 157.395 L 714.93 157.395 L 714.93 157.395 Q 723.979 157.395 728.606 163.407 L 728.606 163.407 L 728.606 163.407 Q 733.232 169.419 733.232 181.24 L 733.232 181.24 L 733.232 181.24 Q 733.232 193.101 728.606 199.154 L 728.606 199.154 L 728.606 199.154 Q 723.979 205.207 714.93 205.207 L 714.93 205.207 L 714.93 205.207 Q 709.061 205.207 705.209 202.048 L 705.209 202.048 L 705.209 202.048 Q 701.357 198.889 699.645 192.693 Z  M 687.458 189.025 L 687.458 189.025 L 687.458 189.025 Q 691.086 189.025 693.042 187.007 L 693.042 187.007 L 693.042 187.007 Q 694.999 184.99 694.999 181.24 L 694.999 181.24 L 694.999 181.24 Q 694.999 177.571 693.042 175.574 L 693.042 175.574 L 693.042 175.574 Q 691.086 173.577 687.458 173.577 L 687.458 173.577 L 687.458 173.577 Q 683.83 173.577 681.894 175.574 L 681.894 175.574 L 681.894 175.574 Q 679.958 177.571 679.958 181.24 L 679.958 181.24 L 679.958 181.24 Q 679.958 184.99 681.915 187.007 L 681.915 187.007 L 681.915 187.007 Q 683.871 189.025 687.458 189.025 Z  M 701.561 116.196 L 701.561 116.196 L 701.561 116.196 Q 690.148 116.196 685.481 118.336 L 685.481 118.336 L 685.481 118.336 Q 680.814 120.476 680.814 125.53 L 680.814 125.53 L 680.814 125.53 Q 680.814 130.584 685.481 132.744 L 685.481 132.744 L 685.481 132.744 Q 690.148 134.905 701.561 134.905 L 701.561 134.905 L 701.561 134.905 Q 713.096 134.905 717.824 132.744 L 717.824 132.744 L 717.824 132.744 Q 722.553 130.584 722.553 125.53 L 722.553 125.53 L 722.553 125.53 Q 722.553 120.516 717.824 118.356 L 717.824 118.356 L 717.824 118.356 Q 713.096 116.196 701.561 116.196 Z  M 701.683 100.503 L 701.683 100.503 L 701.683 100.503 Q 716.805 100.503 725.019 107.025 L 725.019 107.025 L 725.019 107.025 Q 733.232 113.546 733.232 125.53 L 733.232 125.53 L 733.232 125.53 Q 733.232 137.554 725.019 144.076 L 725.019 144.076 L 725.019 144.076 Q 716.805 150.598 701.683 150.598 L 701.683 150.598 L 701.683 150.598 Q 686.52 150.598 678.307 144.076 L 678.307 144.076 L 678.307 144.076 Q 670.094 137.554 670.094 125.53 L 670.094 125.53 L 670.094 125.53 Q 670.094 113.546 678.307 107.025 L 678.307 107.025 L 678.307 107.025 Q 686.52 100.503 701.683 100.503 Z  M 701.561 60.486 L 701.561 60.486 L 701.561 60.486 Q 690.148 60.486 685.481 62.626 L 685.481 62.626 L 685.481 62.626 Q 680.814 64.766 680.814 69.82 L 680.814 69.82 L 680.814 69.82 Q 680.814 74.874 685.481 77.035 L 685.481 77.035 L 685.481 77.035 Q 690.148 79.195 701.561 79.195 L 701.561 79.195 L 701.561 79.195 Q 713.096 79.195 717.824 77.035 L 717.824 77.035 L 717.824 77.035 Q 722.553 74.874 722.553 69.82 L 722.553 69.82 L 722.553 69.82 Q 722.553 64.807 717.824 62.646 L 717.824 62.646 L 717.824 62.646 Q 713.096 60.486 701.561 60.486 Z  M 701.683 44.793 L 701.683 44.793 L 701.683 44.793 Q 716.805 44.793 725.019 51.315 L 725.019 51.315 L 725.019 51.315 Q 733.232 57.837 733.232 69.82 L 733.232 69.82 L 733.232 69.82 Q 733.232 81.844 725.019 88.366 L 725.019 88.366 L 725.019 88.366 Q 716.805 94.888 701.683 94.888 L 701.683 94.888 L 701.683 94.888 Q 686.52 94.888 678.307 88.366 L 678.307 88.366 L 678.307 88.366 Q 670.094 81.844 670.094 69.82 L 670.094 69.82 L 670.094 69.82 Q 670.094 57.837 678.307 51.315 L 678.307 51.315 L 678.307 51.315 Q 686.52 44.793 701.683 44.793 Z " fill="rgb(174,0,3)"/></g></svg>