<?xml version="1.0" encoding="UTF-8" standalone="no"?><!-- Generator: Gravit.io --><svg xmlns="http://www.w3.org/2000/svg" xmlns:xlink="http://www.w3.org/1999/xlink" style="isolation:isolate" viewBox="0 0 992 250" width="992pt" height="250pt"><defs><clipPath id="_clipPath_VpR9yXYhstvTGr2V2tgw3JTp7BStyUBq"><rect width="992" height="250"/></clipPath></defs><g clip-path="url(#_clipPath_VpR9yXYhstvTGr2V2tgw3JTp7BStyUBq)"><path d=" M 744.202 203.826 L 720.11 203.826 L 720.11 178.353 L 725.571 178.353 L 725.571 197.883 L 737.328 197.883 L 737.328 197.883 Q 736.846 196.47 736.605 195.056 L 736.605 195.056 L 736.605 195.056 Q 736.364 193.643 736.364 192.23 L 736.364 192.23 L 736.364 192.23 Q 736.364 184.199 740.765 179.509 L 740.765 179.509 L 740.765 179.509 Q 745.165 174.819 752.682 174.819 L 752.682 174.819 L 752.682 174.819 Q 760.423 174.819 764.712 179.638 L 764.712 179.638 L 764.712 179.638 Q 769 184.456 769 193.225 L 769 193.225 L 769 193.225 Q 769 196.245 768.486 199.377 L 768.486 199.377 L 768.486 199.377 Q 767.972 202.509 766.944 205.849 L 766.944 205.849 L 760.423 205.849 L 760.423 205.849 Q 761.997 202.958 762.768 199.875 L 762.768 199.875 L 762.768 199.875 Q 763.539 196.791 763.539 193.354 L 763.539 193.354 L 763.539 193.354 Q 763.539 187.797 760.616 184.552 L 760.616 184.552 L 760.616 184.552 Q 757.693 181.308 752.682 181.308 L 752.682 181.308 L 752.682 181.308 Q 747.671 181.308 744.748 184.552 L 744.748 184.552 L 744.748 184.552 Q 741.825 187.797 741.825 193.354 L 741.825 193.354 L 741.825 193.354 Q 741.825 195.956 742.403 198.542 L 742.403 198.542 L 742.403 198.542 Q 742.981 201.127 744.202 203.826 L 744.202 203.826 Z  M 762.608 156.445 L 762.608 156.445 L 762.608 133.799 L 768.068 133.799 L 768.068 164.251 L 762.608 164.251 L 762.608 164.251 Q 758.785 160.557 752.345 154.181 L 752.345 154.181 L 752.345 154.181 Q 745.904 147.805 744.041 146.166 L 744.041 146.166 L 744.041 146.166 Q 740.54 143.051 738.115 141.814 L 738.115 141.814 L 738.115 141.814 Q 735.689 140.577 733.344 140.577 L 733.344 140.577 L 733.344 140.577 Q 729.522 140.577 727.113 143.259 L 727.113 143.259 L 727.113 143.259 Q 724.704 145.942 724.704 150.246 L 724.704 150.246 L 724.704 150.246 Q 724.704 153.297 725.764 156.686 L 725.764 156.686 L 725.764 156.686 Q 726.824 160.075 728.976 163.93 L 728.976 163.93 L 722.423 163.93 L 722.423 163.93 Q 720.849 160.011 720.046 156.606 L 720.046 156.606 L 720.046 156.606 Q 719.243 153.201 719.243 150.374 L 719.243 150.374 L 719.243 150.374 Q 719.243 142.922 722.969 138.489 L 722.969 138.489 L 722.969 138.489 Q 726.695 134.056 732.927 134.056 L 732.927 134.056 L 732.927 134.056 Q 735.882 134.056 738.532 135.165 L 738.532 135.165 L 738.532 135.165 Q 741.182 136.273 744.78 139.196 L 744.78 139.196 L 744.78 139.196 Q 745.711 139.999 750.16 144.303 L 750.16 144.303 L 750.16 144.303 Q 754.609 148.608 762.608 156.445 Z  M 724.382 106.303 L 724.382 106.303 L 724.382 106.303 Q 724.382 111.314 729.313 113.835 L 729.313 113.835 L 729.313 113.835 Q 734.244 116.357 744.137 116.357 L 744.137 116.357 L 744.137 116.357 Q 753.999 116.357 758.93 113.835 L 758.93 113.835 L 758.93 113.835 Q 763.86 111.314 763.86 106.303 L 763.86 106.303 L 763.86 106.303 Q 763.86 101.26 758.93 98.738 L 758.93 98.738 L 758.93 98.738 Q 753.999 96.216 744.137 96.216 L 744.137 96.216 L 744.137 96.216 Q 734.244 96.216 729.313 98.738 L 729.313 98.738 L 729.313 98.738 Q 724.382 101.26 724.382 106.303 Z  M 719.243 106.303 L 719.243 106.303 L 719.243 106.303 Q 719.243 98.24 725.619 93.984 L 725.619 93.984 L 725.619 93.984 Q 731.995 89.728 744.137 89.728 L 744.137 89.728 L 744.137 89.728 Q 756.247 89.728 762.624 93.984 L 762.624 93.984 L 762.624 93.984 Q 769 98.24 769 106.303 L 769 106.303 L 769 106.303 Q 769 114.365 762.624 118.622 L 762.624 118.622 L 762.624 118.622 Q 756.247 122.878 744.137 122.878 L 744.137 122.878 L 744.137 122.878 Q 731.995 122.878 725.619 118.622 L 725.619 118.622 L 725.619 118.622 Q 719.243 114.365 719.243 106.303 Z  M 724.382 64.448 L 724.382 64.448 L 724.382 64.448 Q 724.382 69.459 729.313 71.98 L 729.313 71.98 L 729.313 71.98 Q 734.244 74.502 744.137 74.502 L 744.137 74.502 L 744.137 74.502 Q 753.999 74.502 758.93 71.98 L 758.93 71.98 L 758.93 71.98 Q 763.86 69.459 763.86 64.448 L 763.86 64.448 L 763.86 64.448 Q 763.86 59.404 758.93 56.883 L 758.93 56.883 L 758.93 56.883 Q 753.999 54.361 744.137 54.361 L 744.137 54.361 L 744.137 54.361 Q 734.244 54.361 729.313 56.883 L 729.313 56.883 L 729.313 56.883 Q 724.382 59.404 724.382 64.448 Z  M 719.243 64.448 L 719.243 64.448 L 719.243 64.448 Q 719.243 56.385 725.619 52.129 L 725.619 52.129 L 725.619 52.129 Q 731.995 47.872 744.137 47.872 L 744.137 47.872 L 744.137 47.872 Q 756.247 47.872 762.624 52.129 L 762.624 52.129 L 762.624 52.129 Q 769 56.385 769 64.448 L 769 64.448 L 769 64.448 Q 769 72.51 762.624 76.766 L 762.624 76.766 L 762.624 76.766 Q 756.247 81.023 744.137 81.023 L 744.137 81.023 L 744.137 81.023 Q 731.995 81.023 725.619 76.766 L 725.619 76.766 L 725.619 76.766 Q 719.243 72.51 719.243 64.448 Z " fill="rgb(174,0,3)"/><path d=" M 326.484 204.479 L 316.754 171.553 L 266.079 171.553 L 256.445 204.479 L 225.713 204.479 L 277.929 44.68 L 304.711 44.68 L 357.216 204.479 L 326.484 204.479 Z  M 291.32 85.069 L 273.883 144.884 L 308.95 144.884 L 291.32 85.069 Z  M 442.163 44.68 L 442.163 71.35 L 399.196 71.35 L 399.196 204.479 L 370.294 204.479 L 370.294 71.35 L 327.905 71.35 L 327.905 44.68 L 442.163 44.68 Z  M 513.815 204.479 L 504.085 171.553 L 453.411 171.553 L 443.777 204.479 L 413.045 204.479 L 465.26 44.68 L 492.043 44.68 L 544.547 204.479 L 513.815 204.479 Z  M 478.651 85.069 L 461.214 144.884 L 496.281 144.884 L 478.651 85.069 Z  M 630.774 204.479 L 604.474 145.981 L 581.449 145.981 L 581.449 204.479 L 552.547 204.479 L 552.547 44.68 L 604.666 44.68 L 604.666 44.68 Q 629.522 44.68 643.009 57.301 L 643.009 57.301 L 643.009 57.301 Q 656.497 69.923 656.497 92.971 L 656.497 92.971 L 656.497 92.971 Q 656.497 109.324 650.283 120.244 L 650.283 120.244 L 650.283 120.244 Q 644.069 131.165 631.449 137.64 L 631.449 137.64 L 661.795 202.942 L 661.795 204.479 L 630.774 204.479 Z  M 581.449 71.35 L 581.449 119.311 L 604.763 119.311 L 604.763 119.311 Q 615.649 119.311 621.622 113.001 L 621.622 113.001 L 621.622 113.001 Q 627.595 106.69 627.595 95.605 L 627.595 95.605 L 627.595 95.605 Q 627.595 84.3 621.959 77.825 L 621.959 77.825 L 621.959 77.825 Q 616.323 71.35 604.666 71.35 L 604.666 71.35 L 581.449 71.35 Z  M 697.687 44.68 L 697.687 204.479 L 668.785 204.479 L 668.785 44.68 L 697.687 44.68 Z " fill="rgb(174,0,3)"/></g></svg>