<?xml version="1.0" encoding="UTF-8" standalone="no"?><!-- Generator: Gravit.io --><svg xmlns="http://www.w3.org/2000/svg" xmlns:xlink="http://www.w3.org/1999/xlink" style="isolation:isolate" viewBox="0 0 992 250" width="992pt" height="250pt"><defs><clipPath id="_clipPath_tOycb71pD8EH10x4KPk4nV9vmECRj3bg"><rect width="992" height="250"/></clipPath></defs><g clip-path="url(#_clipPath_tOycb71pD8EH10x4KPk4nV9vmECRj3bg)"><path d=" M 614.061 76.818 L 614.061 47.463 L 688.162 47.463 L 688.162 69.972 L 649.827 202.33 L 625.127 202.33 L 661.42 76.818 L 614.061 76.818 Z  M 713.853 133.039 L 713.853 133.039 L 713.853 133.039 Q 706.739 133.039 702.919 139.159 L 702.919 139.159 L 702.919 139.159 Q 699.098 145.279 699.098 156.689 L 699.098 156.689 L 699.098 156.689 Q 699.098 168.099 702.919 174.167 L 702.919 174.167 L 702.919 174.167 Q 706.739 180.236 713.853 180.236 L 713.853 180.236 L 713.853 180.236 Q 720.901 180.236 724.655 174.167 L 724.655 174.167 L 724.655 174.167 Q 728.41 168.099 728.41 156.689 L 728.41 156.689 L 728.41 156.689 Q 728.41 145.175 724.655 139.107 L 724.655 139.107 L 724.655 139.107 Q 720.901 133.039 713.853 133.039 Z  M 695.344 119.865 L 695.344 119.865 L 695.344 119.865 Q 686.386 115.613 681.841 106.796 L 681.841 106.796 L 681.841 106.796 Q 677.296 97.979 677.296 84.805 L 677.296 84.805 L 677.296 84.805 Q 677.296 65.2 686.584 54.931 L 686.584 54.931 L 686.584 54.931 Q 695.871 44.662 713.853 44.662 L 713.853 44.662 L 713.853 44.662 Q 731.703 44.662 740.99 54.879 L 740.99 54.879 L 740.99 54.879 Q 750.278 65.097 750.278 84.805 L 750.278 84.805 L 750.278 84.805 Q 750.278 97.979 745.7 106.796 L 745.7 106.796 L 745.7 106.796 Q 741.122 115.613 732.164 119.865 L 732.164 119.865 L 732.164 119.865 Q 742.176 124.222 747.281 134.024 L 747.281 134.024 L 747.281 134.024 Q 752.386 143.827 752.386 158.764 L 752.386 158.764 L 752.386 158.764 Q 752.386 181.791 742.67 193.565 L 742.67 193.565 L 742.67 193.565 Q 732.955 205.338 713.853 205.338 L 713.853 205.338 L 713.853 205.338 Q 694.685 205.338 684.904 193.565 L 684.904 193.565 L 684.904 193.565 Q 675.123 181.791 675.123 158.764 L 675.123 158.764 L 675.123 158.764 Q 675.123 143.827 680.227 134.024 L 680.227 134.024 L 680.227 134.024 Q 685.332 124.222 695.344 119.865 Z  M 701.272 88.851 L 701.272 88.851 L 701.272 88.851 Q 701.272 98.082 704.533 103.061 L 704.533 103.061 L 704.533 103.061 Q 707.793 108.04 713.853 108.04 L 713.853 108.04 L 713.853 108.04 Q 719.781 108.04 723.009 103.061 L 723.009 103.061 L 723.009 103.061 Q 726.236 98.082 726.236 88.851 L 726.236 88.851 L 726.236 88.851 Q 726.236 79.619 723.009 74.692 L 723.009 74.692 L 723.009 74.692 Q 719.781 69.764 713.853 69.764 L 713.853 69.764 L 713.853 69.764 Q 707.793 69.764 704.533 74.743 L 704.533 74.743 L 704.533 74.743 Q 701.272 79.722 701.272 88.851 Z  M 790.789 124.741 L 790.789 124.741 L 790.789 124.741 Q 790.789 95.697 787.331 83.82 L 787.331 83.82 L 787.331 83.82 Q 783.873 71.943 775.705 71.943 L 775.705 71.943 L 775.705 71.943 Q 767.537 71.943 764.046 83.82 L 764.046 83.82 L 764.046 83.82 Q 760.555 95.697 760.555 124.741 L 760.555 124.741 L 760.555 124.741 Q 760.555 154.096 764.046 166.128 L 764.046 166.128 L 764.046 166.128 Q 767.537 178.161 775.705 178.161 L 775.705 178.161 L 775.705 178.161 Q 783.807 178.161 787.298 166.128 L 787.298 166.128 L 787.298 166.128 Q 790.789 154.096 790.789 124.741 Z  M 816.148 125.052 L 816.148 125.052 L 816.148 125.052 Q 816.148 163.535 805.609 184.437 L 805.609 184.437 L 805.609 184.437 Q 795.07 205.338 775.705 205.338 L 775.705 205.338 L 775.705 205.338 Q 756.274 205.338 745.735 184.437 L 745.735 184.437 L 745.735 184.437 Q 735.196 163.535 735.196 125.052 L 735.196 125.052 L 735.196 125.052 Q 735.196 86.465 745.735 65.563 L 745.735 65.563 L 745.735 65.563 Q 756.274 44.662 775.705 44.662 L 775.705 44.662 L 775.705 44.662 Q 795.07 44.662 805.609 65.563 L 805.609 65.563 L 805.609 65.563 Q 816.148 86.465 816.148 125.052 Z  M 852.641 124.741 L 852.641 124.741 L 852.641 124.741 Q 852.641 95.697 849.183 83.82 L 849.183 83.82 L 849.183 83.82 Q 845.725 71.943 837.557 71.943 L 837.557 71.943 L 837.557 71.943 Q 829.39 71.943 825.899 83.82 L 825.899 83.82 L 825.899 83.82 Q 822.408 95.697 822.408 124.741 L 822.408 124.741 L 822.408 124.741 Q 822.408 154.096 825.899 166.128 L 825.899 166.128 L 825.899 166.128 Q 829.39 178.161 837.557 178.161 L 837.557 178.161 L 837.557 178.161 Q 845.659 178.161 849.15 166.128 L 849.15 166.128 L 849.15 166.128 Q 852.641 154.096 852.641 124.741 Z  M 878 125.052 L 878 125.052 L 878 125.052 Q 878 163.535 867.461 184.437 L 867.461 184.437 L 867.461 184.437 Q 856.922 205.338 837.557 205.338 L 837.557 205.338 L 837.557 205.338 Q 818.126 205.338 807.587 184.437 L 807.587 184.437 L 807.587 184.437 Q 797.048 163.535 797.048 125.052 L 797.048 125.052 L 797.048 125.052 Q 797.048 86.465 807.587 65.563 L 807.587 65.563 L 807.587 65.563 Q 818.126 44.662 837.557 44.662 L 837.557 44.662 L 837.557 44.662 Q 856.922 44.662 867.461 65.563 L 867.461 65.563 L 867.461 65.563 Q 878 86.465 878 125.052 Z " fill="rgb(174,0,3)"/><path d=" M 195.597 204.241 L 185.947 171.587 L 135.69 171.587 L 126.135 204.241 L 95.657 204.241 L 147.442 45.759 L 174.003 45.759 L 226.076 204.241 L 195.597 204.241 Z  M 160.723 85.815 L 143.429 145.137 L 178.207 145.137 L 160.723 85.815 Z  M 310.322 45.759 L 310.322 72.209 L 267.709 72.209 L 267.709 204.241 L 239.046 204.241 L 239.046 72.209 L 197.006 72.209 L 197.006 45.759 L 310.322 45.759 Z  M 381.384 204.241 L 371.734 171.587 L 321.477 171.587 L 311.923 204.241 L 281.444 204.241 L 333.23 45.759 L 359.791 45.759 L 411.863 204.241 L 381.384 204.241 Z  M 346.51 85.815 L 329.217 145.137 L 363.995 145.137 L 346.51 85.815 Z  M 497.38 204.241 L 471.296 146.225 L 448.461 146.225 L 448.461 204.241 L 419.797 204.241 L 419.797 45.759 L 471.487 45.759 L 471.487 45.759 Q 496.138 45.759 509.514 58.276 L 509.514 58.276 L 509.514 58.276 Q 522.89 70.794 522.89 93.652 L 522.89 93.652 L 522.89 93.652 Q 522.89 109.87 516.727 120.701 L 516.727 120.701 L 516.727 120.701 Q 510.565 131.531 498.048 137.953 L 498.048 137.953 L 528.145 202.717 L 528.145 204.241 L 497.38 204.241 Z  M 448.461 72.209 L 448.461 119.775 L 471.582 119.775 L 471.582 119.775 Q 482.379 119.775 488.303 113.517 L 488.303 113.517 L 488.303 113.517 Q 494.227 107.258 494.227 96.264 L 494.227 96.264 L 494.227 96.264 Q 494.227 85.053 488.637 78.631 L 488.637 78.631 L 488.637 78.631 Q 483.048 72.209 471.487 72.209 L 471.487 72.209 L 448.461 72.209 Z  M 563.741 45.759 L 563.741 204.241 L 535.077 204.241 L 535.077 45.759 L 563.741 45.759 Z " fill="rgb(174,0,3)"/></g></svg>