<?xml version="1.0" encoding="UTF-8" standalone="no"?><!-- Generator: Gravit.io --><svg xmlns="http://www.w3.org/2000/svg" xmlns:xlink="http://www.w3.org/1999/xlink" style="isolation:isolate" viewBox="0 0 992 250" width="992pt" height="250pt"><defs><clipPath id="_clipPath_yY07655qWRoMcpzYCo9bCdfkjBNwzw85"><rect width="992" height="250"/></clipPath></defs><g clip-path="url(#_clipPath_yY07655qWRoMcpzYCo9bCdfkjBNwzw85)"><path d=" M 744.921 56.255 L 744.921 56.255 L 744.921 88.166 L 744.921 88.166 Q 733.337 82.611 722.318 79.784 L 722.318 79.784 L 722.318 79.784 Q 711.299 76.956 701.505 76.956 L 701.505 76.956 L 701.505 76.956 Q 688.509 76.956 682.293 80.794 L 682.293 80.794 L 682.293 80.794 Q 676.077 84.631 676.077 92.71 L 676.077 92.71 L 676.077 92.71 Q 676.077 98.769 680.268 102.152 L 680.268 102.152 L 680.268 102.152 Q 684.459 105.535 695.478 107.959 L 695.478 107.959 L 710.923 111.291 L 710.923 111.291 Q 734.373 116.34 744.262 126.641 L 744.262 126.641 L 744.262 126.641 Q 754.15 136.941 754.15 155.926 L 754.15 155.926 L 754.15 155.926 Q 754.15 180.87 740.353 193.038 L 740.353 193.038 L 740.353 193.038 Q 726.556 205.207 698.209 205.207 L 698.209 205.207 L 698.209 205.207 Q 684.836 205.207 671.368 202.48 L 671.368 202.48 L 671.368 202.48 Q 657.901 199.754 644.434 194.401 L 644.434 194.401 L 644.434 161.581 L 644.434 161.581 Q 657.901 169.256 670.474 173.144 L 670.474 173.144 L 670.474 173.144 Q 683.046 177.032 694.724 177.032 L 694.724 177.032 L 694.724 177.032 Q 706.591 177.032 712.9 172.791 L 712.9 172.791 L 712.9 172.791 Q 719.21 168.549 719.21 160.673 L 719.21 160.673 L 719.21 160.673 Q 719.21 153.604 714.925 149.766 L 714.925 149.766 L 714.925 149.766 Q 710.64 145.929 697.832 142.899 L 697.832 142.899 L 683.8 139.567 L 683.8 139.567 Q 662.704 134.72 652.957 124.116 L 652.957 124.116 L 652.957 124.116 Q 643.209 113.513 643.209 95.538 L 643.209 95.538 L 643.209 95.538 Q 643.209 73.018 656.771 60.9 L 656.771 60.9 L 656.771 60.9 Q 670.332 48.782 695.76 48.782 L 695.76 48.782 L 695.76 48.782 Q 707.344 48.782 719.587 50.65 L 719.587 50.65 L 719.587 50.65 Q 731.83 52.518 744.921 56.255 Z  M 764.932 80.895 L 764.932 51.508 L 894.52 51.508 L 894.52 80.895 L 847.902 80.895 L 847.902 202.278 L 811.644 202.278 L 811.644 80.895 L 764.932 80.895 Z " fill="rgb(0,132,203)"/><path d=" M 198.638 205.207 L 188.87 172.155 L 138.001 172.155 L 128.33 205.207 L 97.48 205.207 L 149.896 44.793 L 176.782 44.793 L 229.488 205.207 L 198.638 205.207 Z  M 163.339 85.337 L 145.835 145.382 L 181.037 145.382 L 163.339 85.337 Z  M 314.762 44.793 L 314.762 71.566 L 271.629 71.566 L 271.629 205.207 L 242.617 205.207 L 242.617 71.566 L 200.064 71.566 L 200.064 44.793 L 314.762 44.793 Z  M 386.69 205.207 L 376.922 172.155 L 326.053 172.155 L 316.382 205.207 L 285.532 205.207 L 337.948 44.793 L 364.833 44.793 L 417.54 205.207 L 386.69 205.207 Z  M 351.391 85.337 L 333.886 145.382 L 369.089 145.382 L 351.391 85.337 Z  M 504.099 205.207 L 477.697 146.484 L 454.583 146.484 L 454.583 205.207 L 425.571 205.207 L 425.571 44.793 L 477.89 44.793 L 477.89 44.793 Q 502.841 44.793 516.381 57.463 L 516.381 57.463 L 516.381 57.463 Q 529.92 70.133 529.92 93.27 L 529.92 93.27 L 529.92 93.27 Q 529.92 109.686 523.682 120.648 L 523.682 120.648 L 523.682 120.648 Q 517.445 131.61 504.776 138.111 L 504.776 138.111 L 535.239 203.664 L 535.239 205.207 L 504.099 205.207 Z  M 454.583 71.566 L 454.583 119.712 L 477.987 119.712 L 477.987 119.712 Q 488.915 119.712 494.911 113.377 L 494.911 113.377 L 494.911 113.377 Q 500.907 107.042 500.907 95.914 L 500.907 95.914 L 500.907 95.914 Q 500.907 84.566 495.25 78.066 L 495.25 78.066 L 495.25 78.066 Q 489.592 71.566 477.89 71.566 L 477.89 71.566 L 454.583 71.566 Z  M 571.269 44.793 L 571.269 205.207 L 542.256 205.207 L 542.256 44.793 L 571.269 44.793 Z " fill="rgb(0,132,203)"/></g></svg>