<?xml version="1.0" encoding="UTF-8" standalone="no"?><!-- Generator: Gravit.io --><svg xmlns="http://www.w3.org/2000/svg" xmlns:xlink="http://www.w3.org/1999/xlink" style="isolation:isolate" viewBox="0 0 992 250" width="992pt" height="250pt"><defs><clipPath id="_clipPath_x1R5A6zfk4Vlz3D5e16Y1Avo7EIsB8I1"><rect width="992" height="250"/></clipPath></defs><g clip-path="url(#_clipPath_x1R5A6zfk4Vlz3D5e16Y1Avo7EIsB8I1)"><path d=" M 105 18.5 L 57 18.5 L 0 249 L 48 249 L 105 18.5 Z " fill="rgb(162,109,31)"/><path d=" M 192 53 L 144 53 L 105 218 L 153 218 L 192 53 Z " fill="rgb(162,109,31)"/><path d=" M 250 76 L 202 76 L 176 184 L 224 184 L 250 76 Z " fill="rgb(162,109,31)"/><path d=" M 57 18 L 105 18 L 153 218 L 105 218 L 57 18 Z " fill="rgb(86,158,105)"/><path d=" M 144 53 L 192 53 L 224 184 L 176 184 L 144 53 Z " fill="rgb(86,158,105)"/><path d=" M 80.416 172.082 L 77.571 154.091 L 38.15 154.091 L 28.361 172.082 L 2.234 172.082 L 58.059 73.33 L 87.162 73.33 L 104.624 172.082 L 80.416 172.082 Z  M 68.311 98.134 L 47.741 136.166 L 74.264 136.166 L 68.311 98.134 Z  M 113.681 92.578 L 117.517 73.33 L 208.53 73.33 L 204.76 92.578 L 171.953 92.578 L 156.475 172.082 L 131.01 172.082 L 146.488 92.578 L 113.681 92.578 Z  M 274.271 113.81 L 274.271 113.81 L 274.271 113.81 Q 274.271 102.169 269.013 96.083 L 269.013 96.083 L 269.013 96.083 Q 263.755 89.998 253.767 89.998 L 253.767 89.998 L 253.767 89.998 Q 240.538 89.998 231.576 101.871 L 231.576 101.871 L 231.576 101.871 Q 222.614 113.744 222.614 131.602 L 222.614 131.602 L 222.614 131.602 Q 222.614 142.979 227.839 149.263 L 227.839 149.263 L 227.839 149.263 Q 233.064 155.546 242.39 155.546 L 242.39 155.546 L 242.39 155.546 Q 249.997 155.546 255.917 152.338 L 255.917 152.338 L 255.917 152.338 Q 261.836 149.13 266.003 142.847 L 266.003 142.847 L 266.003 142.847 Q 269.972 136.828 272.122 129.287 L 272.122 129.287 L 272.122 129.287 Q 274.271 121.747 274.271 113.81 Z  M 257.471 71.544 L 257.471 71.544 L 257.471 71.544 Q 277.182 71.544 289.187 82.491 L 289.187 82.491 L 289.187 82.491 Q 301.191 93.438 301.191 111.098 L 301.191 111.098 L 301.191 111.098 Q 301.191 123.136 297.521 133.851 L 297.521 133.851 L 297.521 133.851 Q 293.85 144.566 286.838 153.099 L 286.838 153.099 L 286.838 153.099 Q 278.24 163.616 266.499 168.808 L 266.499 168.808 L 266.499 168.808 Q 254.759 174 239.414 174 L 239.414 174 L 239.414 174 Q 219.769 174 207.798 163.086 L 207.798 163.086 L 207.798 163.086 Q 195.826 152.173 195.826 134.446 L 195.826 134.446 L 195.826 134.446 Q 195.826 122.342 199.463 111.627 L 199.463 111.627 L 199.463 111.627 Q 203.101 100.912 210.179 92.313 L 210.179 92.313 L 210.179 92.313 Q 218.645 81.863 230.385 76.704 L 230.385 76.704 L 230.385 76.704 Q 242.126 71.544 257.471 71.544 Z  M 300.261 172.082 L 319.508 73.33 L 350.794 73.33 L 363.493 125.782 L 396.83 73.33 L 429.372 73.33 L 410.124 172.082 L 385.982 172.082 L 400.071 99.192 L 365.808 153.099 L 352.117 153.099 L 338.491 99.192 L 324.403 172.082 L 300.261 172.082 Z  M 426.391 172.082 L 445.638 73.33 L 471.103 73.33 L 451.856 172.082 L 426.391 172.082 Z  M 555.365 76.439 L 555.365 76.439 L 551.264 97.34 L 551.264 97.34 Q 543.79 93.636 536.514 91.817 L 536.514 91.817 L 536.514 91.817 Q 529.238 89.998 522.293 89.998 L 522.293 89.998 L 522.293 89.998 Q 512.769 89.998 507.444 92.975 L 507.444 92.975 L 507.444 92.975 Q 502.12 95.951 502.12 101.243 L 502.12 101.243 L 502.12 101.243 Q 502.12 104.616 504.468 106.501 L 504.468 106.501 L 504.468 106.501 Q 506.816 108.386 514.158 110.172 L 514.158 110.172 L 524.608 112.752 L 524.608 112.752 Q 537.705 116.059 543.823 122.309 L 543.823 122.309 L 543.823 122.309 Q 549.941 128.56 549.941 138.481 L 549.941 138.481 L 549.941 138.481 Q 549.941 154.554 537.738 164.277 L 537.738 164.277 L 537.738 164.277 Q 525.534 174 504.964 174 L 504.964 174 L 504.964 174 Q 495.373 174 485.882 172.214 L 485.882 172.214 L 485.882 172.214 Q 476.39 170.428 467.329 166.923 L 467.329 166.923 L 471.363 145.426 L 471.363 145.426 Q 480.16 150.519 488.461 153.033 L 488.461 153.033 L 488.461 153.033 Q 496.762 155.546 504.832 155.546 L 504.832 155.546 L 504.832 155.546 Q 513.563 155.546 519.019 151.974 L 519.019 151.974 L 519.019 151.974 Q 524.476 148.403 524.476 142.847 L 524.476 142.847 L 524.476 142.847 Q 524.476 139.209 522.029 137.191 L 522.029 137.191 L 522.029 137.191 Q 519.582 135.174 511.314 133.057 L 511.314 133.057 L 500.929 130.478 L 500.929 130.478 Q 489.42 127.634 483.798 121.482 L 483.798 121.482 L 483.798 121.482 Q 478.176 115.331 478.176 105.542 L 478.176 105.542 L 478.176 105.542 Q 478.176 90.131 489.983 80.838 L 489.983 80.838 L 489.983 80.838 Q 501.789 71.544 521.764 71.544 L 521.764 71.544 L 521.764 71.544 Q 529.768 71.544 538.201 72.768 L 538.201 72.768 L 538.201 72.768 Q 546.634 73.992 555.365 76.439 Z  M 572.888 172.082 L 568.655 73.33 L 592.202 73.33 L 595.244 145.095 L 626.265 73.33 L 650.474 73.33 L 653.715 145.095 L 683.678 73.33 L 709.01 73.33 L 666.48 172.082 L 637.642 172.082 L 634.335 97.01 L 602.388 172.082 L 572.888 172.082 Z  M 764.301 172.082 L 761.457 154.091 L 722.036 154.091 L 712.247 172.082 L 686.12 172.082 L 741.945 73.33 L 771.048 73.33 L 788.51 172.082 L 764.301 172.082 Z  M 752.197 98.134 L 731.627 136.166 L 758.15 136.166 L 752.197 98.134 Z  M 818.732 172.082 L 801.403 73.33 L 825.611 73.33 L 837.715 147.146 L 878.592 73.33 L 904.85 73.33 L 849.092 172.082 L 818.732 172.082 Z  M 890.096 172.082 L 909.343 73.33 L 978 73.33 L 974.23 92.578 L 931.038 92.578 L 927.467 110.966 L 968.145 110.966 L 964.308 130.213 L 923.696 130.213 L 919.331 152.834 L 963.911 152.834 L 960.274 172.082 L 890.096 172.082 Z " fill="rgb(0,0,0)"/><path d=" M 79.13 173.58 L 76.29 155.59 L 39.04 155.59 L 29.25 173.58 L -0.34 173.58 L 57.18 71.83 L 88.42 71.83 L 106.41 173.58 L 79.13 173.58 Z  M 81.7 170.58 L 78.85 152.59 L 37.26 152.59 L 27.47 170.58 L 4.81 170.58 L 58.93 74.83 L 85.9 74.83 L 102.84 170.58 L 81.7 170.58 Z  M 76.02 137.67 L 45.22 137.67 L 69.11 93.51 L 76.02 137.67 Z  M 72.51 134.67 L 50.26 134.67 L 67.52 102.76 L 72.51 134.67 Z  M 111.85 94.08 L 116.29 71.83 L 210.35 71.83 L 205.99 94.08 L 173.19 94.08 L 157.71 173.58 L 129.19 173.58 L 144.67 94.08 L 111.85 94.08 Z  M 115.51 91.08 L 118.75 74.83 L 206.71 74.83 L 203.53 91.08 L 170.72 91.08 L 155.24 170.58 L 132.83 170.58 L 148.31 91.08 L 115.51 91.08 Z  M 273.56 129.7 C 272.83 132.26 271.91 134.77 270.82 137.2 C 269.8 139.45 268.61 141.62 267.25 143.67 C 266.51 144.79 265.71 145.87 264.84 146.9 C 264.04 147.85 263.19 148.75 262.28 149.59 C 261.41 150.39 260.5 151.14 259.55 151.83 C 258.62 152.5 257.64 153.11 256.63 153.66 C 255.62 154.2 254.58 154.68 253.51 155.1 C 252.41 155.52 251.28 155.87 250.14 156.15 C 248.93 156.45 247.69 156.67 246.45 156.81 C 245.11 156.97 243.75 157.05 242.39 157.05 C 240.71 157.05 239.03 156.88 237.38 156.56 C 235.96 156.28 234.56 155.84 233.24 155.24 C 231.99 154.68 230.81 153.97 229.72 153.14 C 228.6 152.28 227.59 151.3 226.69 150.22 C 225.8 149.15 225.02 147.99 224.37 146.76 C 223.65 145.41 223.06 143.99 222.6 142.53 C 222.11 140.94 221.75 139.32 221.52 137.67 C 221.25 135.66 221.11 133.63 221.11 131.6 C 221.11 128.44 221.34 125.28 221.79 122.16 C 222.18 119.43 222.8 116.74 223.63 114.11 C 224.4 111.71 225.36 109.38 226.51 107.13 C 227.62 104.97 228.91 102.91 230.38 100.97 C 231.95 98.88 233.74 96.96 235.71 95.24 C 237.39 93.76 239.25 92.49 241.24 91.46 C 242.18 90.98 243.15 90.55 244.14 90.18 C 245.13 89.81 246.14 89.5 247.17 89.26 C 248.22 89.01 249.29 88.82 250.36 88.69 C 251.49 88.56 252.63 88.5 253.77 88.5 C 255.59 88.5 257.41 88.66 259.2 88.99 C 260.7 89.27 262.17 89.71 263.57 90.31 C 264.83 90.85 266.04 91.53 267.15 92.34 C 268.25 93.15 269.26 94.07 270.15 95.1 C 271.07 96.17 271.86 97.33 272.53 98.57 C 273.27 99.96 273.88 101.42 274.34 102.94 C 274.81 104.5 275.16 106.11 275.37 107.73 C 275.64 109.75 275.77 111.78 275.77 113.81 C 275.77 116.51 275.58 119.2 275.21 121.88 C 274.85 124.52 274.3 127.13 273.56 129.7 Z  M 270.68 128.88 C 269.99 131.3 269.12 133.67 268.08 135.97 C 267.13 138.07 266.02 140.09 264.75 142.02 C 264.07 143.04 263.34 144.03 262.54 144.97 C 261.83 145.82 261.05 146.64 260.24 147.4 C 259.46 148.11 258.65 148.78 257.79 149.39 C 256.97 149.99 256.1 150.53 255.2 151.02 C 254.31 151.5 253.38 151.93 252.43 152.29 C 251.45 152.67 250.45 152.99 249.42 153.24 C 248.33 153.51 247.23 153.7 246.11 153.83 C 244.88 153.97 243.63 154.05 242.39 154.05 C 240.9 154.05 239.42 153.9 237.96 153.62 C 236.76 153.38 235.59 153.01 234.47 152.5 C 233.43 152.04 232.45 151.45 231.55 150.76 C 230.61 150.04 229.75 149.21 228.99 148.3 C 228.23 147.39 227.57 146.41 227.02 145.36 C 226.39 144.17 225.87 142.92 225.47 141.63 C 225.02 140.21 224.7 138.75 224.5 137.27 C 224.24 135.39 224.11 133.5 224.11 131.6 C 224.11 128.58 224.33 125.57 224.76 122.58 C 225.13 120.02 225.71 117.49 226.49 115.02 C 227.21 112.78 228.1 110.6 229.18 108.5 C 230.21 106.49 231.41 104.58 232.77 102.77 C 234.23 100.85 235.87 99.08 237.68 97.49 C 239.18 96.18 240.84 95.05 242.62 94.13 C 243.45 93.7 244.31 93.32 245.19 92.99 C 246.06 92.67 246.96 92.39 247.87 92.18 C 248.8 91.95 249.75 91.78 250.71 91.67 C 251.72 91.56 252.74 91.5 253.77 91.5 C 255.41 91.5 257.05 91.65 258.66 91.94 C 259.94 92.18 261.19 92.55 262.39 93.07 C 263.45 93.52 264.45 94.09 265.38 94.77 C 266.3 95.44 267.14 96.21 267.88 97.06 C 268.65 97.96 269.32 98.94 269.88 99.98 C 270.53 101.2 271.06 102.49 271.47 103.81 C 271.9 105.22 272.21 106.66 272.4 108.12 C 272.65 110.01 272.77 111.91 272.77 113.81 C 272.77 116.37 272.59 118.93 272.24 121.46 C 271.89 123.97 271.37 126.45 270.68 128.88 Z  M 257.47 70.04 C 260.96 70.04 264.45 70.33 267.89 70.88 C 270.84 71.36 273.73 72.12 276.53 73.14 C 279.08 74.07 281.53 75.25 283.85 76.65 C 286.12 78.01 288.24 79.6 290.2 81.38 C 292.21 83.21 294.02 85.25 295.61 87.46 C 297.13 89.57 298.41 91.84 299.44 94.23 C 300.51 96.72 301.31 99.31 301.82 101.98 C 302.4 104.98 302.69 108.04 302.69 111.1 C 302.69 115.16 302.37 119.21 301.72 123.22 C 301.11 127 300.18 130.72 298.94 134.34 C 297.7 137.96 296.14 141.46 294.29 144.81 C 292.47 148.07 290.37 151.16 288 154.05 C 286.52 155.86 284.93 157.59 283.26 159.23 C 281.67 160.78 279.99 162.23 278.22 163.59 C 276.51 164.9 274.72 166.11 272.86 167.21 C 271 168.32 269.08 169.31 267.11 170.18 C 265.19 171.03 263.23 171.76 261.24 172.39 C 259.11 173.06 256.94 173.61 254.76 174.05 C 252.37 174.54 249.96 174.89 247.53 175.12 C 244.83 175.37 242.12 175.5 239.41 175.5 C 235.93 175.5 232.46 175.22 229.03 174.66 C 226.09 174.19 223.21 173.43 220.42 172.41 C 217.88 171.48 215.43 170.31 213.12 168.92 C 210.86 167.55 208.74 165.97 206.79 164.19 C 204.79 162.37 202.98 160.34 201.4 158.15 C 199.88 156.04 198.6 153.77 197.58 151.38 C 196.5 148.89 195.71 146.28 195.2 143.62 C 194.62 140.59 194.33 137.52 194.33 134.45 C 194.33 130.37 194.65 126.29 195.29 122.26 C 195.89 118.49 196.81 114.77 198.04 111.14 C 199.27 107.52 200.82 104.02 202.68 100.68 C 204.5 97.39 206.63 94.27 209.02 91.36 C 210.47 89.57 212.03 87.85 213.68 86.23 C 215.26 84.69 216.92 83.25 218.67 81.9 C 220.38 80.59 222.16 79.39 224.02 78.29 C 225.88 77.19 227.8 76.2 229.78 75.33 C 231.7 74.49 233.65 73.76 235.65 73.13 C 237.78 72.47 239.94 71.92 242.13 71.48 C 244.52 71 246.93 70.65 249.35 70.42 C 252.05 70.17 254.76 70.04 257.47 70.04 Z  M 257.47 73.04 C 260.8 73.04 264.13 73.31 267.41 73.85 C 270.17 74.29 272.88 75 275.5 75.96 C 277.86 76.83 280.14 77.92 282.3 79.22 C 284.4 80.48 286.37 81.95 288.18 83.6 C 290.03 85.29 291.71 87.17 293.17 89.21 C 294.57 91.14 295.74 93.22 296.69 95.41 C 297.67 97.7 298.41 100.09 298.88 102.54 C 299.42 105.36 299.69 108.23 299.69 111.1 C 299.69 115 299.38 118.89 298.76 122.74 C 298.18 126.35 297.29 129.9 296.1 133.37 C 294.92 136.82 293.43 140.16 291.66 143.35 C 289.94 146.46 287.93 149.4 285.68 152.15 C 284.27 153.88 282.76 155.52 281.16 157.08 C 279.66 158.55 278.07 159.93 276.4 161.2 C 274.78 162.45 273.09 163.59 271.33 164.63 C 269.57 165.68 267.76 166.61 265.89 167.44 C 264.08 168.24 262.23 168.94 260.34 169.53 C 258.31 170.16 256.25 170.69 254.16 171.11 C 251.88 171.57 249.57 171.91 247.25 172.13 C 244.65 172.38 242.03 172.5 239.41 172.5 C 236.1 172.5 232.78 172.23 229.51 171.7 C 226.76 171.26 224.06 170.55 221.45 169.6 C 219.09 168.73 216.82 167.64 214.67 166.35 C 212.57 165.09 210.61 163.62 208.81 161.98 C 206.96 160.29 205.3 158.42 203.84 156.4 C 202.45 154.46 201.27 152.38 200.33 150.2 C 199.35 147.9 198.61 145.51 198.14 143.05 C 197.6 140.22 197.33 137.33 197.33 134.45 C 197.33 130.52 197.64 126.61 198.25 122.73 C 198.83 119.13 199.71 115.57 200.88 112.11 C 202.06 108.66 203.53 105.32 205.3 102.13 C 207.04 99 209.06 96.03 211.34 93.26 C 212.73 91.55 214.21 89.92 215.78 88.38 C 217.27 86.92 218.85 85.55 220.5 84.28 C 222.11 83.05 223.79 81.91 225.54 80.87 C 227.3 79.83 229.12 78.9 230.99 78.08 C 232.8 77.28 234.65 76.59 236.54 76 C 238.57 75.37 240.63 74.84 242.72 74.42 C 245 73.97 247.31 73.63 249.63 73.41 C 252.24 73.17 254.85 73.04 257.47 73.04 Z  M 298.44 173.58 L 318.27 71.83 L 351.97 71.83 L 364.12 122 L 396.01 71.83 L 431.19 71.83 L 411.36 173.58 L 384.16 173.58 L 397.1 106.66 L 366.63 154.6 L 350.95 154.6 L 338.69 106.09 L 325.64 173.58 L 298.44 173.58 Z  M 302.08 170.58 L 320.74 74.83 L 349.61 74.83 L 362.87 129.57 L 397.65 74.83 L 427.55 74.83 L 408.89 170.58 L 387.8 170.58 L 403.04 91.72 L 364.98 151.6 L 353.28 151.6 L 338.3 92.3 L 323.17 170.58 L 302.08 170.58 Z  M 424.57 173.58 L 444.4 71.83 L 472.92 71.83 L 453.09 173.58 L 424.57 173.58 Z  M 428.21 170.58 L 446.87 74.83 L 469.28 74.83 L 450.62 170.58 L 428.21 170.58 Z  M 537.99 74.25 C 535.21 73.85 532.43 73.54 529.63 73.34 C 527.02 73.14 524.39 73.04 521.76 73.04 C 518.29 73.04 514.83 73.29 511.39 73.77 C 508.6 74.16 505.85 74.78 503.17 75.64 C 500.86 76.37 498.62 77.31 496.47 78.43 C 494.51 79.45 492.65 80.65 490.91 82.02 C 489.96 82.77 489.04 83.57 488.17 84.42 C 487.37 85.2 486.61 86.03 485.91 86.9 C 485.23 87.73 484.61 88.6 484.04 89.5 C 483.48 90.38 482.97 91.29 482.52 92.23 C 481.59 94.16 480.89 96.19 480.44 98.29 C 479.93 100.67 479.68 103.1 479.68 105.54 C 479.68 107.14 479.81 108.74 480.07 110.31 C 480.29 111.65 480.63 112.95 481.1 114.22 C 481.53 115.38 482.07 116.49 482.71 117.55 C 483.35 118.59 484.08 119.57 484.91 120.47 C 485.74 121.38 486.65 122.21 487.62 122.96 C 488.77 123.83 489.99 124.62 491.26 125.3 C 492.65 126.06 494.1 126.71 495.59 127.27 C 497.45 127.96 499.36 128.54 501.29 129.02 C 501.29 129.02 501.29 129.02 501.29 129.02 L 511.68 131.6 C 511.68 131.6 511.68 131.6 511.69 131.6 C 512.81 131.89 513.93 132.2 515.05 132.53 C 515.88 132.78 516.71 133.04 517.53 133.33 C 518.75 133.76 519.95 134.26 521.12 134.83 C 521.78 135.16 522.41 135.56 522.98 136.03 C 523.46 136.43 523.89 136.87 524.26 137.36 C 524.63 137.83 524.94 138.35 525.19 138.9 C 525.45 139.48 525.65 140.09 525.77 140.72 C 525.91 141.42 525.98 142.13 525.98 142.85 C 525.98 143.84 525.85 144.84 525.6 145.8 C 525.36 146.74 525 147.63 524.52 148.47 C 524.01 149.37 523.38 150.19 522.66 150.93 C 521.8 151.79 520.86 152.56 519.84 153.23 C 518.94 153.82 517.98 154.34 516.99 154.78 C 515.91 155.25 514.79 155.65 513.65 155.97 C 512.34 156.32 511.01 156.59 509.66 156.75 C 508.06 156.95 506.44 157.05 504.83 157.05 C 502.08 157.05 499.34 156.84 496.62 156.42 C 493.72 155.97 490.84 155.32 488.03 154.47 C 485.21 153.62 482.45 152.59 479.77 151.39 C 477.28 150.29 474.84 149.08 472.45 147.76 L 469.03 165.97 C 471.63 166.93 474.26 167.8 476.92 168.56 C 479.97 169.43 483.05 170.15 486.16 170.74 C 489.27 171.33 492.4 171.77 495.55 172.06 C 498.68 172.35 501.82 172.5 504.96 172.5 C 508.53 172.5 512.09 172.25 515.63 171.75 C 518.5 171.34 521.34 170.69 524.1 169.8 C 526.49 169.02 528.81 168.05 531.03 166.88 C 533.07 165.8 535 164.54 536.8 163.1 C 537.79 162.32 538.73 161.48 539.63 160.59 C 540.46 159.77 541.24 158.91 541.98 157.99 C 542.67 157.13 543.32 156.22 543.91 155.28 C 544.5 154.35 545.02 153.4 545.49 152.41 C 546.46 150.39 547.18 148.27 547.64 146.08 C 548.17 143.58 548.44 141.03 548.44 138.48 C 548.44 136.88 548.3 135.28 548.02 133.71 C 547.79 132.36 547.42 131.04 546.92 129.77 C 546.45 128.59 545.87 127.45 545.17 126.38 C 544.47 125.3 543.66 124.28 542.75 123.36 C 541.81 122.4 540.78 121.52 539.68 120.75 C 538.3 119.78 536.84 118.91 535.33 118.16 C 533.79 117.39 532.19 116.71 530.57 116.13 C 528.49 115.39 526.38 114.75 524.25 114.21 L 513.8 111.63 C 512.79 111.38 511.78 111.12 510.78 110.83 C 510.02 110.61 509.27 110.38 508.53 110.12 C 507.43 109.74 506.35 109.3 505.31 108.79 C 504.67 108.49 504.08 108.11 503.53 107.67 C 503.07 107.3 502.65 106.88 502.28 106.41 C 501.92 105.96 501.62 105.47 501.38 104.95 C 501.13 104.4 500.94 103.83 500.82 103.24 C 500.69 102.58 500.62 101.91 500.62 101.24 C 500.62 100.28 500.75 99.32 501 98.39 C 501.24 97.51 501.6 96.67 502.08 95.89 C 502.59 95.06 503.21 94.31 503.93 93.66 C 504.78 92.89 505.71 92.22 506.71 91.67 C 507.67 91.13 508.67 90.68 509.7 90.32 C 510.94 89.88 512.22 89.53 513.51 89.27 C 514.8 89.02 516.1 88.83 517.41 88.71 C 519.04 88.57 520.66 88.5 522.29 88.5 C 524.66 88.5 527.03 88.65 529.37 88.95 C 531.9 89.27 534.41 89.74 536.88 90.36 C 539.35 90.98 541.78 91.74 544.17 92.63 C 546.2 93.39 548.2 94.23 550.17 95.15 L 553.62 77.52 C 551.19 76.86 548.73 76.26 546.26 75.74 C 543.52 75.15 540.76 74.66 537.99 74.25 Z  M 538.42 71.28 C 535.58 70.87 532.72 70.56 529.86 70.35 C 527.16 70.14 524.46 70.04 521.76 70.04 C 518.15 70.04 514.55 70.3 510.98 70.8 C 508.02 71.21 505.1 71.87 502.26 72.78 C 499.79 73.57 497.38 74.57 495.08 75.77 C 492.96 76.87 490.94 78.18 489.05 79.66 C 488.02 80.48 487.02 81.35 486.08 82.27 C 485.19 83.14 484.36 84.05 483.58 85.01 C 482.83 85.93 482.14 86.89 481.51 87.89 C 480.88 88.87 480.32 89.89 479.81 90.93 C 478.78 93.07 478.01 95.33 477.51 97.66 C 476.96 100.25 476.68 102.89 476.68 105.54 C 476.68 107.3 476.82 109.06 477.11 110.8 C 477.36 112.32 477.75 113.82 478.29 115.26 C 478.79 116.6 479.41 117.89 480.15 119.11 C 480.89 120.32 481.74 121.45 482.69 122.49 C 483.64 123.54 484.69 124.49 485.81 125.34 C 487.08 126.31 488.43 127.18 489.83 127.94 C 491.35 128.76 492.93 129.48 494.54 130.08 C 496.52 130.81 498.53 131.43 500.57 131.93 L 510.95 134.51 C 512.04 134.79 513.12 135.09 514.2 135.41 C 514.98 135.64 515.76 135.89 516.53 136.16 C 517.65 136.55 518.74 137.01 519.8 137.53 C 520.26 137.75 520.68 138.03 521.07 138.35 C 521.38 138.6 521.65 138.88 521.89 139.19 C 522.11 139.48 522.3 139.8 522.46 140.14 C 522.62 140.51 522.75 140.9 522.82 141.29 C 522.93 141.81 522.98 142.33 522.98 142.85 C 522.98 143.59 522.88 144.33 522.7 145.05 C 522.52 145.73 522.26 146.38 521.91 146.98 C 521.53 147.65 521.07 148.27 520.52 148.82 C 519.82 149.53 519.04 150.17 518.2 150.72 C 517.43 151.22 516.62 151.66 515.78 152.03 C 514.83 152.45 513.86 152.8 512.86 153.07 C 511.69 153.39 510.5 153.63 509.29 153.77 C 507.81 153.96 506.32 154.05 504.83 154.05 C 502.24 154.05 499.65 153.85 497.08 153.45 C 494.31 153.03 491.58 152.41 488.9 151.6 C 486.2 150.78 483.56 149.8 480.99 148.65 C 477.95 147.3 474.99 145.79 472.11 144.13 C 471.69 143.88 471.18 143.86 470.74 144.06 C 470.3 144.27 469.98 144.67 469.89 145.15 L 465.85 166.65 C 465.79 166.99 465.85 167.35 466.02 167.65 C 466.19 167.96 466.46 168.2 466.79 168.32 C 469.84 169.5 472.95 170.55 476.1 171.44 C 479.23 172.34 482.4 173.09 485.6 173.69 C 488.81 174.29 492.03 174.74 495.27 175.05 C 498.5 175.35 501.73 175.5 504.96 175.5 C 508.67 175.5 512.38 175.24 516.05 174.72 C 519.09 174.29 522.09 173.6 525.02 172.65 C 527.58 171.83 530.06 170.78 532.43 169.53 C 534.64 168.37 536.72 167 538.67 165.45 C 539.74 164.6 540.77 163.69 541.74 162.73 C 542.65 161.83 543.51 160.87 544.31 159.87 C 545.08 158.92 545.8 157.92 546.45 156.88 C 547.1 155.85 547.68 154.8 548.2 153.71 C 549.27 151.47 550.06 149.12 550.58 146.7 C 551.15 144 551.44 141.24 551.44 138.48 C 551.44 136.71 551.29 134.94 550.98 133.19 C 550.71 131.65 550.28 130.13 549.71 128.68 C 549.17 127.3 548.49 125.99 547.69 124.75 C 546.88 123.5 545.94 122.33 544.89 121.26 C 543.82 120.17 542.66 119.17 541.4 118.29 C 539.9 117.24 538.32 116.29 536.67 115.47 C 535.02 114.65 533.32 113.92 531.58 113.3 C 529.41 112.53 527.21 111.86 524.98 111.3 C 524.97 111.3 524.97 111.3 524.97 111.3 L 514.52 108.72 C 514.52 108.72 514.51 108.71 514.51 108.71 C 513.54 108.48 512.57 108.22 511.6 107.95 C 510.9 107.74 510.2 107.52 509.5 107.29 C 508.52 106.95 507.55 106.55 506.61 106.09 C 506.18 105.89 505.78 105.63 505.41 105.33 C 505.12 105.1 504.86 104.84 504.63 104.55 C 504.42 104.29 504.24 104 504.1 103.69 C 503.95 103.35 503.83 103 503.76 102.64 C 503.67 102.18 503.62 101.71 503.62 101.24 C 503.62 100.54 503.71 99.85 503.9 99.17 C 504.06 98.57 504.31 97.99 504.64 97.46 C 505 96.88 505.44 96.35 505.95 95.89 C 506.63 95.27 507.37 94.73 508.18 94.28 C 508.98 93.83 509.82 93.46 510.69 93.15 C 511.8 92.76 512.94 92.45 514.1 92.22 C 515.28 91.98 516.48 91.81 517.68 91.7 C 519.21 91.57 520.75 91.5 522.29 91.5 C 524.53 91.5 526.77 91.64 528.99 91.93 C 531.4 92.23 533.79 92.68 536.15 93.27 C 538.51 93.86 540.84 94.59 543.12 95.44 C 545.66 96.39 548.16 97.48 550.6 98.68 C 551.02 98.89 551.51 98.89 551.93 98.69 C 552.35 98.48 552.65 98.09 552.74 97.63 L 556.84 76.73 C 556.91 76.36 556.84 75.97 556.64 75.65 C 556.44 75.33 556.13 75.1 555.77 74.99 C 552.83 74.17 549.87 73.44 546.89 72.8 C 544.08 72.2 541.26 71.7 538.42 71.28 Z  M 571.45 173.58 L 567.09 71.83 L 593.64 71.83 L 596.47 138.49 L 625.28 71.83 L 651.91 71.83 L 654.91 138.34 L 682.68 71.83 L 711.29 71.83 L 667.47 173.58 L 636.21 173.58 L 633.13 103.68 L 603.38 173.58 L 571.45 173.58 Z  M 574.33 170.58 L 570.22 74.83 L 590.76 74.83 L 594.02 151.7 L 627.25 74.83 L 649.04 74.83 L 652.52 151.85 L 684.68 74.83 L 706.73 74.83 L 665.49 170.58 L 639.08 170.58 L 635.54 90.34 L 601.4 170.58 L 574.33 170.58 Z  M 763.02 173.58 L 760.18 155.59 L 722.93 155.59 L 713.14 173.58 L 683.55 173.58 L 741.07 71.83 L 772.31 71.83 L 790.3 173.58 L 763.02 173.58 Z  M 765.58 170.58 L 762.74 152.59 L 721.14 152.59 L 711.36 170.58 L 688.69 170.58 L 742.82 74.83 L 769.79 74.83 L 786.72 170.58 L 765.58 170.58 Z  M 759.9 137.67 L 729.11 137.67 L 752.99 93.51 L 759.9 137.67 Z  M 756.4 134.67 L 734.14 134.67 L 751.4 102.76 L 756.4 134.67 Z  M 817.47 173.58 L 799.62 71.83 L 826.89 71.83 L 838.5 142.64 L 877.71 71.83 L 907.42 71.83 L 849.97 173.58 L 817.47 173.58 Z  M 819.99 170.58 L 803.19 74.83 L 824.34 74.83 L 836.93 151.65 L 879.48 74.83 L 902.28 74.83 L 848.22 170.58 L 819.99 170.58 Z  M 888.28 173.58 L 908.11 71.83 L 979.82 71.83 L 975.46 94.08 L 932.28 94.08 L 929.29 109.47 L 969.97 109.47 L 965.54 131.71 L 924.93 131.71 L 921.15 151.33 L 965.72 151.33 L 961.52 173.58 L 888.28 173.58 Z  M 891.92 170.58 L 910.58 74.83 L 976.18 74.83 L 973 91.08 L 929.8 91.08 L 925.65 112.47 L 966.32 112.47 L 963.08 128.71 L 922.46 128.71 L 917.51 154.33 L 962.1 154.33 L 959.03 170.58 L 891.92 170.58 Z " fill-rule="evenodd" fill="rgb(255,255,255)"/></g></svg>