<?xml version="1.0" encoding="UTF-8" standalone="no"?><!-- Generator: Gravit.io --><svg xmlns="http://www.w3.org/2000/svg" xmlns:xlink="http://www.w3.org/1999/xlink" style="isolation:isolate" viewBox="0 0 992 250" width="992pt" height="250pt"><defs><clipPath id="_clipPath_N5OXomAY7x9bf16cJd0kdgbFobuoJTP3"><rect width="992" height="250"/></clipPath></defs><g clip-path="url(#_clipPath_N5OXomAY7x9bf16cJd0kdgbFobuoJTP3)"><path d=" M 52.272 139.93 L 52.272 139.93 L 52.272 139.93 Q 27.348 139.93 27.348 118.868 L 27.348 118.868 L 27.348 118.868 Q 27.348 108.392 34.129 102.86 L 34.129 102.86 L 34.129 102.86 Q 40.909 97.328 53.562 97.328 L 53.562 97.328 L 53.562 97.328 Q 62.824 97.328 70.177 100.121 L 70.177 100.121 L 65.88 108.796 L 65.88 108.796 Q 62.442 107.73 59.482 107.05 L 59.482 107.05 L 59.482 107.05 Q 56.522 106.37 53.562 106.37 L 53.562 106.37 L 53.562 106.37 Q 42.198 106.37 42.198 118.794 L 42.198 118.794 L 42.198 118.794 Q 42.198 130.851 53.562 130.851 L 53.562 130.851 L 53.562 130.851 Q 57.763 130.851 61.344 129.987 L 61.344 129.987 L 61.344 129.987 Q 64.925 129.123 68.506 127.285 L 68.506 127.285 L 68.506 136.879 L 68.506 136.879 Q 64.973 138.606 61.368 139.268 L 61.368 139.268 L 61.368 139.268 Q 57.763 139.93 52.272 139.93 Z  M 92.475 118.574 L 92.475 118.574 L 92.475 118.574 Q 92.475 124.675 95.077 127.8 L 95.077 127.8 L 95.077 127.8 Q 97.68 130.924 103.552 130.924 L 103.552 130.924 L 103.552 130.924 Q 109.378 130.924 111.932 127.818 L 111.932 127.818 L 111.932 127.818 Q 114.487 124.712 114.487 118.574 L 114.487 118.574 L 114.487 118.574 Q 114.487 112.472 111.908 109.421 L 111.908 109.421 L 111.908 109.421 Q 109.33 106.37 103.457 106.37 L 103.457 106.37 L 103.457 106.37 Q 97.632 106.37 95.054 109.403 L 95.054 109.403 L 95.054 109.403 Q 92.475 112.435 92.475 118.574 Z  M 129.384 118.574 L 129.384 118.574 L 129.384 118.574 Q 129.384 128.608 122.508 134.269 L 122.508 134.269 L 122.508 134.269 Q 115.632 139.93 103.361 139.93 L 103.361 139.93 L 103.361 139.93 Q 95.674 139.93 89.801 137.338 L 89.801 137.338 L 89.801 137.338 Q 83.929 134.747 80.777 129.895 L 80.777 129.895 L 80.777 129.895 Q 77.626 125.043 77.626 118.574 L 77.626 118.574 L 77.626 118.574 Q 77.626 108.502 84.454 102.915 L 84.454 102.915 L 84.454 102.915 Q 91.282 97.328 103.648 97.328 L 103.648 97.328 L 103.648 97.328 Q 111.335 97.328 117.208 99.901 L 117.208 99.901 L 117.208 99.901 Q 123.081 102.474 126.232 107.289 L 126.232 107.289 L 126.232 107.289 Q 129.384 112.104 129.384 118.574 Z  M 189.21 118.574 L 189.21 139.194 L 174.648 139.194 L 174.648 115.192 L 174.648 115.192 Q 174.648 110.744 172.714 108.52 L 172.714 108.52 L 172.714 108.52 Q 170.78 106.297 166.626 106.297 L 166.626 106.297 L 166.626 106.297 Q 161.04 106.297 158.509 109.458 L 158.509 109.458 L 158.509 109.458 Q 155.979 112.619 155.979 119.86 L 155.979 119.86 L 155.979 139.194 L 141.416 139.194 L 141.416 98.1 L 152.541 98.1 L 154.498 103.356 L 155.31 103.356 L 155.31 103.356 Q 157.459 100.526 161.517 98.927 L 161.517 98.927 L 161.517 98.927 Q 165.576 97.328 170.828 97.328 L 170.828 97.328 L 170.828 97.328 Q 182.812 97.328 187.062 103.356 L 187.062 103.356 L 188.351 103.356 L 188.351 103.356 Q 190.5 100.489 194.677 98.908 L 194.677 98.908 L 194.677 98.908 Q 198.855 97.328 204.107 97.328 L 204.107 97.328 L 204.107 97.328 Q 213.179 97.328 217.835 100.912 L 217.835 100.912 L 217.835 100.912 Q 222.49 104.496 222.49 112.398 L 222.49 112.398 L 222.49 139.194 L 207.879 139.194 L 207.879 115.192 L 207.879 115.192 Q 207.879 110.744 205.946 108.52 L 205.946 108.52 L 205.946 108.52 Q 204.012 106.297 199.858 106.297 L 199.858 106.297 L 199.858 106.297 Q 194.51 106.297 191.86 109.237 L 191.86 109.237 L 191.86 109.237 Q 189.21 112.178 189.21 118.574 L 189.21 118.574 Z  M 285.229 118.574 L 285.229 139.194 L 270.667 139.194 L 270.667 115.192 L 270.667 115.192 Q 270.667 110.744 268.733 108.52 L 268.733 108.52 L 268.733 108.52 Q 266.799 106.297 262.645 106.297 L 262.645 106.297 L 262.645 106.297 Q 257.059 106.297 254.528 109.458 L 254.528 109.458 L 254.528 109.458 Q 251.997 112.619 251.997 119.86 L 251.997 119.86 L 251.997 139.194 L 237.435 139.194 L 237.435 98.1 L 248.56 98.1 L 250.517 103.356 L 251.329 103.356 L 251.329 103.356 Q 253.478 100.526 257.536 98.927 L 257.536 98.927 L 257.536 98.927 Q 261.595 97.328 266.847 97.328 L 266.847 97.328 L 266.847 97.328 Q 278.831 97.328 283.081 103.356 L 283.081 103.356 L 284.37 103.356 L 284.37 103.356 Q 286.518 100.489 290.696 98.908 L 290.696 98.908 L 290.696 98.908 Q 294.874 97.328 300.126 97.328 L 300.126 97.328 L 300.126 97.328 Q 309.198 97.328 313.854 100.912 L 313.854 100.912 L 313.854 100.912 Q 318.509 104.496 318.509 112.398 L 318.509 112.398 L 318.509 139.194 L 303.898 139.194 L 303.898 115.192 L 303.898 115.192 Q 303.898 110.744 301.965 108.52 L 301.965 108.52 L 301.965 108.52 Q 300.031 106.297 295.877 106.297 L 295.877 106.297 L 295.877 106.297 Q 290.529 106.297 287.879 109.237 L 287.879 109.237 L 287.879 109.237 Q 285.229 112.178 285.229 118.574 L 285.229 118.574 Z  M 345.056 118.574 L 345.056 118.574 L 345.056 118.574 Q 345.056 124.675 347.658 127.8 L 347.658 127.8 L 347.658 127.8 Q 350.261 130.924 356.133 130.924 L 356.133 130.924 L 356.133 130.924 Q 361.959 130.924 364.513 127.818 L 364.513 127.818 L 364.513 127.818 Q 367.067 124.712 367.067 118.574 L 367.067 118.574 L 367.067 118.574 Q 367.067 112.472 364.489 109.421 L 364.489 109.421 L 364.489 109.421 Q 361.911 106.37 356.038 106.37 L 356.038 106.37 L 356.038 106.37 Q 350.213 106.37 347.634 109.403 L 347.634 109.403 L 347.634 109.403 Q 345.056 112.435 345.056 118.574 Z  M 381.964 118.574 L 381.964 118.574 L 381.964 118.574 Q 381.964 128.608 375.089 134.269 L 375.089 134.269 L 375.089 134.269 Q 368.213 139.93 355.942 139.93 L 355.942 139.93 L 355.942 139.93 Q 348.255 139.93 342.382 137.338 L 342.382 137.338 L 342.382 137.338 Q 336.509 134.747 333.358 129.895 L 333.358 129.895 L 333.358 129.895 Q 330.207 125.043 330.207 118.574 L 330.207 118.574 L 330.207 118.574 Q 330.207 108.502 337.035 102.915 L 337.035 102.915 L 337.035 102.915 Q 343.862 97.328 356.229 97.328 L 356.229 97.328 L 356.229 97.328 Q 363.916 97.328 369.789 99.901 L 369.789 99.901 L 369.789 99.901 Q 375.662 102.474 378.813 107.289 L 378.813 107.289 L 378.813 107.289 Q 381.964 112.104 381.964 118.574 Z  M 410.899 139.93 L 410.899 139.93 L 410.899 139.93 Q 401.493 139.93 396.121 134.306 L 396.121 134.306 L 396.121 134.306 Q 390.75 128.682 390.75 118.721 L 390.75 118.721 L 390.75 118.721 Q 390.75 108.612 396.217 102.97 L 396.217 102.97 L 396.217 102.97 Q 401.684 97.328 411.281 97.328 L 411.281 97.328 L 411.281 97.328 Q 421.356 97.328 426.656 103.356 L 426.656 103.356 L 427.133 103.356 L 427.133 103.356 Q 426.035 98.761 426.035 95.159 L 426.035 95.159 L 426.035 82 L 440.645 82 L 440.645 139.194 L 429.473 139.194 L 426.656 133.865 L 426.035 133.865 L 426.035 133.865 Q 421.069 139.93 410.899 139.93 Z  M 416.008 130.998 L 416.008 130.998 L 416.008 130.998 Q 421.594 130.998 424.197 128.498 L 424.197 128.498 L 424.197 128.498 Q 426.799 125.999 427.038 120.007 L 427.038 120.007 L 427.038 118.794 L 427.038 118.794 Q 427.038 112.178 424.388 109.311 L 424.388 109.311 L 424.388 109.311 Q 421.738 106.444 415.769 106.444 L 415.769 106.444 L 415.769 106.444 Q 410.899 106.444 408.201 109.623 L 408.201 109.623 L 408.201 109.623 Q 405.504 112.803 405.504 118.868 L 405.504 118.868 L 405.504 118.868 Q 405.504 124.933 408.225 127.965 L 408.225 127.965 L 408.225 127.965 Q 410.947 130.998 416.008 130.998 Z  M 467.479 118.574 L 467.479 118.574 L 467.479 118.574 Q 467.479 124.675 470.081 127.8 L 470.081 127.8 L 470.081 127.8 Q 472.684 130.924 478.556 130.924 L 478.556 130.924 L 478.556 130.924 Q 484.381 130.924 486.936 127.818 L 486.936 127.818 L 486.936 127.818 Q 489.49 124.712 489.49 118.574 L 489.49 118.574 L 489.49 118.574 Q 489.49 112.472 486.912 109.421 L 486.912 109.421 L 486.912 109.421 Q 484.334 106.37 478.461 106.37 L 478.461 106.37 L 478.461 106.37 Q 472.636 106.37 470.057 109.403 L 470.057 109.403 L 470.057 109.403 Q 467.479 112.435 467.479 118.574 Z  M 504.387 118.574 L 504.387 118.574 L 504.387 118.574 Q 504.387 128.608 497.512 134.269 L 497.512 134.269 L 497.512 134.269 Q 490.636 139.93 478.365 139.93 L 478.365 139.93 L 478.365 139.93 Q 470.678 139.93 464.805 137.338 L 464.805 137.338 L 464.805 137.338 Q 458.932 134.747 455.781 129.895 L 455.781 129.895 L 455.781 129.895 Q 452.63 125.043 452.63 118.574 L 452.63 118.574 L 452.63 118.574 Q 452.63 108.502 459.458 102.915 L 459.458 102.915 L 459.458 102.915 Q 466.285 97.328 478.652 97.328 L 478.652 97.328 L 478.652 97.328 Q 486.339 97.328 492.212 99.901 L 492.212 99.901 L 492.212 99.901 Q 498.085 102.474 501.236 107.289 L 501.236 107.289 L 501.236 107.289 Q 504.387 112.104 504.387 118.574 Z  M 546.214 97.328 L 546.214 97.328 L 546.214 97.328 Q 549.174 97.328 551.132 97.659 L 551.132 97.659 L 550.033 108.171 L 550.033 108.171 Q 548.267 107.804 545.736 107.804 L 545.736 107.804 L 545.736 107.804 Q 538.765 107.804 534.874 110.56 L 534.874 110.56 L 534.874 110.56 Q 530.982 113.317 530.982 118.28 L 530.982 118.28 L 530.982 139.194 L 516.42 139.194 L 516.42 98.1 L 527.449 98.1 L 529.598 105.01 L 530.314 105.01 L 530.314 105.01 Q 532.797 101.555 537.022 99.441 L 537.022 99.441 L 537.022 99.441 Q 541.248 97.328 546.214 97.328 Z  M 582.931 105.304 L 582.931 105.304 L 582.931 105.304 Q 578.3 105.304 575.674 107.565 L 575.674 107.565 L 575.674 107.565 Q 573.047 109.825 572.665 113.979 L 572.665 113.979 L 593.101 113.979 L 593.101 113.979 Q 593.006 109.825 590.284 107.565 L 590.284 107.565 L 590.284 107.565 Q 587.562 105.304 582.931 105.304 Z  M 584.984 139.93 L 584.984 139.93 L 584.984 139.93 Q 572.092 139.93 564.835 134.453 L 564.835 134.453 L 564.835 134.453 Q 557.577 128.976 557.577 118.941 L 557.577 118.941 L 557.577 118.941 Q 557.577 108.612 564.286 102.97 L 564.286 102.97 L 564.286 102.97 Q 570.994 97.328 582.836 97.328 L 582.836 97.328 L 582.836 97.328 Q 594.152 97.328 600.454 102.29 L 600.454 102.29 L 600.454 102.29 Q 606.757 107.252 606.757 116.001 L 606.757 116.001 L 606.757 121.441 L 572.331 121.441 L 572.331 121.441 Q 572.57 126.219 576.008 128.902 L 576.008 128.902 L 576.008 128.902 Q 579.446 131.586 585.653 131.586 L 585.653 131.586 L 585.653 131.586 Q 590.475 131.586 594.772 130.814 L 594.772 130.814 L 594.772 130.814 Q 599.069 130.042 603.749 128.351 L 603.749 128.351 L 603.749 137.026 L 603.749 137.026 Q 599.929 138.496 595.584 139.213 L 595.584 139.213 L 595.584 139.213 Q 591.239 139.93 584.984 139.93 Z " fill="rgb(160,177,255)"/><rect x="27.348" y="157" width="601.652" height="6" transform="matrix(1,0,0,1,0,0)" fill="rgb(160,177,255)"/><path d=" M 723.624 53.116 L 723.624 204.54 L 688.904 204.54 L 688.904 87.612 L 656.424 107.548 L 640.968 84.028 L 692.04 53.116 L 723.624 53.116 Z  M 793.304 49.98 L 793.304 49.98 Q 809.656 49.98 821.416 55.804 L 821.416 55.804 L 821.416 55.804 Q 833.176 61.628 839.336 71.484 L 839.336 71.484 L 839.336 71.484 Q 845.496 81.34 845.496 93.212 L 845.496 93.212 L 845.496 93.212 Q 845.496 105.308 840.568 116.284 L 840.568 116.284 L 840.568 116.284 Q 835.64 127.26 823.096 141.484 L 823.096 141.484 L 823.096 141.484 Q 810.552 155.708 786.584 177.436 L 786.584 177.436 L 848.632 177.436 L 845.048 204.54 L 746.488 204.54 L 746.488 179.452 L 746.488 179.452 Q 774.04 152.348 786.584 138.572 L 786.584 138.572 L 786.584 138.572 Q 799.128 124.796 804.168 115.612 L 804.168 115.612 L 804.168 115.612 Q 809.208 106.428 809.208 96.796 L 809.208 96.796 L 809.208 96.796 Q 809.208 87.612 803.944 82.348 L 803.944 82.348 L 803.944 82.348 Q 798.68 77.084 789.72 77.084 L 789.72 77.084 L 789.72 77.084 Q 781.656 77.084 775.384 80.78 L 775.384 80.78 L 775.384 80.78 Q 769.112 84.476 762.168 92.764 L 762.168 92.764 L 741.336 76.188 L 741.336 76.188 Q 750.744 63.868 763.848 56.924 L 763.848 56.924 L 763.848 56.924 Q 776.952 49.98 793.304 49.98 L 793.304 49.98 Z  M 947.208 123.228 L 947.208 123.228 Q 962.44 130.62 969.832 140.588 L 969.832 140.588 L 969.832 140.588 Q 977.224 150.556 977.224 163.548 L 977.224 163.548 L 977.224 163.548 Q 977.224 175.868 970.168 186.06 L 970.168 186.06 L 970.168 186.06 Q 963.112 196.252 949.672 202.3 L 949.672 202.3 L 949.672 202.3 Q 936.232 208.348 918.088 208.348 L 918.088 208.348 L 918.088 208.348 Q 900.392 208.348 887.288 202.412 L 887.288 202.412 L 887.288 202.412 Q 874.184 196.476 867.24 186.508 L 867.24 186.508 L 867.24 186.508 Q 860.296 176.54 860.296 164.22 L 860.296 164.22 L 860.296 164.22 Q 860.296 138.908 888.52 126.588 L 888.52 126.588 L 888.52 126.588 Q 866.344 113.596 866.344 90.748 L 866.344 90.748 L 866.344 90.748 Q 866.344 78.652 873.064 69.468 L 873.064 69.468 L 873.064 69.468 Q 879.784 60.284 891.768 55.132 L 891.768 55.132 L 891.768 55.132 Q 903.752 49.98 918.984 49.98 L 918.984 49.98 L 918.984 49.98 Q 942.056 49.98 956.728 60.396 L 956.728 60.396 L 956.728 60.396 Q 971.4 70.812 971.4 88.956 L 971.4 88.956 L 971.4 88.956 Q 971.4 99.036 965.464 107.884 L 965.464 107.884 L 965.464 107.884 Q 959.528 116.732 947.208 123.228 L 947.208 123.228 Z  M 919.208 73.948 L 919.208 73.948 Q 910.696 73.948 905.656 78.428 L 905.656 78.428 L 905.656 78.428 Q 900.616 82.908 900.616 91.196 L 900.616 91.196 L 900.616 91.196 Q 900.616 98.812 904.984 103.628 L 904.984 103.628 L 904.984 103.628 Q 909.352 108.444 918.984 112.476 L 918.984 112.476 L 923.688 114.268 L 923.688 114.268 Q 931.304 109.34 934.216 103.852 L 934.216 103.852 L 934.216 103.852 Q 937.128 98.364 937.128 90.748 L 937.128 90.748 L 937.128 90.748 Q 937.128 83.132 932.536 78.54 L 932.536 78.54 L 932.536 78.54 Q 927.944 73.948 919.208 73.948 L 919.208 73.948 Z  M 919.208 183.036 L 919.208 183.036 Q 929.96 183.036 935.896 177.548 L 935.896 177.548 L 935.896 177.548 Q 941.832 172.06 941.832 163.324 L 941.832 163.324 L 941.832 163.324 Q 941.832 154.14 936.68 148.876 L 936.68 148.876 L 936.68 148.876 Q 931.528 143.612 918.536 138.908 L 918.536 138.908 L 911.144 136.22 L 911.144 136.22 Q 895.912 144.732 895.912 162.428 L 895.912 162.428 L 895.912 162.428 Q 895.912 171.836 902.184 177.436 L 902.184 177.436 L 902.184 177.436 Q 908.456 183.036 919.208 183.036 L 919.208 183.036 Z " fill="rgb(160,177,255)"/></g></svg>