<?xml version="1.0" encoding="UTF-8" standalone="no"?><!-- Generator: Gravit.io --><svg xmlns="http://www.w3.org/2000/svg" xmlns:xlink="http://www.w3.org/1999/xlink" style="isolation:isolate" viewBox="0 0 1400 250" width="1400pt" height="250pt"><defs><clipPath id="_clipPath_2YUq5AtoQapOCUxkaqJzJzKXwy89FK8r"><rect width="1400" height="250"/></clipPath></defs><g clip-path="url(#_clipPath_2YUq5AtoQapOCUxkaqJzJzKXwy89FK8r)"><path d="M 109.818 15.182 L 1290.182 15.182 C 1350.792 15.182 1400 64.39 1400 125 L 1400 125 C 1400 185.61 1350.792 234.818 1290.182 234.818 L 109.818 234.818 C 49.208 234.818 0 185.61 0 125 L 0 125 C 0 64.39 49.208 15.182 109.818 15.182 Z" style="stroke:none;fill:#5D594F;stroke-miterlimit:10;"/><path d=" M 198.209 147.538 L 198.209 147.538 L 198.209 147.538 Q 168.541 147.538 168.541 122.467 L 168.541 122.467 L 168.541 122.467 Q 168.541 109.997 176.611 103.412 L 176.611 103.412 L 176.611 103.412 Q 184.682 96.827 199.743 96.827 L 199.743 96.827 L 199.743 96.827 Q 210.769 96.827 219.522 100.153 L 219.522 100.153 L 214.407 110.479 L 214.407 110.479 Q 210.314 109.21 206.791 108.4 L 206.791 108.4 L 206.791 108.4 Q 203.267 107.591 199.743 107.591 L 199.743 107.591 L 199.743 107.591 Q 186.217 107.591 186.217 122.379 L 186.217 122.379 L 186.217 122.379 Q 186.217 136.731 199.743 136.731 L 199.743 136.731 L 199.743 136.731 Q 204.745 136.731 209.007 135.702 L 209.007 135.702 L 209.007 135.702 Q 213.27 134.674 217.532 132.487 L 217.532 132.487 L 217.532 143.906 L 217.532 143.906 Q 213.327 145.963 209.036 146.75 L 209.036 146.75 L 209.036 146.75 Q 204.745 147.538 198.209 147.538 Z  M 246.064 122.117 L 246.064 122.117 L 246.064 122.117 Q 246.064 129.38 249.161 133.099 L 249.161 133.099 L 249.161 133.099 Q 252.258 136.818 259.249 136.818 L 259.249 136.818 L 259.249 136.818 Q 266.183 136.818 269.224 133.121 L 269.224 133.121 L 269.224 133.121 Q 272.264 129.424 272.264 122.117 L 272.264 122.117 L 272.264 122.117 Q 272.264 114.854 269.195 111.222 L 269.195 111.222 L 269.195 111.222 Q 266.126 107.591 259.135 107.591 L 259.135 107.591 L 259.135 107.591 Q 252.202 107.591 249.133 111.2 L 249.133 111.2 L 249.133 111.2 Q 246.064 114.81 246.064 122.117 Z  M 289.997 122.117 L 289.997 122.117 L 289.997 122.117 Q 289.997 134.062 281.813 140.8 L 281.813 140.8 L 281.813 140.8 Q 273.628 147.538 259.022 147.538 L 259.022 147.538 L 259.022 147.538 Q 249.871 147.538 242.881 144.453 L 242.881 144.453 L 242.881 144.453 Q 235.89 141.369 232.139 135.593 L 232.139 135.593 L 232.139 135.593 Q 228.388 129.818 228.388 122.117 L 228.388 122.117 L 228.388 122.117 Q 228.388 110.128 236.515 103.478 L 236.515 103.478 L 236.515 103.478 Q 244.643 96.827 259.363 96.827 L 259.363 96.827 L 259.363 96.827 Q 268.513 96.827 275.504 99.89 L 275.504 99.89 L 275.504 99.89 Q 282.495 102.953 286.246 108.685 L 286.246 108.685 L 286.246 108.685 Q 289.997 114.416 289.997 122.117 Z  M 361.211 122.117 L 361.211 146.663 L 343.876 146.663 L 343.876 118.092 L 343.876 118.092 Q 343.876 112.797 341.574 110.15 L 341.574 110.15 L 341.574 110.15 Q 339.272 107.503 334.328 107.503 L 334.328 107.503 L 334.328 107.503 Q 327.678 107.503 324.666 111.266 L 324.666 111.266 L 324.666 111.266 Q 321.654 115.029 321.654 123.648 L 321.654 123.648 L 321.654 146.663 L 304.319 146.663 L 304.319 97.746 L 317.562 97.746 L 319.892 104.003 L 320.858 104.003 L 320.858 104.003 Q 323.416 100.634 328.246 98.731 L 328.246 98.731 L 328.246 98.731 Q 333.077 96.827 339.329 96.827 L 339.329 96.827 L 339.329 96.827 Q 353.595 96.827 358.653 104.003 L 358.653 104.003 L 360.188 104.003 L 360.188 104.003 Q 362.745 100.59 367.718 98.709 L 367.718 98.709 L 367.718 98.709 Q 372.691 96.827 378.943 96.827 L 378.943 96.827 L 378.943 96.827 Q 389.742 96.827 395.283 101.093 L 395.283 101.093 L 395.283 101.093 Q 400.824 105.359 400.824 114.766 L 400.824 114.766 L 400.824 146.663 L 383.433 146.663 L 383.433 118.092 L 383.433 118.092 Q 383.433 112.797 381.131 110.15 L 381.131 110.15 L 381.131 110.15 Q 378.829 107.503 373.885 107.503 L 373.885 107.503 L 373.885 107.503 Q 367.519 107.503 364.365 111.004 L 364.365 111.004 L 364.365 111.004 Q 361.211 114.504 361.211 122.117 L 361.211 122.117 Z  M 475.505 122.117 L 475.505 146.663 L 458.171 146.663 L 458.171 118.092 L 458.171 118.092 Q 458.171 112.797 455.869 110.15 L 455.869 110.15 L 455.869 110.15 Q 453.567 107.503 448.622 107.503 L 448.622 107.503 L 448.622 107.503 Q 441.973 107.503 438.96 111.266 L 438.96 111.266 L 438.96 111.266 Q 435.948 115.029 435.948 123.648 L 435.948 123.648 L 435.948 146.663 L 418.614 146.663 L 418.614 97.746 L 431.856 97.746 L 434.186 104.003 L 435.153 104.003 L 435.153 104.003 Q 437.71 100.634 442.541 98.731 L 442.541 98.731 L 442.541 98.731 Q 447.372 96.827 453.624 96.827 L 453.624 96.827 L 453.624 96.827 Q 467.889 96.827 472.948 104.003 L 472.948 104.003 L 474.482 104.003 L 474.482 104.003 Q 477.04 100.59 482.013 98.709 L 482.013 98.709 L 482.013 98.709 Q 486.986 96.827 493.238 96.827 L 493.238 96.827 L 493.238 96.827 Q 504.036 96.827 509.578 101.093 L 509.578 101.093 L 509.578 101.093 Q 515.119 105.359 515.119 114.766 L 515.119 114.766 L 515.119 146.663 L 497.728 146.663 L 497.728 118.092 L 497.728 118.092 Q 497.728 112.797 495.426 110.15 L 495.426 110.15 L 495.426 110.15 Q 493.124 107.503 488.179 107.503 L 488.179 107.503 L 488.179 107.503 Q 481.814 107.503 478.66 111.004 L 478.66 111.004 L 478.66 111.004 Q 475.505 114.504 475.505 122.117 L 475.505 122.117 Z  M 546.719 122.117 L 546.719 122.117 L 546.719 122.117 Q 546.719 129.38 549.817 133.099 L 549.817 133.099 L 549.817 133.099 Q 552.914 136.818 559.905 136.818 L 559.905 136.818 L 559.905 136.818 Q 566.839 136.818 569.879 133.121 L 569.879 133.121 L 569.879 133.121 Q 572.92 129.424 572.92 122.117 L 572.92 122.117 L 572.92 122.117 Q 572.92 114.854 569.851 111.222 L 569.851 111.222 L 569.851 111.222 Q 566.782 107.591 559.791 107.591 L 559.791 107.591 L 559.791 107.591 Q 552.857 107.591 549.788 111.2 L 549.788 111.2 L 549.788 111.2 Q 546.719 114.81 546.719 122.117 Z  M 590.652 122.117 L 590.652 122.117 L 590.652 122.117 Q 590.652 134.062 582.468 140.8 L 582.468 140.8 L 582.468 140.8 Q 574.284 147.538 559.677 147.538 L 559.677 147.538 L 559.677 147.538 Q 550.527 147.538 543.536 144.453 L 543.536 144.453 L 543.536 144.453 Q 536.546 141.369 532.795 135.593 L 532.795 135.593 L 532.795 135.593 Q 529.044 129.818 529.044 122.117 L 529.044 122.117 L 529.044 122.117 Q 529.044 110.128 537.171 103.478 L 537.171 103.478 L 537.171 103.478 Q 545.298 96.827 560.018 96.827 L 560.018 96.827 L 560.018 96.827 Q 569.169 96.827 576.159 99.89 L 576.159 99.89 L 576.159 99.89 Q 583.15 102.953 586.901 108.685 L 586.901 108.685 L 586.901 108.685 Q 590.652 114.416 590.652 122.117 Z  M 625.094 147.538 L 625.094 147.538 L 625.094 147.538 Q 613.898 147.538 607.504 140.843 L 607.504 140.843 L 607.504 140.843 Q 601.11 134.149 601.11 122.292 L 601.11 122.292 L 601.11 122.292 Q 601.11 110.26 607.617 103.544 L 607.617 103.544 L 607.617 103.544 Q 614.125 96.827 625.549 96.827 L 625.549 96.827 L 625.549 96.827 Q 637.541 96.827 643.85 104.003 L 643.85 104.003 L 644.418 104.003 L 644.418 104.003 Q 643.111 98.534 643.111 94.246 L 643.111 94.246 L 643.111 78.582 L 660.502 78.582 L 660.502 146.663 L 647.203 146.663 L 643.85 140.318 L 643.111 140.318 L 643.111 140.318 Q 637.2 147.538 625.094 147.538 Z  M 631.175 136.906 L 631.175 136.906 L 631.175 136.906 Q 637.825 136.906 640.923 133.93 L 640.923 133.93 L 640.923 133.93 Q 644.02 130.955 644.304 123.823 L 644.304 123.823 L 644.304 122.379 L 644.304 122.379 Q 644.304 114.504 641.15 111.091 L 641.15 111.091 L 641.15 111.091 Q 637.996 107.678 630.891 107.678 L 630.891 107.678 L 630.891 107.678 Q 625.094 107.678 621.883 111.463 L 621.883 111.463 L 621.883 111.463 Q 618.672 115.248 618.672 122.467 L 618.672 122.467 L 618.672 122.467 Q 618.672 129.686 621.911 133.296 L 621.911 133.296 L 621.911 133.296 Q 625.151 136.906 631.175 136.906 Z  M 692.443 122.117 L 692.443 122.117 L 692.443 122.117 Q 692.443 129.38 695.541 133.099 L 695.541 133.099 L 695.541 133.099 Q 698.638 136.818 705.629 136.818 L 705.629 136.818 L 705.629 136.818 Q 712.563 136.818 715.603 133.121 L 715.603 133.121 L 715.603 133.121 Q 718.644 129.424 718.644 122.117 L 718.644 122.117 L 718.644 122.117 Q 718.644 114.854 715.575 111.222 L 715.575 111.222 L 715.575 111.222 Q 712.506 107.591 705.515 107.591 L 705.515 107.591 L 705.515 107.591 Q 698.581 107.591 695.512 111.2 L 695.512 111.2 L 695.512 111.2 Q 692.443 114.81 692.443 122.117 Z  M 736.377 122.117 L 736.377 122.117 L 736.377 122.117 Q 736.377 134.062 728.192 140.8 L 728.192 140.8 L 728.192 140.8 Q 720.008 147.538 705.402 147.538 L 705.402 147.538 L 705.402 147.538 Q 696.251 147.538 689.261 144.453 L 689.261 144.453 L 689.261 144.453 Q 682.27 141.369 678.519 135.593 L 678.519 135.593 L 678.519 135.593 Q 674.768 129.818 674.768 122.117 L 674.768 122.117 L 674.768 122.117 Q 674.768 110.128 682.895 103.478 L 682.895 103.478 L 682.895 103.478 Q 691.022 96.827 705.743 96.827 L 705.743 96.827 L 705.743 96.827 Q 714.893 96.827 721.884 99.89 L 721.884 99.89 L 721.884 99.89 Q 728.874 102.953 732.625 108.685 L 732.625 108.685 L 732.625 108.685 Q 736.377 114.416 736.377 122.117 Z  M 786.164 96.827 L 786.164 96.827 L 786.164 96.827 Q 789.687 96.827 792.018 97.221 L 792.018 97.221 L 790.71 109.735 L 790.71 109.735 Q 788.608 109.297 785.595 109.297 L 785.595 109.297 L 785.595 109.297 Q 777.297 109.297 772.665 112.579 L 772.665 112.579 L 772.665 112.579 Q 768.033 115.86 768.033 121.767 L 768.033 121.767 L 768.033 146.663 L 750.699 146.663 L 750.699 97.746 L 763.828 97.746 L 766.385 105.972 L 767.238 105.972 L 767.238 105.972 Q 770.193 101.859 775.223 99.343 L 775.223 99.343 L 775.223 99.343 Q 780.253 96.827 786.164 96.827 Z  M 829.87 106.322 L 829.87 106.322 L 829.87 106.322 Q 824.357 106.322 821.231 109.013 L 821.231 109.013 L 821.231 109.013 Q 818.105 111.704 817.65 116.648 L 817.65 116.648 L 841.975 116.648 L 841.975 116.648 Q 841.862 111.704 838.622 109.013 L 838.622 109.013 L 838.622 109.013 Q 835.383 106.322 829.87 106.322 Z  M 832.313 147.538 L 832.313 147.538 L 832.313 147.538 Q 816.968 147.538 808.329 141.018 L 808.329 141.018 L 808.329 141.018 Q 799.69 134.499 799.69 122.554 L 799.69 122.554 L 799.69 122.554 Q 799.69 110.26 807.676 103.544 L 807.676 103.544 L 807.676 103.544 Q 815.661 96.827 829.756 96.827 L 829.756 96.827 L 829.756 96.827 Q 843.226 96.827 850.728 102.734 L 850.728 102.734 L 850.728 102.734 Q 858.23 108.641 858.23 119.054 L 858.23 119.054 L 858.23 125.53 L 817.252 125.53 L 817.252 125.53 Q 817.536 131.218 821.629 134.412 L 821.629 134.412 L 821.629 134.412 Q 825.721 137.606 833.109 137.606 L 833.109 137.606 L 833.109 137.606 Q 838.849 137.606 843.965 136.687 L 843.965 136.687 L 843.965 136.687 Q 849.08 135.768 854.65 133.755 L 854.65 133.755 L 854.65 144.081 L 854.65 144.081 Q 850.103 145.831 844.931 146.685 L 844.931 146.685 L 844.931 146.685 Q 839.759 147.538 832.313 147.538 Z " fill="rgb(255,255,255)"/><path d=" M 97.322 150.237 L 97.322 171.157 L 97.322 171.157 Q 91.366 174.88 84.904 176.776 L 84.904 176.776 L 84.904 176.776 Q 78.443 178.671 71.419 178.671 L 71.419 178.671 L 71.419 178.671 Q 50.461 178.671 38.212 164.556 L 38.212 164.556 L 38.212 164.556 Q 25.963 150.44 25.963 126.272 L 25.963 126.272 L 25.963 126.272 Q 25.963 102.035 38.212 87.919 L 38.212 87.919 L 38.212 87.919 Q 50.461 73.804 71.419 73.804 L 71.419 73.804 L 71.419 73.804 Q 78.443 73.804 84.904 75.7 L 84.904 75.7 L 84.904 75.7 Q 91.366 77.595 97.322 81.319 L 97.322 81.319 L 97.322 102.238 L 97.322 102.238 Q 91.31 97.296 85.466 94.994 L 85.466 94.994 L 85.466 94.994 Q 79.623 92.692 73.161 92.692 L 73.161 92.692 L 73.161 92.692 Q 61.586 92.692 54.956 101.629 L 54.956 101.629 L 54.956 101.629 Q 48.326 110.565 48.326 126.272 L 48.326 126.272 L 48.326 126.272 Q 48.326 141.91 54.956 150.847 L 54.956 150.847 L 54.956 150.847 Q 61.586 159.783 73.161 159.783 L 73.161 159.783 L 73.161 159.783 Q 79.623 159.783 85.466 157.481 L 85.466 157.481 L 85.466 157.481 Q 91.31 155.18 97.322 150.237 L 97.322 150.237 Z " fill="rgb(255,255,255)"/><path d=" M 97.322 102.238 L 97.322 125.53 L 123.854 125.53 L 145.745 102.238 L 97.322 102.238 Z " fill="rgb(255,255,255)"/><path d=" M 97.322 150.237 L 97.322 126.946 L 123.854 126.946 L 145.745 150.237 L 97.322 150.237 Z " fill="rgb(255,255,255)"/><rect x="874.419" y="188.051" width="86.682" height="18.015" transform="matrix(-1,0,0,-1,1835.52,394.117)" fill="rgb(213,0,0)"/><rect x="874.419" y="152.022" width="86.682" height="18.015" transform="matrix(-1,0,0,-1,1835.52,322.059)" fill="rgb(213,99,0)"/><rect x="874.419" y="115.993" width="86.682" height="18.015" transform="matrix(-1,0,0,-1,1835.52,250)" fill="rgb(183,177,0)"/><rect x="874.419" y="43.934" width="86.682" height="18.015" transform="matrix(-1,0,0,-1,1835.52,105.883)" fill="rgb(55,141,221)"/><rect x="874.419" y="79.963" width="86.682" height="18.015" transform="matrix(-1,0,0,-1,1835.52,177.941)" fill="rgb(80,172,30)"/><path d=" M 1257.288 134.831 L 1240.131 149.891 L 1275.467 149.891 L 1275.467 165.112 L 1217.111 165.112 L 1217.111 149.891 L 1246.423 124.021 L 1246.423 124.021 Q 1250.349 120.471 1252.232 117.082 L 1252.232 117.082 L 1252.232 117.082 Q 1254.114 113.694 1254.114 110.037 L 1254.114 110.037 L 1254.114 110.037 Q 1254.114 104.389 1250.323 100.947 L 1250.323 100.947 L 1250.323 100.947 Q 1246.531 97.505 1240.238 97.505 L 1240.238 97.505 L 1240.238 97.505 Q 1235.398 97.505 1229.643 99.576 L 1229.643 99.576 L 1229.643 99.576 Q 1223.888 101.646 1217.326 105.734 L 1217.326 105.734 L 1217.326 88.093 L 1217.326 88.093 Q 1224.318 85.78 1231.149 84.57 L 1231.149 84.57 L 1231.149 84.57 Q 1237.979 83.36 1244.541 83.36 L 1244.541 83.36 L 1244.541 83.36 Q 1258.955 83.36 1266.942 89.706 L 1266.942 89.706 L 1266.942 89.706 Q 1274.929 96.053 1274.929 107.401 L 1274.929 107.401 L 1274.929 107.401 Q 1274.929 113.963 1271.54 119.637 L 1271.54 119.637 L 1271.54 119.637 Q 1268.152 125.311 1257.288 134.831 L 1257.288 134.831 Z  M 1327.232 124.881 L 1327.232 124.881 L 1327.232 124.881 Q 1327.232 109.822 1324.408 103.663 L 1324.408 103.663 L 1324.408 103.663 Q 1321.584 97.505 1314.915 97.505 L 1314.915 97.505 L 1314.915 97.505 Q 1308.246 97.505 1305.395 103.663 L 1305.395 103.663 L 1305.395 103.663 Q 1302.545 109.822 1302.545 124.881 L 1302.545 124.881 L 1302.545 124.881 Q 1302.545 140.102 1305.395 146.341 L 1305.395 146.341 L 1305.395 146.341 Q 1308.246 152.58 1314.915 152.58 L 1314.915 152.58 L 1314.915 152.58 Q 1321.531 152.58 1324.381 146.341 L 1324.381 146.341 L 1324.381 146.341 Q 1327.232 140.102 1327.232 124.881 Z  M 1347.939 125.043 L 1347.939 125.043 L 1347.939 125.043 Q 1347.939 144.996 1339.333 155.834 L 1339.333 155.834 L 1339.333 155.834 Q 1330.728 166.671 1314.915 166.671 L 1314.915 166.671 L 1314.915 166.671 Q 1299.049 166.671 1290.443 155.834 L 1290.443 155.834 L 1290.443 155.834 Q 1281.838 144.996 1281.838 125.043 L 1281.838 125.043 L 1281.838 125.043 Q 1281.838 105.035 1290.443 94.197 L 1290.443 94.197 L 1290.443 94.197 Q 1299.049 83.36 1314.915 83.36 L 1314.915 83.36 L 1314.915 83.36 Q 1330.728 83.36 1339.333 94.197 L 1339.333 94.197 L 1339.333 94.197 Q 1347.939 105.035 1347.939 125.043 Z  M 1027.154 165.112 L 997.412 84.812 L 1018.226 84.812 L 1039.524 144.082 L 1060.769 84.812 L 1081.584 84.812 L 1051.841 165.112 L 1027.154 165.112 Z  M 1083.76 165.112 L 1083.76 84.812 L 1104.467 84.812 L 1104.467 165.112 L 1083.76 165.112 Z  M 1179.95 144.082 L 1179.95 160.701 L 1179.95 160.701 Q 1174.249 163.659 1168.064 165.165 L 1168.064 165.165 L 1168.064 165.165 Q 1161.879 166.671 1155.156 166.671 L 1155.156 166.671 L 1155.156 166.671 Q 1135.094 166.671 1123.37 155.457 L 1123.37 155.457 L 1123.37 155.457 Q 1111.645 144.243 1111.645 125.043 L 1111.645 125.043 L 1111.645 125.043 Q 1111.645 105.788 1123.37 94.574 L 1123.37 94.574 L 1123.37 94.574 Q 1135.094 83.36 1155.156 83.36 L 1155.156 83.36 L 1155.156 83.36 Q 1161.879 83.36 1168.064 84.866 L 1168.064 84.866 L 1168.064 84.866 Q 1174.249 86.372 1179.95 89.33 L 1179.95 89.33 L 1179.95 105.949 L 1179.95 105.949 Q 1174.195 102.023 1168.602 100.194 L 1168.602 100.194 L 1168.602 100.194 Q 1163.008 98.366 1156.823 98.366 L 1156.823 98.366 L 1156.823 98.366 Q 1145.744 98.366 1139.397 105.465 L 1139.397 105.465 L 1139.397 105.465 Q 1133.051 112.565 1133.051 125.043 L 1133.051 125.043 L 1133.051 125.043 Q 1133.051 137.467 1139.397 144.566 L 1139.397 144.566 L 1139.397 144.566 Q 1145.744 151.666 1156.823 151.666 L 1156.823 151.666 L 1156.823 151.666 Q 1163.008 151.666 1168.602 149.837 L 1168.602 149.837 L 1168.602 149.837 Q 1174.195 148.008 1179.95 144.082 L 1179.95 144.082 Z " fill="rgb(255,255,255)"/></g></svg>