<?xml version="1.0" encoding="UTF-8" standalone="no"?><!-- Generator: Gravit.io --><svg xmlns="http://www.w3.org/2000/svg" xmlns:xlink="http://www.w3.org/1999/xlink" style="isolation:isolate" viewBox="0 0 1400 250" width="1400pt" height="250pt"><defs><clipPath id="_clipPath_GF09gglVLBEMBHMMDl9pM2JpiV10hZHl"><rect width="1400" height="250"/></clipPath></defs><g clip-path="url(#_clipPath_GF09gglVLBEMBHMMDl9pM2JpiV10hZHl)"><path d="M 109.653 15.152 L 1290.347 15.152 C 1350.974 15.152 1400.196 64.373 1400.196 125 L 1400.196 125 C 1400.196 185.627 1350.974 234.848 1290.347 234.848 L 109.653 234.848 C 49.026 234.848 -0.196 185.627 -0.196 125 L -0.196 125 C -0.196 64.373 49.026 15.152 109.653 15.152 Z" style="stroke:none;fill:#5D594F;stroke-miterlimit:10;"/><path d=" M 198.069 147.544 L 198.069 147.544 L 198.069 147.544 Q 168.393 147.544 168.393 122.466 L 168.393 122.466 L 168.393 122.466 Q 168.393 109.993 176.465 103.406 L 176.465 103.406 L 176.465 103.406 Q 184.538 96.82 199.604 96.82 L 199.604 96.82 L 199.604 96.82 Q 210.633 96.82 219.388 100.146 L 219.388 100.146 L 214.271 110.474 L 214.271 110.474 Q 210.178 109.205 206.653 108.396 L 206.653 108.396 L 206.653 108.396 Q 203.128 107.586 199.604 107.586 L 199.604 107.586 L 199.604 107.586 Q 186.073 107.586 186.073 122.379 L 186.073 122.379 L 186.073 122.379 Q 186.073 136.734 199.604 136.734 L 199.604 136.734 L 199.604 136.734 Q 204.606 136.734 208.87 135.705 L 208.87 135.705 L 208.87 135.705 Q 213.134 134.677 217.398 132.489 L 217.398 132.489 L 217.398 143.911 L 217.398 143.911 Q 213.191 145.968 208.899 146.756 L 208.899 146.756 L 208.899 146.756 Q 204.606 147.544 198.069 147.544 Z  M 245.937 122.116 L 245.937 122.116 L 245.937 122.116 Q 245.937 129.381 249.035 133.101 L 249.035 133.101 L 249.035 133.101 Q 252.133 136.821 259.126 136.821 L 259.126 136.821 L 259.126 136.821 Q 266.062 136.821 269.103 133.123 L 269.103 133.123 L 269.103 133.123 Q 272.145 129.425 272.145 122.116 L 272.145 122.116 L 272.145 122.116 Q 272.145 114.851 269.075 111.218 L 269.075 111.218 L 269.075 111.218 Q 266.005 107.586 259.012 107.586 L 259.012 107.586 L 259.012 107.586 Q 252.077 107.586 249.007 111.197 L 249.007 111.197 L 249.007 111.197 Q 245.937 114.807 245.937 122.116 Z  M 289.882 122.116 L 289.882 122.116 L 289.882 122.116 Q 289.882 134.064 281.696 140.804 L 281.696 140.804 L 281.696 140.804 Q 273.509 147.544 258.899 147.544 L 258.899 147.544 L 258.899 147.544 Q 249.746 147.544 242.753 144.459 L 242.753 144.459 L 242.753 144.459 Q 235.76 141.373 232.008 135.596 L 232.008 135.596 L 232.008 135.596 Q 228.256 129.819 228.256 122.116 L 228.256 122.116 L 228.256 122.116 Q 228.256 110.124 236.386 103.472 L 236.386 103.472 L 236.386 103.472 Q 244.515 96.82 259.24 96.82 L 259.24 96.82 L 259.24 96.82 Q 268.393 96.82 275.385 99.883 L 275.385 99.883 L 275.385 99.883 Q 282.378 102.947 286.13 108.68 L 286.13 108.68 L 286.13 108.68 Q 289.882 114.413 289.882 122.116 Z  M 361.116 122.116 L 361.116 146.669 L 343.777 146.669 L 343.777 118.09 L 343.777 118.09 Q 343.777 112.794 341.474 110.146 L 341.474 110.146 L 341.474 110.146 Q 339.172 107.498 334.226 107.498 L 334.226 107.498 L 334.226 107.498 Q 327.574 107.498 324.561 111.262 L 324.561 111.262 L 324.561 111.262 Q 321.548 115.026 321.548 123.648 L 321.548 123.648 L 321.548 146.669 L 304.209 146.669 L 304.209 97.739 L 317.455 97.739 L 319.786 103.997 L 320.752 103.997 L 320.752 103.997 Q 323.31 100.627 328.143 98.723 L 328.143 98.723 L 328.143 98.723 Q 332.975 96.82 339.229 96.82 L 339.229 96.82 L 339.229 96.82 Q 353.498 96.82 358.558 103.997 L 358.558 103.997 L 360.093 103.997 L 360.093 103.997 Q 362.651 100.583 367.625 98.701 L 367.625 98.701 L 367.625 98.701 Q 372.6 96.82 378.853 96.82 L 378.853 96.82 L 378.853 96.82 Q 389.655 96.82 395.198 101.087 L 395.198 101.087 L 395.198 101.087 Q 400.741 105.354 400.741 114.764 L 400.741 114.764 L 400.741 146.669 L 383.345 146.669 L 383.345 118.09 L 383.345 118.09 Q 383.345 112.794 381.042 110.146 L 381.042 110.146 L 381.042 110.146 Q 378.74 107.498 373.794 107.498 L 373.794 107.498 L 373.794 107.498 Q 367.426 107.498 364.271 111 L 364.271 111 L 364.271 111 Q 361.116 114.501 361.116 122.116 L 361.116 122.116 Z  M 475.443 122.116 L 475.443 146.669 L 458.103 146.669 L 458.103 118.09 L 458.103 118.09 Q 458.103 112.794 455.801 110.146 L 455.801 110.146 L 455.801 110.146 Q 453.498 107.498 448.552 107.498 L 448.552 107.498 L 448.552 107.498 Q 441.901 107.498 438.888 111.262 L 438.888 111.262 L 438.888 111.262 Q 435.875 115.026 435.875 123.648 L 435.875 123.648 L 435.875 146.669 L 418.535 146.669 L 418.535 97.739 L 431.781 97.739 L 434.112 103.997 L 435.079 103.997 L 435.079 103.997 Q 437.637 100.627 442.469 98.723 L 442.469 98.723 L 442.469 98.723 Q 447.301 96.82 453.555 96.82 L 453.555 96.82 L 453.555 96.82 Q 467.825 96.82 472.884 103.997 L 472.884 103.997 L 474.419 103.997 L 474.419 103.997 Q 476.977 100.583 481.952 98.701 L 481.952 98.701 L 481.952 98.701 Q 486.926 96.82 493.18 96.82 L 493.18 96.82 L 493.18 96.82 Q 503.982 96.82 509.524 101.087 L 509.524 101.087 L 509.524 101.087 Q 515.067 105.354 515.067 114.764 L 515.067 114.764 L 515.067 146.669 L 497.671 146.669 L 497.671 118.09 L 497.671 118.09 Q 497.671 112.794 495.369 110.146 L 495.369 110.146 L 495.369 110.146 Q 493.066 107.498 488.12 107.498 L 488.12 107.498 L 488.12 107.498 Q 481.753 107.498 478.598 111 L 478.598 111 L 478.598 111 Q 475.443 114.501 475.443 122.116 L 475.443 122.116 Z  M 546.676 122.116 L 546.676 122.116 L 546.676 122.116 Q 546.676 129.381 549.775 133.101 L 549.775 133.101 L 549.775 133.101 Q 552.873 136.821 559.866 136.821 L 559.866 136.821 L 559.866 136.821 Q 566.801 136.821 569.843 133.123 L 569.843 133.123 L 569.843 133.123 Q 572.884 129.425 572.884 122.116 L 572.884 122.116 L 572.884 122.116 Q 572.884 114.851 569.814 111.218 L 569.814 111.218 L 569.814 111.218 Q 566.745 107.586 559.752 107.586 L 559.752 107.586 L 559.752 107.586 Q 552.816 107.586 549.746 111.197 L 549.746 111.197 L 549.746 111.197 Q 546.676 114.807 546.676 122.116 Z  M 590.622 122.116 L 590.622 122.116 L 590.622 122.116 Q 590.622 134.064 582.435 140.804 L 582.435 140.804 L 582.435 140.804 Q 574.249 147.544 559.638 147.544 L 559.638 147.544 L 559.638 147.544 Q 550.485 147.544 543.493 144.459 L 543.493 144.459 L 543.493 144.459 Q 536.5 141.373 532.748 135.596 L 532.748 135.596 L 532.748 135.596 Q 528.996 129.819 528.996 122.116 L 528.996 122.116 L 528.996 122.116 Q 528.996 110.124 537.125 103.472 L 537.125 103.472 L 537.125 103.472 Q 545.255 96.82 559.979 96.82 L 559.979 96.82 L 559.979 96.82 Q 569.132 96.82 576.125 99.883 L 576.125 99.883 L 576.125 99.883 Q 583.118 102.947 586.87 108.68 L 586.87 108.68 L 586.87 108.68 Q 590.622 114.413 590.622 122.116 Z  M 625.073 147.544 L 625.073 147.544 L 625.073 147.544 Q 613.874 147.544 607.478 140.848 L 607.478 140.848 L 607.478 140.848 Q 601.082 134.152 601.082 122.291 L 601.082 122.291 L 601.082 122.291 Q 601.082 110.256 607.592 103.538 L 607.592 103.538 L 607.592 103.538 Q 614.101 96.82 625.528 96.82 L 625.528 96.82 L 625.528 96.82 Q 637.524 96.82 643.834 103.997 L 643.834 103.997 L 644.402 103.997 L 644.402 103.997 Q 643.095 98.526 643.095 94.237 L 643.095 94.237 L 643.095 78.569 L 660.491 78.569 L 660.491 146.669 L 647.188 146.669 L 643.834 140.323 L 643.095 140.323 L 643.095 140.323 Q 637.182 147.544 625.073 147.544 Z  M 631.156 136.909 L 631.156 136.909 L 631.156 136.909 Q 637.808 136.909 640.906 133.933 L 640.906 133.933 L 640.906 133.933 Q 644.004 130.957 644.289 123.823 L 644.289 123.823 L 644.289 122.379 L 644.289 122.379 Q 644.289 114.501 641.134 111.087 L 641.134 111.087 L 641.134 111.087 Q 637.978 107.673 630.872 107.673 L 630.872 107.673 L 630.872 107.673 Q 625.073 107.673 621.861 111.459 L 621.861 111.459 L 621.861 111.459 Q 618.649 115.245 618.649 122.466 L 618.649 122.466 L 618.649 122.466 Q 618.649 129.688 621.89 133.298 L 621.89 133.298 L 621.89 133.298 Q 625.13 136.909 631.156 136.909 Z  M 692.441 122.116 L 692.441 122.116 L 692.441 122.116 Q 692.441 129.381 695.54 133.101 L 695.54 133.101 L 695.54 133.101 Q 698.638 136.821 705.631 136.821 L 705.631 136.821 L 705.631 136.821 Q 712.566 136.821 715.608 133.123 L 715.608 133.123 L 715.608 133.123 Q 718.649 129.425 718.649 122.116 L 718.649 122.116 L 718.649 122.116 Q 718.649 114.851 715.579 111.218 L 715.579 111.218 L 715.579 111.218 Q 712.509 107.586 705.517 107.586 L 705.517 107.586 L 705.517 107.586 Q 698.581 107.586 695.511 111.197 L 695.511 111.197 L 695.511 111.197 Q 692.441 114.807 692.441 122.116 Z  M 736.387 122.116 L 736.387 122.116 L 736.387 122.116 Q 736.387 134.064 728.2 140.804 L 728.2 140.804 L 728.2 140.804 Q 720.014 147.544 705.403 147.544 L 705.403 147.544 L 705.403 147.544 Q 696.25 147.544 689.258 144.459 L 689.258 144.459 L 689.258 144.459 Q 682.265 141.373 678.513 135.596 L 678.513 135.596 L 678.513 135.596 Q 674.761 129.819 674.761 122.116 L 674.761 122.116 L 674.761 122.116 Q 674.761 110.124 682.89 103.472 L 682.89 103.472 L 682.89 103.472 Q 691.02 96.82 705.744 96.82 L 705.744 96.82 L 705.744 96.82 Q 714.897 96.82 721.89 99.883 L 721.89 99.883 L 721.89 99.883 Q 728.882 102.947 732.635 108.68 L 732.635 108.68 L 732.635 108.68 Q 736.387 114.413 736.387 122.116 Z  M 786.188 96.82 L 786.188 96.82 L 786.188 96.82 Q 789.713 96.82 792.043 97.213 L 792.043 97.213 L 790.736 109.73 L 790.736 109.73 Q 788.632 109.293 785.619 109.293 L 785.619 109.293 L 785.619 109.293 Q 777.319 109.293 772.686 112.575 L 772.686 112.575 L 772.686 112.575 Q 768.052 115.858 768.052 121.766 L 768.052 121.766 L 768.052 146.669 L 750.713 146.669 L 750.713 97.739 L 763.845 97.739 L 766.404 105.967 L 767.257 105.967 L 767.257 105.967 Q 770.213 101.853 775.244 99.336 L 775.244 99.336 L 775.244 99.336 Q 780.275 96.82 786.188 96.82 Z  M 829.906 106.317 L 829.906 106.317 L 829.906 106.317 Q 824.391 106.317 821.265 109.008 L 821.265 109.008 L 821.265 109.008 Q 818.138 111.7 817.683 116.645 L 817.683 116.645 L 842.015 116.645 L 842.015 116.645 Q 841.901 111.7 838.661 109.008 L 838.661 109.008 L 838.661 109.008 Q 835.42 106.317 829.906 106.317 Z  M 832.35 147.544 L 832.35 147.544 L 832.35 147.544 Q 817.001 147.544 808.36 141.023 L 808.36 141.023 L 808.36 141.023 Q 799.718 134.502 799.718 122.554 L 799.718 122.554 L 799.718 122.554 Q 799.718 110.256 807.706 103.538 L 807.706 103.538 L 807.706 103.538 Q 815.693 96.82 829.792 96.82 L 829.792 96.82 L 829.792 96.82 Q 843.266 96.82 850.77 102.728 L 850.77 102.728 L 850.77 102.728 Q 858.274 108.636 858.274 119.053 L 858.274 119.053 L 858.274 125.53 L 817.285 125.53 L 817.285 125.53 Q 817.569 131.219 821.663 134.414 L 821.663 134.414 L 821.663 134.414 Q 825.756 137.609 833.146 137.609 L 833.146 137.609 L 833.146 137.609 Q 838.888 137.609 844.005 136.69 L 844.005 136.69 L 844.005 136.69 Q 849.121 135.771 854.693 133.758 L 854.693 133.758 L 854.693 144.087 L 854.693 144.087 Q 850.145 145.837 844.971 146.691 L 844.971 146.691 L 844.971 146.691 Q 839.798 147.544 832.35 147.544 Z " fill="rgb(255,255,255)"/><path d=" M 1167.483 133.924 L 1167.483 133.924 L 1167.483 133.924 Q 1167.483 115.112 1175.091 103.463 L 1175.091 103.463 L 1175.091 103.463 Q 1182.699 91.814 1197.523 86.281 L 1197.523 86.281 L 1197.523 86.281 Q 1212.348 80.748 1234.085 80.748 L 1234.085 80.748 L 1234.085 80.748 Q 1241.823 80.748 1252.17 81.793 L 1252.17 81.793 L 1252.17 100.789 L 1252.17 100.789 Q 1243.475 99.621 1233.303 99.621 L 1233.303 99.621 L 1233.303 99.621 Q 1216.087 99.621 1207.653 104.969 L 1207.653 104.969 L 1207.653 104.969 Q 1199.219 110.317 1198.436 122.428 L 1198.436 122.428 L 1199.48 122.428 L 1199.48 122.428 Q 1207.305 111.977 1224.608 111.977 L 1224.608 111.977 L 1224.608 111.977 Q 1241.563 111.977 1250.909 119.692 L 1250.909 119.692 L 1250.909 119.692 Q 1260.256 127.407 1260.256 141.177 L 1260.256 141.177 L 1260.256 141.177 Q 1260.256 155.993 1248.431 164.568 L 1248.431 164.568 L 1248.431 164.568 Q 1236.607 173.144 1215.391 173.144 L 1215.391 173.144 L 1215.391 173.144 Q 1192.872 173.144 1180.177 162.816 L 1180.177 162.816 L 1180.177 162.816 Q 1167.483 152.489 1167.483 133.924 Z  M 1214.609 153.903 L 1214.609 153.903 L 1214.609 153.903 Q 1220.086 153.903 1223.521 150.983 L 1223.521 150.983 L 1223.521 150.983 Q 1226.955 148.063 1226.955 141.669 L 1226.955 141.669 L 1226.955 141.669 Q 1226.955 130.727 1214.957 130.727 L 1214.957 130.727 L 1214.957 130.727 Q 1209.044 130.727 1205.349 133.555 L 1205.349 133.555 L 1205.349 133.555 Q 1201.653 136.382 1201.653 140.44 L 1201.653 140.44 L 1201.653 140.44 Q 1201.653 146.341 1205.218 150.122 L 1205.218 150.122 L 1205.218 150.122 Q 1208.783 153.903 1214.609 153.903 Z  M 1374.225 136.382 L 1374.225 154.517 L 1360.226 154.517 L 1360.226 171.914 L 1326.317 171.914 L 1326.317 154.517 L 1275.626 154.517 L 1275.626 136.69 L 1328.49 82.039 L 1360.226 82.039 L 1360.226 136.382 L 1374.225 136.382 Z  M 1305.362 136.382 L 1326.317 136.382 L 1326.317 125.932 L 1326.317 125.932 Q 1326.317 122.981 1326.621 117.971 L 1326.621 117.971 L 1326.621 117.971 Q 1326.925 112.961 1327.099 112.715 L 1327.099 112.715 L 1326.143 112.715 L 1326.143 112.715 Q 1323.187 117.448 1319.448 121.567 L 1319.448 121.567 L 1305.362 136.382 Z " fill="rgb(255,255,255)"/><path d=" M 97.154 150.244 L 97.154 171.17 L 97.154 171.17 Q 91.196 174.894 84.733 176.79 L 84.733 176.79 L 84.733 176.79 Q 78.269 178.686 71.244 178.686 L 71.244 178.686 L 71.244 178.686 Q 50.28 178.686 38.027 164.567 L 38.027 164.567 L 38.027 164.567 Q 25.775 150.448 25.775 126.272 L 25.775 126.272 L 25.775 126.272 Q 25.775 102.028 38.027 87.909 L 38.027 87.909 L 38.027 87.909 Q 50.28 73.79 71.244 73.79 L 71.244 73.79 L 71.244 73.79 Q 78.269 73.79 84.733 75.686 L 84.733 75.686 L 84.733 75.686 Q 91.196 77.582 97.154 81.306 L 97.154 81.306 L 97.154 102.232 L 97.154 102.232 Q 91.14 97.288 85.295 94.986 L 85.295 94.986 L 85.295 94.986 Q 79.45 92.683 72.986 92.683 L 72.986 92.683 L 72.986 92.683 Q 61.408 92.683 54.776 101.622 L 54.776 101.622 L 54.776 101.622 Q 48.144 110.561 48.144 126.272 L 48.144 126.272 L 48.144 126.272 Q 48.144 141.915 54.776 150.854 L 54.776 150.854 L 54.776 150.854 Q 61.408 159.793 72.986 159.793 L 72.986 159.793 L 72.986 159.793 Q 79.45 159.793 85.295 157.49 L 85.295 157.49 L 85.295 157.49 Q 91.14 155.188 97.154 150.244 L 97.154 150.244 Z " fill="rgb(255,255,255)"/><path d=" M 97.154 102.232 L 97.154 125.53 L 123.693 125.53 L 145.59 102.232 L 97.154 102.232 Z " fill="rgb(255,255,255)"/><path d=" M 97.154 150.244 L 97.154 126.946 L 123.693 126.946 L 145.59 150.244 L 97.154 150.244 Z " fill="rgb(255,255,255)"/><rect x="904.173" y="71.066" width="243.419" height="11.985" transform="matrix(1,0,0,1,0,0)" fill="rgb(213,0,0)"/><rect x="904.173" y="95.036" width="243.419" height="11.985" transform="matrix(1,0,0,1,0,0)" fill="rgb(213,99,0)"/><rect x="904.173" y="119.007" width="243.419" height="11.985" transform="matrix(1,0,0,1,0,0)" fill="rgb(183,177,0)"/><rect x="904.173" y="166.949" width="243.419" height="11.985" transform="matrix(1,0,0,1,0,0)" fill="rgb(55,141,221)"/><rect x="904.173" y="142.978" width="243.419" height="11.985" transform="matrix(1,0,0,1,0,0)" fill="rgb(80,172,30)"/></g></svg>