<?xml version="1.0" encoding="UTF-8" standalone="no"?><!-- Generator: Gravit.io --><svg xmlns="http://www.w3.org/2000/svg" xmlns:xlink="http://www.w3.org/1999/xlink" style="isolation:isolate" viewBox="0 0 992 250" width="992pt" height="250pt"><defs><clipPath id="_clipPath_YPsgdypHhY3A7738bNN2V3YYTVMsRtYo"><rect width="992" height="250"/></clipPath></defs><g clip-path="url(#_clipPath_YPsgdypHhY3A7738bNN2V3YYTVMsRtYo)"><path d=" M 589.805 53.49 L 592.464 53.49 L 593.439 93.552 L 589.805 93.552 L 589.805 93.552 Q 587.234 78.484 577.175 69.311 L 577.175 69.311 L 577.175 69.311 Q 567.115 60.138 555.415 60.138 L 555.415 60.138 L 555.415 60.138 Q 546.375 60.138 541.101 64.968 L 541.101 64.968 L 541.101 64.968 Q 535.828 69.798 535.828 76.091 L 535.828 76.091 L 535.828 76.091 Q 535.828 80.08 537.689 83.182 L 537.689 83.182 L 537.689 83.182 Q 540.259 87.348 545.932 91.425 L 545.932 91.425 L 545.932 91.425 Q 550.097 94.35 565.165 101.795 L 565.165 101.795 L 565.165 101.795 Q 586.259 112.165 593.616 121.382 L 593.616 121.382 L 593.616 121.382 Q 600.884 130.6 600.884 142.477 L 600.884 142.477 L 600.884 142.477 Q 600.884 157.544 589.14 168.402 L 589.14 168.402 L 589.14 168.402 Q 577.396 179.259 559.315 179.259 L 559.315 179.259 L 559.315 179.259 Q 553.643 179.259 548.591 178.107 L 548.591 178.107 L 548.591 178.107 Q 543.539 176.955 535.916 173.764 L 535.916 173.764 L 535.916 173.764 Q 531.662 171.991 528.914 171.991 L 528.914 171.991 L 528.914 171.991 Q 526.61 171.991 524.04 173.764 L 524.04 173.764 L 524.04 173.764 Q 521.469 175.537 519.874 179.171 L 519.874 179.171 L 516.594 179.171 L 516.594 133.791 L 519.874 133.791 L 519.874 133.791 Q 523.774 152.935 534.897 162.995 L 534.897 162.995 L 534.897 162.995 Q 546.02 173.055 558.872 173.055 L 558.872 173.055 L 558.872 173.055 Q 568.799 173.055 574.693 167.648 L 574.693 167.648 L 574.693 167.648 Q 580.587 162.242 580.587 155.063 L 580.587 155.063 L 580.587 155.063 Q 580.587 150.808 578.327 146.82 L 578.327 146.82 L 578.327 146.82 Q 576.067 142.831 571.458 139.242 L 571.458 139.242 L 571.458 139.242 Q 566.849 135.652 555.149 129.891 L 555.149 129.891 L 555.149 129.891 Q 538.753 121.826 531.573 116.153 L 531.573 116.153 L 531.573 116.153 Q 524.394 110.481 520.539 103.479 L 520.539 103.479 L 520.539 103.479 Q 516.683 96.477 516.683 88.057 L 516.683 88.057 L 516.683 88.057 Q 516.683 73.698 527.23 63.594 L 527.23 63.594 L 527.23 63.594 Q 537.778 53.49 553.82 53.49 L 553.82 53.49 L 553.82 53.49 Q 559.67 53.49 565.165 54.908 L 565.165 54.908 L 565.165 54.908 Q 569.331 55.972 575.313 58.852 L 575.313 58.852 L 575.313 58.852 Q 581.296 61.733 583.689 61.733 L 583.689 61.733 L 583.689 61.733 Q 585.993 61.733 587.323 60.315 L 587.323 60.315 L 587.323 60.315 Q 588.652 58.897 589.805 53.49 L 589.805 53.49 Z  M 644.225 63.24 L 647.15 63.24 L 647.15 93.552 L 666.826 93.552 L 666.826 102.326 L 647.15 102.326 L 647.15 153.467 L 647.15 153.467 Q 647.15 160.646 647.814 162.729 L 647.814 162.729 L 647.814 162.729 Q 648.479 164.812 650.163 166.097 L 650.163 166.097 L 650.163 166.097 Q 651.847 167.382 653.265 167.382 L 653.265 167.382 L 653.265 167.382 Q 659.026 167.382 664.167 158.608 L 664.167 158.608 L 666.826 160.558 L 666.826 160.558 Q 659.647 177.575 643.516 177.575 L 643.516 177.575 L 643.516 177.575 Q 635.627 177.575 630.177 173.188 L 630.177 173.188 L 630.177 173.188 Q 624.726 168.801 623.219 163.394 L 623.219 163.394 L 623.219 163.394 Q 622.333 160.381 622.333 147.086 L 622.333 147.086 L 622.333 102.326 L 611.52 102.326 L 611.52 99.224 L 611.52 99.224 Q 622.687 91.336 630.531 82.65 L 630.531 82.65 L 630.531 82.65 Q 638.375 73.964 644.225 63.24 L 644.225 63.24 Z  M 713.801 91.07 L 713.801 91.07 L 713.801 91.07 Q 724.614 91.07 733.921 96.654 L 733.921 96.654 L 733.921 96.654 Q 743.227 102.238 748.057 112.519 L 748.057 112.519 L 748.057 112.519 Q 752.888 122.8 752.888 135.032 L 752.888 135.032 L 752.888 135.032 Q 752.888 152.67 743.936 164.546 L 743.936 164.546 L 743.936 164.546 Q 733.123 178.905 714.067 178.905 L 714.067 178.905 L 714.067 178.905 Q 695.366 178.905 685.262 165.787 L 685.262 165.787 L 685.262 165.787 Q 675.157 152.67 675.157 135.386 L 675.157 135.386 L 675.157 135.386 Q 675.157 117.571 685.483 104.321 L 685.483 104.321 L 685.483 104.321 Q 695.809 91.07 713.801 91.07 Z  M 714.156 97.363 L 714.156 97.363 L 714.156 97.363 Q 709.635 97.363 706.4 100.775 L 706.4 100.775 L 706.4 100.775 Q 703.165 104.188 702.146 114.247 L 702.146 114.247 L 702.146 114.247 Q 701.127 124.307 701.127 142.211 L 701.127 142.211 L 701.127 142.211 Q 701.127 151.695 702.368 159.937 L 702.368 159.937 L 702.368 159.937 Q 703.342 166.23 706.533 169.51 L 706.533 169.51 L 706.533 169.51 Q 709.724 172.789 713.801 172.789 L 713.801 172.789 L 713.801 172.789 Q 717.79 172.789 720.448 170.573 L 720.448 170.573 L 720.448 170.573 Q 723.905 167.56 725.057 162.153 L 725.057 162.153 L 725.057 162.153 Q 726.83 153.733 726.83 128.118 L 726.83 128.118 L 726.83 128.118 Q 726.83 113.051 725.146 107.423 L 725.146 107.423 L 725.146 107.423 Q 723.462 101.795 720.183 99.224 L 720.183 99.224 L 720.183 99.224 Q 717.878 97.363 714.156 97.363 Z  M 766.005 93.552 L 799.863 93.552 L 799.863 112.342 L 799.863 112.342 Q 808.106 99.49 814.31 95.28 L 814.31 95.28 L 814.31 95.28 Q 820.514 91.07 826.275 91.07 L 826.275 91.07 L 826.275 91.07 Q 831.239 91.07 834.208 94.128 L 834.208 94.128 L 834.208 94.128 Q 837.177 97.186 837.177 102.77 L 837.177 102.77 L 837.177 102.77 Q 837.177 108.708 834.297 111.987 L 834.297 111.987 L 834.297 111.987 Q 831.416 115.267 827.339 115.267 L 827.339 115.267 L 827.339 115.267 Q 822.641 115.267 819.185 112.253 L 819.185 112.253 L 819.185 112.253 Q 815.728 109.24 815.108 108.885 L 815.108 108.885 L 815.108 108.885 Q 814.221 108.353 813.069 108.353 L 813.069 108.353 L 813.069 108.353 Q 810.499 108.353 808.194 110.303 L 808.194 110.303 L 808.194 110.303 Q 804.56 113.317 802.699 118.901 L 802.699 118.901 L 802.699 118.901 Q 799.863 127.498 799.863 137.868 L 799.863 137.868 L 799.863 156.924 L 799.952 161.887 L 799.952 161.887 Q 799.952 166.939 800.572 168.357 L 800.572 168.357 L 800.572 168.357 Q 801.636 170.75 803.718 171.858 L 803.718 171.858 L 803.718 171.858 Q 805.801 172.966 810.765 173.232 L 810.765 173.232 L 810.765 176.423 L 766.005 176.423 L 766.005 173.232 L 766.005 173.232 Q 771.412 172.789 773.318 170.263 L 773.318 170.263 L 773.318 170.263 Q 775.223 167.737 775.223 156.924 L 775.223 156.924 L 775.223 111.101 L 775.223 111.101 Q 775.223 104.01 774.514 102.061 L 774.514 102.061 L 774.514 102.061 Q 773.628 99.579 771.944 98.427 L 771.944 98.427 L 771.944 98.427 Q 770.26 97.274 766.005 96.831 L 766.005 96.831 L 766.005 93.552 Z  M 881.493 186.704 L 884.063 179.791 L 857.297 118.369 L 857.297 118.369 Q 851.27 104.454 848.389 101.263 L 848.389 101.263 L 848.389 101.263 Q 845.508 98.072 841.431 96.831 L 841.431 96.831 L 841.431 93.552 L 885.482 93.552 L 885.482 96.831 L 885.482 96.831 Q 881.139 97.009 879.366 98.515 L 879.366 98.515 L 879.366 98.515 Q 877.593 100.022 877.593 102.149 L 877.593 102.149 L 877.593 102.149 Q 877.593 105.517 882.025 115.444 L 882.025 115.444 L 896.206 147.883 L 905.867 122.8 L 905.867 122.8 Q 911.096 109.417 911.096 104.188 L 911.096 104.188 L 911.096 104.188 Q 911.096 100.908 908.925 98.958 L 908.925 98.958 L 908.925 98.958 Q 906.753 97.009 901.258 96.831 L 901.258 96.831 L 901.258 93.552 L 929 93.552 L 929 96.831 L 929 96.831 Q 924.923 97.274 922.353 99.978 L 922.353 99.978 L 922.353 99.978 Q 919.782 102.681 913.755 118.369 L 913.755 118.369 L 890.09 179.791 L 890.09 179.791 Q 881.139 202.835 876.796 208.153 L 876.796 208.153 L 876.796 208.153 Q 870.68 215.598 861.462 215.598 L 861.462 215.598 L 861.462 215.598 Q 854.106 215.598 849.541 211.388 L 849.541 211.388 L 849.541 211.388 Q 844.977 207.178 844.977 201.24 L 844.977 201.24 L 844.977 201.24 Q 844.977 196.099 848.123 192.731 L 848.123 192.731 L 848.123 192.731 Q 851.27 189.363 855.878 189.363 L 855.878 189.363 L 855.878 189.363 Q 860.31 189.363 863.013 192.199 L 863.013 192.199 L 863.013 192.199 Q 865.717 195.036 865.805 200.974 L 865.805 200.974 L 865.805 200.974 Q 865.894 204.342 866.603 205.317 L 866.603 205.317 L 866.603 205.317 Q 867.312 206.292 868.641 206.292 L 868.641 206.292 L 868.641 206.292 Q 870.769 206.292 873.162 203.722 L 873.162 203.722 L 873.162 203.722 Q 876.707 199.999 881.493 186.704 L 881.493 186.704 Z  M 186.351 53.49 L 189.808 53.49 L 189.808 95.147 L 186.351 95.147 L 186.351 95.147 Q 182.451 78.839 171.815 70.153 L 171.815 70.153 L 171.815 70.153 Q 161.179 61.467 147.707 61.467 L 147.707 61.467 L 147.707 61.467 Q 136.451 61.467 127.056 67.937 L 127.056 67.937 L 127.056 67.937 Q 117.661 74.407 113.318 84.866 L 113.318 84.866 L 113.318 84.866 Q 107.734 98.249 107.734 114.646 L 107.734 114.646 L 107.734 114.646 Q 107.734 130.777 111.811 144.028 L 111.811 144.028 L 111.811 144.028 Q 115.888 157.278 124.574 164.059 L 124.574 164.059 L 124.574 164.059 Q 133.26 170.839 147.087 170.839 L 147.087 170.839 L 147.087 170.839 Q 158.432 170.839 167.871 165.876 L 167.871 165.876 L 167.871 165.876 Q 177.311 160.912 187.769 148.77 L 187.769 148.77 L 187.769 159.14 L 187.769 159.14 Q 177.665 169.687 166.719 174.429 L 166.719 174.429 L 166.719 174.429 Q 155.773 179.171 141.149 179.171 L 141.149 179.171 L 141.149 179.171 Q 121.915 179.171 106.981 171.46 L 106.981 171.46 L 106.981 171.46 Q 92.046 163.749 83.937 149.302 L 83.937 149.302 L 83.937 149.302 Q 75.827 134.854 75.827 118.546 L 75.827 118.546 L 75.827 118.546 Q 75.827 101.351 84.823 85.929 L 84.823 85.929 L 84.823 85.929 Q 93.819 70.507 109.108 61.999 L 109.108 61.999 L 109.108 61.999 Q 124.397 53.49 141.592 53.49 L 141.592 53.49 L 141.592 53.49 Q 154.266 53.49 168.359 58.985 L 168.359 58.985 L 168.359 58.985 Q 176.513 62.176 178.729 62.176 L 178.729 62.176 L 178.729 62.176 Q 181.565 62.176 183.648 60.093 L 183.648 60.093 L 183.648 60.093 Q 185.731 58.01 186.351 53.49 L 186.351 53.49 Z  M 251.584 164.192 L 251.584 164.192 L 251.584 164.192 Q 236.428 177.575 224.374 177.575 L 224.374 177.575 L 224.374 177.575 Q 217.284 177.575 212.586 172.922 L 212.586 172.922 L 212.586 172.922 Q 207.889 168.269 207.889 161.267 L 207.889 161.267 L 207.889 161.267 Q 207.889 151.783 216.043 144.205 L 216.043 144.205 L 216.043 144.205 Q 224.197 136.627 251.584 124.041 L 251.584 124.041 L 251.584 115.71 L 251.584 115.71 Q 251.584 106.315 250.565 103.878 L 250.565 103.878 L 250.565 103.878 Q 249.546 101.44 246.71 99.623 L 246.71 99.623 L 246.71 99.623 Q 243.873 97.806 240.328 97.806 L 240.328 97.806 L 240.328 97.806 Q 234.567 97.806 230.844 100.377 L 230.844 100.377 L 230.844 100.377 Q 228.54 101.972 228.54 104.099 L 228.54 104.099 L 228.54 104.099 Q 228.54 105.96 231.022 108.708 L 231.022 108.708 L 231.022 108.708 Q 234.39 112.519 234.39 116.064 L 234.39 116.064 L 234.39 116.064 Q 234.39 120.407 231.155 123.465 L 231.155 123.465 L 231.155 123.465 Q 227.919 126.523 222.69 126.523 L 222.69 126.523 L 222.69 126.523 Q 217.106 126.523 213.339 123.155 L 213.339 123.155 L 213.339 123.155 Q 209.573 119.787 209.573 115.267 L 209.573 115.267 L 209.573 115.267 Q 209.573 108.885 214.625 103.08 L 214.625 103.08 L 214.625 103.08 Q 219.677 97.274 228.717 94.172 L 228.717 94.172 L 228.717 94.172 Q 237.758 91.07 247.507 91.07 L 247.507 91.07 L 247.507 91.07 Q 259.295 91.07 266.164 96.078 L 266.164 96.078 L 266.164 96.078 Q 273.033 101.086 275.072 106.935 L 275.072 106.935 L 275.072 106.935 Q 276.313 110.658 276.313 124.041 L 276.313 124.041 L 276.313 156.215 L 276.313 156.215 Q 276.313 161.887 276.756 163.35 L 276.756 163.35 L 276.756 163.35 Q 277.199 164.812 278.085 165.521 L 278.085 165.521 L 278.085 165.521 Q 278.972 166.23 280.124 166.23 L 280.124 166.23 L 280.124 166.23 Q 282.428 166.23 284.821 162.951 L 284.821 162.951 L 287.48 165.078 L 287.48 165.078 Q 283.049 171.637 278.307 174.606 L 278.307 174.606 L 278.307 174.606 Q 273.565 177.575 267.538 177.575 L 267.538 177.575 L 267.538 177.575 Q 260.447 177.575 256.459 174.251 L 256.459 174.251 L 256.459 174.251 Q 252.471 170.928 251.584 164.192 Z  M 251.584 157.722 L 251.584 157.722 L 251.584 129.98 L 251.584 129.98 Q 240.86 136.273 235.63 143.452 L 235.63 143.452 L 235.63 143.452 Q 232.174 148.238 232.174 153.113 L 232.174 153.113 L 232.174 153.113 Q 232.174 157.19 235.099 160.292 L 235.099 160.292 L 235.099 160.292 Q 237.314 162.685 241.303 162.685 L 241.303 162.685 L 241.303 162.685 Q 245.735 162.685 251.584 157.722 Z  M 338.178 178.905 L 334.012 178.905 L 306.093 114.646 L 306.093 114.646 Q 301.041 103.036 298.205 99.933 L 298.205 99.933 L 298.205 99.933 Q 296.166 97.629 292.178 96.831 L 292.178 96.831 L 292.178 93.552 L 336.228 93.552 L 336.228 96.831 L 336.228 96.831 Q 332.062 96.831 330.556 98.338 L 330.556 98.338 L 330.556 98.338 Q 328.428 100.288 328.428 102.947 L 328.428 102.947 L 328.428 102.947 Q 328.428 106.226 332.328 115.267 L 332.328 115.267 L 345.978 146.377 L 356.879 119.521 L 356.879 119.521 Q 361.577 107.999 361.577 103.213 L 361.577 103.213 L 361.577 103.213 Q 361.577 100.465 359.583 98.737 L 359.583 98.737 L 359.583 98.737 Q 357.588 97.009 352.536 96.831 L 352.536 96.831 L 352.536 93.552 L 379.658 93.552 L 379.658 96.831 L 379.658 96.831 Q 375.758 97.363 373.276 99.756 L 373.276 99.756 L 373.276 99.756 Q 370.795 102.149 365.831 113.849 L 365.831 113.849 L 338.178 178.905 Z  M 457.565 132.018 L 457.565 132.018 L 412.097 132.018 L 412.097 132.018 Q 412.895 148.504 420.872 158.076 L 420.872 158.076 L 420.872 158.076 Q 426.987 165.433 435.585 165.433 L 435.585 165.433 L 435.585 165.433 Q 440.903 165.433 445.246 162.463 L 445.246 162.463 L 445.246 162.463 Q 449.589 159.494 454.552 151.783 L 454.552 151.783 L 457.565 153.733 L 457.565 153.733 Q 450.829 167.471 442.675 173.188 L 442.675 173.188 L 442.675 173.188 Q 434.521 178.905 423.797 178.905 L 423.797 178.905 L 423.797 178.905 Q 405.361 178.905 395.877 164.723 L 395.877 164.723 L 395.877 164.723 Q 388.255 153.29 388.255 136.361 L 388.255 136.361 L 388.255 136.361 Q 388.255 115.621 399.467 103.346 L 399.467 103.346 L 399.467 103.346 Q 410.679 91.07 425.746 91.07 L 425.746 91.07 L 425.746 91.07 Q 438.332 91.07 447.594 101.396 L 447.594 101.396 L 447.594 101.396 Q 456.856 111.721 457.565 132.018 Z  M 411.654 126.08 L 435.762 126.08 L 435.762 126.08 Q 435.762 111.81 434.211 106.492 L 434.211 106.492 L 434.211 106.492 Q 432.66 101.174 429.38 98.427 L 429.38 98.427 L 429.38 98.427 Q 427.519 96.831 424.417 96.831 L 424.417 96.831 L 424.417 96.831 Q 419.808 96.831 416.883 101.351 L 416.883 101.351 L 416.883 101.351 Q 411.654 109.24 411.654 122.978 L 411.654 122.978 L 411.654 126.08 Z " fill="rgb(74,74,74)"/><path d=" M 587.135 49.931 L 589.794 49.931 L 590.769 89.993 L 587.135 89.993 L 587.135 89.993 Q 584.565 74.925 574.505 65.752 L 574.505 65.752 L 574.505 65.752 Q 564.445 56.578 552.746 56.578 L 552.746 56.578 L 552.746 56.578 Q 543.705 56.578 538.432 61.409 L 538.432 61.409 L 538.432 61.409 Q 533.158 66.239 533.158 72.532 L 533.158 72.532 L 533.158 72.532 Q 533.158 76.521 535.02 79.623 L 535.02 79.623 L 535.02 79.623 Q 537.59 83.788 543.262 87.865 L 543.262 87.865 L 543.262 87.865 Q 547.428 90.79 562.496 98.235 L 562.496 98.235 L 562.496 98.235 Q 583.59 108.605 590.946 117.823 L 590.946 117.823 L 590.946 117.823 Q 598.214 127.041 598.214 138.918 L 598.214 138.918 L 598.214 138.918 Q 598.214 153.985 586.471 164.843 L 586.471 164.843 L 586.471 164.843 Q 574.727 175.7 556.646 175.7 L 556.646 175.7 L 556.646 175.7 Q 550.973 175.7 545.921 174.548 L 545.921 174.548 L 545.921 174.548 Q 540.869 173.396 533.247 170.205 L 533.247 170.205 L 533.247 170.205 Q 528.993 168.432 526.245 168.432 L 526.245 168.432 L 526.245 168.432 Q 523.941 168.432 521.37 170.205 L 521.37 170.205 L 521.37 170.205 Q 518.8 171.977 517.204 175.611 L 517.204 175.611 L 513.925 175.611 L 513.925 130.232 L 517.204 130.232 L 517.204 130.232 Q 521.104 149.376 532.228 159.436 L 532.228 159.436 L 532.228 159.436 Q 543.351 169.496 556.203 169.496 L 556.203 169.496 L 556.203 169.496 Q 566.129 169.496 572.023 164.089 L 572.023 164.089 L 572.023 164.089 Q 577.918 158.683 577.918 151.503 L 577.918 151.503 L 577.918 151.503 Q 577.918 147.249 575.657 143.261 L 575.657 143.261 L 575.657 143.261 Q 573.397 139.272 568.788 135.683 L 568.788 135.683 L 568.788 135.683 Q 564.18 132.093 552.48 126.332 L 552.48 126.332 L 552.48 126.332 Q 536.083 118.266 528.904 112.594 L 528.904 112.594 L 528.904 112.594 Q 521.725 106.921 517.869 99.919 L 517.869 99.919 L 517.869 99.919 Q 514.014 92.918 514.014 84.497 L 514.014 84.497 L 514.014 84.497 Q 514.014 70.139 524.561 60.035 L 524.561 60.035 L 524.561 60.035 Q 535.108 49.931 551.151 49.931 L 551.151 49.931 L 551.151 49.931 Q 557 49.931 562.496 51.349 L 562.496 51.349 L 562.496 51.349 Q 566.661 52.413 572.644 55.293 L 572.644 55.293 L 572.644 55.293 Q 578.627 58.174 581.02 58.174 L 581.02 58.174 L 581.02 58.174 Q 583.324 58.174 584.654 56.756 L 584.654 56.756 L 584.654 56.756 Q 585.983 55.337 587.135 49.931 L 587.135 49.931 Z  M 641.555 59.68 L 644.48 59.68 L 644.48 89.993 L 664.157 89.993 L 664.157 98.767 L 644.48 98.767 L 644.48 149.908 L 644.48 149.908 Q 644.48 157.087 645.145 159.17 L 645.145 159.17 L 645.145 159.17 Q 645.81 161.253 647.494 162.538 L 647.494 162.538 L 647.494 162.538 Q 649.178 163.823 650.596 163.823 L 650.596 163.823 L 650.596 163.823 Q 656.357 163.823 661.498 155.049 L 661.498 155.049 L 664.157 156.999 L 664.157 156.999 Q 656.977 174.016 640.846 174.016 L 640.846 174.016 L 640.846 174.016 Q 632.958 174.016 627.507 169.629 L 627.507 169.629 L 627.507 169.629 Q 622.056 165.241 620.55 159.835 L 620.55 159.835 L 620.55 159.835 Q 619.663 156.821 619.663 143.527 L 619.663 143.527 L 619.663 98.767 L 608.85 98.767 L 608.85 95.665 L 608.85 95.665 Q 620.018 87.777 627.862 79.091 L 627.862 79.091 L 627.862 79.091 Q 635.706 70.405 641.555 59.68 L 641.555 59.68 Z  M 711.132 87.511 L 711.132 87.511 L 711.132 87.511 Q 721.945 87.511 731.251 93.095 L 731.251 93.095 L 731.251 93.095 Q 740.558 98.679 745.388 108.96 L 745.388 108.96 L 745.388 108.96 Q 750.218 119.241 750.218 131.473 L 750.218 131.473 L 750.218 131.473 Q 750.218 149.11 741.267 160.987 L 741.267 160.987 L 741.267 160.987 Q 730.453 175.345 711.398 175.345 L 711.398 175.345 L 711.398 175.345 Q 692.696 175.345 682.592 162.228 L 682.592 162.228 L 682.592 162.228 Q 672.488 149.11 672.488 131.827 L 672.488 131.827 L 672.488 131.827 Q 672.488 114.012 682.814 100.761 L 682.814 100.761 L 682.814 100.761 Q 693.139 87.511 711.132 87.511 Z  M 711.486 93.804 L 711.486 93.804 L 711.486 93.804 Q 706.966 93.804 703.731 97.216 L 703.731 97.216 L 703.731 97.216 Q 700.496 100.629 699.477 110.688 L 699.477 110.688 L 699.477 110.688 Q 698.457 120.748 698.457 138.652 L 698.457 138.652 L 698.457 138.652 Q 698.457 148.135 699.698 156.378 L 699.698 156.378 L 699.698 156.378 Q 700.673 162.671 703.864 165.95 L 703.864 165.95 L 703.864 165.95 Q 707.055 169.23 711.132 169.23 L 711.132 169.23 L 711.132 169.23 Q 715.12 169.23 717.779 167.014 L 717.779 167.014 L 717.779 167.014 Q 721.236 164.001 722.388 158.594 L 722.388 158.594 L 722.388 158.594 Q 724.161 150.174 724.161 124.559 L 724.161 124.559 L 724.161 124.559 Q 724.161 109.492 722.477 103.864 L 722.477 103.864 L 722.477 103.864 Q 720.793 98.235 717.513 95.665 L 717.513 95.665 L 717.513 95.665 Q 715.209 93.804 711.486 93.804 Z  M 763.336 89.993 L 797.194 89.993 L 797.194 108.783 L 797.194 108.783 Q 805.436 95.931 811.641 91.721 L 811.641 91.721 L 811.641 91.721 Q 817.845 87.511 823.606 87.511 L 823.606 87.511 L 823.606 87.511 Q 828.569 87.511 831.538 90.569 L 831.538 90.569 L 831.538 90.569 Q 834.508 93.627 834.508 99.21 L 834.508 99.21 L 834.508 99.21 Q 834.508 105.149 831.627 108.428 L 831.627 108.428 L 831.627 108.428 Q 828.747 111.708 824.67 111.708 L 824.67 111.708 L 824.67 111.708 Q 819.972 111.708 816.515 108.694 L 816.515 108.694 L 816.515 108.694 Q 813.059 105.681 812.438 105.326 L 812.438 105.326 L 812.438 105.326 Q 811.552 104.794 810.4 104.794 L 810.4 104.794 L 810.4 104.794 Q 807.829 104.794 805.525 106.744 L 805.525 106.744 L 805.525 106.744 Q 801.891 109.758 800.03 115.341 L 800.03 115.341 L 800.03 115.341 Q 797.194 123.939 797.194 134.309 L 797.194 134.309 L 797.194 153.365 L 797.282 158.328 L 797.282 158.328 Q 797.282 163.38 797.903 164.798 L 797.903 164.798 L 797.903 164.798 Q 798.966 167.191 801.049 168.299 L 801.049 168.299 L 801.049 168.299 Q 803.132 169.407 808.095 169.673 L 808.095 169.673 L 808.095 172.864 L 763.336 172.864 L 763.336 169.673 L 763.336 169.673 Q 768.743 169.23 770.648 166.704 L 770.648 166.704 L 770.648 166.704 Q 772.554 164.178 772.554 153.365 L 772.554 153.365 L 772.554 107.542 L 772.554 107.542 Q 772.554 100.451 771.845 98.501 L 771.845 98.501 L 771.845 98.501 Q 770.958 96.02 769.274 94.867 L 769.274 94.867 L 769.274 94.867 Q 767.59 93.715 763.336 93.272 L 763.336 93.272 L 763.336 89.993 Z  M 878.824 183.145 L 881.394 176.232 L 854.627 114.81 L 854.627 114.81 Q 848.6 100.894 845.72 97.704 L 845.72 97.704 L 845.72 97.704 Q 842.839 94.513 838.762 93.272 L 838.762 93.272 L 838.762 89.993 L 882.812 89.993 L 882.812 93.272 L 882.812 93.272 Q 878.469 93.449 876.697 94.956 L 876.697 94.956 L 876.697 94.956 Q 874.924 96.463 874.924 98.59 L 874.924 98.59 L 874.924 98.59 Q 874.924 101.958 879.356 111.885 L 879.356 111.885 L 893.537 144.324 L 903.198 119.241 L 903.198 119.241 Q 908.427 105.858 908.427 100.629 L 908.427 100.629 L 908.427 100.629 Q 908.427 97.349 906.255 95.399 L 906.255 95.399 L 906.255 95.399 Q 904.084 93.449 898.589 93.272 L 898.589 93.272 L 898.589 89.993 L 926.331 89.993 L 926.331 93.272 L 926.331 93.272 Q 922.254 93.715 919.683 96.419 L 919.683 96.419 L 919.683 96.419 Q 917.113 99.122 911.086 114.81 L 911.086 114.81 L 887.421 176.232 L 887.421 176.232 Q 878.469 199.276 874.126 204.594 L 874.126 204.594 L 874.126 204.594 Q 868.011 212.039 858.793 212.039 L 858.793 212.039 L 858.793 212.039 Q 851.436 212.039 846.872 207.829 L 846.872 207.829 L 846.872 207.829 Q 842.307 203.619 842.307 197.681 L 842.307 197.681 L 842.307 197.681 Q 842.307 192.54 845.454 189.172 L 845.454 189.172 L 845.454 189.172 Q 848.6 185.804 853.209 185.804 L 853.209 185.804 L 853.209 185.804 Q 857.641 185.804 860.344 188.64 L 860.344 188.64 L 860.344 188.64 Q 863.047 191.477 863.136 197.415 L 863.136 197.415 L 863.136 197.415 Q 863.224 200.783 863.934 201.758 L 863.934 201.758 L 863.934 201.758 Q 864.643 202.733 865.972 202.733 L 865.972 202.733 L 865.972 202.733 Q 868.099 202.733 870.492 200.162 L 870.492 200.162 L 870.492 200.162 Q 874.038 196.44 878.824 183.145 L 878.824 183.145 Z  M 183.682 49.931 L 187.138 49.931 L 187.138 91.588 L 183.682 91.588 L 183.682 91.588 Q 179.782 75.28 169.146 66.594 L 169.146 66.594 L 169.146 66.594 Q 158.51 57.908 145.038 57.908 L 145.038 57.908 L 145.038 57.908 Q 133.782 57.908 124.387 64.378 L 124.387 64.378 L 124.387 64.378 Q 114.992 70.848 110.649 81.307 L 110.649 81.307 L 110.649 81.307 Q 105.065 94.69 105.065 111.087 L 105.065 111.087 L 105.065 111.087 Q 105.065 127.218 109.142 140.469 L 109.142 140.469 L 109.142 140.469 Q 113.219 153.719 121.905 160.5 L 121.905 160.5 L 121.905 160.5 Q 130.591 167.28 144.418 167.28 L 144.418 167.28 L 144.418 167.28 Q 155.762 167.28 165.202 162.317 L 165.202 162.317 L 165.202 162.317 Q 174.641 157.353 185.1 145.211 L 185.1 145.211 L 185.1 155.58 L 185.1 155.58 Q 174.996 166.128 164.05 170.87 L 164.05 170.87 L 164.05 170.87 Q 153.103 175.611 138.479 175.611 L 138.479 175.611 L 138.479 175.611 Q 119.246 175.611 104.311 167.9 L 104.311 167.9 L 104.311 167.9 Q 89.377 160.189 81.267 145.742 L 81.267 145.742 L 81.267 145.742 Q 73.157 131.295 73.157 114.987 L 73.157 114.987 L 73.157 114.987 Q 73.157 97.792 82.153 82.37 L 82.153 82.37 L 82.153 82.37 Q 91.15 66.948 106.439 58.44 L 106.439 58.44 L 106.439 58.44 Q 121.728 49.931 138.922 49.931 L 138.922 49.931 L 138.922 49.931 Q 151.597 49.931 165.689 55.426 L 165.689 55.426 L 165.689 55.426 Q 173.843 58.617 176.059 58.617 L 176.059 58.617 L 176.059 58.617 Q 178.895 58.617 180.978 56.534 L 180.978 56.534 L 180.978 56.534 Q 183.061 54.451 183.682 49.931 L 183.682 49.931 Z  M 248.915 160.633 L 248.915 160.633 L 248.915 160.633 Q 233.759 174.016 221.705 174.016 L 221.705 174.016 L 221.705 174.016 Q 214.614 174.016 209.917 169.363 L 209.917 169.363 L 209.917 169.363 Q 205.219 164.71 205.219 157.708 L 205.219 157.708 L 205.219 157.708 Q 205.219 148.224 213.373 140.646 L 213.373 140.646 L 213.373 140.646 Q 221.528 133.068 248.915 120.482 L 248.915 120.482 L 248.915 112.151 L 248.915 112.151 Q 248.915 102.756 247.896 100.318 L 247.896 100.318 L 247.896 100.318 Q 246.876 97.881 244.04 96.064 L 244.04 96.064 L 244.04 96.064 Q 241.204 94.247 237.659 94.247 L 237.659 94.247 L 237.659 94.247 Q 231.897 94.247 228.175 96.817 L 228.175 96.817 L 228.175 96.817 Q 225.871 98.413 225.871 100.54 L 225.871 100.54 L 225.871 100.54 Q 225.871 102.401 228.352 105.149 L 228.352 105.149 L 228.352 105.149 Q 231.72 108.96 231.72 112.505 L 231.72 112.505 L 231.72 112.505 Q 231.72 116.848 228.485 119.906 L 228.485 119.906 L 228.485 119.906 Q 225.25 122.964 220.021 122.964 L 220.021 122.964 L 220.021 122.964 Q 214.437 122.964 210.67 119.596 L 210.67 119.596 L 210.67 119.596 Q 206.903 116.228 206.903 111.708 L 206.903 111.708 L 206.903 111.708 Q 206.903 105.326 211.955 99.521 L 211.955 99.521 L 211.955 99.521 Q 217.007 93.715 226.048 90.613 L 226.048 90.613 L 226.048 90.613 Q 235.088 87.511 244.838 87.511 L 244.838 87.511 L 244.838 87.511 Q 256.626 87.511 263.495 92.519 L 263.495 92.519 L 263.495 92.519 Q 270.364 97.526 272.402 103.376 L 272.402 103.376 L 272.402 103.376 Q 273.643 107.099 273.643 120.482 L 273.643 120.482 L 273.643 152.656 L 273.643 152.656 Q 273.643 158.328 274.086 159.791 L 274.086 159.791 L 274.086 159.791 Q 274.53 161.253 275.416 161.962 L 275.416 161.962 L 275.416 161.962 Q 276.302 162.671 277.454 162.671 L 277.454 162.671 L 277.454 162.671 Q 279.759 162.671 282.152 159.392 L 282.152 159.392 L 284.811 161.519 L 284.811 161.519 Q 280.379 168.078 275.637 171.047 L 275.637 171.047 L 275.637 171.047 Q 270.896 174.016 264.869 174.016 L 264.869 174.016 L 264.869 174.016 Q 257.778 174.016 253.79 170.692 L 253.79 170.692 L 253.79 170.692 Q 249.801 167.369 248.915 160.633 Z  M 248.915 154.162 L 248.915 154.162 L 248.915 126.42 L 248.915 126.42 Q 238.19 132.713 232.961 139.893 L 232.961 139.893 L 232.961 139.893 Q 229.504 144.679 229.504 149.553 L 229.504 149.553 L 229.504 149.553 Q 229.504 153.631 232.429 156.733 L 232.429 156.733 L 232.429 156.733 Q 234.645 159.126 238.634 159.126 L 238.634 159.126 L 238.634 159.126 Q 243.065 159.126 248.915 154.162 Z  M 335.509 175.345 L 331.343 175.345 L 303.424 111.087 L 303.424 111.087 Q 298.372 99.476 295.535 96.374 L 295.535 96.374 L 295.535 96.374 Q 293.497 94.07 289.508 93.272 L 289.508 93.272 L 289.508 89.993 L 333.559 89.993 L 333.559 93.272 L 333.559 93.272 Q 329.393 93.272 327.886 94.779 L 327.886 94.779 L 327.886 94.779 Q 325.759 96.729 325.759 99.388 L 325.759 99.388 L 325.759 99.388 Q 325.759 102.667 329.659 111.708 L 329.659 111.708 L 343.308 142.817 L 354.21 115.962 L 354.21 115.962 Q 358.907 104.44 358.907 99.654 L 358.907 99.654 L 358.907 99.654 Q 358.907 96.906 356.913 95.178 L 356.913 95.178 L 356.913 95.178 Q 354.919 93.449 349.867 93.272 L 349.867 93.272 L 349.867 89.993 L 376.988 89.993 L 376.988 93.272 L 376.988 93.272 Q 373.089 93.804 370.607 96.197 L 370.607 96.197 L 370.607 96.197 Q 368.125 98.59 363.162 110.289 L 363.162 110.289 L 335.509 175.345 Z  M 454.896 128.459 L 454.896 128.459 L 409.428 128.459 L 409.428 128.459 Q 410.225 144.945 418.202 154.517 L 418.202 154.517 L 418.202 154.517 Q 424.318 161.873 432.915 161.873 L 432.915 161.873 L 432.915 161.873 Q 438.233 161.873 442.576 158.904 L 442.576 158.904 L 442.576 158.904 Q 446.919 155.935 451.883 148.224 L 451.883 148.224 L 454.896 150.174 L 454.896 150.174 Q 448.16 163.912 440.006 169.629 L 440.006 169.629 L 440.006 169.629 Q 431.852 175.345 421.127 175.345 L 421.127 175.345 L 421.127 175.345 Q 402.692 175.345 393.208 161.164 L 393.208 161.164 L 393.208 161.164 Q 385.586 149.731 385.586 132.802 L 385.586 132.802 L 385.586 132.802 Q 385.586 112.062 396.798 99.787 L 396.798 99.787 L 396.798 99.787 Q 408.01 87.511 423.077 87.511 L 423.077 87.511 L 423.077 87.511 Q 435.663 87.511 444.925 97.837 L 444.925 97.837 L 444.925 97.837 Q 454.187 108.162 454.896 128.459 Z  M 408.985 122.521 L 433.093 122.521 L 433.093 122.521 Q 433.093 108.251 431.541 102.933 L 431.541 102.933 L 431.541 102.933 Q 429.99 97.615 426.711 94.867 L 426.711 94.867 L 426.711 94.867 Q 424.85 93.272 421.748 93.272 L 421.748 93.272 L 421.748 93.272 Q 417.139 93.272 414.214 97.792 L 414.214 97.792 L 414.214 97.792 Q 408.985 105.681 408.985 119.419 L 408.985 119.419 L 408.985 122.521 Z " fill="rgb(234,234,234)"/><rect x="73.008" y="197.039" width="760.777" height="6.229" transform="matrix(1,0,0,1,0,0)" fill="rgb(74,74,74)"/><rect x="73.008" y="185.804" width="760.777" height="6.229" transform="matrix(1,0,0,1,0,0)" fill="rgb(164,164,164)"/></g></svg>