<?xml version="1.0" encoding="UTF-8" standalone="no"?><!-- Generator: Gravit.io --><svg xmlns="http://www.w3.org/2000/svg" xmlns:xlink="http://www.w3.org/1999/xlink" style="isolation:isolate" viewBox="0 0 992 250" width="992pt" height="250pt"><defs><clipPath id="_clipPath_SgRKpG2n6MclSsaE1Q7L4pbxYoUMmP2y"><rect width="992" height="250"/></clipPath></defs><g clip-path="url(#_clipPath_SgRKpG2n6MclSsaE1Q7L4pbxYoUMmP2y)"><path d=" M 85.385 203.088 L 85.385 203.088 L 85.385 203.088 Q 74.011 203.088 64.385 198.478 L 64.385 198.478 L 64.385 198.478 Q 54.758 193.868 47.838 184.742 L 47.838 184.742 L 47.838 184.742 Q 40.917 175.616 37.115 161.975 L 37.115 161.975 L 37.115 161.975 Q 33.312 148.333 33.312 130.458 L 33.312 130.458 L 33.312 130.458 Q 33.312 113.806 36.943 100.259 L 36.943 100.259 L 36.943 100.259 Q 40.575 86.711 47.495 77.021 L 47.495 77.021 L 47.495 77.021 Q 54.141 67.707 63.973 62.627 L 63.973 62.627 L 63.973 62.627 Q 73.806 57.547 85.453 57.547 L 85.453 57.547 L 85.453 57.547 Q 91.894 57.547 97.067 58.534 L 97.067 58.534 L 97.067 58.534 Q 102.24 59.522 106.625 61.122 L 106.625 61.122 L 106.625 61.122 Q 111.216 62.909 114.95 65.12 L 114.95 65.12 L 114.95 65.12 Q 118.684 67.331 121.493 69.212 L 121.493 69.212 L 121.493 103.175 L 118.479 103.175 L 118.479 103.175 Q 116.56 100.929 113.648 97.84 L 113.648 97.84 L 113.648 97.84 Q 110.736 94.751 107.036 91.755 L 107.036 91.755 L 107.036 91.755 Q 103.268 88.76 98.883 86.701 L 98.883 86.701 L 98.883 86.701 Q 94.498 84.641 89.496 84.641 L 89.496 84.641 L 89.496 84.641 Q 83.946 84.641 78.944 87.036 L 78.944 87.036 L 78.944 87.036 Q 73.943 89.43 69.695 94.969 L 69.695 94.969 L 69.695 94.969 Q 65.652 100.32 63.151 109.146 L 63.151 109.146 L 63.151 109.146 Q 60.65 117.971 60.65 130.552 L 60.65 130.552 L 60.65 130.552 Q 60.65 143.696 63.357 152.521 L 63.357 152.521 L 63.357 152.521 Q 66.063 161.346 70.174 166.416 L 70.174 166.416 L 70.174 166.416 Q 74.354 171.58 79.493 173.786 L 79.493 173.786 L 79.493 173.786 Q 84.631 175.993 89.633 175.993 L 89.633 175.993 L 89.633 175.993 Q 94.429 175.993 99.123 174.027 L 99.123 174.027 L 99.123 174.027 Q 103.816 172.061 107.79 168.692 L 107.79 168.692 L 107.79 168.692 Q 111.147 165.977 114.025 162.888 L 114.025 162.888 L 114.025 162.888 Q 116.903 159.799 118.753 157.553 L 118.753 157.553 L 121.493 157.553 L 121.493 191.045 L 121.493 191.045 Q 117.656 193.397 114.162 195.467 L 114.162 195.467 L 114.162 195.467 Q 110.668 197.537 106.831 199.042 L 106.831 199.042 L 106.831 199.042 Q 101.829 201.018 97.444 202.053 L 97.444 202.053 L 97.444 202.053 Q 93.059 203.088 85.385 203.088 Z  M 232.285 60.275 L 232.285 200.359 L 205.975 200.359 L 205.975 138.643 L 167.126 138.643 L 167.126 200.359 L 140.815 200.359 L 140.815 60.275 L 167.126 60.275 L 167.126 111.548 L 205.975 111.548 L 205.975 60.275 L 232.285 60.275 Z  M 314.917 60.275 L 352.601 200.359 L 325.43 200.359 L 318.372 172.041 L 280.519 172.041 L 273.462 200.359 L 246.948 200.359 L 284.632 60.275 L 314.917 60.275 Z  M 286.892 146.358 L 312 146.358 L 299.445 96.058 L 286.892 146.358 Z  M 460.036 60.275 L 460.036 200.359 L 434.685 200.359 L 391.382 104.21 L 391.382 200.359 L 367.264 200.359 L 367.264 60.275 L 398.713 60.275 L 435.918 140.525 L 435.918 60.275 L 460.036 60.275 Z  M 578.844 60.275 L 578.844 200.359 L 553.493 200.359 L 510.19 104.21 L 510.19 200.359 L 486.072 200.359 L 486.072 60.275 L 517.522 60.275 L 554.726 140.525 L 554.726 60.275 L 578.844 60.275 Z  M 678.674 173.264 L 678.674 200.359 L 604.881 200.359 L 604.881 60.275 L 678.674 60.275 L 678.674 87.37 L 631.054 87.37 L 631.054 111.548 L 675.248 111.548 L 675.248 138.643 L 631.054 138.643 L 631.054 173.264 L 678.674 173.264 Z  M 774.323 173.264 L 774.323 200.359 L 700.736 200.359 L 700.736 60.275 L 727.047 60.275 L 727.047 173.264 L 774.323 173.264 Z " fill="rgb(172,172,172)"/><path d=" M 82.385 200.088 L 82.385 200.088 L 82.385 200.088 Q 71.011 200.088 61.385 195.478 L 61.385 195.478 L 61.385 195.478 Q 51.758 190.868 44.838 181.742 L 44.838 181.742 L 44.838 181.742 Q 37.917 172.616 34.115 158.975 L 34.115 158.975 L 34.115 158.975 Q 30.312 145.333 30.312 127.458 L 30.312 127.458 L 30.312 127.458 Q 30.312 110.806 33.943 97.259 L 33.943 97.259 L 33.943 97.259 Q 37.575 83.711 44.495 74.021 L 44.495 74.021 L 44.495 74.021 Q 51.141 64.707 60.973 59.627 L 60.973 59.627 L 60.973 59.627 Q 70.806 54.547 82.453 54.547 L 82.453 54.547 L 82.453 54.547 Q 88.894 54.547 94.067 55.534 L 94.067 55.534 L 94.067 55.534 Q 99.24 56.522 103.625 58.122 L 103.625 58.122 L 103.625 58.122 Q 108.216 59.909 111.95 62.12 L 111.95 62.12 L 111.95 62.12 Q 115.684 64.331 118.493 66.212 L 118.493 66.212 L 118.493 100.175 L 115.479 100.175 L 115.479 100.175 Q 113.56 97.929 110.648 94.84 L 110.648 94.84 L 110.648 94.84 Q 107.736 91.751 104.036 88.755 L 104.036 88.755 L 104.036 88.755 Q 100.268 85.76 95.883 83.701 L 95.883 83.701 L 95.883 83.701 Q 91.498 81.641 86.496 81.641 L 86.496 81.641 L 86.496 81.641 Q 80.946 81.641 75.944 84.036 L 75.944 84.036 L 75.944 84.036 Q 70.943 86.43 66.695 91.969 L 66.695 91.969 L 66.695 91.969 Q 62.652 97.32 60.151 106.146 L 60.151 106.146 L 60.151 106.146 Q 57.65 114.971 57.65 127.552 L 57.65 127.552 L 57.65 127.552 Q 57.65 140.696 60.357 149.521 L 60.357 149.521 L 60.357 149.521 Q 63.063 158.346 67.174 163.416 L 67.174 163.416 L 67.174 163.416 Q 71.354 168.58 76.493 170.786 L 76.493 170.786 L 76.493 170.786 Q 81.631 172.993 86.633 172.993 L 86.633 172.993 L 86.633 172.993 Q 91.429 172.993 96.123 171.027 L 96.123 171.027 L 96.123 171.027 Q 100.816 169.061 104.79 165.692 L 104.79 165.692 L 104.79 165.692 Q 108.147 162.977 111.025 159.888 L 111.025 159.888 L 111.025 159.888 Q 113.903 156.799 115.753 154.553 L 115.753 154.553 L 118.493 154.553 L 118.493 188.045 L 118.493 188.045 Q 114.656 190.397 111.162 192.467 L 111.162 192.467 L 111.162 192.467 Q 107.668 194.537 103.831 196.042 L 103.831 196.042 L 103.831 196.042 Q 98.829 198.018 94.444 199.053 L 94.444 199.053 L 94.444 199.053 Q 90.059 200.088 82.385 200.088 Z  M 229.285 57.275 L 229.285 197.359 L 202.975 197.359 L 202.975 135.643 L 164.126 135.643 L 164.126 197.359 L 137.815 197.359 L 137.815 57.275 L 164.126 57.275 L 164.126 108.548 L 202.975 108.548 L 202.975 57.275 L 229.285 57.275 Z  M 311.917 57.275 L 349.601 197.359 L 322.43 197.359 L 315.372 169.041 L 277.519 169.041 L 270.462 197.359 L 243.948 197.359 L 281.632 57.275 L 311.917 57.275 Z  M 283.892 143.358 L 309 143.358 L 296.445 93.058 L 283.892 143.358 Z  M 457.036 57.275 L 457.036 197.359 L 431.685 197.359 L 388.382 101.21 L 388.382 197.359 L 364.264 197.359 L 364.264 57.275 L 395.713 57.275 L 432.918 137.525 L 432.918 57.275 L 457.036 57.275 Z  M 575.844 57.275 L 575.844 197.359 L 550.493 197.359 L 507.19 101.21 L 507.19 197.359 L 483.072 197.359 L 483.072 57.275 L 514.522 57.275 L 551.726 137.525 L 551.726 57.275 L 575.844 57.275 Z  M 675.674 170.264 L 675.674 197.359 L 601.881 197.359 L 601.881 57.275 L 675.674 57.275 L 675.674 84.37 L 628.054 84.37 L 628.054 108.548 L 672.248 108.548 L 672.248 135.643 L 628.054 135.643 L 628.054 170.264 L 675.674 170.264 Z  M 771.323 170.264 L 771.323 197.359 L 697.736 197.359 L 697.736 57.275 L 724.047 57.275 L 724.047 170.264 L 771.323 170.264 Z " fill="rgb(234,234,234)"/><path d=" M 917.22 57.275 L 917.22 84.37 L 870.286 84.37 L 870.286 110.43 L 913.794 110.43 L 913.794 137.525 L 870.286 137.525 L 870.286 197.359 L 844.113 197.359 L 844.113 57.275 L 917.22 57.275 Z " fill="rgb(168,12,12)"/><path d=" M 821.48 51.11 C 824.5 50.49 827.54 49.98 830.59 49.59 C 834.56 49.06 838.54 48.63 842.53 48.3 C 852.84 47.45 863.19 47.04 873.53 47.07 C 884.4 47.07 895.27 47.48 906.12 48.3 C 918.15 49.19 930.14 50.61 942.05 52.56 C 944.12 52.89 946.14 53.4 948.11 54.09 C 949.83 54.7 951.48 55.5 953.02 56.47 C 954.43 57.36 955.72 58.42 956.88 59.61 C 957.98 60.75 958.95 62.01 959.78 63.36 C 960.59 64.69 961.3 66.09 961.88 67.54 C 962.47 69.01 962.98 70.51 963.41 72.04 C 963.85 73.59 964.23 75.16 964.57 76.75 C 964.92 78.36 965.25 79.98 965.56 81.6 L 966.18 84.68 C 966.44 85.95 966.65 87.23 966.84 88.51 C 967.07 90.14 967.28 91.78 967.46 93.42 C 967.92 97.58 968.3 101.74 968.58 105.9 C 969.32 116.13 969.68 126.38 969.69 136.63 C 969.69 140.43 969.63 144.24 969.5 148.05 C 969.38 151.6 969.17 155.16 968.88 158.7 C 968.62 161.83 968.25 164.95 967.75 168.06 C 967.53 169.41 967.27 170.76 966.97 172.09 C 966.7 173.29 966.38 174.47 966.01 175.63 C 966.01 175.63 966.01 175.63 966.01 175.64 L 965.63 176.81 C 964.98 178.88 964.31 180.94 963.62 183 C 963.05 184.69 962.43 186.36 961.76 188 C 961.18 189.41 960.51 190.77 959.73 192.08 C 959.02 193.28 958.16 194.39 957.19 195.4 C 956.21 196.4 955.1 197.27 953.9 197.99 C 952.59 198.78 951.2 199.44 949.76 199.97 C 948.06 200.61 946.33 201.15 944.57 201.6 C 942.4 202.16 940.22 202.68 938.02 203.13 C 936.24 203.5 934.45 203.82 932.65 204.08 C 930.46 204.41 928.25 204.69 926.05 204.94 C 920.64 205.53 915.23 206 909.8 206.33 C 903.48 206.74 897.15 207.05 890.81 207.24 C 884.08 207.46 877.35 207.57 870.62 207.57 C 865.5 207.57 860.39 207.5 855.28 207.36 C 850.47 207.23 845.67 207.01 840.87 206.7 C 836.6 206.44 832.34 206.05 828.09 205.55 C 824.57 205.15 821.07 204.58 817.6 203.84 C 815.28 203.33 812.96 202.8 810.65 202.26 C 808.86 201.84 807.09 201.38 805.33 200.88 C 803.98 200.51 802.64 200.08 801.33 199.58 C 800.3 199.2 799.3 198.72 798.34 198.16 C 797.52 197.68 796.77 197.08 796.11 196.39 C 795.5 195.74 795 195.01 794.6 194.22 C 794.22 193.44 793.91 192.64 793.67 191.82 C 793.41 190.93 793.16 190.03 792.94 189.13 C 792.48 187.28 791.95 185.46 791.37 183.65 C 790.93 182.29 790.55 180.92 790.23 179.54 C 789.81 177.72 789.42 175.89 789.08 174.05 C 788.19 169.26 787.46 164.43 786.88 159.58 C 786.16 153.64 785.6 147.69 785.22 141.72 C 784.78 135.15 784.56 128.58 784.55 122 C 784.53 114.48 784.88 106.96 785.62 99.48 C 785.98 95.9 786.46 92.33 787.08 88.78 C 787.66 85.42 788.4 82.1 789.29 78.81 C 789.95 76.39 790.7 74 791.56 71.65 C 792.26 69.7 793.1 67.81 794.06 65.98 C 794.89 64.41 795.86 62.93 796.98 61.56 C 798 60.31 799.17 59.19 800.45 58.21 C 801.72 57.26 803.08 56.44 804.51 55.78 C 806.02 55.08 807.57 54.5 809.16 54.02 C 810.92 53.49 812.7 53.02 814.49 52.62 C 816.55 52.15 818.61 51.71 820.68 51.28 L 821.48 51.11 C 821.48 51.11 821.48 51.11 821.48 51.11 Z  M 822.29 55.03 C 825.21 54.43 828.15 53.94 831.11 53.55 C 835.02 53.03 838.93 52.61 842.86 52.28 C 853.06 51.45 863.29 51.04 873.53 51.07 C 884.3 51.07 895.07 51.47 905.82 52.28 C 917.74 53.17 929.62 54.58 941.42 56.51 C 943.24 56.8 945.04 57.25 946.78 57.87 C 948.22 58.37 949.6 59.04 950.89 59.85 C 952.02 60.57 953.07 61.42 954 62.39 C 954.89 63.32 955.69 64.35 956.37 65.45 C 957.07 66.6 957.67 67.8 958.17 69.04 C 958.71 70.37 959.17 71.73 959.56 73.11 C 959.97 74.59 960.34 76.08 960.66 77.59 C 961 79.18 961.33 80.77 961.64 82.36 C 961.64 82.37 961.64 82.37 961.64 82.38 L 962.26 85.46 C 962.26 85.46 962.26 85.46 962.26 85.46 C 962.5 86.66 962.7 87.87 962.88 89.07 C 963.11 90.67 963.31 92.27 963.49 93.87 C 963.94 97.96 964.31 102.07 964.59 106.18 C 965.32 116.32 965.68 126.47 965.69 136.63 C 965.69 140.39 965.63 144.15 965.5 147.91 C 965.38 151.4 965.18 154.89 964.89 158.37 C 964.65 161.4 964.28 164.42 963.8 167.42 C 963.59 168.69 963.35 169.96 963.06 171.22 C 962.82 172.3 962.54 173.36 962.2 174.42 L 961.82 175.59 C 961.82 175.6 961.82 175.6 961.82 175.6 C 961.17 177.65 960.51 179.69 959.82 181.73 C 959.29 183.34 958.7 184.92 958.06 186.49 C 957.56 187.71 956.97 188.9 956.29 190.03 C 955.74 190.96 955.08 191.82 954.33 192.6 C 953.58 193.36 952.75 194.02 951.84 194.56 C 950.74 195.22 949.58 195.78 948.37 196.22 C 946.8 196.81 945.2 197.31 943.57 197.73 C 941.46 198.28 939.34 198.77 937.2 199.22 C 935.5 199.57 933.79 199.88 932.07 200.13 C 929.92 200.45 927.77 200.72 925.61 200.96 C 920.27 201.55 914.91 202.01 909.55 202.34 C 903.27 202.75 896.98 203.05 890.68 203.24 C 884 203.46 877.31 203.57 870.62 203.57 C 865.54 203.57 860.46 203.5 855.39 203.36 C 850.63 203.23 845.87 203.01 841.12 202.71 C 836.92 202.45 832.73 202.07 828.55 201.58 C 825.16 201.19 821.79 200.64 818.45 199.93 C 816.15 199.43 813.85 198.91 811.56 198.36 C 809.83 197.96 808.11 197.51 806.4 197.03 C 805.16 196.69 803.94 196.29 802.73 195.84 C 801.91 195.53 801.12 195.16 800.37 194.71 C 799.87 194.42 799.42 194.06 799.02 193.65 C 798.69 193.29 798.41 192.89 798.19 192.45 C 797.91 191.88 797.68 191.29 797.51 190.68 C 797.26 189.85 797.03 189.01 796.82 188.16 C 796.34 186.23 795.79 184.31 795.17 182.42 C 794.77 181.17 794.42 179.91 794.13 178.63 C 793.71 176.87 793.34 175.1 793.01 173.32 C 792.14 168.61 791.42 163.87 790.85 159.11 C 790.14 153.24 789.59 147.35 789.21 141.45 C 788.78 134.97 788.56 128.48 788.55 121.99 C 788.53 114.61 788.87 107.23 789.6 99.88 C 789.95 96.39 790.42 92.91 791.02 89.46 C 791.58 86.23 792.29 83.02 793.15 79.86 C 793.78 77.55 794.5 75.26 795.32 73.01 C 795.96 71.24 796.72 69.51 797.6 67.84 C 798.3 66.51 799.13 65.25 800.08 64.09 C 800.9 63.09 801.84 62.18 802.87 61.4 C 803.9 60.62 805.02 59.96 806.19 59.41 C 807.52 58.79 808.9 58.27 810.31 57.85 C 811.98 57.35 813.67 56.91 815.37 56.52 C 817.41 56.06 819.45 55.62 821.49 55.2 C 821.49 55.2 821.49 55.2 821.5 55.2 L 822.29 55.03 Z " fill-rule="evenodd" fill="rgb(168,12,12)"/></g></svg>