<?xml version="1.0" encoding="UTF-8" standalone="no"?><!-- Generator: Gravit.io --><svg xmlns="http://www.w3.org/2000/svg" xmlns:xlink="http://www.w3.org/1999/xlink" style="isolation:isolate" viewBox="0 0 992 250" width="992pt" height="250pt"><defs><clipPath id="_clipPath_O3E1kUewMRPHNlV5y6oOoBKW4jf34M4B"><rect width="992" height="250"/></clipPath></defs><g clip-path="url(#_clipPath_O3E1kUewMRPHNlV5y6oOoBKW4jf34M4B)"><path d=" M 203.928 64.256 Q 203.928 12.13 265.28 8.502 Q 289.008 6.085 306.654 16.059 Q 309.351 17.583 309.278 27.698 Q 328.6 5.697 359 5.697 C 389.401 5.697 398.092 9.465 418.908 25.983 Q 418.908 15.033 418.908 8.502 L 462.643 8.502 L 462.643 94.029 L 502.724 94.029 L 502.724 8.502 L 591.391 8.502 L 591.391 35.701 Q 599.99 16.804 617.475 9.936 C 634.961 3.068 645.523 -1.677 692.389 11.349 L 692.389 22.04 Q 708.118 4.284 744.907 4.284 C 781.697 4.284 808.322 23.779 808.322 66.943 Q 808.322 121.717 758.718 129.916 L 758.718 242.736 L 714.86 242.971 L 685.43 181.639 L 685.43 242.971 L 649.425 242.971 L 649.425 214.636 Q 630.841 243 590.059 243 Q 549.277 243 535.09 219.913 L 535.09 242.971 L 487.726 242.971 L 487.726 230.431 Q 479.186 242.971 453.664 242.971 Q 428.142 242.971 356.844 242.971 L 356.844 167.91 L 327.293 242.971 L 278.51 242.971 L 237.232 124.531 Q 203.928 110.693 203.928 64.256 Z  M 288.047 129.143 Q 303.683 172.61 304.101 173.861 L 324.83 122.889 Q 316.445 118.023 311.813 110.518 C 310.524 120.778 306.067 122.831 288.047 129.143 Z " fill-rule="evenodd" fill="rgb(0,0,0)"/><path d=" M 287.033 234.515 L 245.996 126.38 L 274.714 126.38 L 304.101 206.195 L 333.413 126.38 L 362.132 126.38 L 321.094 234.515 L 287.033 234.515 Z  M 361.815 234.515 L 361.815 126.38 L 390.385 126.38 L 390.385 234.515 L 361.815 234.515 Z  M 480.453 129.784 L 480.453 129.784 L 480.453 152.671 L 480.453 152.671 Q 471.326 148.687 462.643 146.659 L 462.643 146.659 L 462.643 146.659 Q 453.961 144.631 446.243 144.631 L 446.243 144.631 L 446.243 144.631 Q 436.002 144.631 431.105 147.384 L 431.105 147.384 L 431.105 147.384 Q 426.207 150.136 426.207 155.93 L 426.207 155.93 L 426.207 155.93 Q 426.207 160.276 429.509 162.702 L 429.509 162.702 L 429.509 162.702 Q 432.812 165.129 441.494 166.867 L 441.494 166.867 L 453.664 169.257 L 453.664 169.257 Q 472.142 172.878 479.934 180.266 L 479.934 180.266 L 479.934 180.266 Q 487.726 187.654 487.726 201.27 L 487.726 201.27 L 487.726 201.27 Q 487.726 219.16 476.854 227.888 L 476.854 227.888 L 476.854 227.888 Q 465.983 236.615 443.646 236.615 L 443.646 236.615 L 443.646 236.615 Q 433.108 236.615 422.497 234.66 L 422.497 234.66 L 422.497 234.66 Q 411.885 232.704 401.273 228.866 L 401.273 228.866 L 401.273 205.326 L 401.273 205.326 Q 411.885 210.831 421.792 213.619 L 421.792 213.619 L 421.792 213.619 Q 431.698 216.408 440.9 216.408 L 440.9 216.408 L 440.9 216.408 Q 450.25 216.408 455.222 213.366 L 455.222 213.366 L 455.222 213.366 Q 460.194 210.324 460.194 204.674 L 460.194 204.674 L 460.194 204.674 Q 460.194 199.605 456.818 196.852 L 456.818 196.852 L 456.818 196.852 Q 453.441 194.1 443.349 191.927 L 443.349 191.927 L 432.292 189.537 L 432.292 189.537 Q 415.669 186.06 407.989 178.455 L 407.989 178.455 L 407.989 178.455 Q 400.308 170.85 400.308 157.958 L 400.308 157.958 L 400.308 157.958 Q 400.308 141.807 410.994 133.115 L 410.994 133.115 L 410.994 133.115 Q 421.68 124.424 441.717 124.424 L 441.717 124.424 L 441.717 124.424 Q 450.844 124.424 460.491 125.764 L 460.491 125.764 L 460.491 125.764 Q 470.138 127.104 480.453 129.784 Z  M 497.798 234.515 L 497.798 126.38 L 526.368 126.38 L 526.368 234.515 L 497.798 234.515 Z  M 589.944 144.631 L 589.944 144.631 L 589.944 144.631 Q 576.883 144.631 569.685 154.047 L 569.685 154.047 L 569.685 154.047 Q 562.487 163.463 562.487 180.556 L 562.487 180.556 L 562.487 180.556 Q 562.487 197.577 569.685 206.992 L 569.685 206.992 L 569.685 206.992 Q 576.883 216.408 589.944 216.408 L 589.944 216.408 L 589.944 216.408 Q 603.079 216.408 610.277 206.992 L 610.277 206.992 L 610.277 206.992 Q 617.475 197.577 617.475 180.556 L 617.475 180.556 L 617.475 180.556 Q 617.475 163.463 610.277 154.047 L 610.277 154.047 L 610.277 154.047 Q 603.079 144.631 589.944 144.631 Z  M 589.944 124.424 L 589.944 124.424 L 589.944 124.424 Q 616.659 124.424 631.797 139.344 L 631.797 139.344 L 631.797 139.344 Q 646.936 154.264 646.936 180.556 L 646.936 180.556 L 646.936 180.556 Q 646.936 206.775 631.797 221.695 L 631.797 221.695 L 631.797 221.695 Q 616.659 236.615 589.944 236.615 L 589.944 236.615 L 589.944 236.615 Q 563.303 236.615 548.128 221.695 L 548.128 221.695 L 548.128 221.695 Q 532.952 206.775 532.952 180.556 L 532.952 180.556 L 532.952 180.556 Q 532.952 154.264 548.128 139.344 L 548.128 139.344 L 548.128 139.344 Q 563.303 124.424 589.944 124.424 Z  M 653.52 234.515 L 653.52 126.38 L 685.43 126.38 L 725.725 200.546 L 725.725 126.38 L 752.811 126.38 L 752.811 234.515 L 720.901 234.515 L 680.606 160.348 L 680.606 234.515 L 653.52 234.515 Z  M 304.286 93.961 L 304.286 116.341 L 304.286 116.341 Q 296.42 120.325 287.886 122.352 L 287.886 122.352 L 287.886 122.352 Q 279.352 124.38 270.076 124.38 L 270.076 124.38 L 270.076 124.38 Q 242.397 124.38 226.219 109.279 L 226.219 109.279 L 226.219 109.279 Q 210.042 94.178 210.042 68.321 L 210.042 68.321 L 210.042 68.321 Q 210.042 42.392 226.219 27.29 L 226.219 27.29 L 226.219 27.29 Q 242.397 12.189 270.076 12.189 L 270.076 12.189 L 270.076 12.189 Q 279.352 12.189 287.886 14.217 L 287.886 14.217 L 287.886 14.217 Q 296.42 16.245 304.286 20.229 L 304.286 20.229 L 304.286 42.609 L 304.286 42.609 Q 296.346 37.322 288.628 34.859 L 288.628 34.859 L 288.628 34.859 Q 280.911 32.397 272.377 32.397 L 272.377 32.397 L 272.377 32.397 Q 257.09 32.397 248.333 41.957 L 248.333 41.957 L 248.333 41.957 Q 239.577 51.518 239.577 68.321 L 239.577 68.321 L 239.577 68.321 Q 239.577 85.052 248.333 94.612 L 248.333 94.612 L 248.333 94.612 Q 257.09 104.173 272.377 104.173 L 272.377 104.173 L 272.377 104.173 Q 280.911 104.173 288.628 101.71 L 288.628 101.71 L 288.628 101.71 Q 296.346 99.248 304.286 93.961 L 304.286 93.961 Z  M 363.558 32.397 L 363.558 32.397 L 363.558 32.397 Q 350.498 32.397 343.3 41.812 L 343.3 41.812 L 343.3 41.812 Q 336.101 51.228 336.101 68.321 L 336.101 68.321 L 336.101 68.321 Q 336.101 85.342 343.3 94.757 L 343.3 94.757 L 343.3 94.757 Q 350.498 104.173 363.558 104.173 L 363.558 104.173 L 363.558 104.173 Q 376.693 104.173 383.891 94.757 L 383.891 94.757 L 383.891 94.757 Q 391.09 85.342 391.09 68.321 L 391.09 68.321 L 391.09 68.321 Q 391.09 51.228 383.891 41.812 L 383.891 41.812 L 383.891 41.812 Q 376.693 32.397 363.558 32.397 Z  M 363.558 12.189 L 363.558 12.189 L 363.558 12.189 Q 390.273 12.189 405.412 27.109 L 405.412 27.109 L 405.412 27.109 Q 420.55 42.03 420.55 68.321 L 420.55 68.321 L 420.55 68.321 Q 420.55 94.54 405.412 109.46 L 405.412 109.46 L 405.412 109.46 Q 390.273 124.38 363.558 124.38 L 363.558 124.38 L 363.558 124.38 Q 336.918 124.38 321.742 109.46 L 321.742 109.46 L 321.742 109.46 Q 306.567 94.54 306.567 68.321 L 306.567 68.321 L 306.567 68.321 Q 306.567 42.03 321.742 27.109 L 321.742 27.109 L 321.742 27.109 Q 336.918 12.189 363.558 12.189 Z  M 427.135 122.28 L 427.135 14.145 L 455.705 14.145 L 455.705 101.203 L 505.869 101.203 L 505.869 122.28 L 427.135 122.28 Z  M 508.966 122.28 L 508.966 14.145 L 586.068 14.145 L 586.068 35.221 L 537.536 35.221 L 537.536 55.356 L 583.174 55.356 L 583.174 76.433 L 537.536 76.433 L 537.536 101.203 L 587.701 101.203 L 587.701 122.28 L 508.966 122.28 Z  M 685.635 93.961 L 685.635 116.341 L 685.635 116.341 Q 677.769 120.325 669.235 122.352 L 669.235 122.352 L 669.235 122.352 Q 660.701 124.38 651.425 124.38 L 651.425 124.38 L 651.425 124.38 Q 623.746 124.38 607.568 109.279 L 607.568 109.279 L 607.568 109.279 Q 591.391 94.178 591.391 68.321 L 591.391 68.321 L 591.391 68.321 Q 591.391 42.392 607.568 27.29 L 607.568 27.29 L 607.568 27.29 Q 623.746 12.189 651.425 12.189 L 651.425 12.189 L 651.425 12.189 Q 660.701 12.189 669.235 14.217 L 669.235 14.217 L 669.235 14.217 Q 677.769 16.245 685.635 20.229 L 685.635 20.229 L 685.635 42.609 L 685.635 42.609 Q 677.695 37.322 669.977 34.859 L 669.977 34.859 L 669.977 34.859 Q 662.26 32.397 653.726 32.397 L 653.726 32.397 L 653.726 32.397 Q 638.439 32.397 629.682 41.957 L 629.682 41.957 L 629.682 41.957 Q 620.926 51.518 620.926 68.321 L 620.926 68.321 L 620.926 68.321 Q 620.926 85.052 629.682 94.612 L 629.682 94.612 L 629.682 94.612 Q 638.439 104.173 653.726 104.173 L 653.726 104.173 L 653.726 104.173 Q 662.26 104.173 669.977 101.71 L 669.977 101.71 L 669.977 101.71 Q 677.695 99.248 685.635 93.961 L 685.635 93.961 Z  M 744.907 32.397 L 744.907 32.397 L 744.907 32.397 Q 731.847 32.397 724.649 41.812 L 724.649 41.812 L 724.649 41.812 Q 717.45 51.228 717.45 68.321 L 717.45 68.321 L 717.45 68.321 Q 717.45 85.342 724.649 94.757 L 724.649 94.757 L 724.649 94.757 Q 731.847 104.173 744.907 104.173 L 744.907 104.173 L 744.907 104.173 Q 758.042 104.173 765.24 94.757 L 765.24 94.757 L 765.24 94.757 Q 772.439 85.342 772.439 68.321 L 772.439 68.321 L 772.439 68.321 Q 772.439 51.228 765.24 41.812 L 765.24 41.812 L 765.24 41.812 Q 758.042 32.397 744.907 32.397 Z  M 744.907 12.189 L 744.907 12.189 L 744.907 12.189 Q 771.622 12.189 786.761 27.109 L 786.761 27.109 L 786.761 27.109 Q 801.899 42.03 801.899 68.321 L 801.899 68.321 L 801.899 68.321 Q 801.899 94.54 786.761 109.46 L 786.761 109.46 L 786.761 109.46 Q 771.622 124.38 744.907 124.38 L 744.907 124.38 L 744.907 124.38 Q 718.267 124.38 703.091 109.46 L 703.091 109.46 L 703.091 109.46 Q 687.916 94.54 687.916 68.321 L 687.916 68.321 L 687.916 68.321 Q 687.916 42.03 703.091 27.109 L 703.091 27.109 L 703.091 27.109 Q 718.267 12.189 744.907 12.189 Z " fill="rgb(164,235,244)"/></g></svg>