<?xml version="1.0" encoding="UTF-8" standalone="no"?><!-- Generator: Gravit.io --><svg xmlns="http://www.w3.org/2000/svg" xmlns:xlink="http://www.w3.org/1999/xlink" style="isolation:isolate" viewBox="0 0 992 250" width="992pt" height="250pt"><defs><clipPath id="_clipPath_L2TStLFqnBDmfWGhgQJrbJwml8erMBru"><rect width="992" height="250"/></clipPath></defs><g clip-path="url(#_clipPath_L2TStLFqnBDmfWGhgQJrbJwml8erMBru)"><path d="M 77.765 48.205 L 913.613 48.205 C 956.533 48.205 991.378 83.05 991.378 125.97 L 991.378 125.97 C 991.378 168.89 956.533 203.735 913.613 203.735 L 77.765 203.735 C 34.845 203.735 0 168.89 0 125.97 L 0 125.97 C 0 83.05 34.845 48.205 77.765 48.205 Z" style="stroke:none;fill:#5D594F;stroke-miterlimit:10;"/><path d=" M 140.357 141.93 L 140.357 141.93 L 140.357 141.93 Q 119.348 141.93 119.348 124.176 L 119.348 124.176 L 119.348 124.176 Q 119.348 115.346 125.063 110.683 L 125.063 110.683 L 125.063 110.683 Q 130.778 106.02 141.444 106.02 L 141.444 106.02 L 141.444 106.02 Q 149.251 106.02 155.449 108.375 L 155.449 108.375 L 151.827 115.687 L 151.827 115.687 Q 148.929 114.788 146.434 114.215 L 146.434 114.215 L 146.434 114.215 Q 143.939 113.642 141.444 113.642 L 141.444 113.642 L 141.444 113.642 Q 131.865 113.642 131.865 124.114 L 131.865 124.114 L 131.865 124.114 Q 131.865 134.277 141.444 134.277 L 141.444 134.277 L 141.444 134.277 Q 144.985 134.277 148.004 133.549 L 148.004 133.549 L 148.004 133.549 Q 151.022 132.821 154.041 131.271 L 154.041 131.271 L 154.041 139.358 L 154.041 139.358 Q 151.062 140.814 148.024 141.372 L 148.024 141.372 L 148.024 141.372 Q 144.985 141.93 140.357 141.93 Z  M 174.244 123.928 L 174.244 123.928 L 174.244 123.928 Q 174.244 129.072 176.438 131.705 L 176.438 131.705 L 176.438 131.705 Q 178.631 134.339 183.581 134.339 L 183.581 134.339 L 183.581 134.339 Q 188.491 134.339 190.645 131.721 L 190.645 131.721 L 190.645 131.721 Q 192.798 129.103 192.798 123.928 L 192.798 123.928 L 192.798 123.928 Q 192.798 118.785 190.625 116.214 L 190.625 116.214 L 190.625 116.214 Q 188.451 113.642 183.501 113.642 L 183.501 113.642 L 183.501 113.642 Q 178.591 113.642 176.418 116.198 L 176.418 116.198 L 176.418 116.198 Q 174.244 118.754 174.244 123.928 Z  M 205.355 123.928 L 205.355 123.928 L 205.355 123.928 Q 205.355 132.387 199.559 137.158 L 199.559 137.158 L 199.559 137.158 Q 193.764 141.93 183.42 141.93 L 183.42 141.93 L 183.42 141.93 Q 176.941 141.93 171.991 139.745 L 171.991 139.745 L 171.991 139.745 Q 167.04 137.561 164.384 133.471 L 164.384 133.471 L 164.384 133.471 Q 161.728 129.381 161.728 123.928 L 161.728 123.928 L 161.728 123.928 Q 161.728 115.439 167.483 110.73 L 167.483 110.73 L 167.483 110.73 Q 173.238 106.02 183.662 106.02 L 183.662 106.02 L 183.662 106.02 Q 190.142 106.02 195.092 108.189 L 195.092 108.189 L 195.092 108.189 Q 200.042 110.358 202.698 114.417 L 202.698 114.417 L 202.698 114.417 Q 205.355 118.475 205.355 123.928 Z  M 255.783 123.928 L 255.783 141.31 L 243.508 141.31 L 243.508 121.078 L 243.508 121.078 Q 243.508 117.329 241.878 115.455 L 241.878 115.455 L 241.878 115.455 Q 240.248 113.58 236.747 113.58 L 236.747 113.58 L 236.747 113.58 Q 232.038 113.58 229.905 116.245 L 229.905 116.245 L 229.905 116.245 Q 227.772 118.909 227.772 125.013 L 227.772 125.013 L 227.772 141.31 L 215.497 141.31 L 215.497 106.671 L 224.874 106.671 L 226.524 111.101 L 227.208 111.101 L 227.208 111.101 Q 229.019 108.716 232.44 107.368 L 232.44 107.368 L 232.44 107.368 Q 235.861 106.02 240.288 106.02 L 240.288 106.02 L 240.288 106.02 Q 250.39 106.02 253.972 111.101 L 253.972 111.101 L 255.059 111.101 L 255.059 111.101 Q 256.87 108.685 260.391 107.352 L 260.391 107.352 L 260.391 107.352 Q 263.913 106.02 268.34 106.02 L 268.34 106.02 L 268.34 106.02 Q 275.987 106.02 279.911 109.041 L 279.911 109.041 L 279.911 109.041 Q 283.835 112.062 283.835 118.723 L 283.835 118.723 L 283.835 141.31 L 271.519 141.31 L 271.519 121.078 L 271.519 121.078 Q 271.519 117.329 269.889 115.455 L 269.889 115.455 L 269.889 115.455 Q 268.259 113.58 264.758 113.58 L 264.758 113.58 L 264.758 113.58 Q 260.25 113.58 258.017 116.059 L 258.017 116.059 L 258.017 116.059 Q 255.783 118.537 255.783 123.928 L 255.783 123.928 Z  M 336.718 123.928 L 336.718 141.31 L 324.443 141.31 L 324.443 121.078 L 324.443 121.078 Q 324.443 117.329 322.813 115.455 L 322.813 115.455 L 322.813 115.455 Q 321.183 113.58 317.682 113.58 L 317.682 113.58 L 317.682 113.58 Q 312.973 113.58 310.84 116.245 L 310.84 116.245 L 310.84 116.245 Q 308.707 118.909 308.707 125.013 L 308.707 125.013 L 308.707 141.31 L 296.432 141.31 L 296.432 106.671 L 305.809 106.671 L 307.459 111.101 L 308.143 111.101 L 308.143 111.101 Q 309.955 108.716 313.375 107.368 L 313.375 107.368 L 313.375 107.368 Q 316.796 106.02 321.223 106.02 L 321.223 106.02 L 321.223 106.02 Q 331.325 106.02 334.907 111.101 L 334.907 111.101 L 335.994 111.101 L 335.994 111.101 Q 337.805 108.685 341.326 107.352 L 341.326 107.352 L 341.326 107.352 Q 344.848 106.02 349.275 106.02 L 349.275 106.02 L 349.275 106.02 Q 356.922 106.02 360.846 109.041 L 360.846 109.041 L 360.846 109.041 Q 364.77 112.062 364.77 118.723 L 364.77 118.723 L 364.77 141.31 L 352.455 141.31 L 352.455 121.078 L 352.455 121.078 Q 352.455 117.329 350.825 115.455 L 350.825 115.455 L 350.825 115.455 Q 349.195 113.58 345.693 113.58 L 345.693 113.58 L 345.693 113.58 Q 341.186 113.58 338.952 116.059 L 338.952 116.059 L 338.952 116.059 Q 336.718 118.537 336.718 123.928 L 336.718 123.928 Z  M 387.147 123.928 L 387.147 123.928 L 387.147 123.928 Q 387.147 129.072 389.34 131.705 L 389.34 131.705 L 389.34 131.705 Q 391.534 134.339 396.484 134.339 L 396.484 134.339 L 396.484 134.339 Q 401.394 134.339 403.547 131.721 L 403.547 131.721 L 403.547 131.721 Q 405.7 129.103 405.7 123.928 L 405.7 123.928 L 405.7 123.928 Q 405.7 118.785 403.527 116.214 L 403.527 116.214 L 403.527 116.214 Q 401.354 113.642 396.403 113.642 L 396.403 113.642 L 396.403 113.642 Q 391.493 113.642 389.32 116.198 L 389.32 116.198 L 389.32 116.198 Q 387.147 118.754 387.147 123.928 Z  M 418.257 123.928 L 418.257 123.928 L 418.257 123.928 Q 418.257 132.387 412.462 137.158 L 412.462 137.158 L 412.462 137.158 Q 406.666 141.93 396.323 141.93 L 396.323 141.93 L 396.323 141.93 Q 389.843 141.93 384.893 139.745 L 384.893 139.745 L 384.893 139.745 Q 379.943 137.561 377.286 133.471 L 377.286 133.471 L 377.286 133.471 Q 374.63 129.381 374.63 123.928 L 374.63 123.928 L 374.63 123.928 Q 374.63 115.439 380.385 110.73 L 380.385 110.73 L 380.385 110.73 Q 386.141 106.02 396.564 106.02 L 396.564 106.02 L 396.564 106.02 Q 403.044 106.02 407.994 108.189 L 407.994 108.189 L 407.994 108.189 Q 412.945 110.358 415.601 114.417 L 415.601 114.417 L 415.601 114.417 Q 418.257 118.475 418.257 123.928 Z  M 442.646 141.93 L 442.646 141.93 L 442.646 141.93 Q 434.718 141.93 430.19 137.189 L 430.19 137.189 L 430.19 137.189 Q 425.662 132.449 425.662 124.052 L 425.662 124.052 L 425.662 124.052 Q 425.662 115.532 430.271 110.776 L 430.271 110.776 L 430.271 110.776 Q 434.879 106.02 442.968 106.02 L 442.968 106.02 L 442.968 106.02 Q 451.46 106.02 455.928 111.101 L 455.928 111.101 L 456.33 111.101 L 456.33 111.101 Q 455.404 107.229 455.404 104.192 L 455.404 104.192 L 455.404 93.1 L 467.72 93.1 L 467.72 141.31 L 458.302 141.31 L 455.928 136.817 L 455.404 136.817 L 455.404 136.817 Q 451.219 141.93 442.646 141.93 Z  M 446.953 134.401 L 446.953 134.401 L 446.953 134.401 Q 451.661 134.401 453.855 132.294 L 453.855 132.294 L 453.855 132.294 Q 456.048 130.187 456.25 125.137 L 456.25 125.137 L 456.25 124.114 L 456.25 124.114 Q 456.25 118.537 454.016 116.121 L 454.016 116.121 L 454.016 116.121 Q 451.782 113.704 446.751 113.704 L 446.751 113.704 L 446.751 113.704 Q 442.646 113.704 440.372 116.384 L 440.372 116.384 L 440.372 116.384 Q 438.098 119.064 438.098 124.176 L 438.098 124.176 L 438.098 124.176 Q 438.098 129.288 440.393 131.845 L 440.393 131.845 L 440.393 131.845 Q 442.687 134.401 446.953 134.401 Z  M 490.338 123.928 L 490.338 123.928 L 490.338 123.928 Q 490.338 129.072 492.531 131.705 L 492.531 131.705 L 492.531 131.705 Q 494.725 134.339 499.675 134.339 L 499.675 134.339 L 499.675 134.339 Q 504.585 134.339 506.738 131.721 L 506.738 131.721 L 506.738 131.721 Q 508.892 129.103 508.892 123.928 L 508.892 123.928 L 508.892 123.928 Q 508.892 118.785 506.718 116.214 L 506.718 116.214 L 506.718 116.214 Q 504.545 113.642 499.595 113.642 L 499.595 113.642 L 499.595 113.642 Q 494.685 113.642 492.511 116.198 L 492.511 116.198 L 492.511 116.198 Q 490.338 118.754 490.338 123.928 Z  M 521.448 123.928 L 521.448 123.928 L 521.448 123.928 Q 521.448 132.387 515.653 137.158 L 515.653 137.158 L 515.653 137.158 Q 509.857 141.93 499.514 141.93 L 499.514 141.93 L 499.514 141.93 Q 493.035 141.93 488.084 139.745 L 488.084 139.745 L 488.084 139.745 Q 483.134 137.561 480.478 133.471 L 480.478 133.471 L 480.478 133.471 Q 477.821 129.381 477.821 123.928 L 477.821 123.928 L 477.821 123.928 Q 477.821 115.439 483.577 110.73 L 483.577 110.73 L 483.577 110.73 Q 489.332 106.02 499.756 106.02 L 499.756 106.02 L 499.756 106.02 Q 506.235 106.02 511.186 108.189 L 511.186 108.189 L 511.186 108.189 Q 516.136 110.358 518.792 114.417 L 518.792 114.417 L 518.792 114.417 Q 521.448 118.475 521.448 123.928 Z  M 556.704 106.02 L 556.704 106.02 L 556.704 106.02 Q 559.199 106.02 560.849 106.299 L 560.849 106.299 L 559.924 115.16 L 559.924 115.16 Q 558.435 114.85 556.302 114.85 L 556.302 114.85 L 556.302 114.85 Q 550.426 114.85 547.146 117.174 L 547.146 117.174 L 547.146 117.174 Q 543.866 119.498 543.866 123.681 L 543.866 123.681 L 543.866 141.31 L 531.59 141.31 L 531.59 106.671 L 540.887 106.671 L 542.698 112.496 L 543.302 112.496 L 543.302 112.496 Q 545.395 109.583 548.957 107.802 L 548.957 107.802 L 548.957 107.802 Q 552.518 106.02 556.704 106.02 Z  M 587.653 112.744 L 587.653 112.744 L 587.653 112.744 Q 583.75 112.744 581.536 114.649 L 581.536 114.649 L 581.536 114.649 Q 579.322 116.554 579 120.056 L 579 120.056 L 596.226 120.056 L 596.226 120.056 Q 596.145 116.554 593.851 114.649 L 593.851 114.649 L 593.851 114.649 Q 591.557 112.744 587.653 112.744 Z  M 589.384 141.93 L 589.384 141.93 L 589.384 141.93 Q 578.518 141.93 572.4 137.313 L 572.4 137.313 L 572.4 137.313 Q 566.283 132.697 566.283 124.238 L 566.283 124.238 L 566.283 124.238 Q 566.283 115.532 571.937 110.776 L 571.937 110.776 L 571.937 110.776 Q 577.592 106.02 587.573 106.02 L 587.573 106.02 L 587.573 106.02 Q 597.111 106.02 602.424 110.203 L 602.424 110.203 L 602.424 110.203 Q 607.736 114.386 607.736 121.76 L 607.736 121.76 L 607.736 126.345 L 578.719 126.345 L 578.719 126.345 Q 578.92 130.373 581.818 132.635 L 581.818 132.635 L 581.818 132.635 Q 584.715 134.896 589.947 134.896 L 589.947 134.896 L 589.947 134.896 Q 594.012 134.896 597.634 134.246 L 597.634 134.246 L 597.634 134.246 Q 601.257 133.595 605.201 132.17 L 605.201 132.17 L 605.201 139.482 L 605.201 139.482 Q 601.981 140.721 598.319 141.325 L 598.319 141.325 L 598.319 141.325 Q 594.656 141.93 589.384 141.93 Z " fill="rgb(255,255,255)"/><path d=" M 68.916 143.841 L 68.916 158.655 L 68.916 158.655 Q 64.699 161.292 60.123 162.634 L 60.123 162.634 L 60.123 162.634 Q 55.548 163.976 50.574 163.976 L 50.574 163.976 L 50.574 163.976 Q 35.733 163.976 27.059 153.981 L 27.059 153.981 L 27.059 153.981 Q 18.385 143.985 18.385 126.87 L 18.385 126.87 L 18.385 126.87 Q 18.385 109.708 27.059 99.712 L 27.059 99.712 L 27.059 99.712 Q 35.733 89.717 50.574 89.717 L 50.574 89.717 L 50.574 89.717 Q 55.548 89.717 60.123 91.059 L 60.123 91.059 L 60.123 91.059 Q 64.699 92.401 68.916 95.038 L 68.916 95.038 L 68.916 109.852 L 68.916 109.852 Q 64.659 106.352 60.521 104.722 L 60.521 104.722 L 60.521 104.722 Q 56.383 103.092 51.807 103.092 L 51.807 103.092 L 51.807 103.092 Q 43.611 103.092 38.916 109.42 L 38.916 109.42 L 38.916 109.42 Q 34.221 115.748 34.221 126.87 L 34.221 126.87 L 34.221 126.87 Q 34.221 137.945 38.916 144.273 L 38.916 144.273 L 38.916 144.273 Q 43.611 150.601 51.807 150.601 L 51.807 150.601 L 51.807 150.601 Q 56.383 150.601 60.521 148.971 L 60.521 148.971 L 60.521 148.971 Q 64.659 147.341 68.916 143.841 L 68.916 143.841 Z " fill="rgb(255,255,255)"/><path d=" M 68.916 109.852 L 68.916 126.345 L 87.704 126.345 L 103.206 109.852 L 68.916 109.852 Z " fill="rgb(255,255,255)"/><path d=" M 68.916 143.841 L 68.916 127.348 L 87.704 127.348 L 103.206 143.841 L 68.916 143.841 Z " fill="rgb(255,255,255)"/><rect x="668.89" y="121.728" width="61.382" height="8.485" transform="matrix(0,1,-1,0,825.551,-573.611)" fill="rgb(213,0,0)"/><rect x="651.92" y="121.728" width="61.382" height="8.485" transform="matrix(0,1,-1,0,808.581,-556.641)" fill="rgb(213,99,0)"/><rect x="634.95" y="121.728" width="61.382" height="8.485" transform="matrix(0,1,-1,0,791.611,-539.671)" fill="rgb(183,177,0)"/><rect x="601.011" y="121.728" width="61.382" height="8.485" transform="matrix(0,1,-1,0,757.672,-505.732)" fill="rgb(55,141,221)"/><rect x="617.981" y="121.728" width="61.382" height="8.485" transform="matrix(0,1,-1,0,774.641,-522.701)" fill="rgb(80,172,30)"/><path d=" M 945.396 128.537 L 945.396 102.292 L 927.675 128.537 L 945.396 128.537 L 945.396 128.537 Z  M 917.597 126.396 L 942.708 88.981 L 960.681 88.981 L 960.681 128.537 L 969.625 128.537 L 969.625 140.253 L 960.681 140.253 L 960.681 151.675 L 945.396 151.675 L 945.396 140.253 L 917.597 140.253 L 917.597 126.396 L 917.597 126.396 Z  M 738.21 146.059 L 738.21 146.059 L 738.21 166.443 L 725.799 166.443 L 725.799 112.847 L 738.21 112.847 L 738.21 118.532 L 738.21 118.532 Q 740.775 115.135 743.895 113.523 L 743.895 113.523 L 743.895 113.523 Q 747.015 111.911 751.072 111.911 L 751.072 111.911 L 751.072 111.911 Q 758.248 111.911 762.859 117.614 L 762.859 117.614 L 762.859 117.614 Q 767.47 123.317 767.47 132.296 L 767.47 132.296 L 767.47 132.296 Q 767.47 141.275 762.859 146.977 L 762.859 146.977 L 762.859 146.977 Q 758.248 152.68 751.072 152.68 L 751.072 152.68 L 751.072 152.68 Q 747.015 152.68 743.895 151.068 L 743.895 151.068 L 743.895 151.068 Q 740.775 149.456 738.21 146.059 Z  M 746.461 120.924 L 746.461 120.924 L 746.461 120.924 Q 742.474 120.924 740.342 123.854 L 740.342 123.854 L 740.342 123.854 Q 738.21 126.783 738.21 132.296 L 738.21 132.296 L 738.21 132.296 Q 738.21 137.808 740.342 140.737 L 740.342 140.737 L 740.342 140.737 Q 742.474 143.667 746.461 143.667 L 746.461 143.667 L 746.461 143.667 Q 750.448 143.667 752.545 140.755 L 752.545 140.755 L 752.545 140.755 Q 754.642 137.842 754.642 132.296 L 754.642 132.296 L 754.642 132.296 Q 754.642 126.749 752.545 123.837 L 752.545 123.837 L 752.545 123.837 Q 750.448 120.924 746.461 120.924 Z  M 776.622 151.675 L 776.622 97.732 L 789.033 97.732 L 789.033 151.675 L 776.622 151.675 L 776.622 151.675 Z  M 800.543 136.56 L 800.543 136.56 L 800.543 112.847 L 813.023 112.847 L 813.023 116.73 L 813.023 116.73 Q 813.023 119.884 812.989 124.651 L 812.989 124.651 L 812.989 124.651 Q 812.954 129.418 812.954 131.013 L 812.954 131.013 L 812.954 131.013 Q 812.954 135.693 813.197 137.756 L 813.197 137.756 L 813.197 137.756 Q 813.439 139.818 814.029 140.755 L 814.029 140.755 L 814.029 140.755 Q 814.791 141.968 816.022 142.627 L 816.022 142.627 L 816.022 142.627 Q 817.253 143.285 818.847 143.285 L 818.847 143.285 L 818.847 143.285 Q 822.73 143.285 824.949 140.304 L 824.949 140.304 L 824.949 140.304 Q 827.168 137.322 827.168 132.018 L 827.168 132.018 L 827.168 112.847 L 839.579 112.847 L 839.579 151.675 L 827.168 151.675 L 827.168 146.059 L 827.168 146.059 Q 824.36 149.456 821.222 151.068 L 821.222 151.068 L 821.222 151.068 Q 818.085 152.68 814.306 152.68 L 814.306 152.68 L 814.306 152.68 Q 807.58 152.68 804.062 148.555 L 804.062 148.555 L 804.062 148.555 Q 800.543 144.429 800.543 136.56 Z  M 881.839 114.06 L 881.839 114.06 L 881.839 123.49 L 881.839 123.49 Q 877.852 121.826 874.143 120.994 L 874.143 120.994 L 874.143 120.994 Q 870.433 120.162 867.14 120.162 L 867.14 120.162 L 867.14 120.162 Q 863.604 120.162 861.888 121.046 L 861.888 121.046 L 861.888 121.046 Q 860.172 121.93 860.172 123.767 L 860.172 123.767 L 860.172 123.767 Q 860.172 125.258 861.472 126.055 L 861.472 126.055 L 861.472 126.055 Q 862.772 126.853 866.135 127.234 L 866.135 127.234 L 868.319 127.546 L 868.319 127.546 Q 877.852 128.759 881.146 131.533 L 881.146 131.533 L 881.146 131.533 Q 884.439 134.306 884.439 140.234 L 884.439 140.234 L 884.439 140.234 Q 884.439 146.44 879.863 149.56 L 879.863 149.56 L 879.863 149.56 Q 875.287 152.68 866.204 152.68 L 866.204 152.68 L 866.204 152.68 Q 862.356 152.68 858.248 152.074 L 858.248 152.074 L 858.248 152.074 Q 854.139 151.467 849.806 150.254 L 849.806 150.254 L 849.806 140.824 L 849.806 140.824 Q 853.515 142.627 857.416 143.528 L 857.416 143.528 L 857.416 143.528 Q 861.316 144.429 865.337 144.429 L 865.337 144.429 L 865.337 144.429 Q 868.977 144.429 870.815 143.424 L 870.815 143.424 L 870.815 143.424 Q 872.652 142.419 872.652 140.442 L 872.652 140.442 L 872.652 140.442 Q 872.652 138.778 871.387 137.964 L 871.387 137.964 L 871.387 137.964 Q 870.121 137.149 866.343 136.698 L 866.343 136.698 L 864.158 136.421 L 864.158 136.421 Q 855.873 135.381 852.545 132.573 L 852.545 132.573 L 852.545 132.573 Q 849.217 129.765 849.217 124.045 L 849.217 124.045 L 849.217 124.045 Q 849.217 117.874 853.446 114.892 L 853.446 114.892 L 853.446 114.892 Q 857.676 111.911 866.412 111.911 L 866.412 111.911 L 866.412 111.911 Q 869.844 111.911 873.623 112.431 L 873.623 112.431 L 873.623 112.431 Q 877.402 112.951 881.839 114.06 Z  M 887.802 158.262 L 906.037 99.916 L 913.734 99.916 L 895.464 158.262 L 887.802 158.262 L 887.802 158.262 Z " fill="rgb(255,255,255)"/></g></svg>