<?xml version="1.0" encoding="UTF-8" standalone="no"?><!-- Generator: Gravit.io --><svg xmlns="http://www.w3.org/2000/svg" xmlns:xlink="http://www.w3.org/1999/xlink" style="isolation:isolate" viewBox="0 0 992 250" width="992pt" height="250pt"><defs><clipPath id="_clipPath_X7c3XsbRLOr6YWTdeMvFRhZbG4GBUY5E"><rect width="992" height="250"/></clipPath></defs><g clip-path="url(#_clipPath_X7c3XsbRLOr6YWTdeMvFRhZbG4GBUY5E)"><path d=" M 402.083 10 C 387.389 10 375.333 22.055 375.333 36.75 L 375.333 197.25 C 375.333 211.945 387.389 224 402.083 224 L 598.25 224 C 612.945 224 625 211.945 625 197.25 L 625 72.417 C 625 57.722 612.945 45.667 598.25 45.667 L 478.713 45.667 L 467.086 24.088 C 462.44 15.409 453.391 9.993 443.546 10 L 402.083 10 Z  M 402.083 27.833 L 443.528 27.833 C 446.809 27.833 449.805 29.652 451.41 32.506 L 458.508 45.667 L 393.167 45.667 L 393.167 36.75 C 393.167 31.739 397.072 27.833 402.083 27.833 Z  M 393.167 63.5 L 598.25 63.5 C 603.261 63.5 607.167 67.406 607.167 72.417 L 607.167 197.25 C 607.167 202.261 603.261 206.167 598.25 206.167 L 402.083 206.167 C 399.71 206.196 397.425 205.266 395.746 203.587 C 394.068 201.909 393.138 199.624 393.167 197.25 L 393.167 63.5 Z " fill-rule="evenodd" fill="rgb(215,215,215)"/><path d=" M 343.773 89.68 L 343.773 105.371 L 343.773 105.371 Q 338.391 108.164 332.551 109.586 L 332.551 109.586 L 332.551 109.586 Q 326.711 111.008 320.363 111.008 L 320.363 111.008 L 320.363 111.008 Q 301.422 111.008 290.352 100.42 L 290.352 100.42 L 290.352 100.42 Q 279.281 89.832 279.281 71.703 L 279.281 71.703 L 279.281 71.703 Q 279.281 53.523 290.352 42.936 L 290.352 42.936 L 290.352 42.936 Q 301.422 32.348 320.363 32.348 L 320.363 32.348 L 320.363 32.348 Q 326.711 32.348 332.551 33.77 L 332.551 33.77 L 332.551 33.77 Q 338.391 35.191 343.773 37.984 L 343.773 37.984 L 343.773 53.676 L 343.773 53.676 Q 338.34 49.969 333.059 48.242 L 333.059 48.242 L 333.059 48.242 Q 327.777 46.516 321.938 46.516 L 321.938 46.516 L 321.938 46.516 Q 311.477 46.516 305.484 53.219 L 305.484 53.219 L 305.484 53.219 Q 299.492 59.922 299.492 71.703 L 299.492 71.703 L 299.492 71.703 Q 299.492 83.434 305.484 90.137 L 305.484 90.137 L 305.484 90.137 Q 311.477 96.84 321.938 96.84 L 321.938 96.84 L 321.938 96.84 Q 327.777 96.84 333.059 95.113 L 333.059 95.113 L 333.059 95.113 Q 338.34 93.387 343.773 89.68 L 343.773 89.68 Z  M 358.551 87.395 L 358.551 87.395 L 358.551 52.66 L 376.832 52.66 L 376.832 58.348 L 376.832 58.348 Q 376.832 62.969 376.781 69.951 L 376.781 69.951 L 376.781 69.951 Q 376.73 76.934 376.73 79.27 L 376.73 79.27 L 376.73 79.27 Q 376.73 86.125 377.086 89.146 L 377.086 89.146 L 377.086 89.146 Q 377.441 92.168 378.305 93.539 L 378.305 93.539 L 378.305 93.539 Q 379.422 95.316 381.225 96.281 L 381.225 96.281 L 381.225 96.281 Q 383.027 97.246 385.363 97.246 L 385.363 97.246 L 385.363 97.246 Q 391.051 97.246 394.301 92.879 L 394.301 92.879 L 394.301 92.879 Q 397.551 88.512 397.551 80.742 L 397.551 80.742 L 397.551 52.66 L 415.73 52.66 L 415.73 109.535 L 397.551 109.535 L 397.551 101.309 L 397.551 101.309 Q 393.438 106.285 388.842 108.646 L 388.842 108.646 L 388.842 108.646 Q 384.246 111.008 378.711 111.008 L 378.711 111.008 L 378.711 111.008 Q 368.859 111.008 363.705 104.965 L 363.705 104.965 L 363.705 104.965 Q 358.551 98.922 358.551 87.395 Z  M 477.633 54.438 L 477.633 54.438 L 477.633 68.25 L 477.633 68.25 Q 471.793 65.813 466.359 64.594 L 466.359 64.594 L 466.359 64.594 Q 460.926 63.375 456.102 63.375 L 456.102 63.375 L 456.102 63.375 Q 450.922 63.375 448.408 64.67 L 448.408 64.67 L 448.408 64.67 Q 445.895 65.965 445.895 68.656 L 445.895 68.656 L 445.895 68.656 Q 445.895 70.84 447.799 72.008 L 447.799 72.008 L 447.799 72.008 Q 449.703 73.176 454.629 73.734 L 454.629 73.734 L 457.828 74.191 L 457.828 74.191 Q 471.793 75.969 476.617 80.031 L 476.617 80.031 L 476.617 80.031 Q 481.441 84.094 481.441 92.777 L 481.441 92.777 L 481.441 92.777 Q 481.441 101.867 474.738 106.438 L 474.738 106.438 L 474.738 106.438 Q 468.035 111.008 454.73 111.008 L 454.73 111.008 L 454.73 111.008 Q 449.094 111.008 443.076 110.119 L 443.076 110.119 L 443.076 110.119 Q 437.059 109.23 430.711 107.453 L 430.711 107.453 L 430.711 93.641 L 430.711 93.641 Q 436.145 96.281 441.857 97.602 L 441.857 97.602 L 441.857 97.602 Q 447.57 98.922 453.461 98.922 L 453.461 98.922 L 453.461 98.922 Q 458.793 98.922 461.484 97.449 L 461.484 97.449 L 461.484 97.449 Q 464.176 95.977 464.176 93.082 L 464.176 93.082 L 464.176 93.082 Q 464.176 90.645 462.322 89.451 L 462.322 89.451 L 462.322 89.451 Q 460.469 88.258 454.934 87.598 L 454.934 87.598 L 451.734 87.191 L 451.734 87.191 Q 439.598 85.668 434.723 81.555 L 434.723 81.555 L 434.723 81.555 Q 429.848 77.441 429.848 69.063 L 429.848 69.063 L 429.848 69.063 Q 429.848 60.023 436.043 55.656 L 436.043 55.656 L 436.043 55.656 Q 442.238 51.289 455.035 51.289 L 455.035 51.289 L 455.035 51.289 Q 460.063 51.289 465.598 52.051 L 465.598 52.051 L 465.598 52.051 Q 471.133 52.813 477.633 54.438 Z  M 496.777 36.512 L 514.957 36.512 L 514.957 52.66 L 533.695 52.66 L 533.695 65.66 L 514.957 65.66 L 514.957 89.781 L 514.957 89.781 Q 514.957 93.742 516.531 95.139 L 516.531 95.139 L 516.531 95.139 Q 518.105 96.535 522.777 96.535 L 522.777 96.535 L 532.121 96.535 L 532.121 109.535 L 516.531 109.535 L 516.531 109.535 Q 505.766 109.535 501.271 105.041 L 501.271 105.041 L 501.271 105.041 Q 496.777 100.547 496.777 89.781 L 496.777 89.781 L 496.777 65.66 L 487.738 65.66 L 487.738 52.66 L 496.777 52.66 L 496.777 36.512 Z  M 571.883 64.289 L 571.883 64.289 L 571.883 64.289 Q 565.84 64.289 562.666 68.631 L 562.666 68.631 L 562.666 68.631 Q 559.492 72.973 559.492 81.148 L 559.492 81.148 L 559.492 81.148 Q 559.492 89.324 562.666 93.666 L 562.666 93.666 L 562.666 93.666 Q 565.84 98.008 571.883 98.008 L 571.883 98.008 L 571.883 98.008 Q 577.824 98.008 580.973 93.666 L 580.973 93.666 L 580.973 93.666 Q 584.121 89.324 584.121 81.148 L 584.121 81.148 L 584.121 81.148 Q 584.121 72.973 580.973 68.631 L 580.973 68.631 L 580.973 68.631 Q 577.824 64.289 571.883 64.289 Z  M 571.883 51.289 L 571.883 51.289 L 571.883 51.289 Q 586.559 51.289 594.811 59.211 L 594.811 59.211 L 594.811 59.211 Q 603.063 67.133 603.063 81.148 L 603.063 81.148 L 603.063 81.148 Q 603.063 95.164 594.811 103.086 L 594.811 103.086 L 594.811 103.086 Q 586.559 111.008 571.883 111.008 L 571.883 111.008 L 571.883 111.008 Q 557.156 111.008 548.854 103.086 L 548.854 103.086 L 548.854 103.086 Q 540.551 95.164 540.551 81.148 L 540.551 81.148 L 540.551 81.148 Q 540.551 67.133 548.854 59.211 L 548.854 59.211 L 548.854 59.211 Q 557.156 51.289 571.883 51.289 Z  M 668.977 62.105 L 668.977 62.105 L 668.977 62.105 Q 672.43 56.824 677.178 54.057 L 677.178 54.057 L 677.178 54.057 Q 681.926 51.289 687.613 51.289 L 687.613 51.289 L 687.613 51.289 Q 697.414 51.289 702.543 57.332 L 702.543 57.332 L 702.543 57.332 Q 707.672 63.375 707.672 74.902 L 707.672 74.902 L 707.672 109.535 L 689.391 109.535 L 689.391 79.879 L 689.391 79.879 Q 689.441 79.219 689.467 78.508 L 689.467 78.508 L 689.467 78.508 Q 689.492 77.797 689.492 76.477 L 689.492 76.477 L 689.492 76.477 Q 689.492 70.434 687.715 67.717 L 687.715 67.717 L 687.715 67.717 Q 685.938 65 681.977 65 L 681.977 65 L 681.977 65 Q 676.797 65 673.979 69.266 L 673.979 69.266 L 673.979 69.266 Q 671.16 73.531 671.059 81.605 L 671.059 81.605 L 671.059 109.535 L 652.777 109.535 L 652.777 79.879 L 652.777 79.879 Q 652.777 70.434 651.152 67.717 L 651.152 67.717 L 651.152 67.717 Q 649.527 65 645.363 65 L 645.363 65 L 645.363 65 Q 640.133 65 637.289 69.291 L 637.289 69.291 L 637.289 69.291 Q 634.445 73.582 634.445 81.555 L 634.445 81.555 L 634.445 109.535 L 616.164 109.535 L 616.164 52.66 L 634.445 52.66 L 634.445 60.988 L 634.445 60.988 Q 637.797 56.164 642.139 53.727 L 642.139 53.727 L 642.139 53.727 Q 646.48 51.289 651.711 51.289 L 651.711 51.289 L 651.711 51.289 Q 657.602 51.289 662.121 54.133 L 662.121 54.133 L 662.121 54.133 Q 666.641 56.977 668.977 62.105 Z  M 242.668 180.477 L 242.668 196.168 L 242.668 196.168 Q 237.285 198.961 231.445 200.383 L 231.445 200.383 L 231.445 200.383 Q 225.605 201.805 219.258 201.805 L 219.258 201.805 L 219.258 201.805 Q 200.316 201.805 189.246 191.217 L 189.246 191.217 L 189.246 191.217 Q 178.176 180.629 178.176 162.5 L 178.176 162.5 L 178.176 162.5 Q 178.176 144.32 189.246 133.732 L 189.246 133.732 L 189.246 133.732 Q 200.316 123.145 219.258 123.145 L 219.258 123.145 L 219.258 123.145 Q 225.605 123.145 231.445 124.566 L 231.445 124.566 L 231.445 124.566 Q 237.285 125.988 242.668 128.781 L 242.668 128.781 L 242.668 144.473 L 242.668 144.473 Q 237.234 140.766 231.953 139.039 L 231.953 139.039 L 231.953 139.039 Q 226.672 137.313 220.832 137.313 L 220.832 137.313 L 220.832 137.313 Q 210.371 137.313 204.379 144.016 L 204.379 144.016 L 204.379 144.016 Q 198.387 150.719 198.387 162.5 L 198.387 162.5 L 198.387 162.5 Q 198.387 174.23 204.379 180.934 L 204.379 180.934 L 204.379 180.934 Q 210.371 187.637 220.832 187.637 L 220.832 187.637 L 220.832 187.637 Q 226.672 187.637 231.953 185.91 L 231.953 185.91 L 231.953 185.91 Q 237.234 184.184 242.668 180.477 L 242.668 180.477 Z  M 285.121 155.086 L 285.121 155.086 L 285.121 155.086 Q 279.078 155.086 275.904 159.428 L 275.904 159.428 L 275.904 159.428 Q 272.73 163.77 272.73 171.945 L 272.73 171.945 L 272.73 171.945 Q 272.73 180.121 275.904 184.463 L 275.904 184.463 L 275.904 184.463 Q 279.078 188.805 285.121 188.805 L 285.121 188.805 L 285.121 188.805 Q 291.063 188.805 294.211 184.463 L 294.211 184.463 L 294.211 184.463 Q 297.359 180.121 297.359 171.945 L 297.359 171.945 L 297.359 171.945 Q 297.359 163.77 294.211 159.428 L 294.211 159.428 L 294.211 159.428 Q 291.063 155.086 285.121 155.086 Z  M 285.121 142.086 L 285.121 142.086 L 285.121 142.086 Q 299.797 142.086 308.049 150.008 L 308.049 150.008 L 308.049 150.008 Q 316.301 157.93 316.301 171.945 L 316.301 171.945 L 316.301 171.945 Q 316.301 185.961 308.049 193.883 L 308.049 193.883 L 308.049 193.883 Q 299.797 201.805 285.121 201.805 L 285.121 201.805 L 285.121 201.805 Q 270.395 201.805 262.092 193.883 L 262.092 193.883 L 262.092 193.883 Q 253.789 185.961 253.789 171.945 L 253.789 171.945 L 253.789 171.945 Q 253.789 157.93 262.092 150.008 L 262.092 150.008 L 262.092 150.008 Q 270.395 142.086 285.121 142.086 Z  M 329.504 200.332 L 329.504 121.316 L 347.684 121.316 L 347.684 200.332 L 329.504 200.332 Z  M 365.152 200.332 L 365.152 121.316 L 383.332 121.316 L 383.332 200.332 L 365.152 200.332 Z  M 457.574 171.742 L 457.574 171.742 L 457.574 176.922 L 415.07 176.922 L 415.07 176.922 Q 415.73 183.32 419.691 186.52 L 419.691 186.52 L 419.691 186.52 Q 423.652 189.719 430.762 189.719 L 430.762 189.719 L 430.762 189.719 Q 436.5 189.719 442.518 188.018 L 442.518 188.018 L 442.518 188.018 Q 448.535 186.316 454.883 182.863 L 454.883 182.863 L 454.883 196.879 L 454.883 196.879 Q 448.434 199.316 441.984 200.561 L 441.984 200.561 L 441.984 200.561 Q 435.535 201.805 429.086 201.805 L 429.086 201.805 L 429.086 201.805 Q 413.648 201.805 405.092 193.959 L 405.092 193.959 L 405.092 193.959 Q 396.535 186.113 396.535 171.945 L 396.535 171.945 L 396.535 171.945 Q 396.535 158.031 404.939 150.059 L 404.939 150.059 L 404.939 150.059 Q 413.344 142.086 428.07 142.086 L 428.07 142.086 L 428.07 142.086 Q 441.477 142.086 449.525 150.16 L 449.525 150.16 L 449.525 150.16 Q 457.574 158.234 457.574 171.742 Z  M 415.273 165.699 L 438.887 165.699 L 438.887 165.699 Q 438.887 160.52 435.865 157.346 L 435.865 157.346 L 435.865 157.346 Q 432.844 154.172 427.969 154.172 L 427.969 154.172 L 427.969 154.172 Q 422.688 154.172 419.387 157.143 L 419.387 157.143 L 419.387 157.143 Q 416.086 160.113 415.273 165.699 L 415.273 165.699 Z  M 517.293 145.234 L 517.293 145.234 L 517.293 160.063 L 517.293 160.063 Q 513.586 157.523 509.854 156.305 L 509.854 156.305 L 509.854 156.305 Q 506.121 155.086 502.109 155.086 L 502.109 155.086 L 502.109 155.086 Q 494.492 155.086 490.252 159.529 L 490.252 159.529 L 490.252 159.529 Q 486.012 163.973 486.012 171.945 L 486.012 171.945 L 486.012 171.945 Q 486.012 179.918 490.252 184.361 L 490.252 184.361 L 490.252 184.361 Q 494.492 188.805 502.109 188.805 L 502.109 188.805 L 502.109 188.805 Q 506.375 188.805 510.209 187.535 L 510.209 187.535 L 510.209 187.535 Q 514.043 186.266 517.293 183.777 L 517.293 183.777 L 517.293 198.656 L 517.293 198.656 Q 513.027 200.23 508.635 201.018 L 508.635 201.018 L 508.635 201.018 Q 504.242 201.805 499.824 201.805 L 499.824 201.805 L 499.824 201.805 Q 484.438 201.805 475.754 193.908 L 475.754 193.908 L 475.754 193.908 Q 467.07 186.012 467.07 171.945 L 467.07 171.945 L 467.07 171.945 Q 467.07 157.879 475.754 149.982 L 475.754 149.982 L 475.754 149.982 Q 484.438 142.086 499.824 142.086 L 499.824 142.086 L 499.824 142.086 Q 504.293 142.086 508.635 142.873 L 508.635 142.873 L 508.635 142.873 Q 512.977 143.66 517.293 145.234 Z  M 534.66 127.309 L 552.84 127.309 L 552.84 143.457 L 571.578 143.457 L 571.578 156.457 L 552.84 156.457 L 552.84 180.578 L 552.84 180.578 Q 552.84 184.539 554.414 185.936 L 554.414 185.936 L 554.414 185.936 Q 555.988 187.332 560.66 187.332 L 560.66 187.332 L 570.004 187.332 L 570.004 200.332 L 554.414 200.332 L 554.414 200.332 Q 543.648 200.332 539.154 195.838 L 539.154 195.838 L 539.154 195.838 Q 534.66 191.344 534.66 180.578 L 534.66 180.578 L 534.66 156.457 L 525.621 156.457 L 525.621 143.457 L 534.66 143.457 L 534.66 127.309 Z  M 582.699 200.332 L 582.699 143.457 L 600.879 143.457 L 600.879 200.332 L 582.699 200.332 Z  M 582.699 136.145 L 582.699 121.316 L 600.879 121.316 L 600.879 136.145 L 582.699 136.145 Z  M 645.414 155.086 L 645.414 155.086 L 645.414 155.086 Q 639.371 155.086 636.197 159.428 L 636.197 159.428 L 636.197 159.428 Q 633.023 163.77 633.023 171.945 L 633.023 171.945 L 633.023 171.945 Q 633.023 180.121 636.197 184.463 L 636.197 184.463 L 636.197 184.463 Q 639.371 188.805 645.414 188.805 L 645.414 188.805 L 645.414 188.805 Q 651.355 188.805 654.504 184.463 L 654.504 184.463 L 654.504 184.463 Q 657.652 180.121 657.652 171.945 L 657.652 171.945 L 657.652 171.945 Q 657.652 163.77 654.504 159.428 L 654.504 159.428 L 654.504 159.428 Q 651.355 155.086 645.414 155.086 Z  M 645.414 142.086 L 645.414 142.086 L 645.414 142.086 Q 660.09 142.086 668.342 150.008 L 668.342 150.008 L 668.342 150.008 Q 676.594 157.93 676.594 171.945 L 676.594 171.945 L 676.594 171.945 Q 676.594 185.961 668.342 193.883 L 668.342 193.883 L 668.342 193.883 Q 660.09 201.805 645.414 201.805 L 645.414 201.805 L 645.414 201.805 Q 630.688 201.805 622.385 193.883 L 622.385 193.883 L 622.385 193.883 Q 614.082 185.961 614.082 171.945 L 614.082 171.945 L 614.082 171.945 Q 614.082 157.93 622.385 150.008 L 622.385 150.008 L 622.385 150.008 Q 630.688 142.086 645.414 142.086 Z  M 746.977 165.699 L 746.977 165.699 L 746.977 200.332 L 728.695 200.332 L 728.695 194.695 L 728.695 173.824 L 728.695 173.824 Q 728.695 166.461 728.365 163.668 L 728.365 163.668 L 728.365 163.668 Q 728.035 160.875 727.223 159.555 L 727.223 159.555 L 727.223 159.555 Q 726.156 157.777 724.328 156.787 L 724.328 156.787 L 724.328 156.787 Q 722.5 155.797 720.164 155.797 L 720.164 155.797 L 720.164 155.797 Q 714.477 155.797 711.227 160.189 L 711.227 160.189 L 711.227 160.189 Q 707.977 164.582 707.977 172.352 L 707.977 172.352 L 707.977 200.332 L 689.797 200.332 L 689.797 143.457 L 707.977 143.457 L 707.977 151.785 L 707.977 151.785 Q 712.09 146.809 716.711 144.447 L 716.711 144.447 L 716.711 144.447 Q 721.332 142.086 726.918 142.086 L 726.918 142.086 L 726.918 142.086 Q 736.77 142.086 741.873 148.129 L 741.873 148.129 L 741.873 148.129 Q 746.977 154.172 746.977 165.699 Z  M 808.27 145.234 L 808.27 145.234 L 808.27 159.047 L 808.27 159.047 Q 802.43 156.609 796.996 155.391 L 796.996 155.391 L 796.996 155.391 Q 791.563 154.172 786.738 154.172 L 786.738 154.172 L 786.738 154.172 Q 781.559 154.172 779.045 155.467 L 779.045 155.467 L 779.045 155.467 Q 776.531 156.762 776.531 159.453 L 776.531 159.453 L 776.531 159.453 Q 776.531 161.637 778.436 162.805 L 778.436 162.805 L 778.436 162.805 Q 780.34 163.973 785.266 164.531 L 785.266 164.531 L 788.465 164.988 L 788.465 164.988 Q 802.43 166.766 807.254 170.828 L 807.254 170.828 L 807.254 170.828 Q 812.078 174.891 812.078 183.574 L 812.078 183.574 L 812.078 183.574 Q 812.078 192.664 805.375 197.234 L 805.375 197.234 L 805.375 197.234 Q 798.672 201.805 785.367 201.805 L 785.367 201.805 L 785.367 201.805 Q 779.73 201.805 773.713 200.916 L 773.713 200.916 L 773.713 200.916 Q 767.695 200.027 761.348 198.25 L 761.348 198.25 L 761.348 184.438 L 761.348 184.438 Q 766.781 187.078 772.494 188.398 L 772.494 188.398 L 772.494 188.398 Q 778.207 189.719 784.098 189.719 L 784.098 189.719 L 784.098 189.719 Q 789.43 189.719 792.121 188.246 L 792.121 188.246 L 792.121 188.246 Q 794.813 186.773 794.813 183.879 L 794.813 183.879 L 794.813 183.879 Q 794.813 181.441 792.959 180.248 L 792.959 180.248 L 792.959 180.248 Q 791.105 179.055 785.57 178.395 L 785.57 178.395 L 782.371 177.988 L 782.371 177.988 Q 770.234 176.465 765.359 172.352 L 765.359 172.352 L 765.359 172.352 Q 760.484 168.238 760.484 159.859 L 760.484 159.859 L 760.484 159.859 Q 760.484 150.82 766.68 146.453 L 766.68 146.453 L 766.68 146.453 Q 772.875 142.086 785.672 142.086 L 785.672 142.086 L 785.672 142.086 Q 790.699 142.086 796.234 142.848 L 796.234 142.848 L 796.234 142.848 Q 801.77 143.609 808.27 145.234 Z " fill-rule="evenodd" fill="rgb(52,117,215)"/></g></svg>