<?xml version="1.0" encoding="UTF-8" standalone="no"?><!-- Generator: Gravit.io --><svg xmlns="http://www.w3.org/2000/svg" xmlns:xlink="http://www.w3.org/1999/xlink" style="isolation:isolate" viewBox="0 0 992 250" width="992pt" height="250pt"><defs><clipPath id="_clipPath_0ijlAty8GxxZBMVOqSplx0ieb8VxCuKJ"><rect width="992" height="250"/></clipPath></defs><g clip-path="url(#_clipPath_0ijlAty8GxxZBMVOqSplx0ieb8VxCuKJ)"><path d=" M 344.686 92.236 L 344.686 92.236 L 344.686 92.236 Q 328.403 112.642 321.188 133.048 L 321.188 133.048 L 321.395 133.048 L 321.395 133.048 Q 350.045 133.048 354.271 133.151 L 354.271 133.151 L 354.271 133.151 Q 358.496 133.254 358.908 132.842 L 358.908 132.842 L 358.908 132.842 Q 359.321 132.43 359.527 131.811 L 359.527 131.811 L 359.527 131.811 Q 356.023 106.458 353.962 97.286 L 353.962 97.286 L 353.962 97.286 Q 351.9 88.114 349.839 88.114 L 349.839 88.114 L 349.839 88.114 Q 347.778 88.114 344.686 92.236 Z  M 326.341 189.319 L 326.341 189.319 L 330.876 188.494 L 330.876 188.494 Q 332.937 188.494 332.937 190.762 L 332.937 190.762 L 332.937 190.762 Q 332.937 197.976 330.052 202.923 L 330.052 202.923 L 330.052 202.923 Q 327.166 207.87 322.837 209.931 L 322.837 209.931 L 322.837 209.931 Q 315.829 213.435 310.882 213.435 L 310.882 213.435 L 310.882 213.435 Q 301.401 213.435 296.66 206.324 L 296.66 206.324 L 296.66 206.324 Q 291.919 199.213 291.919 184.887 L 291.919 184.887 L 291.919 184.887 Q 291.919 170.562 299.752 147.682 L 299.752 147.682 L 287.797 147.682 L 287.797 147.682 Q 285.53 147.682 285.53 145.415 L 285.53 145.415 L 285.53 145.415 Q 285.53 143.148 289.034 138.098 L 289.034 138.098 L 289.034 138.098 Q 292.538 133.048 296.454 133.048 L 296.454 133.048 L 305.729 133.048 L 305.729 133.048 Q 320.364 100.481 340.152 76.777 L 340.152 76.777 L 340.152 76.777 Q 345.305 70.594 352.828 65.234 L 352.828 65.234 L 352.828 65.234 Q 360.351 59.875 364.474 59.875 L 364.474 59.875 L 364.474 59.875 Q 368.596 59.875 370.657 63.585 L 370.657 63.585 L 370.657 63.585 Q 376.016 72.242 383.231 126.864 L 383.231 126.864 L 383.231 126.864 Q 385.704 150.362 391.785 175.406 L 391.785 175.406 L 391.785 175.406 Q 397.865 200.449 403.018 204.572 L 403.018 204.572 L 403.018 204.572 Q 404.255 205.396 404.255 206.633 L 404.255 206.633 L 404.255 206.633 Q 404.255 209.725 395.495 212.404 L 395.495 212.404 L 395.495 212.404 Q 386.735 215.084 382.097 215.084 L 382.097 215.084 L 382.097 215.084 Q 377.459 215.084 374.986 213.95 L 374.986 213.95 L 374.986 213.95 Q 372.512 212.816 371.894 211.58 L 371.894 211.58 L 371.894 211.58 Q 368.184 203.541 364.474 173.241 L 364.474 173.241 L 363.237 163.554 L 363.237 163.554 Q 362.412 153.866 361.588 148.919 L 361.588 148.919 L 360.145 147.889 L 317.066 147.682 L 317.066 147.682 Q 314.593 158.195 314.593 166.027 L 314.593 166.027 L 314.593 166.027 Q 314.593 173.86 315.108 177.467 L 315.108 177.467 L 315.108 177.467 Q 315.623 181.074 318.509 185.196 L 318.509 185.196 L 318.509 185.196 Q 321.395 189.319 326.341 189.319 Z  M 455.991 123.979 L 455.991 123.979 L 455.991 123.979 Q 456.816 123.979 459.083 125.628 L 459.083 125.628 L 459.083 125.628 Q 461.35 127.277 463.824 127.277 L 463.824 127.277 L 464.03 127.277 L 464.03 127.277 Q 471.038 127.277 475.16 121.711 L 475.16 121.711 L 475.16 121.711 Q 479.283 116.146 479.695 110.581 L 479.695 110.581 L 480.313 105.016 L 480.313 105.016 Q 480.313 97.183 477.943 91.515 L 477.943 91.515 L 477.943 91.515 Q 475.572 85.846 472.481 83.064 L 472.481 83.064 L 472.481 83.064 Q 469.389 80.281 465.266 78.838 L 465.266 78.838 L 465.266 78.838 Q 460.113 76.777 454.445 76.777 L 454.445 76.777 L 454.445 76.777 Q 448.777 76.777 445.273 77.911 L 445.273 77.911 L 445.273 77.911 Q 441.769 79.044 441.357 80.075 L 441.357 80.075 L 441.15 81.312 L 441.15 81.312 Q 439.295 109.138 439.295 131.09 L 439.295 131.09 L 439.295 131.09 Q 439.295 153.042 440.017 168.913 L 440.017 168.913 L 440.017 168.913 Q 440.738 184.784 441.46 193.338 L 441.46 193.338 L 441.46 193.338 Q 442.181 201.892 442.181 202.717 L 442.181 202.717 L 442.181 202.717 Q 442.181 207.87 433.112 210.961 L 433.112 210.961 L 433.112 210.961 Q 424.042 214.053 415.179 214.053 L 415.179 214.053 L 415.179 214.053 Q 411.057 214.053 411.057 211.992 L 411.057 211.992 L 411.057 211.992 Q 411.057 211.374 411.675 209.106 L 411.675 209.106 L 411.675 209.106 Q 415.592 200.037 415.592 124.803 L 415.592 124.803 L 415.592 124.803 Q 415.592 80.487 409.614 74.098 L 409.614 74.098 L 409.614 74.098 Q 408.377 72.861 408.377 71.521 L 408.377 71.521 L 408.377 71.521 Q 408.377 70.181 411.366 68.532 L 411.366 68.532 L 411.366 68.532 Q 414.355 66.883 428.165 64.719 L 428.165 64.719 L 428.165 64.719 Q 441.975 62.555 457.434 62.555 L 457.434 62.555 L 457.434 62.555 Q 481.756 62.555 494.02 75.747 L 494.02 75.747 L 494.02 75.747 Q 506.284 88.938 506.284 107.18 L 506.284 107.18 L 506.284 107.18 Q 506.284 125.422 496.288 138.819 L 496.288 138.819 L 496.288 138.819 Q 486.291 152.217 470.213 152.217 L 470.213 152.217 L 470.213 152.217 Q 465.06 152.217 459.907 150.362 L 459.907 150.362 L 459.907 150.362 Q 449.601 146.652 449.601 134.903 L 449.601 134.903 L 449.601 134.903 Q 449.601 132.43 451.25 128.204 L 451.25 128.204 L 451.25 128.204 Q 452.899 123.979 455.991 123.979 Z  M 545.86 119.032 L 545.86 119.032 L 545.86 121.917 L 582.343 121.917 L 582.343 121.505 L 582.343 121.505 Q 582.549 116.558 582.549 109.035 L 582.549 109.035 L 582.549 109.035 Q 582.549 101.512 582.343 95.843 L 582.343 95.843 L 582.343 95.843 Q 582.137 90.175 581.931 86.259 L 581.931 86.259 L 581.931 86.259 Q 581.724 82.342 581.415 79.457 L 581.415 79.457 L 581.415 79.457 Q 581.106 76.571 580.9 75.025 L 580.9 75.025 L 580.9 75.025 Q 580.694 73.479 580.694 72.242 L 580.694 72.242 L 580.694 72.242 Q 580.694 71.006 582.961 69.357 L 582.961 69.357 L 582.961 69.357 Q 592.855 62.761 605.016 62.761 L 605.016 62.761 L 605.016 62.761 Q 612.642 62.761 612.642 65.441 L 612.642 65.441 L 612.642 65.441 Q 612.642 65.647 612.23 67.708 L 612.23 67.708 L 612.23 67.708 Q 608.314 87.289 607.283 121.917 L 607.283 121.917 L 607.283 121.917 Q 606.665 156.546 606.665 159.019 L 606.665 159.019 L 606.665 159.019 Q 606.665 190.968 610.375 203.335 L 610.375 203.335 L 610.375 203.335 Q 610.993 204.984 610.993 206.118 L 610.993 206.118 L 610.993 206.118 Q 610.993 207.251 609.344 208.694 L 609.344 208.694 L 609.344 208.694 Q 601.718 213.641 589.557 213.641 L 589.557 213.641 L 589.557 213.641 Q 581.724 213.641 580.694 208.282 L 580.694 208.282 L 580.694 208.282 Q 580.075 205.396 580.075 199.316 L 580.075 199.316 L 580.075 199.316 Q 580.075 193.235 580.797 180.662 L 580.797 180.662 L 580.797 180.662 Q 581.518 168.088 581.931 136.758 L 581.931 136.758 L 545.86 136.758 L 545.86 136.758 Q 545.86 183.754 548.745 202.717 L 548.745 202.717 L 548.745 202.717 Q 548.745 207.663 539.264 210.858 L 539.264 210.858 L 539.264 210.858 Q 529.782 214.053 523.599 214.053 L 523.599 214.053 L 523.599 214.053 Q 517.415 214.053 517.415 212.198 L 517.415 212.198 L 517.415 212.198 Q 517.415 210.961 518.033 209.106 L 518.033 209.106 L 518.033 209.106 Q 521.95 200.449 521.95 139.438 L 521.95 139.438 L 521.95 136.758 L 509.788 136.758 L 509.788 136.758 Q 508.139 136.758 508.139 135.521 L 508.139 135.521 L 508.139 135.521 Q 508.139 135.109 508.964 132.327 L 508.964 132.327 L 508.964 132.327 Q 509.788 129.544 512.777 125.834 L 512.777 125.834 L 512.777 125.834 Q 515.766 122.124 519.476 122.124 L 519.476 122.124 L 521.743 122.124 L 521.743 122.124 Q 521.743 81.518 517.003 75.334 L 517.003 75.334 L 516.178 74.098 L 516.178 74.098 Q 514.941 73.067 514.941 71.521 L 514.941 71.521 L 514.941 71.521 Q 514.941 69.975 517.209 68.945 L 517.209 68.945 L 517.209 68.945 Q 520.301 67.089 528.236 65.234 L 528.236 65.234 L 528.236 65.234 Q 536.172 63.379 542.562 63.379 L 542.562 63.379 L 542.562 63.379 Q 548.951 63.379 548.951 66.265 L 548.951 66.265 L 548.951 66.883 L 548.951 66.883 Q 546.478 88.32 545.86 119.032 Z  M 702.511 145.827 L 702.511 145.827 L 702.305 121.299 L 702.305 121.299 Q 702.305 84.816 699.831 72.861 L 699.831 72.861 L 699.831 72.861 Q 699.419 71.418 699.419 70.594 L 699.419 70.594 L 699.419 70.594 Q 699.419 67.089 706.427 64.616 L 706.427 64.616 L 706.427 64.616 Q 713.435 62.143 717.558 62.143 L 717.558 62.143 L 717.558 62.143 Q 721.68 62.143 721.68 64.616 L 721.68 64.616 L 721.68 64.616 Q 721.68 64.822 721.268 66.883 L 721.268 66.883 L 721.268 66.883 Q 716.527 92.236 716.527 147.476 L 716.527 147.476 L 716.527 147.476 Q 716.527 185.196 720.856 201.686 L 720.856 201.686 L 720.856 201.686 Q 721.68 204.366 721.68 204.572 L 721.68 204.572 L 721.68 204.572 Q 721.68 208.9 712.199 211.683 L 712.199 211.683 L 712.199 211.683 Q 702.717 214.465 698.801 214.465 L 698.801 214.465 L 698.801 214.465 Q 692.617 214.465 690.35 211.58 L 690.35 211.58 L 690.35 211.58 Q 685.815 205.808 675.612 179.116 L 675.612 179.116 L 675.612 179.116 Q 665.409 152.423 657.783 129.338 L 657.783 129.338 L 649.95 106.252 L 649.95 106.252 Q 649.538 105.222 648.92 105.222 L 648.92 105.222 L 648.92 105.222 Q 648.095 105.222 647.065 106.665 L 647.065 106.665 L 647.065 106.665 Q 646.034 125.834 646.034 145.003 L 646.034 145.003 L 646.034 145.003 Q 646.034 164.172 646.343 174.478 L 646.343 174.478 L 646.343 174.478 Q 646.652 184.784 647.065 190.143 L 647.065 190.143 L 647.065 190.143 Q 647.477 195.502 647.889 198.697 L 647.889 198.697 L 647.889 198.697 Q 648.301 201.892 648.61 203.335 L 648.61 203.335 L 648.61 203.335 Q 648.92 204.778 648.92 205.396 L 648.92 205.396 L 648.92 205.396 Q 648.92 209.312 642.118 211.477 L 642.118 211.477 L 642.118 211.477 Q 635.316 213.641 629.854 213.641 L 629.854 213.641 L 629.854 213.641 Q 624.391 213.641 624.391 211.168 L 624.391 211.168 L 624.391 211.168 Q 624.391 209.931 625.01 208.076 L 625.01 208.076 L 625.01 208.076 Q 625.628 206.221 626.452 203.335 L 626.452 203.335 L 626.452 203.335 Q 628.514 196.121 629.338 177.055 L 629.338 177.055 L 629.338 177.055 Q 630.163 157.989 630.163 133.563 L 630.163 133.563 L 630.163 133.563 Q 630.163 109.138 629.544 98.008 L 629.544 98.008 L 629.544 98.008 Q 628.514 79.869 625.834 73.685 L 625.834 73.685 L 625.834 73.685 Q 625.216 73.067 625.216 72.036 L 625.216 72.036 L 625.216 72.036 Q 625.216 68.738 636.14 65.647 L 636.14 65.647 L 636.14 65.647 Q 647.065 62.555 653.145 62.555 L 653.145 62.555 L 653.145 62.555 Q 659.226 62.555 660.256 62.761 L 660.256 62.761 L 660.256 62.761 Q 663.142 62.555 663.76 66.059 L 663.76 66.059 L 663.76 66.059 Q 669.738 87.701 680.559 116.971 L 680.559 116.971 L 680.559 116.971 Q 691.38 146.24 699.831 161.699 L 699.831 161.699 L 699.831 161.699 Q 700.862 162.729 701.48 162.729 L 701.48 162.729 L 701.48 162.729 Q 702.511 162.729 702.511 145.827 Z  M 823.503 184.784 L 823.503 184.784 L 823.503 184.784 Q 823.503 199.213 814.331 206.221 L 814.331 206.221 L 814.331 206.221 Q 805.159 213.229 788.669 213.229 L 788.669 213.229 L 788.669 213.229 Q 762.286 213.229 749.815 195.709 L 749.815 195.709 L 749.815 195.709 Q 737.345 178.188 737.345 149.95 L 737.345 149.95 L 737.345 149.95 Q 737.345 145.415 737.757 136.758 L 737.757 136.758 L 726.215 136.758 L 726.215 136.758 Q 724.566 136.758 724.566 135.521 L 724.566 135.521 L 724.566 135.521 Q 724.566 132.017 728.07 127.07 L 728.07 127.07 L 728.07 127.07 Q 731.574 122.124 735.696 122.124 L 735.696 122.124 L 739.613 122.124 L 739.613 122.124 Q 742.292 107.283 748.373 95.946 L 748.373 95.946 L 748.373 95.946 Q 754.453 84.61 761.152 78.426 L 761.152 78.426 L 761.152 78.426 Q 767.851 72.242 775.89 68.532 L 775.89 68.532 L 775.89 68.532 Q 788.669 62.349 802.685 62.349 L 802.685 62.349 L 802.685 62.349 Q 816.701 62.349 820.206 66.883 L 820.206 66.883 L 820.206 66.883 Q 821.854 69.151 821.854 75.231 L 821.854 75.231 L 821.854 75.231 Q 821.854 81.312 820.412 81.312 L 820.412 81.312 L 820.412 81.312 Q 820.206 81.312 818.557 80.487 L 818.557 80.487 L 818.557 80.487 Q 813.197 78.014 805.159 78.014 L 805.159 78.014 L 805.159 78.014 Q 787.638 78.014 777.848 90.381 L 777.848 90.381 L 777.848 90.381 Q 768.057 102.748 764.759 122.124 L 764.759 122.124 L 764.759 122.124 Q 780.424 121.917 807.22 121.917 L 807.22 121.917 L 807.22 121.917 Q 809.281 121.917 809.281 123.36 L 809.281 123.36 L 809.281 123.36 Q 809.281 126.658 805.983 131.708 L 805.983 131.708 L 805.983 131.708 Q 802.685 136.758 798.563 136.758 L 798.563 136.758 L 763.11 136.758 L 763.11 136.758 Q 762.904 139.232 762.904 147.579 L 762.904 147.579 L 762.904 147.579 Q 762.904 155.927 765.893 165.1 L 765.893 165.1 L 765.893 165.1 Q 768.882 174.272 777.023 180.662 L 777.023 180.662 L 777.023 180.662 Q 785.165 187.051 798.151 187.051 L 798.151 187.051 L 798.151 187.051 Q 811.136 187.051 819.999 181.28 L 819.999 181.28 L 819.999 181.28 Q 821.03 180.456 821.854 180.456 L 821.854 180.456 L 821.854 180.456 Q 823.503 180.456 823.503 184.784 Z  M 213.635 48.283 L 213.635 48.283 L 213.635 48.283 Q 209.133 48.283 205.882 49.784 L 205.882 49.784 L 205.882 49.784 Q 202.631 51.284 202.631 53.535 L 202.631 53.535 L 202.631 53.535 Q 199.63 64.039 199.63 116.183 L 199.63 116.183 L 199.63 116.183 Q 199.63 168.327 199.38 174.58 L 199.38 174.58 L 199.38 174.58 Q 204.131 182.083 214.135 182.083 L 214.135 182.083 L 214.135 182.083 Q 231.892 182.083 240.895 162.45 L 240.895 162.45 L 240.895 162.45 Q 249.898 142.818 249.898 113.182 L 249.898 113.182 L 249.898 113.182 Q 249.898 83.546 241.145 65.915 L 241.145 65.915 L 241.145 65.915 Q 232.392 48.283 213.635 48.283 Z  M 165.867 213.094 L 165.867 213.094 L 165.867 213.094 Q 162.116 212.594 162.116 210.843 L 162.116 210.843 L 162.866 207.842 L 162.866 207.842 Q 169.118 194.337 169.118 110.556 L 169.118 110.556 L 169.118 110.556 Q 169.118 70.541 166.993 60.538 L 166.993 60.538 L 166.993 60.538 Q 164.867 50.534 163.616 47.783 L 163.616 47.783 L 162.366 45.282 L 162.366 45.282 Q 161.366 44.282 161.366 42.406 L 161.366 42.406 L 161.366 42.406 Q 161.366 40.53 164.367 39.28 L 164.367 39.28 L 164.367 39.28 Q 183.874 31.527 215.636 31.527 L 215.636 31.527 L 215.636 31.527 Q 282.41 31.527 282.41 116.558 L 282.41 116.558 L 282.41 116.558 Q 282.41 149.821 270.656 177.331 L 270.656 177.331 L 270.656 177.331 Q 265.904 187.835 259.652 195.463 L 259.652 195.463 L 259.652 195.463 Q 253.4 203.09 243.271 208.217 L 243.271 208.217 L 243.271 208.217 Q 233.142 213.344 220.888 213.344 L 220.888 213.344 L 220.888 213.344 Q 218.387 213.094 214.51 212.594 L 214.51 212.594 L 214.51 212.594 Q 210.634 212.094 203.006 208.842 L 203.006 208.842 L 203.006 208.842 Q 195.378 205.591 192.627 200.339 L 192.627 200.339 L 192.627 200.339 Q 183.374 213.094 165.867 213.094 Z " fill="rgb(127,91,28)"/><path d=" M 350.183 85.365 L 350.183 85.365 L 350.183 85.365 Q 333.899 105.771 326.685 126.177 L 326.685 126.177 L 326.891 126.177 L 326.891 126.177 Q 355.542 126.177 359.767 126.28 L 359.767 126.28 L 359.767 126.28 Q 363.993 126.383 364.405 125.971 L 364.405 125.971 L 364.405 125.971 Q 364.817 125.559 365.023 124.941 L 365.023 124.941 L 365.023 124.941 Q 361.519 99.588 359.458 90.415 L 359.458 90.415 L 359.458 90.415 Q 357.397 81.243 355.336 81.243 L 355.336 81.243 L 355.336 81.243 Q 353.274 81.243 350.183 85.365 Z  M 331.838 182.448 L 331.838 182.448 L 336.373 181.624 L 336.373 181.624 Q 338.434 181.624 338.434 183.891 L 338.434 183.891 L 338.434 183.891 Q 338.434 191.105 335.548 196.052 L 335.548 196.052 L 335.548 196.052 Q 332.662 200.999 328.334 203.06 L 328.334 203.06 L 328.334 203.06 Q 321.326 206.564 316.379 206.564 L 316.379 206.564 L 316.379 206.564 Q 306.897 206.564 302.157 199.453 L 302.157 199.453 L 302.157 199.453 Q 297.416 192.342 297.416 178.017 L 297.416 178.017 L 297.416 178.017 Q 297.416 163.691 305.248 140.812 L 305.248 140.812 L 293.293 140.812 L 293.293 140.812 Q 291.026 140.812 291.026 138.544 L 291.026 138.544 L 291.026 138.544 Q 291.026 136.277 294.53 131.227 L 294.53 131.227 L 294.53 131.227 Q 298.034 126.177 301.951 126.177 L 301.951 126.177 L 311.226 126.177 L 311.226 126.177 Q 325.86 93.61 345.648 69.906 L 345.648 69.906 L 345.648 69.906 Q 350.801 63.723 358.324 58.364 L 358.324 58.364 L 358.324 58.364 Q 365.848 53.005 369.97 53.005 L 369.97 53.005 L 369.97 53.005 Q 374.093 53.005 376.154 56.715 L 376.154 56.715 L 376.154 56.715 Q 381.513 65.372 388.727 119.994 L 388.727 119.994 L 388.727 119.994 Q 391.201 143.491 397.281 168.535 L 397.281 168.535 L 397.281 168.535 Q 403.362 193.579 408.515 197.701 L 408.515 197.701 L 408.515 197.701 Q 409.751 198.525 409.751 199.762 L 409.751 199.762 L 409.751 199.762 Q 409.751 202.854 400.991 205.534 L 400.991 205.534 L 400.991 205.534 Q 392.231 208.213 387.594 208.213 L 387.594 208.213 L 387.594 208.213 Q 382.956 208.213 380.482 207.079 L 380.482 207.079 L 380.482 207.079 Q 378.009 205.946 377.391 204.709 L 377.391 204.709 L 377.391 204.709 Q 373.68 196.67 369.97 166.371 L 369.97 166.371 L 368.733 156.683 L 368.733 156.683 Q 367.909 146.995 367.085 142.049 L 367.085 142.049 L 365.642 141.018 L 322.563 140.812 L 322.563 140.812 Q 320.089 151.324 320.089 159.157 L 320.089 159.157 L 320.089 159.157 Q 320.089 166.989 320.604 170.596 L 320.604 170.596 L 320.604 170.596 Q 321.12 174.203 324.005 178.326 L 324.005 178.326 L 324.005 178.326 Q 326.891 182.448 331.838 182.448 Z  M 461.488 117.108 L 461.488 117.108 L 461.488 117.108 Q 462.312 117.108 464.579 118.757 L 464.579 118.757 L 464.579 118.757 Q 466.847 120.406 469.32 120.406 L 469.32 120.406 L 469.526 120.406 L 469.526 120.406 Q 476.534 120.406 480.657 114.841 L 480.657 114.841 L 480.657 114.841 Q 484.779 109.275 485.191 103.71 L 485.191 103.71 L 485.81 98.145 L 485.81 98.145 Q 485.81 90.312 483.439 84.644 L 483.439 84.644 L 483.439 84.644 Q 481.069 78.976 477.977 76.193 L 477.977 76.193 L 477.977 76.193 Q 474.885 73.41 470.763 71.968 L 470.763 71.968 L 470.763 71.968 Q 465.61 69.906 459.942 69.906 L 459.942 69.906 L 459.942 69.906 Q 454.273 69.906 450.769 71.04 L 450.769 71.04 L 450.769 71.04 Q 447.265 72.174 446.853 73.204 L 446.853 73.204 L 446.647 74.441 L 446.647 74.441 Q 444.792 102.267 444.792 124.219 L 444.792 124.219 L 444.792 124.219 Q 444.792 146.171 445.513 162.042 L 445.513 162.042 L 445.513 162.042 Q 446.235 177.913 446.956 186.467 L 446.956 186.467 L 446.956 186.467 Q 447.678 195.021 447.678 195.846 L 447.678 195.846 L 447.678 195.846 Q 447.678 200.999 438.608 204.091 L 438.608 204.091 L 438.608 204.091 Q 429.539 207.183 420.676 207.183 L 420.676 207.183 L 420.676 207.183 Q 416.553 207.183 416.553 205.121 L 416.553 205.121 L 416.553 205.121 Q 416.553 204.503 417.172 202.236 L 417.172 202.236 L 417.172 202.236 Q 421.088 193.166 421.088 117.932 L 421.088 117.932 L 421.088 117.932 Q 421.088 73.617 415.111 67.227 L 415.111 67.227 L 415.111 67.227 Q 413.874 65.99 413.874 64.65 L 413.874 64.65 L 413.874 64.65 Q 413.874 63.311 416.863 61.662 L 416.863 61.662 L 416.863 61.662 Q 419.851 60.013 433.661 57.848 L 433.661 57.848 L 433.661 57.848 Q 447.471 55.684 462.93 55.684 L 462.93 55.684 L 462.93 55.684 Q 487.253 55.684 499.517 68.876 L 499.517 68.876 L 499.517 68.876 Q 511.781 82.068 511.781 100.309 L 511.781 100.309 L 511.781 100.309 Q 511.781 118.551 501.784 131.949 L 501.784 131.949 L 501.784 131.949 Q 491.787 145.346 475.71 145.346 L 475.71 145.346 L 475.71 145.346 Q 470.557 145.346 465.404 143.491 L 465.404 143.491 L 465.404 143.491 Q 455.098 139.781 455.098 128.032 L 455.098 128.032 L 455.098 128.032 Q 455.098 125.559 456.747 121.333 L 456.747 121.333 L 456.747 121.333 Q 458.396 117.108 461.488 117.108 Z  M 551.356 112.161 L 551.356 112.161 L 551.356 115.047 L 587.839 115.047 L 587.839 114.635 L 587.839 114.635 Q 588.045 109.688 588.045 102.164 L 588.045 102.164 L 588.045 102.164 Q 588.045 94.641 587.839 88.973 L 587.839 88.973 L 587.839 88.973 Q 587.633 83.304 587.427 79.388 L 587.427 79.388 L 587.427 79.388 Q 587.221 75.472 586.912 72.586 L 586.912 72.586 L 586.912 72.586 Q 586.603 69.7 586.396 68.154 L 586.396 68.154 L 586.396 68.154 Q 586.19 66.609 586.19 65.372 L 586.19 65.372 L 586.19 65.372 Q 586.19 64.135 588.458 62.486 L 588.458 62.486 L 588.458 62.486 Q 598.351 55.89 610.513 55.89 L 610.513 55.89 L 610.513 55.89 Q 618.139 55.89 618.139 58.57 L 618.139 58.57 L 618.139 58.57 Q 618.139 58.776 617.727 60.837 L 617.727 60.837 L 617.727 60.837 Q 613.81 80.419 612.78 115.047 L 612.78 115.047 L 612.78 115.047 Q 612.162 149.675 612.162 152.148 L 612.162 152.148 L 612.162 152.148 Q 612.162 184.097 615.872 196.464 L 615.872 196.464 L 615.872 196.464 Q 616.49 198.113 616.49 199.247 L 616.49 199.247 L 616.49 199.247 Q 616.49 200.381 614.841 201.823 L 614.841 201.823 L 614.841 201.823 Q 607.215 206.77 595.054 206.77 L 595.054 206.77 L 595.054 206.77 Q 587.221 206.77 586.19 201.411 L 586.19 201.411 L 586.19 201.411 Q 585.572 198.525 585.572 192.445 L 585.572 192.445 L 585.572 192.445 Q 585.572 186.364 586.293 173.791 L 586.293 173.791 L 586.293 173.791 Q 587.015 161.218 587.427 129.887 L 587.427 129.887 L 551.356 129.887 L 551.356 129.887 Q 551.356 176.883 554.242 195.846 L 554.242 195.846 L 554.242 195.846 Q 554.242 200.793 544.76 203.988 L 544.76 203.988 L 544.76 203.988 Q 535.279 207.183 529.095 207.183 L 529.095 207.183 L 529.095 207.183 Q 522.911 207.183 522.911 205.327 L 522.911 205.327 L 522.911 205.327 Q 522.911 204.091 523.53 202.236 L 523.53 202.236 L 523.53 202.236 Q 527.446 193.579 527.446 132.567 L 527.446 132.567 L 527.446 129.887 L 515.285 129.887 L 515.285 129.887 Q 513.636 129.887 513.636 128.651 L 513.636 128.651 L 513.636 128.651 Q 513.636 128.238 514.46 125.456 L 514.46 125.456 L 514.46 125.456 Q 515.285 122.673 518.274 118.963 L 518.274 118.963 L 518.274 118.963 Q 521.262 115.253 524.973 115.253 L 524.973 115.253 L 527.24 115.253 L 527.24 115.253 Q 527.24 74.647 522.499 68.464 L 522.499 68.464 L 521.675 67.227 L 521.675 67.227 Q 520.438 66.196 520.438 64.65 L 520.438 64.65 L 520.438 64.65 Q 520.438 63.104 522.705 62.074 L 522.705 62.074 L 522.705 62.074 Q 525.797 60.219 533.733 58.364 L 533.733 58.364 L 533.733 58.364 Q 541.668 56.509 548.058 56.509 L 548.058 56.509 L 548.058 56.509 Q 554.448 56.509 554.448 59.394 L 554.448 59.394 L 554.448 60.013 L 554.448 60.013 Q 551.974 81.449 551.356 112.161 Z  M 708.007 138.957 L 708.007 138.957 L 707.801 114.428 L 707.801 114.428 Q 707.801 77.945 705.328 65.99 L 705.328 65.99 L 705.328 65.99 Q 704.916 64.547 704.916 63.723 L 704.916 63.723 L 704.916 63.723 Q 704.916 60.219 711.924 57.745 L 711.924 57.745 L 711.924 57.745 Q 718.932 55.272 723.054 55.272 L 723.054 55.272 L 723.054 55.272 Q 727.177 55.272 727.177 57.745 L 727.177 57.745 L 727.177 57.745 Q 727.177 57.951 726.764 60.013 L 726.764 60.013 L 726.764 60.013 Q 722.024 85.365 722.024 140.606 L 722.024 140.606 L 722.024 140.606 Q 722.024 178.326 726.352 194.815 L 726.352 194.815 L 726.352 194.815 Q 727.177 197.495 727.177 197.701 L 727.177 197.701 L 727.177 197.701 Q 727.177 202.03 717.695 204.812 L 717.695 204.812 L 717.695 204.812 Q 708.214 207.595 704.297 207.595 L 704.297 207.595 L 704.297 207.595 Q 698.114 207.595 695.846 204.709 L 695.846 204.709 L 695.846 204.709 Q 691.312 198.938 681.109 172.245 L 681.109 172.245 L 681.109 172.245 Q 670.906 145.553 663.279 122.467 L 663.279 122.467 L 655.447 99.382 L 655.447 99.382 Q 655.034 98.351 654.416 98.351 L 654.416 98.351 L 654.416 98.351 Q 653.592 98.351 652.561 99.794 L 652.561 99.794 L 652.561 99.794 Q 651.53 118.963 651.53 138.132 L 651.53 138.132 L 651.53 138.132 Q 651.53 157.301 651.84 167.607 L 651.84 167.607 L 651.84 167.607 Q 652.149 177.913 652.561 183.273 L 652.561 183.273 L 652.561 183.273 Q 652.973 188.632 653.386 191.827 L 653.386 191.827 L 653.386 191.827 Q 653.798 195.021 654.107 196.464 L 654.107 196.464 L 654.107 196.464 Q 654.416 197.907 654.416 198.525 L 654.416 198.525 L 654.416 198.525 Q 654.416 202.442 647.614 204.606 L 647.614 204.606 L 647.614 204.606 Q 640.812 206.77 635.35 206.77 L 635.35 206.77 L 635.35 206.77 Q 629.888 206.77 629.888 204.297 L 629.888 204.297 L 629.888 204.297 Q 629.888 203.06 630.506 201.205 L 630.506 201.205 L 630.506 201.205 Q 631.125 199.35 631.949 196.464 L 631.949 196.464 L 631.949 196.464 Q 634.01 189.25 634.835 170.184 L 634.835 170.184 L 634.835 170.184 Q 635.659 151.118 635.659 126.693 L 635.659 126.693 L 635.659 126.693 Q 635.659 102.267 635.041 91.137 L 635.041 91.137 L 635.041 91.137 Q 634.01 72.998 631.331 66.815 L 631.331 66.815 L 631.331 66.815 Q 630.712 66.196 630.712 65.166 L 630.712 65.166 L 630.712 65.166 Q 630.712 61.868 641.637 58.776 L 641.637 58.776 L 641.637 58.776 Q 652.561 55.684 658.642 55.684 L 658.642 55.684 L 658.642 55.684 Q 664.722 55.684 665.753 55.89 L 665.753 55.89 L 665.753 55.89 Q 668.638 55.684 669.257 59.188 L 669.257 59.188 L 669.257 59.188 Q 675.234 80.831 686.056 110.1 L 686.056 110.1 L 686.056 110.1 Q 696.877 139.369 705.328 154.828 L 705.328 154.828 L 705.328 154.828 Q 706.358 155.859 706.977 155.859 L 706.977 155.859 L 706.977 155.859 Q 708.007 155.859 708.007 138.957 Z  M 829 177.913 L 829 177.913 L 829 177.913 Q 829 192.342 819.828 199.35 L 819.828 199.35 L 819.828 199.35 Q 810.655 206.358 794.166 206.358 L 794.166 206.358 L 794.166 206.358 Q 767.782 206.358 755.312 188.838 L 755.312 188.838 L 755.312 188.838 Q 742.842 171.318 742.842 143.079 L 742.842 143.079 L 742.842 143.079 Q 742.842 138.544 743.254 129.887 L 743.254 129.887 L 731.711 129.887 L 731.711 129.887 Q 730.062 129.887 730.062 128.651 L 730.062 128.651 L 730.062 128.651 Q 730.062 125.147 733.566 120.2 L 733.566 120.2 L 733.566 120.2 Q 737.07 115.253 741.193 115.253 L 741.193 115.253 L 745.109 115.253 L 745.109 115.253 Q 747.789 100.412 753.869 89.076 L 753.869 89.076 L 753.869 89.076 Q 759.95 77.739 766.649 71.555 L 766.649 71.555 L 766.649 71.555 Q 773.348 65.372 781.386 61.662 L 781.386 61.662 L 781.386 61.662 Q 794.166 55.478 808.182 55.478 L 808.182 55.478 L 808.182 55.478 Q 822.198 55.478 825.702 60.013 L 825.702 60.013 L 825.702 60.013 Q 827.351 62.28 827.351 68.361 L 827.351 68.361 L 827.351 68.361 Q 827.351 74.441 825.908 74.441 L 825.908 74.441 L 825.908 74.441 Q 825.702 74.441 824.053 73.617 L 824.053 73.617 L 824.053 73.617 Q 818.694 71.143 810.655 71.143 L 810.655 71.143 L 810.655 71.143 Q 793.135 71.143 783.344 83.51 L 783.344 83.51 L 783.344 83.51 Q 773.554 95.878 770.256 115.253 L 770.256 115.253 L 770.256 115.253 Q 785.921 115.047 812.716 115.047 L 812.716 115.047 L 812.716 115.047 Q 814.778 115.047 814.778 116.49 L 814.778 116.49 L 814.778 116.49 Q 814.778 119.788 811.48 124.837 L 811.48 124.837 L 811.48 124.837 Q 808.182 129.887 804.059 129.887 L 804.059 129.887 L 768.607 129.887 L 768.607 129.887 Q 768.401 132.361 768.401 140.709 L 768.401 140.709 L 768.401 140.709 Q 768.401 149.057 771.389 158.229 L 771.389 158.229 L 771.389 158.229 Q 774.378 167.401 782.52 173.791 L 782.52 173.791 L 782.52 173.791 Q 790.662 180.181 803.647 180.181 L 803.647 180.181 L 803.647 180.181 Q 816.633 180.181 825.496 174.409 L 825.496 174.409 L 825.496 174.409 Q 826.527 173.585 827.351 173.585 L 827.351 173.585 L 827.351 173.585 Q 829 173.585 829 177.913 Z  M 219.131 41.412 L 219.131 41.412 L 219.131 41.412 Q 214.63 41.412 211.379 42.913 L 211.379 42.913 L 211.379 42.913 Q 208.127 44.414 208.127 46.664 L 208.127 46.664 L 208.127 46.664 Q 205.126 57.168 205.126 109.313 L 205.126 109.313 L 205.126 109.313 Q 205.126 161.457 204.876 167.709 L 204.876 167.709 L 204.876 167.709 Q 209.628 175.212 219.632 175.212 L 219.632 175.212 L 219.632 175.212 Q 237.388 175.212 246.391 155.58 L 246.391 155.58 L 246.391 155.58 Q 255.395 135.947 255.395 106.311 L 255.395 106.311 L 255.395 106.311 Q 255.395 76.675 246.642 59.044 L 246.642 59.044 L 246.642 59.044 Q 237.888 41.412 219.131 41.412 Z  M 171.364 206.223 L 171.364 206.223 L 171.364 206.223 Q 167.612 205.723 167.612 203.973 L 167.612 203.973 L 168.363 200.971 L 168.363 200.971 Q 174.615 187.466 174.615 103.685 L 174.615 103.685 L 174.615 103.685 Q 174.615 63.671 172.489 53.667 L 172.489 53.667 L 172.489 53.667 Q 170.363 43.663 169.113 40.912 L 169.113 40.912 L 167.862 38.411 L 167.862 38.411 Q 166.862 37.411 166.862 35.535 L 166.862 35.535 L 166.862 35.535 Q 166.862 33.66 169.863 32.409 L 169.863 32.409 L 169.863 32.409 Q 189.37 24.656 221.132 24.656 L 221.132 24.656 L 221.132 24.656 Q 287.907 24.656 287.907 109.688 L 287.907 109.688 L 287.907 109.688 Q 287.907 142.95 276.153 170.46 L 276.153 170.46 L 276.153 170.46 Q 271.401 180.964 265.148 188.592 L 265.148 188.592 L 265.148 188.592 Q 258.896 196.22 248.767 201.347 L 248.767 201.347 L 248.767 201.347 Q 238.639 206.473 226.384 206.473 L 226.384 206.473 L 226.384 206.473 Q 223.883 206.223 220.007 205.723 L 220.007 205.723 L 220.007 205.723 Q 216.13 205.223 208.502 201.972 L 208.502 201.972 L 208.502 201.972 Q 200.875 198.721 198.124 193.469 L 198.124 193.469 L 198.124 193.469 Q 188.87 206.223 171.364 206.223 Z " fill="rgb(215,180,38)"/></g></svg>