<?xml version="1.0" encoding="UTF-8" standalone="no"?><!-- Generator: Gravit.io --><svg xmlns="http://www.w3.org/2000/svg" xmlns:xlink="http://www.w3.org/1999/xlink" style="isolation:isolate" viewBox="0 0 992 250" width="992pt" height="250pt"><defs><clipPath id="_clipPath_M2RUU9cW9IkixS3tPNXbrgrlhue423yX"><rect width="992" height="250"/></clipPath></defs><g clip-path="url(#_clipPath_M2RUU9cW9IkixS3tPNXbrgrlhue423yX)"><path d=" M 951.918 181.378 L 951.918 181.378 L 951.918 181.378 Q 952.1 183.2 951.553 184.841 L 951.553 184.841 L 951.553 184.841 Q 951.189 185.934 950.551 186.663 L 950.551 186.663 L 950.551 186.663 Q 949.913 187.392 949.001 188.121 L 949.001 188.121 L 949.001 188.121 Q 947.361 189.215 944.992 190.126 L 944.992 190.126 L 944.992 190.126 Q 943.534 190.491 942.167 190.764 L 942.167 190.764 L 942.167 190.764 Q 940.8 191.037 939.342 190.673 L 939.342 190.673 L 939.342 190.673 Q 936.426 190.491 934.238 188.486 L 934.238 188.486 L 934.238 188.486 Q 931.14 185.934 929.135 182.836 L 929.135 182.836 L 929.135 182.836 Q 928.224 181.378 927.13 179.555 L 927.13 179.555 L 927.13 179.555 Q 926.037 177.733 925.126 175.728 L 925.126 175.728 L 904.895 137.271 L 904.895 137.271 Q 903.437 137.271 901.979 137.362 L 901.979 137.362 L 901.979 137.362 Q 900.521 137.453 899.063 137.636 L 899.063 137.636 L 899.063 137.636 Q 895.235 138 891.863 137.818 L 891.863 137.818 L 891.863 137.818 Q 888.491 137.636 884.846 137.818 L 884.846 137.818 L 881.383 137.818 L 881.383 170.807 L 881.383 170.807 Q 881.383 172.265 881.292 173.541 L 881.292 173.541 L 881.292 173.541 Q 881.201 174.816 881.201 176.274 L 881.201 176.274 L 881.201 176.274 Q 881.201 177.186 881.11 178.644 L 881.11 178.644 L 881.11 178.644 Q 881.019 180.102 880.837 181.378 L 880.837 181.378 L 880.837 181.378 Q 880.472 183.383 879.196 185.479 L 879.196 185.479 L 879.196 185.479 Q 877.92 187.574 875.733 189.033 L 875.733 189.033 L 875.733 189.033 Q 871.906 191.402 866.438 190.308 L 866.438 190.308 L 866.438 190.308 Q 864.069 189.762 861.882 188.486 L 861.882 188.486 L 861.882 188.486 Q 861.153 187.939 860.606 187.119 L 860.606 187.119 L 860.606 187.119 Q 860.059 186.299 859.695 185.387 L 859.695 185.387 L 859.695 185.387 Q 859.33 184.476 859.057 183.474 L 859.057 183.474 L 859.057 183.474 Q 858.783 182.471 858.419 181.56 L 858.419 181.56 L 858.419 181.56 Q 857.872 179.737 857.872 178.097 L 857.872 178.097 L 857.872 74.574 L 857.872 74.574 Q 857.872 73.481 857.963 72.296 L 857.963 72.296 L 857.963 72.296 Q 858.054 71.111 858.237 70.2 L 858.237 70.2 L 858.237 70.2 Q 858.419 68.195 859.512 66.19 L 859.512 66.19 L 859.512 66.19 Q 860.059 64.003 861.335 63.092 L 861.335 63.092 L 861.335 63.092 Q 862.428 61.998 864.707 61.178 L 864.707 61.178 L 864.707 61.178 Q 866.985 60.358 871.359 60.54 L 871.359 60.54 L 871.359 60.54 Q 879.561 60.722 887.58 60.722 L 887.58 60.722 L 887.58 60.722 Q 895.6 60.722 903.619 61.087 L 903.619 61.087 L 903.619 61.087 Q 908.904 61.451 914.828 62.272 L 914.828 62.272 L 914.828 62.272 Q 920.751 63.092 925.855 65.097 L 925.855 65.097 L 925.855 65.097 Q 929.135 66.372 931.869 67.648 L 931.869 67.648 L 931.869 67.648 Q 935.332 69.653 937.337 71.476 L 937.337 71.476 L 937.337 71.476 Q 943.716 77.308 946.997 85.51 L 946.997 85.51 L 946.997 85.51 Q 950.277 93.711 950.277 102.095 L 950.277 102.095 L 950.277 102.095 Q 950.277 111.937 945.63 120.139 L 945.63 120.139 L 945.63 120.139 Q 940.982 128.34 930.776 132.35 L 930.776 132.35 L 930.776 132.35 Q 930.411 132.715 929.773 132.806 L 929.773 132.806 L 929.773 132.806 Q 929.135 132.897 928.771 133.079 L 928.771 133.079 L 945.538 166.797 L 947.179 169.713 L 947.179 169.713 Q 947.543 170.442 948.09 171.353 L 948.09 171.353 L 948.09 171.353 Q 948.637 172.265 949.001 173.176 L 949.001 173.176 L 949.001 173.176 Q 949.548 174.087 950.004 175.181 L 950.004 175.181 L 950.004 175.181 Q 950.459 176.274 951.006 177.186 L 951.006 177.186 L 951.006 177.186 Q 951.553 179.737 951.918 181.378 Z  M 881.383 116.494 L 906.353 116.494 L 906.353 116.494 Q 909.634 116.494 912.641 115.309 L 912.641 115.309 L 912.641 115.309 Q 915.648 114.124 918.109 112.119 L 918.109 112.119 L 918.109 112.119 Q 920.569 110.115 922.209 107.472 L 922.209 107.472 L 922.209 107.472 Q 923.85 104.829 924.032 101.731 L 924.032 101.731 L 924.032 101.731 Q 924.761 92.618 919.293 88.152 L 919.293 88.152 L 919.293 88.152 Q 913.825 83.687 904.895 83.322 L 904.895 83.322 L 904.895 83.322 Q 899.609 82.958 893.321 82.958 L 893.321 82.958 L 893.321 82.958 Q 887.033 82.958 881.383 82.958 L 881.383 82.958 L 881.383 82.958 Q 881.566 90.431 881.475 98.177 L 881.475 98.177 L 881.475 98.177 Q 881.383 105.923 881.383 116.494 L 881.383 116.494 Z " fill="rgb(40,168,31)"/><path d=" M 848.923 67.648 L 848.923 67.648 L 848.923 67.648 Q 849.652 71.111 848.923 74.939 L 848.923 74.939 L 848.923 74.939 Q 848.558 76.761 848.285 78.493 L 848.285 78.493 L 848.285 78.493 Q 848.012 80.224 847.647 82.047 L 847.647 82.047 L 847.465 82.776 L 847.465 82.776 Q 844.913 94.076 841.724 106.56 L 841.724 106.56 L 841.724 106.56 Q 838.534 119.045 835.982 130.163 L 835.982 130.163 L 835.982 130.163 Q 833.795 139.276 831.426 150.211 L 831.426 150.211 L 831.426 150.211 Q 829.057 161.147 826.505 170.26 L 826.505 170.26 L 826.505 170.26 Q 825.594 173.358 824.591 176.457 L 824.591 176.457 L 824.591 176.457 Q 823.589 179.555 822.131 182.654 L 822.131 182.654 L 822.131 182.654 Q 820.855 185.387 819.124 187.483 L 819.124 187.483 L 819.124 187.483 Q 817.392 189.579 815.205 190.582 L 815.205 190.582 L 815.205 190.582 Q 813.018 191.584 810.557 191.311 L 810.557 191.311 L 810.557 191.311 Q 808.097 191.037 805.181 189.033 L 805.181 189.033 L 805.181 189.033 Q 800.807 185.934 798.711 180.466 L 798.711 180.466 L 798.711 180.466 Q 796.615 174.999 794.427 170.442 L 794.427 170.442 L 794.427 170.442 Q 793.698 169.166 792.24 164.792 L 792.24 164.792 L 792.24 164.792 Q 790.782 160.418 789.142 155.224 L 789.142 155.224 L 789.142 155.224 Q 787.502 150.029 785.952 145.199 L 785.952 145.199 L 785.952 145.199 Q 784.403 140.369 783.31 138 L 783.31 138 L 783.31 138 Q 781.669 142.01 780.029 147.113 L 780.029 147.113 L 780.029 147.113 Q 778.389 152.216 776.931 157.137 L 776.931 157.137 L 776.931 157.137 Q 775.473 162.058 774.288 165.977 L 774.288 165.977 L 774.288 165.977 Q 773.103 169.895 772.556 171.718 L 772.556 171.718 L 772.556 171.718 Q 771.098 175.363 769.367 179.737 L 769.367 179.737 L 769.367 179.737 Q 767.635 184.112 765.175 187.21 L 765.175 187.21 L 765.175 187.21 Q 762.714 190.308 759.252 191.311 L 759.252 191.311 L 759.252 191.311 Q 755.789 192.313 751.05 189.215 L 751.05 189.215 L 751.05 189.215 Q 747.405 187.028 745.947 183.018 L 745.947 183.018 L 745.947 183.018 Q 745.035 180.466 744.124 178.097 L 744.124 178.097 L 744.124 178.097 Q 743.213 175.728 742.666 173.176 L 742.666 173.176 L 739.021 159.507 L 731.548 130.163 L 731.548 130.163 Q 730.09 124.513 728.723 118.59 L 728.723 118.59 L 728.723 118.59 Q 727.356 112.666 725.534 106.287 L 725.534 106.287 L 725.534 106.287 Q 724.622 103.189 723.984 100.181 L 723.984 100.181 L 723.984 100.181 Q 723.347 97.174 722.709 93.62 L 722.709 93.62 L 722.709 93.62 Q 722.071 90.066 721.251 85.51 L 721.251 85.51 L 721.251 85.51 Q 720.43 80.953 719.337 74.939 L 719.337 74.939 L 719.337 74.939 Q 718.972 72.934 718.881 71.202 L 718.881 71.202 L 718.881 71.202 Q 718.79 69.471 719.155 67.648 L 719.155 67.648 L 719.155 67.648 Q 719.519 64.914 721.706 62.91 L 721.706 62.91 L 721.706 62.91 Q 722.618 61.998 723.893 61.451 L 723.893 61.451 L 723.893 61.451 Q 725.169 60.905 726.627 60.54 L 726.627 60.54 L 726.627 60.54 Q 728.814 59.811 731.184 59.811 L 731.184 59.811 L 731.184 59.811 Q 733.371 59.811 735.74 61.269 L 735.74 61.269 L 735.74 61.269 Q 737.38 62.18 738.292 63.639 L 738.292 63.639 L 740.479 67.466 L 740.479 67.466 Q 740.843 68.742 741.208 69.744 L 741.208 69.744 L 741.208 69.744 Q 741.572 70.747 741.937 71.84 L 741.937 71.84 L 741.937 71.84 Q 742.301 73.116 742.484 74.118 L 742.484 74.118 L 742.484 74.118 Q 742.666 75.121 742.848 76.032 L 742.848 76.032 L 742.848 76.032 Q 744.489 85.51 746.858 94.44 L 746.858 94.44 L 746.858 94.44 Q 749.227 103.371 751.232 111.573 L 751.232 111.573 L 751.232 111.573 Q 751.961 114.853 753.055 119.683 L 753.055 119.683 L 753.055 119.683 Q 754.148 124.513 755.242 129.707 L 755.242 129.707 L 755.242 129.707 Q 756.335 134.902 757.429 139.64 L 757.429 139.64 L 757.429 139.64 Q 758.522 144.379 759.616 147.113 L 759.616 147.113 L 759.616 147.113 Q 761.985 138.911 764.446 130.71 L 764.446 130.71 L 764.446 130.71 Q 766.906 122.508 769.823 114.124 L 769.823 114.124 L 769.823 114.124 Q 771.281 109.75 772.83 106.196 L 772.83 106.196 L 772.83 106.196 Q 774.379 102.642 776.384 100.273 L 776.384 100.273 L 776.384 100.273 Q 778.389 97.903 780.94 97.174 L 780.94 97.174 L 780.94 97.174 Q 783.492 96.445 786.955 97.721 L 786.955 97.721 L 786.955 97.721 Q 790.053 98.997 792.423 103.189 L 792.423 103.189 L 792.423 103.189 Q 794.792 107.381 796.615 111.755 L 796.615 111.755 L 796.615 111.755 Q 798.255 115.765 799.804 120.23 L 799.804 120.23 L 799.804 120.23 Q 801.353 124.695 802.902 128.978 L 802.902 128.978 L 802.902 128.978 Q 804.452 133.261 805.91 137.089 L 805.91 137.089 L 805.91 137.089 Q 807.368 140.916 808.826 143.65 L 808.826 143.65 L 808.826 143.65 Q 809.373 141.645 810.102 138.547 L 810.102 138.547 L 810.102 138.547 Q 810.831 135.448 811.651 131.894 L 811.651 131.894 L 811.651 131.894 Q 812.471 128.34 813.2 124.877 L 813.2 124.877 L 813.2 124.877 Q 813.929 121.415 814.658 118.498 L 814.658 118.498 L 814.658 118.498 Q 817.028 108.656 819.579 98.723 L 819.579 98.723 L 819.579 98.723 Q 822.131 88.79 824.5 79.131 L 824.5 79.131 L 825.411 76.032 L 825.411 76.032 Q 825.776 75.121 825.867 74.118 L 825.867 74.118 L 825.867 74.118 Q 825.958 73.116 826.323 71.84 L 826.323 71.84 L 826.323 71.84 Q 826.687 70.747 827.052 69.744 L 827.052 69.744 L 827.052 69.744 Q 827.416 68.742 827.781 67.466 L 827.781 67.466 L 827.781 67.466 Q 828.145 66.555 828.601 65.552 L 828.601 65.552 L 828.601 65.552 Q 829.057 64.55 829.786 63.639 L 829.786 63.639 L 829.786 63.639 Q 830.332 62.727 831.061 62.18 L 831.061 62.18 L 831.061 62.18 Q 831.79 61.634 832.52 61.269 L 832.52 61.269 L 832.52 61.269 Q 835.071 59.811 836.894 59.811 L 836.894 59.811 L 836.894 59.811 Q 839.263 59.811 841.45 60.54 L 841.45 60.54 L 841.45 60.54 Q 844.366 61.087 846.736 62.91 L 846.736 62.91 L 846.736 62.91 Q 848.558 64.732 848.923 67.648 Z  M 498.82 66.008 L 498.82 66.008 L 498.82 66.008 Q 500.825 68.377 500.825 70.929 L 500.825 70.929 L 500.825 70.929 Q 500.825 72.022 500.734 73.207 L 500.734 73.207 L 500.734 73.207 Q 500.643 74.392 500.461 75.303 L 500.461 75.303 L 500.461 75.303 Q 499.914 77.308 498.091 79.131 L 498.091 79.131 L 498.091 79.131 Q 496.633 80.224 494.082 80.771 L 494.082 80.771 L 494.082 80.771 Q 492.806 81.135 491.53 81.318 L 491.53 81.318 L 491.53 81.318 Q 490.254 81.5 488.796 81.864 L 488.796 81.864 L 488.796 81.864 Q 487.52 82.047 486.244 82.047 L 486.244 82.047 L 486.244 82.047 Q 484.969 82.047 483.511 82.047 L 483.511 82.047 L 474.215 82.047 L 474.215 82.047 Q 470.935 82.229 467.745 82.229 L 467.745 82.229 L 467.745 82.229 Q 464.556 82.229 461.457 82.229 L 461.457 82.229 L 461.457 82.229 Q 461.639 87.879 461.639 94.349 L 461.639 94.349 L 461.639 94.349 Q 461.639 100.819 461.548 109.385 L 461.548 109.385 L 461.548 109.385 Q 461.457 117.952 461.366 129.252 L 461.366 129.252 L 461.366 129.252 Q 461.275 140.552 461.275 155.497 L 461.275 155.497 L 461.275 169.349 L 461.275 169.349 Q 461.275 171.171 461.457 172.082 L 461.457 172.082 L 461.457 172.082 Q 461.457 172.812 461.457 173.449 L 461.457 173.449 L 461.457 173.449 Q 461.457 174.087 461.275 174.999 L 461.275 174.999 L 461.275 174.999 Q 460.91 176.639 460.728 178.826 L 460.728 178.826 L 460.728 178.826 Q 460.728 179.737 460.546 180.558 L 460.546 180.558 L 460.546 180.558 Q 460.364 181.378 459.999 182.289 L 459.999 182.289 L 459.999 182.289 Q 459.27 183.018 459.27 183.383 L 459.27 183.383 L 458.723 184.476 L 458.723 184.476 Q 457.812 186.299 455.26 187.939 L 455.26 187.939 L 455.26 187.939 Q 451.251 189.944 446.33 188.85 L 446.33 188.85 L 446.33 188.85 Q 443.231 188.486 441.591 187.21 L 441.591 187.21 L 441.591 187.21 Q 439.951 185.57 439.222 183.929 L 439.222 183.929 L 439.222 183.929 Q 438.128 181.924 437.946 180.102 L 437.946 180.102 L 437.946 180.102 Q 437.399 178.462 437.399 176.639 L 437.399 176.639 L 437.399 82.958 L 437.399 82.958 Q 436.306 82.958 432.843 82.958 L 432.843 82.958 L 432.843 82.958 Q 429.38 82.958 425.461 82.867 L 425.461 82.867 L 425.461 82.867 Q 421.543 82.776 418.08 82.593 L 418.08 82.593 L 418.08 82.593 Q 414.617 82.411 413.341 82.229 L 413.341 82.229 L 413.341 82.229 Q 412.247 82.047 409.969 81.682 L 409.969 81.682 L 409.969 81.682 Q 407.691 81.318 406.233 80.953 L 406.233 80.953 L 406.233 80.953 Q 402.405 79.86 400.218 77.49 L 400.218 77.49 L 400.218 77.49 Q 398.213 75.121 398.213 72.205 L 398.213 72.205 L 398.213 72.205 Q 398.213 71.111 398.213 70.018 L 398.213 70.018 L 398.213 70.018 Q 398.213 68.924 398.578 68.013 L 398.578 68.013 L 398.578 68.013 Q 399.125 65.826 401.494 64.368 L 401.494 64.368 L 401.494 64.368 Q 402.223 63.821 403.772 63.001 L 403.772 63.001 L 403.772 63.001 Q 405.322 62.18 406.78 61.816 L 406.78 61.816 L 406.78 61.816 Q 408.967 61.087 412.247 60.722 L 412.247 60.722 L 412.247 60.722 Q 413.705 60.54 415.163 60.54 L 415.163 60.54 L 415.163 60.54 Q 416.622 60.54 418.262 60.54 L 418.262 60.54 L 418.262 60.54 Q 424.641 60.54 430.382 60.54 L 430.382 60.54 L 430.382 60.54 Q 436.123 60.54 442.502 60.358 L 442.502 60.358 L 442.502 60.358 Q 453.073 60.176 463.553 60.267 L 463.553 60.267 L 463.553 60.267 Q 474.033 60.358 484.422 60.722 L 484.422 60.722 L 484.422 60.722 Q 486.791 60.905 488.978 61.269 L 488.978 61.269 L 488.978 61.269 Q 491.165 61.634 493.352 62.545 L 493.352 62.545 L 493.352 62.545 Q 494.993 63.092 496.451 63.912 L 496.451 63.912 L 496.451 63.912 Q 497.909 64.732 498.82 66.008 Z  M 604.43 69.289 L 604.43 69.289 L 604.43 69.289 Q 604.613 70.564 604.613 71.658 L 604.613 71.658 L 604.613 71.658 Q 604.613 72.751 604.613 73.845 L 604.613 73.845 L 604.613 81.318 L 603.519 175.91 L 603.519 177.733 L 603.519 177.733 Q 603.519 178.826 602.972 181.013 L 602.972 181.013 L 602.972 181.013 Q 602.79 181.924 602.426 182.927 L 602.426 182.927 L 602.426 182.927 Q 602.061 183.929 601.697 185.023 L 601.697 185.023 L 601.697 185.023 Q 600.785 187.21 599.145 188.304 L 599.145 188.304 L 599.145 188.304 Q 597.687 189.762 594.406 190.308 L 594.406 190.308 L 594.406 190.308 Q 589.303 191.402 585.111 189.397 L 585.111 189.397 L 585.111 189.397 Q 582.742 187.939 581.83 185.752 L 581.83 185.752 L 581.83 185.752 Q 581.466 185.387 581.101 184.658 L 581.101 184.658 L 581.101 184.658 Q 581.101 184.294 580.737 183.565 L 580.737 183.565 L 580.737 183.565 Q 580.372 182.654 580.19 181.651 L 580.19 181.651 L 580.19 181.651 Q 580.008 180.649 579.826 179.555 L 579.826 179.555 L 579.826 179.555 Q 579.826 178.644 579.734 177.733 L 579.734 177.733 L 579.734 177.733 Q 579.643 176.821 579.461 175.91 L 579.461 175.91 L 579.461 175.91 Q 579.096 174.999 579.096 174.361 L 579.096 174.361 L 579.096 174.361 Q 579.096 173.723 579.096 172.812 L 579.096 172.812 L 579.096 172.812 Q 579.461 172.082 579.461 170.078 L 579.461 170.078 L 579.643 155.679 L 579.826 132.715 L 569.984 132.715 L 532.985 132.897 L 532.62 175.91 L 532.62 177.733 L 532.62 177.733 Q 532.62 178.826 532.074 181.013 L 532.074 181.013 L 532.074 181.013 Q 531.891 181.924 531.527 182.927 L 531.527 182.927 L 531.527 182.927 Q 531.162 183.929 530.798 185.023 L 530.798 185.023 L 530.798 185.023 Q 529.887 187.21 528.246 188.304 L 528.246 188.304 L 528.246 188.304 Q 526.788 189.762 523.508 190.308 L 523.508 190.308 L 523.508 190.308 Q 518.404 191.402 514.212 189.397 L 514.212 189.397 L 514.212 189.397 Q 512.39 188.304 510.749 185.752 L 510.749 185.752 L 510.749 185.752 Q 510.385 185.023 510.385 184.658 L 510.385 184.658 L 509.838 183.565 L 509.838 183.565 Q 509.474 182.654 509.291 181.651 L 509.291 181.651 L 509.291 181.651 Q 509.109 180.649 508.927 179.555 L 508.927 179.555 L 508.927 179.555 Q 508.927 178.644 508.745 177.733 L 508.745 177.733 L 508.745 177.733 Q 508.562 176.821 508.38 175.91 L 508.38 175.91 L 508.38 175.91 Q 508.198 174.452 508.38 172.812 L 508.38 172.812 L 508.38 170.078 L 508.562 155.679 L 508.927 128.887 L 508.927 128.887 Q 509.109 123.055 509.109 116.858 L 509.109 116.858 L 509.109 116.858 Q 509.109 110.661 509.109 104.1 L 509.109 104.1 L 509.109 104.1 Q 508.927 97.539 509.018 92.435 L 509.018 92.435 L 509.018 92.435 Q 509.109 87.332 509.474 80.953 L 509.474 80.953 L 509.474 80.224 L 509.474 80.224 Q 509.656 78.402 509.656 76.488 L 509.656 76.488 L 509.656 76.488 Q 509.656 74.574 509.838 72.569 L 509.838 72.569 L 509.838 72.569 Q 510.02 70.747 510.476 69.015 L 510.476 69.015 L 510.476 69.015 Q 510.932 67.284 511.843 65.461 L 511.843 65.461 L 511.843 65.461 Q 512.39 64.003 513.301 63.001 L 513.301 63.001 L 513.301 63.001 Q 514.212 61.998 515.488 61.087 L 515.488 61.087 L 515.488 61.087 Q 518.404 59.629 521.32 59.629 L 521.32 59.629 L 521.32 59.629 Q 522.779 59.629 523.872 59.72 L 523.872 59.72 L 523.872 59.72 Q 524.966 59.811 526.059 59.993 L 526.059 59.993 L 526.059 59.993 Q 528.246 60.176 530.251 62.18 L 530.251 62.18 L 530.251 62.18 Q 531.709 63.456 532.256 65.097 L 532.256 65.097 L 532.256 65.097 Q 533.167 67.466 533.35 69.289 L 533.35 69.289 L 533.35 69.289 Q 533.532 70.564 533.532 71.658 L 533.532 71.658 L 533.532 71.658 Q 533.532 72.751 533.532 73.845 L 533.532 73.845 L 533.532 81.318 L 533.167 111.39 L 533.167 111.39 Q 534.625 111.39 536.539 111.39 L 536.539 111.39 L 536.539 111.39 Q 538.453 111.39 541.004 111.208 L 541.004 111.208 L 541.004 111.208 Q 550.482 111.208 559.868 111.39 L 559.868 111.39 L 559.868 111.39 Q 569.254 111.573 579.643 111.573 L 579.643 111.573 L 579.826 111.573 L 579.826 111.573 Q 579.826 103.371 579.917 95.898 L 579.917 95.898 L 579.917 95.898 Q 580.008 88.426 580.372 80.224 L 580.372 80.224 L 580.372 80.224 Q 580.372 78.402 580.463 76.488 L 580.463 76.488 L 580.463 76.488 Q 580.555 74.574 580.737 72.569 L 580.737 72.569 L 580.737 72.569 Q 580.919 70.747 581.375 69.015 L 581.375 69.015 L 581.375 69.015 Q 581.83 67.284 582.742 65.461 L 582.742 65.461 L 582.742 65.461 Q 583.106 64.003 584.109 63.001 L 584.109 63.001 L 584.109 63.001 Q 585.111 61.998 586.569 61.087 L 586.569 61.087 L 586.569 61.087 Q 589.121 59.629 592.219 59.629 L 592.219 59.629 L 592.219 59.629 Q 593.677 59.629 594.862 59.72 L 594.862 59.72 L 594.862 59.72 Q 596.047 59.811 596.958 59.993 L 596.958 59.993 L 596.958 59.993 Q 599.509 60.358 601.15 62.18 L 601.15 62.18 L 601.15 62.18 Q 602.608 63.092 603.155 65.097 L 603.155 65.097 L 603.155 65.097 Q 603.519 66.19 603.793 67.193 L 603.793 67.193 L 603.793 67.193 Q 604.066 68.195 604.43 69.289 Z  M 724.439 177.003 L 724.439 177.003 L 724.439 177.003 Q 724.621 178.097 724.712 179.099 L 724.712 179.099 L 724.712 179.099 Q 724.804 180.102 724.804 181.378 L 724.804 181.378 L 724.804 181.378 Q 724.804 183.565 723.528 185.387 L 723.528 185.387 L 723.528 185.387 Q 722.981 186.299 722.07 187.119 L 722.07 187.119 L 722.07 187.119 Q 721.158 187.939 719.883 188.486 L 719.883 188.486 L 719.883 188.486 Q 715.326 191.037 710.223 190.308 L 710.223 190.308 L 710.223 190.308 Q 707.671 189.579 705.666 187.939 L 705.666 187.939 L 705.666 187.939 Q 705.302 187.574 705.12 187.483 L 705.12 187.483 L 705.12 187.483 Q 704.937 187.392 704.755 187.028 L 704.755 187.028 L 704.755 187.028 Q 704.573 186.845 704.391 186.572 L 704.391 186.572 L 704.391 186.572 Q 704.208 186.299 703.844 186.116 L 703.844 186.116 L 703.844 186.116 Q 702.933 185.205 702.386 184.385 L 702.386 184.385 L 702.386 184.385 Q 701.839 183.565 701.292 182.654 L 701.292 182.654 L 701.292 182.654 Q 700.928 181.742 700.472 180.922 L 700.472 180.922 L 700.472 180.922 Q 700.016 180.102 699.47 179.191 L 699.47 179.191 L 699.47 179.191 Q 699.105 178.462 698.741 177.824 L 698.741 177.824 L 698.741 177.824 Q 698.376 177.186 698.194 176.457 L 698.194 176.457 L 698.194 176.457 Q 697.465 174.816 697.283 173.541 L 697.283 173.541 L 693.455 164.61 L 693.455 164.61 Q 680.879 164.61 668.395 164.701 L 668.395 164.701 L 668.395 164.701 Q 655.91 164.792 643.334 164.61 L 643.334 164.61 L 639.506 173.541 L 639.506 173.541 Q 639.142 174.27 639.051 174.999 L 639.051 174.999 L 639.051 174.999 Q 638.96 175.728 638.595 176.457 L 638.595 176.457 L 638.595 176.457 Q 638.231 177.186 637.957 177.824 L 637.957 177.824 L 637.957 177.824 Q 637.684 178.462 637.319 179.191 L 637.319 179.191 L 637.319 179.191 Q 636.773 180.102 636.317 180.922 L 636.317 180.922 L 636.317 180.922 Q 635.861 181.742 635.315 182.654 L 635.315 182.654 L 635.315 182.654 Q 634.95 183.565 634.403 184.385 L 634.403 184.385 L 634.403 184.385 Q 633.856 185.205 632.945 186.116 L 632.945 186.116 L 632.945 186.116 Q 632.581 186.299 632.398 186.572 L 632.398 186.572 L 632.398 186.572 Q 632.216 186.845 632.034 187.028 L 632.034 187.028 L 632.034 187.028 Q 631.852 187.392 631.669 187.483 L 631.669 187.483 L 631.669 187.483 Q 631.487 187.574 631.123 187.939 L 631.123 187.939 L 631.123 187.939 Q 629.118 189.579 626.566 190.308 L 626.566 190.308 L 626.566 190.308 Q 621.463 191.037 616.906 188.486 L 616.906 188.486 L 616.906 188.486 Q 615.631 187.939 614.719 187.119 L 614.719 187.119 L 614.719 187.119 Q 613.808 186.299 613.261 185.387 L 613.261 185.387 L 613.261 185.387 Q 611.985 183.565 611.985 181.378 L 611.985 181.378 L 611.985 181.378 Q 611.985 180.102 612.077 179.099 L 612.077 179.099 L 612.077 179.099 Q 612.168 178.097 612.35 177.003 L 612.35 177.003 L 612.35 177.003 Q 612.714 175.363 613.261 173.723 L 613.261 173.723 L 613.261 173.723 Q 613.808 172.082 613.808 172.082 L 613.808 172.082 L 651.718 78.766 L 652.811 75.85 L 652.811 75.85 Q 653.176 74.756 653.723 73.845 L 653.723 73.845 L 653.723 73.845 Q 654.269 72.934 654.634 71.658 L 654.634 71.658 L 654.634 71.658 Q 655.545 69.289 656.639 67.466 L 656.639 67.466 L 656.639 67.466 Q 657.186 66.372 657.915 65.461 L 657.915 65.461 L 657.915 65.461 Q 658.644 64.55 659.373 63.639 L 659.373 63.639 L 659.373 63.639 Q 660.466 62.18 662.471 61.269 L 662.471 61.269 L 662.471 61.269 Q 665.023 60.358 668.395 60.358 L 668.395 60.358 L 668.395 60.358 Q 671.766 60.358 674.318 61.269 L 674.318 61.269 L 674.318 61.269 Q 676.323 62.18 677.416 63.639 L 677.416 63.639 L 677.416 63.639 Q 678.692 65.279 680.15 67.466 L 680.15 67.466 L 680.15 67.466 Q 681.244 69.289 682.155 71.658 L 682.155 71.658 L 682.155 71.658 Q 682.52 72.934 683.066 73.845 L 683.066 73.845 L 683.066 73.845 Q 683.613 74.756 683.978 75.85 L 683.978 75.85 L 685.071 78.766 L 722.981 172.082 L 722.981 172.082 Q 722.981 172.082 723.528 173.723 L 723.528 173.723 L 723.528 173.723 Q 724.075 175.363 724.439 177.003 Z  M 684.524 140.369 L 681.244 132.35 L 681.244 132.35 Q 678.874 127.065 676.414 121.415 L 676.414 121.415 L 676.414 121.415 Q 673.953 115.765 671.22 109.932 L 671.22 109.932 L 671.22 109.932 Q 670.49 108.292 669.761 106.56 L 669.761 106.56 L 669.761 106.56 Q 669.032 104.829 668.303 103.189 L 668.303 103.189 L 668.303 103.189 Q 667.757 104.829 667.028 106.56 L 667.028 106.56 L 667.028 106.56 Q 666.299 108.292 665.569 109.932 L 665.569 109.932 L 665.569 109.932 Q 662.836 115.765 660.375 121.415 L 660.375 121.415 L 660.375 121.415 Q 657.915 127.065 655.545 132.35 L 655.545 132.35 L 652.265 140.369 L 684.524 140.369 Z " fill="rgb(58,98,136)"/><path d=" M 135.905 116.129 L 135.905 116.129 L 135.905 116.129 Q 136.27 122.144 135.814 128.523 L 135.814 128.523 L 135.814 128.523 Q 135.358 134.902 134.447 140.916 L 134.447 140.916 L 134.447 140.916 Q 132.624 151.305 127.703 161.147 L 127.703 161.147 L 127.703 161.147 Q 122.782 170.989 113.305 177.915 L 113.305 177.915 L 113.305 177.915 Q 103.463 185.205 90.887 187.848 L 90.887 187.848 L 90.887 187.848 Q 78.311 190.491 65.918 191.037 L 65.918 191.037 L 65.918 191.037 Q 61.726 191.402 57.443 191.311 L 57.443 191.311 L 57.443 191.311 Q 53.16 191.22 49.15 190.308 L 49.15 190.308 L 49.15 190.308 Q 45.869 189.762 44.229 188.304 L 44.229 188.304 L 44.229 188.304 Q 43.318 187.757 42.771 186.845 L 42.771 186.845 L 42.771 186.845 Q 42.224 185.934 41.859 185.023 L 41.859 185.023 L 41.859 185.023 Q 41.313 184.112 41.039 183.109 L 41.039 183.109 L 41.039 183.109 Q 40.766 182.107 40.401 181.013 L 40.401 181.013 L 40.401 181.013 Q 40.219 180.102 40.128 179.282 L 40.128 179.282 L 40.128 179.282 Q 40.037 178.462 40.037 177.733 L 40.037 177.733 L 40.037 73.663 L 40.037 73.663 Q 40.037 72.387 40.037 71.293 L 40.037 71.293 L 40.037 71.293 Q 40.037 70.2 40.401 69.106 L 40.401 69.106 L 40.401 69.106 Q 40.766 66.555 41.495 64.914 L 41.495 64.914 L 41.495 64.914 Q 42.224 62.727 43.5 61.816 L 43.5 61.816 L 43.5 61.816 Q 44.593 60.905 45.687 60.449 L 45.687 60.449 L 45.687 60.449 Q 46.78 59.993 47.692 59.629 L 47.692 59.629 L 47.692 59.629 Q 48.785 59.264 49.97 59.538 L 49.97 59.538 L 49.97 59.538 Q 51.155 59.811 52.613 59.082 L 52.613 59.082 L 83.05 59.811 L 83.05 59.811 Q 95.079 60.176 104.556 65.37 L 104.556 65.37 L 104.556 65.37 Q 114.034 70.564 120.778 78.584 L 120.778 78.584 L 120.778 78.584 Q 127.521 86.603 131.349 96.536 L 131.349 96.536 L 131.349 96.536 Q 135.176 106.469 135.905 116.129 Z  M 102.005 150.758 L 102.005 150.758 L 102.005 150.758 Q 105.468 145.29 107.108 138.182 L 107.108 138.182 L 107.108 138.182 Q 108.748 131.074 108.566 123.693 L 108.566 123.693 L 108.566 123.693 Q 108.384 116.311 106.561 109.294 L 106.561 109.294 L 106.561 109.294 Q 104.739 102.277 101.458 96.81 L 101.458 96.81 L 101.458 96.81 Q 98.906 92.8 94.897 90.248 L 94.897 90.248 L 94.897 90.248 Q 90.887 87.697 85.966 86.33 L 85.966 86.33 L 85.966 86.33 Q 81.045 84.963 75.486 84.416 L 75.486 84.416 L 75.486 84.416 Q 69.927 83.869 64.642 83.869 L 64.642 83.869 L 64.642 83.869 Q 64.824 89.155 64.824 94.076 L 64.824 94.076 L 64.824 94.076 Q 64.824 98.997 64.824 104.465 L 64.824 104.465 L 64.824 104.465 Q 64.642 111.026 64.642 117.223 L 64.642 117.223 L 64.642 117.223 Q 64.642 123.419 64.642 129.252 L 64.642 129.252 L 64.642 166.432 L 64.642 166.432 Q 70.292 166.25 75.486 165.795 L 75.486 165.795 L 75.486 165.795 Q 80.681 165.339 85.51 163.699 L 85.51 163.699 L 85.51 163.699 Q 90.34 162.058 94.441 159.051 L 94.441 159.051 L 94.441 159.051 Q 98.542 156.044 102.005 150.758 Z  M 149.292 172.812 L 149.292 170.078 L 149.475 155.679 L 149.657 128.887 L 149.657 128.887 Q 149.839 123.055 149.839 116.858 L 149.839 116.858 L 149.839 116.858 Q 149.839 110.661 149.839 104.1 L 149.839 104.1 L 149.839 104.1 Q 149.839 97.539 149.839 92.435 L 149.839 92.435 L 149.839 92.435 Q 149.839 87.332 150.204 80.953 L 150.204 80.953 L 150.204 80.224 L 150.204 80.224 Q 150.386 78.402 150.477 76.488 L 150.477 76.488 L 150.477 76.488 Q 150.568 74.574 150.568 72.569 L 150.568 72.569 L 150.568 72.569 Q 150.75 69.289 152.573 65.461 L 152.573 65.461 L 152.573 65.461 Q 153.849 62.91 156.4 61.087 L 156.4 61.087 L 156.4 61.087 Q 159.316 59.629 162.05 59.629 L 162.05 59.629 L 162.05 59.629 Q 163.508 59.629 164.693 59.72 L 164.693 59.72 L 164.693 59.72 Q 165.878 59.811 166.971 59.993 L 166.971 59.993 L 166.971 59.993 Q 169.341 60.358 171.163 62.18 L 171.163 62.18 L 171.163 62.18 Q 172.257 63.092 173.168 65.097 L 173.168 65.097 L 173.168 65.097 Q 173.533 66.19 173.806 67.193 L 173.806 67.193 L 173.806 67.193 Q 174.079 68.195 174.262 69.289 L 174.262 69.289 L 174.262 69.289 Q 174.444 70.564 174.535 71.658 L 174.535 71.658 L 174.535 71.658 Q 174.626 72.751 174.626 73.845 L 174.626 73.845 L 174.626 73.845 Q 174.626 75.121 174.535 76.123 L 174.535 76.123 L 174.535 76.123 Q 174.444 77.126 174.444 78.219 L 174.444 78.219 L 174.444 81.318 L 173.35 175.91 L 173.35 177.733 L 173.35 177.733 Q 173.35 178.279 173.259 179.099 L 173.259 179.099 L 173.259 179.099 Q 173.168 179.92 172.986 181.013 L 172.986 181.013 L 172.986 181.013 Q 172.621 181.924 172.348 182.927 L 172.348 182.927 L 172.348 182.927 Q 172.075 183.929 171.71 185.023 L 171.71 185.023 L 171.71 185.023 Q 171.163 185.934 170.525 186.754 L 170.525 186.754 L 170.525 186.754 Q 169.887 187.574 168.976 188.304 L 168.976 188.304 L 168.976 188.304 Q 167.518 189.762 164.237 190.308 L 164.237 190.308 L 164.237 190.308 Q 159.316 191.402 154.942 189.397 L 154.942 189.397 L 154.942 189.397 Q 152.755 187.939 151.844 185.752 L 151.844 185.752 L 151.844 185.752 Q 151.297 185.205 151.297 184.658 L 151.297 184.658 L 151.297 184.658 Q 151.115 184.294 150.933 184.112 L 150.933 184.112 L 150.933 184.112 Q 150.75 183.929 150.568 183.565 L 150.568 183.565 L 150.568 183.565 Q 150.204 182.654 150.021 181.651 L 150.021 181.651 L 150.021 181.651 Q 149.839 180.649 149.839 179.555 L 149.839 179.555 L 149.839 179.555 Q 149.657 178.644 149.566 177.733 L 149.566 177.733 L 149.566 177.733 Q 149.475 176.821 149.292 175.91 L 149.292 175.91 L 149.292 175.91 Q 149.11 174.452 149.292 172.812 L 149.292 172.812 Z  M 286.615 175.545 L 286.615 175.545 L 286.615 175.545 Q 286.433 178.644 285.795 182.107 L 285.795 182.107 L 285.795 182.107 Q 285.157 185.57 282.241 187.757 L 282.241 187.757 L 282.241 187.757 Q 280.054 189.579 277.32 189.944 L 277.32 189.944 L 277.32 189.944 Q 274.586 190.308 271.944 189.67 L 271.944 189.67 L 271.944 189.67 Q 269.301 189.033 266.932 187.666 L 266.932 187.666 L 266.932 187.666 Q 264.562 186.299 263.104 184.294 L 263.104 184.294 L 263.104 184.294 Q 256.907 176.639 251.713 168.528 L 251.713 168.528 L 251.713 168.528 Q 246.519 160.418 241.233 152.216 L 241.233 152.216 L 225.923 129.069 L 225.923 129.069 Q 222.825 124.148 219.362 118.043 L 219.362 118.043 L 219.362 118.043 Q 215.899 111.937 212.254 106.652 L 212.254 106.652 L 211.707 176.274 L 211.707 177.915 L 211.707 177.915 Q 211.707 180.831 210.705 183.656 L 210.705 183.656 L 210.705 183.656 Q 209.702 186.481 207.333 188.486 L 207.333 188.486 L 207.333 188.486 Q 205.51 189.944 202.594 190.491 L 202.594 190.491 L 202.594 190.491 Q 198.038 191.402 195.03 189.944 L 195.03 189.944 L 195.03 189.944 Q 192.023 188.486 190.292 185.934 L 190.292 185.934 L 190.292 185.934 Q 188.56 183.383 187.922 180.011 L 187.922 180.011 L 187.922 180.011 Q 187.284 176.639 187.649 173.358 L 187.649 173.358 L 187.649 170.26 L 188.013 156.044 L 188.196 129.616 L 188.196 129.616 Q 188.378 123.784 188.378 117.678 L 188.378 117.678 L 188.378 117.678 Q 188.378 111.573 188.378 105.194 L 188.378 105.194 L 188.378 105.194 Q 188.196 97.356 188.469 88.608 L 188.469 88.608 L 188.469 88.608 Q 188.743 79.86 189.107 72.205 L 189.107 72.205 L 189.107 72.205 Q 189.472 68.013 191.112 65.097 L 191.112 65.097 L 191.112 65.097 Q 191.841 62.545 194.939 60.722 L 194.939 60.722 L 194.939 60.722 Q 196.944 59.447 200.134 59.082 L 200.134 59.082 L 200.134 59.082 Q 203.323 58.718 205.693 59.264 L 205.693 59.264 L 205.693 59.264 Q 206.604 59.629 207.515 60.084 L 207.515 60.084 L 207.515 60.084 Q 208.426 60.54 209.338 61.087 L 209.338 61.087 L 209.338 61.087 Q 210.249 61.816 211.069 62.545 L 211.069 62.545 L 211.069 62.545 Q 211.889 63.274 212.618 64.185 L 212.618 64.185 L 212.618 64.185 Q 213.53 65.097 214.259 66.099 L 214.259 66.099 L 214.259 66.099 Q 214.988 67.101 215.717 68.013 L 215.717 68.013 L 215.717 68.013 Q 216.264 69.106 216.81 70.018 L 216.81 70.018 L 216.81 70.018 Q 217.357 70.929 218.086 71.84 L 218.086 71.84 L 220.091 74.756 L 262.193 141.099 L 262.193 129.069 L 262.193 129.069 Q 262.193 123.237 262.102 117.131 L 262.102 117.131 L 262.102 117.131 Q 262.011 111.026 261.828 104.465 L 261.828 104.465 L 261.828 104.465 Q 261.828 96.81 261.919 88.061 L 261.919 88.061 L 261.919 88.061 Q 262.011 79.313 262.375 71.658 L 262.375 71.658 L 262.375 71.658 Q 262.375 68.56 264.198 64.55 L 264.198 64.55 L 264.198 64.55 Q 265.109 62.18 267.296 60.722 L 267.296 60.722 L 267.296 60.722 Q 269.483 59.264 272.217 58.718 L 272.217 58.718 L 272.217 58.718 Q 274.951 58.171 277.685 58.718 L 277.685 58.718 L 277.685 58.718 Q 280.419 59.264 282.424 60.905 L 282.424 60.905 L 282.424 60.905 Q 282.97 61.451 283.517 62.18 L 283.517 62.18 L 283.517 62.18 Q 284.064 62.91 284.428 63.821 L 284.428 63.821 L 284.428 63.821 Q 285.34 66.19 285.522 68.013 L 285.522 68.013 L 285.522 68.013 Q 286.069 70.564 286.069 72.569 L 286.069 72.569 L 286.069 72.569 Q 286.069 95.352 286.16 119.045 L 286.16 119.045 L 286.16 119.045 Q 286.251 142.739 286.433 165.521 L 286.433 165.521 L 286.433 165.521 Q 286.433 168.073 286.615 170.533 L 286.615 170.533 L 286.615 170.533 Q 286.798 172.994 286.615 175.545 Z  M 326.43 64.732 L 326.43 64.732 L 326.43 64.732 Q 338.642 60.176 348.575 60.722 L 348.575 60.722 L 348.575 60.722 Q 358.508 61.269 366.345 65.735 L 366.345 65.735 L 366.345 65.735 Q 374.182 70.2 379.741 77.672 L 379.741 77.672 L 379.741 77.672 Q 385.3 85.145 388.763 94.44 L 388.763 94.44 L 388.763 94.44 Q 391.497 101.366 392.955 109.021 L 392.955 109.021 L 392.955 109.021 Q 394.413 116.676 394.686 124.24 L 394.686 124.24 L 394.686 124.24 Q 394.96 131.803 394.139 139.094 L 394.139 139.094 L 394.139 139.094 Q 393.319 146.384 391.497 152.581 L 391.497 152.581 L 391.497 152.581 Q 390.403 156.773 388.945 160.236 L 388.945 160.236 L 388.945 160.236 Q 387.487 163.699 385.482 167.162 L 385.482 167.162 L 385.482 167.162 Q 380.926 174.999 373.726 179.92 L 373.726 179.92 L 373.726 179.92 Q 366.527 184.841 357.961 186.845 L 357.961 186.845 L 357.961 186.845 Q 352.129 188.304 345.932 188.212 L 345.932 188.212 L 345.932 188.212 Q 339.735 188.121 333.721 186.572 L 333.721 186.572 L 333.721 186.572 Q 327.706 185.023 322.147 182.016 L 322.147 182.016 L 322.147 182.016 Q 316.588 179.008 312.032 174.452 L 312.032 174.452 L 312.032 174.452 Q 306.382 168.984 302.737 161.785 L 302.737 161.785 L 302.737 161.785 Q 299.091 154.586 297.087 146.657 L 297.087 146.657 L 297.087 146.657 Q 295.082 138.729 294.535 130.71 L 294.535 130.71 L 294.535 130.71 Q 293.988 122.69 294.535 115.4 L 294.535 115.4 L 294.535 115.4 Q 295.082 108.656 297.178 101.002 L 297.178 101.002 L 297.178 101.002 Q 299.274 93.347 303.283 86.239 L 303.283 86.239 L 303.283 86.239 Q 307.293 79.131 313.034 73.389 L 313.034 73.389 L 313.034 73.389 Q 318.775 67.648 326.43 64.732 Z  M 369.079 142.739 L 369.079 142.739 L 369.079 142.739 Q 371.266 134.173 370.901 123.419 L 370.901 123.419 L 370.901 123.419 Q 370.537 112.666 367.438 103.189 L 367.438 103.189 L 367.438 103.189 Q 365.434 97.356 362.426 92.891 L 362.426 92.891 L 362.426 92.891 Q 359.419 88.426 355.318 86.056 L 355.318 86.056 L 355.318 86.056 Q 351.217 83.687 345.75 83.687 L 345.75 83.687 L 345.75 83.687 Q 340.282 83.687 333.538 86.968 L 333.538 86.968 L 333.538 86.968 Q 329.529 88.973 326.704 92.435 L 326.704 92.435 L 326.704 92.435 Q 323.879 95.898 322.147 100.273 L 322.147 100.273 L 322.147 100.273 Q 320.416 104.647 319.413 109.385 L 319.413 109.385 L 319.413 109.385 Q 318.411 114.124 318.229 118.498 L 318.229 118.498 L 318.229 118.498 Q 317.864 123.237 318.046 128.432 L 318.046 128.432 L 318.046 128.432 Q 318.229 133.626 319.231 138.82 L 319.231 138.82 L 319.231 138.82 Q 320.233 144.015 322.056 148.662 L 322.056 148.662 L 322.056 148.662 Q 323.879 153.31 326.977 156.955 L 326.977 156.955 L 326.977 156.955 Q 331.716 162.423 338.004 164.519 L 338.004 164.519 L 338.004 164.519 Q 344.292 166.615 350.488 165.157 L 350.488 165.157 L 350.488 165.157 Q 360.513 162.97 365.798 151.852 L 365.798 151.852 L 365.798 151.852 Q 367.985 147.842 369.079 142.739 Z " fill="rgb(40,168,31)"/></g></svg>