<?xml version="1.0" encoding="UTF-8" standalone="no"?><!-- Generator: Gravit.io --><svg xmlns="http://www.w3.org/2000/svg" xmlns:xlink="http://www.w3.org/1999/xlink" style="isolation:isolate" viewBox="0 0 992 250" width="992pt" height="250pt"><defs><clipPath id="_clipPath_xZpeaGlOCQbxMef4bW4NwotRe1CxfEVY"><rect width="992" height="250"/></clipPath></defs><g clip-path="url(#_clipPath_xZpeaGlOCQbxMef4bW4NwotRe1CxfEVY)"><path d=" M 354.03 91.581 L 386.385 65.892 L 386.385 154.161 L 391.551 159.055 L 296.118 234.368 L 299.924 226.212 L 299.924 134.54 L 332.279 108.851 L 332.279 143.014 L 354.03 123.981 L 354.03 91.581 L 354.03 91.581 Z " fill="rgb(170,50,46)"/><path d=" M 354.03 91.581 L 386.385 65.892 L 386.385 10.332 L 371.159 0 L 294.486 0 L 299.924 5.438 L 299.924 134.54 L 332.279 108.851 L 332.279 33.714 L 354.03 33.442 L 354.03 91.581 L 354.03 91.581 Z " fill="rgb(90,120,202)"/><path d=" M 449.191 106.626 L 482.634 129.508 L 482.634 150.626 L 438.044 186.788 L 392.095 150.626 L 392.095 67.559 L 426.715 91.248 L 426.715 124.253 L 449.191 143.285 L 449.191 106.626 L 449.191 106.626 Z " fill="rgb(170,50,46)"/><path d=" M 449.191 106.626 L 482.634 129.508 L 482.634 10.06 L 472.03 0 L 406.777 0 L 392.095 10.06 L 392.095 67.559 L 426.715 91.248 L 426.715 33.714 L 449.191 33.986 L 449.191 106.626 L 449.191 106.626 Z " fill="rgb(90,120,202)"/><path d=" M 545.893 94.161 L 580.514 72.038 L 580.514 150.626 L 534.564 186.788 L 489.975 150.626 L 489.975 129.894 L 523.417 108.524 L 523.417 143.285 L 545.893 124.253 L 545.893 94.161 L 545.893 94.161 Z " fill="rgb(170,50,46)"/><path d=" M 545.893 94.161 L 580.514 72.038 L 580.514 10.06 L 565.832 0 L 500.578 0 L 489.975 10.06 L 489.975 129.894 L 523.417 108.524 L 523.417 33.986 L 545.893 33.714 L 545.893 94.161 L 545.893 94.161 Z " fill="rgb(90,120,202)"/><path d=" M 654.678 117.437 L 637.97 186.788 L 616.991 93.46 L 616.763 93.314 L 616.763 182.981 L 583.32 154.433 L 588.758 149.267 L 588.758 75.498 L 616.763 93.314 L 616.991 93.46 L 654.678 117.437 L 657.818 119.434 L 690.444 140.191 L 690.444 222.677 Q 691.532 238.447 695.61 243.341 Q 699.689 248.235 654.011 210.714 L 657.818 205.82 L 657.818 119.434 L 654.678 117.437 Z " fill="rgb(170,50,46)"/><linearGradient id="_lgradient_2" x1="0.4427005829358764" y1="0.8247125877377978" x2="0.6476319313966363" y2="0.1504871235963674" gradientTransform="matrix(0.229,0,0,1.018,616.763,92.442)" gradientUnits="userSpaceOnUse"><stop offset="0%" stop-opacity="1" style="stop-color:rgb(206,125,61)"/><stop offset="21.727609962904015%" stop-opacity="1" style="stop-color:rgb(206,125,61)"/><stop offset="54.58333333333333%" stop-opacity="1" style="stop-color:rgb(203,125,63)"/><stop offset="55.00000000000001%" stop-opacity="1" style="stop-color:rgb(74,126,158)"/></linearGradient><path d=" M 616.991 93.46 L 616.763 92.442 L 616.763 93.314 L 616.991 93.46 L 616.991 93.46 Z " fill="url(#_lgradient_2)"/><path d=" M 654.678 117.437 L 616.991 93.46 L 616.763 93.314 L 588.758 75.498 L 588.758 7.613 L 581.961 0 L 627.91 0 L 639.601 41.599 L 652.38 0 L 697.514 0 L 690.444 7.613 L 690.444 140.191 L 690.444 140.191 L 657.818 119.434 L 657.818 104.405 L 654.678 117.437 Z " fill="rgb(90,120,202)"/><path d=" M 555.591 250 L 547.435 230.424 L 528.946 230.424 L 528.946 174.687 L 547.435 174.687 L 555.591 154.567 L 419.375 154.567 L 427.531 174.687 L 446.292 174.687 L 446.292 230.424 L 427.531 230.424 L 419.375 250 L 555.591 250 Z  M 477.015 174.687 L 498.223 174.687 L 498.223 230.424 L 477.015 230.424 L 477.015 174.687 Z " fill-rule="evenodd" fill="rgb(221,221,221)"/><path d=" M 552.886 247.295 L 544.73 227.719 L 526.241 227.719 L 526.241 171.982 L 544.73 171.982 L 552.886 151.862 L 416.67 151.862 L 424.827 171.982 L 443.587 171.982 L 443.587 227.719 L 424.827 227.719 L 416.67 247.295 L 552.886 247.295 Z  M 474.31 171.982 L 495.518 171.982 L 495.518 227.719 L 474.31 227.719 L 474.31 171.982 Z " fill-rule="evenodd" fill="rgb(0,0,0)"/></g></svg>