<?xml version="1.0" encoding="UTF-8" standalone="no"?><!-- Generator: Gravit.io --><svg xmlns="http://www.w3.org/2000/svg" xmlns:xlink="http://www.w3.org/1999/xlink" style="isolation:isolate" viewBox="0 0 992 250" width="992pt" height="250pt"><defs><clipPath id="_clipPath_xijOu8UsdJJ5uapDnKsjH6emPoKHj1Ze"><rect width="992" height="250"/></clipPath></defs><g clip-path="url(#_clipPath_xijOu8UsdJJ5uapDnKsjH6emPoKHj1Ze)"><path d=" M 351.574 94.103 L 384.488 67.969 L 384.488 157.766 L 389.744 162.744 L 292.66 239.361 L 296.532 231.063 L 296.532 137.805 L 329.446 111.672 L 329.446 146.425 L 351.574 127.064 L 351.574 94.103 L 351.574 94.103 Z " fill="rgb(205,125,62)"/><path d=" M 351.574 94.103 L 384.488 67.969 L 384.488 11.448 L 368.999 0.937 L 291 0.937 L 296.532 6.469 L 296.532 137.805 L 329.446 111.672 L 329.446 35.235 L 351.574 34.958 L 351.574 94.103 L 351.574 94.103 Z " fill="rgb(74,126,158)"/><path d=" M 448.381 109.408 L 482.402 132.686 L 482.402 154.17 L 437.041 190.957 L 390.297 154.17 L 390.297 69.666 L 425.516 93.764 L 425.516 127.34 L 448.381 146.702 L 448.381 109.408 L 448.381 109.408 Z " fill="rgb(205,125,62)"/><path d=" M 448.381 109.408 L 482.402 132.686 L 482.402 11.171 L 471.615 0.937 L 405.233 0.937 L 390.297 11.171 L 390.297 69.666 L 425.516 93.764 L 425.516 35.235 L 448.381 35.512 L 448.381 109.408 L 448.381 109.408 Z " fill="rgb(74,126,158)"/><path d=" M 546.756 96.728 L 581.976 74.222 L 581.976 154.17 L 535.232 190.957 L 489.87 154.17 L 489.87 133.079 L 523.891 111.339 L 523.891 146.702 L 546.756 127.34 L 546.756 96.728 L 546.756 96.728 Z " fill="rgb(205,125,62)"/><path d=" M 546.756 96.728 L 581.976 74.222 L 581.976 11.171 L 567.04 0.937 L 500.657 0.937 L 489.87 11.171 L 489.87 133.079 L 523.891 111.339 L 523.891 35.512 L 546.756 35.235 L 546.756 96.728 L 546.756 96.728 Z " fill="rgb(74,126,158)"/><path d=" M 657.424 120.406 L 640.426 190.957 L 619.085 96.014 L 618.852 95.866 L 618.852 187.084 L 584.831 158.042 L 590.363 152.787 L 590.363 77.741 L 618.852 95.866 L 619.085 96.014 L 657.424 120.406 L 660.617 122.438 L 693.809 143.554 L 693.809 227.467 Q 694.915 243.509 699.064 248.488 Q 703.213 253.467 656.745 215.297 L 660.617 210.318 L 660.617 122.438 L 657.424 120.406 Z " fill="rgb(205,125,62)"/><linearGradient id="_lgradient_0" x1="0.4427005829358764" y1="0.8247125877377978" x2="0.6476319313966363" y2="0.1504871235963674" gradientTransform="matrix(0.233,0,0,1.035,618.852,94.979)" gradientUnits="userSpaceOnUse"><stop offset="0%" stop-opacity="1" style="stop-color:rgb(206,125,61)"/><stop offset="21.727609962904015%" stop-opacity="1" style="stop-color:rgb(206,125,61)"/><stop offset="54.58333333333333%" stop-opacity="1" style="stop-color:rgb(203,125,63)"/><stop offset="55.00000000000001%" stop-opacity="1" style="stop-color:rgb(74,126,158)"/></linearGradient><path d=" M 619.085 96.014 L 618.852 94.979 L 618.852 95.866 L 619.085 96.014 L 619.085 96.014 Z " fill="url(#_lgradient_0)"/><path d=" M 657.424 120.406 L 619.085 96.014 L 618.852 95.866 L 590.363 77.741 L 590.363 8.682 L 583.448 0.937 L 630.192 0.937 L 642.086 43.256 L 655.086 0.937 L 701 0.937 L 693.809 8.682 L 693.809 143.554 L 693.809 143.554 L 660.617 122.438 L 660.617 107.149 L 657.424 120.406 Z " fill="rgb(74,126,158)"/></g></svg>