<?xml version="1.0" encoding="UTF-8" standalone="no"?><!-- Generator: Gravit.io --><svg xmlns="http://www.w3.org/2000/svg" xmlns:xlink="http://www.w3.org/1999/xlink" style="isolation:isolate" viewBox="0 0 992 250" width="992pt" height="250pt"><defs><clipPath id="_clipPath_aBKGRu19Wfqn6GhdpZWfgJL3tHkbF9i3"><rect width="992" height="250"/></clipPath></defs><g clip-path="url(#_clipPath_aBKGRu19Wfqn6GhdpZWfgJL3tHkbF9i3)"><path d=" M 510.576 38.279 Q 486.319 30.508 453.99 30.508 L 453.99 30.508 L 453.99 30.508 L 399.217 30.508 L 399.217 219.889 L 459.79 219.889 L 459.79 219.889 Q 506.83 219.889 537.439 198.375 L 537.439 198.375 L 537.439 198.375 Q 568.048 176.86 568.048 124.239 L 568.048 124.239 L 568.048 124.239 Q 568.048 81.551 548.413 60.151 Q 531.186 66.424 520.266 96.246 Q 523.263 108.018 523.263 124.239 L 523.263 124.239 L 523.263 124.239 Q 523.263 162.883 507.153 177.82 L 507.153 177.82 L 507.153 177.82 Q 491.043 192.756 462.69 192.756 L 462.69 192.756 L 441.747 192.756 L 441.747 57.641 L 461.401 57.641 L 461.401 57.641 L 461.401 57.641 Q 475.015 57.641 485.808 60.404 Q 495.48 47.365 510.576 38.279 Z " fill="rgb(151,0,0)"/><path d=" M 614.364 88.888 Q 614.123 88.613 613.903 88.336 L 613.903 88.336 L 613.903 88.336 Q 610.198 83.677 610.198 76.551 L 610.198 76.551 L 610.198 76.551 Q 610.198 65.863 619.703 59.97 L 619.703 59.97 L 619.703 59.97 Q 629.207 54.078 644.673 54.078 L 644.673 54.078 L 644.673 54.078 Q 658.527 54.078 670.61 57.915 L 670.61 57.915 L 670.61 57.915 Q 682.692 61.752 694.613 70.248 L 694.613 70.248 L 715.556 49.693 L 715.556 49.693 Q 700.413 37.908 683.014 32.152 L 683.014 32.152 L 683.014 32.152 Q 665.616 26.397 642.095 26.397 L 642.095 26.397 L 642.095 26.397 Q 620.186 26.397 602.948 32.974 L 602.948 32.974 L 602.948 32.974 Q 585.711 39.552 576.045 51.337 L 576.045 51.337 L 576.045 51.337 Q 566.379 63.122 566.379 78.744 L 566.379 78.744 L 566.379 78.744 Q 566.379 100.121 582.167 113.276 L 582.167 113.276 L 582.167 113.276 Q 594.389 123.461 618.391 131.346 Q 619.501 110.849 614.364 88.888 Z  M 666.566 109.228 Q 691.611 117.115 705.407 127.939 L 705.407 127.939 L 705.407 127.939 Q 722 140.957 722 165.898 L 722 165.898 L 722 165.898 Q 722 182.89 711.851 196.045 L 711.851 196.045 L 711.851 196.045 Q 701.702 209.2 682.692 216.6 L 682.692 216.6 L 682.692 216.6 Q 663.682 224 637.584 224 L 637.584 224 L 637.584 224 Q 612.131 224 591.994 217.011 L 591.994 217.011 L 591.994 217.011 Q 571.856 210.023 557.358 197.964 L 557.358 197.964 L 579.267 177.134 L 579.267 177.134 Q 592.155 186.453 606.009 191.249 L 606.009 191.249 L 606.009 191.249 Q 619.864 196.045 636.618 196.045 L 636.618 196.045 L 636.618 196.045 Q 654.983 196.045 666.26 188.645 L 666.26 188.645 L 666.26 188.645 Q 677.537 181.245 677.537 167.816 L 677.537 167.816 L 677.537 167.816 Q 677.537 159.594 673.671 154.25 L 673.671 154.25 L 673.671 154.25 Q 670.912 150.436 665.364 147.181 Q 668.437 126.661 666.566 109.228 Z " fill-rule="evenodd" fill="rgb(255,201,8)"/><path d=" M 602.167 30.793 Q 586.726 26.397 568.209 26.397 L 568.209 26.397 L 568.209 26.397 L 568.209 26.397 Q 538.567 26.397 516.496 38.182 L 516.496 38.182 L 516.496 38.182 Q 494.426 49.967 482.505 72.303 L 482.505 72.303 L 482.505 72.303 Q 470.583 94.64 470.583 125.335 L 470.583 125.335 L 470.583 125.335 Q 470.583 156.579 482.505 178.779 L 482.505 178.779 L 482.505 178.779 Q 484.928 183.292 487.765 187.363 L 487.765 187.363 Q 511.691 178.888 518.248 154.606 Q 515.369 141.905 515.369 125.335 L 515.369 125.335 L 515.369 125.335 Q 515.369 88.336 528.901 71.207 L 528.901 71.207 L 528.901 71.207 Q 542.433 54.078 568.209 54.078 L 568.209 54.078 L 568.209 54.078 L 568.209 54.078 Q 569.224 54.078 570.219 54.104 Q 580.221 38.028 602.167 30.793 Z  M 643.657 56.65 Q 649.4 63.402 653.752 71.618 L 653.752 71.618 L 653.752 71.618 Q 665.512 93.818 665.512 125.061 L 665.512 125.061 L 665.512 125.061 Q 665.512 156.031 653.591 178.231 L 653.591 178.231 L 653.591 178.231 Q 649.216 186.377 643.497 193.121 Q 617.91 194.452 600.563 186.233 Q 604.286 183.228 607.356 179.327 L 607.356 179.327 L 607.356 179.327 Q 620.727 162.335 620.727 125.061 L 620.727 125.061 L 620.727 125.061 Q 620.727 95.42 612.145 78.62 Q 614.735 56.698 643.657 56.65 Z  M 515.918 212.268 Q 516.126 212.379 516.335 212.489 L 516.335 212.489 L 516.335 212.489 Q 538.245 224 568.209 224 L 568.209 224 L 568.209 224 Q 583.072 224 595.991 221.037 Q 575.01 214.998 553.762 197.626 L 556.261 195.292 Q 551.397 194.398 547.111 192.728 Q 537.91 203.039 515.918 212.268 L 515.918 212.268 Z " fill-rule="evenodd" fill="rgb(153,28,90)"/><path d=" M 395.488 220.209 L 302.882 220.209 L 302.882 190.842 L 352.442 170.466 L 302.882 149.969 L 302.882 120.662 L 395.488 120.662 L 395.488 142.477 L 327.755 142.477 L 377.687 163.094 L 377.687 177.717 L 327.755 198.334 L 395.488 198.334 L 395.488 220.209 Z  M 305.798 35.798 L 305.798 35.798 L 325.398 35.798 L 325.398 35.798 Q 321.987 43.17 320.25 50.182 L 320.25 50.182 L 320.25 50.182 Q 318.513 57.194 318.513 63.427 L 318.513 63.427 L 318.513 63.427 Q 318.513 71.697 320.87 75.653 L 320.87 75.653 L 320.87 75.653 Q 323.227 79.609 328.189 79.609 L 328.189 79.609 L 328.189 79.609 Q 331.911 79.609 333.989 76.942 L 333.989 76.942 L 333.989 76.942 Q 336.067 74.275 337.555 67.263 L 337.555 67.263 L 339.602 57.434 L 339.602 57.434 Q 342.704 42.511 349.03 36.218 L 349.03 36.218 L 349.03 36.218 Q 355.357 29.925 367.018 29.925 L 367.018 29.925 L 367.018 29.925 Q 382.339 29.925 389.813 38.705 L 389.813 38.705 L 389.813 38.705 Q 397.287 47.485 397.287 65.524 L 397.287 65.524 L 397.287 65.524 Q 397.287 74.035 395.612 82.605 L 395.612 82.605 L 395.612 82.605 Q 393.938 91.175 390.65 99.746 L 390.65 99.746 L 370.492 99.746 L 370.492 99.746 Q 375.206 91.175 377.594 83.174 L 377.594 83.174 L 377.594 83.174 Q 379.982 75.174 379.982 67.742 L 379.982 67.742 L 379.982 67.742 Q 379.982 60.191 377.377 56.175 L 377.377 56.175 L 377.377 56.175 Q 374.771 52.16 369.933 52.16 L 369.933 52.16 L 369.933 52.16 Q 365.591 52.16 363.234 54.887 L 363.234 54.887 L 363.234 54.887 Q 360.877 57.613 359.017 65.764 L 359.017 65.764 L 356.97 74.694 L 356.97 74.694 Q 353.992 88.119 347.48 94.322 L 347.48 94.322 L 347.48 94.322 Q 340.967 100.525 329.926 100.525 L 329.926 100.525 L 329.926 100.525 Q 316.094 100.525 308.651 91.895 L 308.651 91.895 L 308.651 91.895 Q 301.208 83.264 301.208 67.083 L 301.208 67.083 L 301.208 67.083 Q 301.208 59.711 302.355 51.92 L 302.355 51.92 L 302.355 51.92 Q 303.503 44.129 305.798 35.798 Z " fill="rgb(249,249,249)"/></g></svg>