<?xml version="1.0" encoding="UTF-8" standalone="no"?><!-- Generator: Gravit.io --><svg xmlns="http://www.w3.org/2000/svg" xmlns:xlink="http://www.w3.org/1999/xlink" style="isolation:isolate" viewBox="0 0 992 250" width="992pt" height="250pt"><defs><clipPath id="_clipPath_sLWwpLPyohAFjG2mB60UicRYYhN9m7ff"><rect width="992" height="250"/></clipPath></defs><g clip-path="url(#_clipPath_sLWwpLPyohAFjG2mB60UicRYYhN9m7ff)"><path d=" M 478.218 39.258 L 478.218 107.852 L 442.655 107.852 L 496 176.445 L 549.345 107.852 L 513.782 107.852 L 513.782 39.258 L 478.218 39.258 Z  M 407.092 193.594 L 407.092 210.742 L 584.908 210.742 L 584.908 193.594 L 407.092 193.594 Z " fill="rgb(215,215,215)"/><path d=" M 254.652 169.965 L 254.652 124.516 L 274.203 124.516 L 274.203 169.965 L 274.203 169.965 Q 274.203 179.359 277.275 183.396 L 277.275 183.396 L 277.275 183.396 Q 280.348 187.434 287.305 187.434 L 287.305 187.434 L 287.305 187.434 Q 294.313 187.434 297.385 183.396 L 297.385 183.396 L 297.385 183.396 Q 300.457 179.359 300.457 169.965 L 300.457 169.965 L 300.457 124.516 L 320.008 124.516 L 320.008 169.965 L 320.008 169.965 Q 320.008 186.063 311.934 193.934 L 311.934 193.934 L 311.934 193.934 Q 303.859 201.805 287.305 201.805 L 287.305 201.805 L 287.305 201.805 Q 270.801 201.805 262.727 193.934 L 262.727 193.934 L 262.727 193.934 Q 254.652 186.063 254.652 169.965 L 254.652 169.965 Z  M 356.469 192.105 L 356.469 192.105 L 356.469 221.965 L 338.289 221.965 L 338.289 143.457 L 356.469 143.457 L 356.469 151.785 L 356.469 151.785 Q 360.227 146.809 364.797 144.447 L 364.797 144.447 L 364.797 144.447 Q 369.367 142.086 375.309 142.086 L 375.309 142.086 L 375.309 142.086 Q 385.82 142.086 392.574 150.439 L 392.574 150.439 L 392.574 150.439 Q 399.328 158.793 399.328 171.945 L 399.328 171.945 L 399.328 171.945 Q 399.328 185.098 392.574 193.451 L 392.574 193.451 L 392.574 193.451 Q 385.82 201.805 375.309 201.805 L 375.309 201.805 L 375.309 201.805 Q 369.367 201.805 364.797 199.443 L 364.797 199.443 L 364.797 199.443 Q 360.227 197.082 356.469 192.105 Z  M 368.555 155.289 L 368.555 155.289 L 368.555 155.289 Q 362.715 155.289 359.592 159.58 L 359.592 159.58 L 359.592 159.58 Q 356.469 163.871 356.469 171.945 L 356.469 171.945 L 356.469 171.945 Q 356.469 180.02 359.592 184.311 L 359.592 184.311 L 359.592 184.311 Q 362.715 188.602 368.555 188.602 L 368.555 188.602 L 368.555 188.602 Q 374.395 188.602 377.467 184.336 L 377.467 184.336 L 377.467 184.336 Q 380.539 180.07 380.539 171.945 L 380.539 171.945 L 380.539 171.945 Q 380.539 163.82 377.467 159.555 L 377.467 159.555 L 377.467 159.555 Q 374.395 155.289 368.555 155.289 Z  M 451.43 194.594 L 451.43 190.684 L 451.43 190.684 Q 447.672 195.66 443.152 197.996 L 443.152 197.996 L 443.152 197.996 Q 438.633 200.332 432.691 200.332 L 432.691 200.332 L 432.691 200.332 Q 422.281 200.332 415.477 192.131 L 415.477 192.131 L 415.477 192.131 Q 408.672 183.93 408.672 171.234 L 408.672 171.234 L 408.672 171.234 Q 408.672 158.488 415.477 150.338 L 415.477 150.338 L 415.477 150.338 Q 422.281 142.188 432.691 142.188 L 432.691 142.188 L 432.691 142.188 Q 438.633 142.188 443.152 144.523 L 443.152 144.523 L 443.152 144.523 Q 447.672 146.859 451.43 151.887 L 451.43 151.887 L 451.43 143.457 L 469.711 143.457 L 469.711 194.594 L 469.711 194.594 Q 469.711 208.305 461.053 215.541 L 461.053 215.541 L 461.053 215.541 Q 452.395 222.777 435.941 222.777 L 435.941 222.777 L 435.941 222.777 Q 430.609 222.777 425.633 221.965 L 425.633 221.965 L 425.633 221.965 Q 420.656 221.152 415.629 219.477 L 415.629 219.477 L 415.629 205.309 L 415.629 205.309 Q 420.402 208.051 424.973 209.396 L 424.973 209.396 L 424.973 209.396 Q 429.543 210.742 434.164 210.742 L 434.164 210.742 L 434.164 210.742 Q 443.102 210.742 447.266 206.832 L 447.266 206.832 L 447.266 206.832 Q 451.43 202.922 451.43 194.594 L 451.43 194.594 Z  M 439.445 155.289 L 439.445 155.289 L 439.445 155.289 Q 433.809 155.289 430.66 159.453 L 430.66 159.453 L 430.66 159.453 Q 427.512 163.617 427.512 171.234 L 427.512 171.234 L 427.512 171.234 Q 427.512 179.055 430.559 183.092 L 430.559 183.092 L 430.559 183.092 Q 433.605 187.129 439.445 187.129 L 439.445 187.129 L 439.445 187.129 Q 445.133 187.129 448.281 182.965 L 448.281 182.965 L 448.281 182.965 Q 451.43 178.801 451.43 171.234 L 451.43 171.234 L 451.43 171.234 Q 451.43 163.617 448.281 159.453 L 448.281 159.453 L 448.281 159.453 Q 445.133 155.289 439.445 155.289 Z  M 529.379 142.492 L 529.43 158.945 L 529.43 158.945 Q 527.043 157.828 524.682 157.295 L 524.682 157.295 L 524.682 157.295 Q 522.32 156.762 519.934 156.762 L 519.934 156.762 L 519.934 156.762 Q 512.926 156.762 509.143 161.256 L 509.143 161.256 L 509.143 161.256 Q 505.359 165.75 505.359 174.129 L 505.359 174.129 L 505.359 200.332 L 487.18 200.332 L 487.18 143.457 L 505.359 143.457 L 505.359 152.801 L 505.359 152.801 Q 508.863 147.215 513.408 144.65 L 513.408 144.65 L 513.408 144.65 Q 517.953 142.086 524.301 142.086 L 524.301 142.086 L 524.301 142.086 Q 525.215 142.086 526.281 142.162 L 526.281 142.162 L 526.281 142.162 Q 527.348 142.238 529.379 142.492 L 529.379 142.492 Z  M 573.406 174.738 L 563.961 174.738 L 563.961 174.738 Q 558.273 174.738 555.404 176.668 L 555.404 176.668 L 555.404 176.668 Q 552.535 178.598 552.535 182.355 L 552.535 182.355 L 552.535 182.355 Q 552.535 185.809 554.846 187.764 L 554.846 187.764 L 554.846 187.764 Q 557.156 189.719 561.27 189.719 L 561.27 189.719 L 561.27 189.719 Q 566.398 189.719 569.902 186.037 L 569.902 186.037 L 569.902 186.037 Q 573.406 182.355 573.406 176.82 L 573.406 176.82 L 573.406 174.738 Z  M 591.738 167.883 L 591.738 167.883 L 591.738 200.332 L 573.406 200.332 L 573.406 191.902 L 573.406 191.902 Q 569.75 197.082 565.18 199.443 L 565.18 199.443 L 565.18 199.443 Q 560.609 201.805 554.059 201.805 L 554.059 201.805 L 554.059 201.805 Q 545.223 201.805 539.713 196.65 L 539.713 196.65 L 539.713 196.65 Q 534.203 191.496 534.203 183.27 L 534.203 183.27 L 534.203 183.27 Q 534.203 173.266 541.084 168.594 L 541.084 168.594 L 541.084 168.594 Q 547.965 163.922 562.691 163.922 L 562.691 163.922 L 573.406 163.922 L 573.406 162.5 L 573.406 162.5 Q 573.406 158.184 570.004 156.178 L 570.004 156.178 L 570.004 156.178 Q 566.602 154.172 559.391 154.172 L 559.391 154.172 L 559.391 154.172 Q 553.551 154.172 548.523 155.34 L 548.523 155.34 L 548.523 155.34 Q 543.496 156.508 539.18 158.844 L 539.18 158.844 L 539.18 144.98 L 539.18 144.98 Q 545.02 143.559 550.91 142.822 L 550.91 142.822 L 550.91 142.822 Q 556.801 142.086 562.691 142.086 L 562.691 142.086 L 562.691 142.086 Q 578.078 142.086 584.908 148.154 L 584.908 148.154 L 584.908 148.154 Q 591.738 154.223 591.738 167.883 Z  M 647.344 151.785 L 647.344 151.785 L 647.344 121.316 L 665.625 121.316 L 665.625 200.332 L 647.344 200.332 L 647.344 192.105 L 647.344 192.105 Q 643.586 197.133 639.066 199.469 L 639.066 199.469 L 639.066 199.469 Q 634.547 201.805 628.605 201.805 L 628.605 201.805 L 628.605 201.805 Q 618.094 201.805 611.34 193.451 L 611.34 193.451 L 611.34 193.451 Q 604.586 185.098 604.586 171.945 L 604.586 171.945 L 604.586 171.945 Q 604.586 158.793 611.34 150.439 L 611.34 150.439 L 611.34 150.439 Q 618.094 142.086 628.605 142.086 L 628.605 142.086 L 628.605 142.086 Q 634.496 142.086 639.041 144.447 L 639.041 144.447 L 639.041 144.447 Q 643.586 146.809 647.344 151.785 Z  M 635.359 188.602 L 635.359 188.602 L 635.359 188.602 Q 641.199 188.602 644.271 184.336 L 644.271 184.336 L 644.271 184.336 Q 647.344 180.07 647.344 171.945 L 647.344 171.945 L 647.344 171.945 Q 647.344 163.82 644.271 159.555 L 644.271 159.555 L 644.271 159.555 Q 641.199 155.289 635.359 155.289 L 635.359 155.289 L 635.359 155.289 Q 629.57 155.289 626.498 159.555 L 626.498 159.555 L 626.498 159.555 Q 623.426 163.82 623.426 171.945 L 623.426 171.945 L 623.426 171.945 Q 623.426 180.07 626.498 184.336 L 626.498 184.336 L 626.498 184.336 Q 629.57 188.602 635.359 188.602 Z  M 739.867 171.742 L 739.867 171.742 L 739.867 176.922 L 697.363 176.922 L 697.363 176.922 Q 698.023 183.32 701.984 186.52 L 701.984 186.52 L 701.984 186.52 Q 705.945 189.719 713.055 189.719 L 713.055 189.719 L 713.055 189.719 Q 718.793 189.719 724.811 188.018 L 724.811 188.018 L 724.811 188.018 Q 730.828 186.316 737.176 182.863 L 737.176 182.863 L 737.176 196.879 L 737.176 196.879 Q 730.727 199.316 724.277 200.561 L 724.277 200.561 L 724.277 200.561 Q 717.828 201.805 711.379 201.805 L 711.379 201.805 L 711.379 201.805 Q 695.941 201.805 687.385 193.959 L 687.385 193.959 L 687.385 193.959 Q 678.828 186.113 678.828 171.945 L 678.828 171.945 L 678.828 171.945 Q 678.828 158.031 687.232 150.059 L 687.232 150.059 L 687.232 150.059 Q 695.637 142.086 710.363 142.086 L 710.363 142.086 L 710.363 142.086 Q 723.77 142.086 731.818 150.16 L 731.818 150.16 L 731.818 150.16 Q 739.867 158.234 739.867 171.742 Z  M 697.566 165.699 L 721.18 165.699 L 721.18 165.699 Q 721.18 160.52 718.158 157.346 L 718.158 157.346 L 718.158 157.346 Q 715.137 154.172 710.262 154.172 L 710.262 154.172 L 710.262 154.172 Q 704.98 154.172 701.68 157.143 L 701.68 157.143 L 701.68 157.143 Q 698.379 160.113 697.566 165.699 L 697.566 165.699 Z  M 241.297 48.496 L 234.289 48.496 L 234.289 94.758 L 241.297 94.758 L 241.297 94.758 Q 253.281 94.758 259.604 88.816 L 259.604 88.816 L 259.604 88.816 Q 265.926 82.875 265.926 71.551 L 265.926 71.551 L 265.926 71.551 Q 265.926 60.277 259.629 54.387 L 259.629 54.387 L 259.629 54.387 Q 253.332 48.496 241.297 48.496 L 241.297 48.496 Z  M 214.738 109.535 L 214.738 33.719 L 235.355 33.719 L 235.355 33.719 Q 252.621 33.719 261.076 36.182 L 261.076 36.182 L 261.076 36.182 Q 269.531 38.645 275.574 44.535 L 275.574 44.535 L 275.574 44.535 Q 280.906 49.664 283.496 56.367 L 283.496 56.367 L 283.496 56.367 Q 286.086 63.07 286.086 71.551 L 286.086 71.551 L 286.086 71.551 Q 286.086 80.133 283.496 86.861 L 283.496 86.861 L 283.496 86.861 Q 280.906 93.59 275.574 98.719 L 275.574 98.719 L 275.574 98.719 Q 269.48 104.609 260.949 107.072 L 260.949 107.072 L 260.949 107.072 Q 252.418 109.535 235.355 109.535 L 235.355 109.535 L 214.738 109.535 Z  M 327.32 64.289 L 327.32 64.289 L 327.32 64.289 Q 321.277 64.289 318.104 68.631 L 318.104 68.631 L 318.104 68.631 Q 314.93 72.973 314.93 81.148 L 314.93 81.148 L 314.93 81.148 Q 314.93 89.324 318.104 93.666 L 318.104 93.666 L 318.104 93.666 Q 321.277 98.008 327.32 98.008 L 327.32 98.008 L 327.32 98.008 Q 333.262 98.008 336.41 93.666 L 336.41 93.666 L 336.41 93.666 Q 339.559 89.324 339.559 81.148 L 339.559 81.148 L 339.559 81.148 Q 339.559 72.973 336.41 68.631 L 336.41 68.631 L 336.41 68.631 Q 333.262 64.289 327.32 64.289 Z  M 327.32 51.289 L 327.32 51.289 L 327.32 51.289 Q 341.996 51.289 350.248 59.211 L 350.248 59.211 L 350.248 59.211 Q 358.5 67.133 358.5 81.148 L 358.5 81.148 L 358.5 81.148 Q 358.5 95.164 350.248 103.086 L 350.248 103.086 L 350.248 103.086 Q 341.996 111.008 327.32 111.008 L 327.32 111.008 L 327.32 111.008 Q 312.594 111.008 304.291 103.086 L 304.291 103.086 L 304.291 103.086 Q 295.988 95.164 295.988 81.148 L 295.988 81.148 L 295.988 81.148 Q 295.988 67.133 304.291 59.211 L 304.291 59.211 L 304.291 59.211 Q 312.594 51.289 327.32 51.289 Z  M 381.605 109.535 L 366.625 52.66 L 384.297 52.66 L 393.844 91.863 L 403.441 52.66 L 418.625 52.66 L 428.172 91.457 L 437.77 52.66 L 455.441 52.66 L 440.461 109.535 L 420.605 109.535 L 411.008 70.434 L 401.461 109.535 L 381.605 109.535 Z  M 524.961 74.902 L 524.961 74.902 L 524.961 109.535 L 506.68 109.535 L 506.68 103.898 L 506.68 83.027 L 506.68 83.027 Q 506.68 75.664 506.35 72.871 L 506.35 72.871 L 506.35 72.871 Q 506.02 70.078 505.207 68.758 L 505.207 68.758 L 505.207 68.758 Q 504.141 66.98 502.313 65.99 L 502.313 65.99 L 502.313 65.99 Q 500.484 65 498.148 65 L 498.148 65 L 498.148 65 Q 492.461 65 489.211 69.393 L 489.211 69.393 L 489.211 69.393 Q 485.961 73.785 485.961 81.555 L 485.961 81.555 L 485.961 109.535 L 467.781 109.535 L 467.781 52.66 L 485.961 52.66 L 485.961 60.988 L 485.961 60.988 Q 490.074 56.012 494.695 53.65 L 494.695 53.65 L 494.695 53.65 Q 499.316 51.289 504.902 51.289 L 504.902 51.289 L 504.902 51.289 Q 514.754 51.289 519.857 57.332 L 519.857 57.332 L 519.857 57.332 Q 524.961 63.375 524.961 74.902 Z  M 541.82 109.535 L 541.82 30.52 L 560 30.52 L 560 109.535 L 541.82 109.535 Z  M 604.535 64.289 L 604.535 64.289 L 604.535 64.289 Q 598.492 64.289 595.318 68.631 L 595.318 68.631 L 595.318 68.631 Q 592.145 72.973 592.145 81.148 L 592.145 81.148 L 592.145 81.148 Q 592.145 89.324 595.318 93.666 L 595.318 93.666 L 595.318 93.666 Q 598.492 98.008 604.535 98.008 L 604.535 98.008 L 604.535 98.008 Q 610.477 98.008 613.625 93.666 L 613.625 93.666 L 613.625 93.666 Q 616.773 89.324 616.773 81.148 L 616.773 81.148 L 616.773 81.148 Q 616.773 72.973 613.625 68.631 L 613.625 68.631 L 613.625 68.631 Q 610.477 64.289 604.535 64.289 Z  M 604.535 51.289 L 604.535 51.289 L 604.535 51.289 Q 619.211 51.289 627.463 59.211 L 627.463 59.211 L 627.463 59.211 Q 635.715 67.133 635.715 81.148 L 635.715 81.148 L 635.715 81.148 Q 635.715 95.164 627.463 103.086 L 627.463 103.086 L 627.463 103.086 Q 619.211 111.008 604.535 111.008 L 604.535 111.008 L 604.535 111.008 Q 589.809 111.008 581.506 103.086 L 581.506 103.086 L 581.506 103.086 Q 573.203 95.164 573.203 81.148 L 573.203 81.148 L 573.203 81.148 Q 573.203 67.133 581.506 59.211 L 581.506 59.211 L 581.506 59.211 Q 589.809 51.289 604.535 51.289 Z  M 683.855 83.941 L 674.41 83.941 L 674.41 83.941 Q 668.723 83.941 665.854 85.871 L 665.854 85.871 L 665.854 85.871 Q 662.984 87.801 662.984 91.559 L 662.984 91.559 L 662.984 91.559 Q 662.984 95.012 665.295 96.967 L 665.295 96.967 L 665.295 96.967 Q 667.605 98.922 671.719 98.922 L 671.719 98.922 L 671.719 98.922 Q 676.848 98.922 680.352 95.24 L 680.352 95.24 L 680.352 95.24 Q 683.855 91.559 683.855 86.023 L 683.855 86.023 L 683.855 83.941 Z  M 702.188 77.086 L 702.188 77.086 L 702.188 109.535 L 683.855 109.535 L 683.855 101.105 L 683.855 101.105 Q 680.199 106.285 675.629 108.646 L 675.629 108.646 L 675.629 108.646 Q 671.059 111.008 664.508 111.008 L 664.508 111.008 L 664.508 111.008 Q 655.672 111.008 650.162 105.854 L 650.162 105.854 L 650.162 105.854 Q 644.652 100.699 644.652 92.473 L 644.652 92.473 L 644.652 92.473 Q 644.652 82.469 651.533 77.797 L 651.533 77.797 L 651.533 77.797 Q 658.414 73.125 673.141 73.125 L 673.141 73.125 L 683.855 73.125 L 683.855 71.703 L 683.855 71.703 Q 683.855 67.387 680.453 65.381 L 680.453 65.381 L 680.453 65.381 Q 677.051 63.375 669.84 63.375 L 669.84 63.375 L 669.84 63.375 Q 664 63.375 658.973 64.543 L 658.973 64.543 L 658.973 64.543 Q 653.945 65.711 649.629 68.047 L 649.629 68.047 L 649.629 54.184 L 649.629 54.184 Q 655.469 52.762 661.359 52.025 L 661.359 52.025 L 661.359 52.025 Q 667.25 51.289 673.141 51.289 L 673.141 51.289 L 673.141 51.289 Q 688.527 51.289 695.357 57.357 L 695.357 57.357 L 695.357 57.357 Q 702.188 63.426 702.188 77.086 Z  M 757.793 60.988 L 757.793 60.988 L 757.793 30.52 L 776.074 30.52 L 776.074 109.535 L 757.793 109.535 L 757.793 101.309 L 757.793 101.309 Q 754.035 106.336 749.516 108.672 L 749.516 108.672 L 749.516 108.672 Q 744.996 111.008 739.055 111.008 L 739.055 111.008 L 739.055 111.008 Q 728.543 111.008 721.789 102.654 L 721.789 102.654 L 721.789 102.654 Q 715.035 94.301 715.035 81.148 L 715.035 81.148 L 715.035 81.148 Q 715.035 67.996 721.789 59.643 L 721.789 59.643 L 721.789 59.643 Q 728.543 51.289 739.055 51.289 L 739.055 51.289 L 739.055 51.289 Q 744.945 51.289 749.49 53.65 L 749.49 53.65 L 749.49 53.65 Q 754.035 56.012 757.793 60.988 Z  M 745.809 97.805 L 745.809 97.805 L 745.809 97.805 Q 751.648 97.805 754.721 93.539 L 754.721 93.539 L 754.721 93.539 Q 757.793 89.273 757.793 81.148 L 757.793 81.148 L 757.793 81.148 Q 757.793 73.023 754.721 68.758 L 754.721 68.758 L 754.721 68.758 Q 751.648 64.492 745.809 64.492 L 745.809 64.492 L 745.809 64.492 Q 740.02 64.492 736.947 68.758 L 736.947 68.758 L 736.947 68.758 Q 733.875 73.023 733.875 81.148 L 733.875 81.148 L 733.875 81.148 Q 733.875 89.273 736.947 93.539 L 736.947 93.539 L 736.947 93.539 Q 740.02 97.805 745.809 97.805 Z " fill="rgb(52,117,215)"/></g></svg>