<?xml version="1.0" encoding="UTF-8" standalone="no"?><!-- Generator: Gravit.io --><svg xmlns="http://www.w3.org/2000/svg" xmlns:xlink="http://www.w3.org/1999/xlink" style="isolation:isolate" viewBox="0 0 992 250" width="992pt" height="250pt"><defs><clipPath id="_clipPath_lCiMXgHvRgI5gcYp5niHPYJxIlouYK9T"><rect width="992" height="250"/></clipPath></defs><g clip-path="url(#_clipPath_lCiMXgHvRgI5gcYp5niHPYJxIlouYK9T)"><path d=" M 280.617 114.223 L 280.617 114.223 L 280.617 114.223 Q 280.617 142.857 265.074 158.005 L 265.074 158.005 L 265.074 158.005 Q 249.53 173.153 220.342 173.153 L 220.342 173.153 L 188.306 173.153 L 188.306 57.507 L 223.743 57.507 L 223.743 57.507 Q 250.717 57.507 265.667 72.457 L 265.667 72.457 L 265.667 72.457 Q 280.617 87.407 280.617 114.223 Z  M 266.379 114.697 L 266.379 114.697 L 266.379 114.697 Q 266.379 92.074 255.028 80.604 L 255.028 80.604 L 255.028 80.604 Q 243.677 69.135 221.291 69.135 L 221.291 69.135 L 201.753 69.135 L 201.753 161.525 L 218.127 161.525 L 218.127 161.525 Q 242.174 161.525 254.276 149.7 L 254.276 149.7 L 254.276 149.7 Q 266.379 137.874 266.379 114.697 Z  M 343.978 84.876 L 343.978 84.876 L 343.978 84.876 Q 349.752 84.876 354.34 85.825 L 354.34 85.825 L 352.521 98.007 L 352.521 98.007 Q 347.142 96.82 343.028 96.82 L 343.028 96.82 L 343.028 96.82 Q 332.508 96.82 325.033 105.363 L 325.033 105.363 L 325.033 105.363 Q 317.558 113.906 317.558 126.642 L 317.558 126.642 L 317.558 173.153 L 304.427 173.153 L 304.427 86.458 L 315.264 86.458 L 316.767 102.516 L 317.399 102.516 L 317.399 102.516 Q 322.225 94.052 329.027 89.464 L 329.027 89.464 L 329.027 89.464 Q 335.83 84.876 343.978 84.876 Z  M 407.18 174.735 L 407.18 174.735 L 407.18 174.735 Q 387.958 174.735 376.844 163.028 L 376.844 163.028 L 376.844 163.028 Q 365.73 151.321 365.73 130.518 L 365.73 130.518 L 365.73 130.518 Q 365.73 109.556 376.053 97.216 L 376.053 97.216 L 376.053 97.216 Q 386.376 84.876 403.778 84.876 L 403.778 84.876 L 403.778 84.876 Q 420.073 84.876 429.565 95.594 L 429.565 95.594 L 429.565 95.594 Q 439.058 106.313 439.058 123.873 L 439.058 123.873 L 439.058 132.179 L 379.336 132.179 L 379.336 132.179 Q 379.731 147.445 387.048 155.355 L 387.048 155.355 L 387.048 155.355 Q 394.365 163.266 407.654 163.266 L 407.654 163.266 L 407.654 163.266 Q 421.655 163.266 435.34 157.412 L 435.34 157.412 L 435.34 169.119 L 435.34 169.119 Q 428.379 172.125 422.169 173.43 L 422.169 173.43 L 422.169 173.43 Q 415.96 174.735 407.18 174.735 Z  M 403.62 95.871 L 403.62 95.871 L 403.62 95.871 Q 393.179 95.871 386.969 102.674 L 386.969 102.674 L 386.969 102.674 Q 380.76 109.477 379.652 121.5 L 379.652 121.5 L 424.978 121.5 L 424.978 121.5 Q 424.978 109.081 419.44 102.476 L 419.44 102.476 L 419.44 102.476 Q 413.903 95.871 403.62 95.871 Z  M 524.487 173.153 L 514.758 173.153 L 512.147 160.813 L 511.515 160.813 L 511.515 160.813 Q 505.028 168.961 498.582 171.848 L 498.582 171.848 L 498.582 171.848 Q 492.135 174.735 482.484 174.735 L 482.484 174.735 L 482.484 174.735 Q 469.591 174.735 462.274 168.091 L 462.274 168.091 L 462.274 168.091 Q 454.957 161.446 454.957 149.186 L 454.957 149.186 L 454.957 149.186 Q 454.957 122.924 496.96 121.658 L 496.96 121.658 L 511.673 121.184 L 511.673 115.805 L 511.673 115.805 Q 511.673 105.601 507.283 100.736 L 507.283 100.736 L 507.283 100.736 Q 502.893 95.871 493.242 95.871 L 493.242 95.871 L 493.242 95.871 Q 482.405 95.871 468.721 102.516 L 468.721 102.516 L 464.687 92.47 L 464.687 92.47 Q 471.094 88.989 478.727 87.012 L 478.727 87.012 L 478.727 87.012 Q 486.36 85.034 494.033 85.034 L 494.033 85.034 L 494.033 85.034 Q 509.537 85.034 517.012 91.916 L 517.012 91.916 L 517.012 91.916 Q 524.487 98.798 524.487 113.985 L 524.487 113.985 L 524.487 173.153 Z  M 485.095 163.898 L 485.095 163.898 L 485.095 163.898 Q 497.355 163.898 504.356 157.175 L 504.356 157.175 L 504.356 157.175 Q 511.356 150.451 511.356 138.349 L 511.356 138.349 L 511.356 130.518 L 498.226 131.071 L 498.226 131.071 Q 482.563 131.625 475.642 135.936 L 475.642 135.936 L 475.642 135.936 Q 468.721 140.247 468.721 149.344 L 468.721 149.344 L 468.721 149.344 Q 468.721 156.463 473.032 160.181 L 473.032 160.181 L 473.032 160.181 Q 477.343 163.898 485.095 163.898 Z  M 675.176 173.153 L 662.045 173.153 L 662.045 116.754 L 662.045 116.754 Q 662.045 106.392 657.615 101.21 L 657.615 101.21 L 657.615 101.21 Q 653.186 96.029 643.852 96.029 L 643.852 96.029 L 643.852 96.029 Q 631.591 96.029 625.737 103.069 L 625.737 103.069 L 625.737 103.069 Q 619.884 110.109 619.884 124.743 L 619.884 124.743 L 619.884 173.153 L 606.753 173.153 L 606.753 116.754 L 606.753 116.754 Q 606.753 106.392 602.323 101.21 L 602.323 101.21 L 602.323 101.21 Q 597.894 96.029 588.48 96.029 L 588.48 96.029 L 588.48 96.029 Q 576.141 96.029 570.406 103.425 L 570.406 103.425 L 570.406 103.425 Q 564.671 110.821 564.671 127.67 L 564.671 127.67 L 564.671 173.153 L 551.54 173.153 L 551.54 86.458 L 562.219 86.458 L 564.354 98.323 L 564.987 98.323 L 564.987 98.323 Q 568.705 91.995 575.468 88.436 L 575.468 88.436 L 575.468 88.436 Q 582.231 84.876 590.616 84.876 L 590.616 84.876 L 590.616 84.876 Q 610.945 84.876 617.194 99.589 L 617.194 99.589 L 617.827 99.589 L 617.827 99.589 Q 621.703 92.786 629.06 88.831 L 629.06 88.831 L 629.06 88.831 Q 636.416 84.876 645.829 84.876 L 645.829 84.876 L 645.829 84.876 Q 660.542 84.876 667.859 92.43 L 667.859 92.43 L 667.859 92.43 Q 675.176 99.984 675.176 116.596 L 675.176 116.596 L 675.176 173.153 Z  M 736.875 174.735 L 736.875 174.735 L 736.875 174.735 Q 718.049 174.735 707.726 163.147 L 707.726 163.147 L 707.726 163.147 Q 697.403 151.559 697.403 130.359 L 697.403 130.359 L 697.403 130.359 Q 697.403 108.606 707.884 96.741 L 707.884 96.741 L 707.884 96.741 Q 718.365 84.876 737.745 84.876 L 737.745 84.876 L 737.745 84.876 Q 743.994 84.876 750.243 86.221 L 750.243 86.221 L 750.243 86.221 Q 756.492 87.565 760.052 89.385 L 760.052 89.385 L 756.018 100.538 L 756.018 100.538 Q 751.667 98.798 746.525 97.651 L 746.525 97.651 L 746.525 97.651 Q 741.384 96.504 737.429 96.504 L 737.429 96.504 L 737.429 96.504 Q 711.009 96.504 711.009 130.201 L 711.009 130.201 L 711.009 130.201 Q 711.009 146.18 717.456 154.723 L 717.456 154.723 L 717.456 154.723 Q 723.902 163.266 736.559 163.266 L 736.559 163.266 L 736.559 163.266 Q 747.396 163.266 758.786 158.599 L 758.786 158.599 L 758.786 170.227 L 758.786 170.227 Q 750.085 174.735 736.875 174.735 Z  M 842.396 173.153 L 832.667 173.153 L 830.057 160.813 L 829.424 160.813 L 829.424 160.813 Q 822.938 168.961 816.491 171.848 L 816.491 171.848 L 816.491 171.848 Q 810.044 174.735 800.394 174.735 L 800.394 174.735 L 800.394 174.735 Q 787.5 174.735 780.183 168.091 L 780.183 168.091 L 780.183 168.091 Q 772.866 161.446 772.866 149.186 L 772.866 149.186 L 772.866 149.186 Q 772.866 122.924 814.869 121.658 L 814.869 121.658 L 829.582 121.184 L 829.582 115.805 L 829.582 115.805 Q 829.582 105.601 825.192 100.736 L 825.192 100.736 L 825.192 100.736 Q 820.802 95.871 811.151 95.871 L 811.151 95.871 L 811.151 95.871 Q 800.314 95.871 786.63 102.516 L 786.63 102.516 L 782.596 92.47 L 782.596 92.47 Q 789.003 88.989 796.636 87.012 L 796.636 87.012 L 796.636 87.012 Q 804.27 85.034 811.942 85.034 L 811.942 85.034 L 811.942 85.034 Q 827.446 85.034 834.921 91.916 L 834.921 91.916 L 834.921 91.916 Q 842.396 98.798 842.396 113.985 L 842.396 113.985 L 842.396 173.153 Z  M 803.004 163.898 L 803.004 163.898 L 803.004 163.898 Q 815.265 163.898 822.265 157.175 L 822.265 157.175 L 822.265 157.175 Q 829.266 150.451 829.266 138.349 L 829.266 138.349 L 829.266 130.518 L 816.135 131.071 L 816.135 131.071 Q 800.473 131.625 793.551 135.936 L 793.551 135.936 L 793.551 135.936 Q 786.63 140.247 786.63 149.344 L 786.63 149.344 L 786.63 149.344 Q 786.63 156.463 790.941 160.181 L 790.941 160.181 L 790.941 160.181 Q 795.252 163.898 803.004 163.898 Z  M 925.374 149.502 L 925.374 149.502 L 925.374 149.502 Q 925.374 161.604 916.356 168.17 L 916.356 168.17 L 916.356 168.17 Q 907.339 174.735 891.044 174.735 L 891.044 174.735 L 891.044 174.735 Q 873.8 174.735 864.149 169.277 L 864.149 169.277 L 864.149 157.096 L 864.149 157.096 Q 870.398 160.26 877.557 162.079 L 877.557 162.079 L 877.557 162.079 Q 884.716 163.898 891.36 163.898 L 891.36 163.898 L 891.36 163.898 Q 901.644 163.898 907.181 160.616 L 907.181 160.616 L 907.181 160.616 Q 912.718 157.333 912.718 150.609 L 912.718 150.609 L 912.718 150.609 Q 912.718 145.547 908.328 141.948 L 908.328 141.948 L 908.328 141.948 Q 903.938 138.349 891.202 133.444 L 891.202 133.444 L 891.202 133.444 Q 879.1 128.936 873.998 125.574 L 873.998 125.574 L 873.998 125.574 Q 868.896 122.212 866.404 117.94 L 866.404 117.94 L 866.404 117.94 Q 863.912 113.669 863.912 107.736 L 863.912 107.736 L 863.912 107.736 Q 863.912 97.137 872.534 91.006 L 872.534 91.006 L 872.534 91.006 Q 881.156 84.876 896.186 84.876 L 896.186 84.876 L 896.186 84.876 Q 910.187 84.876 923.555 90.571 L 923.555 90.571 L 918.888 101.25 L 918.888 101.25 Q 905.836 95.871 895.236 95.871 L 895.236 95.871 L 895.236 95.871 Q 885.902 95.871 881.156 98.798 L 881.156 98.798 L 881.156 98.798 Q 876.41 101.725 876.41 106.866 L 876.41 106.866 L 876.41 106.866 Q 876.41 110.347 878.19 112.799 L 878.19 112.799 L 878.19 112.799 Q 879.97 115.251 883.925 117.466 L 883.925 117.466 L 883.925 117.466 Q 887.88 119.681 899.112 123.873 L 899.112 123.873 L 899.112 123.873 Q 914.537 129.489 919.956 135.185 L 919.956 135.185 L 919.956 135.185 Q 925.374 140.88 925.374 149.502 Z  M 974.733 163.898 L 974.733 163.898 L 974.733 163.898 Q 978.214 163.898 981.457 163.384 L 981.457 163.384 L 981.457 163.384 Q 984.7 162.87 986.599 162.316 L 986.599 162.316 L 986.599 172.362 L 986.599 172.362 Q 984.463 173.391 980.31 174.063 L 980.31 174.063 L 980.31 174.063 Q 976.157 174.735 972.835 174.735 L 972.835 174.735 L 972.835 174.735 Q 947.681 174.735 947.681 148.236 L 947.681 148.236 L 947.681 96.662 L 935.262 96.662 L 935.262 90.334 L 947.681 84.876 L 953.218 66.366 L 960.812 66.366 L 960.812 86.458 L 985.966 86.458 L 985.966 96.662 L 960.812 96.662 L 960.812 147.683 L 960.812 147.683 Q 960.812 155.514 964.529 159.706 L 964.529 159.706 L 964.529 159.706 Q 968.247 163.898 974.733 163.898 Z " fill="rgb(234,234,234)"/><path d=" M 84.36 132.09 C 85.86 131.82 87.41 132.16 88.66 133.03 C 89.91 133.9 90.77 135.24 91.03 136.74 C 91.3 138.24 90.97 139.78 90.09 141.04 C 89.22 142.29 87.89 143.14 86.39 143.41 C 85.03 143.65 83.65 143.78 82.26 143.78 C 77.84 143.79 73.5 142.54 69.76 140.18 C 68.04 139.11 66.49 137.78 65.17 136.24 C 63.82 134.68 62.79 132.88 62.15 130.93 C 61.52 128.98 61.2 126.94 61.19 124.89 C 61.2 122.19 61.76 119.52 62.82 117.04 C 63.83 114.67 65.24 112.49 66.99 110.59 C 68.7 108.71 70.7 107.11 72.89 105.83 C 75.12 104.54 77.53 103.6 80.05 103.06 C 81.86 102.67 83.72 102.47 85.57 102.47 C 89.15 102.48 92.69 103.21 95.98 104.61 C 99.16 105.97 102.08 107.87 104.59 110.24 C 107.11 112.59 109.22 115.33 110.85 118.36 C 112.51 121.44 113.65 124.77 114.2 128.23 C 114.48 129.96 114.62 131.72 114.62 133.48 C 114.61 137.95 113.71 142.37 111.96 146.49 C 110.26 150.48 107.85 154.13 104.86 157.27 C 101.88 160.41 98.39 163.03 94.54 165.01 C 90.62 167.05 86.36 168.37 81.98 168.94 C 80.3 169.15 78.6 169.26 76.91 169.26 C 71.54 169.25 66.22 168.17 61.28 166.07 C 56.48 164.02 52.09 161.12 48.33 157.5 C 44.56 153.89 41.43 149.66 39.1 144.99 C 36.7 140.22 35.19 135.06 34.62 129.75 C 34.44 128.11 34.35 126.45 34.35 124.8 C 34.36 118.53 35.63 112.32 38.09 106.55 C 40.48 100.94 43.88 95.81 48.12 91.43 C 52.36 87.03 57.33 83.4 62.82 80.71 C 68.43 77.96 74.5 76.25 80.72 75.68 C 82.34 75.53 83.96 75.46 85.58 75.46 C 92.76 75.46 99.86 76.92 106.46 79.73 C 112.88 82.47 118.74 86.37 123.75 91.23 C 128.78 96.1 132.91 101.81 135.95 108.12 C 139.07 114.57 140.96 121.54 141.54 128.68 C 141.66 130.27 141.73 131.87 141.73 133.46 C 141.72 141.54 140.08 149.54 136.92 156.97 C 133.83 164.21 129.43 170.81 123.94 176.44 C 118.45 182.09 111.99 186.73 104.88 190.11 C 97.59 193.59 89.71 195.67 81.66 196.25 C 80.08 196.36 78.51 196.42 76.93 196.42 C 67.94 196.41 59.05 194.59 50.79 191.06 C 42.75 187.63 35.41 182.73 29.15 176.61 C 22.87 170.5 17.74 163.3 14 155.37 C 10.16 147.25 7.9 138.47 7.32 129.51 C 7.22 127.95 7.17 126.39 7.17 124.82 C 7.18 114.93 9.18 105.15 13.06 96.05 C 16.85 87.2 22.25 79.12 28.98 72.25 C 35.72 65.34 43.66 59.7 52.4 55.62 C 61.36 51.42 71.04 48.97 80.91 48.38 C 82.46 48.29 84.01 48.25 85.56 48.25 C 96.35 48.26 107.04 50.45 116.96 54.69 C 126.63 58.82 135.44 64.72 142.94 72.08 C 150.48 79.44 156.61 88.12 161.05 97.67 C 165.6 107.47 168.24 118.04 168.82 128.83 C 168.91 130.35 168.38 131.84 167.36 132.98 C 166.34 134.11 164.92 134.8 163.39 134.88 C 161.87 134.96 160.38 134.44 159.24 133.42 C 158.11 132.4 157.42 130.97 157.34 129.45 C 156.84 120.13 154.55 110.98 150.62 102.52 C 146.77 94.22 141.44 86.69 134.89 80.3 C 128.41 73.93 120.8 68.83 112.45 65.26 C 103.94 61.63 94.8 59.76 85.56 59.75 C 84.23 59.75 82.91 59.79 81.58 59.86 C 73.16 60.36 64.91 62.45 57.27 66.03 C 49.78 69.53 42.98 74.36 37.21 80.28 C 31.47 86.14 26.86 93.02 23.64 100.57 C 20.37 108.24 18.68 116.49 18.67 124.83 C 18.67 126.14 18.71 127.46 18.79 128.77 C 19.28 136.29 21.18 143.65 24.4 150.47 C 27.55 157.16 31.88 163.22 37.18 168.38 C 42.42 173.5 48.57 177.61 55.3 180.49 C 62.14 183.4 69.5 184.91 76.93 184.92 C 78.24 184.92 79.54 184.87 80.84 184.78 C 87.46 184.3 93.94 182.59 99.93 179.73 C 105.82 176.93 111.15 173.1 115.69 168.42 C 120.19 163.8 123.8 158.39 126.34 152.46 C 128.9 146.45 130.22 139.99 130.23 133.46 C 130.23 132.17 130.18 130.88 130.07 129.6 C 129.61 123.87 128.09 118.28 125.59 113.11 C 123.14 108.03 119.81 103.42 115.75 99.49 C 111.75 95.61 107.08 92.5 101.95 90.31 C 96.77 88.1 91.2 86.96 85.57 86.96 C 84.31 86.96 83.04 87.01 81.77 87.13 C 76.94 87.57 72.24 88.9 67.88 91.04 C 63.6 93.14 59.71 95.97 56.4 99.41 C 53.13 102.79 50.51 106.74 48.67 111.06 C 46.82 115.41 45.86 120.08 45.85 124.81 C 45.85 126.05 45.92 127.29 46.05 128.53 C 46.47 132.47 47.6 136.3 49.38 139.84 C 51.13 143.33 53.46 146.5 56.29 149.2 C 59.05 151.85 62.27 153.98 65.79 155.49 C 69.31 156.98 73.09 157.76 76.92 157.76 C 78.12 157.76 79.32 157.69 80.52 157.53 C 83.57 157.14 86.53 156.21 89.27 154.8 C 91.98 153.4 94.43 151.56 96.53 149.35 C 98.57 147.2 100.21 144.71 101.38 141.98 C 102.52 139.29 103.12 136.4 103.12 133.47 C 103.12 132.32 103.03 131.18 102.85 130.05 C 102.5 127.87 101.78 125.77 100.73 123.83 C 99.69 121.89 98.33 120.13 96.73 118.63 C 95.19 117.18 93.41 116.02 91.47 115.19 C 89.6 114.39 87.59 113.98 85.56 113.97 C 84.52 113.98 83.48 114.09 82.45 114.3 C 81.13 114.59 79.85 115.09 78.68 115.77 C 77.48 116.46 76.4 117.34 75.47 118.36 C 74.6 119.3 73.89 120.39 73.39 121.57 C 72.94 122.62 72.7 123.76 72.69 124.9 C 72.7 125.73 72.83 126.56 73.07 127.35 C 73.25 127.85 73.52 128.31 73.87 128.71 C 74.45 129.39 75.12 129.98 75.88 130.45 C 77.78 131.65 79.99 132.29 82.25 132.28 C 82.96 132.28 83.66 132.22 84.36 132.09 Z " fill="rgb(179,32,32)"/></g></svg>