<?xml version="1.0" encoding="UTF-8" standalone="no"?><!-- Generator: Gravit.io --><svg xmlns="http://www.w3.org/2000/svg" xmlns:xlink="http://www.w3.org/1999/xlink" style="isolation:isolate" viewBox="0 0 992 250" width="992pt" height="250pt"><defs><clipPath id="_clipPath_JiLdySbUi2kYTWKWQgIOW2Lr4BWgGVrs"><rect width="992" height="250"/></clipPath></defs><g clip-path="url(#_clipPath_JiLdySbUi2kYTWKWQgIOW2Lr4BWgGVrs)"><path d=" M 164.046 33 L 810 33 L 854 167 L 123 167 L 164.046 33 Z " fill="rgb(0,0,0)"/><path d=" M 422.41 150.255 L 581.59 150.255 C 592.596 150.255 601.531 159.19 601.531 170.195 L 601.531 205.06 C 601.531 216.065 592.596 225 581.59 225 L 422.41 225 C 411.404 225 402.469 216.065 402.469 205.06 L 402.469 170.195 C 402.469 159.19 411.404 150.255 422.41 150.255 Z " fill="rgb(0,0,0)"/><path d=" M 464.818 188.105 L 464.818 188.105 L 464.818 188.105 Q 474.025 189.474 478.812 192.862 L 478.812 192.862 L 478.812 192.862 Q 483.599 196.25 483.599 201.482 L 483.599 201.482 L 483.599 201.482 Q 483.599 209.277 473.233 213.332 L 473.233 213.332 L 473.233 213.332 Q 462.867 217.387 442.988 217.387 L 442.988 217.387 L 442.988 217.387 Q 435.976 217.387 428.933 216.738 L 428.933 216.738 L 428.933 216.738 Q 421.89 216.088 415 214.789 L 415 214.789 L 415 204.361 L 415 204.361 Q 421.585 206.257 428.079 207.223 L 428.079 207.223 L 428.079 207.223 Q 434.574 208.188 440.854 208.188 L 440.854 208.188 L 440.854 208.188 Q 450.184 208.188 455.153 206.327 L 455.153 206.327 L 455.153 206.327 Q 460.123 204.466 460.123 200.99 L 460.123 200.99 L 460.123 200.99 Q 460.123 197.409 455.031 195.566 L 455.031 195.566 L 455.031 195.566 Q 449.94 193.722 440 193.722 L 440 193.722 L 430.61 193.722 L 430.61 185.015 L 440.488 185.015 L 440.488 185.015 Q 449.33 185.015 453.659 183.417 L 453.659 183.417 L 453.659 183.417 Q 457.989 181.82 457.989 178.554 L 457.989 178.554 L 457.989 178.554 Q 457.989 175.535 453.781 173.885 L 453.781 173.885 L 453.781 173.885 Q 449.574 172.234 441.891 172.234 L 441.891 172.234 L 441.891 172.234 Q 436.22 172.234 430.427 172.972 L 430.427 172.972 L 430.427 172.972 Q 424.634 173.709 418.903 175.149 L 418.903 175.149 L 418.903 165.247 L 418.903 165.247 Q 425.854 164.124 432.683 163.562 L 432.683 163.562 L 432.683 163.562 Q 439.513 163 446.098 163 L 446.098 163 L 446.098 163 Q 463.842 163 472.653 166.353 L 472.653 166.353 L 472.653 166.353 Q 481.465 169.706 481.465 176.448 L 481.465 176.448 L 481.465 176.448 Q 481.465 181.047 477.257 183.979 L 477.257 183.979 L 477.257 183.979 Q 473.05 186.911 464.818 188.105 Z  M 540.267 174.165 L 531.853 174.165 L 531.853 206.152 L 540.267 206.152 L 540.267 206.152 Q 554.658 206.152 562.25 202.044 L 562.25 202.044 L 562.25 202.044 Q 569.841 197.936 569.841 190.106 L 569.841 190.106 L 569.841 190.106 Q 569.841 182.311 562.28 178.238 L 562.28 178.238 L 562.28 178.238 Q 554.719 174.165 540.267 174.165 L 540.267 174.165 Z  M 508.377 216.369 L 508.377 163.948 L 533.133 163.948 L 533.133 163.948 Q 553.865 163.948 564.018 165.651 L 564.018 165.651 L 564.018 165.651 Q 574.17 167.354 581.427 171.427 L 581.427 171.427 L 581.427 171.427 Q 587.829 174.973 590.939 179.608 L 590.939 179.608 L 590.939 179.608 Q 594.049 184.242 594.049 190.106 L 594.049 190.106 L 594.049 190.106 Q 594.049 196.04 590.939 200.692 L 590.939 200.692 L 590.939 200.692 Q 587.829 205.344 581.427 208.89 L 581.427 208.89 L 581.427 208.89 Q 574.109 212.963 563.865 214.666 L 563.865 214.666 L 563.865 214.666 Q 553.621 216.369 533.133 216.369 L 533.133 216.369 L 508.377 216.369 Z " fill="rgb(229,89,0)"/><path d=" M 169.046 36.91 L 199.396 37 C 205.374 37.018 209.837 38.37 212.799 41.069 C 215.806 43.781 217.874 47.692 218.999 52.829 C 220.134 58.017 220.39 64.115 219.749 71.155 C 219.101 78.291 217.77 85.957 215.74 94.176 C 212.496 107.31 209.047 117.733 205.416 125.28 C 201.781 132.873 197.712 139.341 193.215 144.642 C 188.69 149.933 184.355 153.489 180.231 155.275 C 174.566 157.749 169.686 158.989 165.611 158.989 L 131.586 158.987 L 169.046 36.91 Z  M 182.231 62.254 L 163.16 128.767 L 168.619 128.771 C 173.274 128.775 176.835 127.865 179.296 126.048 C 181.765 124.178 184.161 120.978 186.479 116.47 C 188.792 111.942 191.272 104.712 193.897 94.887 C 197.299 82.151 198.4 73.603 197.266 69.047 C 196.141 64.529 192.873 62.279 187.452 62.266 L 182.231 62.254 Z  M 278.021 37.233 L 298.304 37.293 L 285.88 106.501 C 284.555 113.882 282.621 120.957 280.069 127.713 C 277.528 134.495 274.335 140.519 270.487 145.762 C 266.647 150.993 262.921 154.702 259.328 156.859 C 254.306 159.894 248.676 161.418 242.456 161.418 C 238.858 161.418 235.023 160.951 230.957 160.018 C 226.93 159.086 223.8 157.258 221.571 154.542 C 219.366 151.777 217.667 147.898 216.475 142.929 C 215.327 138.002 214.946 132.971 215.323 127.838 C 215.918 119.676 216.959 112.547 218.442 106.413 L 235.192 37.106 L 255.516 37.166 L 239.766 108.223 C 238.25 115.061 238.12 120.479 239.396 124.433 C 240.726 128.357 243.325 130.331 247.185 130.334 C 251.011 130.336 254.4 128.397 257.336 124.537 C 260.295 120.646 262.467 115.202 263.853 108.253 L 278.021 37.233 Z  M 306.465 37.317 L 326.766 37.377 L 320.286 80.152 L 348.031 37.44 L 374.95 37.519 L 345.631 80.12 L 363.512 159 L 335.57 158.999 L 327.614 105.627 L 313.237 126.687 L 308.342 158.997 L 285.601 158.996 L 306.465 37.317 Z  M 377.319 37.527 L 431.494 37.687 L 430.348 61.366 L 395.658 61.283 L 394.156 79.653 L 426.907 79.717 L 425.661 104.245 L 392.149 104.199 L 390.119 129.031 L 428.141 129.061 L 426.721 159.004 L 364.963 159 L 377.319 37.527 Z  M 463.202 37.781 L 482.017 37.837 L 508.163 101.517 L 506.544 37.909 L 525.498 37.965 L 530.835 159.01 L 509.627 159.009 L 482.225 89.115 L 482.326 159.007 L 461.118 159.006 L 463.202 37.781 Z  M 575.794 38.114 L 595.79 38.174 L 603.573 106.918 C 604.402 114.244 604.544 121.267 603.984 127.974 C 603.443 134.704 602.042 140.683 599.77 145.884 C 597.503 151.075 594.909 154.755 591.996 156.896 C 587.931 159.906 582.831 161.418 576.71 161.418 C 573.168 161.418 569.259 160.954 564.988 160.029 C 560.755 159.104 557.146 157.291 554.166 154.596 C 551.195 151.853 548.401 148.005 545.79 143.074 C 543.233 138.185 541.402 133.192 540.287 128.097 C 538.509 119.996 537.47 112.92 537.153 106.83 L 533.571 37.989 L 553.608 38.049 L 558.671 108.627 C 559.158 115.415 560.598 120.794 562.998 124.719 C 565.443 128.613 568.572 130.572 572.373 130.574 C 576.14 130.576 578.915 128.653 580.688 124.821 C 582.476 120.959 583.039 115.556 582.394 108.657 L 575.794 38.114 Z  M 603.836 38.197 L 623.849 38.257 L 629.833 80.752 L 644.814 38.319 L 671.353 38.397 L 654.781 80.721 L 695.151 159.02 L 667.649 159.018 L 644.409 106.049 L 636.338 126.954 L 640.852 159.017 L 618.47 159.015 L 603.836 38.197 Z  M 673.688 38.404 L 727.099 38.562 L 732.799 62.09 L 698.609 62.008 L 702.431 80.255 L 734.701 80.319 L 740.544 104.676 L 707.536 104.63 L 712.698 129.281 L 750.136 129.31 L 757.363 159.023 L 696.579 159.019 L 673.688 38.404 Z  M 733.294 38.581 L 759.457 38.658 L 789.416 108.668 L 779.584 38.718 L 805.601 38.795 L 844 159.028 L 825.899 159.027 L 797.347 64.938 L 811.847 159.026 L 795.434 159.026 L 756.513 64.843 L 781.411 159.025 L 763.205 159.024 L 733.294 38.581 Z " fill-rule="evenodd" fill="rgb(254,176,0)"/></g></svg>