<?xml version="1.0" encoding="UTF-8" standalone="no"?><!-- Generator: Gravit.io --><svg xmlns="http://www.w3.org/2000/svg" xmlns:xlink="http://www.w3.org/1999/xlink" style="isolation:isolate" viewBox="0 0 992 250" width="992pt" height="250pt"><defs><clipPath id="_clipPath_nlXWoVbrNwS3yNHEaA6MgoLz0fa7Bp12"><rect width="992" height="250"/></clipPath></defs><g clip-path="url(#_clipPath_nlXWoVbrNwS3yNHEaA6MgoLz0fa7Bp12)"><path d=" M 316.867 0 L 675.133 0 C 743.786 0 799.524 55.738 799.524 124.392 L 799.524 125.608 C 799.524 194.262 743.786 250 675.133 250 L 316.867 250 C 248.214 250 192.476 194.262 192.476 125.608 L 192.476 124.392 C 192.476 55.738 248.214 0 316.867 0 Z " fill="rgb(219,219,219)"/><path d=" M 321.273 6.75 L 670.727 6.75 C 736.418 6.75 789.75 59.736 789.75 125 L 789.75 125 C 789.75 190.264 736.418 243.25 670.727 243.25 L 321.273 243.25 C 255.582 243.25 202.25 190.264 202.25 125 L 202.25 125 C 202.25 59.736 255.582 6.75 321.273 6.75 Z " fill="rgb(0,0,0)"/><path d=" M 321.65 8.768 L 670.35 8.768 C 735.283 8.768 788 60.85 788 125 L 788 125 C 788 189.15 735.283 241.232 670.35 241.232 L 321.65 241.232 C 256.717 241.232 204 189.15 204 125 L 204 125 C 204 60.85 256.717 8.768 321.65 8.768 Z " fill="rgb(71,115,162)"/><path d=" M 361.976 73.644 L 361.976 103.452 L 343.832 103.452 L 343.832 26.34 L 388.652 26.34 L 388.652 41.244 L 361.976 41.244 L 361.976 58.74 L 386.708 58.74 L 386.708 73.644 L 361.976 73.644 Z  M 434.552 92.976 L 434.552 103.452 L 397.076 103.452 L 397.076 92.976 L 406.58 88.98 L 406.58 40.812 L 397.076 36.816 L 397.076 26.34 L 434.552 26.34 L 434.552 36.816 L 425.048 40.812 L 425.048 88.98 L 434.552 92.976 Z  M 517.928 26.34 L 517.928 103.452 L 494.168 103.452 L 463.064 46.968 L 462.632 46.968 L 462.632 46.968 Q 462.848 51.612 463.118 57.282 L 463.118 57.282 L 463.118 57.282 Q 463.388 62.952 463.604 67.812 L 463.604 67.812 L 463.604 103.452 L 447.188 103.452 L 447.188 26.34 L 470.84 26.34 L 501.836 82.176 L 502.16 82.176 L 502.16 82.176 Q 501.944 77.532 501.728 72.186 L 501.728 72.186 L 501.728 72.186 Q 501.512 66.84 501.404 62.088 L 501.404 62.088 L 501.404 26.34 L 517.928 26.34 Z  M 603.356 103.452 L 583.268 103.452 L 578.516 86.928 L 551.84 86.928 L 547.088 103.452 L 527 103.452 L 553.244 26.016 L 576.788 26.016 L 603.356 103.452 Z  M 574.412 71.592 L 569.876 56.148 L 569.876 56.148 Q 569.336 54.204 568.418 50.91 L 568.418 50.91 L 568.418 50.91 Q 567.5 47.616 566.582 44.16 L 566.582 44.16 L 566.582 44.16 Q 565.664 40.704 565.124 38.328 L 565.124 38.328 L 565.124 38.328 Q 564.692 40.704 563.774 44.214 L 563.774 44.214 L 563.774 44.214 Q 562.856 47.724 561.992 51.018 L 561.992 51.018 L 561.992 51.018 Q 561.128 54.312 560.588 56.148 L 560.588 56.148 L 556.052 71.592 L 574.412 71.592 Z  M 661.352 103.452 L 612.428 103.452 L 612.428 26.34 L 630.788 26.34 L 630.788 88.44 L 661.352 88.44 L 661.352 103.452 Z " fill="rgb(0,0,0)"/><path d=" M 347.392 108.34 L 372.664 108.34 L 372.664 108.34 Q 388.756 108.34 396.316 112.984 L 396.316 112.984 L 396.316 112.984 Q 403.876 117.628 403.876 127.78 L 403.876 127.78 L 403.876 127.78 Q 403.876 134.8 400.366 139.174 L 400.366 139.174 L 400.366 139.174 Q 396.856 143.548 391.888 144.52 L 391.888 144.52 L 391.888 145.06 L 391.888 145.06 Q 395.344 145.816 398.476 147.706 L 398.476 147.706 L 398.476 147.706 Q 401.608 149.596 403.606 153.268 L 403.606 153.268 L 403.606 153.268 Q 405.604 156.94 405.604 162.988 L 405.604 162.988 L 405.604 162.988 Q 405.604 173.572 397.882 179.512 L 397.882 179.512 L 397.882 179.512 Q 390.16 185.452 376.768 185.452 L 376.768 185.452 L 347.392 185.452 L 347.392 108.34 Z  M 365.752 138.472 L 373.852 138.472 L 373.852 138.472 Q 380.008 138.472 382.492 136.258 L 382.492 136.258 L 382.492 136.258 Q 384.976 134.044 384.976 130.264 L 384.976 130.264 L 384.976 130.264 Q 384.976 122.812 373.096 122.812 L 373.096 122.812 L 365.752 122.812 L 365.752 138.472 Z  M 374.5 152.512 L 365.752 152.512 L 365.752 170.764 L 374.932 170.764 L 374.932 170.764 Q 381.412 170.764 383.95 168.172 L 383.95 168.172 L 383.95 168.172 Q 386.488 165.58 386.488 161.368 L 386.488 161.368 L 386.488 161.368 Q 386.488 157.588 383.896 155.05 L 383.896 155.05 L 383.896 155.05 Q 381.304 152.512 374.5 152.512 L 374.5 152.512 Z  M 484.12 108.34 L 484.12 156.616 L 484.12 156.616 Q 484.12 165.472 480.502 172.168 L 480.502 172.168 L 480.502 172.168 Q 476.884 178.864 469.702 182.698 L 469.702 182.698 L 469.702 182.698 Q 462.52 186.532 451.504 186.532 L 451.504 186.532 L 451.504 186.532 Q 435.952 186.532 427.744 178.54 L 427.744 178.54 L 427.744 178.54 Q 419.536 170.548 419.536 156.724 L 419.536 156.724 L 419.536 108.34 L 438.004 108.34 L 438.004 154.672 L 438.004 154.672 Q 438.004 163.528 441.514 167.308 L 441.514 167.308 L 441.514 167.308 Q 445.024 171.088 451.936 171.088 L 451.936 171.088 L 451.936 171.088 Q 459.172 171.088 462.466 167.146 L 462.466 167.146 L 462.466 167.146 Q 465.76 163.204 465.76 154.564 L 465.76 154.564 L 465.76 108.34 L 484.12 108.34 Z  M 501.724 108.34 L 525.484 108.34 L 525.484 108.34 Q 556.588 108.34 556.588 131.344 L 556.588 131.344 L 556.588 131.344 Q 556.588 138.796 552.646 143.872 L 552.646 143.872 L 552.646 143.872 Q 548.704 148.948 542.764 151.864 L 542.764 151.864 L 565.336 185.452 L 544.708 185.452 L 527.32 156.508 L 520.084 156.508 L 520.084 185.452 L 501.724 185.452 L 501.724 108.34 Z  M 524.728 122.812 L 524.728 122.812 L 520.084 122.812 L 520.084 142.144 L 524.728 142.144 L 524.728 142.144 Q 531.316 142.144 534.61 139.714 L 534.61 139.714 L 534.61 139.714 Q 537.904 137.284 537.904 131.992 L 537.904 131.992 L 537.904 131.992 Q 537.904 127.348 534.772 125.08 L 534.772 125.08 L 534.772 125.08 Q 531.64 122.812 524.728 122.812 Z  M 644.608 108.34 L 644.608 185.452 L 620.848 185.452 L 589.744 128.968 L 589.312 128.968 L 589.312 128.968 Q 589.528 133.612 589.798 139.282 L 589.798 139.282 L 589.798 139.282 Q 590.068 144.952 590.284 149.812 L 590.284 149.812 L 590.284 185.452 L 573.868 185.452 L 573.868 108.34 L 597.52 108.34 L 628.516 164.176 L 628.84 164.176 L 628.84 164.176 Q 628.624 159.532 628.408 154.186 L 628.408 154.186 L 628.408 154.186 Q 628.192 148.84 628.084 144.088 L 628.084 144.088 L 628.084 108.34 L 644.608 108.34 Z " fill="rgb(0,0,0)"/><path d=" M 480.12 191.3 L 480.12 234.14 L 466.92 234.14 L 449.64 202.76 L 449.4 202.76 L 449.4 202.76 Q 449.52 205.34 449.67 208.49 L 449.67 208.49 L 449.67 208.49 Q 449.82 211.64 449.94 214.34 L 449.94 214.34 L 449.94 234.14 L 440.82 234.14 L 440.82 191.3 L 453.96 191.3 L 471.18 222.32 L 471.36 222.32 L 471.36 222.32 Q 471.24 219.74 471.12 216.77 L 471.12 216.77 L 471.12 216.77 Q 471 213.8 470.94 211.16 L 470.94 211.16 L 470.94 191.3 L 480.12 191.3 Z  M 515.22 225.74 L 515.22 234.14 L 490.2 234.14 L 490.2 191.3 L 515.22 191.3 L 515.22 199.58 L 500.4 199.58 L 500.4 207.8 L 514.14 207.8 L 514.14 216.08 L 500.4 216.08 L 500.4 225.74 L 515.22 225.74 Z  M 562.92 212.66 L 562.92 212.66 L 562.92 212.66 Q 562.92 219.32 560.76 224.27 L 560.76 224.27 L 560.76 224.27 Q 558.6 229.22 554.04 231.98 L 554.04 231.98 L 554.04 231.98 Q 549.48 234.74 542.34 234.74 L 542.34 234.74 L 542.34 234.74 Q 535.26 234.74 530.7 231.98 L 530.7 231.98 L 530.7 231.98 Q 526.14 229.22 523.95 224.24 L 523.95 224.24 L 523.95 224.24 Q 521.76 219.26 521.76 212.6 L 521.76 212.6 L 521.76 212.6 Q 521.76 205.94 523.95 201.02 L 523.95 201.02 L 523.95 201.02 Q 526.14 196.1 530.7 193.37 L 530.7 193.37 L 530.7 193.37 Q 535.26 190.64 542.4 190.64 L 542.4 190.64 L 542.4 190.64 Q 549.54 190.64 554.07 193.37 L 554.07 193.37 L 554.07 193.37 Q 558.6 196.1 560.76 201.05 L 560.76 201.05 L 560.76 201.05 Q 562.92 206 562.92 212.66 Z  M 532.5 212.66 L 532.5 212.66 L 532.5 212.66 Q 532.5 218.96 534.81 222.56 L 534.81 222.56 L 534.81 222.56 Q 537.12 226.16 542.34 226.16 L 542.34 226.16 L 542.34 226.16 Q 547.68 226.16 549.93 222.56 L 549.93 222.56 L 549.93 222.56 Q 552.18 218.96 552.18 212.66 L 552.18 212.66 L 552.18 212.66 Q 552.18 206.36 549.93 202.73 L 549.93 202.73 L 549.93 202.73 Q 547.68 199.1 542.4 199.1 L 542.4 199.1 L 542.4 199.1 Q 537.12 199.1 534.81 202.73 L 534.81 202.73 L 534.81 202.73 Q 532.5 206.36 532.5 212.66 Z " fill="rgb(0,0,0)"/><path d=" M 358.976 71.644 L 358.976 101.452 L 340.832 101.452 L 340.832 24.34 L 385.652 24.34 L 385.652 39.244 L 358.976 39.244 L 358.976 56.74 L 383.708 56.74 L 383.708 71.644 L 358.976 71.644 Z  M 431.552 90.976 L 431.552 101.452 L 394.076 101.452 L 394.076 90.976 L 403.58 86.98 L 403.58 38.812 L 394.076 34.816 L 394.076 24.34 L 431.552 24.34 L 431.552 34.816 L 422.048 38.812 L 422.048 86.98 L 431.552 90.976 Z  M 514.928 24.34 L 514.928 101.452 L 491.168 101.452 L 460.064 44.968 L 459.632 44.968 L 459.632 44.968 Q 459.848 49.612 460.118 55.282 L 460.118 55.282 L 460.118 55.282 Q 460.388 60.952 460.604 65.812 L 460.604 65.812 L 460.604 101.452 L 444.188 101.452 L 444.188 24.34 L 467.84 24.34 L 498.836 80.176 L 499.16 80.176 L 499.16 80.176 Q 498.944 75.532 498.728 70.186 L 498.728 70.186 L 498.728 70.186 Q 498.512 64.84 498.404 60.088 L 498.404 60.088 L 498.404 24.34 L 514.928 24.34 Z  M 600.356 101.452 L 580.268 101.452 L 575.516 84.928 L 548.84 84.928 L 544.088 101.452 L 524 101.452 L 550.244 24.016 L 573.788 24.016 L 600.356 101.452 Z  M 571.412 69.592 L 566.876 54.148 L 566.876 54.148 Q 566.336 52.204 565.418 48.91 L 565.418 48.91 L 565.418 48.91 Q 564.5 45.616 563.582 42.16 L 563.582 42.16 L 563.582 42.16 Q 562.664 38.704 562.124 36.328 L 562.124 36.328 L 562.124 36.328 Q 561.692 38.704 560.774 42.214 L 560.774 42.214 L 560.774 42.214 Q 559.856 45.724 558.992 49.018 L 558.992 49.018 L 558.992 49.018 Q 558.128 52.312 557.588 54.148 L 557.588 54.148 L 553.052 69.592 L 571.412 69.592 Z  M 658.352 101.452 L 609.428 101.452 L 609.428 24.34 L 627.788 24.34 L 627.788 86.44 L 658.352 86.44 L 658.352 101.452 Z " fill="rgb(255,221,0)"/><path d=" M 344.392 106.34 L 369.664 106.34 L 369.664 106.34 Q 385.756 106.34 393.316 110.984 L 393.316 110.984 L 393.316 110.984 Q 400.876 115.628 400.876 125.78 L 400.876 125.78 L 400.876 125.78 Q 400.876 132.8 397.366 137.174 L 397.366 137.174 L 397.366 137.174 Q 393.856 141.548 388.888 142.52 L 388.888 142.52 L 388.888 143.06 L 388.888 143.06 Q 392.344 143.816 395.476 145.706 L 395.476 145.706 L 395.476 145.706 Q 398.608 147.596 400.606 151.268 L 400.606 151.268 L 400.606 151.268 Q 402.604 154.94 402.604 160.988 L 402.604 160.988 L 402.604 160.988 Q 402.604 171.572 394.882 177.512 L 394.882 177.512 L 394.882 177.512 Q 387.16 183.452 373.768 183.452 L 373.768 183.452 L 344.392 183.452 L 344.392 106.34 Z  M 362.752 136.472 L 370.852 136.472 L 370.852 136.472 Q 377.008 136.472 379.492 134.258 L 379.492 134.258 L 379.492 134.258 Q 381.976 132.044 381.976 128.264 L 381.976 128.264 L 381.976 128.264 Q 381.976 120.812 370.096 120.812 L 370.096 120.812 L 362.752 120.812 L 362.752 136.472 Z  M 371.5 150.512 L 362.752 150.512 L 362.752 168.764 L 371.932 168.764 L 371.932 168.764 Q 378.412 168.764 380.95 166.172 L 380.95 166.172 L 380.95 166.172 Q 383.488 163.58 383.488 159.368 L 383.488 159.368 L 383.488 159.368 Q 383.488 155.588 380.896 153.05 L 380.896 153.05 L 380.896 153.05 Q 378.304 150.512 371.5 150.512 L 371.5 150.512 Z  M 481.12 106.34 L 481.12 154.616 L 481.12 154.616 Q 481.12 163.472 477.502 170.168 L 477.502 170.168 L 477.502 170.168 Q 473.884 176.864 466.702 180.698 L 466.702 180.698 L 466.702 180.698 Q 459.52 184.532 448.504 184.532 L 448.504 184.532 L 448.504 184.532 Q 432.952 184.532 424.744 176.54 L 424.744 176.54 L 424.744 176.54 Q 416.536 168.548 416.536 154.724 L 416.536 154.724 L 416.536 106.34 L 435.004 106.34 L 435.004 152.672 L 435.004 152.672 Q 435.004 161.528 438.514 165.308 L 438.514 165.308 L 438.514 165.308 Q 442.024 169.088 448.936 169.088 L 448.936 169.088 L 448.936 169.088 Q 456.172 169.088 459.466 165.146 L 459.466 165.146 L 459.466 165.146 Q 462.76 161.204 462.76 152.564 L 462.76 152.564 L 462.76 106.34 L 481.12 106.34 Z  M 498.724 106.34 L 522.484 106.34 L 522.484 106.34 Q 553.588 106.34 553.588 129.344 L 553.588 129.344 L 553.588 129.344 Q 553.588 136.796 549.646 141.872 L 549.646 141.872 L 549.646 141.872 Q 545.704 146.948 539.764 149.864 L 539.764 149.864 L 562.336 183.452 L 541.708 183.452 L 524.32 154.508 L 517.084 154.508 L 517.084 183.452 L 498.724 183.452 L 498.724 106.34 Z  M 521.728 120.812 L 521.728 120.812 L 517.084 120.812 L 517.084 140.144 L 521.728 140.144 L 521.728 140.144 Q 528.316 140.144 531.61 137.714 L 531.61 137.714 L 531.61 137.714 Q 534.904 135.284 534.904 129.992 L 534.904 129.992 L 534.904 129.992 Q 534.904 125.348 531.772 123.08 L 531.772 123.08 L 531.772 123.08 Q 528.64 120.812 521.728 120.812 Z  M 641.608 106.34 L 641.608 183.452 L 617.848 183.452 L 586.744 126.968 L 586.312 126.968 L 586.312 126.968 Q 586.528 131.612 586.798 137.282 L 586.798 137.282 L 586.798 137.282 Q 587.068 142.952 587.284 147.812 L 587.284 147.812 L 587.284 183.452 L 570.868 183.452 L 570.868 106.34 L 594.52 106.34 L 625.516 162.176 L 625.84 162.176 L 625.84 162.176 Q 625.624 157.532 625.408 152.186 L 625.408 152.186 L 625.408 152.186 Q 625.192 146.84 625.084 142.088 L 625.084 142.088 L 625.084 106.34 L 641.608 106.34 Z " fill="rgb(222,129,5)"/><path d=" M 477.12 189.3 L 477.12 232.14 L 463.92 232.14 L 446.64 200.76 L 446.4 200.76 L 446.4 200.76 Q 446.52 203.34 446.67 206.49 L 446.67 206.49 L 446.67 206.49 Q 446.82 209.64 446.94 212.34 L 446.94 212.34 L 446.94 232.14 L 437.82 232.14 L 437.82 189.3 L 450.96 189.3 L 468.18 220.32 L 468.36 220.32 L 468.36 220.32 Q 468.24 217.74 468.12 214.77 L 468.12 214.77 L 468.12 214.77 Q 468 211.8 467.94 209.16 L 467.94 209.16 L 467.94 189.3 L 477.12 189.3 Z  M 512.22 223.74 L 512.22 232.14 L 487.2 232.14 L 487.2 189.3 L 512.22 189.3 L 512.22 197.58 L 497.4 197.58 L 497.4 205.8 L 511.14 205.8 L 511.14 214.08 L 497.4 214.08 L 497.4 223.74 L 512.22 223.74 Z  M 559.92 210.66 L 559.92 210.66 L 559.92 210.66 Q 559.92 217.32 557.76 222.27 L 557.76 222.27 L 557.76 222.27 Q 555.6 227.22 551.04 229.98 L 551.04 229.98 L 551.04 229.98 Q 546.48 232.74 539.34 232.74 L 539.34 232.74 L 539.34 232.74 Q 532.26 232.74 527.7 229.98 L 527.7 229.98 L 527.7 229.98 Q 523.14 227.22 520.95 222.24 L 520.95 222.24 L 520.95 222.24 Q 518.76 217.26 518.76 210.6 L 518.76 210.6 L 518.76 210.6 Q 518.76 203.94 520.95 199.02 L 520.95 199.02 L 520.95 199.02 Q 523.14 194.1 527.7 191.37 L 527.7 191.37 L 527.7 191.37 Q 532.26 188.64 539.4 188.64 L 539.4 188.64 L 539.4 188.64 Q 546.54 188.64 551.07 191.37 L 551.07 191.37 L 551.07 191.37 Q 555.6 194.1 557.76 199.05 L 557.76 199.05 L 557.76 199.05 Q 559.92 204 559.92 210.66 Z  M 529.5 210.66 L 529.5 210.66 L 529.5 210.66 Q 529.5 216.96 531.81 220.56 L 531.81 220.56 L 531.81 220.56 Q 534.12 224.16 539.34 224.16 L 539.34 224.16 L 539.34 224.16 Q 544.68 224.16 546.93 220.56 L 546.93 220.56 L 546.93 220.56 Q 549.18 216.96 549.18 210.66 L 549.18 210.66 L 549.18 210.66 Q 549.18 204.36 546.93 200.73 L 546.93 200.73 L 546.93 200.73 Q 544.68 197.1 539.4 197.1 L 539.4 197.1 L 539.4 197.1 Q 534.12 197.1 531.81 200.73 L 531.81 200.73 L 531.81 200.73 Q 529.5 204.36 529.5 210.66 Z " fill="rgb(255,255,255)"/></g></svg>