<?xml version="1.0" encoding="UTF-8" standalone="no"?><!-- Generator: Gravit.io --><svg xmlns="http://www.w3.org/2000/svg" xmlns:xlink="http://www.w3.org/1999/xlink" style="isolation:isolate" viewBox="0 0 992 250" width="992pt" height="250pt"><defs><clipPath id="_clipPath_7elz76yD735l6DCI139rBd5jS67xHJJF"><rect width="992" height="250"/></clipPath></defs><g clip-path="url(#_clipPath_7elz76yD735l6DCI139rBd5jS67xHJJF)"><path d=" M 296.643 81.985 L 296.643 81.985 L 296.643 81.985 Q 292.678 81.985 289.42 80.682 L 289.42 80.682 L 289.42 80.682 Q 286.162 79.379 283.827 76.881 L 283.827 76.881 L 283.827 76.881 Q 281.492 74.383 280.216 70.717 L 280.216 70.717 L 280.216 70.717 Q 278.94 67.052 278.94 62.327 L 278.94 62.327 L 278.94 62.327 Q 278.94 57.603 280.379 53.938 L 280.379 53.938 L 280.379 53.938 Q 281.818 50.272 284.262 47.774 L 284.262 47.774 L 284.262 47.774 Q 286.705 45.276 289.963 43.973 L 289.963 43.973 L 289.963 43.973 Q 293.222 42.67 296.914 42.67 L 296.914 42.67 L 296.914 42.67 Q 299.249 42.67 301.123 42.996 L 301.123 42.996 L 301.123 42.996 Q 302.996 43.321 304.381 43.756 L 304.381 43.756 L 304.381 43.756 Q 305.765 44.19 306.634 44.625 L 306.634 44.625 L 306.634 44.625 Q 307.503 45.059 307.829 45.276 L 307.829 45.276 L 306.309 49.621 L 306.309 49.621 Q 305.82 49.295 304.897 48.915 L 304.897 48.915 L 304.897 48.915 Q 303.973 48.535 302.806 48.154 L 302.806 48.154 L 302.806 48.154 Q 301.638 47.774 300.254 47.53 L 300.254 47.53 L 300.254 47.53 Q 298.869 47.286 297.457 47.286 L 297.457 47.286 L 297.457 47.286 Q 294.47 47.286 292.081 48.317 L 292.081 48.317 L 292.081 48.317 Q 289.692 49.349 288.008 51.304 L 288.008 51.304 L 288.008 51.304 Q 286.325 53.259 285.429 56.056 L 285.429 56.056 L 285.429 56.056 Q 284.533 58.852 284.533 62.327 L 284.533 62.327 L 284.533 62.327 Q 284.533 65.694 285.32 68.464 L 285.32 68.464 L 285.32 68.464 Q 286.108 71.233 287.683 73.215 L 287.683 73.215 L 287.683 73.215 Q 289.257 75.197 291.62 76.283 L 291.62 76.283 L 291.62 76.283 Q 293.982 77.369 297.131 77.369 L 297.131 77.369 L 297.131 77.369 Q 300.77 77.369 303.159 76.609 L 303.159 76.609 L 303.159 76.609 Q 305.548 75.849 306.743 75.252 L 306.743 75.252 L 308.101 79.596 L 308.101 79.596 Q 307.72 79.867 306.743 80.275 L 306.743 80.275 L 306.743 80.275 Q 305.765 80.682 304.299 81.062 L 304.299 81.062 L 304.299 81.062 Q 302.833 81.442 300.878 81.714 L 300.878 81.714 L 300.878 81.714 Q 298.923 81.985 296.643 81.985 Z  M 307.071 62.327 L 307.071 62.327 L 307.071 62.327 Q 307.071 57.495 308.51 53.802 L 308.51 53.802 L 308.51 53.802 Q 309.949 50.109 312.419 47.639 L 312.419 47.639 L 312.419 47.639 Q 314.89 45.168 318.175 43.919 L 318.175 43.919 L 318.175 43.919 Q 321.461 42.67 325.153 42.67 L 325.153 42.67 L 325.153 42.67 Q 328.792 42.67 332.023 43.919 L 332.023 43.919 L 332.023 43.919 Q 335.254 45.168 337.697 47.639 L 337.697 47.639 L 337.697 47.639 Q 340.141 50.109 341.58 53.802 L 341.58 53.802 L 341.58 53.802 Q 343.019 57.495 343.019 62.327 L 343.019 62.327 L 343.019 62.327 Q 343.019 67.16 341.58 70.853 L 341.58 70.853 L 341.58 70.853 Q 340.141 74.546 337.697 77.016 L 337.697 77.016 L 337.697 77.016 Q 335.254 79.487 332.023 80.736 L 332.023 80.736 L 332.023 80.736 Q 328.792 81.985 325.153 81.985 L 325.153 81.985 L 325.153 81.985 Q 321.461 81.985 318.175 80.736 L 318.175 80.736 L 318.175 80.736 Q 314.89 79.487 312.419 77.016 L 312.419 77.016 L 312.419 77.016 Q 309.949 74.546 308.51 70.853 L 308.51 70.853 L 308.51 70.853 Q 307.071 67.16 307.071 62.327 Z  M 312.609 62.327 L 312.609 62.327 L 312.609 62.327 Q 312.609 65.749 313.478 68.545 L 313.478 68.545 L 313.478 68.545 Q 314.347 71.342 315.949 73.297 L 315.949 73.297 L 315.949 73.297 Q 317.551 75.252 319.859 76.31 L 319.859 76.31 L 319.859 76.31 Q 322.167 77.369 325.045 77.369 L 325.045 77.369 L 325.045 77.369 Q 327.923 77.369 330.204 76.31 L 330.204 76.31 L 330.204 76.31 Q 332.484 75.252 334.086 73.297 L 334.086 73.297 L 334.086 73.297 Q 335.688 71.342 336.557 68.545 L 336.557 68.545 L 336.557 68.545 Q 337.426 65.749 337.426 62.327 L 337.426 62.327 L 337.426 62.327 Q 337.426 58.906 336.557 56.11 L 336.557 56.11 L 336.557 56.11 Q 335.688 53.313 334.086 51.358 L 334.086 51.358 L 334.086 51.358 Q 332.484 49.403 330.204 48.345 L 330.204 48.345 L 330.204 48.345 Q 327.923 47.286 325.045 47.286 L 325.045 47.286 L 325.045 47.286 Q 322.167 47.286 319.859 48.345 L 319.859 48.345 L 319.859 48.345 Q 317.551 49.403 315.949 51.358 L 315.949 51.358 L 315.949 51.358 Q 314.347 53.313 313.478 56.11 L 313.478 56.11 L 313.478 56.11 Q 312.609 58.906 312.609 62.327 Z  M 367.511 75.957 L 363.276 75.957 L 363.276 75.957 Q 362.733 74.654 361.837 72.645 L 361.837 72.645 L 361.837 72.645 Q 360.941 70.636 359.909 68.301 L 359.909 68.301 L 359.909 68.301 Q 358.877 65.966 357.71 63.495 L 357.71 63.495 L 357.71 63.495 Q 356.542 61.024 355.51 58.825 L 355.51 58.825 L 355.51 58.825 Q 354.479 56.626 353.583 54.888 L 353.583 54.888 L 353.583 54.888 Q 352.687 53.15 352.144 52.227 L 352.144 52.227 L 352.144 52.227 Q 351.546 58.635 351.166 66.102 L 351.166 66.102 L 351.166 66.102 Q 350.786 73.568 350.515 81.171 L 350.515 81.171 L 345.356 81.171 L 345.356 81.171 Q 345.573 76.283 345.845 71.315 L 345.845 71.315 L 345.845 71.315 Q 346.116 66.346 346.469 61.54 L 346.469 61.54 L 346.469 61.54 Q 346.822 56.734 347.229 52.173 L 347.229 52.173 L 347.229 52.173 Q 347.637 47.611 348.125 43.539 L 348.125 43.539 L 352.741 43.539 L 352.741 43.539 Q 354.207 45.928 355.891 49.186 L 355.891 49.186 L 355.891 49.186 Q 357.574 52.444 359.257 56.001 L 359.257 56.001 L 359.257 56.001 Q 360.941 59.558 362.516 63.115 L 362.516 63.115 L 362.516 63.115 Q 364.09 66.672 365.394 69.604 L 365.394 69.604 L 365.394 69.604 Q 366.697 66.672 368.272 63.115 L 368.272 63.115 L 368.272 63.115 Q 369.846 59.558 371.53 56.001 L 371.53 56.001 L 371.53 56.001 Q 373.213 52.444 374.897 49.186 L 374.897 49.186 L 374.897 49.186 Q 376.58 45.928 378.046 43.539 L 378.046 43.539 L 382.662 43.539 L 382.662 43.539 Q 384.508 61.73 385.431 81.171 L 385.431 81.171 L 380.273 81.171 L 380.273 81.171 Q 380.001 73.568 379.621 66.102 L 379.621 66.102 L 379.621 66.102 Q 379.241 58.635 378.643 52.227 L 378.643 52.227 L 378.643 52.227 Q 378.1 53.15 377.204 54.888 L 377.204 54.888 L 377.204 54.888 Q 376.308 56.626 375.277 58.825 L 375.277 58.825 L 375.277 58.825 Q 374.245 61.024 373.077 63.495 L 373.077 63.495 L 373.077 63.495 Q 371.91 65.966 370.878 68.301 L 370.878 68.301 L 370.878 68.301 Q 369.846 70.636 368.95 72.645 L 368.95 72.645 L 368.95 72.645 Q 368.054 74.654 367.511 75.957 L 367.511 75.957 Z  M 399.226 43.159 L 399.226 43.159 L 399.226 43.159 Q 407.154 43.159 411.417 46.172 L 411.417 46.172 L 411.417 46.172 Q 415.68 49.186 415.68 55.16 L 415.68 55.16 L 415.68 55.16 Q 415.68 58.418 414.512 60.726 L 414.512 60.726 L 414.512 60.726 Q 413.345 63.033 411.145 64.472 L 411.145 64.472 L 411.145 64.472 Q 408.946 65.911 405.797 66.563 L 405.797 66.563 L 405.797 66.563 Q 402.647 67.215 398.683 67.215 L 398.683 67.215 L 394.502 67.215 L 394.502 81.171 L 389.234 81.171 L 389.234 44.082 L 389.234 44.082 Q 391.461 43.539 394.203 43.349 L 394.203 43.349 L 394.203 43.349 Q 396.945 43.159 399.226 43.159 Z  M 399.66 47.774 L 399.66 47.774 L 399.66 47.774 Q 396.294 47.774 394.502 47.937 L 394.502 47.937 L 394.502 62.708 L 398.466 62.708 L 398.466 62.708 Q 401.181 62.708 403.353 62.355 L 403.353 62.355 L 403.353 62.355 Q 405.525 62.002 407.018 61.16 L 407.018 61.16 L 407.018 61.16 Q 408.512 60.318 409.326 58.852 L 409.326 58.852 L 409.326 58.852 Q 410.141 57.386 410.141 55.105 L 410.141 55.105 L 410.141 55.105 Q 410.141 52.933 409.299 51.521 L 409.299 51.521 L 409.299 51.521 Q 408.458 50.109 407.018 49.268 L 407.018 49.268 L 407.018 49.268 Q 405.579 48.426 403.679 48.1 L 403.679 48.1 L 403.679 48.1 Q 401.778 47.774 399.66 47.774 Z  M 431.81 81.985 L 431.81 81.985 L 431.81 81.985 Q 428.117 81.985 425.402 80.845 L 425.402 80.845 L 425.402 80.845 Q 422.687 79.704 420.949 77.722 L 420.949 77.722 L 420.949 77.722 Q 419.211 75.74 418.37 73.025 L 418.37 73.025 L 418.37 73.025 Q 417.528 70.31 417.528 67.16 L 417.528 67.16 L 417.528 43.539 L 422.795 43.539 L 422.795 66.563 L 422.795 66.563 Q 422.795 72.211 425.293 74.763 L 425.293 74.763 L 425.293 74.763 Q 427.791 77.315 431.81 77.315 L 431.81 77.315 L 431.81 77.315 Q 433.819 77.315 435.475 76.691 L 435.475 76.691 L 435.475 76.691 Q 437.131 76.066 438.326 74.763 L 438.326 74.763 L 438.326 74.763 Q 439.521 73.46 440.172 71.423 L 440.172 71.423 L 440.172 71.423 Q 440.824 69.387 440.824 66.563 L 440.824 66.563 L 440.824 43.539 L 446.091 43.539 L 446.091 67.16 L 446.091 67.16 Q 446.091 70.31 445.249 73.025 L 445.249 73.025 L 445.249 73.025 Q 444.408 75.74 442.643 77.722 L 442.643 77.722 L 442.643 77.722 Q 440.878 79.704 438.19 80.845 L 438.19 80.845 L 438.19 80.845 Q 435.502 81.985 431.81 81.985 Z  M 446.907 43.539 L 475.851 43.539 L 475.851 48.1 L 464.013 48.1 L 464.013 81.171 L 458.746 81.171 L 458.746 48.1 L 446.907 48.1 L 446.907 43.539 Z  M 501.266 81.171 L 476.939 81.171 L 476.939 43.539 L 499.909 43.539 L 499.909 48.046 L 482.206 48.046 L 482.206 59.232 L 497.954 59.232 L 497.954 63.631 L 482.206 63.631 L 482.206 76.663 L 501.266 76.663 L 501.266 81.171 Z  M 521.903 65.423 L 521.903 65.423 L 521.903 65.423 Q 522.772 66.509 524.103 68.274 L 524.103 68.274 L 524.103 68.274 Q 525.433 70.038 526.845 72.183 L 526.845 72.183 L 526.845 72.183 Q 528.257 74.328 529.641 76.663 L 529.641 76.663 L 529.641 76.663 Q 531.026 78.998 532.004 81.171 L 532.004 81.171 L 526.247 81.171 L 526.247 81.171 Q 525.161 79.107 523.885 76.989 L 523.885 76.989 L 523.885 76.989 Q 522.609 74.871 521.306 72.944 L 521.306 72.944 L 521.306 72.944 Q 520.003 71.016 518.727 69.333 L 518.727 69.333 L 518.727 69.333 Q 517.45 67.649 516.419 66.4 L 516.419 66.4 L 516.419 66.4 Q 515.713 66.454 514.98 66.454 L 514.98 66.454 L 514.98 66.454 Q 514.247 66.454 513.486 66.454 L 513.486 66.454 L 508.762 66.454 L 508.762 81.171 L 503.495 81.171 L 503.495 44.082 L 503.495 44.082 Q 505.721 43.539 508.463 43.349 L 508.463 43.349 L 508.463 43.349 Q 511.206 43.159 513.486 43.159 L 513.486 43.159 L 513.486 43.159 Q 521.415 43.159 525.569 46.145 L 525.569 46.145 L 525.569 46.145 Q 529.723 49.132 529.723 55.051 L 529.723 55.051 L 529.723 55.051 Q 529.723 58.798 527.741 61.459 L 527.741 61.459 L 527.741 61.459 Q 525.759 64.119 521.903 65.423 Z  M 513.921 47.774 L 513.921 47.774 L 513.921 47.774 Q 510.554 47.774 508.762 47.937 L 508.762 47.937 L 508.762 62.11 L 512.509 62.11 L 512.509 62.11 Q 515.224 62.11 517.396 61.839 L 517.396 61.839 L 517.396 61.839 Q 519.568 61.567 521.062 60.807 L 521.062 60.807 L 521.062 60.807 Q 522.555 60.047 523.369 58.662 L 523.369 58.662 L 523.369 58.662 Q 524.184 57.277 524.184 54.997 L 524.184 54.997 L 524.184 54.997 Q 524.184 52.879 523.369 51.467 L 523.369 51.467 L 523.369 51.467 Q 522.555 50.055 521.17 49.24 L 521.17 49.24 L 521.17 49.24 Q 519.785 48.426 517.912 48.1 L 517.912 48.1 L 517.912 48.1 Q 516.039 47.774 513.921 47.774 Z  M 131.604 81.171 L 126.336 81.171 L 126.336 43.539 L 149.035 43.539 L 149.035 48.046 L 131.604 48.046 L 131.604 59.395 L 147.08 59.395 L 147.08 63.848 L 131.604 63.848 L 131.604 81.171 Z  M 179.446 81.171 L 173.69 81.171 L 173.69 81.171 Q 172.767 78.727 171.953 76.365 L 171.953 76.365 L 171.953 76.365 Q 171.138 74.003 170.269 71.559 L 170.269 71.559 L 153.218 71.559 L 149.797 81.171 L 144.312 81.171 L 144.312 81.171 Q 146.485 75.197 148.385 70.12 L 148.385 70.12 L 148.385 70.12 Q 150.286 65.043 152.105 60.481 L 152.105 60.481 L 152.105 60.481 Q 153.924 55.92 155.716 51.766 L 155.716 51.766 L 155.716 51.766 Q 157.508 47.611 159.463 43.539 L 159.463 43.539 L 164.296 43.539 L 164.296 43.539 Q 166.251 47.611 168.043 51.766 L 168.043 51.766 L 168.043 51.766 Q 169.835 55.92 171.654 60.481 L 171.654 60.481 L 171.654 60.481 Q 173.473 65.043 175.374 70.12 L 175.374 70.12 L 175.374 70.12 Q 177.274 75.197 179.446 81.171 L 179.446 81.171 Z  M 154.739 67.215 L 168.749 67.215 L 168.749 67.215 Q 167.011 62.49 165.3 58.065 L 165.3 58.065 L 165.3 58.065 Q 163.59 53.639 161.744 49.566 L 161.744 49.566 L 161.744 49.566 Q 159.843 53.639 158.133 58.065 L 158.133 58.065 L 158.133 58.065 Q 156.422 62.49 154.739 67.215 L 154.739 67.215 Z  M 201.224 75.957 L 196.988 75.957 L 196.988 75.957 Q 196.445 74.654 195.549 72.645 L 195.549 72.645 L 195.549 72.645 Q 194.653 70.636 193.621 68.301 L 193.621 68.301 L 193.621 68.301 Q 192.589 65.966 191.422 63.495 L 191.422 63.495 L 191.422 63.495 Q 190.254 61.024 189.223 58.825 L 189.223 58.825 L 189.223 58.825 Q 188.191 56.626 187.295 54.888 L 187.295 54.888 L 187.295 54.888 Q 186.399 53.15 185.856 52.227 L 185.856 52.227 L 185.856 52.227 Q 185.259 58.635 184.878 66.102 L 184.878 66.102 L 184.878 66.102 Q 184.498 73.568 184.227 81.171 L 184.227 81.171 L 179.068 81.171 L 179.068 81.171 Q 179.285 76.283 179.557 71.315 L 179.557 71.315 L 179.557 71.315 Q 179.828 66.346 180.181 61.54 L 180.181 61.54 L 180.181 61.54 Q 180.534 56.734 180.941 52.173 L 180.941 52.173 L 180.941 52.173 Q 181.349 47.611 181.837 43.539 L 181.837 43.539 L 186.453 43.539 L 186.453 43.539 Q 187.919 45.928 189.603 49.186 L 189.603 49.186 L 189.603 49.186 Q 191.286 52.444 192.97 56.001 L 192.97 56.001 L 192.97 56.001 Q 194.653 59.558 196.228 63.115 L 196.228 63.115 L 196.228 63.115 Q 197.803 66.672 199.106 69.604 L 199.106 69.604 L 199.106 69.604 Q 200.409 66.672 201.984 63.115 L 201.984 63.115 L 201.984 63.115 Q 203.559 59.558 205.242 56.001 L 205.242 56.001 L 205.242 56.001 Q 206.925 52.444 208.609 49.186 L 208.609 49.186 L 208.609 49.186 Q 210.292 45.928 211.758 43.539 L 211.758 43.539 L 216.374 43.539 L 216.374 43.539 Q 218.22 61.73 219.144 81.171 L 219.144 81.171 L 213.985 81.171 L 213.985 81.171 Q 213.713 73.568 213.333 66.102 L 213.333 66.102 L 213.333 66.102 Q 212.953 58.635 212.356 52.227 L 212.356 52.227 L 212.356 52.227 Q 211.813 53.15 210.917 54.888 L 210.917 54.888 L 210.917 54.888 Q 210.021 56.626 208.989 58.825 L 208.989 58.825 L 208.989 58.825 Q 207.957 61.024 206.79 63.495 L 206.79 63.495 L 206.79 63.495 Q 205.622 65.966 204.59 68.301 L 204.59 68.301 L 204.59 68.301 Q 203.559 70.636 202.663 72.645 L 202.663 72.645 L 202.663 72.645 Q 201.767 74.654 201.224 75.957 L 201.224 75.957 Z  M 222.947 81.171 L 222.947 43.539 L 228.214 43.539 L 228.214 81.171 L 222.947 81.171 Z  M 238.37 76.609 L 255.747 76.609 L 255.747 81.171 L 233.103 81.171 L 233.103 43.539 L 238.37 43.539 L 238.37 76.609 Z  M 264.818 81.171 L 259.55 81.171 L 259.55 66.074 L 259.55 66.074 Q 255.803 60.264 252.491 54.616 L 252.491 54.616 L 252.491 54.616 Q 249.178 48.969 246.246 43.539 L 246.246 43.539 L 252.437 43.539 L 252.437 43.539 Q 254.5 47.992 257.052 52.58 L 257.052 52.58 L 257.052 52.58 Q 259.605 57.169 262.32 61.404 L 262.32 61.404 L 262.32 61.404 Q 264.98 57.169 267.533 52.58 L 267.533 52.58 L 267.533 52.58 Q 270.085 47.992 272.203 43.539 L 272.203 43.539 L 278.067 43.539 L 278.067 43.539 Q 275.135 48.969 271.823 54.589 L 271.823 54.589 L 271.823 54.589 Q 268.51 60.21 264.818 65.966 L 264.818 65.966 L 264.818 81.171 Z " fill="rgb(0,0,0)"/><path d=" M 294.862 80.205 L 294.862 80.205 L 294.862 80.205 Q 290.898 80.205 287.64 78.901 L 287.64 78.901 L 287.64 78.901 Q 284.382 77.598 282.047 75.1 L 282.047 75.1 L 282.047 75.1 Q 279.712 72.602 278.436 68.937 L 278.436 68.937 L 278.436 68.937 Q 277.159 65.271 277.159 60.547 L 277.159 60.547 L 277.159 60.547 Q 277.159 55.823 278.598 52.157 L 278.598 52.157 L 278.598 52.157 Q 280.038 48.492 282.481 45.994 L 282.481 45.994 L 282.481 45.994 Q 284.925 43.496 288.183 42.193 L 288.183 42.193 L 288.183 42.193 Q 291.441 40.889 295.134 40.889 L 295.134 40.889 L 295.134 40.889 Q 297.469 40.889 299.342 41.215 L 299.342 41.215 L 299.342 41.215 Q 301.216 41.541 302.6 41.975 L 302.6 41.975 L 302.6 41.975 Q 303.985 42.41 304.854 42.844 L 304.854 42.844 L 304.854 42.844 Q 305.723 43.279 306.049 43.496 L 306.049 43.496 L 304.528 47.84 L 304.528 47.84 Q 304.039 47.514 303.116 47.134 L 303.116 47.134 L 303.116 47.134 Q 302.193 46.754 301.026 46.374 L 301.026 46.374 L 301.026 46.374 Q 299.858 45.994 298.473 45.75 L 298.473 45.75 L 298.473 45.75 Q 297.089 45.505 295.677 45.505 L 295.677 45.505 L 295.677 45.505 Q 292.69 45.505 290.301 46.537 L 290.301 46.537 L 290.301 46.537 Q 287.911 47.569 286.228 49.524 L 286.228 49.524 L 286.228 49.524 Q 284.545 51.478 283.649 54.275 L 283.649 54.275 L 283.649 54.275 Q 282.753 57.072 282.753 60.547 L 282.753 60.547 L 282.753 60.547 Q 282.753 63.914 283.54 66.683 L 283.54 66.683 L 283.54 66.683 Q 284.327 69.453 285.902 71.435 L 285.902 71.435 L 285.902 71.435 Q 287.477 73.417 289.839 74.503 L 289.839 74.503 L 289.839 74.503 Q 292.201 75.589 295.351 75.589 L 295.351 75.589 L 295.351 75.589 Q 298.989 75.589 301.379 74.829 L 301.379 74.829 L 301.379 74.829 Q 303.768 74.068 304.963 73.471 L 304.963 73.471 L 306.32 77.815 L 306.32 77.815 Q 305.94 78.087 304.963 78.494 L 304.963 78.494 L 304.963 78.494 Q 303.985 78.901 302.519 79.282 L 302.519 79.282 L 302.519 79.282 Q 301.053 79.662 299.098 79.933 L 299.098 79.933 L 299.098 79.933 Q 297.143 80.205 294.862 80.205 Z  M 305.29 60.547 L 305.29 60.547 L 305.29 60.547 Q 305.29 55.714 306.729 52.022 L 306.729 52.022 L 306.729 52.022 Q 308.168 48.329 310.639 45.858 L 310.639 45.858 L 310.639 45.858 Q 313.11 43.387 316.395 42.138 L 316.395 42.138 L 316.395 42.138 Q 319.68 40.889 323.373 40.889 L 323.373 40.889 L 323.373 40.889 Q 327.011 40.889 330.242 42.138 L 330.242 42.138 L 330.242 42.138 Q 333.473 43.387 335.917 45.858 L 335.917 45.858 L 335.917 45.858 Q 338.361 48.329 339.8 52.022 L 339.8 52.022 L 339.8 52.022 Q 341.239 55.714 341.239 60.547 L 341.239 60.547 L 341.239 60.547 Q 341.239 65.38 339.8 69.073 L 339.8 69.073 L 339.8 69.073 Q 338.361 72.765 335.917 75.236 L 335.917 75.236 L 335.917 75.236 Q 333.473 77.707 330.242 78.956 L 330.242 78.956 L 330.242 78.956 Q 327.011 80.205 323.373 80.205 L 323.373 80.205 L 323.373 80.205 Q 319.68 80.205 316.395 78.956 L 316.395 78.956 L 316.395 78.956 Q 313.11 77.707 310.639 75.236 L 310.639 75.236 L 310.639 75.236 Q 308.168 72.765 306.729 69.073 L 306.729 69.073 L 306.729 69.073 Q 305.29 65.38 305.29 60.547 Z  M 310.829 60.547 L 310.829 60.547 L 310.829 60.547 Q 310.829 63.968 311.698 66.765 L 311.698 66.765 L 311.698 66.765 Q 312.567 69.561 314.169 71.516 L 314.169 71.516 L 314.169 71.516 Q 315.771 73.471 318.078 74.53 L 318.078 74.53 L 318.078 74.53 Q 320.386 75.589 323.264 75.589 L 323.264 75.589 L 323.264 75.589 Q 326.142 75.589 328.423 74.53 L 328.423 74.53 L 328.423 74.53 Q 330.704 73.471 332.306 71.516 L 332.306 71.516 L 332.306 71.516 Q 333.908 69.561 334.777 66.765 L 334.777 66.765 L 334.777 66.765 Q 335.645 63.968 335.645 60.547 L 335.645 60.547 L 335.645 60.547 Q 335.645 57.126 334.777 54.329 L 334.777 54.329 L 334.777 54.329 Q 333.908 51.533 332.306 49.578 L 332.306 49.578 L 332.306 49.578 Q 330.704 47.623 328.423 46.564 L 328.423 46.564 L 328.423 46.564 Q 326.142 45.505 323.264 45.505 L 323.264 45.505 L 323.264 45.505 Q 320.386 45.505 318.078 46.564 L 318.078 46.564 L 318.078 46.564 Q 315.771 47.623 314.169 49.578 L 314.169 49.578 L 314.169 49.578 Q 312.567 51.533 311.698 54.329 L 311.698 54.329 L 311.698 54.329 Q 310.829 57.126 310.829 60.547 Z  M 365.731 74.177 L 361.495 74.177 L 361.495 74.177 Q 360.952 72.874 360.056 70.865 L 360.056 70.865 L 360.056 70.865 Q 359.16 68.855 358.129 66.52 L 358.129 66.52 L 358.129 66.52 Q 357.097 64.185 355.929 61.715 L 355.929 61.715 L 355.929 61.715 Q 354.762 59.244 353.73 57.045 L 353.73 57.045 L 353.73 57.045 Q 352.698 54.845 351.802 53.108 L 351.802 53.108 L 351.802 53.108 Q 350.906 51.37 350.363 50.447 L 350.363 50.447 L 350.363 50.447 Q 349.766 56.854 349.386 64.321 L 349.386 64.321 L 349.386 64.321 Q 349.006 71.788 348.734 79.39 L 348.734 79.39 L 343.575 79.39 L 343.575 79.39 Q 343.793 74.503 344.064 69.534 L 344.064 69.534 L 344.064 69.534 Q 344.336 64.565 344.689 59.76 L 344.689 59.76 L 344.689 59.76 Q 345.042 54.954 345.449 50.392 L 345.449 50.392 L 345.449 50.392 Q 345.856 45.831 346.345 41.758 L 346.345 41.758 L 350.961 41.758 L 350.961 41.758 Q 352.427 44.148 354.11 47.406 L 354.11 47.406 L 354.11 47.406 Q 355.794 50.664 357.477 54.221 L 357.477 54.221 L 357.477 54.221 Q 359.16 57.778 360.735 61.334 L 360.735 61.334 L 360.735 61.334 Q 362.31 64.891 363.613 67.824 L 363.613 67.824 L 363.613 67.824 Q 364.916 64.891 366.491 61.334 L 366.491 61.334 L 366.491 61.334 Q 368.066 57.778 369.749 54.221 L 369.749 54.221 L 369.749 54.221 Q 371.433 50.664 373.116 47.406 L 373.116 47.406 L 373.116 47.406 Q 374.8 44.148 376.266 41.758 L 376.266 41.758 L 380.881 41.758 L 380.881 41.758 Q 382.728 59.95 383.651 79.39 L 383.651 79.39 L 378.492 79.39 L 378.492 79.39 Q 378.221 71.788 377.841 64.321 L 377.841 64.321 L 377.841 64.321 Q 377.46 56.854 376.863 50.447 L 376.863 50.447 L 376.863 50.447 Q 376.32 51.37 375.424 53.108 L 375.424 53.108 L 375.424 53.108 Q 374.528 54.845 373.496 57.045 L 373.496 57.045 L 373.496 57.045 Q 372.465 59.244 371.297 61.715 L 371.297 61.715 L 371.297 61.715 Q 370.129 64.185 369.098 66.52 L 369.098 66.52 L 369.098 66.52 Q 368.066 68.855 367.17 70.865 L 367.17 70.865 L 367.17 70.865 Q 366.274 72.874 365.731 74.177 L 365.731 74.177 Z  M 397.446 41.378 L 397.446 41.378 L 397.446 41.378 Q 405.374 41.378 409.637 44.392 L 409.637 44.392 L 409.637 44.392 Q 413.899 47.406 413.899 53.379 L 413.899 53.379 L 413.899 53.379 Q 413.899 56.637 412.732 58.945 L 412.732 58.945 L 412.732 58.945 Q 411.564 61.253 409.365 62.692 L 409.365 62.692 L 409.365 62.692 Q 407.166 64.131 404.016 64.783 L 404.016 64.783 L 404.016 64.783 Q 400.867 65.434 396.903 65.434 L 396.903 65.434 L 392.721 65.434 L 392.721 79.39 L 387.454 79.39 L 387.454 42.301 L 387.454 42.301 Q 389.68 41.758 392.423 41.568 L 392.423 41.568 L 392.423 41.568 Q 395.165 41.378 397.446 41.378 Z  M 397.88 45.994 L 397.88 45.994 L 397.88 45.994 Q 394.513 45.994 392.721 46.157 L 392.721 46.157 L 392.721 60.927 L 396.685 60.927 L 396.685 60.927 Q 399.401 60.927 401.573 60.574 L 401.573 60.574 L 401.573 60.574 Q 403.745 60.221 405.238 59.38 L 405.238 59.38 L 405.238 59.38 Q 406.731 58.538 407.546 57.072 L 407.546 57.072 L 407.546 57.072 Q 408.36 55.606 408.36 53.325 L 408.36 53.325 L 408.36 53.325 Q 408.36 51.153 407.519 49.741 L 407.519 49.741 L 407.519 49.741 Q 406.677 48.329 405.238 47.487 L 405.238 47.487 L 405.238 47.487 Q 403.799 46.646 401.898 46.32 L 401.898 46.32 L 401.898 46.32 Q 399.998 45.994 397.88 45.994 Z  M 430.029 80.205 L 430.029 80.205 L 430.029 80.205 Q 426.336 80.205 423.621 79.064 L 423.621 79.064 L 423.621 79.064 Q 420.906 77.924 419.169 75.942 L 419.169 75.942 L 419.169 75.942 Q 417.431 73.96 416.589 71.245 L 416.589 71.245 L 416.589 71.245 Q 415.747 68.53 415.747 65.38 L 415.747 65.38 L 415.747 41.758 L 421.015 41.758 L 421.015 64.783 L 421.015 64.783 Q 421.015 70.43 423.513 72.982 L 423.513 72.982 L 423.513 72.982 Q 426.011 75.535 430.029 75.535 L 430.029 75.535 L 430.029 75.535 Q 432.038 75.535 433.695 74.91 L 433.695 74.91 L 433.695 74.91 Q 435.351 74.286 436.545 72.982 L 436.545 72.982 L 436.545 72.982 Q 437.74 71.679 438.392 69.643 L 438.392 69.643 L 438.392 69.643 Q 439.043 67.606 439.043 64.783 L 439.043 64.783 L 439.043 41.758 L 444.311 41.758 L 444.311 65.38 L 444.311 65.38 Q 444.311 68.53 443.469 71.245 L 443.469 71.245 L 443.469 71.245 Q 442.627 73.96 440.863 75.942 L 440.863 75.942 L 440.863 75.942 Q 439.098 77.924 436.41 79.064 L 436.41 79.064 L 436.41 79.064 Q 433.722 80.205 430.029 80.205 Z  M 445.127 41.758 L 474.07 41.758 L 474.07 46.32 L 462.232 46.32 L 462.232 79.39 L 456.965 79.39 L 456.965 46.32 L 445.127 46.32 L 445.127 41.758 Z  M 499.486 79.39 L 475.158 79.39 L 475.158 41.758 L 498.128 41.758 L 498.128 46.265 L 480.426 46.265 L 480.426 57.452 L 496.174 57.452 L 496.174 61.85 L 480.426 61.85 L 480.426 74.883 L 499.486 74.883 L 499.486 79.39 Z  M 520.123 63.642 L 520.123 63.642 L 520.123 63.642 Q 520.992 64.728 522.322 66.493 L 522.322 66.493 L 522.322 66.493 Q 523.653 68.258 525.064 70.403 L 525.064 70.403 L 525.064 70.403 Q 526.476 72.548 527.861 74.883 L 527.861 74.883 L 527.861 74.883 Q 529.246 77.218 530.223 79.39 L 530.223 79.39 L 524.467 79.39 L 524.467 79.39 Q 523.381 77.327 522.105 75.209 L 522.105 75.209 L 522.105 75.209 Q 520.829 73.091 519.526 71.163 L 519.526 71.163 L 519.526 71.163 Q 518.222 69.236 516.946 67.552 L 516.946 67.552 L 516.946 67.552 Q 515.67 65.869 514.638 64.62 L 514.638 64.62 L 514.638 64.62 Q 513.932 64.674 513.199 64.674 L 513.199 64.674 L 513.199 64.674 Q 512.466 64.674 511.706 64.674 L 511.706 64.674 L 506.982 64.674 L 506.982 79.39 L 501.714 79.39 L 501.714 42.301 L 501.714 42.301 Q 503.941 41.758 506.683 41.568 L 506.683 41.568 L 506.683 41.568 Q 509.425 41.378 511.706 41.378 L 511.706 41.378 L 511.706 41.378 Q 519.634 41.378 523.788 44.365 L 523.788 44.365 L 523.788 44.365 Q 527.942 47.351 527.942 53.27 L 527.942 53.27 L 527.942 53.27 Q 527.942 57.017 525.96 59.678 L 525.96 59.678 L 525.96 59.678 Q 523.978 62.339 520.123 63.642 Z  M 512.14 45.994 L 512.14 45.994 L 512.14 45.994 Q 508.774 45.994 506.982 46.157 L 506.982 46.157 L 506.982 60.33 L 510.728 60.33 L 510.728 60.33 Q 513.444 60.33 515.616 60.058 L 515.616 60.058 L 515.616 60.058 Q 517.788 59.787 519.281 59.027 L 519.281 59.027 L 519.281 59.027 Q 520.775 58.266 521.589 56.882 L 521.589 56.882 L 521.589 56.882 Q 522.404 55.497 522.404 53.216 L 522.404 53.216 L 522.404 53.216 Q 522.404 51.098 521.589 49.686 L 521.589 49.686 L 521.589 49.686 Q 520.775 48.275 519.39 47.46 L 519.39 47.46 L 519.39 47.46 Q 518.005 46.646 516.132 46.32 L 516.132 46.32 L 516.132 46.32 Q 514.258 45.994 512.14 45.994 Z  M 129.823 79.39 L 124.556 79.39 L 124.556 41.758 L 147.255 41.758 L 147.255 46.265 L 129.823 46.265 L 129.823 57.615 L 145.3 57.615 L 145.3 62.068 L 129.823 62.068 L 129.823 79.39 Z  M 177.666 79.39 L 171.91 79.39 L 171.91 79.39 Q 170.987 76.947 170.172 74.584 L 170.172 74.584 L 170.172 74.584 Q 169.358 72.222 168.489 69.779 L 168.489 69.779 L 151.438 69.779 L 148.017 79.39 L 142.532 79.39 L 142.532 79.39 Q 144.704 73.417 146.605 68.34 L 146.605 68.34 L 146.605 68.34 Q 148.505 63.262 150.324 58.701 L 150.324 58.701 L 150.324 58.701 Q 152.144 54.139 153.936 49.985 L 153.936 49.985 L 153.936 49.985 Q 155.728 45.831 157.683 41.758 L 157.683 41.758 L 162.515 41.758 L 162.515 41.758 Q 164.47 45.831 166.262 49.985 L 166.262 49.985 L 166.262 49.985 Q 168.054 54.139 169.874 58.701 L 169.874 58.701 L 169.874 58.701 Q 171.693 63.262 173.593 68.34 L 173.593 68.34 L 173.593 68.34 Q 175.494 73.417 177.666 79.39 L 177.666 79.39 Z  M 152.958 65.434 L 166.968 65.434 L 166.968 65.434 Q 165.231 60.71 163.52 56.284 L 163.52 56.284 L 163.52 56.284 Q 161.81 51.859 159.963 47.786 L 159.963 47.786 L 159.963 47.786 Q 158.063 51.859 156.352 56.284 L 156.352 56.284 L 156.352 56.284 Q 154.642 60.71 152.958 65.434 L 152.958 65.434 Z  M 199.443 74.177 L 195.208 74.177 L 195.208 74.177 Q 194.665 72.874 193.769 70.865 L 193.769 70.865 L 193.769 70.865 Q 192.873 68.855 191.841 66.52 L 191.841 66.52 L 191.841 66.52 Q 190.809 64.185 189.642 61.715 L 189.642 61.715 L 189.642 61.715 Q 188.474 59.244 187.442 57.045 L 187.442 57.045 L 187.442 57.045 Q 186.41 54.845 185.515 53.108 L 185.515 53.108 L 185.515 53.108 Q 184.619 51.37 184.075 50.447 L 184.075 50.447 L 184.075 50.447 Q 183.478 56.854 183.098 64.321 L 183.098 64.321 L 183.098 64.321 Q 182.718 71.788 182.446 79.39 L 182.446 79.39 L 177.288 79.39 L 177.288 79.39 Q 177.505 74.503 177.776 69.534 L 177.776 69.534 L 177.776 69.534 Q 178.048 64.565 178.401 59.76 L 178.401 59.76 L 178.401 59.76 Q 178.754 54.954 179.161 50.392 L 179.161 50.392 L 179.161 50.392 Q 179.568 45.831 180.057 41.758 L 180.057 41.758 L 184.673 41.758 L 184.673 41.758 Q 186.139 44.148 187.822 47.406 L 187.822 47.406 L 187.822 47.406 Q 189.506 50.664 191.189 54.221 L 191.189 54.221 L 191.189 54.221 Q 192.873 57.778 194.447 61.334 L 194.447 61.334 L 194.447 61.334 Q 196.022 64.891 197.325 67.824 L 197.325 67.824 L 197.325 67.824 Q 198.629 64.891 200.203 61.334 L 200.203 61.334 L 200.203 61.334 Q 201.778 57.778 203.462 54.221 L 203.462 54.221 L 203.462 54.221 Q 205.145 50.664 206.828 47.406 L 206.828 47.406 L 206.828 47.406 Q 208.512 44.148 209.978 41.758 L 209.978 41.758 L 214.594 41.758 L 214.594 41.758 Q 216.44 59.95 217.363 79.39 L 217.363 79.39 L 212.204 79.39 L 212.204 79.39 Q 211.933 71.788 211.553 64.321 L 211.553 64.321 L 211.553 64.321 Q 211.173 56.854 210.575 50.447 L 210.575 50.447 L 210.575 50.447 Q 210.032 51.37 209.136 53.108 L 209.136 53.108 L 209.136 53.108 Q 208.24 54.845 207.208 57.045 L 207.208 57.045 L 207.208 57.045 Q 206.177 59.244 205.009 61.715 L 205.009 61.715 L 205.009 61.715 Q 203.842 64.185 202.81 66.52 L 202.81 66.52 L 202.81 66.52 Q 201.778 68.855 200.882 70.865 L 200.882 70.865 L 200.882 70.865 Q 199.986 72.874 199.443 74.177 L 199.443 74.177 Z  M 221.166 79.39 L 221.166 41.758 L 226.433 41.758 L 226.433 79.39 L 221.166 79.39 Z  M 236.59 74.829 L 253.967 74.829 L 253.967 79.39 L 231.323 79.39 L 231.323 41.758 L 236.59 41.758 L 236.59 74.829 Z  M 263.037 79.39 L 257.77 79.39 L 257.77 64.294 L 257.77 64.294 Q 254.023 58.484 250.71 52.836 L 250.71 52.836 L 250.71 52.836 Q 247.398 47.189 244.466 41.758 L 244.466 41.758 L 250.656 41.758 L 250.656 41.758 Q 252.72 46.211 255.272 50.8 L 255.272 50.8 L 255.272 50.8 Q 257.824 55.388 260.539 59.624 L 260.539 59.624 L 260.539 59.624 Q 263.2 55.388 265.752 50.8 L 265.752 50.8 L 265.752 50.8 Q 268.305 46.211 270.422 41.758 L 270.422 41.758 L 276.287 41.758 L 276.287 41.758 Q 273.355 47.189 270.042 52.809 L 270.042 52.809 L 270.042 52.809 Q 266.73 58.429 263.037 64.185 L 263.037 64.185 L 263.037 79.39 Z " fill="rgb(247,192,0)"/><path d=" M 500.804 123.966 L 500.804 128.334 L 474.121 128.334 L 474.121 120.145 L 474.121 120.145 Q 474.121 114.412 473.097 112.843 L 473.097 112.843 L 473.097 112.843 Q 472.073 111.273 469.685 111.273 L 469.685 111.273 L 469.685 111.273 Q 467.092 111.273 465.761 113.389 L 465.761 113.389 L 465.761 113.389 Q 464.43 115.504 464.43 119.803 L 464.43 119.803 L 464.43 119.803 Q 464.43 125.331 465.931 128.129 L 465.931 128.129 L 465.931 128.129 Q 467.364 130.927 474.052 134.885 L 474.052 134.885 L 474.052 134.885 Q 493.229 146.282 498.211 153.584 L 498.211 153.584 L 498.211 153.584 Q 503.192 160.886 503.192 177.128 L 503.192 177.128 L 503.192 177.128 Q 503.192 188.934 500.429 194.53 L 500.429 194.53 L 500.429 194.53 Q 497.665 200.126 489.748 203.914 L 489.748 203.914 L 489.748 203.914 Q 481.832 207.701 471.323 207.701 L 471.323 207.701 L 471.323 207.701 Q 459.789 207.701 451.634 203.334 L 451.634 203.334 L 451.634 203.334 Q 443.479 198.966 440.954 192.21 L 440.954 192.21 L 440.954 192.21 Q 438.429 185.454 438.429 173.034 L 438.429 173.034 L 438.429 165.8 L 465.112 165.8 L 465.112 179.244 L 465.112 179.244 Q 465.112 185.454 466.238 187.228 L 466.238 187.228 L 466.238 187.228 Q 467.364 189.003 470.231 189.003 L 470.231 189.003 L 470.231 189.003 Q 473.097 189.003 474.496 186.751 L 474.496 186.751 L 474.496 186.751 Q 475.895 184.499 475.895 180.063 L 475.895 180.063 L 475.895 180.063 Q 475.895 170.304 473.233 167.301 L 473.233 167.301 L 473.233 167.301 Q 470.504 164.298 459.789 157.269 L 459.789 157.269 L 459.789 157.269 Q 449.075 150.172 445.595 146.964 L 445.595 146.964 L 445.595 146.964 Q 442.114 143.757 439.828 138.093 L 439.828 138.093 L 439.828 138.093 Q 437.542 132.429 437.542 123.625 L 437.542 123.625 L 437.542 123.625 Q 437.542 110.932 440.784 105.063 L 440.784 105.063 L 440.784 105.063 Q 444.025 99.194 451.259 95.884 L 451.259 95.884 L 451.259 95.884 Q 458.493 92.574 468.729 92.574 L 468.729 92.574 L 468.729 92.574 Q 479.921 92.574 487.803 96.191 L 487.803 96.191 L 487.803 96.191 Q 495.686 99.808 498.245 105.302 L 498.245 105.302 L 498.245 105.302 Q 500.804 110.795 500.804 123.966 L 500.804 123.966 Z  M 551.456 94.895 L 577.866 94.895 L 556.915 165.39 L 556.915 205.381 L 530.3 205.381 L 530.3 165.39 L 510.1 94.895 L 536.511 94.895 L 536.511 94.895 Q 542.721 127.174 543.471 138.366 L 543.471 138.366 L 543.471 138.366 Q 545.86 120.691 551.456 94.895 L 551.456 94.895 Z  M 648.104 123.966 L 648.104 128.334 L 621.421 128.334 L 621.421 120.145 L 621.421 120.145 Q 621.421 114.412 620.397 112.843 L 620.397 112.843 L 620.397 112.843 Q 619.374 111.273 616.985 111.273 L 616.985 111.273 L 616.985 111.273 Q 614.392 111.273 613.061 113.389 L 613.061 113.389 L 613.061 113.389 Q 611.73 115.504 611.73 119.803 L 611.73 119.803 L 611.73 119.803 Q 611.73 125.331 613.232 128.129 L 613.232 128.129 L 613.232 128.129 Q 614.665 130.927 621.353 134.885 L 621.353 134.885 L 621.353 134.885 Q 640.529 146.282 645.511 153.584 L 645.511 153.584 L 645.511 153.584 Q 650.493 160.886 650.493 177.128 L 650.493 177.128 L 650.493 177.128 Q 650.493 188.934 647.729 194.53 L 647.729 194.53 L 647.729 194.53 Q 644.965 200.126 637.049 203.914 L 637.049 203.914 L 637.049 203.914 Q 629.132 207.701 618.623 207.701 L 618.623 207.701 L 618.623 207.701 Q 607.09 207.701 598.935 203.334 L 598.935 203.334 L 598.935 203.334 Q 590.779 198.966 588.254 192.21 L 588.254 192.21 L 588.254 192.21 Q 585.729 185.454 585.729 173.034 L 585.729 173.034 L 585.729 165.8 L 612.413 165.8 L 612.413 179.244 L 612.413 179.244 Q 612.413 185.454 613.539 187.228 L 613.539 187.228 L 613.539 187.228 Q 614.665 189.003 617.531 189.003 L 617.531 189.003 L 617.531 189.003 Q 620.397 189.003 621.796 186.751 L 621.796 186.751 L 621.796 186.751 Q 623.195 184.499 623.195 180.063 L 623.195 180.063 L 623.195 180.063 Q 623.195 170.304 620.534 167.301 L 620.534 167.301 L 620.534 167.301 Q 617.804 164.298 607.09 157.269 L 607.09 157.269 L 607.09 157.269 Q 596.375 150.172 592.895 146.964 L 592.895 146.964 L 592.895 146.964 Q 589.415 143.757 587.128 138.093 L 587.128 138.093 L 587.128 138.093 Q 584.842 132.429 584.842 123.625 L 584.842 123.625 L 584.842 123.625 Q 584.842 110.932 588.084 105.063 L 588.084 105.063 L 588.084 105.063 Q 591.325 99.194 598.559 95.884 L 598.559 95.884 L 598.559 95.884 Q 605.793 92.574 616.03 92.574 L 616.03 92.574 L 616.03 92.574 Q 627.222 92.574 635.104 96.191 L 635.104 96.191 L 635.104 96.191 Q 642.986 99.808 645.545 105.302 L 645.545 105.302 L 645.545 105.302 Q 648.104 110.795 648.104 123.966 L 648.104 123.966 Z  M 659.038 94.895 L 721.823 94.895 L 721.823 117.006 L 704.762 117.006 L 704.762 205.381 L 676.031 205.381 L 676.031 117.006 L 659.038 117.006 L 659.038 94.895 Z  M 732.825 205.381 L 732.825 94.895 L 780.732 94.895 L 780.732 117.006 L 761.556 117.006 L 761.556 137.956 L 779.504 137.956 L 779.504 158.975 L 761.556 158.975 L 761.556 183.27 L 782.643 183.27 L 782.643 205.381 L 732.825 205.381 Z  M 846.534 94.895 L 884 94.895 L 884 205.381 L 858.886 205.381 L 858.886 130.791 L 848.855 205.381 L 831.043 205.381 L 820.465 132.497 L 820.465 205.381 L 795.351 205.381 L 795.351 94.895 L 832.544 94.895 L 832.544 94.895 Q 834.182 104.858 836.025 118.37 L 836.025 118.37 L 839.983 146.487 L 846.534 94.895 Z  M 128.254 205.381 L 128.254 94.895 L 149.751 94.895 L 149.751 94.895 Q 170.565 94.895 177.901 96.805 L 177.901 96.805 L 177.901 96.805 Q 185.237 98.716 189.059 103.084 L 189.059 103.084 L 189.059 103.084 Q 192.881 107.451 193.836 112.809 L 193.836 112.809 L 193.836 112.809 Q 194.791 118.166 194.791 133.862 L 194.791 133.862 L 194.791 172.556 L 194.791 172.556 Q 194.791 187.433 193.392 192.449 L 193.392 192.449 L 193.392 192.449 Q 191.993 197.465 188.513 200.297 L 188.513 200.297 L 188.513 200.297 Q 185.033 203.129 179.914 204.255 L 179.914 204.255 L 179.914 204.255 Q 174.796 205.381 164.491 205.381 L 164.491 205.381 L 128.254 205.381 Z  M 156.984 113.798 L 156.984 113.798 L 156.984 186.478 L 156.984 186.478 Q 163.195 186.478 164.628 183.987 L 164.628 183.987 L 164.628 183.987 Q 166.061 181.496 166.061 170.44 L 166.061 170.44 L 166.061 127.515 L 166.061 127.515 Q 166.061 120.008 165.583 117.893 L 165.583 117.893 L 165.583 117.893 Q 165.105 115.777 163.399 114.788 L 163.399 114.788 L 163.399 114.788 Q 161.693 113.798 156.984 113.798 Z  M 209.957 94.895 L 238.687 94.895 L 238.687 205.381 L 209.957 205.381 L 209.957 94.895 Z  M 315.545 123.966 L 315.545 128.334 L 288.862 128.334 L 288.862 120.145 L 288.862 120.145 Q 288.862 114.412 287.838 112.843 L 287.838 112.843 L 287.838 112.843 Q 286.814 111.273 284.426 111.273 L 284.426 111.273 L 284.426 111.273 Q 281.833 111.273 280.502 113.389 L 280.502 113.389 L 280.502 113.389 Q 279.171 115.504 279.171 119.803 L 279.171 119.803 L 279.171 119.803 Q 279.171 125.331 280.672 128.129 L 280.672 128.129 L 280.672 128.129 Q 282.105 130.927 288.793 134.885 L 288.793 134.885 L 288.793 134.885 Q 307.97 146.282 312.952 153.584 L 312.952 153.584 L 312.952 153.584 Q 317.933 160.886 317.933 177.128 L 317.933 177.128 L 317.933 177.128 Q 317.933 188.934 315.17 194.53 L 315.17 194.53 L 315.17 194.53 Q 312.406 200.126 304.489 203.914 L 304.489 203.914 L 304.489 203.914 Q 296.573 207.701 286.064 207.701 L 286.064 207.701 L 286.064 207.701 Q 274.53 207.701 266.375 203.334 L 266.375 203.334 L 266.375 203.334 Q 258.22 198.966 255.695 192.21 L 255.695 192.21 L 255.695 192.21 Q 253.17 185.454 253.17 173.034 L 253.17 173.034 L 253.17 165.8 L 279.853 165.8 L 279.853 179.244 L 279.853 179.244 Q 279.853 185.454 280.979 187.228 L 280.979 187.228 L 280.979 187.228 Q 282.105 189.003 284.972 189.003 L 284.972 189.003 L 284.972 189.003 Q 287.838 189.003 289.237 186.751 L 289.237 186.751 L 289.237 186.751 Q 290.636 184.499 290.636 180.063 L 290.636 180.063 L 290.636 180.063 Q 290.636 170.304 287.974 167.301 L 287.974 167.301 L 287.974 167.301 Q 285.245 164.298 274.53 157.269 L 274.53 157.269 L 274.53 157.269 Q 263.816 150.172 260.336 146.964 L 260.336 146.964 L 260.336 146.964 Q 256.855 143.757 254.569 138.093 L 254.569 138.093 L 254.569 138.093 Q 252.283 132.429 252.283 123.625 L 252.283 123.625 L 252.283 123.625 Q 252.283 110.932 255.525 105.063 L 255.525 105.063 L 255.525 105.063 Q 258.766 99.194 266 95.884 L 266 95.884 L 266 95.884 Q 273.234 92.574 283.47 92.574 L 283.47 92.574 L 283.47 92.574 Q 294.662 92.574 302.544 96.191 L 302.544 96.191 L 302.544 96.191 Q 310.427 99.808 312.986 105.302 L 312.986 105.302 L 312.986 105.302 Q 315.545 110.795 315.545 123.966 L 315.545 123.966 Z  M 372.885 94.895 L 399.841 94.895 L 383.394 144.781 L 401.411 205.381 L 371.725 205.381 L 360.123 158.02 L 360.123 205.381 L 331.393 205.381 L 331.393 94.895 L 360.123 94.895 L 360.123 137.82 L 372.885 94.895 Z " fill="rgb(0,0,0)"/><path d=" M 497.243 120.406 L 497.243 124.773 L 470.56 124.773 L 470.56 116.584 L 470.56 116.584 Q 470.56 110.851 469.536 109.282 L 469.536 109.282 L 469.536 109.282 Q 468.512 107.712 466.124 107.712 L 466.124 107.712 L 466.124 107.712 Q 463.531 107.712 462.2 109.828 L 462.2 109.828 L 462.2 109.828 Q 460.869 111.943 460.869 116.243 L 460.869 116.243 L 460.869 116.243 Q 460.869 121.77 462.371 124.568 L 462.371 124.568 L 462.371 124.568 Q 463.804 127.366 470.492 131.325 L 470.492 131.325 L 470.492 131.325 Q 489.668 142.721 494.65 150.023 L 494.65 150.023 L 494.65 150.023 Q 499.632 157.325 499.632 173.567 L 499.632 173.567 L 499.632 173.567 Q 499.632 185.374 496.868 190.969 L 496.868 190.969 L 496.868 190.969 Q 494.104 196.565 486.188 200.353 L 486.188 200.353 L 486.188 200.353 Q 478.271 204.141 467.762 204.141 L 467.762 204.141 L 467.762 204.141 Q 456.229 204.141 448.073 199.773 L 448.073 199.773 L 448.073 199.773 Q 439.918 195.405 437.393 188.649 L 437.393 188.649 L 437.393 188.649 Q 434.868 181.893 434.868 169.473 L 434.868 169.473 L 434.868 162.239 L 461.552 162.239 L 461.552 175.683 L 461.552 175.683 Q 461.552 181.893 462.678 183.667 L 462.678 183.667 L 462.678 183.667 Q 463.804 185.442 466.67 185.442 L 466.67 185.442 L 466.67 185.442 Q 469.536 185.442 470.935 183.19 L 470.935 183.19 L 470.935 183.19 Q 472.334 180.938 472.334 176.502 L 472.334 176.502 L 472.334 176.502 Q 472.334 166.743 469.673 163.74 L 469.673 163.74 L 469.673 163.74 Q 466.943 160.738 456.229 153.708 L 456.229 153.708 L 456.229 153.708 Q 445.514 146.611 442.034 143.404 L 442.034 143.404 L 442.034 143.404 Q 438.553 140.196 436.267 134.532 L 436.267 134.532 L 436.267 134.532 Q 433.981 128.868 433.981 120.064 L 433.981 120.064 L 433.981 120.064 Q 433.981 107.371 437.223 101.502 L 437.223 101.502 L 437.223 101.502 Q 440.464 95.633 447.698 92.323 L 447.698 92.323 L 447.698 92.323 Q 454.932 89.013 465.169 89.013 L 465.169 89.013 L 465.169 89.013 Q 476.36 89.013 484.243 92.63 L 484.243 92.63 L 484.243 92.63 Q 492.125 96.247 494.684 101.741 L 494.684 101.741 L 494.684 101.741 Q 497.243 107.234 497.243 120.406 L 497.243 120.406 Z  M 547.895 91.334 L 574.305 91.334 L 553.355 161.829 L 553.355 201.82 L 526.74 201.82 L 526.74 161.829 L 506.539 91.334 L 532.95 91.334 L 532.95 91.334 Q 539.16 123.613 539.911 134.805 L 539.911 134.805 L 539.911 134.805 Q 542.299 117.13 547.895 91.334 L 547.895 91.334 Z  M 644.543 120.406 L 644.543 124.773 L 617.86 124.773 L 617.86 116.584 L 617.86 116.584 Q 617.86 110.851 616.836 109.282 L 616.836 109.282 L 616.836 109.282 Q 615.813 107.712 613.424 107.712 L 613.424 107.712 L 613.424 107.712 Q 610.831 107.712 609.5 109.828 L 609.5 109.828 L 609.5 109.828 Q 608.169 111.943 608.169 116.243 L 608.169 116.243 L 608.169 116.243 Q 608.169 121.77 609.671 124.568 L 609.671 124.568 L 609.671 124.568 Q 611.104 127.366 617.792 131.325 L 617.792 131.325 L 617.792 131.325 Q 636.968 142.721 641.95 150.023 L 641.95 150.023 L 641.95 150.023 Q 646.932 157.325 646.932 173.567 L 646.932 173.567 L 646.932 173.567 Q 646.932 185.374 644.168 190.969 L 644.168 190.969 L 644.168 190.969 Q 641.404 196.565 633.488 200.353 L 633.488 200.353 L 633.488 200.353 Q 625.572 204.141 615.062 204.141 L 615.062 204.141 L 615.062 204.141 Q 603.529 204.141 595.374 199.773 L 595.374 199.773 L 595.374 199.773 Q 587.219 195.405 584.694 188.649 L 584.694 188.649 L 584.694 188.649 Q 582.169 181.893 582.169 169.473 L 582.169 169.473 L 582.169 162.239 L 608.852 162.239 L 608.852 175.683 L 608.852 175.683 Q 608.852 181.893 609.978 183.667 L 609.978 183.667 L 609.978 183.667 Q 611.104 185.442 613.97 185.442 L 613.97 185.442 L 613.97 185.442 Q 616.836 185.442 618.235 183.19 L 618.235 183.19 L 618.235 183.19 Q 619.634 180.938 619.634 176.502 L 619.634 176.502 L 619.634 176.502 Q 619.634 166.743 616.973 163.74 L 616.973 163.74 L 616.973 163.74 Q 614.243 160.738 603.529 153.708 L 603.529 153.708 L 603.529 153.708 Q 592.815 146.611 589.334 143.404 L 589.334 143.404 L 589.334 143.404 Q 585.854 140.196 583.568 134.532 L 583.568 134.532 L 583.568 134.532 Q 581.281 128.868 581.281 120.064 L 581.281 120.064 L 581.281 120.064 Q 581.281 107.371 584.523 101.502 L 584.523 101.502 L 584.523 101.502 Q 587.765 95.633 594.998 92.323 L 594.998 92.323 L 594.998 92.323 Q 602.232 89.013 612.469 89.013 L 612.469 89.013 L 612.469 89.013 Q 623.661 89.013 631.543 92.63 L 631.543 92.63 L 631.543 92.63 Q 639.425 96.247 641.984 101.741 L 641.984 101.741 L 641.984 101.741 Q 644.543 107.234 644.543 120.406 L 644.543 120.406 Z  M 655.478 91.334 L 718.262 91.334 L 718.262 113.445 L 701.201 113.445 L 701.201 201.82 L 672.47 201.82 L 672.47 113.445 L 655.478 113.445 L 655.478 91.334 Z  M 729.264 201.82 L 729.264 91.334 L 777.171 91.334 L 777.171 113.445 L 757.995 113.445 L 757.995 134.395 L 775.943 134.395 L 775.943 155.415 L 757.995 155.415 L 757.995 179.709 L 779.082 179.709 L 779.082 201.82 L 729.264 201.82 Z  M 842.973 91.334 L 880.439 91.334 L 880.439 201.82 L 855.325 201.82 L 855.325 127.23 L 845.294 201.82 L 827.482 201.82 L 816.904 128.936 L 816.904 201.82 L 791.791 201.82 L 791.791 91.334 L 828.983 91.334 L 828.983 91.334 Q 830.621 101.297 832.464 114.81 L 832.464 114.81 L 836.422 142.926 L 842.973 91.334 Z  M 124.693 201.82 L 124.693 91.334 L 146.19 91.334 L 146.19 91.334 Q 167.004 91.334 174.34 93.245 L 174.34 93.245 L 174.34 93.245 Q 181.676 95.155 185.498 99.523 L 185.498 99.523 L 185.498 99.523 Q 189.32 103.891 190.275 109.248 L 190.275 109.248 L 190.275 109.248 Q 191.231 114.605 191.231 130.301 L 191.231 130.301 L 191.231 168.995 L 191.231 168.995 Q 191.231 183.872 189.832 188.888 L 189.832 188.888 L 189.832 188.888 Q 188.433 193.904 184.952 196.736 L 184.952 196.736 L 184.952 196.736 Q 181.472 199.568 176.353 200.694 L 176.353 200.694 L 176.353 200.694 Q 171.235 201.82 160.93 201.82 L 160.93 201.82 L 124.693 201.82 Z  M 153.424 110.237 L 153.424 110.237 L 153.424 182.917 L 153.424 182.917 Q 159.634 182.917 161.067 180.426 L 161.067 180.426 L 161.067 180.426 Q 162.5 177.935 162.5 166.879 L 162.5 166.879 L 162.5 123.954 L 162.5 123.954 Q 162.5 116.447 162.022 114.332 L 162.022 114.332 L 162.022 114.332 Q 161.545 112.216 159.838 111.227 L 159.838 111.227 L 159.838 111.227 Q 158.132 110.237 153.424 110.237 Z  M 206.396 91.334 L 235.126 91.334 L 235.126 201.82 L 206.396 201.82 L 206.396 91.334 Z  M 311.984 120.406 L 311.984 124.773 L 285.301 124.773 L 285.301 116.584 L 285.301 116.584 Q 285.301 110.851 284.277 109.282 L 284.277 109.282 L 284.277 109.282 Q 283.253 107.712 280.865 107.712 L 280.865 107.712 L 280.865 107.712 Q 278.272 107.712 276.941 109.828 L 276.941 109.828 L 276.941 109.828 Q 275.61 111.943 275.61 116.243 L 275.61 116.243 L 275.61 116.243 Q 275.61 121.77 277.112 124.568 L 277.112 124.568 L 277.112 124.568 Q 278.545 127.366 285.233 131.325 L 285.233 131.325 L 285.233 131.325 Q 304.409 142.721 309.391 150.023 L 309.391 150.023 L 309.391 150.023 Q 314.373 157.325 314.373 173.567 L 314.373 173.567 L 314.373 173.567 Q 314.373 185.374 311.609 190.969 L 311.609 190.969 L 311.609 190.969 Q 308.845 196.565 300.929 200.353 L 300.929 200.353 L 300.929 200.353 Q 293.012 204.141 282.503 204.141 L 282.503 204.141 L 282.503 204.141 Q 270.97 204.141 262.814 199.773 L 262.814 199.773 L 262.814 199.773 Q 254.659 195.405 252.134 188.649 L 252.134 188.649 L 252.134 188.649 Q 249.609 181.893 249.609 169.473 L 249.609 169.473 L 249.609 162.239 L 276.293 162.239 L 276.293 175.683 L 276.293 175.683 Q 276.293 181.893 277.419 183.667 L 277.419 183.667 L 277.419 183.667 Q 278.545 185.442 281.411 185.442 L 281.411 185.442 L 281.411 185.442 Q 284.277 185.442 285.676 183.19 L 285.676 183.19 L 285.676 183.19 Q 287.075 180.938 287.075 176.502 L 287.075 176.502 L 287.075 176.502 Q 287.075 166.743 284.414 163.74 L 284.414 163.74 L 284.414 163.74 Q 281.684 160.738 270.97 153.708 L 270.97 153.708 L 270.97 153.708 Q 260.255 146.611 256.775 143.404 L 256.775 143.404 L 256.775 143.404 Q 253.294 140.196 251.008 134.532 L 251.008 134.532 L 251.008 134.532 Q 248.722 128.868 248.722 120.064 L 248.722 120.064 L 248.722 120.064 Q 248.722 107.371 251.964 101.502 L 251.964 101.502 L 251.964 101.502 Q 255.205 95.633 262.439 92.323 L 262.439 92.323 L 262.439 92.323 Q 269.673 89.013 279.91 89.013 L 279.91 89.013 L 279.91 89.013 Q 291.101 89.013 298.984 92.63 L 298.984 92.63 L 298.984 92.63 Q 306.866 96.247 309.425 101.741 L 309.425 101.741 L 309.425 101.741 Q 311.984 107.234 311.984 120.406 L 311.984 120.406 Z  M 369.324 91.334 L 396.28 91.334 L 379.833 141.22 L 397.85 201.82 L 368.164 201.82 L 356.562 154.459 L 356.562 201.82 L 327.832 201.82 L 327.832 91.334 L 356.562 91.334 L 356.562 134.259 L 369.324 91.334 Z " fill="rgb(247,192,0)"/></g></svg>