<?xml version="1.0" encoding="UTF-8" standalone="no"?><!-- Generator: Gravit.io --><svg xmlns="http://www.w3.org/2000/svg" xmlns:xlink="http://www.w3.org/1999/xlink" style="isolation:isolate" viewBox="0 0 992 250" width="992pt" height="250pt"><defs><clipPath id="_clipPath_ve4M5o4XmVEmTLiIotXYockszad0OC89"><rect width="992" height="250"/></clipPath></defs><g clip-path="url(#_clipPath_ve4M5o4XmVEmTLiIotXYockszad0OC89)"><path d=" M 169.777 38.25 L 833.723 38.25 C 871.958 38.25 903 69.292 903 107.527 L 903 137.723 C 903 175.958 871.958 207 833.723 207 L 169.777 207 C 131.542 207 100.5 175.958 100.5 137.723 L 100.5 107.527 C 100.5 69.292 131.542 38.25 169.777 38.25 Z " fill="rgb(75,100,210)"/><path d=" M 145.446 172.656 L 128.562 172.656 L 128.562 79.794 L 187.254 79.794 L 187.254 94.132 L 145.446 94.132 L 145.446 117.85 L 182.564 117.85 L 182.564 132.188 L 145.446 132.188 L 145.446 172.656 Z  M 219.28 158.05 L 261.088 158.05 L 261.088 172.656 L 202.396 172.656 L 202.396 79.794 L 219.28 79.794 L 219.28 158.05 Z  M 357.3 172.656 L 339.076 172.656 L 339.076 172.656 Q 337.195 167.162 335.18 161.802 L 335.18 161.802 L 335.18 161.802 Q 333.166 156.442 331.285 150.814 L 331.285 150.814 L 292.061 150.814 L 292.061 150.814 Q 290.18 156.442 288.232 161.869 L 288.232 161.869 L 288.232 161.869 Q 286.285 167.296 284.404 172.656 L 284.404 172.656 L 266.85 172.656 L 266.85 172.656 Q 272.071 157.782 276.757 145.186 L 276.757 145.186 L 276.757 145.186 Q 281.443 132.59 285.928 121.334 L 285.928 121.334 L 285.928 121.334 Q 290.413 110.078 294.832 99.894 L 294.832 99.894 L 294.832 99.894 Q 299.25 89.71 303.936 79.794 L 303.936 79.794 L 320.189 79.794 L 320.189 79.794 Q 324.861 89.71 329.267 99.894 L 329.267 99.894 L 329.267 99.894 Q 333.672 110.078 338.144 121.334 L 338.144 121.334 L 338.144 121.334 Q 342.616 132.59 347.355 145.186 L 347.355 145.186 L 347.355 145.186 Q 352.094 157.782 357.3 172.656 L 357.3 172.656 Z  M 311.673 97.75 L 311.673 97.75 L 311.673 97.75 Q 308.591 104.852 304.638 115.036 L 304.638 115.036 L 304.638 115.036 Q 300.685 125.22 296.397 137.146 L 296.397 137.146 L 326.949 137.146 L 326.949 137.146 Q 322.661 125.22 318.641 114.902 L 318.641 114.902 L 318.641 114.902 Q 314.621 104.584 311.673 97.75 Z  M 393.346 160.06 L 393.346 160.06 L 393.346 160.06 Q 402.458 160.06 406.612 156.978 L 406.612 156.978 L 406.612 156.978 Q 410.766 153.896 410.766 148.268 L 410.766 148.268 L 410.766 148.268 Q 410.766 144.918 409.359 142.506 L 409.359 142.506 L 409.359 142.506 Q 407.952 140.094 405.339 138.151 L 405.339 138.151 L 405.339 138.151 Q 402.726 136.208 398.974 134.533 L 398.974 134.533 L 398.974 134.533 Q 395.222 132.858 390.398 131.25 L 390.398 131.25 L 390.398 131.25 Q 385.574 129.508 381.085 127.431 L 381.085 127.431 L 381.085 127.431 Q 376.596 125.354 373.179 122.272 L 373.179 122.272 L 373.179 122.272 Q 369.762 119.19 367.685 114.902 L 367.685 114.902 L 367.685 114.902 Q 365.608 110.614 365.608 104.584 L 365.608 104.584 L 365.608 104.584 Q 365.608 91.988 374.318 84.819 L 374.318 84.819 L 374.318 84.819 Q 383.028 77.65 398.036 77.65 L 398.036 77.65 L 398.036 77.65 Q 406.746 77.65 413.513 79.593 L 413.513 79.593 L 413.513 79.593 Q 420.28 81.536 424.166 83.814 L 424.166 83.814 L 418.94 97.482 L 418.94 97.482 Q 414.384 94.936 408.957 93.596 L 408.957 93.596 L 408.957 93.596 Q 403.53 92.256 397.768 92.256 L 397.768 92.256 L 397.768 92.256 Q 390.934 92.256 387.115 95.07 L 387.115 95.07 L 387.115 95.07 Q 383.296 97.884 383.296 102.976 L 383.296 102.976 L 383.296 102.976 Q 383.296 106.058 384.569 108.269 L 384.569 108.269 L 384.569 108.269 Q 385.842 110.48 388.187 112.222 L 388.187 112.222 L 388.187 112.222 Q 390.532 113.964 393.681 115.438 L 393.681 115.438 L 393.681 115.438 Q 396.83 116.912 400.582 118.252 L 400.582 118.252 L 400.582 118.252 Q 407.148 120.664 412.307 123.143 L 412.307 123.143 L 412.307 123.143 Q 417.466 125.622 421.017 129.039 L 421.017 129.039 L 421.017 129.039 Q 424.568 132.456 426.444 137.079 L 426.444 137.079 L 426.444 137.079 Q 428.32 141.702 428.32 148.268 L 428.32 148.268 L 428.32 148.268 Q 428.32 160.864 419.409 167.765 L 419.409 167.765 L 419.409 167.765 Q 410.498 174.666 393.346 174.666 L 393.346 174.666 L 393.346 174.666 Q 387.584 174.666 382.827 173.929 L 382.827 173.929 L 382.827 173.929 Q 378.07 173.192 374.385 172.12 L 374.385 172.12 L 374.385 172.12 Q 370.7 171.048 368.02 169.909 L 368.02 169.909 L 368.02 169.909 Q 365.34 168.77 363.732 167.832 L 363.732 167.832 L 368.69 154.03 L 368.69 154.03 Q 372.308 156.04 378.472 158.05 L 378.472 158.05 L 378.472 158.05 Q 384.636 160.06 393.346 160.06 Z  M 500.412 116.912 L 500.412 79.794 L 517.296 79.794 L 517.296 172.656 L 500.412 172.656 L 500.412 131.518 L 460.078 131.518 L 460.078 172.656 L 443.194 172.656 L 443.194 79.794 L 460.078 79.794 L 460.078 116.912 L 500.412 116.912 Z  M 567.546 173.728 L 567.546 173.728 L 567.546 173.728 Q 560.176 173.728 552.672 173.259 L 552.672 173.259 L 552.672 173.259 Q 545.168 172.79 539.54 171.316 L 539.54 171.316 L 539.54 81.134 L 539.54 81.134 Q 542.488 80.598 545.838 80.129 L 545.838 80.129 L 545.838 80.129 Q 549.188 79.66 552.672 79.392 L 552.672 79.392 L 552.672 79.392 Q 556.156 79.124 559.573 78.99 L 559.573 78.99 L 559.573 78.99 Q 562.99 78.856 566.072 78.856 L 566.072 78.856 L 566.072 78.856 Q 574.514 78.856 581.75 80.129 L 581.75 80.129 L 581.75 80.129 Q 588.986 81.402 594.279 84.35 L 594.279 84.35 L 594.279 84.35 Q 599.572 87.298 602.52 92.122 L 602.52 92.122 L 602.52 92.122 Q 605.468 96.946 605.468 104.048 L 605.468 104.048 L 605.468 104.048 Q 605.468 110.614 602.319 115.304 L 602.319 115.304 L 602.319 115.304 Q 599.17 119.994 593.542 122.808 L 593.542 122.808 L 593.542 122.808 Q 601.984 125.622 606.004 131.116 L 606.004 131.116 L 606.004 131.116 Q 610.024 136.61 610.024 145.052 L 610.024 145.052 L 610.024 145.052 Q 610.024 159.39 599.572 166.559 L 599.572 166.559 L 599.572 166.559 Q 589.12 173.728 567.546 173.728 Z  M 571.03 130.848 L 556.156 130.848 L 556.156 159.122 L 556.156 159.122 Q 558.97 159.39 562.186 159.524 L 562.186 159.524 L 562.186 159.524 Q 565.402 159.658 568.082 159.658 L 568.082 159.658 L 568.082 159.658 Q 573.308 159.658 577.797 158.988 L 577.797 158.988 L 577.797 158.988 Q 582.286 158.318 585.569 156.643 L 585.569 156.643 L 585.569 156.643 Q 588.852 154.968 590.795 152.154 L 590.795 152.154 L 590.795 152.154 Q 592.738 149.34 592.738 144.918 L 592.738 144.918 L 592.738 144.918 Q 592.738 137.012 586.976 133.93 L 586.976 133.93 L 586.976 133.93 Q 581.214 130.848 571.03 130.848 L 571.03 130.848 Z  M 556.156 93.194 L 556.156 117.582 L 568.082 117.582 L 568.082 117.582 Q 577.73 117.582 583.224 114.835 L 583.224 114.835 L 583.224 114.835 Q 588.718 112.088 588.718 104.986 L 588.718 104.986 L 588.718 104.986 Q 588.718 98.286 583.023 95.472 L 583.023 95.472 L 583.023 95.472 Q 577.328 92.658 568.216 92.658 L 568.216 92.658 L 568.216 92.658 Q 564.33 92.658 561.315 92.792 L 561.315 92.792 L 561.315 92.792 Q 558.3 92.926 556.156 93.194 L 556.156 93.194 Z  M 707.576 172.656 L 689.352 172.656 L 689.352 172.656 Q 687.471 167.162 685.456 161.802 L 685.456 161.802 L 685.456 161.802 Q 683.442 156.442 681.561 150.814 L 681.561 150.814 L 642.337 150.814 L 642.337 150.814 Q 640.456 156.442 638.508 161.869 L 638.508 161.869 L 638.508 161.869 Q 636.561 167.296 634.68 172.656 L 634.68 172.656 L 617.126 172.656 L 617.126 172.656 Q 622.347 157.782 627.033 145.186 L 627.033 145.186 L 627.033 145.186 Q 631.719 132.59 636.204 121.334 L 636.204 121.334 L 636.204 121.334 Q 640.689 110.078 645.108 99.894 L 645.108 99.894 L 645.108 99.894 Q 649.526 89.71 654.212 79.794 L 654.212 79.794 L 670.465 79.794 L 670.465 79.794 Q 675.137 89.71 679.543 99.894 L 679.543 99.894 L 679.543 99.894 Q 683.948 110.078 688.42 121.334 L 688.42 121.334 L 688.42 121.334 Q 692.892 132.59 697.631 145.186 L 697.631 145.186 L 697.631 145.186 Q 702.37 157.782 707.576 172.656 L 707.576 172.656 Z  M 661.949 97.75 L 661.949 97.75 L 661.949 97.75 Q 658.867 104.852 654.914 115.036 L 654.914 115.036 L 654.914 115.036 Q 650.961 125.22 646.673 137.146 L 646.673 137.146 L 677.225 137.146 L 677.225 137.146 Q 672.937 125.22 668.917 114.902 L 668.917 114.902 L 668.917 114.902 Q 664.897 104.584 661.949 97.75 Z  M 758.228 174.666 L 758.228 174.666 L 758.228 174.666 Q 747.776 174.666 739.468 171.45 L 739.468 171.45 L 739.468 171.45 Q 731.16 168.234 725.398 162.003 L 725.398 162.003 L 725.398 162.003 Q 719.636 155.772 716.554 146.794 L 716.554 146.794 L 716.554 146.794 Q 713.472 137.816 713.472 126.158 L 713.472 126.158 L 713.472 126.158 Q 713.472 114.5 717.023 105.522 L 717.023 105.522 L 717.023 105.522 Q 720.574 96.544 726.738 90.313 L 726.738 90.313 L 726.738 90.313 Q 732.902 84.082 741.21 80.866 L 741.21 80.866 L 741.21 80.866 Q 749.518 77.65 759.032 77.65 L 759.032 77.65 L 759.032 77.65 Q 764.794 77.65 769.484 78.521 L 769.484 78.521 L 769.484 78.521 Q 774.174 79.392 777.658 80.464 L 777.658 80.464 L 777.658 80.464 Q 781.142 81.536 783.42 82.742 L 783.42 82.742 L 783.42 82.742 Q 785.698 83.948 786.636 84.484 L 786.636 84.484 L 781.678 98.286 L 781.678 98.286 Q 778.462 96.276 772.499 94.467 L 772.499 94.467 L 772.499 94.467 Q 766.536 92.658 759.568 92.658 L 759.568 92.658 L 759.568 92.658 Q 753.538 92.658 748.312 94.735 L 748.312 94.735 L 748.312 94.735 Q 743.086 96.812 739.267 100.966 L 739.267 100.966 L 739.267 100.966 Q 735.448 105.12 733.304 111.418 L 733.304 111.418 L 733.304 111.418 Q 731.16 117.716 731.16 126.024 L 731.16 126.024 L 731.16 126.024 Q 731.16 133.394 732.835 139.558 L 732.835 139.558 L 732.835 139.558 Q 734.51 145.722 737.994 150.211 L 737.994 150.211 L 737.994 150.211 Q 741.478 154.7 746.838 157.179 L 746.838 157.179 L 746.838 157.179 Q 752.198 159.658 759.702 159.658 L 759.702 159.658 L 759.702 159.658 Q 768.68 159.658 774.308 157.849 L 774.308 157.849 L 774.308 157.849 Q 779.936 156.04 783.018 154.432 L 783.018 154.432 L 787.574 168.234 L 787.574 168.234 Q 785.966 169.306 783.219 170.378 L 783.219 170.378 L 783.219 170.378 Q 780.472 171.45 776.72 172.455 L 776.72 172.455 L 776.72 172.455 Q 772.968 173.46 768.278 174.063 L 768.278 174.063 L 768.278 174.063 Q 763.588 174.666 758.228 174.666 Z  M 877.89 172.656 L 857.924 172.656 L 857.924 172.656 Q 854.44 167.296 849.884 161.4 L 849.884 161.4 L 849.884 161.4 Q 845.328 155.504 840.303 150.01 L 840.303 150.01 L 840.303 150.01 Q 835.278 144.516 829.918 139.558 L 829.918 139.558 L 829.918 139.558 Q 824.558 134.6 819.332 130.982 L 819.332 130.982 L 819.332 172.656 L 802.448 172.656 L 802.448 79.794 L 819.332 79.794 L 819.332 118.118 L 819.332 118.118 Q 823.754 113.696 828.578 108.671 L 828.578 108.671 L 828.578 108.671 Q 833.402 103.646 838.159 98.487 L 838.159 98.487 L 838.159 98.487 Q 842.916 93.328 847.204 88.504 L 847.204 88.504 L 847.204 88.504 Q 851.492 83.68 854.976 79.794 L 854.976 79.794 L 875.21 79.794 L 875.21 79.794 Q 870.788 84.886 865.83 90.38 L 865.83 90.38 L 865.83 90.38 Q 860.872 95.874 855.646 101.435 L 855.646 101.435 L 855.646 101.435 Q 850.42 106.996 845.127 112.49 L 845.127 112.49 L 845.127 112.49 Q 839.834 117.984 834.742 122.942 L 834.742 122.942 L 834.742 122.942 Q 840.37 127.23 846.199 132.925 L 846.199 132.925 L 846.199 132.925 Q 852.028 138.62 857.656 145.119 L 857.656 145.119 L 857.656 145.119 Q 863.284 151.618 868.443 158.653 L 868.443 158.653 L 868.443 158.653 Q 873.602 165.688 877.89 172.656 L 877.89 172.656 Z " fill="rgb(0,0,0)"/><path d=" M 142.446 168.656 L 125.562 168.656 L 125.562 75.794 L 184.254 75.794 L 184.254 90.132 L 142.446 90.132 L 142.446 113.85 L 179.564 113.85 L 179.564 128.188 L 142.446 128.188 L 142.446 168.656 Z  M 216.28 154.05 L 258.088 154.05 L 258.088 168.656 L 199.396 168.656 L 199.396 75.794 L 216.28 75.794 L 216.28 154.05 Z  M 354.3 168.656 L 336.076 168.656 L 336.076 168.656 Q 334.195 163.162 332.18 157.802 L 332.18 157.802 L 332.18 157.802 Q 330.166 152.442 328.285 146.814 L 328.285 146.814 L 289.061 146.814 L 289.061 146.814 Q 287.18 152.442 285.232 157.869 L 285.232 157.869 L 285.232 157.869 Q 283.285 163.296 281.404 168.656 L 281.404 168.656 L 263.85 168.656 L 263.85 168.656 Q 269.071 153.782 273.757 141.186 L 273.757 141.186 L 273.757 141.186 Q 278.443 128.59 282.928 117.334 L 282.928 117.334 L 282.928 117.334 Q 287.413 106.078 291.832 95.894 L 291.832 95.894 L 291.832 95.894 Q 296.25 85.71 300.936 75.794 L 300.936 75.794 L 317.189 75.794 L 317.189 75.794 Q 321.861 85.71 326.267 95.894 L 326.267 95.894 L 326.267 95.894 Q 330.672 106.078 335.144 117.334 L 335.144 117.334 L 335.144 117.334 Q 339.616 128.59 344.355 141.186 L 344.355 141.186 L 344.355 141.186 Q 349.094 153.782 354.3 168.656 L 354.3 168.656 Z  M 308.673 93.75 L 308.673 93.75 L 308.673 93.75 Q 305.591 100.852 301.638 111.036 L 301.638 111.036 L 301.638 111.036 Q 297.685 121.22 293.397 133.146 L 293.397 133.146 L 323.949 133.146 L 323.949 133.146 Q 319.661 121.22 315.641 110.902 L 315.641 110.902 L 315.641 110.902 Q 311.621 100.584 308.673 93.75 Z  M 390.346 156.06 L 390.346 156.06 L 390.346 156.06 Q 399.458 156.06 403.612 152.978 L 403.612 152.978 L 403.612 152.978 Q 407.766 149.896 407.766 144.268 L 407.766 144.268 L 407.766 144.268 Q 407.766 140.918 406.359 138.506 L 406.359 138.506 L 406.359 138.506 Q 404.952 136.094 402.339 134.151 L 402.339 134.151 L 402.339 134.151 Q 399.726 132.208 395.974 130.533 L 395.974 130.533 L 395.974 130.533 Q 392.222 128.858 387.398 127.25 L 387.398 127.25 L 387.398 127.25 Q 382.574 125.508 378.085 123.431 L 378.085 123.431 L 378.085 123.431 Q 373.596 121.354 370.179 118.272 L 370.179 118.272 L 370.179 118.272 Q 366.762 115.19 364.685 110.902 L 364.685 110.902 L 364.685 110.902 Q 362.608 106.614 362.608 100.584 L 362.608 100.584 L 362.608 100.584 Q 362.608 87.988 371.318 80.819 L 371.318 80.819 L 371.318 80.819 Q 380.028 73.65 395.036 73.65 L 395.036 73.65 L 395.036 73.65 Q 403.746 73.65 410.513 75.593 L 410.513 75.593 L 410.513 75.593 Q 417.28 77.536 421.166 79.814 L 421.166 79.814 L 415.94 93.482 L 415.94 93.482 Q 411.384 90.936 405.957 89.596 L 405.957 89.596 L 405.957 89.596 Q 400.53 88.256 394.768 88.256 L 394.768 88.256 L 394.768 88.256 Q 387.934 88.256 384.115 91.07 L 384.115 91.07 L 384.115 91.07 Q 380.296 93.884 380.296 98.976 L 380.296 98.976 L 380.296 98.976 Q 380.296 102.058 381.569 104.269 L 381.569 104.269 L 381.569 104.269 Q 382.842 106.48 385.187 108.222 L 385.187 108.222 L 385.187 108.222 Q 387.532 109.964 390.681 111.438 L 390.681 111.438 L 390.681 111.438 Q 393.83 112.912 397.582 114.252 L 397.582 114.252 L 397.582 114.252 Q 404.148 116.664 409.307 119.143 L 409.307 119.143 L 409.307 119.143 Q 414.466 121.622 418.017 125.039 L 418.017 125.039 L 418.017 125.039 Q 421.568 128.456 423.444 133.079 L 423.444 133.079 L 423.444 133.079 Q 425.32 137.702 425.32 144.268 L 425.32 144.268 L 425.32 144.268 Q 425.32 156.864 416.409 163.765 L 416.409 163.765 L 416.409 163.765 Q 407.498 170.666 390.346 170.666 L 390.346 170.666 L 390.346 170.666 Q 384.584 170.666 379.827 169.929 L 379.827 169.929 L 379.827 169.929 Q 375.07 169.192 371.385 168.12 L 371.385 168.12 L 371.385 168.12 Q 367.7 167.048 365.02 165.909 L 365.02 165.909 L 365.02 165.909 Q 362.34 164.77 360.732 163.832 L 360.732 163.832 L 365.69 150.03 L 365.69 150.03 Q 369.308 152.04 375.472 154.05 L 375.472 154.05 L 375.472 154.05 Q 381.636 156.06 390.346 156.06 Z  M 497.412 112.912 L 497.412 75.794 L 514.296 75.794 L 514.296 168.656 L 497.412 168.656 L 497.412 127.518 L 457.078 127.518 L 457.078 168.656 L 440.194 168.656 L 440.194 75.794 L 457.078 75.794 L 457.078 112.912 L 497.412 112.912 Z  M 564.546 169.728 L 564.546 169.728 L 564.546 169.728 Q 557.176 169.728 549.672 169.259 L 549.672 169.259 L 549.672 169.259 Q 542.168 168.79 536.54 167.316 L 536.54 167.316 L 536.54 77.134 L 536.54 77.134 Q 539.488 76.598 542.838 76.129 L 542.838 76.129 L 542.838 76.129 Q 546.188 75.66 549.672 75.392 L 549.672 75.392 L 549.672 75.392 Q 553.156 75.124 556.573 74.99 L 556.573 74.99 L 556.573 74.99 Q 559.99 74.856 563.072 74.856 L 563.072 74.856 L 563.072 74.856 Q 571.514 74.856 578.75 76.129 L 578.75 76.129 L 578.75 76.129 Q 585.986 77.402 591.279 80.35 L 591.279 80.35 L 591.279 80.35 Q 596.572 83.298 599.52 88.122 L 599.52 88.122 L 599.52 88.122 Q 602.468 92.946 602.468 100.048 L 602.468 100.048 L 602.468 100.048 Q 602.468 106.614 599.319 111.304 L 599.319 111.304 L 599.319 111.304 Q 596.17 115.994 590.542 118.808 L 590.542 118.808 L 590.542 118.808 Q 598.984 121.622 603.004 127.116 L 603.004 127.116 L 603.004 127.116 Q 607.024 132.61 607.024 141.052 L 607.024 141.052 L 607.024 141.052 Q 607.024 155.39 596.572 162.559 L 596.572 162.559 L 596.572 162.559 Q 586.12 169.728 564.546 169.728 Z  M 568.03 126.848 L 553.156 126.848 L 553.156 155.122 L 553.156 155.122 Q 555.97 155.39 559.186 155.524 L 559.186 155.524 L 559.186 155.524 Q 562.402 155.658 565.082 155.658 L 565.082 155.658 L 565.082 155.658 Q 570.308 155.658 574.797 154.988 L 574.797 154.988 L 574.797 154.988 Q 579.286 154.318 582.569 152.643 L 582.569 152.643 L 582.569 152.643 Q 585.852 150.968 587.795 148.154 L 587.795 148.154 L 587.795 148.154 Q 589.738 145.34 589.738 140.918 L 589.738 140.918 L 589.738 140.918 Q 589.738 133.012 583.976 129.93 L 583.976 129.93 L 583.976 129.93 Q 578.214 126.848 568.03 126.848 L 568.03 126.848 Z  M 553.156 89.194 L 553.156 113.582 L 565.082 113.582 L 565.082 113.582 Q 574.73 113.582 580.224 110.835 L 580.224 110.835 L 580.224 110.835 Q 585.718 108.088 585.718 100.986 L 585.718 100.986 L 585.718 100.986 Q 585.718 94.286 580.023 91.472 L 580.023 91.472 L 580.023 91.472 Q 574.328 88.658 565.216 88.658 L 565.216 88.658 L 565.216 88.658 Q 561.33 88.658 558.315 88.792 L 558.315 88.792 L 558.315 88.792 Q 555.3 88.926 553.156 89.194 L 553.156 89.194 Z  M 704.576 168.656 L 686.352 168.656 L 686.352 168.656 Q 684.471 163.162 682.456 157.802 L 682.456 157.802 L 682.456 157.802 Q 680.442 152.442 678.561 146.814 L 678.561 146.814 L 639.337 146.814 L 639.337 146.814 Q 637.456 152.442 635.508 157.869 L 635.508 157.869 L 635.508 157.869 Q 633.561 163.296 631.68 168.656 L 631.68 168.656 L 614.126 168.656 L 614.126 168.656 Q 619.347 153.782 624.033 141.186 L 624.033 141.186 L 624.033 141.186 Q 628.719 128.59 633.204 117.334 L 633.204 117.334 L 633.204 117.334 Q 637.689 106.078 642.108 95.894 L 642.108 95.894 L 642.108 95.894 Q 646.526 85.71 651.212 75.794 L 651.212 75.794 L 667.465 75.794 L 667.465 75.794 Q 672.137 85.71 676.543 95.894 L 676.543 95.894 L 676.543 95.894 Q 680.948 106.078 685.42 117.334 L 685.42 117.334 L 685.42 117.334 Q 689.892 128.59 694.631 141.186 L 694.631 141.186 L 694.631 141.186 Q 699.37 153.782 704.576 168.656 L 704.576 168.656 Z  M 658.949 93.75 L 658.949 93.75 L 658.949 93.75 Q 655.867 100.852 651.914 111.036 L 651.914 111.036 L 651.914 111.036 Q 647.961 121.22 643.673 133.146 L 643.673 133.146 L 674.225 133.146 L 674.225 133.146 Q 669.937 121.22 665.917 110.902 L 665.917 110.902 L 665.917 110.902 Q 661.897 100.584 658.949 93.75 Z  M 755.228 170.666 L 755.228 170.666 L 755.228 170.666 Q 744.776 170.666 736.468 167.45 L 736.468 167.45 L 736.468 167.45 Q 728.16 164.234 722.398 158.003 L 722.398 158.003 L 722.398 158.003 Q 716.636 151.772 713.554 142.794 L 713.554 142.794 L 713.554 142.794 Q 710.472 133.816 710.472 122.158 L 710.472 122.158 L 710.472 122.158 Q 710.472 110.5 714.023 101.522 L 714.023 101.522 L 714.023 101.522 Q 717.574 92.544 723.738 86.313 L 723.738 86.313 L 723.738 86.313 Q 729.902 80.082 738.21 76.866 L 738.21 76.866 L 738.21 76.866 Q 746.518 73.65 756.032 73.65 L 756.032 73.65 L 756.032 73.65 Q 761.794 73.65 766.484 74.521 L 766.484 74.521 L 766.484 74.521 Q 771.174 75.392 774.658 76.464 L 774.658 76.464 L 774.658 76.464 Q 778.142 77.536 780.42 78.742 L 780.42 78.742 L 780.42 78.742 Q 782.698 79.948 783.636 80.484 L 783.636 80.484 L 778.678 94.286 L 778.678 94.286 Q 775.462 92.276 769.499 90.467 L 769.499 90.467 L 769.499 90.467 Q 763.536 88.658 756.568 88.658 L 756.568 88.658 L 756.568 88.658 Q 750.538 88.658 745.312 90.735 L 745.312 90.735 L 745.312 90.735 Q 740.086 92.812 736.267 96.966 L 736.267 96.966 L 736.267 96.966 Q 732.448 101.12 730.304 107.418 L 730.304 107.418 L 730.304 107.418 Q 728.16 113.716 728.16 122.024 L 728.16 122.024 L 728.16 122.024 Q 728.16 129.394 729.835 135.558 L 729.835 135.558 L 729.835 135.558 Q 731.51 141.722 734.994 146.211 L 734.994 146.211 L 734.994 146.211 Q 738.478 150.7 743.838 153.179 L 743.838 153.179 L 743.838 153.179 Q 749.198 155.658 756.702 155.658 L 756.702 155.658 L 756.702 155.658 Q 765.68 155.658 771.308 153.849 L 771.308 153.849 L 771.308 153.849 Q 776.936 152.04 780.018 150.432 L 780.018 150.432 L 784.574 164.234 L 784.574 164.234 Q 782.966 165.306 780.219 166.378 L 780.219 166.378 L 780.219 166.378 Q 777.472 167.45 773.72 168.455 L 773.72 168.455 L 773.72 168.455 Q 769.968 169.46 765.278 170.063 L 765.278 170.063 L 765.278 170.063 Q 760.588 170.666 755.228 170.666 Z  M 874.89 168.656 L 854.924 168.656 L 854.924 168.656 Q 851.44 163.296 846.884 157.4 L 846.884 157.4 L 846.884 157.4 Q 842.328 151.504 837.303 146.01 L 837.303 146.01 L 837.303 146.01 Q 832.278 140.516 826.918 135.558 L 826.918 135.558 L 826.918 135.558 Q 821.558 130.6 816.332 126.982 L 816.332 126.982 L 816.332 168.656 L 799.448 168.656 L 799.448 75.794 L 816.332 75.794 L 816.332 114.118 L 816.332 114.118 Q 820.754 109.696 825.578 104.671 L 825.578 104.671 L 825.578 104.671 Q 830.402 99.646 835.159 94.487 L 835.159 94.487 L 835.159 94.487 Q 839.916 89.328 844.204 84.504 L 844.204 84.504 L 844.204 84.504 Q 848.492 79.68 851.976 75.794 L 851.976 75.794 L 872.21 75.794 L 872.21 75.794 Q 867.788 80.886 862.83 86.38 L 862.83 86.38 L 862.83 86.38 Q 857.872 91.874 852.646 97.435 L 852.646 97.435 L 852.646 97.435 Q 847.42 102.996 842.127 108.49 L 842.127 108.49 L 842.127 108.49 Q 836.834 113.984 831.742 118.942 L 831.742 118.942 L 831.742 118.942 Q 837.37 123.23 843.199 128.925 L 843.199 128.925 L 843.199 128.925 Q 849.028 134.62 854.656 141.119 L 854.656 141.119 L 854.656 141.119 Q 860.284 147.618 865.443 154.653 L 865.443 154.653 L 865.443 154.653 Q 870.602 161.688 874.89 168.656 L 874.89 168.656 Z " fill="rgb(255,255,255)"/></g></svg>