<?xml version="1.0" encoding="UTF-8" standalone="no"?><!-- Generator: Gravit.io --><svg xmlns="http://www.w3.org/2000/svg" xmlns:xlink="http://www.w3.org/1999/xlink" style="isolation:isolate" viewBox="0 0 992 250" width="992pt" height="250pt"><defs><clipPath id="_clipPath_ZWuhNJxq6Ni3g5n3Ji8CGqN5wfwz9RED"><rect width="992" height="250"/></clipPath></defs><g clip-path="url(#_clipPath_ZWuhNJxq6Ni3g5n3Ji8CGqN5wfwz9RED)"><path d=" M 125.944 61.428 C 141.033 41.233 162.096 28.77 172.951 33.613 C 183.807 38.456 180.371 58.783 165.282 78.977 C 150.194 99.172 129.131 111.635 118.275 106.792 C 107.419 101.949 110.856 81.622 125.944 61.428 Z " fill="rgb(181,47,47)"/><path d=" M 255.542 61.819 C 270.63 41.624 291.693 29.161 302.549 34.004 C 313.404 38.847 309.968 59.174 294.88 79.368 C 279.791 99.563 258.728 112.026 247.872 107.183 C 237.017 102.34 240.453 82.013 255.542 61.819 Z " fill="rgb(86,143,204)"/><path d=" M 189.874 61.428 C 204.962 41.233 226.025 28.77 236.881 33.613 C 247.737 38.456 244.3 58.783 229.212 78.977 C 214.123 99.172 193.06 111.635 182.204 106.792 C 171.349 101.949 174.785 81.622 189.874 61.428 Z " fill="rgb(46,147,61)"/><path d=" M 588.397 152.866 L 592.553 133.597 L 634.33 133.597 L 622.309 190.508 L 622.309 190.508 Q 612.366 193.943 603.869 195.175 L 603.869 195.175 L 603.869 195.175 Q 595.373 196.408 585.874 196.408 L 585.874 196.408 L 585.874 196.408 Q 566.655 196.408 556.192 185.429 L 556.192 185.429 L 556.192 185.429 Q 545.729 174.45 545.729 153.911 L 545.729 153.911 L 545.729 153.911 Q 545.729 133.896 553.669 117.726 L 553.669 117.726 L 553.669 117.726 Q 561.609 101.557 576.005 92.781 L 576.005 92.781 L 576.005 92.781 Q 590.401 84.005 609.249 84.005 L 609.249 84.005 L 609.249 84.005 Q 625.426 84.005 639.673 91.399 L 639.673 91.399 L 631.14 110.146 L 631.14 110.146 Q 625.648 107.158 620.157 105.366 L 620.157 105.366 L 620.157 105.366 Q 614.666 103.573 608.21 103.573 L 608.21 103.573 L 608.21 103.573 Q 596.857 103.573 587.915 109.772 L 587.915 109.772 L 587.915 109.772 Q 578.973 115.971 573.89 127.435 L 573.89 127.435 L 573.89 127.435 Q 568.807 138.9 568.807 152.119 L 568.807 152.119 L 568.807 152.119 Q 568.807 164.965 574.187 170.977 L 574.187 170.977 L 574.187 170.977 Q 579.567 176.989 590.698 176.989 L 590.698 176.989 L 590.698 176.989 Q 596.337 176.989 603.313 175.197 L 603.313 175.197 L 608.21 152.866 L 588.397 152.866 Z  M 710.02 175.794 L 706.013 194.914 L 645.387 194.914 L 668.317 85.723 L 729.017 85.723 L 725.009 104.693 L 687.016 104.693 L 682.045 128.668 L 717.44 128.668 L 713.359 147.638 L 677.963 147.638 L 672.027 175.794 L 710.02 175.794 Z  M 788.084 194.914 L 786.303 168.923 L 751.204 168.923 L 738.441 194.914 L 714.695 194.914 L 771.536 85.275 L 799.215 85.275 L 810.123 194.914 L 788.084 194.914 Z  M 760.48 149.505 L 785.19 149.505 L 783.261 123.365 L 783.261 123.365 Q 782.519 113.581 782.519 104.469 L 782.519 104.469 L 782.519 101.781 L 782.519 101.781 Q 779.254 110.743 774.43 120.751 L 774.43 120.751 L 760.48 149.505 Z  M 864.812 104.693 L 858.579 134.194 L 864.367 134.194 L 864.367 134.194 Q 874.088 134.194 879.505 129.937 L 879.505 129.937 L 879.505 129.937 Q 884.922 125.68 884.922 116.942 L 884.922 116.942 L 884.922 116.942 Q 884.922 110.818 881.397 107.756 L 881.397 107.756 L 881.397 107.756 Q 877.873 104.693 870.304 104.693 L 870.304 104.693 L 864.812 104.693 Z  M 863.477 153.015 L 854.646 153.015 L 845.816 194.914 L 823.183 194.914 L 846.113 85.723 L 872.752 85.723 L 872.752 85.723 Q 890.339 85.723 899.17 93.341 L 899.17 93.341 L 899.17 93.341 Q 908 100.959 908 115.672 L 908 115.672 L 908 115.672 Q 908 127.473 901.841 135.95 L 901.841 135.95 L 901.841 135.95 Q 895.682 144.426 884.106 148.534 L 884.106 148.534 L 903.473 194.914 L 878.837 194.914 L 863.477 153.015 Z  M 132.553 152.866 L 136.709 133.597 L 178.487 133.597 L 166.465 190.508 L 166.465 190.508 Q 156.522 193.943 148.025 195.175 L 148.025 195.175 L 148.025 195.175 Q 139.529 196.408 130.03 196.408 L 130.03 196.408 L 130.03 196.408 Q 110.811 196.408 100.348 185.429 L 100.348 185.429 L 100.348 185.429 Q 89.885 174.45 89.885 153.911 L 89.885 153.911 L 89.885 153.911 Q 89.885 133.896 97.825 117.726 L 97.825 117.726 L 97.825 117.726 Q 105.765 101.557 120.161 92.781 L 120.161 92.781 L 120.161 92.781 Q 134.557 84.005 153.405 84.005 L 153.405 84.005 L 153.405 84.005 Q 169.582 84.005 183.829 91.399 L 183.829 91.399 L 175.296 110.146 L 175.296 110.146 Q 169.805 107.158 164.313 105.366 L 164.313 105.366 L 164.313 105.366 Q 158.822 103.573 152.366 103.573 L 152.366 103.573 L 152.366 103.573 Q 141.013 103.573 132.071 109.772 L 132.071 109.772 L 132.071 109.772 Q 123.129 115.971 118.046 127.435 L 118.046 127.435 L 118.046 127.435 Q 112.963 138.9 112.963 152.119 L 112.963 152.119 L 112.963 152.119 Q 112.963 164.965 118.343 170.977 L 118.343 170.977 L 118.343 170.977 Q 123.723 176.989 134.854 176.989 L 134.854 176.989 L 134.854 176.989 Q 140.493 176.989 147.469 175.197 L 147.469 175.197 L 152.366 152.866 L 132.553 152.866 Z  M 249.872 194.914 L 248.091 168.923 L 212.992 168.923 L 200.229 194.914 L 176.483 194.914 L 233.324 85.275 L 261.003 85.275 L 271.911 194.914 L 249.872 194.914 Z  M 222.268 149.505 L 246.978 149.505 L 245.049 123.365 L 245.049 123.365 Q 244.307 113.581 244.307 104.469 L 244.307 104.469 L 244.307 101.781 L 244.307 101.781 Q 241.042 110.743 236.218 120.751 L 236.218 120.751 L 222.268 149.505 Z  M 342.926 167.355 L 343.223 167.355 L 384.11 85.723 L 415.499 85.723 L 392.569 194.914 L 371.792 194.914 L 382.551 143.231 L 382.551 143.231 Q 386.484 124.784 390.343 110.295 L 390.343 110.295 L 389.972 110.295 L 347.749 194.914 L 326.897 194.914 L 322.371 110.295 L 322.074 110.295 L 322.074 110.295 Q 321.258 116.867 319.254 127.547 L 319.254 127.547 L 319.254 127.547 Q 317.251 138.227 305.378 194.914 L 305.378 194.914 L 284.971 194.914 L 307.901 85.723 L 337.88 85.723 L 342.926 167.355 Z  M 483.322 175.794 L 479.315 194.914 L 418.689 194.914 L 441.619 85.723 L 502.319 85.723 L 498.312 104.693 L 460.319 104.693 L 455.347 128.668 L 490.743 128.668 L 486.662 147.638 L 451.266 147.638 L 445.329 175.794 L 483.322 175.794 Z " fill="rgb(0,0,0)"/><path d=" M 585.509 149.741 L 589.649 130.667 L 631.272 130.667 L 619.295 187.003 L 619.295 187.003 Q 609.388 190.404 600.923 191.624 L 600.923 191.624 L 600.923 191.624 Q 592.458 192.843 582.995 192.843 L 582.995 192.843 L 582.995 192.843 Q 563.847 192.843 553.422 181.975 L 553.422 181.975 L 553.422 181.975 Q 542.998 171.108 542.998 150.776 L 542.998 150.776 L 542.998 150.776 Q 542.998 130.963 550.909 114.957 L 550.909 114.957 L 550.909 114.957 Q 558.819 98.95 573.162 90.263 L 573.162 90.263 L 573.162 90.263 Q 587.505 81.576 606.283 81.576 L 606.283 81.576 L 606.283 81.576 Q 622.4 81.576 636.595 88.896 L 636.595 88.896 L 628.093 107.452 L 628.093 107.452 Q 622.622 104.495 617.151 102.721 L 617.151 102.721 L 617.151 102.721 Q 611.68 100.946 605.248 100.946 L 605.248 100.946 L 605.248 100.946 Q 593.937 100.946 585.028 107.083 L 585.028 107.083 L 585.028 107.083 Q 576.119 113.219 571.055 124.568 L 571.055 124.568 L 571.055 124.568 Q 565.991 135.916 565.991 149.002 L 565.991 149.002 L 565.991 149.002 Q 565.991 161.718 571.351 167.67 L 571.351 167.67 L 571.351 167.67 Q 576.711 173.621 587.8 173.621 L 587.8 173.621 L 587.8 173.621 Q 593.419 173.621 600.369 171.847 L 600.369 171.847 L 605.248 149.741 L 585.509 149.741 Z  M 706.682 172.438 L 702.69 191.365 L 642.288 191.365 L 665.133 83.277 L 725.609 83.277 L 721.617 102.055 L 683.764 102.055 L 678.81 125.787 L 714.076 125.787 L 710.009 144.566 L 674.744 144.566 L 668.829 172.438 L 706.682 172.438 Z  M 784.458 191.365 L 782.684 165.637 L 747.714 165.637 L 734.998 191.365 L 711.34 191.365 L 767.972 82.833 L 795.548 82.833 L 806.416 191.365 L 784.458 191.365 Z  M 756.956 146.414 L 781.575 146.414 L 779.653 120.538 L 779.653 120.538 Q 778.914 110.853 778.914 101.834 L 778.914 101.834 L 778.914 99.172 L 778.914 99.172 Q 775.661 108.044 770.855 117.951 L 770.855 117.951 L 756.956 146.414 Z  M 860.904 102.055 L 854.693 131.258 L 860.46 131.258 L 860.46 131.258 Q 870.145 131.258 875.542 127.044 L 875.542 127.044 L 875.542 127.044 Q 880.939 122.83 880.939 114.18 L 880.939 114.18 L 880.939 114.18 Q 880.939 108.118 877.427 105.087 L 877.427 105.087 L 877.427 105.087 Q 873.916 102.055 866.375 102.055 L 866.375 102.055 L 860.904 102.055 Z  M 859.573 149.889 L 850.775 149.889 L 841.977 191.365 L 819.428 191.365 L 842.273 83.277 L 868.814 83.277 L 868.814 83.277 Q 886.336 83.277 895.134 90.818 L 895.134 90.818 L 895.134 90.818 Q 903.932 98.359 903.932 112.923 L 903.932 112.923 L 903.932 112.923 Q 903.932 124.605 897.796 132.996 L 897.796 132.996 L 897.796 132.996 Q 891.659 141.387 880.126 145.453 L 880.126 145.453 L 899.422 191.365 L 874.877 191.365 L 859.573 149.889 Z  M 131.347 149.741 L 135.487 130.667 L 177.111 130.667 L 165.134 187.003 L 165.134 187.003 Q 155.227 190.404 146.762 191.624 L 146.762 191.624 L 146.762 191.624 Q 138.296 192.843 128.833 192.843 L 128.833 192.843 L 128.833 192.843 Q 109.685 192.843 99.261 181.975 L 99.261 181.975 L 99.261 181.975 Q 88.836 171.108 88.836 150.776 L 88.836 150.776 L 88.836 150.776 Q 88.836 130.963 96.747 114.957 L 96.747 114.957 L 96.747 114.957 Q 104.658 98.95 119 90.263 L 119 90.263 L 119 90.263 Q 133.343 81.576 152.122 81.576 L 152.122 81.576 L 152.122 81.576 Q 168.239 81.576 182.434 88.896 L 182.434 88.896 L 173.932 107.452 L 173.932 107.452 Q 168.461 104.495 162.99 102.721 L 162.99 102.721 L 162.99 102.721 Q 157.519 100.946 151.087 100.946 L 151.087 100.946 L 151.087 100.946 Q 139.775 100.946 130.866 107.083 L 130.866 107.083 L 130.866 107.083 Q 121.958 113.219 116.893 124.568 L 116.893 124.568 L 116.893 124.568 Q 111.829 135.916 111.829 149.002 L 111.829 149.002 L 111.829 149.002 Q 111.829 161.718 117.189 167.67 L 117.189 167.67 L 117.189 167.67 Q 122.549 173.621 133.639 173.621 L 133.639 173.621 L 133.639 173.621 Q 139.258 173.621 146.207 171.847 L 146.207 171.847 L 151.087 149.741 L 131.347 149.741 Z  M 248.233 191.365 L 246.458 165.637 L 211.489 165.637 L 198.773 191.365 L 175.114 191.365 L 231.746 82.833 L 259.322 82.833 L 270.19 191.365 L 248.233 191.365 Z  M 220.73 146.414 L 245.349 146.414 L 243.427 120.538 L 243.427 120.538 Q 242.688 110.853 242.688 101.834 L 242.688 101.834 L 242.688 99.172 L 242.688 99.172 Q 239.435 108.044 234.629 117.951 L 234.629 117.951 L 220.73 146.414 Z  M 340.943 164.084 L 341.239 164.084 L 381.975 83.277 L 413.248 83.277 L 390.403 191.365 L 369.702 191.365 L 380.422 140.204 L 380.422 140.204 Q 384.341 121.943 388.185 107.6 L 388.185 107.6 L 387.816 107.6 L 345.748 191.365 L 324.974 191.365 L 320.464 107.6 L 320.168 107.6 L 320.168 107.6 Q 319.355 114.106 317.359 124.679 L 317.359 124.679 L 317.359 124.679 Q 315.363 135.251 303.534 191.365 L 303.534 191.365 L 283.202 191.365 L 306.047 83.277 L 335.916 83.277 L 340.943 164.084 Z  M 480.821 172.438 L 476.829 191.365 L 416.427 191.365 L 439.272 83.277 L 499.748 83.277 L 495.756 102.055 L 457.903 102.055 L 452.949 125.787 L 488.215 125.787 L 484.148 144.566 L 448.883 144.566 L 442.968 172.438 L 480.821 172.438 Z " fill="rgb(239,195,4)"/></g></svg>