<?xml version="1.0" encoding="UTF-8" standalone="no"?><!-- Generator: Gravit.io --><svg xmlns="http://www.w3.org/2000/svg" xmlns:xlink="http://www.w3.org/1999/xlink" style="isolation:isolate" viewBox="0 0 992 250" width="992pt" height="250pt"><defs><clipPath id="_clipPath_qs1mEk36JKOvmcacItd9gEad8ekzQuvj"><rect width="992" height="250"/></clipPath></defs><g clip-path="url(#_clipPath_qs1mEk36JKOvmcacItd9gEad8ekzQuvj)"><path d=" M 594.061 72.393 L 627.022 72.393 L 627.022 72.393 Q 644.741 72.393 653.794 78.663 L 653.794 78.663 L 653.794 78.663 Q 662.846 84.932 662.846 97.394 L 662.846 97.394 L 662.846 97.394 Q 662.846 108.933 656.424 116.433 L 656.424 116.433 L 656.424 116.433 Q 650.002 123.933 638.164 126.394 L 638.164 126.394 L 638.164 126.856 L 638.164 126.856 Q 645.901 128.856 650.505 134.279 L 650.505 134.279 L 650.505 134.279 Q 655.109 139.702 655.109 148.164 L 655.109 148.164 L 655.109 148.164 Q 655.109 165.78 643.271 175.319 L 643.271 175.319 L 643.271 175.319 Q 631.433 184.857 610.542 184.857 L 610.542 184.857 L 570.152 184.857 L 594.061 72.393 Z  M 613.559 91.932 L 608.22 116.933 L 619.749 116.933 L 619.749 116.933 Q 629.111 116.933 633.792 113.202 L 633.792 113.202 L 633.792 113.202 Q 638.474 109.471 638.474 102.471 L 638.474 102.471 L 638.474 102.471 Q 638.474 91.932 625.32 91.932 L 625.32 91.932 L 613.559 91.932 Z  M 604.274 135.856 L 597.93 165.164 L 611.857 165.164 L 611.857 165.164 Q 620.91 165.164 626.055 160.703 L 626.055 160.703 L 626.055 160.703 Q 631.2 156.241 631.2 148.318 L 631.2 148.318 L 631.2 148.318 Q 631.2 135.856 617.041 135.856 L 617.041 135.856 L 604.274 135.856 Z  M 770.164 112.702 L 770.164 112.702 L 770.164 112.702 Q 770.164 134.472 762.504 151.664 L 762.504 151.664 L 762.504 151.664 Q 754.844 168.857 741.536 177.626 L 741.536 177.626 L 741.536 177.626 Q 728.227 186.396 710.896 186.396 L 710.896 186.396 L 710.896 186.396 Q 691.088 186.396 679.985 175.049 L 679.985 175.049 L 679.985 175.049 Q 668.882 163.703 668.882 143.549 L 668.882 143.549 L 668.882 143.549 Q 668.882 123.164 676.542 106.048 L 676.542 106.048 L 676.542 106.048 Q 684.202 88.932 697.665 79.778 L 697.665 79.778 L 697.665 79.778 Q 711.128 70.624 728.769 70.624 L 728.769 70.624 L 728.769 70.624 Q 748.499 70.624 759.332 81.701 L 759.332 81.701 L 759.332 81.701 Q 770.164 92.778 770.164 112.702 Z  M 726.835 90.471 L 726.835 90.471 L 726.835 90.471 Q 717.472 90.471 709.658 97.509 L 709.658 97.509 L 709.658 97.509 Q 701.843 104.548 697.394 116.856 L 697.394 116.856 L 697.394 116.856 Q 692.945 129.164 692.945 143.549 L 692.945 143.549 L 692.945 143.549 Q 692.945 154.857 698.09 160.626 L 698.09 160.626 L 698.09 160.626 Q 703.236 166.395 712.598 166.395 L 712.598 166.395 L 712.598 166.395 Q 721.96 166.395 729.659 159.703 L 729.659 159.703 L 729.659 159.703 Q 737.358 153.01 741.69 140.779 L 741.69 140.779 L 741.69 140.779 Q 746.023 128.548 746.023 113.317 L 746.023 113.317 L 746.023 113.317 Q 746.023 102.394 740.994 96.432 L 740.994 96.432 L 740.994 96.432 Q 735.965 90.471 726.835 90.471 Z  M 808.619 72.393 L 818.6 117.933 L 847.538 72.393 L 874 72.393 L 826.183 141.856 L 816.975 184.857 L 793.531 184.857 L 802.739 141.856 L 784.478 72.393 L 808.619 72.393 Z  M 169.51 141.549 L 173.843 121.702 L 217.404 121.702 L 204.87 180.319 L 204.87 180.319 Q 194.502 183.857 185.642 185.126 L 185.642 185.126 L 185.642 185.126 Q 176.783 186.396 166.879 186.396 L 166.879 186.396 L 166.879 186.396 Q 146.839 186.396 135.93 175.088 L 135.93 175.088 L 135.93 175.088 Q 125.02 163.78 125.02 142.626 L 125.02 142.626 L 125.02 142.626 Q 125.02 122.01 133.299 105.356 L 133.299 105.356 L 133.299 105.356 Q 141.578 88.701 156.588 79.663 L 156.588 79.663 L 156.588 79.663 Q 171.599 70.624 191.252 70.624 L 191.252 70.624 L 191.252 70.624 Q 208.119 70.624 222.975 78.24 L 222.975 78.24 L 214.077 97.548 L 214.077 97.548 Q 208.352 94.471 202.626 92.625 L 202.626 92.625 L 202.626 92.625 Q 196.9 90.778 190.169 90.778 L 190.169 90.778 L 190.169 90.778 Q 178.33 90.778 169.007 97.163 L 169.007 97.163 L 169.007 97.163 Q 159.683 103.548 154.383 115.356 L 154.383 115.356 L 154.383 115.356 Q 149.083 127.164 149.083 140.779 L 149.083 140.779 L 149.083 140.779 Q 149.083 154.01 154.693 160.203 L 154.693 160.203 L 154.693 160.203 Q 160.302 166.395 171.908 166.395 L 171.908 166.395 L 171.908 166.395 Q 177.789 166.395 185.062 164.549 L 185.062 164.549 L 190.169 141.549 L 169.51 141.549 Z  M 286.886 184.857 L 285.029 158.087 L 248.431 158.087 L 235.123 184.857 L 210.363 184.857 L 269.632 71.932 L 298.492 71.932 L 309.866 184.857 L 286.886 184.857 Z  M 258.103 138.087 L 283.869 138.087 L 281.857 111.163 L 281.857 111.163 Q 281.083 101.086 281.083 91.701 L 281.083 91.701 L 281.083 88.932 L 281.083 88.932 Q 277.679 98.163 272.649 108.471 L 272.649 108.471 L 258.103 138.087 Z  M 378.961 156.472 L 379.271 156.472 L 421.904 72.393 L 454.633 72.393 L 430.724 184.857 L 409.06 184.857 L 420.279 131.625 L 420.279 131.625 Q 424.38 112.625 428.403 97.702 L 428.403 97.702 L 428.016 97.702 L 383.991 184.857 L 362.248 184.857 L 357.529 97.702 L 357.219 97.702 L 357.219 97.702 Q 356.368 104.471 354.279 115.471 L 354.279 115.471 L 354.279 115.471 Q 352.19 126.471 339.81 184.857 L 339.81 184.857 L 318.532 184.857 L 342.441 72.393 L 373.7 72.393 L 378.961 156.472 Z  M 520.401 165.164 L 516.223 184.857 L 453.008 184.857 L 476.917 72.393 L 540.209 72.393 L 536.03 91.932 L 496.415 91.932 L 491.231 116.625 L 528.138 116.625 L 523.883 136.164 L 486.975 136.164 L 480.785 165.164 L 520.401 165.164 Z " fill="rgb(168,168,168)"/><path d=" M 591.041 69.374 L 624.002 69.374 L 624.002 69.374 Q 641.721 69.374 650.774 75.643 L 650.774 75.643 L 650.774 75.643 Q 659.827 81.912 659.827 94.374 L 659.827 94.374 L 659.827 94.374 Q 659.827 105.913 653.405 113.413 L 653.405 113.413 L 653.405 113.413 Q 646.983 120.913 635.144 123.375 L 635.144 123.375 L 635.144 123.836 L 635.144 123.836 Q 642.882 125.836 647.485 131.259 L 647.485 131.259 L 647.485 131.259 Q 652.089 136.683 652.089 145.144 L 652.089 145.144 L 652.089 145.144 Q 652.089 162.76 640.251 172.299 L 640.251 172.299 L 640.251 172.299 Q 628.413 181.837 607.522 181.837 L 607.522 181.837 L 567.133 181.837 L 591.041 69.374 Z  M 610.539 88.912 L 605.201 113.913 L 616.729 113.913 L 616.729 113.913 Q 626.092 113.913 630.773 110.182 L 630.773 110.182 L 630.773 110.182 Q 635.454 106.451 635.454 99.451 L 635.454 99.451 L 635.454 99.451 Q 635.454 88.912 622.3 88.912 L 622.3 88.912 L 610.539 88.912 Z  M 601.254 132.836 L 594.91 162.145 L 608.837 162.145 L 608.837 162.145 Q 617.89 162.145 623.035 157.683 L 623.035 157.683 L 623.035 157.683 Q 628.181 153.221 628.181 145.298 L 628.181 145.298 L 628.181 145.298 Q 628.181 132.836 614.021 132.836 L 614.021 132.836 L 601.254 132.836 Z  M 767.144 109.682 L 767.144 109.682 L 767.144 109.682 Q 767.144 131.452 759.484 148.644 L 759.484 148.644 L 759.484 148.644 Q 751.824 165.837 738.516 174.606 L 738.516 174.606 L 738.516 174.606 Q 725.208 183.376 707.876 183.376 L 707.876 183.376 L 707.876 183.376 Q 688.068 183.376 676.965 172.03 L 676.965 172.03 L 676.965 172.03 Q 665.862 160.683 665.862 140.529 L 665.862 140.529 L 665.862 140.529 Q 665.862 120.144 673.522 103.028 L 673.522 103.028 L 673.522 103.028 Q 681.182 85.912 694.645 76.758 L 694.645 76.758 L 694.645 76.758 Q 708.108 67.604 725.749 67.604 L 725.749 67.604 L 725.749 67.604 Q 745.48 67.604 756.312 78.681 L 756.312 78.681 L 756.312 78.681 Q 767.144 89.759 767.144 109.682 Z  M 723.815 87.451 L 723.815 87.451 L 723.815 87.451 Q 714.453 87.451 706.638 94.489 L 706.638 94.489 L 706.638 94.489 Q 698.823 101.528 694.374 113.836 L 694.374 113.836 L 694.374 113.836 Q 689.925 126.144 689.925 140.529 L 689.925 140.529 L 689.925 140.529 Q 689.925 151.837 695.07 157.606 L 695.07 157.606 L 695.07 157.606 Q 700.216 163.375 709.578 163.375 L 709.578 163.375 L 709.578 163.375 Q 718.94 163.375 726.639 156.683 L 726.639 156.683 L 726.639 156.683 Q 734.338 149.991 738.671 137.76 L 738.671 137.76 L 738.671 137.76 Q 743.004 125.529 743.004 110.297 L 743.004 110.297 L 743.004 110.297 Q 743.004 99.374 737.974 93.413 L 737.974 93.413 L 737.974 93.413 Q 732.945 87.451 723.815 87.451 Z  M 805.599 69.374 L 815.58 114.913 L 844.518 69.374 L 870.98 69.374 L 823.163 138.837 L 813.956 181.837 L 790.511 181.837 L 799.719 138.837 L 781.458 69.374 L 805.599 69.374 Z  M 166.49 138.529 L 170.823 118.682 L 214.385 118.682 L 201.85 177.299 L 201.85 177.299 Q 191.482 180.837 182.623 182.107 L 182.623 182.107 L 182.623 182.107 Q 173.763 183.376 163.859 183.376 L 163.859 183.376 L 163.859 183.376 Q 143.819 183.376 132.91 172.068 L 132.91 172.068 L 132.91 172.068 Q 122 160.76 122 139.606 L 122 139.606 L 122 139.606 Q 122 118.99 130.279 102.336 L 130.279 102.336 L 130.279 102.336 Q 138.558 85.682 153.569 76.643 L 153.569 76.643 L 153.569 76.643 Q 168.579 67.604 188.232 67.604 L 188.232 67.604 L 188.232 67.604 Q 205.1 67.604 219.955 75.22 L 219.955 75.22 L 211.057 94.528 L 211.057 94.528 Q 205.332 91.451 199.606 89.605 L 199.606 89.605 L 199.606 89.605 Q 193.88 87.759 187.149 87.759 L 187.149 87.759 L 187.149 87.759 Q 175.311 87.759 165.987 94.143 L 165.987 94.143 L 165.987 94.143 Q 156.664 100.528 151.363 112.336 L 151.363 112.336 L 151.363 112.336 Q 146.063 124.144 146.063 137.76 L 146.063 137.76 L 146.063 137.76 Q 146.063 150.991 151.673 157.183 L 151.673 157.183 L 151.673 157.183 Q 157.283 163.375 168.889 163.375 L 168.889 163.375 L 168.889 163.375 Q 174.769 163.375 182.042 161.529 L 182.042 161.529 L 187.149 138.529 L 166.49 138.529 Z  M 283.866 181.837 L 282.009 155.068 L 245.412 155.068 L 232.103 181.837 L 207.344 181.837 L 266.612 68.912 L 295.472 68.912 L 306.846 181.837 L 283.866 181.837 Z  M 255.083 135.067 L 280.849 135.067 L 278.837 108.144 L 278.837 108.144 Q 278.063 98.066 278.063 88.682 L 278.063 88.682 L 278.063 85.912 L 278.063 85.912 Q 274.659 95.143 269.63 105.451 L 269.63 105.451 L 255.083 135.067 Z  M 375.941 153.452 L 376.251 153.452 L 418.884 69.374 L 451.613 69.374 L 427.705 181.837 L 406.04 181.837 L 417.259 128.606 L 417.259 128.606 Q 421.36 109.605 425.383 94.682 L 425.383 94.682 L 424.997 94.682 L 380.971 181.837 L 359.229 181.837 L 354.509 94.682 L 354.199 94.682 L 354.199 94.682 Q 353.348 101.451 351.259 112.451 L 351.259 112.451 L 351.259 112.451 Q 349.17 123.452 336.79 181.837 L 336.79 181.837 L 315.512 181.837 L 339.421 69.374 L 370.68 69.374 L 375.941 153.452 Z  M 517.381 162.145 L 513.203 181.837 L 449.988 181.837 L 473.897 69.374 L 537.189 69.374 L 533.011 88.912 L 493.395 88.912 L 488.211 113.605 L 525.118 113.605 L 520.863 133.144 L 483.956 133.144 L 477.766 162.145 L 517.381 162.145 Z " fill="rgb(234,234,234)"/></g></svg>