<?xml version="1.0" encoding="UTF-8" standalone="no"?><!-- Generator: Gravit.io --><svg xmlns="http://www.w3.org/2000/svg" xmlns:xlink="http://www.w3.org/1999/xlink" style="isolation:isolate" viewBox="0 0 992 250" width="992pt" height="250pt"><defs><clipPath id="_clipPath_4lbjaXhDHekNFjqR4mzRr10UpR8jSFlR"><rect width="992" height="250"/></clipPath></defs><g clip-path="url(#_clipPath_4lbjaXhDHekNFjqR4mzRr10UpR8jSFlR)"><path d=" M 0 77 L 620.667 77 L 582.441 181 L 0 181 L 0 77 Z " fill="rgb(0,0,168)"/><path d=" M 577.266 94.194 L 992 94.194 L 992 175 L 577.266 175 L 577.266 94.194 Z " fill="rgb(0,0,168)"/><path d=" M 86.81 126.944 L 52.354 126.944 L 49.168 141.694 L 68.756 141.694 C 67.222 146.532 65.57 149.482 62.384 152.55 C 57.074 157.86 50.112 160.81 43.268 160.81 C 31.586 160.81 23.208 151.96 23.208 139.688 C 23.208 131.31 26.276 120.572 30.524 114.082 C 36.188 105.232 44.212 100.866 54.242 100.866 C 65.452 100.866 72.178 105.704 73.122 114.672 L 89.406 114.672 C 89.524 113.02 89.642 111.722 89.642 110.778 C 89.642 95.792 76.78 85.762 57.546 85.762 C 42.914 85.762 30.17 91.662 20.494 102.872 C 11.29 113.61 5.626 128.596 5.626 142.284 C 5.626 158.332 13.532 169.896 27.338 174.144 C 31.232 175.324 35.362 175.914 39.61 175.914 C 50.584 175.914 58.372 172.138 67.104 162.816 L 66.278 173.436 L 76.898 173.436 L 86.81 126.944 Z  M 145.456 155.854 L 147.58 173.2 L 165.634 173.2 L 154.188 87.178 L 133.774 87.178 L 85.748 173.2 L 103.802 173.2 L 113.36 155.854 L 145.456 155.854 Z  M 143.804 141.104 L 121.502 141.104 L 139.674 107.71 L 143.804 141.104 Z  M 226.522 173.2 L 258.264 100.158 L 242.688 173.2 L 259.444 173.2 L 277.734 87.178 L 251.892 87.178 L 221.92 153.258 L 219.56 87.178 L 193.954 87.178 L 175.664 173.2 L 192.42 173.2 L 207.996 100.158 L 208.822 173.2 L 226.522 173.2 Z  M 301.098 136.148 L 342.28 136.148 L 345.348 121.398 L 304.166 121.398 L 308.296 101.928 L 352.9 101.928 L 356.086 87.178 L 293.782 87.178 L 275.492 173.2 L 339.802 173.2 L 342.988 158.45 L 296.378 158.45 L 301.098 136.148 Z  M 354.552 173.2 L 393.256 173.2 C 403.168 173.2 410.13 171.312 416.266 166.946 C 422.402 162.462 427.122 155.5 428.774 148.184 C 429.128 146.414 429.364 144.644 429.364 143.11 C 429.364 136.62 427.004 132.136 420.986 127.416 C 430.072 121.516 434.792 114.082 434.792 105.822 C 434.792 101.22 433.022 96.618 430.072 93.432 C 425.824 89.184 419.924 87.178 411.192 87.178 L 372.842 87.178 L 354.552 173.2 Z  M 383.226 121.398 L 387.356 101.928 L 406.708 101.928 C 413.198 101.928 416.03 103.462 416.974 107.356 C 417.092 107.946 417.21 108.536 417.21 109.244 C 417.21 112.194 416.03 115.38 413.906 117.622 C 411.31 120.572 408.714 121.398 402.578 121.398 L 383.226 121.398 Z  M 375.438 158.45 L 380.158 136.148 L 401.162 136.148 C 407.298 136.148 410.366 137.8 411.546 141.458 C 411.782 142.402 411.9 143.346 411.9 144.29 C 411.9 147.24 410.838 150.544 409.186 153.022 C 406.472 157.034 403.168 158.45 396.442 158.45 L 375.438 158.45 Z  M 492.612 85.762 C 480.34 85.762 470.428 89.538 461.578 97.68 C 452.374 105.94 445.53 118.094 442.816 130.838 C 441.99 134.732 441.636 138.626 441.636 142.402 C 441.636 163.052 454.734 175.914 475.738 175.914 C 490.96 175.914 502.17 170.604 512.318 158.568 C 521.522 147.83 526.832 133.434 526.832 119.51 C 526.832 104.052 520.224 93.078 508.188 88.476 C 503.232 86.588 498.512 85.762 492.612 85.762 Z  M 490.37 100.866 C 502.17 100.866 509.25 108.654 509.25 121.634 C 509.25 138.508 500.164 154.556 487.892 159.158 C 484.942 160.338 481.992 160.81 478.57 160.81 C 469.838 160.81 463.23 156.444 460.752 149.01 C 459.69 146.178 459.218 143.11 459.218 139.924 C 459.218 123.168 468.54 107.356 481.166 102.518 C 484.116 101.338 486.948 100.866 490.37 100.866 Z  M 570.728 141.34 L 609.432 87.178 L 589.726 87.178 L 565.3 124.348 L 555.624 87.178 L 535.918 87.178 L 553.028 141.34 L 546.184 173.2 L 563.884 173.2 L 570.728 141.34 Z " fill-rule="evenodd" fill="rgb(255,255,255)"/><path d=" M 638.028 151.487 L 639.45 163.1 L 651.537 163.1 L 643.874 105.509 L 630.207 105.509 L 598.054 163.1 L 610.141 163.1 L 616.54 151.487 L 638.028 151.487 Z  M 636.922 141.612 L 621.991 141.612 L 634.157 119.255 L 636.922 141.612 Z  M 659.121 163.1 L 681.636 163.1 C 693.091 163.1 699.727 160.019 705.494 152.04 C 711.182 144.298 714.342 134.581 714.342 125.259 C 714.342 111.434 708.18 105.509 693.881 105.509 L 671.366 105.509 L 659.121 163.1 Z  M 673.104 153.225 L 681.083 115.384 L 691.748 115.384 C 696.488 115.384 699.727 116.885 701.149 119.65 C 702.097 121.546 702.571 123.758 702.571 126.049 C 702.571 132.29 700.517 140.427 697.831 145.088 C 694.434 151.013 690.563 153.225 683.69 153.225 L 673.104 153.225 Z  M 739.464 163.1 L 771.222 105.509 L 759.293 105.509 L 737.489 148.88 L 733.934 105.509 L 722.005 105.509 L 729.431 163.1 L 739.464 163.1 Z  M 797.529 151.487 L 798.951 163.1 L 811.038 163.1 L 803.375 105.509 L 789.708 105.509 L 757.555 163.1 L 769.642 163.1 L 776.041 151.487 L 797.529 151.487 Z  M 796.423 141.612 L 781.492 141.612 L 793.658 119.255 L 796.423 141.612 Z  M 877.003 105.509 L 865.785 105.509 L 857.174 146.194 L 842.006 105.509 L 830.156 105.509 L 817.911 163.1 L 829.129 163.1 L 837.898 121.783 L 853.066 163.1 L 864.758 163.1 L 877.003 105.509 Z  M 932.461 125.022 C 932.698 122.889 932.777 122.02 932.777 121.072 C 932.777 113.962 928.116 108.037 920.848 105.825 C 918.162 104.956 915.239 104.561 912.237 104.561 C 902.52 104.561 894.067 108.748 887.589 116.727 C 882.059 123.679 878.583 134.344 878.583 144.535 C 878.583 152.909 882.612 159.861 889.169 162.784 C 892.408 164.206 896.2 164.917 900.308 164.917 C 914.686 164.917 925.272 156.938 928.748 143.429 L 917.451 143.429 C 915.16 150.697 909.551 154.805 901.967 154.805 C 896.911 154.805 892.961 152.593 891.539 149.117 C 890.749 147.142 890.354 144.772 890.354 142.244 C 890.354 135.687 892.408 128.814 895.963 123.284 C 899.676 117.438 904.495 114.673 910.894 114.673 C 915.16 114.673 918.32 116.095 919.979 118.86 C 921.006 120.44 921.322 121.941 921.322 125.022 L 932.461 125.022 Z  M 950.552 138.294 L 978.123 138.294 L 980.177 128.419 L 952.606 128.419 L 955.371 115.384 L 985.233 115.384 L 987.366 105.509 L 945.654 105.509 L 933.409 163.1 L 976.464 163.1 L 978.597 153.225 L 947.392 153.225 L 950.552 138.294 Z " fill="rgb(255,255,255)"/></g></svg>