<?xml version="1.0" encoding="UTF-8" standalone="no"?><!-- Generator: Gravit.io --><svg xmlns="http://www.w3.org/2000/svg" xmlns:xlink="http://www.w3.org/1999/xlink" style="isolation:isolate" viewBox="0 0 992 250" width="992pt" height="250pt"><defs><clipPath id="_clipPath_JT8hyIV9KU4tgvSkIbvRJuX6ATgJpQxf"><rect width="992" height="250"/></clipPath></defs><g clip-path="url(#_clipPath_JT8hyIV9KU4tgvSkIbvRJuX6ATgJpQxf)"><path d=" M 380.938 84.576 L 407.563 84.576 L 407.563 84.576 Q 421.875 84.576 429.188 89.669 L 429.188 89.669 L 429.188 89.669 Q 436.5 94.763 436.5 104.888 L 436.5 104.888 L 436.5 104.888 Q 436.5 114.263 431.313 120.357 L 431.313 120.357 L 431.313 120.357 Q 426.125 126.451 416.563 128.451 L 416.563 128.451 L 416.563 128.826 L 416.563 128.826 Q 422.813 130.451 426.531 134.857 L 426.531 134.857 L 426.531 134.857 Q 430.25 139.263 430.25 146.138 L 430.25 146.138 L 430.25 146.138 Q 430.25 160.451 420.688 168.201 L 420.688 168.201 L 420.688 168.201 Q 411.125 175.951 394.25 175.951 L 394.25 175.951 L 361.625 175.951 L 380.938 84.576 L 380.938 84.576 Z  M 396.688 100.451 L 392.375 120.763 L 401.688 120.763 L 401.688 120.763 Q 409.25 120.763 413.031 117.732 L 413.031 117.732 L 413.031 117.732 Q 416.813 114.701 416.813 109.013 L 416.813 109.013 L 416.813 109.013 Q 416.813 100.451 406.188 100.451 L 406.188 100.451 L 396.688 100.451 L 396.688 100.451 Z  M 389.188 136.138 L 384.063 159.951 L 395.313 159.951 L 395.313 159.951 Q 402.625 159.951 406.781 156.326 L 406.781 156.326 L 406.781 156.326 Q 410.938 152.701 410.938 146.263 L 410.938 146.263 L 410.938 146.263 Q 410.938 136.138 399.5 136.138 L 399.5 136.138 L 389.188 136.138 L 389.188 136.138 Z  M 523.188 117.326 L 523.188 117.326 L 523.188 117.326 Q 523.188 135.013 517 148.982 L 517 148.982 L 517 148.982 Q 510.813 162.951 500.063 170.076 L 500.063 170.076 L 500.063 170.076 Q 489.313 177.201 475.313 177.201 L 475.313 177.201 L 475.313 177.201 Q 459.313 177.201 450.344 167.982 L 450.344 167.982 L 450.344 167.982 Q 441.375 158.763 441.375 142.388 L 441.375 142.388 L 441.375 142.388 Q 441.375 125.826 447.563 111.919 L 447.563 111.919 L 447.563 111.919 Q 453.75 98.013 464.625 90.576 L 464.625 90.576 L 464.625 90.576 Q 475.5 83.138 489.75 83.138 L 489.75 83.138 L 489.75 83.138 Q 505.688 83.138 514.438 92.138 L 514.438 92.138 L 514.438 92.138 Q 523.188 101.138 523.188 117.326 Z  M 488.188 99.263 L 488.188 99.263 L 488.188 99.263 Q 480.625 99.263 474.313 104.982 L 474.313 104.982 L 474.313 104.982 Q 468 110.701 464.406 120.701 L 464.406 120.701 L 464.406 120.701 Q 460.813 130.701 460.813 142.388 L 460.813 142.388 L 460.813 142.388 Q 460.813 151.576 464.969 156.263 L 464.969 156.263 L 464.969 156.263 Q 469.125 160.951 476.688 160.951 L 476.688 160.951 L 476.688 160.951 Q 484.25 160.951 490.469 155.513 L 490.469 155.513 L 490.469 155.513 Q 496.688 150.076 500.188 140.138 L 500.188 140.138 L 500.188 140.138 Q 503.688 130.201 503.688 117.826 L 503.688 117.826 L 503.688 117.826 Q 503.688 108.951 499.625 104.107 L 499.625 104.107 L 499.625 104.107 Q 495.563 99.263 488.188 99.263 Z  M 554.25 84.576 L 562.313 121.576 L 585.688 84.576 L 607.063 84.576 L 568.438 141.013 L 561 175.951 L 542.063 175.951 L 549.5 141.013 L 534.75 84.576 L 554.25 84.576 L 554.25 84.576 Z  M 38 140.763 L 41.5 124.638 L 76.688 124.638 L 66.563 172.263 L 66.563 172.263 Q 58.188 175.138 51.031 176.169 L 51.031 176.169 L 51.031 176.169 Q 43.875 177.201 35.875 177.201 L 35.875 177.201 L 35.875 177.201 Q 19.688 177.201 10.875 168.013 L 10.875 168.013 L 10.875 168.013 Q 2.063 158.826 2.063 141.638 L 2.063 141.638 L 2.063 141.638 Q 2.063 124.888 8.75 111.357 L 8.75 111.357 L 8.75 111.357 Q 15.438 97.826 27.563 90.482 L 27.563 90.482 L 27.563 90.482 Q 39.688 83.138 55.563 83.138 L 55.563 83.138 L 55.563 83.138 Q 69.188 83.138 81.188 89.326 L 81.188 89.326 L 74 105.013 L 74 105.013 Q 69.375 102.513 64.75 101.013 L 64.75 101.013 L 64.75 101.013 Q 60.125 99.513 54.688 99.513 L 54.688 99.513 L 54.688 99.513 Q 45.125 99.513 37.594 104.701 L 37.594 104.701 L 37.594 104.701 Q 30.063 109.888 25.781 119.482 L 25.781 119.482 L 25.781 119.482 Q 21.5 129.076 21.5 140.138 L 21.5 140.138 L 21.5 140.138 Q 21.5 150.888 26.031 155.919 L 26.031 155.919 L 26.031 155.919 Q 30.563 160.951 39.938 160.951 L 39.938 160.951 L 39.938 160.951 Q 44.688 160.951 50.563 159.451 L 50.563 159.451 L 54.688 140.763 L 38 140.763 L 38 140.763 Z  M 132.813 175.951 L 131.313 154.201 L 101.75 154.201 L 91 175.951 L 71 175.951 L 118.875 84.201 L 142.188 84.201 L 151.375 175.951 L 132.813 175.951 L 132.813 175.951 Z  M 109.563 137.951 L 130.375 137.951 L 128.75 116.076 L 128.75 116.076 Q 128.125 107.888 128.125 100.263 L 128.125 100.263 L 128.125 98.013 L 128.125 98.013 Q 125.375 105.513 121.313 113.888 L 121.313 113.888 L 109.563 137.951 L 109.563 137.951 Z  M 207.188 152.888 L 207.438 152.888 L 241.875 84.576 L 268.313 84.576 L 249 175.951 L 231.5 175.951 L 240.563 132.701 L 240.563 132.701 Q 243.875 117.263 247.125 105.138 L 247.125 105.138 L 246.813 105.138 L 211.25 175.951 L 193.688 175.951 L 189.875 105.138 L 189.625 105.138 L 189.625 105.138 Q 188.938 110.638 187.25 119.576 L 187.25 119.576 L 187.25 119.576 Q 185.563 128.513 175.563 175.951 L 175.563 175.951 L 158.375 175.951 L 177.688 84.576 L 202.938 84.576 L 207.188 152.888 L 207.188 152.888 Z  M 321.438 159.951 L 318.063 175.951 L 267 175.951 L 286.313 84.576 L 337.438 84.576 L 334.063 100.451 L 302.063 100.451 L 297.875 120.513 L 327.688 120.513 L 324.25 136.388 L 294.438 136.388 L 289.438 159.951 L 321.438 159.951 L 321.438 159.951 Z " fill="rgb(39,40,121)"/><path d=" M 679.836 105.219 L 679.836 105.219 L 679.836 105.219 Q 673.552 105.219 670.549 98.586 L 670.549 98.586 L 670.549 98.586 Q 669.153 95.444 667.756 94.815 L 667.756 94.815 L 667.756 94.815 Q 666.709 94.326 662.24 94.326 L 662.24 94.326 L 662.24 94.326 Q 653.442 94.326 641.921 108.012 L 641.921 108.012 L 641.921 108.012 Q 625.792 127.144 625.792 143.832 L 625.792 143.832 L 625.792 143.832 Q 625.792 151.443 630.889 156.889 L 630.889 156.889 L 630.889 156.889 Q 635.986 162.335 643.108 162.335 L 643.108 162.335 L 643.108 162.335 Q 650.021 162.335 657.143 158.704 L 657.143 158.704 L 657.143 158.704 Q 659.657 157.378 667.756 151.862 L 667.756 151.862 L 667.756 151.862 Q 673.203 148.231 675.996 148.231 L 675.996 148.231 L 675.996 148.231 Q 680.185 148.231 683.118 151.303 L 683.118 151.303 L 683.118 151.303 Q 685.841 154.166 685.841 157.867 L 685.841 157.867 L 685.841 157.867 Q 685.841 161.986 682.21 165.058 L 682.21 165.058 L 682.21 165.058 Q 663.008 181.258 643.108 181.258 L 643.108 181.258 L 643.108 181.258 Q 627.398 181.258 616.575 169.806 L 616.575 169.806 L 616.575 169.806 Q 606.241 158.774 606.241 143.832 L 606.241 143.832 L 606.241 143.832 Q 606.241 120.441 626.7 96.072 L 626.7 96.072 L 626.7 96.072 Q 644.086 75.404 662.24 75.404 L 662.24 75.404 L 662.24 75.404 Q 665.313 75.404 667.791 75.614 L 667.791 75.614 L 667.791 75.614 Q 670.27 75.823 672.155 76.242 L 672.155 76.242 L 672.155 76.242 Q 675.228 73.24 679.557 73.24 L 679.557 73.24 L 679.557 73.24 Q 686.679 73.24 688.354 81.409 L 688.354 81.409 L 688.354 81.409 Q 689.542 87.274 689.542 95.095 L 689.542 95.095 L 689.542 95.095 Q 689.542 98.586 687.517 101.449 L 687.517 101.449 L 687.517 101.449 Q 684.863 105.219 679.836 105.219 Z " fill="rgb(202,0,67)"/><path d=" M 717.125 181.982 L 717.125 181.982 L 717.125 181.982 Q 698.625 181.982 685.625 171.357 L 685.625 171.357 L 685.625 171.357 Q 671.75 159.982 671.75 141.919 L 671.75 141.919 L 671.75 141.919 Q 671.75 120.669 685.062 103.169 L 685.062 103.169 L 685.062 103.169 Q 700 83.482 722.687 83.482 L 722.687 83.482 L 722.687 83.482 Q 744.5 83.482 755.375 93.482 L 755.375 93.482 L 755.375 93.482 Q 766.25 103.482 766.25 123.544 L 766.25 123.544 L 766.25 123.544 Q 766.25 144.794 754 162.044 L 754 162.044 L 754 162.044 Q 739.875 181.982 717.125 181.982 Z  M 722.687 100.419 L 722.687 100.419 L 722.687 100.419 Q 708.75 100.419 698.812 113.919 L 698.812 113.919 L 698.812 113.919 Q 689.5 126.544 689.5 141.919 L 689.5 141.919 L 689.5 141.919 Q 689.5 152.294 697.562 158.794 L 697.562 158.794 L 697.562 158.794 Q 705.312 165.044 717.125 165.044 L 717.125 165.044 L 717.125 165.044 Q 730.875 165.044 740.062 151.544 L 740.062 151.544 L 740.062 151.544 Q 748.5 139.232 748.5 123.544 L 748.5 123.544 L 748.5 123.544 Q 748.5 110.419 742.625 105.294 L 742.625 105.294 L 742.625 105.294 Q 737 100.419 722.687 100.419 Z " fill="rgb(66,61,200)"/><path d=" M 820.792 164.794 L 820.792 164.794 L 820.792 164.794 Q 813.417 168.044 797.979 170.607 L 797.979 170.607 L 797.979 170.607 Q 783.854 172.982 774.792 172.982 L 774.792 172.982 L 774.792 172.982 Q 759.479 172.982 759.479 159.544 L 759.479 159.544 L 759.479 159.544 Q 759.479 160.607 760.729 139.732 L 760.729 139.732 L 760.729 139.732 Q 762.354 112.607 762.354 79.357 L 762.354 79.357 L 762.354 79.357 Q 762.354 75.794 764.823 73.294 L 764.823 73.294 L 764.823 73.294 Q 767.292 70.794 771.042 70.794 L 771.042 70.794 L 771.042 70.794 Q 774.792 70.794 777.292 73.294 L 777.292 73.294 L 777.292 73.294 Q 779.792 75.794 779.792 79.357 L 779.792 79.357 L 779.792 79.357 Q 779.792 112.669 778.104 140.732 L 778.104 140.732 L 778.104 140.732 Q 777.542 145.732 776.917 156.044 L 776.917 156.044 L 776.917 156.044 Q 791.729 155.794 814.917 148.794 L 814.917 148.794 L 814.917 148.794 Q 816.354 148.357 817.667 148.357 L 817.667 148.357 L 817.667 148.357 Q 821.604 148.357 824.042 151.232 L 824.042 151.232 L 824.042 151.232 Q 826.229 153.794 826.229 156.982 L 826.229 156.982 L 826.229 156.982 Q 826.229 162.357 820.792 164.794 Z " fill="rgb(82,153,0)"/><path d=" M 863.125 181.982 L 863.125 181.982 L 863.125 181.982 Q 844.625 181.982 831.625 171.357 L 831.625 171.357 L 831.625 171.357 Q 817.75 159.982 817.75 141.919 L 817.75 141.919 L 817.75 141.919 Q 817.75 120.669 831.062 103.169 L 831.062 103.169 L 831.062 103.169 Q 846 83.482 868.687 83.482 L 868.687 83.482 L 868.687 83.482 Q 890.5 83.482 901.375 93.482 L 901.375 93.482 L 901.375 93.482 Q 912.25 103.482 912.25 123.544 L 912.25 123.544 L 912.25 123.544 Q 912.25 144.794 900 162.044 L 900 162.044 L 900 162.044 Q 885.875 181.982 863.125 181.982 Z  M 868.687 100.419 L 868.687 100.419 L 868.687 100.419 Q 854.75 100.419 844.812 113.919 L 844.812 113.919 L 844.812 113.919 Q 835.5 126.544 835.5 141.919 L 835.5 141.919 L 835.5 141.919 Q 835.5 152.294 843.562 158.794 L 843.562 158.794 L 843.562 158.794 Q 851.312 165.044 863.125 165.044 L 863.125 165.044 L 863.125 165.044 Q 876.875 165.044 886.062 151.544 L 886.062 151.544 L 886.062 151.544 Q 894.5 139.232 894.5 123.544 L 894.5 123.544 L 894.5 123.544 Q 894.5 110.419 888.625 105.294 L 888.625 105.294 L 888.625 105.294 Q 883 100.419 868.687 100.419 Z " fill="rgb(187,152,24)"/><path d=" M 976.107 177.542 L 976.107 177.542 L 976.107 177.542 Q 972.521 177.542 969.533 174.753 L 969.533 174.753 L 969.533 174.753 Q 949.411 155.893 925.306 148.589 L 925.306 148.589 L 925.306 148.589 Q 926.036 167.913 926.036 170.038 L 926.036 170.038 L 926.036 170.038 Q 926.036 173.823 923.38 176.446 L 923.38 176.446 L 923.38 176.446 Q 920.724 179.069 916.74 179.069 L 916.74 179.069 L 916.74 179.069 Q 912.755 179.069 910.099 176.446 L 910.099 176.446 L 910.099 176.446 Q 907.443 173.823 907.443 170.038 L 907.443 170.038 L 907.443 170.038 Q 907.443 165.057 907.576 155.13 L 907.576 155.13 L 907.576 155.13 Q 907.708 145.202 907.708 140.222 L 907.708 140.222 L 907.841 86.632 L 907.841 86.632 Q 907.841 82.315 910.431 78.796 L 910.431 78.796 L 910.431 78.796 Q 913.818 74.28 919.794 74.745 L 919.794 74.745 L 919.794 74.745 Q 935.931 75.94 936.329 76.007 L 936.329 76.007 L 936.329 76.007 Q 945.626 77.136 952.134 80.456 L 952.134 80.456 L 952.134 80.456 Q 980.49 94.733 980.49 115.85 L 980.49 115.85 L 980.49 115.85 Q 980.49 124.55 974.546 131.223 L 974.546 131.223 L 974.546 131.223 Q 968.603 137.897 956.716 142.479 L 956.716 142.479 L 956.716 142.479 Q 974.314 152.307 983.212 162.534 L 983.212 162.534 L 983.212 162.534 Q 985.536 165.19 985.536 168.444 L 985.536 168.444 L 985.536 168.444 Q 985.536 172.163 982.747 174.852 L 982.747 174.852 L 982.747 174.852 Q 979.958 177.542 976.107 177.542 Z  M 933.54 94.003 L 933.54 94.003 L 933.54 94.003 Q 933.009 93.936 925.771 93.472 L 925.771 93.472 L 925.771 128.733 L 925.771 128.733 Q 927.431 128.8 928.693 128.8 L 928.693 128.8 L 928.693 128.8 Q 944.962 128.8 952.798 124.749 L 952.798 124.749 L 952.798 124.749 Q 956.185 123.022 959.007 120.167 L 959.007 120.167 L 959.007 120.167 Q 961.829 117.311 961.829 115.85 L 961.829 115.85 L 961.829 115.85 Q 961.829 108.413 952.4 101.507 L 952.4 101.507 L 952.4 101.507 Q 943.435 94.999 933.54 94.003 Z " fill="rgb(13,168,137)"/></g></svg>