<?xml version="1.0" encoding="UTF-8" standalone="no"?><!-- Generator: Gravit.io --><svg xmlns="http://www.w3.org/2000/svg" xmlns:xlink="http://www.w3.org/1999/xlink" style="isolation:isolate" viewBox="0 0 992 250" width="992pt" height="250pt"><defs><clipPath id="_clipPath_lRrSasgmsESJ31Wr2xu5ZSdSU1P2lTit"><rect width="992" height="250"/></clipPath></defs><g clip-path="url(#_clipPath_lRrSasgmsESJ31Wr2xu5ZSdSU1P2lTit)"><path d=" M 336.168 0.489 L 671.787 0.489 C 689.566 0.489 704 14.924 704 32.703 L 704 217.297 C 704 235.076 689.566 249.511 671.787 249.511 L 336.168 249.511 C 318.389 249.511 303.955 235.076 303.955 217.297 L 303.955 32.703 C 303.955 14.924 318.389 0.489 336.168 0.489 Z " fill="rgb(231,189,95)"/><path d=" M 340.415 2.625 L 667.539 2.625 C 686.623 2.625 702.117 15.717 702.117 31.844 L 702.117 218.156 C 702.117 234.283 686.623 247.375 667.539 247.375 L 340.415 247.375 C 321.332 247.375 305.838 234.283 305.838 218.156 L 305.838 31.844 C 305.838 15.717 321.332 2.625 340.415 2.625 Z  M 340.414 5.695 L 667.535 5.695 C 675.738 5.695 683.614 8.449 689.418 13.354 C 695.222 18.258 698.482 24.914 698.482 31.845 L 698.482 218.155 C 698.482 225.086 695.222 231.742 689.418 236.646 C 683.614 241.551 675.738 244.305 667.535 244.305 L 340.414 244.305 C 332.211 244.305 324.335 241.551 318.531 236.646 C 312.739 231.742 309.467 225.086 309.467 218.155 L 309.467 31.845 C 309.467 24.914 312.739 18.258 318.531 13.354 C 324.335 8.449 332.211 5.695 340.414 5.695 Z " fill-rule="evenodd" fill="rgb(0,0,0)"/><path d=" M 327.223 239.495 L 323.973 163.679 L 342.051 163.679 L 344.387 218.776 L 368.203 163.679 L 386.789 163.679 L 389.277 218.776 L 412.281 163.679 L 431.73 163.679 L 399.078 239.495 L 376.938 239.495 L 374.398 181.858 L 349.871 239.495 L 327.223 239.495 Z  M 470.527 213.901 L 461.793 213.901 L 461.793 213.901 Q 454.988 213.901 451.51 216.009 L 451.51 216.009 L 451.51 216.009 Q 448.031 218.116 448.031 222.23 L 448.031 222.23 L 448.031 222.23 Q 448.031 225.327 450.088 227.105 L 450.088 227.105 L 450.088 227.105 Q 452.145 228.882 455.75 228.882 L 455.75 228.882 L 455.75 228.882 Q 461.336 228.882 465.094 225.505 L 465.094 225.505 L 465.094 225.505 Q 468.852 222.128 470.121 215.983 L 470.121 215.983 L 470.527 213.901 Z  M 490.18 207.046 L 490.18 207.046 L 483.832 239.495 L 465.652 239.495 L 467.176 231.065 L 467.176 231.065 Q 462.707 236.144 457.73 238.556 L 457.73 238.556 L 457.73 238.556 Q 452.754 240.968 446.914 240.968 L 446.914 240.968 L 446.914 240.968 Q 438.84 240.968 434.092 236.778 L 434.092 236.778 L 434.092 236.778 Q 429.344 232.589 429.344 225.48 L 429.344 225.48 L 429.344 225.48 Q 429.344 214.612 437.748 208.849 L 437.748 208.849 L 437.748 208.849 Q 446.152 203.085 461.996 203.085 L 461.996 203.085 L 472.711 203.085 L 472.914 201.663 L 472.914 201.663 Q 473.066 200.952 473.092 200.648 L 473.092 200.648 L 473.092 200.648 Q 473.117 200.343 473.117 200.089 L 473.117 200.089 L 473.117 200.089 Q 473.117 196.737 469.943 195.036 L 469.943 195.036 L 469.943 195.036 Q 466.77 193.335 460.523 193.335 L 460.523 193.335 L 460.523 193.335 Q 454.887 193.335 449.605 194.503 L 449.605 194.503 L 449.605 194.503 Q 444.324 195.671 439.398 198.007 L 439.398 198.007 L 442.141 184.144 L 442.141 184.144 Q 447.828 182.722 453.795 181.985 L 453.795 181.985 L 453.795 181.985 Q 459.762 181.249 466.16 181.249 L 466.16 181.249 L 466.16 181.249 Q 478.805 181.249 484.949 185.591 L 484.949 185.591 L 484.949 185.591 Q 491.094 189.933 491.094 198.819 L 491.094 198.819 L 491.094 198.819 Q 491.094 200.546 490.865 202.603 L 490.865 202.603 L 490.865 202.603 Q 490.637 204.659 490.18 207.046 Z  M 516.891 166.472 L 535.172 166.472 L 532.074 182.62 L 550.66 182.62 L 548.07 195.62 L 529.484 195.62 L 524.813 219.69 L 524.813 219.69 Q 524.609 220.503 524.533 221.062 L 524.533 221.062 L 524.533 221.062 Q 524.457 221.62 524.457 222.128 L 524.457 222.128 L 524.457 222.128 Q 524.457 224.464 526.006 225.48 L 526.006 225.48 L 526.006 225.48 Q 527.555 226.495 531.211 226.495 L 531.211 226.495 L 540.605 226.495 L 538.016 239.495 L 522.73 239.495 L 522.73 239.495 Q 514.504 239.495 510.188 236.042 L 510.188 236.042 L 510.188 236.042 Q 505.871 232.589 505.871 226.089 L 505.871 226.089 L 505.871 226.089 Q 505.871 224.667 506.023 223.042 L 506.023 223.042 L 506.023 223.042 Q 506.176 221.417 506.48 219.741 L 506.48 219.741 L 511.152 195.62 L 502.215 195.62 L 504.703 182.62 L 513.742 182.62 L 516.891 166.472 Z  M 607.891 184.398 L 607.891 184.398 L 604.996 199.226 L 604.996 199.226 Q 601.34 196.788 597.785 195.519 L 597.785 195.519 L 597.785 195.519 Q 594.23 194.249 590.828 194.249 L 590.828 194.249 L 590.828 194.249 Q 581.941 194.249 576.305 200.216 L 576.305 200.216 L 576.305 200.216 Q 570.668 206.183 570.668 215.476 L 570.668 215.476 L 570.668 215.476 Q 570.668 221.417 574.172 224.692 L 574.172 224.692 L 574.172 224.692 Q 577.676 227.968 584.074 227.968 L 584.074 227.968 L 584.074 227.968 Q 588.34 227.968 592.453 226.698 L 592.453 226.698 L 592.453 226.698 Q 596.566 225.429 600.273 222.94 L 600.273 222.94 L 597.48 237.819 L 597.48 237.819 Q 592.961 239.394 588.391 240.181 L 588.391 240.181 L 588.391 240.181 Q 583.82 240.968 579.199 240.968 L 579.199 240.968 L 579.199 240.968 Q 565.793 240.968 558.557 234.95 L 558.557 234.95 L 558.557 234.95 Q 551.32 228.933 551.32 217.862 L 551.32 217.862 L 551.32 217.862 Q 551.32 210.905 553.986 204.355 L 553.986 204.355 L 553.986 204.355 Q 556.652 197.804 561.629 192.573 L 561.629 192.573 L 561.629 192.573 Q 567.164 186.835 574.324 184.042 L 574.324 184.042 L 574.324 184.042 Q 581.484 181.249 590.828 181.249 L 590.828 181.249 L 590.828 181.249 Q 595.145 181.249 599.41 182.036 L 599.41 182.036 L 599.41 182.036 Q 603.676 182.823 607.891 184.398 Z  M 676.191 204.862 L 676.191 204.862 L 669.438 239.495 L 651.207 239.495 L 656.945 209.839 L 656.945 209.839 Q 657.555 206.944 657.885 204.939 L 657.885 204.939 L 657.885 204.939 Q 658.215 202.933 658.215 201.765 L 658.215 201.765 L 658.215 201.765 Q 658.215 198.515 656.412 196.737 L 656.412 196.737 L 656.412 196.737 Q 654.609 194.96 651.309 194.96 L 651.309 194.96 L 651.309 194.96 Q 645.672 194.96 641.635 199.353 L 641.635 199.353 L 641.635 199.353 Q 637.598 203.745 636.023 211.515 L 636.023 211.515 L 630.539 239.495 L 612.309 239.495 L 627.645 160.48 L 645.926 160.48 L 639.984 190.948 L 639.984 190.948 Q 645.012 186.023 650.09 183.636 L 650.09 183.636 L 650.09 183.636 Q 655.168 181.249 660.703 181.249 L 660.703 181.249 L 660.703 181.249 Q 668.574 181.249 672.84 185.362 L 672.84 185.362 L 672.84 185.362 Q 677.105 189.476 677.105 196.94 L 677.105 196.94 L 677.105 196.94 Q 677.105 198.565 676.877 200.546 L 676.877 200.546 L 676.877 200.546 Q 676.648 202.526 676.191 204.862 Z  M 497.188 115.55 L 497.188 115.55 L 512.27 134.542 L 512.27 134.542 Q 515.418 131.343 517.703 126.875 L 517.703 126.875 L 517.703 126.875 Q 519.988 122.406 521.41 116.566 L 521.41 116.566 L 537.203 116.566 L 537.203 116.566 Q 535.02 125.453 530.982 132.714 L 530.982 132.714 L 530.982 132.714 Q 526.945 139.976 520.852 145.664 L 520.852 145.664 L 533.852 162.015 L 511.609 162.015 L 507.344 156.632 L 507.344 156.632 Q 501.352 160.085 495.359 161.787 L 495.359 161.787 L 495.359 161.787 Q 489.367 163.488 483.121 163.488 L 483.121 163.488 L 483.121 163.488 Q 470.68 163.488 463.113 157.242 L 463.113 157.242 L 463.113 157.242 Q 455.547 150.996 455.547 140.89 L 455.547 140.89 L 455.547 140.89 Q 455.547 133.222 460.396 126.798 L 460.396 126.798 L 460.396 126.798 Q 465.246 120.375 475.453 114.585 L 475.453 114.585 L 475.453 114.585 Q 474.133 112.351 473.473 110.066 L 473.473 110.066 L 473.473 110.066 Q 472.813 107.781 472.813 105.343 L 472.813 105.343 L 472.813 105.343 Q 472.813 96.406 480.48 90.617 L 480.48 90.617 L 480.48 90.617 Q 488.148 84.828 500.285 84.828 L 500.285 84.828 L 500.285 84.828 Q 504.906 84.828 509.756 85.564 L 509.756 85.564 L 509.756 85.564 Q 514.605 86.3 519.734 87.773 L 519.734 87.773 L 517.043 101.89 L 517.043 101.89 Q 512.625 99.453 508.613 98.285 L 508.613 98.285 L 508.613 98.285 Q 504.602 97.117 500.59 97.117 L 500.59 97.117 L 500.59 97.117 Q 496.223 97.117 493.684 98.945 L 493.684 98.945 L 493.684 98.945 Q 491.145 100.773 491.145 103.871 L 491.145 103.871 L 491.145 103.871 Q 491.145 105.8 492.668 108.771 L 492.668 108.771 L 492.668 108.771 Q 494.191 111.742 497.188 115.55 Z  M 499.117 146.121 L 481.852 124.285 L 481.852 124.285 Q 477.789 126.875 475.682 130.251 L 475.682 130.251 L 475.682 130.251 Q 473.574 133.628 473.574 137.488 L 473.574 137.488 L 473.574 137.488 Q 473.574 142.921 477.434 146.654 L 477.434 146.654 L 477.434 146.654 Q 481.293 150.386 487.082 150.386 L 487.082 150.386 L 487.082 150.386 Q 490.129 150.386 493.125 149.32 L 493.125 149.32 L 493.125 149.32 Q 496.121 148.253 499.117 146.121 L 499.117 146.121 Z  M 390.572 42.438 L 383.514 78.898 L 383.514 78.898 Q 376.1 82.504 368.127 84.256 L 368.127 84.256 L 368.127 84.256 Q 360.154 86.008 351.064 86.008 L 351.064 86.008 L 351.064 86.008 Q 334.916 86.008 325.674 77.807 L 325.674 77.807 L 325.674 77.807 Q 316.432 69.605 316.432 55.438 L 316.432 55.438 L 316.432 55.438 Q 316.432 46.246 319.326 38.197 L 319.326 38.197 L 319.326 38.197 Q 322.221 30.148 327.959 23.496 L 327.959 23.496 L 327.959 23.496 Q 334.967 15.371 344.488 11.359 L 344.488 11.359 L 344.488 11.359 Q 354.01 7.348 366.248 7.348 L 366.248 7.348 L 366.248 7.348 Q 373.053 7.348 379.959 8.77 L 379.959 8.77 L 379.959 8.77 Q 386.865 10.191 393.568 12.984 L 393.568 12.984 L 390.572 28.676 L 390.572 28.676 Q 384.377 25.07 378.461 23.293 L 378.461 23.293 L 378.461 23.293 Q 372.545 21.516 366.553 21.516 L 366.553 21.516 L 366.553 21.516 Q 353.451 21.516 345.225 30.25 L 345.225 30.25 L 345.225 30.25 Q 336.998 38.984 336.998 52.695 L 336.998 52.695 L 336.998 52.695 Q 336.998 61.785 341.797 66.813 L 341.797 66.813 L 341.797 66.813 Q 346.596 71.84 355.33 71.84 L 355.33 71.84 L 355.33 71.84 Q 358.174 71.84 361.018 71.459 L 361.018 71.459 L 361.018 71.459 Q 363.861 71.078 366.756 70.266 L 366.756 70.266 L 369.65 55.539 L 357.717 55.539 L 360.205 42.438 L 390.572 42.438 Z  M 440.998 58.941 L 432.264 58.941 L 432.264 58.941 Q 425.459 58.941 421.98 61.049 L 421.98 61.049 L 421.98 61.049 Q 418.502 63.156 418.502 67.27 L 418.502 67.27 L 418.502 67.27 Q 418.502 70.367 420.559 72.145 L 420.559 72.145 L 420.559 72.145 Q 422.615 73.922 426.221 73.922 L 426.221 73.922 L 426.221 73.922 Q 431.807 73.922 435.564 70.545 L 435.564 70.545 L 435.564 70.545 Q 439.322 67.168 440.592 61.023 L 440.592 61.023 L 440.998 58.941 Z  M 460.65 52.086 L 460.65 52.086 L 454.303 84.535 L 436.123 84.535 L 437.646 76.105 L 437.646 76.105 Q 433.178 81.184 428.201 83.596 L 428.201 83.596 L 428.201 83.596 Q 423.225 86.008 417.385 86.008 L 417.385 86.008 L 417.385 86.008 Q 409.311 86.008 404.563 81.818 L 404.563 81.818 L 404.563 81.818 Q 399.814 77.629 399.814 70.52 L 399.814 70.52 L 399.814 70.52 Q 399.814 59.652 408.219 53.889 L 408.219 53.889 L 408.219 53.889 Q 416.623 48.125 432.467 48.125 L 432.467 48.125 L 443.182 48.125 L 443.385 46.703 L 443.385 46.703 Q 443.537 45.992 443.563 45.688 L 443.563 45.688 L 443.563 45.688 Q 443.588 45.383 443.588 45.129 L 443.588 45.129 L 443.588 45.129 Q 443.588 41.777 440.414 40.076 L 440.414 40.076 L 440.414 40.076 Q 437.24 38.375 430.994 38.375 L 430.994 38.375 L 430.994 38.375 Q 425.357 38.375 420.076 39.543 L 420.076 39.543 L 420.076 39.543 Q 414.795 40.711 409.869 43.047 L 409.869 43.047 L 412.611 29.184 L 412.611 29.184 Q 418.299 27.762 424.266 27.025 L 424.266 27.025 L 424.266 27.025 Q 430.232 26.289 436.631 26.289 L 436.631 26.289 L 436.631 26.289 Q 449.275 26.289 455.42 30.631 L 455.42 30.631 L 455.42 30.631 Q 461.564 34.973 461.564 43.859 L 461.564 43.859 L 461.564 43.859 Q 461.564 45.586 461.336 47.643 L 461.336 47.643 L 461.336 47.643 Q 461.107 49.699 460.65 52.086 Z  M 533.42 37.105 L 533.42 37.105 L 533.42 37.105 Q 537.635 31.875 542.992 29.082 L 542.992 29.082 L 542.992 29.082 Q 548.35 26.289 554.139 26.289 L 554.139 26.289 L 554.139 26.289 Q 561.756 26.289 566.148 30.479 L 566.148 30.479 L 566.148 30.479 Q 570.541 34.668 570.541 41.98 L 570.541 41.98 L 570.541 41.98 Q 570.541 43.504 570.313 45.459 L 570.313 45.459 L 570.313 45.459 Q 570.084 47.414 569.627 49.902 L 569.627 49.902 L 562.873 84.535 L 544.541 84.535 L 550.279 54.879 L 550.432 54.117 L 550.432 54.117 Q 551.752 47.82 551.752 46.043 L 551.752 46.043 L 551.752 46.043 Q 551.752 43.25 550.152 41.625 L 550.152 41.625 L 550.152 41.625 Q 548.553 40 545.811 40 L 545.811 40 L 545.811 40 Q 540.58 40 536.949 44.291 L 536.949 44.291 L 536.949 44.291 Q 533.318 48.582 531.744 56.555 L 531.744 56.555 L 526.26 84.535 L 507.928 84.535 L 513.768 54.879 L 513.768 54.879 Q 514.529 51.07 514.834 49.115 L 514.834 49.115 L 514.834 49.115 Q 515.139 47.16 515.139 46.043 L 515.139 46.043 L 515.139 46.043 Q 515.139 43.199 513.564 41.6 L 513.564 41.6 L 513.564 41.6 Q 511.99 40 509.197 40 L 509.197 40 L 509.197 40 Q 504.17 40 500.387 44.443 L 500.387 44.443 L 500.387 44.443 Q 496.604 48.887 495.131 56.555 L 495.131 56.555 L 489.646 84.535 L 471.416 84.535 L 482.486 27.66 L 500.768 27.66 L 499.092 35.988 L 499.092 35.988 Q 503.357 31.164 508.182 28.727 L 508.182 28.727 L 508.182 28.727 Q 513.006 26.289 518.236 26.289 L 518.236 26.289 L 518.236 26.289 Q 524.127 26.289 528.342 29.311 L 528.342 29.311 L 528.342 29.311 Q 532.557 32.332 533.42 37.105 Z  M 641.99 58.23 L 641.99 58.23 L 641.381 61.125 L 598.826 61.125 L 598.826 61.125 Q 598.826 61.43 598.775 62.014 L 598.775 62.014 L 598.775 62.014 Q 598.725 62.598 598.725 62.902 L 598.725 62.902 L 598.725 62.902 Q 598.725 68.438 602.051 71.18 L 602.051 71.18 L 602.051 71.18 Q 605.377 73.922 612.029 73.922 L 612.029 73.922 L 612.029 73.922 Q 617.768 73.922 624.141 72.195 L 624.141 72.195 L 624.141 72.195 Q 630.514 70.469 637.521 67.066 L 637.521 67.066 L 634.729 81.184 L 634.729 81.184 Q 628.076 83.621 621.5 84.814 L 621.5 84.814 L 621.5 84.814 Q 614.924 86.008 608.119 86.008 L 608.119 86.008 L 608.119 86.008 Q 594.814 86.008 587.578 79.863 L 587.578 79.863 L 587.578 79.863 Q 580.342 73.719 580.342 62.496 L 580.342 62.496 L 580.342 62.496 Q 580.342 55.996 582.652 49.877 L 582.652 49.877 L 582.652 49.877 Q 584.963 43.758 589.381 38.68 L 589.381 38.68 L 589.381 38.68 Q 594.611 32.586 601.898 29.438 L 601.898 29.438 L 601.898 29.438 Q 609.186 26.289 618.072 26.289 L 618.072 26.289 L 618.072 26.289 Q 629.6 26.289 636.379 32.434 L 636.379 32.434 L 636.379 32.434 Q 643.158 38.578 643.158 48.988 L 643.158 48.988 L 643.158 48.988 Q 643.158 51.02 642.879 53.279 L 642.879 53.279 L 642.879 53.279 Q 642.6 55.539 641.99 58.23 Z  M 601.314 49.902 L 624.826 49.902 L 624.826 49.902 Q 624.979 49.242 625.055 48.557 L 625.055 48.557 L 625.055 48.557 Q 625.131 47.871 625.131 47.211 L 625.131 47.211 L 625.131 47.211 Q 625.131 43.148 622.693 40.762 L 622.693 40.762 L 622.693 40.762 Q 620.256 38.375 616.092 38.375 L 616.092 38.375 L 616.092 38.375 Q 610.76 38.375 607.027 41.295 L 607.027 41.295 L 607.027 41.295 Q 603.295 44.215 601.314 49.902 L 601.314 49.902 Z " fill="rgb(0,0,0)"/></g></svg>