<?xml version="1.0" encoding="UTF-8" standalone="no"?><!-- Generator: Gravit.io --><svg xmlns="http://www.w3.org/2000/svg" xmlns:xlink="http://www.w3.org/1999/xlink" style="isolation:isolate" viewBox="0 0 992 250" width="992pt" height="250pt"><defs><clipPath id="_clipPath_v7ljQjkG0gsHaw3K14B0quS0G7xZeUlm"><rect width="992" height="250"/></clipPath></defs><g clip-path="url(#_clipPath_v7ljQjkG0gsHaw3K14B0quS0G7xZeUlm)"><path d=" M 361.223 46.867 L 447.488 46.867 L 367.923 204.321 L 281.658 204.321 L 361.223 46.867 Z " fill="rgb(161,30,74)"/><path d=" M 146.689 178.851 L 142.922 159.914 L 118.796 159.914 L 114.988 178.851 L 99.479 178.851 L 121.641 74.903 L 140.036 74.903 L 162.199 178.851 L 146.689 178.851 Z  M 130.859 99.272 L 122.643 140.628 L 139.034 140.628 L 130.859 99.272 Z  M 163.434 178.851 L 163.434 74.903 L 183.071 74.903 L 196.698 130.533 L 210.404 74.903 L 230.001 74.903 L 230.001 178.851 L 215.413 178.851 L 215.413 102.822 L 201.627 158.869 L 191.848 158.869 L 178.062 102.822 L 178.062 178.851 L 163.434 178.851 Z  M 280.05 78.176 L 280.05 78.176 L 280.05 100.177 L 280.05 100.177 Q 275.121 96.348 270.432 94.398 L 270.432 94.398 L 270.432 94.398 Q 265.743 92.449 261.575 92.449 L 261.575 92.449 L 261.575 92.449 Q 256.044 92.449 253.399 95.094 L 253.399 95.094 L 253.399 95.094 Q 250.754 97.74 250.754 103.31 L 250.754 103.31 L 250.754 103.31 Q 250.754 107.487 252.537 109.82 L 252.537 109.82 L 252.537 109.82 Q 254.321 112.152 259.01 113.823 L 259.01 113.823 L 265.582 116.121 L 265.582 116.121 Q 275.561 119.602 279.769 126.703 L 279.769 126.703 L 279.769 126.703 Q 283.977 133.805 283.977 146.894 L 283.977 146.894 L 283.977 146.894 Q 283.977 164.091 278.106 172.481 L 278.106 172.481 L 278.106 172.481 Q 272.235 180.87 260.172 180.87 L 260.172 180.87 L 260.172 180.87 Q 254.481 180.87 248.75 178.991 L 248.75 178.991 L 248.75 178.991 Q 243.019 177.111 237.288 173.421 L 237.288 173.421 L 237.288 150.793 L 237.288 150.793 Q 243.019 156.084 248.369 158.765 L 248.369 158.765 L 248.369 158.765 Q 253.719 161.445 258.689 161.445 L 258.689 161.445 L 258.689 161.445 Q 263.739 161.445 266.424 158.521 L 266.424 158.521 L 266.424 158.521 Q 269.109 155.597 269.109 150.166 L 269.109 150.166 L 269.109 150.166 Q 269.109 145.293 267.285 142.647 L 267.285 142.647 L 267.285 142.647 Q 265.462 140.001 260.012 137.913 L 260.012 137.913 L 254.04 135.615 L 254.04 135.615 Q 245.063 132.273 240.915 124.963 L 240.915 124.963 L 240.915 124.963 Q 236.767 117.652 236.767 105.259 L 236.767 105.259 L 236.767 105.259 Q 236.767 89.733 242.538 81.378 L 242.538 81.378 L 242.538 81.378 Q 248.309 73.024 259.13 73.024 L 259.13 73.024 L 259.13 73.024 Q 264.059 73.024 269.269 74.312 L 269.269 74.312 L 269.269 74.312 Q 274.479 75.6 280.05 78.176 Z  M 283.69 95.164 L 283.69 74.903 L 338.835 74.903 L 338.835 95.164 L 318.997 95.164 L 318.997 178.851 L 303.568 178.851 L 303.568 95.164 L 283.69 95.164 Z  M 355.54 120.994 L 362.032 120.994 L 362.032 120.994 Q 366.882 120.994 368.986 117.861 L 368.986 117.861 L 368.986 117.861 Q 371.09 114.728 371.09 107.557 L 371.09 107.557 L 371.09 107.557 Q 371.09 100.455 368.986 97.392 L 368.986 97.392 L 368.986 97.392 Q 366.882 94.328 362.032 94.328 L 362.032 94.328 L 355.54 94.328 L 355.54 120.994 Z  M 359.908 139.514 L 355.54 139.514 L 355.54 178.851 L 340.11 178.851 L 340.11 74.903 L 363.676 74.903 L 363.676 74.903 Q 375.498 74.903 381.009 81.796 L 381.009 81.796 L 381.009 81.796 Q 386.519 88.689 386.519 103.588 L 386.519 103.588 L 386.519 103.588 Q 386.519 113.893 383.654 120.507 L 383.654 120.507 L 383.654 120.507 Q 380.788 127.121 375.017 130.254 L 375.017 130.254 L 375.017 130.254 Q 378.183 131.507 380.688 135.928 L 380.688 135.928 L 380.688 135.928 Q 383.193 140.35 385.758 149.331 L 385.758 149.331 L 394.134 178.851 L 377.702 178.851 L 370.408 153.021 L 370.408 153.021 Q 368.204 145.223 365.94 142.369 L 365.94 142.369 L 365.94 142.369 Q 363.676 139.514 359.908 139.514 L 359.908 139.514 Z  M 436.688 178.851 L 432.921 159.914 L 408.795 159.914 L 404.987 178.851 L 389.478 178.851 L 411.64 74.903 L 430.035 74.903 L 452.198 178.851 L 436.688 178.851 Z  M 420.858 99.272 L 412.642 140.628 L 429.033 140.628 L 420.858 99.272 Z  M 474.393 95.164 L 468.862 95.164 L 468.862 158.591 L 474.393 158.591 L 474.393 158.591 Q 483.851 158.591 488.841 150.445 L 488.841 150.445 L 488.841 150.445 Q 493.83 142.299 493.83 126.773 L 493.83 126.773 L 493.83 126.773 Q 493.83 111.317 488.861 103.24 L 488.861 103.24 L 488.861 103.24 Q 483.891 95.164 474.393 95.164 L 474.393 95.164 Z  M 453.433 178.851 L 453.433 74.903 L 469.704 74.903 L 469.704 74.903 Q 483.33 74.903 490.003 78.28 L 490.003 78.28 L 490.003 78.28 Q 496.676 81.657 501.445 89.733 L 501.445 89.733 L 501.445 89.733 Q 505.653 96.765 507.697 105.956 L 507.697 105.956 L 507.697 105.956 Q 509.741 115.146 509.741 126.773 L 509.741 126.773 L 509.741 126.773 Q 509.741 138.539 507.697 147.764 L 507.697 147.764 L 507.697 147.764 Q 505.653 156.99 501.445 164.022 L 501.445 164.022 L 501.445 164.022 Q 496.636 172.098 489.903 175.475 L 489.903 175.475 L 489.903 175.475 Q 483.17 178.851 469.704 178.851 L 469.704 178.851 L 453.433 178.851 Z " fill="rgb(234,234,234)"/><path d=" M 593.341 91.27 L 588.327 91.27 L 588.327 91.27 Q 586.761 72.06 581.791 62.865 L 581.791 62.865 L 581.791 62.865 Q 576.822 53.671 567.958 53.671 L 567.958 53.671 L 567.958 53.671 Q 556.408 53.671 550.723 70.724 L 550.723 70.724 L 550.723 70.724 Q 545.037 87.778 545.037 122.295 L 545.037 122.295 L 545.037 122.295 Q 545.037 156.093 550.902 173.455 L 550.902 173.455 L 550.902 173.455 Q 556.766 190.816 568.137 190.816 L 568.137 190.816 L 568.137 190.816 Q 573.196 190.816 577.807 187.94 L 577.807 187.94 L 577.807 187.94 Q 582.418 185.063 586.582 179.31 L 586.582 179.31 L 586.582 139.759 L 574.002 139.759 L 574.002 128.767 L 595.669 128.767 L 595.669 185.988 L 595.669 185.988 Q 589.715 193.898 582.843 197.853 L 582.843 197.853 L 582.843 197.853 Q 575.972 201.808 568.137 201.808 L 568.137 201.808 L 568.137 201.808 Q 553.006 201.808 543.895 180.081 L 543.895 180.081 L 543.895 180.081 Q 534.785 158.353 534.785 122.295 L 534.785 122.295 L 534.785 122.295 Q 534.785 85.928 543.918 64.304 L 543.918 64.304 L 543.918 64.304 Q 553.05 42.679 568.495 42.679 L 568.495 42.679 L 568.495 42.679 Q 574.226 42.679 580.336 45.71 L 580.336 45.71 L 580.336 45.71 Q 586.447 48.74 593.341 54.904 L 593.341 54.904 L 593.341 91.27 Z  M 646.689 187.94 L 630.752 133.185 L 614.411 187.94 L 623.052 187.94 L 623.052 198.829 L 600.936 198.829 L 600.936 187.94 L 608.636 187.94 L 627.886 123.528 L 608.368 56.445 L 601.205 56.445 L 601.205 45.453 L 627.707 45.453 L 627.707 56.445 L 619.828 56.445 L 634.154 105.858 L 648.883 56.445 L 640.287 56.445 L 640.287 45.453 L 662.179 45.453 L 662.179 56.445 L 654.658 56.445 L 636.974 115.515 L 658.06 187.94 L 665.223 187.94 L 665.223 198.829 L 638.72 198.829 L 638.72 187.94 L 646.689 187.94 Z  M 672.37 146.848 L 695.202 146.848 L 695.202 65.28 L 672.37 146.848 Z  M 714.899 187.94 L 714.899 198.829 L 684.457 198.829 L 684.457 187.94 L 695.202 187.94 L 695.202 157.84 L 666.013 157.84 L 666.013 146.642 L 695.291 42.679 L 704.155 42.679 L 704.155 146.848 L 716.914 146.848 L 716.914 157.84 L 704.155 157.84 L 704.155 187.94 L 714.899 187.94 Z  M 748.191 191.638 L 748.191 191.638 L 748.191 191.638 Q 755.04 191.638 758.443 174.379 L 758.443 174.379 L 758.443 174.379 Q 761.845 157.121 761.845 122.295 L 761.845 122.295 L 761.845 122.295 Q 761.845 87.367 758.443 70.108 L 758.443 70.108 L 758.443 70.108 Q 755.04 52.849 748.191 52.849 L 748.191 52.849 L 748.191 52.849 Q 741.341 52.849 737.939 70.108 L 737.939 70.108 L 737.939 70.108 Q 734.537 87.367 734.537 122.295 L 734.537 122.295 L 734.537 122.295 Q 734.537 157.121 737.939 174.379 L 737.939 174.379 L 737.939 174.379 Q 741.341 191.638 748.191 191.638 Z  M 748.191 201.808 L 748.191 201.808 L 748.191 201.808 Q 737.312 201.808 731.201 180.851 L 731.201 180.851 L 731.201 180.851 Q 725.091 159.894 725.091 122.295 L 725.091 122.295 L 725.091 122.295 Q 725.091 84.593 731.201 63.636 L 731.201 63.636 L 731.201 63.636 Q 737.312 42.679 748.191 42.679 L 748.191 42.679 L 748.191 42.679 Q 759.114 42.679 765.203 63.636 L 765.203 63.636 L 765.203 63.636 Q 771.291 84.593 771.291 122.295 L 771.291 122.295 L 771.291 122.295 Q 771.291 159.894 765.203 180.851 L 765.203 180.851 L 765.203 180.851 Q 759.114 201.808 748.191 201.808 Z  M 804.045 191.638 L 804.045 191.638 L 804.045 191.638 Q 810.895 191.638 814.297 174.379 L 814.297 174.379 L 814.297 174.379 Q 817.7 157.121 817.7 122.295 L 817.7 122.295 L 817.7 122.295 Q 817.7 87.367 814.297 70.108 L 814.297 70.108 L 814.297 70.108 Q 810.895 52.849 804.045 52.849 L 804.045 52.849 L 804.045 52.849 Q 797.196 52.849 793.794 70.108 L 793.794 70.108 L 793.794 70.108 Q 790.391 87.367 790.391 122.295 L 790.391 122.295 L 790.391 122.295 Q 790.391 157.121 793.794 174.379 L 793.794 174.379 L 793.794 174.379 Q 797.196 191.638 804.045 191.638 Z  M 804.045 201.808 L 804.045 201.808 L 804.045 201.808 Q 793.167 201.808 787.056 180.851 L 787.056 180.851 L 787.056 180.851 Q 780.945 159.894 780.945 122.295 L 780.945 122.295 L 780.945 122.295 Q 780.945 84.593 787.056 63.636 L 787.056 63.636 L 787.056 63.636 Q 793.167 42.679 804.045 42.679 L 804.045 42.679 L 804.045 42.679 Q 814.969 42.679 821.057 63.636 L 821.057 63.636 L 821.057 63.636 Q 827.146 84.593 827.146 122.295 L 827.146 122.295 L 827.146 122.295 Q 827.146 159.894 821.057 180.851 L 821.057 180.851 L 821.057 180.851 Q 814.969 201.808 804.045 201.808 Z  M 859.9 191.638 L 859.9 191.638 L 859.9 191.638 Q 866.749 191.638 870.152 174.379 L 870.152 174.379 L 870.152 174.379 Q 873.554 157.121 873.554 122.295 L 873.554 122.295 L 873.554 122.295 Q 873.554 87.367 870.152 70.108 L 870.152 70.108 L 870.152 70.108 Q 866.749 52.849 859.9 52.849 L 859.9 52.849 L 859.9 52.849 Q 853.05 52.849 849.648 70.108 L 849.648 70.108 L 849.648 70.108 Q 846.246 87.367 846.246 122.295 L 846.246 122.295 L 846.246 122.295 Q 846.246 157.121 849.648 174.379 L 849.648 174.379 L 849.648 174.379 Q 853.05 191.638 859.9 191.638 Z  M 859.9 201.808 L 859.9 201.808 L 859.9 201.808 Q 849.021 201.808 842.91 180.851 L 842.91 180.851 L 842.91 180.851 Q 836.8 159.894 836.8 122.295 L 836.8 122.295 L 836.8 122.295 Q 836.8 84.593 842.91 63.636 L 842.91 63.636 L 842.91 63.636 Q 849.021 42.679 859.9 42.679 L 859.9 42.679 L 859.9 42.679 Q 870.823 42.679 876.912 63.636 L 876.912 63.636 L 876.912 63.636 Q 883 84.593 883 122.295 L 883 122.295 L 883 122.295 Q 883 159.894 876.912 180.851 L 876.912 180.851 L 876.912 180.851 Q 870.823 201.808 859.9 201.808 Z " fill="rgb(228,216,101)"/></g></svg>