<?xml version="1.0" encoding="UTF-8" standalone="no"?><!-- Generator: Gravit.io --><svg xmlns="http://www.w3.org/2000/svg" xmlns:xlink="http://www.w3.org/1999/xlink" style="isolation:isolate" viewBox="0 0 992 250" width="992pt" height="250pt"><defs><clipPath id="_clipPath_yL1tTsAMf6OuzkYXT1CX0FNy8PvWzr7m"><rect width="992" height="250"/></clipPath></defs><g clip-path="url(#_clipPath_yL1tTsAMf6OuzkYXT1CX0FNy8PvWzr7m)"><path d=" M 145.661 61.487 L 124.205 61.487 L 124.205 108.876 L 145.661 108.876 L 145.661 108.876 Q 157.571 108.876 164.076 102.71 L 164.076 102.71 L 164.076 102.71 Q 170.58 96.543 170.58 85.14 L 170.58 85.14 L 170.58 85.14 Q 170.58 73.82 164.076 67.654 L 164.076 67.654 L 164.076 67.654 Q 157.571 61.487 145.661 61.487 L 145.661 61.487 Z  M 107.141 173.583 L 107.141 47.465 L 145.661 47.465 L 145.661 47.465 Q 166.863 47.465 177.718 57.052 L 177.718 57.052 L 177.718 57.052 Q 188.573 66.64 188.573 85.14 L 188.573 85.14 L 188.573 85.14 Q 188.573 103.808 177.718 113.354 L 177.718 113.354 L 177.718 113.354 Q 166.863 122.899 145.661 122.899 L 145.661 122.899 L 124.205 122.899 L 124.205 173.583 L 107.141 173.583 Z  M 210.789 173.583 L 210.789 78.973 L 226.332 78.973 L 226.332 173.583 L 210.789 173.583 Z  M 210.789 61.825 L 210.789 42.143 L 226.332 42.143 L 226.332 61.825 L 210.789 61.825 Z  M 326.939 82.605 L 326.939 82.605 L 326.939 97.135 L 326.939 97.135 Q 320.35 93.502 313.719 91.686 L 313.719 91.686 L 313.719 91.686 Q 307.088 89.87 300.33 89.87 L 300.33 89.87 L 300.33 89.87 Q 285.209 89.87 276.847 99.458 L 276.847 99.458 L 276.847 99.458 Q 268.484 109.045 268.484 126.362 L 268.484 126.362 L 268.484 126.362 Q 268.484 143.679 276.847 153.267 L 276.847 153.267 L 276.847 153.267 Q 285.209 162.854 300.33 162.854 L 300.33 162.854 L 300.33 162.854 Q 307.088 162.854 313.719 161.038 L 313.719 161.038 L 313.719 161.038 Q 320.35 159.222 326.939 155.59 L 326.939 155.59 L 326.939 169.95 L 326.939 169.95 Q 320.435 172.991 313.466 174.512 L 313.466 174.512 L 313.466 174.512 Q 306.497 176.032 298.641 176.032 L 298.641 176.032 L 298.641 176.032 Q 277.269 176.032 264.683 162.601 L 264.683 162.601 L 264.683 162.601 Q 252.096 149.17 252.096 126.362 L 252.096 126.362 L 252.096 126.362 Q 252.096 103.217 264.809 89.955 L 264.809 89.955 L 264.809 89.955 Q 277.522 76.692 299.654 76.692 L 299.654 76.692 L 299.654 76.692 Q 306.834 76.692 313.677 78.171 L 313.677 78.171 L 313.677 78.171 Q 320.519 79.649 326.939 82.605 Z  M 353.717 52.111 L 369.344 52.111 L 369.344 78.973 L 401.359 78.973 L 401.359 91.053 L 369.344 91.053 L 369.344 142.412 L 369.344 142.412 Q 369.344 153.985 372.512 157.279 L 372.512 157.279 L 372.512 157.279 Q 375.68 160.574 385.394 160.574 L 385.394 160.574 L 401.359 160.574 L 401.359 173.583 L 385.394 173.583 L 385.394 173.583 Q 367.401 173.583 360.559 166.867 L 360.559 166.867 L 360.559 166.867 Q 353.717 160.151 353.717 142.412 L 353.717 142.412 L 353.717 91.053 L 342.313 91.053 L 342.313 78.973 L 353.717 78.973 L 353.717 52.111 Z  M 420.197 136.246 L 420.197 136.246 L 420.197 78.973 L 435.74 78.973 L 435.74 135.654 L 435.74 135.654 Q 435.74 149.085 440.977 155.801 L 440.977 155.801 L 440.977 155.801 Q 446.214 162.517 456.689 162.517 L 456.689 162.517 L 456.689 162.517 Q 469.275 162.517 476.582 154.492 L 476.582 154.492 L 476.582 154.492 Q 483.889 146.467 483.889 132.613 L 483.889 132.613 L 483.889 78.973 L 499.432 78.973 L 499.432 173.583 L 483.889 173.583 L 483.889 159.053 L 483.889 159.053 Q 478.229 167.669 470.754 171.851 L 470.754 171.851 L 470.754 171.851 Q 463.278 176.032 453.395 176.032 L 453.395 176.032 L 453.395 176.032 Q 437.091 176.032 428.644 165.896 L 428.644 165.896 L 428.644 165.896 Q 420.197 155.759 420.197 136.246 Z  M 459.308 76.692 M 586.186 77.537 L 586.27 93.502 L 586.27 93.502 Q 583.651 91.982 580.568 91.264 L 580.568 91.264 L 580.568 91.264 Q 577.485 90.546 573.768 90.546 L 573.768 90.546 L 573.768 90.546 Q 560.59 90.546 553.537 99.12 L 553.537 99.12 L 553.537 99.12 Q 546.483 107.694 546.483 123.744 L 546.483 123.744 L 546.483 173.583 L 530.856 173.583 L 530.856 78.973 L 546.483 78.973 L 546.483 93.671 L 546.483 93.671 Q 551.383 85.055 559.239 80.874 L 559.239 80.874 L 559.239 80.874 Q 567.095 76.692 578.33 76.692 L 578.33 76.692 L 578.33 76.692 Q 579.935 76.692 581.877 76.904 L 581.877 76.904 L 581.877 76.904 Q 583.82 77.115 586.186 77.537 L 586.186 77.537 Z  M 683.498 122.392 L 683.498 122.392 L 683.498 129.995 L 612.034 129.995 L 612.034 129.995 Q 613.048 146.044 621.706 154.449 L 621.706 154.449 L 621.706 154.449 Q 630.365 162.854 645.823 162.854 L 645.823 162.854 L 645.823 162.854 Q 654.777 162.854 663.182 160.658 L 663.182 160.658 L 663.182 160.658 Q 671.587 158.462 679.866 154.069 L 679.866 154.069 L 679.866 168.768 L 679.866 168.768 Q 671.503 172.315 662.718 174.174 L 662.718 174.174 L 662.718 174.174 Q 653.933 176.032 644.894 176.032 L 644.894 176.032 L 644.894 176.032 Q 622.255 176.032 609.035 162.854 L 609.035 162.854 L 609.035 162.854 Q 595.815 149.677 595.815 127.207 L 595.815 127.207 L 595.815 127.207 Q 595.815 103.977 608.36 90.335 L 608.36 90.335 L 608.36 90.335 Q 620.904 76.692 642.191 76.692 L 642.191 76.692 L 642.191 76.692 Q 661.282 76.692 672.39 88.983 L 672.39 88.983 L 672.39 88.983 Q 683.498 101.274 683.498 122.392 Z  M 612.541 117.915 L 667.955 117.831 L 667.955 117.831 Q 667.786 105.075 660.817 97.473 L 660.817 97.473 L 660.817 97.473 Q 653.848 89.87 642.36 89.87 L 642.36 89.87 L 642.36 89.87 Q 629.351 89.87 621.537 97.219 L 621.537 97.219 L 621.537 97.219 Q 613.724 104.568 612.541 117.915 L 612.541 117.915 Z  M 769.322 81.761 L 769.322 81.761 L 769.322 96.459 L 769.322 96.459 Q 762.733 93.08 755.638 91.391 L 755.638 91.391 L 755.638 91.391 Q 748.542 89.701 740.939 89.701 L 740.939 89.701 L 740.939 89.701 Q 729.367 89.701 723.58 93.249 L 723.58 93.249 L 723.58 93.249 Q 717.794 96.797 717.794 103.893 L 717.794 103.893 L 717.794 103.893 Q 717.794 109.299 721.933 112.382 L 721.933 112.382 L 721.933 112.382 Q 726.072 115.465 738.574 118.253 L 738.574 118.253 L 743.896 119.436 L 743.896 119.436 Q 760.453 122.983 767.422 129.446 L 767.422 129.446 L 767.422 129.446 Q 774.391 135.908 774.391 147.48 L 774.391 147.48 L 774.391 147.48 Q 774.391 160.658 763.958 168.345 L 763.958 168.345 L 763.958 168.345 Q 753.526 176.032 735.28 176.032 L 735.28 176.032 L 735.28 176.032 Q 727.677 176.032 719.441 174.554 L 719.441 174.554 L 719.441 174.554 Q 711.205 173.076 702.082 170.119 L 702.082 170.119 L 702.082 154.069 L 702.082 154.069 Q 710.698 158.546 719.061 160.785 L 719.061 160.785 L 719.061 160.785 Q 727.424 163.023 735.618 163.023 L 735.618 163.023 L 735.618 163.023 Q 746.599 163.023 752.512 159.264 L 752.512 159.264 L 752.512 159.264 Q 758.425 155.505 758.425 148.663 L 758.425 148.663 L 758.425 148.663 Q 758.425 142.328 754.159 138.949 L 754.159 138.949 L 754.159 138.949 Q 749.894 135.57 735.449 132.444 L 735.449 132.444 L 730.042 131.177 L 730.042 131.177 Q 715.598 128.136 709.178 121.843 L 709.178 121.843 L 709.178 121.843 Q 702.758 115.55 702.758 104.568 L 702.758 104.568 L 702.758 104.568 Q 702.758 91.222 712.219 83.957 L 712.219 83.957 L 712.219 83.957 Q 721.68 76.692 739.081 76.692 L 739.081 76.692 L 739.081 76.692 Q 747.697 76.692 755.3 77.959 L 755.3 77.959 L 755.3 77.959 Q 762.902 79.227 769.322 81.761 Z " fill="rgb(52,117,215)"/><path d=" M 838.514 78.293 C 831.517 78.293 825.776 84.034 825.776 91.031 L 825.776 158.969 C 825.776 165.966 831.517 171.707 838.514 171.707 L 931.928 171.707 C 938.926 171.707 944.667 165.966 944.667 158.969 L 944.667 91.031 C 944.667 84.034 938.926 78.293 931.928 78.293 L 838.514 78.293 Z  M 838.514 86.785 L 931.928 86.785 C 934.315 86.785 936.174 88.645 936.174 91.031 L 936.174 145.135 L 897.994 112.491 L 886.147 122.622 L 863.991 104.024 L 834.268 128.991 L 834.268 91.031 C 834.268 88.645 836.128 86.785 838.514 86.785 Z  M 919.19 95.277 C 914.519 95.277 910.698 99.099 910.698 103.77 C 910.698 108.44 914.519 112.262 919.19 112.262 C 923.861 112.262 927.682 108.44 927.682 103.77 C 927.682 99.099 923.861 95.277 919.19 95.277 Z  M 863.991 115.115 L 879.583 128.219 L 838.65 163.215 L 838.514 163.215 C 837.384 163.229 836.296 162.786 835.497 161.986 C 834.697 161.187 834.254 160.099 834.268 158.969 L 834.268 140.057 L 863.991 115.115 Z  M 897.994 123.675 L 936.174 156.319 L 936.174 158.969 C 936.174 161.355 934.315 163.215 931.928 163.215 L 851.72 163.215 L 897.994 123.675 Z " fill="rgb(240,240,240)"/></g></svg>