<?xml version="1.0" encoding="UTF-8" standalone="no"?><!-- Generator: Gravit.io --><svg xmlns="http://www.w3.org/2000/svg" xmlns:xlink="http://www.w3.org/1999/xlink" style="isolation:isolate" viewBox="0 0 992 250" width="992pt" height="250pt"><defs><clipPath id="_clipPath_M3coKlveRAfhc9qt75s6sv6x2rZA1wNq"><rect width="992" height="250"/></clipPath></defs><g clip-path="url(#_clipPath_M3coKlveRAfhc9qt75s6sv6x2rZA1wNq)"><path d=" M 467.129 116.156 L 467.129 189.27 L 446.418 189.27 L 446.418 116.156 L 467.129 116.156 L 467.129 116.156 Z  M 469.074 95.027 L 469.074 95.027 L 469.074 95.027 Q 469.074 100.727 465.391 103.993 L 465.391 103.993 L 465.391 103.993 Q 461.707 107.259 456.703 107.259 L 456.703 107.259 L 456.703 107.259 Q 451.699 107.259 448.016 103.993 L 448.016 103.993 L 448.016 103.993 Q 444.332 100.727 444.332 95.027 L 444.332 95.027 L 444.332 95.027 Q 444.332 89.328 448.016 86.062 L 448.016 86.062 L 448.016 86.062 Q 451.699 82.796 456.703 82.796 L 456.703 82.796 L 456.703 82.796 Q 461.707 82.796 465.391 86.062 L 465.391 86.062 L 465.391 86.062 Q 469.074 89.328 469.074 95.027 Z  M 537.736 189.27 Q 543.433 177.176 548.991 164.111 L 548.991 164.111 L 548.991 164.111 Q 554.548 151.044 559.55 138.257 L 559.55 138.257 L 559.55 138.257 Q 564.552 125.468 568.663 113.793 L 568.663 113.793 L 568.663 113.793 Q 580.058 80.424 583.25 71.25 L 583.25 71.25 L 560.176 71.25 L 560.176 71.25 Q 549.901 101.283 546.659 110.943 L 546.659 110.943 L 546.659 110.943 Q 543.417 120.604 540.052 130.195 L 540.052 130.195 L 540.052 130.195 Q 536.687 139.786 533.399 148.542 L 533.399 148.542 L 533.399 148.542 Q 530.112 157.299 527.524 163.693 L 527.524 163.693 L 527.524 163.693 Q 524.788 157.299 521.575 148.542 L 521.575 148.542 L 521.575 148.542 Q 518.361 139.786 514.996 130.195 L 514.996 130.195 L 514.996 130.195 Q 511.631 120.604 508.389 110.943 L 508.389 110.943 L 508.389 110.943 Q 505.147 101.283 502.156 92.942 L 502.156 92.942 L 478.249 92.942 L 478.249 92.942 Q 481.441 102.117 485.626 113.793 L 485.626 113.793 L 485.626 113.793 Q 489.811 125.468 494.813 138.257 L 494.813 138.257 L 494.813 138.257 Q 499.815 151.044 505.373 164.111 L 505.373 164.111 L 505.373 164.111 Q 510.931 177.176 516.478 189.27 L 516.478 189.27 L 537.736 189.27 L 537.736 189.27 Z  M 607.657 116.156 L 607.657 189.27 L 586.946 189.27 L 586.946 116.156 L 607.657 116.156 L 607.657 116.156 Z  M 609.604 95.027 L 609.604 95.027 L 609.604 95.027 Q 609.604 100.727 605.92 103.993 L 605.92 103.993 L 605.92 103.993 Q 602.237 107.259 597.232 107.259 L 597.232 107.259 L 597.232 107.259 Q 592.229 107.259 588.545 103.993 L 588.545 103.993 L 588.545 103.993 Q 584.862 100.727 584.862 95.027 L 584.862 95.027 L 584.862 95.027 Q 584.862 89.328 588.545 86.062 L 588.545 86.062 L 588.545 86.062 Q 592.229 82.796 597.232 82.796 L 597.232 82.796 L 597.232 82.796 Q 602.237 82.796 605.92 86.062 L 605.92 86.062 L 605.92 86.062 Q 609.604 89.328 609.604 95.027 Z  M 639.28 170.852 L 639.28 170.852 L 639.28 170.852 Q 632.956 168.975 628.646 166.613 L 628.646 166.613 L 622.531 183.848 L 622.531 183.848 Q 624.477 184.96 627.326 186.212 L 627.326 186.212 L 627.326 186.212 Q 630.175 187.462 634.137 188.574 L 634.137 188.574 L 634.137 188.574 Q 638.099 189.686 643.242 190.451 L 643.242 190.451 L 643.242 190.451 Q 648.385 191.215 654.779 191.215 L 654.779 191.215 L 654.779 191.215 Q 673.821 191.215 683.273 183.779 L 683.273 183.779 L 683.273 183.779 Q 692.726 176.342 692.726 162.859 L 692.726 162.859 L 692.726 162.859 Q 692.726 155.91 690.919 151.044 L 690.919 151.044 L 690.919 151.044 Q 689.112 146.18 685.428 142.566 L 685.428 142.566 L 685.428 142.566 Q 681.745 138.952 676.185 136.241 L 676.185 136.241 L 676.185 136.241 Q 670.625 133.531 663.119 130.751 L 663.119 130.751 L 663.119 130.751 Q 659.505 129.499 656.516 128.318 L 656.516 128.318 L 656.516 128.318 Q 653.528 127.136 651.234 125.677 L 651.234 125.677 L 651.234 125.677 Q 648.94 124.217 647.69 122.41 L 647.69 122.41 L 647.69 122.41 Q 646.438 120.604 646.438 117.963 L 646.438 117.963 L 646.438 117.963 Q 646.438 113.515 649.844 111.36 L 649.844 111.36 L 649.844 111.36 Q 653.25 109.205 661.034 109.205 L 661.034 109.205 L 661.034 109.205 Q 667.984 109.205 672.918 110.804 L 672.918 110.804 L 672.918 110.804 Q 677.852 112.402 681.883 114.488 L 681.883 114.488 L 688.138 97.391 L 688.138 97.391 Q 683.552 94.888 676.463 92.803 L 676.463 92.803 L 676.463 92.803 Q 669.373 90.718 659.643 90.718 L 659.643 90.718 L 659.643 90.718 Q 651.443 90.718 644.909 92.734 L 644.909 92.734 L 644.909 92.734 Q 638.377 94.749 633.789 98.503 L 633.789 98.503 L 633.789 98.503 Q 629.203 102.256 626.701 107.607 L 626.701 107.607 L 626.701 107.607 Q 624.198 112.959 624.198 119.631 L 624.198 119.631 L 624.198 119.631 Q 624.198 126.302 626.562 130.959 L 626.562 130.959 L 626.562 130.959 Q 628.924 135.615 632.677 138.882 L 632.677 138.882 L 632.677 138.882 Q 636.43 142.148 641.156 144.303 L 641.156 144.303 L 641.156 144.303 Q 645.883 146.458 650.609 148.126 L 650.609 148.126 L 650.609 148.126 Q 661.451 151.74 665.898 154.867 L 665.898 154.867 L 665.898 154.867 Q 670.346 157.995 670.346 162.721 L 670.346 162.721 L 670.346 162.721 Q 670.346 164.945 669.651 166.751 L 669.651 166.751 L 669.651 166.751 Q 668.956 168.559 667.149 169.879 L 667.149 169.879 L 667.149 169.879 Q 665.343 171.199 662.354 171.964 L 662.354 171.964 L 662.354 171.964 Q 659.365 172.729 654.779 172.729 L 654.779 172.729 L 654.779 172.729 Q 645.604 172.729 639.28 170.852 Z  M 728.727 116.156 L 728.727 189.27 L 708.016 189.27 L 708.016 116.156 L 728.727 116.156 L 728.727 116.156 Z  M 730.672 95.027 L 730.672 95.027 L 730.672 95.027 Q 730.672 100.727 726.989 103.993 L 726.989 103.993 L 726.989 103.993 Q 723.305 107.259 718.302 107.259 L 718.302 107.259 L 718.302 107.259 Q 713.297 107.259 709.614 103.993 L 709.614 103.993 L 709.614 103.993 Q 705.93 100.727 705.93 95.027 L 705.93 95.027 L 705.93 95.027 Q 705.93 89.328 709.614 86.062 L 709.614 86.062 L 709.614 86.062 Q 713.297 82.796 718.302 82.796 L 718.302 82.796 L 718.302 82.796 Q 723.305 82.796 726.989 86.062 L 726.989 86.062 L 726.989 86.062 Q 730.672 89.328 730.672 95.027 Z  M 769.523 128.318 L 769.523 128.318 L 769.523 128.318 Q 771.26 122.549 774.527 118.449 L 774.527 118.449 L 774.527 118.449 Q 777.794 114.349 782.519 112.055 L 782.519 112.055 L 782.519 112.055 Q 787.245 109.761 793.362 109.761 L 793.362 109.761 L 793.362 109.761 Q 799.339 109.761 804.134 111.985 L 804.134 111.985 L 804.134 111.985 Q 808.93 114.21 812.196 118.31 L 812.196 118.31 L 812.196 118.31 Q 815.463 122.41 817.2 128.179 L 817.2 128.179 L 817.2 128.179 Q 818.938 133.947 818.938 141.036 L 818.938 141.036 L 818.938 141.036 Q 818.938 148.126 817.2 153.824 L 817.2 153.824 L 817.2 153.824 Q 815.463 159.523 812.196 163.624 L 812.196 163.624 L 812.196 163.624 Q 808.93 167.725 804.134 169.949 L 804.134 169.949 L 804.134 169.949 Q 799.339 172.173 793.362 172.173 L 793.362 172.173 L 793.362 172.173 Q 787.245 172.173 782.519 169.949 L 782.519 169.949 L 782.519 169.949 Q 777.794 167.725 774.527 163.624 L 774.527 163.624 L 774.527 163.624 Q 771.26 159.523 769.523 153.824 L 769.523 153.824 L 769.523 153.824 Q 767.786 148.126 767.786 141.036 L 767.786 141.036 L 767.786 141.036 Q 767.786 134.087 769.523 128.318 Z  M 841.317 141.036 L 841.317 141.036 L 841.317 141.036 Q 841.317 153.408 837.633 162.79 L 837.633 162.79 L 837.633 162.79 Q 833.95 172.173 827.555 178.497 L 827.555 178.497 L 827.555 178.497 Q 821.161 184.822 812.335 188.018 L 812.335 188.018 L 812.335 188.018 Q 803.508 191.215 793.362 191.215 L 793.362 191.215 L 793.362 191.215 Q 783.492 191.215 774.735 188.018 L 774.735 188.018 L 774.735 188.018 Q 765.979 184.822 759.445 178.497 L 759.445 178.497 L 759.445 178.497 Q 752.912 172.173 749.159 162.79 L 749.159 162.79 L 749.159 162.79 Q 745.406 153.408 745.406 141.036 L 745.406 141.036 L 745.406 141.036 Q 745.406 128.665 749.299 119.283 L 749.299 119.283 L 749.299 119.283 Q 753.19 109.9 759.793 103.507 L 759.793 103.507 L 759.793 103.507 Q 766.396 97.113 775.083 93.915 L 775.083 93.915 L 775.083 93.915 Q 783.771 90.718 793.362 90.718 L 793.362 90.718 L 793.362 90.718 Q 803.231 90.718 811.987 93.915 L 811.987 93.915 L 811.987 93.915 Q 820.745 97.113 827.278 103.507 L 827.278 103.507 L 827.278 103.507 Q 833.81 109.9 837.563 119.283 L 837.563 119.283 L 837.563 119.283 Q 841.317 128.665 841.317 141.036 Z  M 942.231 189.27 L 924.021 189.27 L 924.021 189.27 Q 914.708 172.729 903.867 156.605 L 903.867 156.605 L 903.867 156.605 Q 893.024 140.48 880.792 126.163 L 880.792 126.163 L 880.792 189.27 L 859.386 189.27 L 859.386 92.942 L 877.039 92.942 L 877.039 92.942 Q 881.627 97.53 887.187 104.201 L 887.187 104.201 L 887.187 104.201 Q 892.747 110.873 898.515 118.449 L 898.515 118.449 L 898.515 118.449 Q 904.284 126.024 909.982 134.156 L 909.982 134.156 L 909.982 134.156 Q 915.682 142.288 920.685 149.794 L 920.685 149.794 L 920.685 92.942 L 942.231 92.942 L 942.231 189.27 L 942.231 189.27 Z  M 393.327 174.467 L 390.576 190.579 L 390.576 190.579 Q 382.06 190.449 376.755 188.745 L 376.755 188.745 L 376.755 188.745 Q 371.449 187.042 368.371 183.964 L 368.371 183.964 L 368.371 183.964 Q 365.293 180.885 364.179 176.497 L 364.179 176.497 L 364.179 176.497 Q 363.065 172.109 363.065 166.607 L 363.065 166.607 L 363.065 92.498 L 382.585 92.498 L 382.585 162.676 L 382.585 162.676 Q 382.585 165.296 382.978 167.393 L 382.978 167.393 L 382.978 167.393 Q 383.371 169.488 384.484 170.93 L 384.484 170.93 L 384.484 170.93 Q 385.598 172.37 387.694 173.288 L 387.694 173.288 L 387.694 173.288 Q 389.789 174.204 393.327 174.467 L 393.327 174.467 L 393.327 174.467 Z  M 434.723 174.467 L 431.971 190.579 L 431.971 190.579 Q 423.457 190.449 418.151 188.745 L 418.151 188.745 L 418.151 188.745 Q 412.845 187.042 409.767 183.964 L 409.767 183.964 L 409.767 183.964 Q 406.689 180.885 405.575 176.497 L 405.575 176.497 L 405.575 176.497 Q 404.461 172.109 404.461 166.607 L 404.461 166.607 L 404.461 92.498 L 423.98 92.498 L 423.98 162.676 L 423.98 162.676 Q 423.98 165.296 424.374 167.393 L 424.374 167.393 L 424.374 167.393 Q 424.767 169.488 425.88 170.93 L 425.88 170.93 L 425.88 170.93 Q 426.993 172.37 429.09 173.288 L 429.09 173.288 L 429.09 173.288 Q 431.185 174.204 434.723 174.467 L 434.723 174.467 L 434.723 174.467 Z  M 349.03 189.27 L 280.781 189.27 L 280.781 92.942 L 345.833 92.942 L 345.833 111.151 L 302.466 111.151 L 302.466 130.055 L 340.969 130.055 L 340.969 147.848 L 302.466 147.848 L 302.466 171.061 L 349.03 171.061 L 349.03 189.27 L 349.03 189.27 Z  M 207.126 153.794 L 207.126 80.865 L 231.712 76.905 L 231.712 102.479 L 261.246 102.479 L 261.246 122.939 L 231.712 122.939 L 231.712 153.464 L 231.712 153.464 Q 231.712 161.219 234.434 165.839 L 234.434 165.839 L 234.434 165.839 Q 237.156 170.46 245.406 170.46 L 245.406 170.46 L 245.406 170.46 Q 249.367 170.46 253.574 169.717 L 253.574 169.717 L 253.574 169.717 Q 257.781 168.975 261.246 167.654 L 261.246 167.654 L 264.711 186.794 L 264.711 186.794 Q 260.257 188.609 254.811 189.93 L 254.811 189.93 L 254.811 189.93 Q 249.367 191.249 241.447 191.249 L 241.447 191.249 L 241.447 191.249 Q 231.382 191.249 224.781 188.527 L 224.781 188.527 L 224.781 188.527 Q 218.182 185.805 214.221 180.937 L 214.221 180.937 L 214.221 180.937 Q 210.262 176.07 208.694 169.139 L 208.694 169.139 L 208.694 169.139 Q 207.126 162.21 207.126 153.794 L 207.126 153.794 L 207.126 153.794 Z  M 185.281 189.27 L 167.072 189.27 L 167.072 189.27 Q 157.76 172.729 146.917 156.605 L 146.917 156.605 L 146.917 156.605 Q 136.076 140.48 123.843 126.163 L 123.843 126.163 L 123.843 189.27 L 102.438 189.27 L 102.438 92.942 L 120.09 92.942 L 120.09 92.942 Q 124.677 97.53 130.238 104.201 L 130.238 104.201 L 130.238 104.201 Q 135.798 110.873 141.566 118.449 L 141.566 118.449 L 141.566 118.449 Q 147.335 126.024 153.033 134.156 L 153.033 134.156 L 153.033 134.156 Q 158.732 142.288 163.736 149.794 L 163.736 149.794 L 163.736 92.942 L 185.281 92.942 L 185.281 189.27 L 185.281 189.27 Z  M 50.489 189.27 L 50.489 69.381 L 77.478 69.381 L 77.478 189.27 L 50.489 189.27 L 50.489 189.27 Z  M 470.13 113.16 L 470.13 192.27 L 443.42 192.27 L 443.42 113.16 L 470.13 113.16 Z  M 465.01 82.06 C 465.85 82.58 466.64 83.16 467.38 83.82 C 468.13 84.48 468.8 85.22 469.38 86.03 C 469.96 86.82 470.45 87.68 470.84 88.59 C 471.25 89.55 471.56 90.55 471.75 91.58 C 471.97 92.71 472.07 93.87 472.07 95.03 C 472.07 96.19 471.97 97.34 471.75 98.48 C 471.56 99.51 471.25 100.51 470.84 101.47 C 470.45 102.37 469.96 103.23 469.38 104.03 C 468.8 104.84 468.13 105.58 467.38 106.24 C 466.64 106.89 465.85 107.48 465.01 107.99 C 464.2 108.49 463.34 108.91 462.46 109.24 C 461.56 109.58 460.64 109.83 459.69 110 C 458.71 110.17 457.71 110.26 456.7 110.26 C 455.7 110.26 454.7 110.17 453.71 110 C 452.77 109.83 451.85 109.58 450.95 109.24 C 450.06 108.91 449.21 108.49 448.4 107.99 C 447.56 107.48 446.76 106.89 446.03 106.24 C 445.28 105.58 444.61 104.84 444.02 104.03 C 443.44 103.23 442.95 102.37 442.57 101.47 C 442.15 100.51 441.85 99.51 441.65 98.48 C 441.44 97.34 441.33 96.19 441.33 95.03 C 441.33 93.87 441.44 92.71 441.65 91.58 C 441.85 90.55 442.15 89.55 442.57 88.59 C 442.95 87.68 443.44 86.82 444.02 86.03 C 444.61 85.22 445.28 84.48 446.03 83.82 C 446.76 83.16 447.56 82.58 448.4 82.06 C 449.21 81.57 450.06 81.15 450.95 80.81 C 451.85 80.47 452.77 80.22 453.71 80.06 C 454.7 79.88 455.7 79.8 456.7 79.8 C 457.71 79.8 458.71 79.88 459.69 80.06 C 460.64 80.22 461.56 80.47 462.46 80.81 C 463.34 81.15 464.2 81.57 465.01 82.06 Z  M 535.83 186.27 C 537.44 182.83 539.02 179.37 540.57 175.9 C 542.5 171.59 544.38 167.27 546.23 162.94 C 548.08 158.59 549.89 154.24 551.68 149.87 C 553.4 145.65 555.09 141.41 556.76 137.16 C 558.42 132.92 560.04 128.66 561.64 124.38 C 563.07 120.53 564.47 116.67 565.83 112.8 C 567.2 108.91 568.57 105.01 569.93 101.12 C 570.54 99.4 578.424 75.978 579.024 74.248 L 562.294 74.248 C 561.544 76.358 553.51 100.16 552.78 102.28 C 551.67 105.48 550.58 108.69 549.5 111.9 C 548.42 115.12 547.33 118.35 546.22 121.57 C 545.12 124.78 544.01 127.98 542.88 131.19 C 541.76 134.39 540.62 137.6 539.46 140.79 C 538.39 143.73 537.31 146.67 536.21 149.6 C 535.11 152.53 533.99 155.45 532.86 158.37 C 531.18 162.7 529.44 167.01 527.63 171.29 C 525.65 167.04 523.81 162.72 522.09 158.36 C 520.95 155.44 519.84 152.52 518.76 149.58 C 517.68 146.65 516.62 143.72 515.57 140.79 C 514.42 137.59 513.29 134.39 512.17 131.19 C 511.04 127.98 509.93 124.78 508.83 121.57 C 507.72 118.35 506.63 115.12 505.54 111.9 C 504.47 108.69 503.37 105.48 502.27 102.28 C 501.53 100.16 500.79 98.05 500.04 95.94 L 482.47 95.94 C 483.08 97.67 483.68 99.39 484.29 101.11 C 485.67 105 487.06 108.89 488.45 112.78 C 489.84 116.66 491.26 120.52 492.71 124.38 C 494.31 128.65 495.94 132.91 497.61 137.16 C 499.27 141.41 500.96 145.65 502.69 149.87 C 504.47 154.24 506.29 158.59 508.13 162.94 C 509.98 167.28 511.86 171.61 513.76 175.93 C 515.29 179.38 516.84 182.83 518.4 186.27 L 535.83 186.27 Z  M 610.66 113.16 L 610.66 192.27 L 583.95 192.27 L 583.95 113.16 L 610.66 113.16 Z  M 612.6 95.03 C 612.6 96.19 612.5 97.34 612.28 98.48 C 612.09 99.51 611.78 100.51 611.37 101.47 C 610.98 102.37 610.49 103.23 609.91 104.03 C 609.33 104.84 608.66 105.58 607.91 106.24 C 607.17 106.89 606.38 107.48 605.54 107.99 C 604.73 108.49 603.87 108.91 602.98 109.24 C 602.09 109.58 601.17 109.83 600.22 110 C 599.24 110.17 598.24 110.26 597.23 110.26 C 596.23 110.26 595.23 110.17 594.24 110 C 593.3 109.83 592.38 109.58 591.48 109.24 C 590.59 108.91 589.74 108.49 588.93 107.99 C 588.09 107.48 587.29 106.89 586.55 106.24 C 585.81 105.58 585.14 104.84 584.55 104.03 C 583.97 103.23 583.48 102.37 583.09 101.47 C 582.68 100.51 582.38 99.51 582.18 98.48 C 581.97 97.34 581.86 96.19 581.86 95.03 C 581.86 93.87 581.97 92.71 582.18 91.58 C 582.38 90.55 582.68 89.55 583.09 88.59 C 583.48 87.68 583.97 86.82 584.55 86.03 C 585.14 85.22 585.81 84.48 586.55 83.82 C 587.29 83.16 588.09 82.58 588.93 82.06 C 589.74 81.57 590.59 81.15 591.48 80.81 C 592.38 80.47 593.3 80.22 594.24 80.06 C 595.23 79.88 596.23 79.8 597.23 79.8 C 598.24 79.8 599.24 79.88 600.22 80.06 C 601.17 80.22 602.09 80.47 602.98 80.81 C 603.87 81.15 604.73 81.57 605.54 82.06 C 606.38 82.58 607.17 83.16 607.91 83.82 C 608.66 84.48 609.33 85.22 609.91 86.03 C 610.49 86.82 610.98 87.68 611.37 88.59 C 611.78 89.55 612.09 90.55 612.28 91.58 C 612.5 92.71 612.6 93.87 612.6 95.03 Z  M 626.23 182.4 C 626.99 182.77 627.76 183.12 628.53 183.46 C 629.41 183.85 630.3 184.2 631.2 184.51 C 632.44 184.94 633.69 185.33 634.95 185.69 C 636.2 186.04 637.46 186.34 638.73 186.61 C 640.38 186.94 642.03 187.24 643.68 187.48 C 645.31 187.73 646.95 187.9 648.6 188.01 C 650.66 188.15 652.72 188.22 654.78 188.22 C 657.72 188.22 660.67 188.06 663.6 187.74 C 665.83 187.5 668.04 187.11 670.21 186.57 C 672.48 186 674.69 185.23 676.81 184.25 C 678.45 183.49 680 182.54 681.42 181.42 C 682.74 180.38 683.95 179.19 685 177.87 C 686 176.64 686.84 175.29 687.51 173.85 C 688.23 172.32 688.76 170.7 689.1 169.04 C 689.52 167.01 689.73 164.94 689.73 162.86 C 689.73 160.72 689.56 158.58 689.24 156.46 C 689.01 154.97 688.63 153.5 688.11 152.09 C 687.59 150.7 686.92 149.37 686.11 148.12 C 685.31 146.88 684.38 145.74 683.33 144.71 C 682.24 143.64 681.05 142.66 679.79 141.8 C 678.22 140.73 676.58 139.77 674.87 138.94 C 673.07 138.06 671.24 137.23 669.39 136.45 C 666.99 135.44 664.56 134.48 662.11 133.57 C 660.89 133.15 659.68 132.72 658.48 132.28 C 657.45 131.9 656.43 131.51 655.41 131.11 C 654.34 130.68 653.28 130.21 652.25 129.69 C 651.35 129.24 650.47 128.75 649.62 128.21 C 648.72 127.63 647.87 126.98 647.08 126.25 C 646.38 125.61 645.76 124.89 645.22 124.12 C 644.63 123.26 644.18 122.31 643.9 121.31 C 643.59 120.22 643.44 119.09 643.44 117.96 C 643.44 116.99 643.55 116.03 643.76 115.09 C 643.96 114.22 644.27 113.38 644.68 112.6 C 645.09 111.84 645.59 111.14 646.19 110.51 C 646.8 109.87 647.49 109.3 648.24 108.82 C 648.63 108.58 649.03 108.36 649.45 108.16 C 649.9 107.94 650.37 107.75 650.85 107.58 C 651.19 107.46 651.54 107.34 651.9 107.24 C 652.29 107.13 652.68 107.03 653.07 106.94 C 654.19 106.7 655.31 106.52 656.45 106.41 C 657.98 106.28 659.5 106.21 661.03 106.21 C 663.47 106.21 665.9 106.37 668.31 106.69 C 670.19 106.95 672.04 107.37 673.84 107.95 C 675.56 108.51 677.25 109.13 678.92 109.81 C 679.35 109.99 679.77 110.17 680.2 110.36 L 684.4 98.87 C 683.72 98.55 683.03 98.26 682.33 97.98 C 680.13 97.12 677.89 96.35 675.62 95.68 C 673.42 95.04 671.19 94.57 668.92 94.29 C 665.84 93.91 662.74 93.72 659.64 93.72 C 657.06 93.72 654.49 93.89 651.93 94.24 C 649.85 94.53 647.8 94.98 645.79 95.6 C 643.81 96.21 641.89 97 640.05 97.95 C 638.5 98.76 637.04 99.72 635.69 100.82 C 634.36 101.91 633.15 103.15 632.09 104.51 C 631.04 105.86 630.14 107.33 629.42 108.88 C 628.7 110.42 628.15 112.05 627.81 113.72 C 627.4 115.66 627.2 117.64 627.2 119.63 C 627.2 121.61 627.4 123.59 627.81 125.53 C 628.1 126.94 628.58 128.31 629.24 129.6 C 629.93 130.97 630.75 132.27 631.69 133.48 C 632.57 134.62 633.56 135.67 634.65 136.62 C 635.78 137.6 636.98 138.5 638.25 139.31 C 639.58 140.16 640.96 140.92 642.4 141.57 C 643.94 142.27 645.49 142.94 647.05 143.57 C 648.55 144.18 650.06 144.75 651.58 145.29 C 653.11 145.8 654.64 146.33 656.15 146.89 C 657.35 147.34 658.53 147.8 659.71 148.29 C 661.37 148.98 662.99 149.74 664.59 150.57 C 665.64 151.12 666.65 151.73 667.62 152.41 C 668.55 153.06 669.4 153.81 670.17 154.64 C 670.87 155.38 671.46 156.21 671.95 157.1 C 672.41 157.95 672.76 158.85 672.99 159.79 C 673.23 160.75 673.35 161.73 673.35 162.72 C 673.35 163.63 673.27 164.53 673.12 165.42 C 672.97 166.24 672.75 167.05 672.45 167.83 C 672.12 168.7 671.65 169.52 671.06 170.25 C 670.44 171.03 669.72 171.72 668.92 172.3 C 668.15 172.87 667.31 173.34 666.43 173.73 C 665.35 174.2 664.24 174.58 663.1 174.87 C 661.96 175.16 660.8 175.37 659.64 175.48 C 658.02 175.65 656.4 175.73 654.78 175.73 C 651.62 175.73 648.46 175.54 645.32 175.16 C 642.99 174.88 640.68 174.4 638.43 173.73 C 636.24 173.08 634.08 172.33 631.96 171.48 C 631.42 171.27 630.88 171.04 630.34 170.8 L 626.23 182.4 Z  M 731.73 113.16 L 731.73 192.27 L 705.02 192.27 L 705.02 113.16 L 731.73 113.16 Z  M 733.67 95.03 C 733.67 96.19 733.56 97.34 733.35 98.48 C 733.16 99.51 732.85 100.51 732.44 101.47 C 732.05 102.37 731.56 103.23 730.98 104.03 C 730.4 104.84 729.73 105.58 728.98 106.24 C 728.24 106.89 727.45 107.48 726.61 107.99 C 725.8 108.49 724.94 108.91 724.05 109.24 C 723.16 109.58 722.23 109.83 721.29 110 C 720.31 110.17 719.3 110.26 718.3 110.26 C 717.3 110.26 716.3 110.17 715.31 110 C 714.37 109.83 713.44 109.58 712.55 109.24 C 711.66 108.91 710.81 108.49 710 107.99 C 709.15 107.48 708.36 106.89 707.62 106.24 C 706.88 105.58 706.21 104.84 705.62 104.03 C 705.04 103.23 704.55 102.37 704.16 101.47 C 703.75 100.51 703.45 99.51 703.25 98.48 C 703.04 97.34 702.93 96.19 702.93 95.03 C 702.93 93.87 703.04 92.71 703.25 91.58 C 703.45 90.55 703.75 89.55 704.16 88.59 C 704.55 87.68 705.04 86.82 705.62 86.03 C 706.21 85.22 706.88 84.48 707.62 83.82 C 708.36 83.16 709.15 82.58 710 82.06 C 710.81 81.57 711.66 81.15 712.55 80.81 C 713.44 80.47 714.37 80.22 715.31 80.06 C 716.3 79.88 717.3 79.8 718.3 79.8 C 719.3 79.8 720.31 79.88 721.29 80.06 C 722.23 80.22 723.16 80.47 724.05 80.81 C 724.94 81.15 725.8 81.57 726.61 82.06 C 727.45 82.58 728.24 83.16 728.98 83.82 C 729.73 84.48 730.4 85.22 730.98 86.03 C 731.56 86.82 732.05 87.68 732.44 88.59 C 732.85 89.55 733.16 90.55 733.35 91.58 C 733.56 92.71 733.67 93.87 733.67 95.03 Z  M 766.65 127.45 C 767.27 125.38 768.08 123.37 769.06 121.44 C 769.93 119.72 770.98 118.09 772.18 116.58 C 773.39 115.06 774.77 113.68 776.29 112.46 C 777.81 111.25 779.46 110.21 781.21 109.36 C 782.98 108.5 784.84 107.86 786.77 107.45 C 788.94 106.99 791.15 106.76 793.36 106.76 C 795.53 106.76 797.69 106.98 799.81 107.42 C 801.74 107.82 803.61 108.44 805.4 109.26 C 807.18 110.09 808.86 111.12 810.4 112.33 C 811.94 113.54 813.33 114.91 814.54 116.44 C 815.75 117.95 816.79 119.58 817.66 121.3 C 818.64 123.23 819.45 125.24 820.07 127.31 C 820.69 129.37 821.15 131.48 821.44 133.62 C 821.77 136.08 821.94 138.55 821.94 141.04 C 821.94 143.52 821.77 146 821.44 148.46 C 821.15 150.57 820.69 152.66 820.07 154.7 C 819.45 156.75 818.64 158.74 817.67 160.64 C 816.79 162.36 815.74 163.98 814.54 165.49 C 813.33 167.02 811.94 168.4 810.4 169.6 C 808.86 170.81 807.18 171.84 805.4 172.67 C 803.61 173.5 801.74 174.12 799.81 174.51 C 797.69 174.95 795.53 175.17 793.36 175.17 C 791.15 175.17 788.94 174.95 786.78 174.5 C 784.87 174.11 783.01 173.49 781.24 172.66 C 779.48 171.84 777.83 170.81 776.31 169.6 C 774.78 168.4 773.39 167.02 772.18 165.49 C 770.98 163.98 769.93 162.36 769.05 160.64 C 768.08 158.74 767.28 156.75 766.65 154.7 C 766.03 152.66 765.57 150.57 765.29 148.46 C 764.95 146 764.79 143.52 764.79 141.04 C 764.79 138.6 764.95 136.16 765.28 133.75 C 765.57 131.62 766.03 129.51 766.65 127.45 Z  M 844.32 141.04 C 844.32 145.28 843.96 149.53 843.25 153.71 C 842.66 157.19 841.71 160.6 840.43 163.89 C 839.14 167.16 837.54 170.29 835.64 173.25 C 833.93 175.92 831.92 178.4 829.67 180.63 C 828.54 181.75 827.35 182.8 826.11 183.78 C 824.87 184.77 823.57 185.69 822.23 186.53 C 820.86 187.39 819.45 188.17 818 188.88 C 816.49 189.61 814.94 190.27 813.36 190.84 C 810.27 191.96 807.09 192.79 803.86 193.34 C 800.39 193.92 796.88 194.22 793.36 194.22 C 789.93 194.22 786.51 193.92 783.13 193.34 C 779.92 192.79 776.77 191.95 773.71 190.84 C 772.15 190.27 770.62 189.62 769.12 188.89 C 767.67 188.19 766.26 187.41 764.9 186.55 C 763.55 185.71 762.24 184.8 760.99 183.81 C 759.72 182.82 758.51 181.77 757.36 180.65 C 756.22 179.55 755.15 178.39 754.14 177.18 C 753.11 175.93 752.14 174.62 751.24 173.27 C 750.3 171.85 749.44 170.38 748.65 168.87 C 747.81 167.25 747.05 165.6 746.37 163.9 C 745.06 160.62 744.09 157.2 743.49 153.72 C 742.77 149.53 742.41 145.29 742.41 141.04 C 742.41 136.78 742.78 132.54 743.53 128.35 C 744.16 124.85 745.16 121.42 746.53 118.13 C 747.88 114.87 749.55 111.74 751.51 108.79 C 753.3 106.1 755.38 103.6 757.71 101.35 C 758.88 100.22 760.1 99.15 761.38 98.14 C 762.64 97.15 763.95 96.23 765.31 95.38 C 766.67 94.53 768.07 93.74 769.52 93.04 C 770.99 92.31 772.5 91.67 774.05 91.1 C 777.08 89.98 780.21 89.14 783.4 88.58 C 786.69 88.01 790.02 87.72 793.36 87.72 C 796.79 87.72 800.21 88.01 803.59 88.59 C 806.8 89.14 809.96 89.98 813.02 91.1 C 814.58 91.67 816.1 92.32 817.6 93.04 C 819.05 93.75 820.46 94.54 821.82 95.4 C 823.18 96.25 824.48 97.17 825.74 98.16 C 827.01 99.16 828.22 100.23 829.38 101.36 C 830.51 102.47 831.59 103.64 832.59 104.87 C 833.63 106.13 834.59 107.44 835.49 108.8 C 836.43 110.22 837.29 111.7 838.08 113.21 C 838.92 114.83 839.67 116.48 840.35 118.17 C 841.66 121.45 842.63 124.87 843.23 128.36 C 843.95 132.54 844.32 136.79 844.32 141.04 Z  M 917.69 140 L 917.69 89.94 L 945.23 89.94 L 945.23 192.27 L 924.02 192.27 C 922.94 192.27 921.94 191.68 921.41 190.74 C 918.32 185.27 915.13 179.85 911.83 174.5 C 908.45 169.03 904.97 163.62 901.38 158.28 C 897.8 152.96 894.07 147.74 890.2 142.63 C 888.11 139.87 885.97 137.15 883.79 134.46 L 883.79 192.27 L 856.39 192.27 L 856.39 89.94 L 877.04 89.94 C 877.83 89.94 878.6 90.26 879.16 90.82 C 880.73 92.39 882.25 93.99 883.73 95.63 C 885.69 97.81 887.61 100.03 889.49 102.28 C 891.36 104.52 893.2 106.78 895.02 109.07 C 897 111.57 898.97 114.09 900.9 116.63 C 902.84 119.17 904.75 121.73 906.63 124.31 C 908.59 127 910.53 129.71 912.44 132.43 C 914.2 134.95 915.95 137.47 917.69 140 Z  M 396.28 174.97 L 393.53 191.08 C 393.41 191.79 393.04 192.43 392.49 192.89 C 391.94 193.34 391.25 193.59 390.53 193.58 C 387.59 193.53 384.66 193.32 381.75 192.93 C 379.74 192.66 377.76 192.22 375.84 191.6 C 373.9 190.98 372.03 190.16 370.27 189.15 C 368.8 188.31 367.45 187.28 366.25 186.09 C 365.65 185.49 365.09 184.85 364.58 184.17 C 364.07 183.5 363.61 182.8 363.19 182.07 C 362.77 181.33 362.4 180.56 362.09 179.76 C 361.76 178.94 361.49 178.09 361.27 177.23 C 360.87 175.65 360.57 174.03 360.39 172.41 C 360.17 170.48 360.07 168.54 360.07 166.61 L 360.07 89.94 L 385.58 89.94 L 385.58 162.68 C 385.58 163.46 385.62 164.25 385.68 165.04 C 385.73 165.64 385.81 166.24 385.93 166.84 C 386.01 167.31 386.15 167.77 386.34 168.22 C 386.48 168.53 386.65 168.83 386.86 169.1 C 387.05 169.34 387.28 169.57 387.53 169.75 C 387.96 170.06 388.41 170.33 388.9 170.54 C 389.4 170.76 389.92 170.93 390.46 171.04 C 391.48 171.25 392.51 171.4 393.55 171.47 C 394.39 171.54 395.17 171.95 395.69 172.62 C 396.21 173.28 396.43 174.14 396.28 174.97 Z  M 437.68 174.97 L 434.93 191.08 C 434.81 191.79 434.44 192.43 433.89 192.89 C 433.34 193.34 432.64 193.59 431.93 193.58 C 428.99 193.53 426.06 193.32 423.14 192.93 C 421.14 192.66 419.16 192.22 417.23 191.6 C 415.3 190.98 413.43 190.16 411.66 189.15 C 410.19 188.31 408.84 187.28 407.65 186.09 C 407.05 185.49 406.49 184.85 405.97 184.17 C 405.46 183.5 405 182.8 404.59 182.07 C 404.17 181.33 403.8 180.56 403.49 179.76 C 403.16 178.94 402.89 178.09 402.67 177.23 C 402.26 175.65 401.97 174.03 401.79 172.41 C 401.57 170.48 401.46 168.54 401.46 166.61 L 401.46 89.94 L 426.98 89.94 L 426.98 162.68 C 426.98 163.46 427.01 164.25 427.08 165.04 C 427.13 165.64 427.21 166.24 427.32 166.84 C 427.41 167.31 427.55 167.77 427.74 168.22 C 427.87 168.53 428.05 168.83 428.25 169.1 C 428.45 169.34 428.67 169.57 428.93 169.75 C 429.35 170.06 429.81 170.33 430.29 170.54 C 430.8 170.76 431.32 170.93 431.86 171.04 C 432.88 171.25 433.91 171.4 434.94 171.47 C 435.79 171.54 436.56 171.95 437.09 172.62 C 437.61 173.28 437.82 174.14 437.68 174.97 Z  M 352.03 192.27 L 277.78 192.27 L 277.78 89.94 L 348.83 89.94 L 348.83 114.15 L 305.47 114.15 L 305.47 127.06 L 343.97 127.06 L 343.97 150.85 L 305.47 150.85 L 305.47 168.06 L 352.03 168.06 L 352.03 192.27 Z  M 204.13 153.79 L 204.13 78.31 L 234.71 73.38 L 234.71 99.48 L 264.25 99.48 L 264.25 125.94 L 234.71 125.94 L 234.71 153.46 C 234.71 155.78 234.96 158.09 235.46 160.35 C 235.77 161.75 236.29 163.09 237.02 164.32 C 237.16 164.55 237.32 164.78 237.49 164.99 C 237.67 165.2 237.87 165.39 238.08 165.57 C 238.31 165.77 238.56 165.94 238.82 166.1 C 239.14 166.29 239.48 166.45 239.83 166.59 C 240.52 166.87 241.23 167.06 241.95 167.18 C 243.1 167.37 244.25 167.46 245.41 167.46 C 246.63 167.46 247.86 167.4 249.08 167.29 C 250.41 167.17 251.74 166.99 253.05 166.76 C 254.36 166.53 255.67 166.24 256.95 165.9 C 258.04 165.6 259.12 165.25 260.18 164.85 C 261.01 164.53 261.94 164.6 262.72 165.04 C 263.5 165.48 264.04 166.24 264.2 167.12 L 267.66 186.26 C 267.79 186.94 267.67 187.64 267.34 188.24 C 267.01 188.84 266.48 189.31 265.84 189.57 C 264.29 190.21 262.71 190.78 261.1 191.29 C 259.26 191.87 257.4 192.39 255.52 192.85 C 253.58 193.32 251.6 193.65 249.62 193.85 C 246.9 194.12 244.17 194.25 241.45 194.25 C 237.97 194.25 234.49 193.97 231.06 193.41 C 228.51 192.99 226.02 192.28 223.64 191.3 C 222.4 190.79 221.2 190.21 220.03 189.56 C 218.94 188.96 217.9 188.3 216.9 187.57 C 215.96 186.88 215.06 186.13 214.21 185.33 C 213.39 184.55 212.61 183.71 211.89 182.83 C 210.44 181.05 209.21 179.09 208.24 177.01 C 207.16 174.7 206.33 172.28 205.77 169.8 C 205.22 167.38 204.82 164.93 204.57 162.47 C 204.27 159.59 204.13 156.69 204.13 153.79 Z  M 160.74 140 L 160.74 89.94 L 188.28 89.94 L 188.28 192.27 L 167.07 192.27 C 165.99 192.27 164.99 191.68 164.46 190.74 C 161.38 185.27 158.18 179.85 154.88 174.5 C 151.5 169.03 148.02 163.62 144.43 158.28 C 140.85 152.96 137.12 147.74 133.25 142.63 C 131.16 139.87 129.02 137.15 126.84 134.46 L 126.84 192.27 L 99.44 192.27 L 99.44 89.94 L 120.09 89.94 C 120.89 89.94 121.65 90.26 122.21 90.82 C 123.78 92.39 125.3 93.99 126.78 95.63 C 128.74 97.81 130.67 100.03 132.54 102.28 C 134.41 104.52 136.25 106.78 138.07 109.07 C 140.06 111.57 142.02 114.09 143.95 116.63 C 145.89 119.17 147.8 121.73 149.68 124.31 C 151.64 127 153.58 129.71 155.49 132.43 C 157.25 134.95 159 137.47 160.74 140 Z  M 47.49 192.27 L 47.49 66.38 L 80.48 66.38 L 80.48 192.27 L 47.49 192.27 Z " fill-rule="evenodd" fill="rgb(234,234,234)"/></g></svg>