<?xml version="1.0" encoding="UTF-8" standalone="no"?><!-- Generator: Gravit.io --><svg xmlns="http://www.w3.org/2000/svg" xmlns:xlink="http://www.w3.org/1999/xlink" style="isolation:isolate" viewBox="0 0 992 250" width="992pt" height="250pt"><defs><clipPath id="_clipPath_9HuAHfQWlyeJNzGpNNpMka1fUnyzYo7K"><rect width="992" height="250"/></clipPath></defs><g clip-path="url(#_clipPath_9HuAHfQWlyeJNzGpNNpMka1fUnyzYo7K)"><path d=" M 239.168 70.044 L 239.168 70.044 L 239.168 70.044 Q 238.187 71.025 237.574 71.147 L 237.574 71.147 L 237.574 71.147 Q 236.961 71.27 235.98 71.76 L 235.98 71.76 L 235.98 71.76 Q 234.755 72.496 233.529 72.741 L 233.529 72.741 L 233.529 72.741 Q 232.303 72.986 231.077 73.231 L 231.077 73.231 L 231.077 73.231 Q 230.096 73.477 228.38 74.457 L 228.38 74.457 L 228.38 74.457 Q 226.664 75.438 224.948 75.683 L 224.948 75.683 L 224.948 75.683 Q 221.761 76.173 217.838 76.664 L 217.838 76.664 L 217.838 76.664 Q 213.915 77.154 209.502 77.645 L 209.502 77.645 L 209.502 77.645 Q 214.651 91.619 218.573 106.82 L 218.573 106.82 L 218.573 106.82 Q 222.496 122.02 223.845 136.24 L 223.845 136.24 L 223.845 136.24 Q 225.193 150.46 223.109 162.596 L 223.109 162.596 L 223.109 162.596 Q 221.025 174.732 214.16 182.578 L 214.16 182.578 L 214.16 182.578 Q 205.824 192.385 191.114 193.856 L 191.114 193.856 L 191.114 193.856 Q 184.495 194.591 176.526 193.12 L 176.526 193.12 L 176.526 193.12 Q 168.558 191.649 161.203 189.075 L 161.203 189.075 L 161.203 189.075 Q 153.848 186.5 148.209 183.068 L 148.209 183.068 L 148.209 183.068 Q 142.57 179.636 140.854 176.203 L 140.854 176.203 L 140.854 176.203 Q 138.648 172.035 140.609 168.358 L 140.609 168.358 L 140.609 168.358 Q 141.344 167.132 141.59 166.029 L 141.59 166.029 L 141.59 166.029 Q 141.835 164.925 143.306 164.68 L 143.306 164.68 L 143.306 164.68 Q 144.532 164.435 146.616 165.048 L 146.616 165.048 L 146.616 165.048 Q 148.7 165.661 149.925 166.151 L 149.925 166.151 L 153.358 165.416 L 153.358 165.416 Q 162.184 170.319 172.236 172.893 L 172.236 172.893 L 172.236 172.893 Q 182.288 175.468 191.359 174.977 L 191.359 174.977 L 191.359 174.977 Q 195.282 174.732 198.96 173.261 L 198.96 173.261 L 198.96 173.261 Q 202.637 171.79 205.089 167.622 L 205.089 167.622 L 205.089 167.622 Q 207.541 162.474 209.257 152.054 L 209.257 152.054 L 209.257 152.054 Q 210.973 141.634 211.218 129.13 L 211.218 129.13 L 211.218 129.13 Q 211.463 116.627 209.992 103.142 L 209.992 103.142 L 209.992 103.142 Q 208.521 89.658 204.844 78.135 L 204.844 78.135 L 204.844 78.135 Q 197.243 78.625 190.011 78.993 L 190.011 78.993 L 190.011 78.993 Q 182.778 79.361 178.365 78.87 L 178.365 78.87 L 178.365 78.87 Q 174.688 78.38 171.255 77.522 L 171.255 77.522 L 171.255 77.522 Q 167.823 76.664 164.145 74.212 L 164.145 74.212 L 164.145 74.212 Q 162.919 75.928 161.939 77.154 L 161.939 77.154 L 161.939 77.154 Q 160.958 78.38 159.977 78.38 L 159.977 78.38 L 159.977 78.38 Q 157.526 77.154 156.177 74.335 L 156.177 74.335 L 156.177 74.335 Q 154.829 71.515 153.603 70.044 L 153.603 70.044 L 153.603 70.044 Q 152.867 69.309 153.113 67.715 L 153.113 67.715 L 153.113 67.715 Q 153.358 66.121 155.81 65.876 L 155.81 65.876 L 155.81 65.876 Q 158.016 65.141 165.862 63.915 L 165.862 63.915 L 165.862 63.915 Q 173.707 62.689 183.882 61.954 L 183.882 61.954 L 183.882 61.954 Q 194.056 61.218 204.966 61.463 L 204.966 61.463 L 204.966 61.463 Q 215.876 61.708 224.703 63.915 L 224.703 63.915 L 224.703 63.915 Q 232.793 65.876 239.168 70.044 Z  M 359.547 138.937 L 356.85 139.428 L 356.85 139.428 Q 356.114 140.654 354.766 141.021 L 354.766 141.021 L 354.766 141.021 Q 353.417 141.389 352.192 142.125 L 352.192 142.125 L 352.192 142.125 Q 350.966 142.86 349.74 144.086 L 349.74 144.086 L 349.74 144.086 Q 348.514 145.312 347.288 146.047 L 347.288 146.047 L 347.288 146.047 Q 350.721 159.287 352.682 169.093 L 352.682 169.093 L 352.682 169.093 Q 354.643 178.9 355.134 183.804 L 355.134 183.804 L 355.134 183.804 Q 355.624 188.707 355.869 194.591 L 355.869 194.591 L 355.869 194.591 Q 356.114 200.475 356.114 205.379 L 356.114 205.379 L 356.114 205.379 Q 356.114 209.056 355.747 211.385 L 355.747 211.385 L 355.747 211.385 Q 355.379 213.714 354.643 215.921 L 354.643 215.921 L 354.643 215.921 Q 351.701 212.243 349.862 208.076 L 349.862 208.076 L 349.862 208.076 Q 348.024 203.908 346.062 199.74 L 346.062 199.74 L 346.062 199.74 Q 341.894 187.236 338.094 173.506 L 338.094 173.506 L 338.094 173.506 Q 334.294 159.777 330.617 145.557 L 330.617 145.557 L 330.617 145.557 Q 323.752 145.312 315.906 145.312 L 315.906 145.312 L 315.906 145.312 Q 308.061 145.312 300.215 145.312 L 300.215 145.312 L 300.215 145.312 Q 292.37 145.312 285.382 145.434 L 285.382 145.434 L 285.382 145.434 Q 278.395 145.557 273.247 145.802 L 273.247 145.802 L 273.247 145.802 Q 272.756 147.273 272.266 149.234 L 272.266 149.234 L 272.266 149.234 Q 270.795 152.422 269.814 156.222 L 269.814 156.222 L 269.814 156.222 Q 268.833 160.022 268.098 164.312 L 268.098 164.312 L 268.098 164.312 Q 267.362 168.603 266.382 173.261 L 266.382 173.261 L 266.382 173.261 Q 265.401 177.92 263.93 182.578 L 263.93 182.578 L 263.93 182.578 Q 267.117 182.578 270.182 180.494 L 270.182 180.494 L 270.182 180.494 Q 273.247 178.41 276.434 178.41 L 276.434 178.41 L 276.434 178.41 Q 274.227 180.616 272.634 183.313 L 272.634 183.313 L 272.634 183.313 Q 271.04 186.01 269.814 190.423 L 269.814 190.423 L 269.814 190.423 Q 269.569 191.649 268.343 192.998 L 268.343 192.998 L 268.343 192.998 Q 267.117 194.346 266.627 195.081 L 266.627 195.081 L 266.627 195.081 Q 266.137 196.062 265.646 197.165 L 265.646 197.165 L 265.646 197.165 Q 265.156 198.269 264.42 198.759 L 264.42 198.759 L 264.42 198.759 Q 262.704 199.74 261.478 199.862 L 261.478 199.862 L 261.478 199.862 Q 260.252 199.985 259.762 199.249 L 259.762 199.249 L 259.762 199.249 Q 257.801 196.307 257.188 192.998 L 257.188 192.998 L 257.188 192.998 Q 256.575 189.688 256.085 186.01 L 256.085 186.01 L 256.085 186.01 Q 256.085 179.391 257.801 168.848 L 257.801 168.848 L 257.801 168.848 Q 259.517 158.306 262.214 146.292 L 262.214 146.292 L 262.214 146.292 Q 260.252 145.802 258.291 144.454 L 258.291 144.454 L 258.291 144.454 Q 256.33 143.105 254.859 142.615 L 254.859 142.615 L 254.859 142.615 Q 252.162 141.389 250.446 141.266 L 250.446 141.266 L 250.446 141.266 Q 248.729 141.144 246.768 139.428 L 246.768 139.428 L 261.723 135.505 L 261.723 135.505 Q 262.949 135.505 264.911 135.015 L 264.911 135.015 L 264.911 135.015 Q 267.853 123.492 270.795 112.949 L 270.795 112.949 L 270.795 112.949 Q 273.737 102.407 276.434 95.052 L 276.434 95.052 L 276.434 95.052 Q 278.395 89.413 281.215 82.058 L 281.215 82.058 L 281.215 82.058 Q 284.034 74.702 287.834 67.96 L 287.834 67.96 L 287.834 67.96 Q 291.634 61.218 296.415 56.315 L 296.415 56.315 L 296.415 56.315 Q 301.196 51.411 306.835 50.185 L 306.835 50.185 L 306.835 50.185 Q 308.551 49.695 310.267 49.45 L 310.267 49.45 L 310.267 49.45 Q 311.984 49.205 313.945 49.205 L 313.945 49.205 L 313.945 49.205 Q 315.906 49.205 316.887 51.043 L 316.887 51.043 L 316.887 51.043 Q 317.868 52.882 319.829 55.579 L 319.829 55.579 L 319.829 55.579 Q 321.055 57.786 322.158 59.379 L 322.158 59.379 L 322.158 59.379 Q 323.261 60.973 324.487 65.876 L 324.487 65.876 L 324.487 65.876 Q 330.371 83.774 335.52 101.794 L 335.52 101.794 L 335.52 101.794 Q 340.669 119.814 344.591 135.75 L 344.591 135.75 L 359.547 138.937 Z  M 306.835 60.728 L 306.835 60.728 L 306.835 60.728 Q 302.667 66.367 298.989 73.109 L 298.989 73.109 L 298.989 73.109 Q 295.312 79.851 291.634 88.555 L 291.634 88.555 L 291.634 88.555 Q 287.957 97.258 284.279 108.413 L 284.279 108.413 L 284.279 108.413 Q 280.602 119.569 276.679 133.544 L 276.679 133.544 L 276.679 133.544 Q 289.428 132.073 302.177 131.827 L 302.177 131.827 L 302.177 131.827 Q 314.926 131.582 327.429 132.808 L 327.429 132.808 L 327.429 132.808 Q 322.281 112.949 317.377 94.194 L 317.377 94.194 L 317.377 94.194 Q 312.474 75.438 306.835 60.728 Z  M 461.538 89.903 L 461.538 89.903 L 461.538 89.903 Q 461.538 91.129 460.802 92.232 L 460.802 92.232 L 460.802 92.232 Q 460.067 93.335 459.577 94.806 L 459.577 94.806 L 459.577 94.806 Q 458.596 97.503 458.228 97.749 L 458.228 97.749 L 458.228 97.749 Q 457.86 97.994 456.389 99.71 L 456.389 99.71 L 456.389 99.71 Q 455.654 100.691 455.409 101.304 L 455.409 101.304 L 455.409 101.304 Q 455.163 101.916 454.673 102.407 L 454.673 102.407 L 454.673 102.407 Q 453.692 102.897 451.976 101.916 L 451.976 101.916 L 451.976 101.916 Q 449.525 99.71 446.092 97.258 L 446.092 97.258 L 446.092 97.258 Q 442.66 94.806 438.737 92.968 L 438.737 92.968 L 438.737 92.968 Q 434.814 91.129 430.524 90.393 L 430.524 90.393 L 430.524 90.393 Q 426.233 89.658 421.82 91.129 L 421.82 91.129 L 421.82 91.129 Q 415.691 93.09 407.6 97.994 L 407.6 97.994 L 407.6 97.994 Q 399.51 102.897 393.871 110.007 L 393.871 110.007 L 393.871 110.007 Q 387.006 118.833 386.516 129.008 L 386.516 129.008 L 386.516 129.008 Q 386.025 139.182 390.561 147.763 L 390.561 147.763 L 390.561 147.763 Q 395.097 156.344 404.168 162.351 L 404.168 162.351 L 404.168 162.351 Q 413.239 168.358 425.743 168.848 L 425.743 168.848 L 425.743 168.848 Q 432.117 167.867 436.898 164.558 L 436.898 164.558 L 436.898 164.558 Q 441.679 161.248 445.234 156.59 L 445.234 156.59 L 445.234 156.59 Q 448.789 151.931 451.241 146.66 L 451.241 146.66 L 451.241 146.66 Q 453.692 141.389 455.163 136.731 L 455.163 136.731 L 455.163 136.731 Q 442.66 139.918 430.156 142.002 L 430.156 142.002 L 430.156 142.002 Q 417.652 144.086 405.149 140.899 L 405.149 140.899 L 405.149 140.899 Q 403.923 140.163 404.413 140.286 L 404.413 140.286 L 404.413 140.286 Q 404.903 140.408 406.129 138.202 L 406.129 138.202 L 406.129 138.202 Q 406.62 137.221 406.987 135.627 L 406.987 135.627 L 406.987 135.627 Q 407.355 134.034 409.316 133.053 L 409.316 133.053 L 409.316 133.053 Q 418.143 131.582 427.459 129.253 L 427.459 129.253 L 427.459 129.253 Q 436.776 126.924 446.582 125.208 L 446.582 125.208 L 446.582 125.208 Q 456.389 123.492 466.441 123.492 L 466.441 123.492 L 466.441 123.492 Q 476.493 123.492 486.791 126.679 L 486.791 126.679 L 486.791 126.679 Q 487.771 127.169 489.12 127.292 L 489.12 127.292 L 489.12 127.292 Q 490.468 127.414 491.694 127.905 L 491.694 127.905 L 491.694 127.905 Q 492.92 128.395 493.901 129.253 L 493.901 129.253 L 493.901 129.253 Q 494.881 130.111 494.881 131.582 L 494.881 131.582 L 494.881 131.582 Q 494.881 132.563 492.675 132.563 L 492.675 132.563 L 492.675 132.563 Q 486.3 132.563 478.087 132.931 L 478.087 132.931 L 478.087 132.931 Q 469.874 133.298 463.499 135.015 L 463.499 135.015 L 463.499 135.015 Q 463.254 140.899 463.132 148.009 L 463.132 148.009 L 463.132 148.009 Q 463.009 155.119 463.622 162.596 L 463.622 162.596 L 463.622 162.596 Q 464.235 170.074 466.074 177.429 L 466.074 177.429 L 466.074 177.429 Q 467.912 184.784 471.835 190.914 L 471.835 190.914 L 471.835 190.914 Q 472.325 191.404 472.325 193.365 L 472.325 193.365 L 472.325 193.365 Q 472.325 195.327 471.835 196.553 L 471.835 196.553 L 471.835 196.553 Q 471.345 197.288 471.59 197.901 L 471.59 197.901 L 471.59 197.901 Q 471.835 198.514 471.345 199.004 L 471.345 199.004 L 471.345 199.004 Q 470.854 199.985 469.629 199.862 L 469.629 199.862 L 469.629 199.862 Q 468.403 199.74 467.667 199.249 L 467.667 199.249 L 467.667 199.249 Q 461.293 192.875 458.473 183.558 L 458.473 183.558 L 458.473 183.558 Q 455.654 174.242 455.163 165.906 L 455.163 165.906 L 455.163 165.906 Q 439.473 181.597 422.801 183.804 L 422.801 183.804 L 422.801 183.804 Q 418.388 184.294 415.814 183.926 L 415.814 183.926 L 415.814 183.926 Q 413.239 183.558 409.071 181.597 L 409.071 181.597 L 409.071 181.597 Q 407.355 180.862 404.045 180.371 L 404.045 180.371 L 404.045 180.371 Q 400.735 179.881 399.51 178.655 L 399.51 178.655 L 399.51 178.655 Q 392.89 173.506 387.864 166.887 L 387.864 166.887 L 387.864 166.887 Q 382.838 160.267 379.773 152.667 L 379.773 152.667 L 379.773 152.667 Q 376.709 145.067 375.605 136.853 L 375.605 136.853 L 375.605 136.853 Q 374.502 128.64 375.973 120.059 L 375.973 120.059 L 375.973 120.059 Q 376.218 109.026 381.367 100.568 L 381.367 100.568 L 381.367 100.568 Q 386.516 92.11 394.238 86.471 L 394.238 86.471 L 394.238 86.471 Q 401.961 80.832 410.91 78.012 L 410.91 78.012 L 410.91 78.012 Q 419.859 75.193 427.704 75.438 L 427.704 75.438 L 427.704 75.438 Q 433.343 75.683 439.105 76.786 L 439.105 76.786 L 439.105 76.786 Q 444.866 77.89 449.77 80.587 L 449.77 80.587 L 449.77 80.587 Q 454.183 83.038 456.635 84.387 L 456.635 84.387 L 456.635 84.387 Q 459.086 85.735 461.538 89.903 Z  M 536.07 82.793 L 536.07 82.793 L 536.07 82.793 Q 532.147 92.355 528.837 102.407 L 528.837 102.407 L 528.837 102.407 Q 525.528 112.459 523.321 122.633 L 523.321 122.633 L 523.321 122.633 Q 521.115 132.808 520.011 142.86 L 520.011 142.86 L 520.011 142.86 Q 518.908 152.912 519.398 161.983 L 519.398 161.983 L 519.398 161.983 Q 518.908 163.454 518.54 164.312 L 518.54 164.312 L 518.54 164.312 Q 518.172 165.171 518.172 165.661 L 518.172 165.661 L 518.172 165.661 Q 518.418 166.887 518.908 167.622 L 518.908 167.622 L 518.908 167.622 Q 519.398 168.358 519.398 170.319 L 519.398 170.319 L 519.398 170.319 Q 525.282 174.242 533.618 174.732 L 533.618 174.732 L 533.618 174.732 Q 541.954 175.223 550.412 172.771 L 550.412 172.771 L 550.412 172.771 Q 558.871 170.319 565.245 166.151 L 565.245 166.151 L 565.245 166.151 Q 574.317 160.267 579.343 152.299 L 579.343 152.299 L 579.343 152.299 Q 584.369 144.331 586.82 135.382 L 586.82 135.382 L 586.82 135.382 Q 589.272 126.434 589.762 116.872 L 589.762 116.872 L 589.762 116.872 Q 590.253 107.31 590.253 98.239 L 590.253 98.239 L 590.253 98.239 Q 590.253 97.503 590.866 96.89 L 590.866 96.89 L 590.866 96.89 Q 591.479 96.278 591.479 95.542 L 591.479 95.542 L 591.479 95.542 Q 591.479 94.806 591.724 94.071 L 591.724 94.071 L 591.724 94.071 Q 591.969 93.581 591.969 92.845 L 591.969 92.845 L 591.969 92.845 Q 591.969 92.11 592.214 91.619 L 592.214 91.619 L 592.214 91.619 Q 592.214 91.129 593.317 90.516 L 593.317 90.516 L 593.317 90.516 Q 594.421 89.903 594.421 91.129 L 594.421 91.129 L 594.421 91.129 Q 595.892 102.162 596.382 114.175 L 596.382 114.175 L 596.382 114.175 Q 596.872 126.188 594.421 137.957 L 594.421 137.957 L 594.421 137.957 Q 591.969 149.725 586.207 160.267 L 586.207 160.267 L 586.207 160.267 Q 580.446 170.81 569.413 178.655 L 569.413 178.655 L 569.413 178.655 Q 562.303 183.558 552.006 187.849 L 552.006 187.849 L 552.006 187.849 Q 541.709 192.139 531.412 194.101 L 531.412 194.101 L 531.412 194.101 Q 525.528 194.836 523.321 192.875 L 523.321 192.875 L 523.321 192.875 Q 521.115 190.914 518.418 189.688 L 518.418 189.688 L 518.418 189.688 Q 514.985 187.972 513.882 186.991 L 513.882 186.991 L 513.882 186.991 Q 512.779 186.01 511.063 182.823 L 511.063 182.823 L 511.063 182.823 Q 505.178 171.055 504.688 157.938 L 504.688 157.938 L 504.688 157.938 Q 504.198 144.821 506.895 132.073 L 506.895 132.073 L 506.895 132.073 Q 509.591 119.324 514.372 107.678 L 514.372 107.678 L 514.372 107.678 Q 519.153 96.032 523.566 86.961 L 523.566 86.961 L 523.566 86.961 Q 524.792 85 525.405 85 L 525.405 85 L 525.405 85 Q 526.018 85 527.489 84.019 L 527.489 84.019 L 527.489 84.019 Q 528.47 83.529 530.308 82.18 L 530.308 82.18 L 530.308 82.18 Q 532.147 80.832 533.128 81.077 L 533.128 81.077 L 533.128 81.077 Q 533.618 81.077 534.722 81.199 L 534.722 81.199 L 534.722 81.199 Q 535.825 81.322 536.315 81.567 L 536.315 81.567 L 536.315 81.567 Q 536.805 81.812 536.193 82.058 L 536.193 82.058 L 536.193 82.058 Q 535.58 82.303 536.07 82.793 Z  M 722.155 138.937 L 719.458 139.428 L 719.458 139.428 Q 718.722 140.654 717.374 141.021 L 717.374 141.021 L 717.374 141.021 Q 716.026 141.389 714.8 142.125 L 714.8 142.125 L 714.8 142.125 Q 713.574 142.86 712.348 144.086 L 712.348 144.086 L 712.348 144.086 Q 711.122 145.312 709.896 146.047 L 709.896 146.047 L 709.896 146.047 Q 713.329 159.287 715.29 169.093 L 715.29 169.093 L 715.29 169.093 Q 717.251 178.9 717.742 183.804 L 717.742 183.804 L 717.742 183.804 Q 718.232 188.707 718.477 194.591 L 718.477 194.591 L 718.477 194.591 Q 718.722 200.475 718.722 205.379 L 718.722 205.379 L 718.722 205.379 Q 718.722 209.056 718.355 211.385 L 718.355 211.385 L 718.355 211.385 Q 717.987 213.714 717.251 215.921 L 717.251 215.921 L 717.251 215.921 Q 714.309 212.243 712.471 208.076 L 712.471 208.076 L 712.471 208.076 Q 710.632 203.908 708.67 199.74 L 708.67 199.74 L 708.67 199.74 Q 704.503 187.236 700.702 173.506 L 700.702 173.506 L 700.702 173.506 Q 696.902 159.777 693.225 145.557 L 693.225 145.557 L 693.225 145.557 Q 686.36 145.312 678.514 145.312 L 678.514 145.312 L 678.514 145.312 Q 670.669 145.312 662.823 145.312 L 662.823 145.312 L 662.823 145.312 Q 654.978 145.312 647.991 145.434 L 647.991 145.434 L 647.991 145.434 Q 641.003 145.557 635.855 145.802 L 635.855 145.802 L 635.855 145.802 Q 635.364 147.273 634.874 149.234 L 634.874 149.234 L 634.874 149.234 Q 633.403 152.422 632.422 156.222 L 632.422 156.222 L 632.422 156.222 Q 631.442 160.022 630.706 164.312 L 630.706 164.312 L 630.706 164.312 Q 629.971 168.603 628.99 173.261 L 628.99 173.261 L 628.99 173.261 Q 628.009 177.92 626.538 182.578 L 626.538 182.578 L 626.538 182.578 Q 629.725 182.578 632.79 180.494 L 632.79 180.494 L 632.79 180.494 Q 635.855 178.41 639.042 178.41 L 639.042 178.41 L 639.042 178.41 Q 636.835 180.616 635.242 183.313 L 635.242 183.313 L 635.242 183.313 Q 633.648 186.01 632.422 190.423 L 632.422 190.423 L 632.422 190.423 Q 632.177 191.649 630.951 192.998 L 630.951 192.998 L 630.951 192.998 Q 629.725 194.346 629.235 195.081 L 629.235 195.081 L 629.235 195.081 Q 628.745 196.062 628.254 197.165 L 628.254 197.165 L 628.254 197.165 Q 627.764 198.269 627.028 198.759 L 627.028 198.759 L 627.028 198.759 Q 625.312 199.74 624.086 199.862 L 624.086 199.862 L 624.086 199.862 Q 622.861 199.985 622.37 199.249 L 622.37 199.249 L 622.37 199.249 Q 620.409 196.307 619.796 192.998 L 619.796 192.998 L 619.796 192.998 Q 619.183 189.688 618.693 186.01 L 618.693 186.01 L 618.693 186.01 Q 618.693 179.391 620.409 168.848 L 620.409 168.848 L 620.409 168.848 Q 622.125 158.306 624.822 146.292 L 624.822 146.292 L 624.822 146.292 Q 622.861 145.802 620.899 144.454 L 620.899 144.454 L 620.899 144.454 Q 618.938 143.105 617.467 142.615 L 617.467 142.615 L 617.467 142.615 Q 614.77 141.389 613.054 141.266 L 613.054 141.266 L 613.054 141.266 Q 611.338 141.144 609.376 139.428 L 609.376 139.428 L 624.332 135.505 L 624.332 135.505 Q 625.557 135.505 627.519 135.015 L 627.519 135.015 L 627.519 135.015 Q 630.461 123.492 633.403 112.949 L 633.403 112.949 L 633.403 112.949 Q 636.345 102.407 639.042 95.052 L 639.042 95.052 L 639.042 95.052 Q 641.003 89.413 643.823 82.058 L 643.823 82.058 L 643.823 82.058 Q 646.642 74.702 650.442 67.96 L 650.442 67.96 L 650.442 67.96 Q 654.242 61.218 659.023 56.315 L 659.023 56.315 L 659.023 56.315 Q 663.804 51.411 669.443 50.185 L 669.443 50.185 L 669.443 50.185 Q 671.159 49.695 672.875 49.45 L 672.875 49.45 L 672.875 49.45 Q 674.592 49.205 676.553 49.205 L 676.553 49.205 L 676.553 49.205 Q 678.514 49.205 679.495 51.043 L 679.495 51.043 L 679.495 51.043 Q 680.476 52.882 682.437 55.579 L 682.437 55.579 L 682.437 55.579 Q 683.663 57.786 684.766 59.379 L 684.766 59.379 L 684.766 59.379 Q 685.87 60.973 687.095 65.876 L 687.095 65.876 L 687.095 65.876 Q 692.979 83.774 698.128 101.794 L 698.128 101.794 L 698.128 101.794 Q 703.277 119.814 707.199 135.75 L 707.199 135.75 L 722.155 138.937 Z  M 669.443 60.728 L 669.443 60.728 L 669.443 60.728 Q 665.275 66.367 661.598 73.109 L 661.598 73.109 L 661.598 73.109 Q 657.92 79.851 654.242 88.555 L 654.242 88.555 L 654.242 88.555 Q 650.565 97.258 646.887 108.413 L 646.887 108.413 L 646.887 108.413 Q 643.21 119.569 639.287 133.544 L 639.287 133.544 L 639.287 133.544 Q 652.036 132.073 664.785 131.827 L 664.785 131.827 L 664.785 131.827 Q 677.534 131.582 690.037 132.808 L 690.037 132.808 L 690.037 132.808 Q 684.889 112.949 679.985 94.194 L 679.985 94.194 L 679.985 94.194 Q 675.082 75.438 669.443 60.728 Z  M 825.372 91.129 L 825.372 91.129 L 825.372 91.129 Q 825.372 101.916 821.694 110.988 L 821.694 110.988 L 821.694 110.988 Q 819.978 115.646 817.036 120.182 L 817.036 120.182 L 817.036 120.182 Q 814.094 124.717 810.539 129.008 L 810.539 129.008 L 810.539 129.008 Q 806.984 133.298 803.184 137.099 L 803.184 137.099 L 803.184 137.099 Q 799.384 140.899 796.197 144.086 L 796.197 144.086 L 796.197 144.086 Q 803.552 146.292 812.5 148.867 L 812.5 148.867 L 812.5 148.867 Q 821.449 151.441 830.275 154.873 L 830.275 154.873 L 830.275 154.873 Q 839.101 158.306 847.192 162.596 L 847.192 162.596 L 847.192 162.596 Q 855.283 166.887 861.167 172.281 L 861.167 172.281 L 861.167 172.281 Q 862.883 173.752 863.373 175.1 L 863.373 175.1 L 863.373 175.1 Q 863.864 176.448 863.864 178.41 L 863.864 178.41 L 863.864 178.41 Q 863.864 180.371 863.986 180.862 L 863.986 180.862 L 863.986 180.862 Q 864.109 181.352 863.128 182.823 L 863.128 182.823 L 863.128 182.823 Q 862.393 184.049 862.27 185.52 L 862.27 185.52 L 862.27 185.52 Q 862.148 186.991 861.167 187.481 L 861.167 187.481 L 861.167 187.481 Q 859.941 187.972 858.715 186.991 L 858.715 186.991 L 858.715 186.991 Q 844.74 177.92 825.74 170.564 L 825.74 170.564 L 825.74 170.564 Q 806.739 163.209 787.861 157.815 L 787.861 157.815 L 787.861 157.815 Q 785.899 157.815 784.183 158.551 L 784.183 158.551 L 784.183 158.551 Q 782.467 159.287 780.015 160.267 L 780.015 160.267 L 780.015 160.267 Q 778.054 161.003 774.744 161.983 L 774.744 161.983 L 774.744 161.983 Q 771.434 162.964 771.189 161.983 L 771.189 161.983 L 771.189 161.983 Q 771.189 158.061 773.396 154.873 L 773.396 154.873 L 773.396 154.873 Q 775.602 151.686 777.318 148.254 L 777.318 148.254 L 777.318 148.254 Q 779.28 144.086 779.893 142.86 L 779.893 142.86 L 779.893 142.86 Q 780.506 141.634 781.731 140.163 L 781.731 140.163 L 781.731 140.163 Q 782.712 138.937 784.061 137.099 L 784.061 137.099 L 784.061 137.099 Q 785.409 135.26 788.106 132.563 L 788.106 132.563 L 788.106 132.563 Q 794.235 126.679 798.526 121.408 L 798.526 121.408 L 798.526 121.408 Q 802.816 116.136 805.636 111.11 L 805.636 111.11 L 805.636 111.11 Q 808.455 106.084 810.416 101.181 L 810.416 101.181 L 810.416 101.181 Q 812.378 96.278 814.339 91.374 L 814.339 91.374 L 814.339 91.374 Q 798.403 91.864 785.654 93.948 L 785.654 93.948 L 785.654 93.948 Q 772.905 96.032 759.421 99.465 L 759.421 99.465 L 759.421 99.465 Q 760.892 108.781 761.627 120.427 L 761.627 120.427 L 761.627 120.427 Q 762.363 132.073 762.976 144.331 L 762.976 144.331 L 762.976 144.331 Q 763.589 156.59 764.324 168.726 L 764.324 168.726 L 764.324 168.726 Q 765.06 180.862 767.021 191.159 L 767.021 191.159 L 767.021 191.159 Q 768.247 194.591 767.757 197.288 L 767.757 197.288 L 767.757 197.288 Q 767.511 198.024 767.511 198.514 L 767.511 198.514 L 767.511 198.514 Q 767.511 199.004 767.021 199.495 L 767.021 199.495 L 767.021 199.495 Q 757.705 177.429 753.659 151.809 L 753.659 151.809 L 753.659 151.809 Q 749.614 126.188 754.027 100.691 L 754.027 100.691 L 754.027 100.691 Q 752.311 100.936 749.369 101.671 L 749.369 101.671 L 749.369 101.671 Q 746.427 102.407 743.117 103.387 L 743.117 103.387 L 743.117 103.387 Q 739.807 104.368 736.743 105.349 L 736.743 105.349 L 736.743 105.349 Q 733.678 106.33 731.471 106.82 L 731.471 106.82 L 725.832 107.555 L 725.832 107.555 Q 725.097 105.349 726.2 104.246 L 726.2 104.246 L 726.2 104.246 Q 727.303 103.142 727.794 101.426 L 727.794 101.426 L 727.794 101.426 Q 729.51 95.542 734.904 92.6 L 734.904 92.6 L 734.904 92.6 Q 737.11 91.374 738.581 89.658 L 738.581 89.658 L 738.581 89.658 Q 740.052 87.942 742.014 86.961 L 742.014 86.961 L 742.014 86.961 Q 748.633 84.264 756.969 82.303 L 756.969 82.303 L 756.969 82.303 Q 765.305 80.341 774.009 79.238 L 774.009 79.238 L 774.009 79.238 Q 782.712 78.135 791.416 78.257 L 791.416 78.257 L 791.416 78.257 Q 800.119 78.38 807.965 80.096 L 807.965 80.096 L 807.965 80.096 Q 810.416 80.587 812.623 81.935 L 812.623 81.935 L 812.623 81.935 Q 814.83 83.283 817.036 84.264 L 817.036 84.264 L 820.959 86.716 L 820.959 86.716 Q 826.107 87.451 825.372 91.129 Z " fill="rgb(47,47,47)"/><path d=" M 232.571 65.647 L 232.571 65.647 L 232.571 65.647 Q 231.59 66.627 230.978 66.75 L 230.978 66.75 L 230.978 66.75 Q 230.365 66.872 229.384 67.363 L 229.384 67.363 L 229.384 67.363 Q 228.158 68.098 226.932 68.343 L 226.932 68.343 L 226.932 68.343 Q 225.706 68.589 224.481 68.834 L 224.481 68.834 L 224.481 68.834 Q 223.5 69.079 221.784 70.06 L 221.784 70.06 L 221.784 70.06 Q 220.067 71.04 218.351 71.285 L 218.351 71.285 L 218.351 71.285 Q 215.164 71.776 211.241 72.266 L 211.241 72.266 L 211.241 72.266 Q 207.319 72.756 202.905 73.247 L 202.905 73.247 L 202.905 73.247 Q 208.054 87.222 211.977 102.422 L 211.977 102.422 L 211.977 102.422 Q 215.9 117.623 217.248 131.843 L 217.248 131.843 L 217.248 131.843 Q 218.596 146.063 216.512 158.199 L 216.512 158.199 L 216.512 158.199 Q 214.429 170.335 207.564 178.18 L 207.564 178.18 L 207.564 178.18 Q 199.228 187.987 184.518 189.458 L 184.518 189.458 L 184.518 189.458 Q 177.898 190.193 169.93 188.722 L 169.93 188.722 L 169.93 188.722 Q 161.962 187.251 154.607 184.677 L 154.607 184.677 L 154.607 184.677 Q 147.252 182.103 141.613 178.67 L 141.613 178.67 L 141.613 178.67 Q 135.974 175.238 134.258 171.806 L 134.258 171.806 L 134.258 171.806 Q 132.051 167.638 134.012 163.96 L 134.012 163.96 L 134.012 163.96 Q 134.748 162.734 134.993 161.631 L 134.993 161.631 L 134.993 161.631 Q 135.238 160.528 136.709 160.283 L 136.709 160.283 L 136.709 160.283 Q 137.935 160.037 140.019 160.65 L 140.019 160.65 L 140.019 160.65 Q 142.103 161.263 143.329 161.754 L 143.329 161.754 L 146.761 161.018 L 146.761 161.018 Q 155.587 165.922 165.639 168.496 L 165.639 168.496 L 165.639 168.496 Q 175.691 171.07 184.763 170.58 L 184.763 170.58 L 184.763 170.58 Q 188.686 170.335 192.363 168.864 L 192.363 168.864 L 192.363 168.864 Q 196.041 167.393 198.492 163.225 L 198.492 163.225 L 198.492 163.225 Q 200.944 158.076 202.66 147.656 L 202.66 147.656 L 202.66 147.656 Q 204.376 137.236 204.622 124.733 L 204.622 124.733 L 204.622 124.733 Q 204.867 112.229 203.396 98.745 L 203.396 98.745 L 203.396 98.745 Q 201.925 85.26 198.247 73.737 L 198.247 73.737 L 198.247 73.737 Q 190.647 74.228 183.414 74.595 L 183.414 74.595 L 183.414 74.595 Q 176.182 74.963 171.769 74.473 L 171.769 74.473 L 171.769 74.473 Q 168.091 73.982 164.659 73.124 L 164.659 73.124 L 164.659 73.124 Q 161.226 72.266 157.549 69.814 L 157.549 69.814 L 157.549 69.814 Q 156.323 71.531 155.342 72.756 L 155.342 72.756 L 155.342 72.756 Q 154.362 73.982 153.381 73.982 L 153.381 73.982 L 153.381 73.982 Q 150.929 72.756 149.581 69.937 L 149.581 69.937 L 149.581 69.937 Q 148.232 67.118 147.006 65.647 L 147.006 65.647 L 147.006 65.647 Q 146.271 64.911 146.516 63.317 L 146.516 63.317 L 146.516 63.317 Q 146.761 61.724 149.213 61.479 L 149.213 61.479 L 149.213 61.479 Q 151.42 60.743 159.265 59.517 L 159.265 59.517 L 159.265 59.517 Q 167.11 58.291 177.285 57.556 L 177.285 57.556 L 177.285 57.556 Q 187.46 56.82 198.37 57.066 L 198.37 57.066 L 198.37 57.066 Q 209.28 57.311 218.106 59.517 L 218.106 59.517 L 218.106 59.517 Q 226.197 61.479 232.571 65.647 Z  M 352.95 134.54 L 350.253 135.03 L 350.253 135.03 Q 349.518 136.256 348.169 136.624 L 348.169 136.624 L 348.169 136.624 Q 346.821 136.991 345.595 137.727 L 345.595 137.727 L 345.595 137.727 Q 344.369 138.462 343.143 139.688 L 343.143 139.688 L 343.143 139.688 Q 341.918 140.914 340.692 141.65 L 340.692 141.65 L 340.692 141.65 Q 344.124 154.889 346.085 164.696 L 346.085 164.696 L 346.085 164.696 Q 348.047 174.503 348.537 179.406 L 348.537 179.406 L 348.537 179.406 Q 349.027 184.309 349.273 190.193 L 349.273 190.193 L 349.273 190.193 Q 349.518 196.078 349.518 200.981 L 349.518 200.981 L 349.518 200.981 Q 349.518 204.659 349.15 206.988 L 349.15 206.988 L 349.15 206.988 Q 348.782 209.317 348.047 211.523 L 348.047 211.523 L 348.047 211.523 Q 345.105 207.846 343.266 203.678 L 343.266 203.678 L 343.266 203.678 Q 341.427 199.51 339.466 195.342 L 339.466 195.342 L 339.466 195.342 Q 335.298 182.838 331.498 169.109 L 331.498 169.109 L 331.498 169.109 Q 327.698 155.379 324.02 141.159 L 324.02 141.159 L 324.02 141.159 Q 317.155 140.914 309.31 140.914 L 309.31 140.914 L 309.31 140.914 Q 301.464 140.914 293.619 140.914 L 293.619 140.914 L 293.619 140.914 Q 285.773 140.914 278.786 141.037 L 278.786 141.037 L 278.786 141.037 Q 271.799 141.159 266.65 141.404 L 266.65 141.404 L 266.65 141.404 Q 266.16 142.875 265.669 144.837 L 265.669 144.837 L 265.669 144.837 Q 264.198 148.024 263.218 151.824 L 263.218 151.824 L 263.218 151.824 Q 262.237 155.624 261.501 159.915 L 261.501 159.915 L 261.501 159.915 Q 260.766 164.205 259.785 168.864 L 259.785 168.864 L 259.785 168.864 Q 258.804 173.522 257.333 178.18 L 257.333 178.18 L 257.333 178.18 Q 260.521 178.18 263.585 176.096 L 263.585 176.096 L 263.585 176.096 Q 266.65 174.012 269.837 174.012 L 269.837 174.012 L 269.837 174.012 Q 267.631 176.219 266.037 178.916 L 266.037 178.916 L 266.037 178.916 Q 264.443 181.612 263.218 186.026 L 263.218 186.026 L 263.218 186.026 Q 262.972 187.251 261.747 188.6 L 261.747 188.6 L 261.747 188.6 Q 260.521 189.948 260.03 190.684 L 260.03 190.684 L 260.03 190.684 Q 259.54 191.664 259.05 192.768 L 259.05 192.768 L 259.05 192.768 Q 258.559 193.871 257.824 194.361 L 257.824 194.361 L 257.824 194.361 Q 256.108 195.342 254.882 195.465 L 254.882 195.465 L 254.882 195.465 Q 253.656 195.587 253.166 194.852 L 253.166 194.852 L 253.166 194.852 Q 251.204 191.91 250.591 188.6 L 250.591 188.6 L 250.591 188.6 Q 249.978 185.29 249.488 181.612 L 249.488 181.612 L 249.488 181.612 Q 249.488 174.993 251.204 164.45 L 251.204 164.45 L 251.204 164.45 Q 252.92 153.908 255.617 141.895 L 255.617 141.895 L 255.617 141.895 Q 253.656 141.404 251.695 140.056 L 251.695 140.056 L 251.695 140.056 Q 249.733 138.708 248.262 138.217 L 248.262 138.217 L 248.262 138.217 Q 245.565 136.991 243.849 136.869 L 243.849 136.869 L 243.849 136.869 Q 242.133 136.746 240.171 135.03 L 240.171 135.03 L 255.127 131.107 L 255.127 131.107 Q 256.353 131.107 258.314 130.617 L 258.314 130.617 L 258.314 130.617 Q 261.256 119.094 264.198 108.551 L 264.198 108.551 L 264.198 108.551 Q 267.14 98.009 269.837 90.654 L 269.837 90.654 L 269.837 90.654 Q 271.799 85.015 274.618 77.66 L 274.618 77.66 L 274.618 77.66 Q 277.437 70.305 281.238 63.563 L 281.238 63.563 L 281.238 63.563 Q 285.038 56.82 289.819 51.917 L 289.819 51.917 L 289.819 51.917 Q 294.599 47.014 300.238 45.788 L 300.238 45.788 L 300.238 45.788 Q 301.955 45.297 303.671 45.052 L 303.671 45.052 L 303.671 45.052 Q 305.387 44.807 307.348 44.807 L 307.348 44.807 L 307.348 44.807 Q 309.31 44.807 310.29 46.646 L 310.29 46.646 L 310.29 46.646 Q 311.271 48.485 313.232 51.181 L 313.232 51.181 L 313.232 51.181 Q 314.458 53.388 315.562 54.982 L 315.562 54.982 L 315.562 54.982 Q 316.665 56.575 317.891 61.479 L 317.891 61.479 L 317.891 61.479 Q 323.775 79.376 328.923 97.396 L 328.923 97.396 L 328.923 97.396 Q 334.072 115.416 337.995 131.352 L 337.995 131.352 L 352.95 134.54 Z  M 300.238 56.33 L 300.238 56.33 L 300.238 56.33 Q 296.07 61.969 292.393 68.711 L 292.393 68.711 L 292.393 68.711 Q 288.715 75.453 285.038 84.157 L 285.038 84.157 L 285.038 84.157 Q 281.36 92.861 277.683 104.016 L 277.683 104.016 L 277.683 104.016 Q 274.005 115.171 270.082 129.146 L 270.082 129.146 L 270.082 129.146 Q 282.831 127.675 295.58 127.43 L 295.58 127.43 L 295.58 127.43 Q 308.329 127.184 320.833 128.41 L 320.833 128.41 L 320.833 128.41 Q 315.684 108.551 310.781 89.796 L 310.781 89.796 L 310.781 89.796 Q 305.877 71.04 300.238 56.33 Z  M 454.941 85.505 L 454.941 85.505 L 454.941 85.505 Q 454.941 86.731 454.206 87.834 L 454.206 87.834 L 454.206 87.834 Q 453.47 88.938 452.98 90.409 L 452.98 90.409 L 452.98 90.409 Q 451.999 93.106 451.632 93.351 L 451.632 93.351 L 451.632 93.351 Q 451.264 93.596 449.793 95.312 L 449.793 95.312 L 449.793 95.312 Q 449.057 96.293 448.812 96.906 L 448.812 96.906 L 448.812 96.906 Q 448.567 97.519 448.077 98.009 L 448.077 98.009 L 448.077 98.009 Q 447.096 98.499 445.38 97.519 L 445.38 97.519 L 445.38 97.519 Q 442.928 95.312 439.496 92.861 L 439.496 92.861 L 439.496 92.861 Q 436.063 90.409 432.14 88.57 L 432.14 88.57 L 432.14 88.57 Q 428.218 86.731 423.927 85.996 L 423.927 85.996 L 423.927 85.996 Q 419.637 85.26 415.224 86.731 L 415.224 86.731 L 415.224 86.731 Q 409.094 88.693 401.004 93.596 L 401.004 93.596 L 401.004 93.596 Q 392.913 98.499 387.274 105.609 L 387.274 105.609 L 387.274 105.609 Q 380.409 114.436 379.919 124.61 L 379.919 124.61 L 379.919 124.61 Q 379.429 134.785 383.964 143.366 L 383.964 143.366 L 383.964 143.366 Q 388.5 151.947 397.571 157.953 L 397.571 157.953 L 397.571 157.953 Q 406.643 163.96 419.146 164.45 L 419.146 164.45 L 419.146 164.45 Q 425.521 163.47 430.302 160.16 L 430.302 160.16 L 430.302 160.16 Q 435.083 156.85 438.638 152.192 L 438.638 152.192 L 438.638 152.192 Q 442.193 147.534 444.644 142.262 L 444.644 142.262 L 444.644 142.262 Q 447.096 136.991 448.567 132.333 L 448.567 132.333 L 448.567 132.333 Q 436.063 135.52 423.56 137.604 L 423.56 137.604 L 423.56 137.604 Q 411.056 139.688 398.552 136.501 L 398.552 136.501 L 398.552 136.501 Q 397.326 135.765 397.817 135.888 L 397.817 135.888 L 397.817 135.888 Q 398.307 136.011 399.533 133.804 L 399.533 133.804 L 399.533 133.804 Q 400.023 132.823 400.391 131.23 L 400.391 131.23 L 400.391 131.23 Q 400.759 129.636 402.72 128.655 L 402.72 128.655 L 402.72 128.655 Q 411.546 127.184 420.863 124.855 L 420.863 124.855 L 420.863 124.855 Q 430.179 122.526 439.986 120.81 L 439.986 120.81 L 439.986 120.81 Q 449.793 119.094 459.845 119.094 L 459.845 119.094 L 459.845 119.094 Q 469.897 119.094 480.194 122.281 L 480.194 122.281 L 480.194 122.281 Q 481.175 122.771 482.523 122.894 L 482.523 122.894 L 482.523 122.894 Q 483.872 123.017 485.097 123.507 L 485.097 123.507 L 485.097 123.507 Q 486.323 123.997 487.304 124.855 L 487.304 124.855 L 487.304 124.855 Q 488.285 125.713 488.285 127.184 L 488.285 127.184 L 488.285 127.184 Q 488.285 128.165 486.078 128.165 L 486.078 128.165 L 486.078 128.165 Q 479.704 128.165 471.49 128.533 L 471.49 128.533 L 471.49 128.533 Q 463.277 128.901 456.903 130.617 L 456.903 130.617 L 456.903 130.617 Q 456.658 136.501 456.535 143.611 L 456.535 143.611 L 456.535 143.611 Q 456.412 150.721 457.025 158.199 L 457.025 158.199 L 457.025 158.199 Q 457.638 165.676 459.477 173.031 L 459.477 173.031 L 459.477 173.031 Q 461.316 180.387 465.239 186.516 L 465.239 186.516 L 465.239 186.516 Q 465.729 187.006 465.729 188.968 L 465.729 188.968 L 465.729 188.968 Q 465.729 190.929 465.239 192.155 L 465.239 192.155 L 465.239 192.155 Q 464.748 192.89 464.993 193.503 L 464.993 193.503 L 464.993 193.503 Q 465.239 194.116 464.748 194.607 L 464.748 194.607 L 464.748 194.607 Q 464.258 195.587 463.032 195.465 L 463.032 195.465 L 463.032 195.465 Q 461.806 195.342 461.071 194.852 L 461.071 194.852 L 461.071 194.852 Q 454.696 188.477 451.877 179.161 L 451.877 179.161 L 451.877 179.161 Q 449.057 169.844 448.567 161.508 L 448.567 161.508 L 448.567 161.508 Q 432.876 177.199 416.204 179.406 L 416.204 179.406 L 416.204 179.406 Q 411.791 179.896 409.217 179.529 L 409.217 179.529 L 409.217 179.529 Q 406.643 179.161 402.475 177.199 L 402.475 177.199 L 402.475 177.199 Q 400.759 176.464 397.449 175.974 L 397.449 175.974 L 397.449 175.974 Q 394.139 175.483 392.913 174.257 L 392.913 174.257 L 392.913 174.257 Q 386.293 169.109 381.267 162.489 L 381.267 162.489 L 381.267 162.489 Q 376.241 155.869 373.177 148.269 L 373.177 148.269 L 373.177 148.269 Q 370.112 140.669 369.009 132.456 L 369.009 132.456 L 369.009 132.456 Q 367.906 124.242 369.377 115.661 L 369.377 115.661 L 369.377 115.661 Q 369.622 104.629 374.77 96.17 L 374.77 96.17 L 374.77 96.17 Q 379.919 87.712 387.642 82.073 L 387.642 82.073 L 387.642 82.073 Q 395.365 76.434 404.314 73.615 L 404.314 73.615 L 404.314 73.615 Q 413.262 70.795 421.108 71.04 L 421.108 71.04 L 421.108 71.04 Q 426.747 71.285 432.508 72.389 L 432.508 72.389 L 432.508 72.389 Q 438.27 73.492 443.173 76.189 L 443.173 76.189 L 443.173 76.189 Q 447.586 78.641 450.038 79.989 L 450.038 79.989 L 450.038 79.989 Q 452.49 81.337 454.941 85.505 Z  M 529.473 78.395 L 529.473 78.395 L 529.473 78.395 Q 525.551 87.957 522.241 98.009 L 522.241 98.009 L 522.241 98.009 Q 518.931 108.061 516.725 118.236 L 516.725 118.236 L 516.725 118.236 Q 514.518 128.41 513.415 138.462 L 513.415 138.462 L 513.415 138.462 Q 512.311 148.514 512.802 157.586 L 512.802 157.586 L 512.802 157.586 Q 512.311 159.057 511.944 159.915 L 511.944 159.915 L 511.944 159.915 Q 511.576 160.773 511.576 161.263 L 511.576 161.263 L 511.576 161.263 Q 511.821 162.489 512.311 163.225 L 512.311 163.225 L 512.311 163.225 Q 512.802 163.96 512.802 165.922 L 512.802 165.922 L 512.802 165.922 Q 518.686 169.844 527.022 170.335 L 527.022 170.335 L 527.022 170.335 Q 535.358 170.825 543.816 168.373 L 543.816 168.373 L 543.816 168.373 Q 552.274 165.922 558.649 161.754 L 558.649 161.754 L 558.649 161.754 Q 567.72 155.869 572.746 147.901 L 572.746 147.901 L 572.746 147.901 Q 577.772 139.933 580.224 130.985 L 580.224 130.985 L 580.224 130.985 Q 582.676 122.036 583.166 112.474 L 583.166 112.474 L 583.166 112.474 Q 583.656 102.913 583.656 93.841 L 583.656 93.841 L 583.656 93.841 Q 583.656 93.106 584.269 92.493 L 584.269 92.493 L 584.269 92.493 Q 584.882 91.88 584.882 91.144 L 584.882 91.144 L 584.882 91.144 Q 584.882 90.409 585.127 89.673 L 585.127 89.673 L 585.127 89.673 Q 585.372 89.183 585.372 88.447 L 585.372 88.447 L 585.372 88.447 Q 585.372 87.712 585.618 87.222 L 585.618 87.222 L 585.618 87.222 Q 585.618 86.731 586.721 86.118 L 586.721 86.118 L 586.721 86.118 Q 587.824 85.505 587.824 86.731 L 587.824 86.731 L 587.824 86.731 Q 589.295 97.764 589.786 109.777 L 589.786 109.777 L 589.786 109.777 Q 590.276 121.791 587.824 133.559 L 587.824 133.559 L 587.824 133.559 Q 585.372 145.327 579.611 155.869 L 579.611 155.869 L 579.611 155.869 Q 573.849 166.412 562.817 174.257 L 562.817 174.257 L 562.817 174.257 Q 555.707 179.161 545.41 183.451 L 545.41 183.451 L 545.41 183.451 Q 535.112 187.742 524.815 189.703 L 524.815 189.703 L 524.815 189.703 Q 518.931 190.439 516.725 188.477 L 516.725 188.477 L 516.725 188.477 Q 514.518 186.516 511.821 185.29 L 511.821 185.29 L 511.821 185.29 Q 508.389 183.574 507.285 182.593 L 507.285 182.593 L 507.285 182.593 Q 506.182 181.612 504.466 178.425 L 504.466 178.425 L 504.466 178.425 Q 498.582 166.657 498.092 153.54 L 498.092 153.54 L 498.092 153.54 Q 497.601 140.424 500.298 127.675 L 500.298 127.675 L 500.298 127.675 Q 502.995 114.926 507.776 103.28 L 507.776 103.28 L 507.776 103.28 Q 512.557 91.635 516.97 82.563 L 516.97 82.563 L 516.97 82.563 Q 518.196 80.602 518.808 80.602 L 518.808 80.602 L 518.808 80.602 Q 519.421 80.602 520.892 79.621 L 520.892 79.621 L 520.892 79.621 Q 521.873 79.131 523.712 77.782 L 523.712 77.782 L 523.712 77.782 Q 525.551 76.434 526.531 76.679 L 526.531 76.679 L 526.531 76.679 Q 527.022 76.679 528.125 76.802 L 528.125 76.802 L 528.125 76.802 Q 529.228 76.924 529.719 77.17 L 529.719 77.17 L 529.719 77.17 Q 530.209 77.415 529.596 77.66 L 529.596 77.66 L 529.596 77.66 Q 528.983 77.905 529.473 78.395 Z  M 715.558 134.54 L 712.861 135.03 L 712.861 135.03 Q 712.126 136.256 710.778 136.624 L 710.778 136.624 L 710.778 136.624 Q 709.429 136.991 708.203 137.727 L 708.203 137.727 L 708.203 137.727 Q 706.977 138.462 705.751 139.688 L 705.751 139.688 L 705.751 139.688 Q 704.526 140.914 703.3 141.65 L 703.3 141.65 L 703.3 141.65 Q 706.732 154.889 708.694 164.696 L 708.694 164.696 L 708.694 164.696 Q 710.655 174.503 711.145 179.406 L 711.145 179.406 L 711.145 179.406 Q 711.636 184.309 711.881 190.193 L 711.881 190.193 L 711.881 190.193 Q 712.126 196.078 712.126 200.981 L 712.126 200.981 L 712.126 200.981 Q 712.126 204.659 711.758 206.988 L 711.758 206.988 L 711.758 206.988 Q 711.39 209.317 710.655 211.523 L 710.655 211.523 L 710.655 211.523 Q 707.713 207.846 705.874 203.678 L 705.874 203.678 L 705.874 203.678 Q 704.035 199.51 702.074 195.342 L 702.074 195.342 L 702.074 195.342 Q 697.906 182.838 694.106 169.109 L 694.106 169.109 L 694.106 169.109 Q 690.306 155.379 686.628 141.159 L 686.628 141.159 L 686.628 141.159 Q 679.763 140.914 671.918 140.914 L 671.918 140.914 L 671.918 140.914 Q 664.072 140.914 656.227 140.914 L 656.227 140.914 L 656.227 140.914 Q 648.381 140.914 641.394 141.037 L 641.394 141.037 L 641.394 141.037 Q 634.407 141.159 629.258 141.404 L 629.258 141.404 L 629.258 141.404 Q 628.768 142.875 628.277 144.837 L 628.277 144.837 L 628.277 144.837 Q 626.806 148.024 625.826 151.824 L 625.826 151.824 L 625.826 151.824 Q 624.845 155.624 624.11 159.915 L 624.11 159.915 L 624.11 159.915 Q 623.374 164.205 622.393 168.864 L 622.393 168.864 L 622.393 168.864 Q 621.413 173.522 619.942 178.18 L 619.942 178.18 L 619.942 178.18 Q 623.129 178.18 626.193 176.096 L 626.193 176.096 L 626.193 176.096 Q 629.258 174.012 632.445 174.012 L 632.445 174.012 L 632.445 174.012 Q 630.239 176.219 628.645 178.916 L 628.645 178.916 L 628.645 178.916 Q 627.052 181.612 625.826 186.026 L 625.826 186.026 L 625.826 186.026 Q 625.581 187.251 624.355 188.6 L 624.355 188.6 L 624.355 188.6 Q 623.129 189.948 622.638 190.684 L 622.638 190.684 L 622.638 190.684 Q 622.148 191.664 621.658 192.768 L 621.658 192.768 L 621.658 192.768 Q 621.167 193.871 620.432 194.361 L 620.432 194.361 L 620.432 194.361 Q 618.716 195.342 617.49 195.465 L 617.49 195.465 L 617.49 195.465 Q 616.264 195.587 615.774 194.852 L 615.774 194.852 L 615.774 194.852 Q 613.812 191.91 613.199 188.6 L 613.199 188.6 L 613.199 188.6 Q 612.586 185.29 612.096 181.612 L 612.096 181.612 L 612.096 181.612 Q 612.096 174.993 613.812 164.45 L 613.812 164.45 L 613.812 164.45 Q 615.529 153.908 618.225 141.895 L 618.225 141.895 L 618.225 141.895 Q 616.264 141.404 614.303 140.056 L 614.303 140.056 L 614.303 140.056 Q 612.341 138.708 610.87 138.217 L 610.87 138.217 L 610.87 138.217 Q 608.173 136.991 606.457 136.869 L 606.457 136.869 L 606.457 136.869 Q 604.741 136.746 602.78 135.03 L 602.78 135.03 L 617.735 131.107 L 617.735 131.107 Q 618.961 131.107 620.922 130.617 L 620.922 130.617 L 620.922 130.617 Q 623.864 119.094 626.806 108.551 L 626.806 108.551 L 626.806 108.551 Q 629.748 98.009 632.445 90.654 L 632.445 90.654 L 632.445 90.654 Q 634.407 85.015 637.226 77.66 L 637.226 77.66 L 637.226 77.66 Q 640.046 70.305 643.846 63.563 L 643.846 63.563 L 643.846 63.563 Q 647.646 56.82 652.427 51.917 L 652.427 51.917 L 652.427 51.917 Q 657.208 47.014 662.847 45.788 L 662.847 45.788 L 662.847 45.788 Q 664.563 45.297 666.279 45.052 L 666.279 45.052 L 666.279 45.052 Q 667.995 44.807 669.956 44.807 L 669.956 44.807 L 669.956 44.807 Q 671.918 44.807 672.899 46.646 L 672.899 46.646 L 672.899 46.646 Q 673.879 48.485 675.841 51.181 L 675.841 51.181 L 675.841 51.181 Q 677.066 53.388 678.17 54.982 L 678.17 54.982 L 678.17 54.982 Q 679.273 56.575 680.499 61.479 L 680.499 61.479 L 680.499 61.479 Q 686.383 79.376 691.532 97.396 L 691.532 97.396 L 691.532 97.396 Q 696.68 115.416 700.603 131.352 L 700.603 131.352 L 715.558 134.54 Z  M 662.847 56.33 L 662.847 56.33 L 662.847 56.33 Q 658.679 61.969 655.001 68.711 L 655.001 68.711 L 655.001 68.711 Q 651.323 75.453 647.646 84.157 L 647.646 84.157 L 647.646 84.157 Q 643.968 92.861 640.291 104.016 L 640.291 104.016 L 640.291 104.016 Q 636.613 115.171 632.69 129.146 L 632.69 129.146 L 632.69 129.146 Q 645.439 127.675 658.188 127.43 L 658.188 127.43 L 658.188 127.43 Q 670.937 127.184 683.441 128.41 L 683.441 128.41 L 683.441 128.41 Q 678.292 108.551 673.389 89.796 L 673.389 89.796 L 673.389 89.796 Q 668.485 71.04 662.847 56.33 Z  M 818.775 86.731 L 818.775 86.731 L 818.775 86.731 Q 818.775 97.519 815.098 106.59 L 815.098 106.59 L 815.098 106.59 Q 813.382 111.248 810.44 115.784 L 810.44 115.784 L 810.44 115.784 Q 807.497 120.32 803.943 124.61 L 803.943 124.61 L 803.943 124.61 Q 800.388 128.901 796.587 132.701 L 796.587 132.701 L 796.587 132.701 Q 792.787 136.501 789.6 139.688 L 789.6 139.688 L 789.6 139.688 Q 796.955 141.895 805.904 144.469 L 805.904 144.469 L 805.904 144.469 Q 814.853 147.043 823.679 150.476 L 823.679 150.476 L 823.679 150.476 Q 832.505 153.908 840.596 158.199 L 840.596 158.199 L 840.596 158.199 Q 848.686 162.489 854.57 167.883 L 854.57 167.883 L 854.57 167.883 Q 856.287 169.354 856.777 170.702 L 856.777 170.702 L 856.777 170.702 Q 857.267 172.051 857.267 174.012 L 857.267 174.012 L 857.267 174.012 Q 857.267 175.974 857.39 176.464 L 857.39 176.464 L 857.39 176.464 Q 857.512 176.954 856.532 178.425 L 856.532 178.425 L 856.532 178.425 Q 855.796 179.651 855.674 181.122 L 855.674 181.122 L 855.674 181.122 Q 855.551 182.593 854.57 183.083 L 854.57 183.083 L 854.57 183.083 Q 853.345 183.574 852.119 182.593 L 852.119 182.593 L 852.119 182.593 Q 838.144 173.522 819.143 166.167 L 819.143 166.167 L 819.143 166.167 Q 800.142 158.812 781.264 153.418 L 781.264 153.418 L 781.264 153.418 Q 779.303 153.418 777.587 154.153 L 777.587 154.153 L 777.587 154.153 Q 775.87 154.889 773.419 155.869 L 773.419 155.869 L 773.419 155.869 Q 771.457 156.605 768.148 157.586 L 768.148 157.586 L 768.148 157.586 Q 764.838 158.566 764.593 157.586 L 764.593 157.586 L 764.593 157.586 Q 764.593 153.663 766.799 150.476 L 766.799 150.476 L 766.799 150.476 Q 769.006 147.289 770.722 143.856 L 770.722 143.856 L 770.722 143.856 Q 772.683 139.688 773.296 138.462 L 773.296 138.462 L 773.296 138.462 Q 773.909 137.236 775.135 135.765 L 775.135 135.765 L 775.135 135.765 Q 776.116 134.54 777.464 132.701 L 777.464 132.701 L 777.464 132.701 Q 778.813 130.862 781.509 128.165 L 781.509 128.165 L 781.509 128.165 Q 787.639 122.281 791.929 117.01 L 791.929 117.01 L 791.929 117.01 Q 796.22 111.739 799.039 106.713 L 799.039 106.713 L 799.039 106.713 Q 801.859 101.687 803.82 96.783 L 803.82 96.783 L 803.82 96.783 Q 805.781 91.88 807.743 86.976 L 807.743 86.976 L 807.743 86.976 Q 791.807 87.467 779.058 89.551 L 779.058 89.551 L 779.058 89.551 Q 766.309 91.635 752.824 95.067 L 752.824 95.067 L 752.824 95.067 Q 754.295 104.384 755.031 116.029 L 755.031 116.029 L 755.031 116.029 Q 755.766 127.675 756.379 139.933 L 756.379 139.933 L 756.379 139.933 Q 756.992 152.192 757.728 164.328 L 757.728 164.328 L 757.728 164.328 Q 758.463 176.464 760.425 186.761 L 760.425 186.761 L 760.425 186.761 Q 761.65 190.193 761.16 192.89 L 761.16 192.89 L 761.16 192.89 Q 760.915 193.626 760.915 194.116 L 760.915 194.116 L 760.915 194.116 Q 760.915 194.607 760.425 195.097 L 760.425 195.097 L 760.425 195.097 Q 751.108 173.031 747.063 147.411 L 747.063 147.411 L 747.063 147.411 Q 743.017 121.791 747.431 96.293 L 747.431 96.293 L 747.431 96.293 Q 745.714 96.538 742.772 97.274 L 742.772 97.274 L 742.772 97.274 Q 739.83 98.009 736.52 98.99 L 736.52 98.99 L 736.52 98.99 Q 733.211 99.97 730.146 100.951 L 730.146 100.951 L 730.146 100.951 Q 727.081 101.932 724.875 102.422 L 724.875 102.422 L 719.236 103.158 L 719.236 103.158 Q 718.5 100.951 719.604 99.848 L 719.604 99.848 L 719.604 99.848 Q 720.707 98.745 721.197 97.028 L 721.197 97.028 L 721.197 97.028 Q 722.913 91.144 728.307 88.202 L 728.307 88.202 L 728.307 88.202 Q 730.514 86.976 731.985 85.26 L 731.985 85.26 L 731.985 85.26 Q 733.456 83.544 735.417 82.563 L 735.417 82.563 L 735.417 82.563 Q 742.037 79.866 750.373 77.905 L 750.373 77.905 L 750.373 77.905 Q 758.708 75.944 767.412 74.84 L 767.412 74.84 L 767.412 74.84 Q 776.116 73.737 784.819 73.86 L 784.819 73.86 L 784.819 73.86 Q 793.523 73.982 801.368 75.699 L 801.368 75.699 L 801.368 75.699 Q 803.82 76.189 806.026 77.537 L 806.026 77.537 L 806.026 77.537 Q 808.233 78.886 810.44 79.866 L 810.44 79.866 L 814.362 82.318 L 814.362 82.318 Q 819.511 83.054 818.775 86.731 Z " fill="rgb(215,12,12)"/></g></svg>