<?xml version="1.0" encoding="UTF-8" standalone="no"?><!-- Generator: Gravit.io --><svg xmlns="http://www.w3.org/2000/svg" xmlns:xlink="http://www.w3.org/1999/xlink" style="isolation:isolate" viewBox="0 0 992 250" width="992pt" height="250pt"><defs><clipPath id="_clipPath_BsvZtuQzQlc0wNhW4hGwLiqr0iTNRFki"><rect width="992" height="250"/></clipPath></defs><g clip-path="url(#_clipPath_BsvZtuQzQlc0wNhW4hGwLiqr0iTNRFki)"><path d=" M 382.427 145.601 L 378.516 168.508 L 378.516 168.508 Q 366.411 168.322 358.868 165.901 L 358.868 165.901 L 358.868 165.901 Q 351.326 163.48 346.949 159.103 L 346.949 159.103 L 346.949 159.103 Q 342.572 154.727 340.989 148.488 L 340.989 148.488 L 340.989 148.488 Q 339.406 142.249 339.406 134.427 L 339.406 134.427 L 339.406 26.595 L 367.156 22.125 L 367.156 128.84 L 367.156 128.84 Q 367.156 132.564 367.715 135.544 L 367.715 135.544 L 367.715 135.544 Q 368.273 138.524 369.856 140.573 L 369.856 140.573 L 369.856 140.573 Q 371.439 142.621 374.419 143.925 L 374.419 143.925 L 374.419 143.925 Q 377.399 145.228 382.427 145.601 L 382.427 145.601 Z  M 481.878 68.685 L 481.878 163.294 L 481.878 163.294 Q 474.801 165.342 463.627 167.111 L 463.627 167.111 L 463.627 167.111 Q 452.453 168.881 440.161 168.881 L 440.161 168.881 L 440.161 168.881 Q 427.683 168.881 419.395 165.528 L 419.395 165.528 L 419.395 165.528 Q 411.108 162.176 406.266 156.123 L 406.266 156.123 L 406.266 156.123 Q 401.424 150.071 399.375 141.69 L 399.375 141.69 L 399.375 141.69 Q 397.326 133.309 397.326 123.252 L 397.326 123.252 L 397.326 68.685 L 425.076 68.685 L 425.076 119.9 L 425.076 119.9 Q 425.076 133.309 428.614 139.269 L 428.614 139.269 L 428.614 139.269 Q 432.153 145.228 441.837 145.228 L 441.837 145.228 L 441.837 145.228 Q 444.817 145.228 448.169 144.949 L 448.169 144.949 L 448.169 144.949 Q 451.521 144.67 454.129 144.297 L 454.129 144.297 L 454.129 68.685 L 481.878 68.685 Z  M 507.02 126.605 L 507.02 44.288 L 534.77 39.818 L 534.77 68.685 L 568.106 68.685 L 568.106 91.778 L 534.77 91.778 L 534.77 126.232 L 534.77 126.232 Q 534.77 134.985 537.843 140.2 L 537.843 140.2 L 537.843 140.2 Q 540.916 145.415 550.227 145.415 L 550.227 145.415 L 550.227 145.415 Q 554.697 145.415 559.446 144.577 L 559.446 144.577 L 559.446 144.577 Q 564.195 143.739 568.106 142.249 L 568.106 142.249 L 572.017 163.852 L 572.017 163.852 Q 566.989 165.901 560.843 167.391 L 560.843 167.391 L 560.843 167.391 Q 554.697 168.881 545.758 168.881 L 545.758 168.881 L 545.758 168.881 Q 534.397 168.881 526.948 165.808 L 526.948 165.808 L 526.948 165.808 Q 519.498 162.735 515.029 157.241 L 515.029 157.241 L 515.029 157.241 Q 510.559 151.747 508.79 143.925 L 508.79 143.925 L 508.79 143.925 Q 507.02 136.103 507.02 126.605 L 507.02 126.605 Z  M 654.334 70.361 L 649.678 93.268 L 649.678 93.268 Q 645.954 92.337 640.925 91.313 L 640.925 91.313 L 640.925 91.313 Q 635.897 90.288 630.123 90.288 L 630.123 90.288 L 630.123 90.288 Q 627.516 90.288 623.884 90.754 L 623.884 90.754 L 623.884 90.754 Q 620.253 91.22 618.391 91.778 L 618.391 91.778 L 618.391 166.646 L 590.641 166.646 L 590.641 73.899 L 590.641 73.899 Q 598.091 71.292 608.241 68.964 L 608.241 68.964 L 608.241 68.964 Q 618.391 66.636 630.868 66.636 L 630.868 66.636 L 630.868 66.636 Q 633.103 66.636 636.269 66.915 L 636.269 66.915 L 636.269 66.915 Q 639.435 67.195 642.601 67.66 L 642.601 67.66 L 642.601 67.66 Q 645.767 68.126 648.933 68.778 L 648.933 68.778 L 648.933 68.778 Q 652.1 69.43 654.334 70.361 L 654.334 70.361 Z  M 759 117.479 L 759 117.479 L 759 117.479 Q 759 129.026 755.648 138.617 L 755.648 138.617 L 755.648 138.617 Q 752.295 148.208 745.963 155.006 L 745.963 155.006 L 745.963 155.006 Q 739.631 161.804 730.785 165.528 L 730.785 165.528 L 730.785 165.528 Q 721.939 169.253 710.951 169.253 L 710.951 169.253 L 710.951 169.253 Q 700.149 169.253 691.303 165.528 L 691.303 165.528 L 691.303 165.528 Q 682.456 161.804 676.124 155.006 L 676.124 155.006 L 676.124 155.006 Q 669.792 148.208 666.254 138.617 L 666.254 138.617 L 666.254 138.617 Q 662.715 129.026 662.715 117.479 L 662.715 117.479 L 662.715 117.479 Q 662.715 105.932 666.347 96.434 L 666.347 96.434 L 666.347 96.434 Q 669.978 86.936 676.404 80.231 L 676.404 80.231 L 676.404 80.231 Q 682.829 73.527 691.675 69.802 L 691.675 69.802 L 691.675 69.802 Q 700.521 66.077 710.951 66.077 L 710.951 66.077 L 710.951 66.077 Q 721.566 66.077 730.412 69.802 L 730.412 69.802 L 730.412 69.802 Q 739.259 73.527 745.591 80.231 L 745.591 80.231 L 745.591 80.231 Q 751.923 86.936 755.461 96.434 L 755.461 96.434 L 755.461 96.434 Q 759 105.932 759 117.479 Z  M 730.692 117.479 L 730.692 117.479 L 730.692 117.479 Q 730.692 104.629 725.57 97.272 L 725.57 97.272 L 725.57 97.272 Q 720.449 89.916 710.951 89.916 L 710.951 89.916 L 710.951 89.916 Q 701.453 89.916 696.238 97.272 L 696.238 97.272 L 696.238 97.272 Q 691.023 104.629 691.023 117.479 L 691.023 117.479 L 691.023 117.479 Q 691.023 130.329 696.238 137.872 L 696.238 137.872 L 696.238 137.872 Q 701.453 145.415 710.951 145.415 L 710.951 145.415 L 710.951 145.415 Q 720.449 145.415 725.57 137.872 L 725.57 137.872 L 725.57 137.872 Q 730.692 130.329 730.692 117.479 Z " fill="rgb(209,209,209)"/><path d=" M 485.675 218.794 L 477.509 218.794 L 477.509 182.517 L 501.798 182.517 L 501.798 189.374 L 485.675 189.374 L 485.675 196.965 L 500.018 196.965 L 500.018 203.822 L 485.675 203.822 L 485.675 218.794 Z  M 523.889 191.73 L 522.58 198.169 L 522.58 198.169 Q 521.533 197.907 520.12 197.619 L 520.12 197.619 L 520.12 197.619 Q 518.707 197.331 517.084 197.331 L 517.084 197.331 L 517.084 197.331 Q 516.351 197.331 515.33 197.462 L 515.33 197.462 L 515.33 197.462 Q 514.309 197.593 513.786 197.75 L 513.786 197.75 L 513.786 218.794 L 505.986 218.794 L 505.986 192.725 L 505.986 192.725 Q 508.08 191.992 510.933 191.337 L 510.933 191.337 L 510.933 191.337 Q 513.786 190.683 517.293 190.683 L 517.293 190.683 L 517.293 190.683 Q 517.921 190.683 518.811 190.762 L 518.811 190.762 L 518.811 190.762 Q 519.701 190.84 520.591 190.971 L 520.591 190.971 L 520.591 190.971 Q 521.481 191.102 522.371 191.285 L 522.371 191.285 L 522.371 191.285 Q 523.261 191.468 523.889 191.73 L 523.889 191.73 Z  M 538.075 213.35 L 538.075 213.35 L 538.075 213.35 Q 539.227 213.35 540.274 213.297 L 540.274 213.297 L 540.274 213.297 Q 541.321 213.245 541.949 213.14 L 541.949 213.14 L 541.949 207.225 L 541.949 207.225 Q 541.478 207.12 540.536 207.016 L 540.536 207.016 L 540.536 207.016 Q 539.593 206.911 538.808 206.911 L 538.808 206.911 L 538.808 206.911 Q 537.709 206.911 536.741 207.042 L 536.741 207.042 L 536.741 207.042 Q 535.772 207.173 535.039 207.539 L 535.039 207.539 L 535.039 207.539 Q 534.306 207.906 533.888 208.534 L 533.888 208.534 L 533.888 208.534 Q 533.469 209.162 533.469 210.104 L 533.469 210.104 L 533.469 210.104 Q 533.469 211.936 534.699 212.643 L 534.699 212.643 L 534.699 212.643 Q 535.929 213.35 538.075 213.35 Z  M 537.447 190.526 L 537.447 190.526 L 537.447 190.526 Q 540.902 190.526 543.205 191.311 L 543.205 191.311 L 543.205 191.311 Q 545.509 192.097 546.896 193.562 L 546.896 193.562 L 546.896 193.562 Q 548.283 195.028 548.859 197.122 L 548.859 197.122 L 548.859 197.122 Q 549.435 199.216 549.435 201.781 L 549.435 201.781 L 549.435 218.009 L 549.435 218.009 Q 547.76 218.375 544.776 218.872 L 544.776 218.872 L 544.776 218.872 Q 541.792 219.37 537.552 219.37 L 537.552 219.37 L 537.552 219.37 Q 534.882 219.37 532.71 218.899 L 532.71 218.899 L 532.71 218.899 Q 530.537 218.428 528.967 217.354 L 528.967 217.354 L 528.967 217.354 Q 527.396 216.281 526.559 214.554 L 526.559 214.554 L 526.559 214.554 Q 525.721 212.826 525.721 210.314 L 525.721 210.314 L 525.721 210.314 Q 525.721 207.906 526.69 206.23 L 526.69 206.23 L 526.69 206.23 Q 527.658 204.555 529.281 203.561 L 529.281 203.561 L 529.281 203.561 Q 530.904 202.566 532.998 202.121 L 532.998 202.121 L 532.998 202.121 Q 535.092 201.676 537.342 201.676 L 537.342 201.676 L 537.342 201.676 Q 538.861 201.676 540.038 201.807 L 540.038 201.807 L 540.038 201.807 Q 541.216 201.938 541.949 202.147 L 541.949 202.147 L 541.949 201.414 L 541.949 201.414 Q 541.949 199.425 540.745 198.221 L 540.745 198.221 L 540.745 198.221 Q 539.541 197.017 536.557 197.017 L 536.557 197.017 L 536.557 197.017 Q 534.568 197.017 532.631 197.305 L 532.631 197.305 L 532.631 197.305 Q 530.694 197.593 529.281 198.117 L 529.281 198.117 L 528.286 191.835 L 528.286 191.835 Q 528.967 191.625 529.988 191.39 L 529.988 191.39 L 529.988 191.39 Q 531.008 191.154 532.212 190.971 L 532.212 190.971 L 532.212 190.971 Q 533.416 190.788 534.751 190.657 L 534.751 190.657 L 534.751 190.657 Q 536.086 190.526 537.447 190.526 Z  M 571.63 218.794 L 571.63 204.189 L 571.63 204.189 Q 571.63 200.42 570.662 198.849 L 570.662 198.849 L 570.662 198.849 Q 569.693 197.279 567.338 197.279 L 567.338 197.279 L 567.338 197.279 Q 566.605 197.279 565.82 197.357 L 565.82 197.357 L 565.82 197.357 Q 565.035 197.436 564.302 197.541 L 564.302 197.541 L 564.302 218.794 L 556.502 218.794 L 556.502 192.201 L 556.502 192.201 Q 557.496 191.939 558.831 191.652 L 558.831 191.652 L 558.831 191.652 Q 560.166 191.364 561.658 191.128 L 561.658 191.128 L 561.658 191.128 Q 563.15 190.893 564.72 190.762 L 564.72 190.762 L 564.72 190.762 Q 566.291 190.631 567.809 190.631 L 567.809 190.631 L 567.809 190.631 Q 570.793 190.631 572.651 191.39 L 572.651 191.39 L 572.651 191.39 Q 574.509 192.149 575.714 193.196 L 575.714 193.196 L 575.714 193.196 Q 577.389 191.992 579.561 191.311 L 579.561 191.311 L 579.561 191.311 Q 581.734 190.631 583.566 190.631 L 583.566 190.631 L 583.566 190.631 Q 586.864 190.631 588.984 191.547 L 588.984 191.547 L 588.984 191.547 Q 591.104 192.463 592.36 194.138 L 592.36 194.138 L 592.36 194.138 Q 593.616 195.813 594.088 198.117 L 594.088 198.117 L 594.088 198.117 Q 594.559 200.42 594.559 203.247 L 594.559 203.247 L 594.559 218.794 L 586.759 218.794 L 586.759 204.189 L 586.759 204.189 Q 586.759 200.42 585.79 198.849 L 585.79 198.849 L 585.79 198.849 Q 584.822 197.279 582.466 197.279 L 582.466 197.279 L 582.466 197.279 Q 581.838 197.279 580.713 197.593 L 580.713 197.593 L 580.713 197.593 Q 579.587 197.907 578.854 198.378 L 578.854 198.378 L 578.854 198.378 Q 579.221 199.582 579.326 200.917 L 579.326 200.917 L 579.326 200.917 Q 579.43 202.252 579.43 203.77 L 579.43 203.77 L 579.43 218.794 L 571.63 218.794 Z  M 600.317 205.236 L 600.317 205.236 L 600.317 205.236 Q 600.317 201.571 601.442 198.823 L 601.442 198.823 L 601.442 198.823 Q 602.568 196.075 604.4 194.243 L 604.4 194.243 L 604.4 194.243 Q 606.232 192.411 608.614 191.468 L 608.614 191.468 L 608.614 191.468 Q 610.996 190.526 613.509 190.526 L 613.509 190.526 L 613.509 190.526 Q 619.372 190.526 622.774 194.112 L 622.774 194.112 L 622.774 194.112 Q 626.177 197.698 626.177 204.66 L 626.177 204.66 L 626.177 204.66 Q 626.177 205.341 626.125 206.152 L 626.125 206.152 L 626.125 206.152 Q 626.072 206.963 626.02 207.591 L 626.02 207.591 L 608.326 207.591 L 608.326 207.591 Q 608.588 209.999 610.577 211.413 L 610.577 211.413 L 610.577 211.413 Q 612.566 212.826 615.917 212.826 L 615.917 212.826 L 615.917 212.826 Q 618.063 212.826 620.131 212.434 L 620.131 212.434 L 620.131 212.434 Q 622.198 212.041 623.507 211.465 L 623.507 211.465 L 624.554 217.799 L 624.554 217.799 Q 623.926 218.113 622.879 218.428 L 622.879 218.428 L 622.879 218.428 Q 621.832 218.742 620.549 218.977 L 620.549 218.977 L 620.549 218.977 Q 619.267 219.213 617.801 219.37 L 617.801 219.37 L 617.801 219.37 Q 616.335 219.527 614.87 219.527 L 614.87 219.527 L 614.87 219.527 Q 611.153 219.527 608.405 218.428 L 608.405 218.428 L 608.405 218.428 Q 605.656 217.328 603.851 215.417 L 603.851 215.417 L 603.851 215.417 Q 602.045 213.507 601.181 210.889 L 601.181 210.889 L 601.181 210.889 Q 600.317 208.272 600.317 205.236 Z  M 608.326 202.252 L 618.639 202.252 L 618.639 202.252 Q 618.586 201.257 618.299 200.315 L 618.299 200.315 L 618.299 200.315 Q 618.011 199.373 617.409 198.64 L 617.409 198.64 L 617.409 198.64 Q 616.807 197.907 615.891 197.436 L 615.891 197.436 L 615.891 197.436 Q 614.974 196.965 613.613 196.965 L 613.613 196.965 L 613.613 196.965 Q 612.305 196.965 611.362 197.41 L 611.362 197.41 L 611.362 197.41 Q 610.42 197.855 609.792 198.588 L 609.792 198.588 L 609.792 198.588 Q 609.164 199.321 608.824 200.289 L 608.824 200.289 L 608.824 200.289 Q 608.483 201.257 608.326 202.252 L 608.326 202.252 Z  M 648.974 202.985 L 648.974 202.985 L 648.974 202.985 Q 647.927 206.963 646.75 210.889 L 646.75 210.889 L 646.75 210.889 Q 645.572 214.816 644.263 218.794 L 644.263 218.794 L 638.191 218.794 L 638.191 218.794 Q 637.246 216.595 636.143 213.559 L 636.143 213.559 L 636.143 213.559 Q 635.041 210.523 633.86 206.937 L 633.86 206.937 L 633.86 206.937 Q 632.678 203.351 631.445 199.347 L 631.445 199.347 L 631.445 199.347 Q 630.211 195.342 629.056 191.259 L 629.056 191.259 L 637.275 191.259 L 637.275 191.259 Q 637.696 193.143 638.196 195.368 L 638.196 195.368 L 638.196 195.368 Q 638.697 197.593 639.249 199.949 L 639.249 199.949 L 639.249 199.949 Q 639.802 202.304 640.408 204.686 L 640.408 204.686 L 640.408 204.686 Q 641.014 207.068 641.646 209.267 L 641.646 209.267 L 641.646 209.267 Q 642.326 206.963 642.981 204.555 L 642.981 204.555 L 642.981 204.555 Q 643.635 202.147 644.237 199.818 L 644.237 199.818 L 644.237 199.818 Q 644.839 197.488 645.389 195.316 L 645.389 195.316 L 645.389 195.316 Q 645.938 193.143 646.357 191.259 L 646.357 191.259 L 652.011 191.259 L 652.011 191.259 Q 652.429 193.143 652.953 195.316 L 652.953 195.316 L 652.953 195.316 Q 653.476 197.488 654.052 199.818 L 654.052 199.818 L 654.052 199.818 Q 654.628 202.147 655.256 204.555 L 655.256 204.555 L 655.256 204.555 Q 655.884 206.963 656.565 209.267 L 656.565 209.267 L 656.565 209.267 Q 657.197 207.068 657.829 204.686 L 657.829 204.686 L 657.829 204.686 Q 658.461 202.304 659.014 199.949 L 659.014 199.949 L 659.014 199.949 Q 659.566 197.593 660.067 195.368 L 660.067 195.368 L 660.067 195.368 Q 660.567 193.143 660.988 191.259 L 660.988 191.259 L 669.102 191.259 L 669.102 191.259 Q 667.947 195.342 666.714 199.347 L 666.714 199.347 L 666.714 199.347 Q 665.48 203.351 664.299 206.937 L 664.299 206.937 L 664.299 206.937 Q 663.117 210.523 661.989 213.559 L 661.989 213.559 L 661.989 213.559 Q 660.86 216.595 659.915 218.794 L 659.915 218.794 L 653.843 218.794 L 653.843 218.794 Q 652.534 214.816 651.278 210.889 L 651.278 210.889 L 651.278 210.889 Q 650.021 206.963 648.974 202.985 Z  M 698.365 204.974 L 698.365 204.974 L 698.365 204.974 Q 698.365 208.22 697.422 210.916 L 697.422 210.916 L 697.422 210.916 Q 696.48 213.611 694.7 215.522 L 694.7 215.522 L 694.7 215.522 Q 692.92 217.433 690.434 218.48 L 690.434 218.48 L 690.434 218.48 Q 687.947 219.527 684.859 219.527 L 684.859 219.527 L 684.859 219.527 Q 681.823 219.527 679.336 218.48 L 679.336 218.48 L 679.336 218.48 Q 676.85 217.433 675.07 215.522 L 675.07 215.522 L 675.07 215.522 Q 673.29 213.611 672.295 210.916 L 672.295 210.916 L 672.295 210.916 Q 671.301 208.22 671.301 204.974 L 671.301 204.974 L 671.301 204.974 Q 671.301 201.729 672.322 199.059 L 672.322 199.059 L 672.322 199.059 Q 673.342 196.389 675.148 194.505 L 675.148 194.505 L 675.148 194.505 Q 676.954 192.62 679.441 191.573 L 679.441 191.573 L 679.441 191.573 Q 681.927 190.526 684.859 190.526 L 684.859 190.526 L 684.859 190.526 Q 687.843 190.526 690.329 191.573 L 690.329 191.573 L 690.329 191.573 Q 692.816 192.62 694.596 194.505 L 694.596 194.505 L 694.596 194.505 Q 696.375 196.389 697.37 199.059 L 697.37 199.059 L 697.37 199.059 Q 698.365 201.729 698.365 204.974 Z  M 690.408 204.974 L 690.408 204.974 L 690.408 204.974 Q 690.408 201.362 688.968 199.294 L 688.968 199.294 L 688.968 199.294 Q 687.529 197.227 684.859 197.227 L 684.859 197.227 L 684.859 197.227 Q 682.189 197.227 680.723 199.294 L 680.723 199.294 L 680.723 199.294 Q 679.258 201.362 679.258 204.974 L 679.258 204.974 L 679.258 204.974 Q 679.258 208.586 680.723 210.706 L 680.723 210.706 L 680.723 210.706 Q 682.189 212.826 684.859 212.826 L 684.859 212.826 L 684.859 212.826 Q 687.529 212.826 688.968 210.706 L 688.968 210.706 L 688.968 210.706 Q 690.408 208.586 690.408 204.974 Z  M 722.288 191.73 L 720.979 198.169 L 720.979 198.169 Q 719.932 197.907 718.519 197.619 L 718.519 197.619 L 718.519 197.619 Q 717.105 197.331 715.482 197.331 L 715.482 197.331 L 715.482 197.331 Q 714.75 197.331 713.729 197.462 L 713.729 197.462 L 713.729 197.462 Q 712.708 197.593 712.184 197.75 L 712.184 197.75 L 712.184 218.794 L 704.385 218.794 L 704.385 192.725 L 704.385 192.725 Q 706.479 191.992 709.332 191.337 L 709.332 191.337 L 709.332 191.337 Q 712.184 190.683 715.692 190.683 L 715.692 190.683 L 715.692 190.683 Q 716.32 190.683 717.21 190.762 L 717.21 190.762 L 717.21 190.762 Q 718.1 190.84 718.99 190.971 L 718.99 190.971 L 718.99 190.971 Q 719.88 191.102 720.77 191.285 L 720.77 191.285 L 720.77 191.285 Q 721.659 191.468 722.288 191.73 L 722.288 191.73 Z  M 734.275 178.172 L 734.275 201.157 L 734.275 201.157 Q 735.427 199.907 736.657 198.552 L 736.657 198.552 L 736.657 198.552 Q 737.887 197.198 739.039 195.869 L 739.039 195.869 L 739.039 195.869 Q 740.191 194.541 741.211 193.343 L 741.211 193.343 L 741.211 193.343 Q 742.232 192.145 742.965 191.259 L 742.965 191.259 L 752.231 191.259 L 752.231 191.259 Q 749.456 194.445 746.813 197.344 L 746.813 197.344 L 746.813 197.344 Q 744.169 200.243 741.028 203.325 L 741.028 203.325 L 741.028 203.325 Q 742.599 204.741 744.274 206.707 L 744.274 206.707 L 744.274 206.707 Q 745.949 208.674 747.519 210.771 L 747.519 210.771 L 747.519 210.771 Q 749.09 212.869 750.398 214.966 L 750.398 214.966 L 750.398 214.966 Q 751.707 217.064 752.597 218.794 L 752.597 218.794 L 743.626 218.794 L 743.626 218.794 Q 742.79 217.43 741.72 215.777 L 741.72 215.777 L 741.72 215.777 Q 740.649 214.125 739.447 212.472 L 739.447 212.472 L 739.447 212.472 Q 738.246 210.82 736.913 209.298 L 736.913 209.298 L 736.913 209.298 Q 735.581 207.777 734.275 206.728 L 734.275 206.728 L 734.275 218.794 L 726.475 218.794 L 726.475 179.428 L 734.275 178.172 Z  M 341.247 188.799 L 341.247 188.799 L 341.247 188.799 Q 335.541 188.799 333.002 191.966 L 333.002 191.966 L 333.002 191.966 Q 330.464 195.133 330.464 200.629 L 330.464 200.629 L 330.464 200.629 Q 330.464 203.299 331.092 205.471 L 331.092 205.471 L 331.092 205.471 Q 331.72 207.644 332.976 209.214 L 332.976 209.214 L 332.976 209.214 Q 334.233 210.785 336.117 211.648 L 336.117 211.648 L 336.117 211.648 Q 338.002 212.512 340.514 212.512 L 340.514 212.512 L 340.514 212.512 Q 341.875 212.512 342.844 212.46 L 342.844 212.46 L 342.844 212.46 Q 343.812 212.407 344.545 212.25 L 344.545 212.25 L 344.545 199.635 L 352.711 199.635 L 352.711 217.59 L 352.711 217.59 Q 351.246 218.166 348 218.82 L 348 218.82 L 348 218.82 Q 344.755 219.474 339.991 219.474 L 339.991 219.474 L 339.991 219.474 Q 335.908 219.474 332.584 218.218 L 332.584 218.218 L 332.584 218.218 Q 329.26 216.962 326.904 214.554 L 326.904 214.554 L 326.904 214.554 Q 324.548 212.146 323.266 208.638 L 323.266 208.638 L 323.266 208.638 Q 321.983 205.131 321.983 200.629 L 321.983 200.629 L 321.983 200.629 Q 321.983 196.075 323.397 192.568 L 323.397 192.568 L 323.397 192.568 Q 324.81 189.06 327.27 186.626 L 327.27 186.626 L 327.27 186.626 Q 329.731 184.192 333.055 182.936 L 333.055 182.936 L 333.055 182.936 Q 336.379 181.679 340.148 181.679 L 340.148 181.679 L 340.148 181.679 Q 342.713 181.679 344.781 182.02 L 344.781 182.02 L 344.781 182.02 Q 346.848 182.36 348.34 182.805 L 348.34 182.805 L 348.34 182.805 Q 349.832 183.25 350.801 183.721 L 350.801 183.721 L 350.801 183.721 Q 351.769 184.192 352.188 184.454 L 352.188 184.454 L 349.832 190.997 L 349.832 190.997 Q 348.157 190.107 345.985 189.453 L 345.985 189.453 L 345.985 189.453 Q 343.812 188.799 341.247 188.799 Z  M 370.3 213.35 L 370.3 213.35 L 370.3 213.35 Q 371.452 213.35 372.499 213.297 L 372.499 213.297 L 372.499 213.297 Q 373.546 213.245 374.174 213.14 L 374.174 213.14 L 374.174 207.225 L 374.174 207.225 Q 373.703 207.12 372.761 207.016 L 372.761 207.016 L 372.761 207.016 Q 371.818 206.911 371.033 206.911 L 371.033 206.911 L 371.033 206.911 Q 369.934 206.911 368.965 207.042 L 368.965 207.042 L 368.965 207.042 Q 367.997 207.173 367.264 207.539 L 367.264 207.539 L 367.264 207.539 Q 366.531 207.906 366.113 208.534 L 366.113 208.534 L 366.113 208.534 Q 365.694 209.162 365.694 210.104 L 365.694 210.104 L 365.694 210.104 Q 365.694 211.936 366.924 212.643 L 366.924 212.643 L 366.924 212.643 Q 368.154 213.35 370.3 213.35 Z  M 369.672 190.526 L 369.672 190.526 L 369.672 190.526 Q 373.127 190.526 375.43 191.311 L 375.43 191.311 L 375.43 191.311 Q 377.734 192.097 379.121 193.562 L 379.121 193.562 L 379.121 193.562 Q 380.508 195.028 381.084 197.122 L 381.084 197.122 L 381.084 197.122 Q 381.66 199.216 381.66 201.781 L 381.66 201.781 L 381.66 218.009 L 381.66 218.009 Q 379.985 218.375 377.001 218.872 L 377.001 218.872 L 377.001 218.872 Q 374.017 219.37 369.777 219.37 L 369.777 219.37 L 369.777 219.37 Q 367.107 219.37 364.935 218.899 L 364.935 218.899 L 364.935 218.899 Q 362.762 218.428 361.192 217.354 L 361.192 217.354 L 361.192 217.354 Q 359.621 216.281 358.784 214.554 L 358.784 214.554 L 358.784 214.554 Q 357.946 212.826 357.946 210.314 L 357.946 210.314 L 357.946 210.314 Q 357.946 207.906 358.915 206.23 L 358.915 206.23 L 358.915 206.23 Q 359.883 204.555 361.506 203.561 L 361.506 203.561 L 361.506 203.561 Q 363.129 202.566 365.223 202.121 L 365.223 202.121 L 365.223 202.121 Q 367.316 201.676 369.567 201.676 L 369.567 201.676 L 369.567 201.676 Q 371.086 201.676 372.263 201.807 L 372.263 201.807 L 372.263 201.807 Q 373.441 201.938 374.174 202.147 L 374.174 202.147 L 374.174 201.414 L 374.174 201.414 Q 374.174 199.425 372.97 198.221 L 372.97 198.221 L 372.97 198.221 Q 371.766 197.017 368.782 197.017 L 368.782 197.017 L 368.782 197.017 Q 366.793 197.017 364.856 197.305 L 364.856 197.305 L 364.856 197.305 Q 362.919 197.593 361.506 198.117 L 361.506 198.117 L 360.511 191.835 L 360.511 191.835 Q 361.192 191.625 362.213 191.39 L 362.213 191.39 L 362.213 191.39 Q 363.233 191.154 364.437 190.971 L 364.437 190.971 L 364.437 190.971 Q 365.641 190.788 366.976 190.657 L 366.976 190.657 L 366.976 190.657 Q 368.311 190.526 369.672 190.526 Z  M 403.855 218.794 L 403.855 204.189 L 403.855 204.189 Q 403.855 200.42 402.887 198.849 L 402.887 198.849 L 402.887 198.849 Q 401.918 197.279 399.563 197.279 L 399.563 197.279 L 399.563 197.279 Q 398.83 197.279 398.045 197.357 L 398.045 197.357 L 398.045 197.357 Q 397.26 197.436 396.527 197.541 L 396.527 197.541 L 396.527 218.794 L 388.727 218.794 L 388.727 192.201 L 388.727 192.201 Q 389.721 191.939 391.056 191.652 L 391.056 191.652 L 391.056 191.652 Q 392.391 191.364 393.883 191.128 L 393.883 191.128 L 393.883 191.128 Q 395.375 190.893 396.945 190.762 L 396.945 190.762 L 396.945 190.762 Q 398.516 190.631 400.034 190.631 L 400.034 190.631 L 400.034 190.631 Q 403.018 190.631 404.876 191.39 L 404.876 191.39 L 404.876 191.39 Q 406.734 192.149 407.938 193.196 L 407.938 193.196 L 407.938 193.196 Q 409.614 191.992 411.786 191.311 L 411.786 191.311 L 411.786 191.311 Q 413.958 190.631 415.791 190.631 L 415.791 190.631 L 415.791 190.631 Q 419.089 190.631 421.209 191.547 L 421.209 191.547 L 421.209 191.547 Q 423.329 192.463 424.585 194.138 L 424.585 194.138 L 424.585 194.138 Q 425.841 195.813 426.313 198.117 L 426.313 198.117 L 426.313 198.117 Q 426.784 200.42 426.784 203.247 L 426.784 203.247 L 426.784 218.794 L 418.984 218.794 L 418.984 204.189 L 418.984 204.189 Q 418.984 200.42 418.015 198.849 L 418.015 198.849 L 418.015 198.849 Q 417.047 197.279 414.691 197.279 L 414.691 197.279 L 414.691 197.279 Q 414.063 197.279 412.938 197.593 L 412.938 197.593 L 412.938 197.593 Q 411.812 197.907 411.079 198.378 L 411.079 198.378 L 411.079 198.378 Q 411.446 199.582 411.55 200.917 L 411.55 200.917 L 411.55 200.917 Q 411.655 202.252 411.655 203.77 L 411.655 203.77 L 411.655 218.794 L 403.855 218.794 Z  M 432.542 205.236 L 432.542 205.236 L 432.542 205.236 Q 432.542 201.571 433.667 198.823 L 433.667 198.823 L 433.667 198.823 Q 434.793 196.075 436.625 194.243 L 436.625 194.243 L 436.625 194.243 Q 438.457 192.411 440.839 191.468 L 440.839 191.468 L 440.839 191.468 Q 443.221 190.526 445.734 190.526 L 445.734 190.526 L 445.734 190.526 Q 451.597 190.526 454.999 194.112 L 454.999 194.112 L 454.999 194.112 Q 458.402 197.698 458.402 204.66 L 458.402 204.66 L 458.402 204.66 Q 458.402 205.341 458.35 206.152 L 458.35 206.152 L 458.35 206.152 Q 458.297 206.963 458.245 207.591 L 458.245 207.591 L 440.551 207.591 L 440.551 207.591 Q 440.813 209.999 442.802 211.413 L 442.802 211.413 L 442.802 211.413 Q 444.791 212.826 448.142 212.826 L 448.142 212.826 L 448.142 212.826 Q 450.288 212.826 452.356 212.434 L 452.356 212.434 L 452.356 212.434 Q 454.423 212.041 455.732 211.465 L 455.732 211.465 L 456.779 217.799 L 456.779 217.799 Q 456.151 218.113 455.104 218.428 L 455.104 218.428 L 455.104 218.428 Q 454.057 218.742 452.774 218.977 L 452.774 218.977 L 452.774 218.977 Q 451.492 219.213 450.026 219.37 L 450.026 219.37 L 450.026 219.37 Q 448.56 219.527 447.095 219.527 L 447.095 219.527 L 447.095 219.527 Q 443.378 219.527 440.63 218.428 L 440.63 218.428 L 440.63 218.428 Q 437.881 217.328 436.075 215.417 L 436.075 215.417 L 436.075 215.417 Q 434.269 213.507 433.406 210.889 L 433.406 210.889 L 433.406 210.889 Q 432.542 208.272 432.542 205.236 Z  M 440.551 202.252 L 450.864 202.252 L 450.864 202.252 Q 450.811 201.257 450.524 200.315 L 450.524 200.315 L 450.524 200.315 Q 450.236 199.373 449.634 198.64 L 449.634 198.64 L 449.634 198.64 Q 449.032 197.907 448.116 197.436 L 448.116 197.436 L 448.116 197.436 Q 447.199 196.965 445.838 196.965 L 445.838 196.965 L 445.838 196.965 Q 444.53 196.965 443.587 197.41 L 443.587 197.41 L 443.587 197.41 Q 442.645 197.855 442.017 198.588 L 442.017 198.588 L 442.017 198.588 Q 441.389 199.321 441.049 200.289 L 441.049 200.289 L 441.049 200.289 Q 440.708 201.257 440.551 202.252 L 440.551 202.252 Z " fill="rgb(18,5,134)"/><path d=" M 162.792 167.718 C 162.792 126.047 196.623 92.216 238.293 92.216 C 279.964 92.216 313.795 126.047 313.795 167.718 C 313.795 209.388 279.964 243.22 238.293 243.22 C 196.623 243.22 162.792 209.388 162.792 167.718 Z  M 239.056 140.263 C 239.056 128.898 248.283 119.671 259.647 119.671 C 271.012 119.671 280.239 128.898 280.239 140.263 C 280.239 151.627 271.012 160.854 259.647 160.854 C 248.283 160.854 239.056 151.627 239.056 140.263 Z " fill-rule="evenodd" fill="rgb(18,5,134)"/><path d=" M 284.815 86.877 C 284.815 75.513 294.041 66.286 305.406 66.286 C 316.771 66.286 325.997 75.513 325.997 86.877 C 325.997 98.242 316.771 107.469 305.406 107.469 C 294.041 107.469 284.815 98.242 284.815 86.877 Z " fill="rgb(18,5,134)"/><path d=" M 196.938 204.994 L 218.199 204.994 L 218.199 210.575 L 190.493 210.575 L 190.493 164.531 L 196.938 164.531 L 196.938 204.994 Z  M 252.084 176.026 L 252.084 209.579 L 252.084 209.579 Q 249.958 210.11 246.47 210.708 L 246.47 210.708 L 246.47 210.708 Q 242.982 211.306 238.397 211.306 L 238.397 211.306 L 238.397 211.306 Q 234.411 211.306 231.687 210.143 L 231.687 210.143 L 231.687 210.143 Q 228.963 208.981 227.302 206.854 L 227.302 206.854 L 227.302 206.854 Q 225.641 204.728 224.91 201.838 L 224.91 201.838 L 224.91 201.838 Q 224.179 198.948 224.179 195.427 L 224.179 195.427 L 224.179 176.026 L 230.358 176.026 L 230.358 194.098 L 230.358 194.098 Q 230.358 200.41 232.351 203.134 L 232.351 203.134 L 232.351 203.134 Q 234.344 205.858 239.062 205.858 L 239.062 205.858 L 239.062 205.858 Q 240.058 205.858 241.121 205.791 L 241.121 205.791 L 241.121 205.791 Q 242.185 205.725 243.115 205.625 L 243.115 205.625 L 243.115 205.625 Q 244.045 205.526 244.809 205.426 L 244.809 205.426 L 244.809 205.426 Q 245.573 205.326 245.905 205.193 L 245.905 205.193 L 245.905 176.026 L 252.084 176.026 Z  M 274.409 206.124 L 274.409 206.124 L 274.409 206.124 Q 276.601 206.124 278.296 206.024 L 278.296 206.024 L 278.296 206.024 Q 279.99 205.924 281.119 205.659 L 281.119 205.659 L 281.119 195.36 L 281.119 195.36 Q 280.455 195.028 278.96 194.795 L 278.96 194.795 L 278.96 194.795 Q 277.465 194.563 275.339 194.563 L 275.339 194.563 L 275.339 194.563 Q 273.944 194.563 272.382 194.762 L 272.382 194.762 L 272.382 194.762 Q 270.821 194.961 269.525 195.593 L 269.525 195.593 L 269.525 195.593 Q 268.23 196.224 267.366 197.32 L 267.366 197.32 L 267.366 197.32 Q 266.502 198.416 266.502 200.21 L 266.502 200.21 L 266.502 200.21 Q 266.502 203.532 268.628 204.828 L 268.628 204.828 L 268.628 204.828 Q 270.754 206.124 274.409 206.124 Z  M 273.877 175.162 L 273.877 175.162 L 273.877 175.162 Q 277.598 175.162 280.156 176.125 L 280.156 176.125 L 280.156 176.125 Q 282.714 177.089 284.275 178.849 L 284.275 178.849 L 284.275 178.849 Q 285.837 180.61 286.501 183.035 L 286.501 183.035 L 286.501 183.035 Q 287.165 185.46 287.165 188.384 L 287.165 188.384 L 287.165 209.977 L 287.165 209.977 Q 286.368 210.11 284.94 210.343 L 284.94 210.343 L 284.94 210.343 Q 283.511 210.575 281.717 210.775 L 281.717 210.775 L 281.717 210.775 Q 279.923 210.974 277.83 211.14 L 277.83 211.14 L 277.83 211.14 Q 275.738 211.306 273.678 211.306 L 273.678 211.306 L 273.678 211.306 Q 270.754 211.306 268.296 210.708 L 268.296 210.708 L 268.296 210.708 Q 265.838 210.11 264.044 208.814 L 264.044 208.814 L 264.044 208.814 Q 262.25 207.519 261.253 205.393 L 261.253 205.393 L 261.253 205.393 Q 260.257 203.267 260.257 200.277 L 260.257 200.277 L 260.257 200.277 Q 260.257 197.42 261.419 195.36 L 261.419 195.36 L 261.419 195.36 Q 262.582 193.3 264.575 192.038 L 264.575 192.038 L 264.575 192.038 Q 266.569 190.776 269.226 190.178 L 269.226 190.178 L 269.226 190.178 Q 271.884 189.58 274.807 189.58 L 274.807 189.58 L 274.807 189.58 Q 275.738 189.58 276.734 189.679 L 276.734 189.679 L 276.734 189.679 Q 277.731 189.779 278.628 189.945 L 278.628 189.945 L 278.628 189.945 Q 279.525 190.111 280.189 190.244 L 280.189 190.244 L 280.189 190.244 Q 280.854 190.377 281.119 190.443 L 281.119 190.443 L 281.119 188.716 L 281.119 188.716 Q 281.119 187.188 280.787 185.693 L 280.787 185.693 L 280.787 185.693 Q 280.455 184.198 279.591 183.035 L 279.591 183.035 L 279.591 183.035 Q 278.727 181.872 277.232 181.175 L 277.232 181.175 L 277.232 181.175 Q 275.738 180.477 273.346 180.477 L 273.346 180.477 L 273.346 180.477 Q 270.289 180.477 267.997 180.909 L 267.997 180.909 L 267.997 180.909 Q 265.705 181.341 264.575 181.806 L 264.575 181.806 L 263.844 176.69 L 263.844 176.69 Q 265.04 176.158 267.831 175.66 L 267.831 175.66 L 267.831 175.66 Q 270.622 175.162 273.877 175.162 Z " fill="rgb(255,255,255)"/></g></svg>