<?xml version="1.0" encoding="UTF-8" standalone="no"?><!-- Generator: Gravit.io --><svg xmlns="http://www.w3.org/2000/svg" xmlns:xlink="http://www.w3.org/1999/xlink" style="isolation:isolate" viewBox="0 0 992 250" width="992pt" height="250pt"><defs><clipPath id="_clipPath_kjBIjf1zv4nXA0a8UA5kmuwWdDJUIFaS"><rect width="992" height="250"/></clipPath></defs><g clip-path="url(#_clipPath_kjBIjf1zv4nXA0a8UA5kmuwWdDJUIFaS)"><path d=" M 777.807 151.811 Q 773.924 155.66 768.542 161.574 L 768.542 161.574 L 768.542 161.574 Q 761.796 168.987 755.05 177.348 L 755.05 177.348 L 755.05 177.348 Q 748.304 185.709 742.342 193.287 L 742.342 193.287 L 742.342 193.287 Q 736.381 200.864 733.557 205.207 L 733.557 205.207 L 677.587 205.207 L 677.587 205.207 Q 691.422 186.742 709.817 166.099 L 709.817 166.099 L 709.817 166.099 Q 727.184 146.609 748.335 124.845 L 748.335 124.845 L 777.807 124.845 L 777.807 151.811 Z " fill="rgb(238,44,10)"/><path d=" M 785.364 155.891 Q 796.029 167.194 804.605 178.127 L 804.605 178.127 L 804.605 178.127 Q 815.409 191.903 824.491 205.207 L 824.491 205.207 L 883.543 205.207 L 883.543 205.207 L 883.543 205.207 L 883.543 205.207 L 883.543 205.207 L 883.543 205.207 Q 873.143 190.624 855.134 169.212 L 855.134 169.212 L 855.134 169.212 Q 837.94 148.769 813.134 124.845 L 785.364 124.845 L 785.364 155.891 Z " fill="rgb(238,200,10)"/><path d=" M 777.807 89.137 L 740.16 44.793 L 680.732 44.793 L 746.349 117.288 L 746.349 117.288 L 777.807 117.288 L 777.807 89.137 Z " fill="rgb(238,44,10)"/><path d=" M 785.364 91.473 L 824.115 44.793 L 880.084 44.793 L 815.474 117.288 L 785.364 117.288 L 785.364 91.473 Z " fill="rgb(238,200,10)"/><path d=" M 510.52 100.3 Q 538.072 124.062 562.503 150.81 L 562.503 150.81 L 562.503 150.81 Q 587.029 177.661 608.097 205.207 L 608.097 205.207 L 649.288 205.207 L 649.288 205.207 L 649.288 205.207 L 649.288 205.207 L 649.288 44.793 L 600.55 44.793 L 600.55 139.467 L 600.55 139.467 Q 589.23 126.968 576.339 113.426 L 576.339 113.426 L 576.339 113.426 Q 563.447 99.885 550.398 87.269 L 550.398 87.269 L 550.398 87.269 Q 537.348 74.654 524.771 63.543 L 524.771 63.543 L 524.771 63.543 Q 512.193 52.432 501.817 44.793 L 501.817 44.793 L 462.233 44.793 L 510.52 100.3 L 510.52 100.3 L 510.52 100.3 Z " fill="rgb(238,200,10)"/><path d=" M 510.307 111.569 L 510.307 205.207 L 461.884 205.207 L 461.884 55.906 L 510.307 111.569 L 510.307 111.569 L 510.307 111.569 Z " fill="rgb(238,200,10)"/><path d=" M 308.438 144.512 L 308.438 205.207 L 357.491 205.207 L 357.491 143.865 L 357.491 143.865 Q 378.872 119.329 398.053 95.024 L 398.053 95.024 L 398.053 95.024 Q 417.234 70.719 435.156 44.793 L 435.156 44.793 L 381.073 44.793 L 381.073 44.793 Q 370.999 61.415 359.036 77.807 L 359.036 77.807 L 359.036 77.807 Q 347.073 94.198 333.85 110.589 L 333.85 110.589 L 333.85 110.589 L 333.85 110.589 L 333.85 110.589 Q 333.835 110.57 333.819 110.551 L 308.438 144.512 L 308.438 144.512 L 308.438 144.512 L 308.438 144.512 Z " fill="rgb(238,200,10)"/><path d=" M 303.447 138.568 Q 284.787 116.911 267.719 95.255 L 267.719 95.255 L 267.719 95.255 Q 248.381 70.719 230.458 44.793 L 230.458 44.793 L 287.371 44.793 L 287.371 44.793 Q 297.421 61.415 309.041 77.807 L 309.041 77.807 L 309.041 77.807 Q 318.48 91.121 328.955 104.436 L 303.447 138.568 L 303.447 138.568 L 303.447 138.568 L 303.447 138.568 Z " fill="rgb(238,200,10)"/><path d=" M 108.457 174.189 L 108.457 205.207 L 254.041 205.207 L 254.041 174.189 L 191.561 174.189 L 157.509 174.189 L 157.509 174.189 L 108.457 174.189 L 108.457 174.189 L 108.457 174.189 L 108.457 174.189 L 108.457 174.189 Z " fill="rgb(238,200,10)"/><path d=" M 108.457 166.632 L 108.457 44.793 L 157.509 44.793 L 157.509 166.632 L 157.509 166.632 L 108.457 166.632 L 108.457 166.632 L 108.457 166.632 L 108.457 166.632 L 108.457 166.632 Z " fill="rgb(238,200,10)"/></g></svg>