<?xml version="1.0" encoding="UTF-8" standalone="no"?><!-- Generator: Gravit.io --><svg xmlns="http://www.w3.org/2000/svg" xmlns:xlink="http://www.w3.org/1999/xlink" style="isolation:isolate" viewBox="0 0 992 250" width="992pt" height="250pt"><defs><clipPath id="_clipPath_lK5TVqr5RLL8JiZ72RCHuUMYkyNe67EE"><rect width="992" height="250"/></clipPath></defs><g clip-path="url(#_clipPath_lK5TVqr5RLL8JiZ72RCHuUMYkyNe67EE)"><path d=" M 177.91 188.779 L 318.65 46.386 L 319.563 104.735 L 376.241 46.23 L 377.155 139.573 L 470.333 46.395 L 471.246 148.734 L 574.298 46.367 L 574.298 104.635 L 631.076 46.258 L 631.99 134.686 L 714.307 50.852 L 824 50.852 L 783.627 90.129 L 733.352 90.129 L 725.561 97.437 L 751.374 97.437 L 711.777 139.454 L 684.511 139.454 L 675.204 148.36 L 764.016 148.36 L 723.597 188.779 L 576.362 188.779 L 591.196 176.119 L 591.196 146.926 L 544.301 194.177 L 540.355 140.879 L 494.136 188.779 L 431.119 188.779 L 431.119 144.085 L 345.23 231.71 L 286.159 231.71 L 337.165 178.457 L 337.567 146.908 L 289.338 194.451 L 288.306 139.783 L 236.46 188.779 L 177.91 188.779 Z  M 193.219 182.385 L 312.493 61.713 L 313.407 120.281 L 369.993 61.868 L 370.907 154.864 L 464.067 61.704 L 464.98 163.97 L 567.904 61.731 L 567.904 120.382 L 624.847 61.841 L 625.76 150.159 L 716.993 57.246 L 808.253 57.246 L 781.033 83.735 L 730.831 83.735 L 709.393 103.831 L 736.558 103.831 L 709.019 133.06 L 681.936 133.06 L 659.274 154.754 L 748.579 154.754 L 720.948 182.385 L 593.699 182.385 L 597.59 179.06 L 597.59 131.407 L 549.645 179.727 L 545.671 126.155 L 491.414 182.385 L 437.513 182.385 L 437.513 128.429 L 342.545 225.316 L 301.14 225.316 L 343.531 181.06 L 344.162 131.434 L 295.449 179.453 L 294.426 125.196 L 233.921 182.385 L 193.219 182.385 Z " fill-rule="evenodd" fill="rgb(87,151,231)"/><path d=" M 185.561 185.582 L 315.572 54.049 L 316.485 112.508 L 373.117 54.049 L 374.031 147.218 L 467.2 54.049 L 468.113 156.352 L 571.101 54.049 L 571.101 112.508 L 627.962 54.049 L 628.875 142.423 L 715.65 54.049 L 816.126 54.049 L 782.33 86.932 L 732.092 86.932 L 717.477 100.634 L 743.966 100.634 L 710.398 136.257 L 683.224 136.257 L 667.239 151.557 L 756.297 151.557 L 722.272 185.582 L 585.031 185.582 L 594.393 177.589 L 594.393 139.169 L 546.972 186.952 L 543.013 133.517 L 492.775 185.582 L 434.316 185.582 L 434.316 136.257 L 343.888 228.513 L 293.65 228.513 L 340.348 179.759 L 340.862 139.169 L 292.394 186.952 L 291.366 132.489 L 235.191 185.582 L 185.561 185.582 Z " fill="rgb(33,76,138)"/></g></svg>