<?xml version="1.0" encoding="UTF-8" standalone="no"?><!-- Generator: Gravit.io --><svg xmlns="http://www.w3.org/2000/svg" xmlns:xlink="http://www.w3.org/1999/xlink" style="isolation:isolate" viewBox="0 0 992 250" width="992pt" height="250pt"><defs><clipPath id="_clipPath_RBY0yy1V4jbwtkuxKhaeGhb6PTySpvfV"><rect width="992" height="250"/></clipPath></defs><g clip-path="url(#_clipPath_RBY0yy1V4jbwtkuxKhaeGhb6PTySpvfV)"><path d=" M 160.95 129.804 L 183.665 183.105 L 205.605 129.804 L 238.514 129.804 L 238.514 132.01 L 235.891 132.01 L 235.891 132.01 Q 232.314 132.01 230.168 133.262 L 230.168 133.262 L 230.168 133.262 Q 228.677 134.097 227.782 136.064 L 227.782 136.064 L 227.782 136.064 Q 227.127 137.495 227.127 143.517 L 227.127 143.517 L 227.127 196.817 L 227.127 196.817 Q 227.127 203.018 227.782 204.567 L 227.782 204.567 L 227.782 204.567 Q 228.439 206.117 230.465 207.28 L 230.465 207.28 L 230.465 207.28 Q 232.492 208.442 235.891 208.442 L 235.891 208.442 L 238.514 208.442 L 238.514 210.649 L 196.304 210.649 L 196.304 208.442 L 198.927 208.442 L 198.927 208.442 Q 202.504 208.442 204.65 207.19 L 204.65 207.19 L 204.65 207.19 Q 206.141 206.356 207.035 204.329 L 207.035 204.329 L 207.035 204.329 Q 207.691 202.898 207.691 196.817 L 207.691 196.817 L 207.691 136.9 L 176.689 210.649 L 175.258 210.649 L 143.779 137.436 L 143.779 194.372 L 143.779 194.372 Q 143.779 200.335 144.078 201.705 L 144.078 201.705 L 144.078 201.705 Q 144.853 204.687 147.446 206.565 L 147.446 206.565 L 147.446 206.565 Q 150.039 208.442 155.584 208.442 L 155.584 208.442 L 155.584 210.649 L 127.92 210.649 L 127.92 208.442 L 128.755 208.442 L 128.755 208.442 Q 131.438 208.503 133.763 207.578 L 133.763 207.578 L 133.763 207.578 Q 136.088 206.654 137.28 205.104 L 137.28 205.104 L 137.28 205.104 Q 138.473 203.554 139.129 200.752 L 139.129 200.752 L 139.129 200.752 Q 139.248 200.096 139.248 194.67 L 139.248 194.67 L 139.248 143.517 L 139.248 143.517 Q 139.248 137.377 138.593 135.856 L 138.593 135.856 L 138.593 135.856 Q 137.937 134.336 135.91 133.173 L 135.91 133.173 L 135.91 133.173 Q 133.882 132.01 130.484 132.01 L 130.484 132.01 L 127.92 132.01 L 127.92 129.804 L 160.95 129.804 L 160.95 129.804 Z  M 275.598 202.421 L 275.598 202.421 L 275.598 202.421 Q 265.403 211.424 257.295 211.424 L 257.295 211.424 L 257.295 211.424 Q 252.525 211.424 249.366 208.294 L 249.366 208.294 L 249.366 208.294 Q 246.206 205.164 246.206 200.454 L 246.206 200.454 L 246.206 200.454 Q 246.206 194.075 251.691 188.977 L 251.691 188.977 L 251.691 188.977 Q 257.176 183.88 275.598 175.414 L 275.598 175.414 L 275.598 169.81 L 275.598 169.81 Q 275.598 163.49 274.912 161.85 L 274.912 161.85 L 274.912 161.85 Q 274.226 160.21 272.318 158.988 L 272.318 158.988 L 272.318 158.988 Q 270.41 157.766 268.026 157.766 L 268.026 157.766 L 268.026 157.766 Q 264.15 157.766 261.647 159.495 L 261.647 159.495 L 261.647 159.495 Q 260.097 160.568 260.097 161.999 L 260.097 161.999 L 260.097 161.999 Q 260.097 163.251 261.766 165.1 L 261.766 165.1 L 261.766 165.1 Q 264.031 167.663 264.031 170.047 L 264.031 170.047 L 264.031 170.047 Q 264.031 172.969 261.856 175.026 L 261.856 175.026 L 261.856 175.026 Q 259.679 177.083 256.162 177.083 L 256.162 177.083 L 256.162 177.083 Q 252.405 177.083 249.872 174.817 L 249.872 174.817 L 249.872 174.817 Q 247.338 172.552 247.338 169.511 L 247.338 169.511 L 247.338 169.511 Q 247.338 165.219 250.736 161.314 L 250.736 161.314 L 250.736 161.314 Q 254.135 157.408 260.215 155.322 L 260.215 155.322 L 260.215 155.322 Q 266.297 153.235 272.856 153.235 L 272.856 153.235 L 272.856 153.235 Q 280.785 153.235 285.405 156.604 L 285.405 156.604 L 285.405 156.604 Q 290.025 159.973 291.397 163.907 L 291.397 163.907 L 291.397 163.907 Q 292.231 166.411 292.231 175.414 L 292.231 175.414 L 292.231 197.055 L 292.231 197.055 Q 292.231 200.871 292.53 201.855 L 292.53 201.855 L 292.53 201.855 Q 292.828 202.838 293.424 203.315 L 293.424 203.315 L 293.424 203.315 Q 294.02 203.793 294.795 203.793 L 294.795 203.793 L 294.795 203.793 Q 296.346 203.793 297.955 201.587 L 297.955 201.587 L 299.743 203.018 L 299.743 203.018 Q 296.763 207.429 293.573 209.426 L 293.573 209.426 L 293.573 209.426 Q 290.383 211.424 286.329 211.424 L 286.329 211.424 L 286.329 211.424 Q 281.56 211.424 278.877 209.188 L 278.877 209.188 L 278.877 209.188 Q 276.194 206.953 275.598 202.421 Z  M 275.598 198.069 L 275.598 198.069 L 275.598 179.408 L 275.598 179.408 Q 268.383 183.641 264.866 188.47 L 264.866 188.47 L 264.866 188.47 Q 262.541 191.69 262.541 194.969 L 262.541 194.969 L 262.541 194.969 Q 262.541 197.711 264.508 199.798 L 264.508 199.798 L 264.508 199.798 Q 265.999 201.407 268.682 201.407 L 268.682 201.407 L 268.682 201.407 Q 271.663 201.407 275.598 198.069 Z  M 339.092 153.355 L 341.119 153.355 L 342.013 172.373 L 339.986 172.373 L 339.986 172.373 Q 336.35 163.907 332.445 160.807 L 332.445 160.807 L 332.445 160.807 Q 328.54 157.707 324.664 157.707 L 324.664 157.707 L 324.664 157.707 Q 322.22 157.707 320.491 159.346 L 320.491 159.346 L 320.491 159.346 Q 318.762 160.985 318.762 163.132 L 318.762 163.132 L 318.762 163.132 Q 318.762 164.742 319.955 166.233 L 319.955 166.233 L 319.955 166.233 Q 321.862 168.677 330.626 174.609 L 330.626 174.609 L 330.626 174.609 Q 339.391 180.541 342.163 184.685 L 342.163 184.685 L 342.163 184.685 Q 344.935 188.828 344.935 193.955 L 344.935 193.955 L 344.935 193.955 Q 344.935 198.605 342.61 203.077 L 342.61 203.077 L 342.61 203.077 Q 340.285 207.548 336.052 209.933 L 336.052 209.933 L 336.052 209.933 Q 331.818 212.318 326.691 212.318 L 326.691 212.318 L 326.691 212.318 Q 322.697 212.318 316.02 209.814 L 316.02 209.814 L 316.02 209.814 Q 314.231 209.158 313.576 209.158 L 313.576 209.158 L 313.576 209.158 Q 311.608 209.158 310.296 212.139 L 310.296 212.139 L 308.328 212.139 L 307.375 192.107 L 309.402 192.107 L 309.402 192.107 Q 312.085 199.977 316.765 203.912 L 316.765 203.912 L 316.765 203.912 Q 321.445 207.847 325.618 207.847 L 325.618 207.847 L 325.618 207.847 Q 328.48 207.847 330.298 206.087 L 330.298 206.087 L 330.298 206.087 Q 332.117 204.329 332.117 201.824 L 332.117 201.824 L 332.117 201.824 Q 332.117 198.963 330.328 196.877 L 330.328 196.877 L 330.328 196.877 Q 328.54 194.79 322.339 190.557 L 322.339 190.557 L 322.339 190.557 Q 313.218 184.238 310.535 180.898 L 310.535 180.898 L 310.535 180.898 Q 306.6 176.01 306.6 170.107 L 306.6 170.107 L 306.6 170.107 Q 306.6 163.669 311.041 158.452 L 311.041 158.452 L 311.041 158.452 Q 315.484 153.235 323.889 153.235 L 323.889 153.235 L 323.889 153.235 Q 328.421 153.235 332.653 155.441 L 332.653 155.441 L 332.653 155.441 Q 334.264 156.335 335.277 156.335 L 335.277 156.335 L 335.277 156.335 Q 336.35 156.335 337.006 155.888 L 337.006 155.888 L 337.006 155.888 Q 337.661 155.441 339.092 153.355 L 339.092 153.355 L 339.092 153.355 Z  M 373.552 134.514 L 375.52 134.514 L 375.52 154.905 L 388.756 154.905 L 388.756 160.807 L 375.52 160.807 L 375.52 195.208 L 375.52 195.208 Q 375.52 200.036 375.967 201.437 L 375.967 201.437 L 375.967 201.437 Q 376.414 202.838 377.547 203.703 L 377.547 203.703 L 377.547 203.703 Q 378.68 204.567 379.633 204.567 L 379.633 204.567 L 379.633 204.567 Q 383.508 204.567 386.967 198.665 L 386.967 198.665 L 388.756 199.977 L 388.756 199.977 Q 383.926 211.424 373.076 211.424 L 373.076 211.424 L 373.076 211.424 Q 367.769 211.424 364.103 208.472 L 364.103 208.472 L 364.103 208.472 Q 360.436 205.521 359.423 201.885 L 359.423 201.885 L 359.423 201.885 Q 358.826 199.857 358.826 190.915 L 358.826 190.915 L 358.826 160.807 L 351.553 160.807 L 351.553 158.72 L 351.553 158.72 Q 359.065 153.414 364.341 147.571 L 364.341 147.571 L 364.341 147.571 Q 369.618 141.729 373.552 134.514 L 373.552 134.514 L 373.552 134.514 Z  M 441.28 180.78 L 441.28 180.78 L 410.695 180.78 L 410.695 180.78 Q 411.232 191.868 416.598 198.307 L 416.598 198.307 L 416.598 198.307 Q 420.711 203.256 426.494 203.256 L 426.494 203.256 L 426.494 203.256 Q 430.071 203.256 432.993 201.259 L 432.993 201.259 L 432.993 201.259 Q 435.914 199.261 439.253 194.075 L 439.253 194.075 L 441.28 195.386 L 441.28 195.386 Q 436.749 204.627 431.264 208.472 L 431.264 208.472 L 431.264 208.472 Q 425.779 212.318 418.565 212.318 L 418.565 212.318 L 418.565 212.318 Q 406.164 212.318 399.785 202.779 L 399.785 202.779 L 399.785 202.779 Q 394.658 195.088 394.658 183.7 L 394.658 183.7 L 394.658 183.7 Q 394.658 169.75 402.199 161.492 L 402.199 161.492 L 402.199 161.492 Q 409.741 153.235 419.876 153.235 L 419.876 153.235 L 419.876 153.235 Q 428.343 153.235 434.573 160.181 L 434.573 160.181 L 434.573 160.181 Q 440.803 167.127 441.28 180.78 Z  M 410.397 176.784 L 426.614 176.784 L 426.614 176.784 Q 426.614 167.186 425.57 163.609 L 425.57 163.609 L 425.57 163.609 Q 424.527 160.032 422.322 158.184 L 422.322 158.184 L 422.322 158.184 Q 421.069 157.11 418.982 157.11 L 418.982 157.11 L 418.982 157.11 Q 415.882 157.11 413.915 160.151 L 413.915 160.151 L 413.915 160.151 Q 410.397 165.458 410.397 174.698 L 410.397 174.698 L 410.397 176.784 L 410.397 176.784 Z  M 448.614 154.905 L 471.388 154.905 L 471.388 167.544 L 471.388 167.544 Q 476.932 158.899 481.106 156.067 L 481.106 156.067 L 481.106 156.067 Q 485.279 153.235 489.154 153.235 L 489.154 153.235 L 489.154 153.235 Q 492.493 153.235 494.49 155.292 L 494.49 155.292 L 494.49 155.292 Q 496.488 157.349 496.488 161.104 L 496.488 161.104 L 496.488 161.104 Q 496.488 165.1 494.55 167.305 L 494.55 167.305 L 494.55 167.305 Q 492.612 169.511 489.87 169.511 L 489.87 169.511 L 489.87 169.511 Q 486.71 169.511 484.385 167.484 L 484.385 167.484 L 484.385 167.484 Q 482.06 165.458 481.642 165.219 L 481.642 165.219 L 481.642 165.219 Q 481.047 164.861 480.272 164.861 L 480.272 164.861 L 480.272 164.861 Q 478.542 164.861 476.992 166.172 L 476.992 166.172 L 476.992 166.172 Q 474.548 168.2 473.296 171.955 L 473.296 171.955 L 473.296 171.955 Q 471.388 177.739 471.388 184.714 L 471.388 184.714 L 471.388 197.533 L 471.447 200.871 L 471.447 200.871 Q 471.447 204.27 471.865 205.223 L 471.865 205.223 L 471.865 205.223 Q 472.58 206.833 473.982 207.578 L 473.982 207.578 L 473.982 207.578 Q 475.382 208.323 478.721 208.503 L 478.721 208.503 L 478.721 210.649 L 448.614 210.649 L 448.614 208.503 L 448.614 208.503 Q 452.25 208.204 453.532 206.505 L 453.532 206.505 L 453.532 206.505 Q 454.814 204.806 454.814 197.533 L 454.814 197.533 L 454.814 166.709 L 454.814 166.709 Q 454.814 161.94 454.336 160.628 L 454.336 160.628 L 454.336 160.628 Q 453.741 158.959 452.608 158.184 L 452.608 158.184 L 452.608 158.184 Q 451.475 157.408 448.614 157.11 L 448.614 157.11 L 448.614 154.905 L 448.614 154.905 Z  M 553.901 127.957 L 555.689 127.957 L 556.346 154.905 L 553.901 154.905 L 553.901 154.905 Q 552.172 144.769 545.405 138.599 L 545.405 138.599 L 545.405 138.599 Q 538.639 132.428 530.769 132.428 L 530.769 132.428 L 530.769 132.428 Q 524.687 132.428 521.14 135.677 L 521.14 135.677 L 521.14 135.677 Q 517.593 138.927 517.593 143.16 L 517.593 143.16 L 517.593 143.16 Q 517.593 145.842 518.845 147.929 L 518.845 147.929 L 518.845 147.929 Q 520.574 150.731 524.389 153.474 L 524.389 153.474 L 524.389 153.474 Q 527.192 155.441 537.326 160.449 L 537.326 160.449 L 537.326 160.449 Q 551.517 167.425 556.464 173.624 L 556.464 173.624 L 556.464 173.624 Q 561.354 179.825 561.354 187.815 L 561.354 187.815 L 561.354 187.815 Q 561.354 197.95 553.454 205.253 L 553.454 205.253 L 553.454 205.253 Q 545.554 212.557 533.392 212.557 L 533.392 212.557 L 533.392 212.557 Q 529.577 212.557 526.178 211.781 L 526.178 211.781 L 526.178 211.781 Q 522.78 211.006 517.652 208.86 L 517.652 208.86 L 517.652 208.86 Q 514.791 207.667 512.942 207.667 L 512.942 207.667 L 512.942 207.667 Q 511.392 207.667 509.664 208.86 L 509.664 208.86 L 509.664 208.86 Q 507.934 210.053 506.862 212.497 L 506.862 212.497 L 504.656 212.497 L 504.656 181.972 L 506.862 181.972 L 506.862 181.972 Q 509.484 194.85 516.967 201.616 L 516.967 201.616 L 516.967 201.616 Q 524.449 208.383 533.094 208.383 L 533.094 208.383 L 533.094 208.383 Q 539.772 208.383 543.736 204.746 L 543.736 204.746 L 543.736 204.746 Q 547.701 201.11 547.701 196.28 L 547.701 196.28 L 547.701 196.28 Q 547.701 193.419 546.18 190.736 L 546.18 190.736 L 546.18 190.736 Q 544.66 188.053 541.56 185.638 L 541.56 185.638 L 541.56 185.638 Q 538.459 183.224 530.59 179.348 L 530.59 179.348 L 530.59 179.348 Q 519.56 173.923 514.731 170.107 L 514.731 170.107 L 514.731 170.107 Q 509.902 166.292 507.309 161.582 L 507.309 161.582 L 507.309 161.582 Q 504.715 156.872 504.715 151.208 L 504.715 151.208 L 504.715 151.208 Q 504.715 141.549 511.81 134.753 L 511.81 134.753 L 511.81 134.753 Q 518.904 127.957 529.696 127.957 L 529.696 127.957 L 529.696 127.957 Q 533.631 127.957 537.326 128.91 L 537.326 128.91 L 537.326 128.91 Q 540.129 129.626 544.153 131.563 L 544.153 131.563 L 544.153 131.563 Q 548.178 133.501 549.787 133.501 L 549.787 133.501 L 549.787 133.501 Q 551.337 133.501 552.231 132.547 L 552.231 132.547 L 552.231 132.547 Q 553.126 131.593 553.901 127.957 L 553.901 127.957 L 553.901 127.957 Z  M 594.204 217.565 L 595.933 212.914 L 577.928 171.598 L 577.928 171.598 Q 573.874 162.237 571.936 160.091 L 571.936 160.091 L 571.936 160.091 Q 569.999 157.945 567.256 157.11 L 567.256 157.11 L 567.256 154.905 L 596.887 154.905 L 596.887 157.11 L 596.887 157.11 Q 593.965 157.23 592.773 158.243 L 592.773 158.243 L 592.773 158.243 Q 591.581 159.257 591.581 160.687 L 591.581 160.687 L 591.581 160.687 Q 591.581 162.953 594.562 169.63 L 594.562 169.63 L 604.101 191.451 L 610.6 174.579 L 610.6 174.579 Q 614.117 165.576 614.117 162.059 L 614.117 162.059 L 614.117 162.059 Q 614.117 159.853 612.656 158.541 L 612.656 158.541 L 612.656 158.541 Q 611.195 157.23 607.499 157.11 L 607.499 157.11 L 607.499 154.905 L 626.159 154.905 L 626.159 157.11 L 626.159 157.11 Q 623.417 157.408 621.688 159.227 L 621.688 159.227 L 621.688 159.227 Q 619.96 161.045 615.905 171.598 L 615.905 171.598 L 599.987 212.914 L 599.987 212.914 Q 593.965 228.415 591.044 231.993 L 591.044 231.993 L 591.044 231.993 Q 586.93 237 580.73 237 L 580.73 237 L 580.73 237 Q 575.782 237 572.711 234.168 L 572.711 234.168 L 572.711 234.168 Q 569.641 231.337 569.641 227.342 L 569.641 227.342 L 569.641 227.342 Q 569.641 223.884 571.757 221.619 L 571.757 221.619 L 571.757 221.619 Q 573.874 219.353 576.974 219.353 L 576.974 219.353 L 576.974 219.353 Q 579.955 219.353 581.773 221.261 L 581.773 221.261 L 581.773 221.261 Q 583.592 223.169 583.651 227.163 L 583.651 227.163 L 583.651 227.163 Q 583.711 229.429 584.188 230.085 L 584.188 230.085 L 584.188 230.085 Q 584.664 230.74 585.559 230.74 L 585.559 230.74 L 585.559 230.74 Q 586.99 230.74 588.599 229.011 L 588.599 229.011 L 588.599 229.011 Q 590.985 226.508 594.204 217.565 L 594.204 217.565 L 594.204 217.565 Z  M 664.615 153.355 L 666.642 153.355 L 667.536 172.373 L 665.509 172.373 L 665.509 172.373 Q 661.872 163.907 657.967 160.807 L 657.967 160.807 L 657.967 160.807 Q 654.062 157.707 650.187 157.707 L 650.187 157.707 L 650.187 157.707 Q 647.743 157.707 646.013 159.346 L 646.013 159.346 L 646.013 159.346 Q 644.285 160.985 644.285 163.132 L 644.285 163.132 L 644.285 163.132 Q 644.285 164.742 645.477 166.233 L 645.477 166.233 L 645.477 166.233 Q 647.385 168.677 656.148 174.609 L 656.148 174.609 L 656.148 174.609 Q 664.912 180.541 667.685 184.685 L 667.685 184.685 L 667.685 184.685 Q 670.458 188.828 670.458 193.955 L 670.458 193.955 L 670.458 193.955 Q 670.458 198.605 668.132 203.077 L 668.132 203.077 L 668.132 203.077 Q 665.807 207.548 661.574 209.933 L 661.574 209.933 L 661.574 209.933 Q 657.341 212.318 652.214 212.318 L 652.214 212.318 L 652.214 212.318 Q 648.219 212.318 641.542 209.814 L 641.542 209.814 L 641.542 209.814 Q 639.753 209.158 639.097 209.158 L 639.097 209.158 L 639.097 209.158 Q 637.129 209.158 635.818 212.139 L 635.818 212.139 L 633.851 212.139 L 632.897 192.107 L 634.924 192.107 L 634.924 192.107 Q 637.607 199.977 642.287 203.912 L 642.287 203.912 L 642.287 203.912 Q 646.968 207.847 651.14 207.847 L 651.14 207.847 L 651.14 207.847 Q 654.003 207.847 655.82 206.087 L 655.82 206.087 L 655.82 206.087 Q 657.639 204.329 657.639 201.824 L 657.639 201.824 L 657.639 201.824 Q 657.639 198.963 655.85 196.877 L 655.85 196.877 L 655.85 196.877 Q 654.062 194.79 647.861 190.557 L 647.861 190.557 L 647.861 190.557 Q 638.74 184.238 636.057 180.898 L 636.057 180.898 L 636.057 180.898 Q 632.122 176.01 632.122 170.107 L 632.122 170.107 L 632.122 170.107 Q 632.122 163.669 636.563 158.452 L 636.563 158.452 L 636.563 158.452 Q 641.005 153.235 649.412 153.235 L 649.412 153.235 L 649.412 153.235 Q 653.942 153.235 658.175 155.441 L 658.175 155.441 L 658.175 155.441 Q 659.785 156.335 660.799 156.335 L 660.799 156.335 L 660.799 156.335 Q 661.872 156.335 662.527 155.888 L 662.527 155.888 L 662.527 155.888 Q 663.184 155.441 664.615 153.355 L 664.615 153.355 L 664.615 153.355 Z  M 699.075 134.514 L 701.042 134.514 L 701.042 154.905 L 714.278 154.905 L 714.278 160.807 L 701.042 160.807 L 701.042 195.208 L 701.042 195.208 Q 701.042 200.036 701.489 201.437 L 701.489 201.437 L 701.489 201.437 Q 701.936 202.838 703.069 203.703 L 703.069 203.703 L 703.069 203.703 Q 704.202 204.567 705.155 204.567 L 705.155 204.567 L 705.155 204.567 Q 709.031 204.567 712.489 198.665 L 712.489 198.665 L 714.278 199.977 L 714.278 199.977 Q 709.448 211.424 698.597 211.424 L 698.597 211.424 L 698.597 211.424 Q 693.291 211.424 689.625 208.472 L 689.625 208.472 L 689.625 208.472 Q 685.958 205.521 684.945 201.885 L 684.945 201.885 L 684.945 201.885 Q 684.348 199.857 684.348 190.915 L 684.348 190.915 L 684.348 160.807 L 677.074 160.807 L 677.074 158.72 L 677.074 158.72 Q 684.587 153.414 689.863 147.571 L 689.863 147.571 L 689.863 147.571 Q 695.14 141.729 699.075 134.514 L 699.075 134.514 L 699.075 134.514 Z  M 766.802 180.78 L 766.802 180.78 L 736.218 180.78 L 736.218 180.78 Q 736.754 191.868 742.12 198.307 L 742.12 198.307 L 742.12 198.307 Q 746.233 203.256 752.016 203.256 L 752.016 203.256 L 752.016 203.256 Q 755.594 203.256 758.515 201.259 L 758.515 201.259 L 758.515 201.259 Q 761.436 199.261 764.776 194.075 L 764.776 194.075 L 766.802 195.386 L 766.802 195.386 Q 762.271 204.627 756.786 208.472 L 756.786 208.472 L 756.786 208.472 Q 751.301 212.318 744.087 212.318 L 744.087 212.318 L 744.087 212.318 Q 731.686 212.318 725.307 202.779 L 725.307 202.779 L 725.307 202.779 Q 720.18 195.088 720.18 183.7 L 720.18 183.7 L 720.18 183.7 Q 720.18 169.75 727.722 161.492 L 727.722 161.492 L 727.722 161.492 Q 735.263 153.235 745.399 153.235 L 745.399 153.235 L 745.399 153.235 Q 753.865 153.235 760.095 160.181 L 760.095 160.181 L 760.095 160.181 Q 766.326 167.127 766.802 180.78 Z  M 735.919 176.784 L 752.135 176.784 L 752.135 176.784 Q 752.135 167.186 751.093 163.609 L 751.093 163.609 L 751.093 163.609 Q 750.049 160.032 747.843 158.184 L 747.843 158.184 L 747.843 158.184 Q 746.591 157.11 744.505 157.11 L 744.505 157.11 L 744.505 157.11 Q 741.404 157.11 739.437 160.151 L 739.437 160.151 L 739.437 160.151 Q 735.919 165.458 735.919 174.698 L 735.919 174.698 L 735.919 176.784 L 735.919 176.784 Z  M 774.195 154.905 L 796.91 154.905 L 796.91 162.237 L 796.91 162.237 Q 801.5 157.23 805.405 155.232 L 805.405 155.232 L 805.405 155.232 Q 809.31 153.235 813.961 153.235 L 813.961 153.235 L 813.961 153.235 Q 819.327 153.235 822.963 155.739 L 822.963 155.739 L 822.963 155.739 Q 826.601 158.243 828.568 163.37 L 828.568 163.37 L 828.568 163.37 Q 833.338 158.005 837.719 155.619 L 837.719 155.619 L 837.719 155.619 Q 842.101 153.235 846.871 153.235 L 846.871 153.235 L 846.871 153.235 Q 852.654 153.235 856.082 155.888 L 856.082 155.888 L 856.082 155.888 Q 859.511 158.541 860.852 162.625 L 860.852 162.625 L 860.852 162.625 Q 862.194 166.709 862.194 175.652 L 862.194 175.652 L 862.194 198.486 L 862.194 198.486 Q 862.194 204.925 863.355 206.475 L 863.355 206.475 L 863.355 206.475 Q 864.518 208.025 868.215 208.503 L 868.215 208.503 L 868.215 210.649 L 839.418 210.649 L 839.418 208.503 L 839.418 208.503 Q 842.817 208.204 844.426 205.879 L 844.426 205.879 L 844.426 205.879 Q 845.5 204.27 845.5 198.486 L 845.5 198.486 L 845.5 174.52 L 845.5 174.52 Q 845.5 167.067 844.903 165.039 L 844.903 165.039 L 844.903 165.039 Q 844.308 163.012 843.026 162.029 L 843.026 162.029 L 843.026 162.029 Q 841.743 161.045 840.015 161.045 L 840.015 161.045 L 840.015 161.045 Q 837.451 161.045 834.828 162.923 L 834.828 162.923 L 834.828 162.923 Q 832.205 164.801 829.522 168.557 L 829.522 168.557 L 829.522 198.486 L 829.522 198.486 Q 829.522 204.507 830.536 206.058 L 830.536 206.058 L 830.536 206.058 Q 831.906 208.264 835.782 208.503 L 835.782 208.503 L 835.782 210.649 L 806.926 210.649 L 806.926 208.503 L 806.926 208.503 Q 809.251 208.383 810.593 207.34 L 810.593 207.34 L 810.593 207.34 Q 811.934 206.296 812.381 204.836 L 812.381 204.836 L 812.381 204.836 Q 812.828 203.375 812.828 198.486 L 812.828 198.486 L 812.828 174.52 L 812.828 174.52 Q 812.828 166.947 812.232 165.039 L 812.232 165.039 L 812.232 165.039 Q 811.636 163.132 810.235 162.059 L 810.235 162.059 L 810.235 162.059 Q 808.834 160.985 807.224 160.985 L 807.224 160.985 L 807.224 160.985 Q 804.839 160.985 802.872 162.237 L 802.872 162.237 L 802.872 162.237 Q 800.07 164.086 796.91 168.557 L 796.91 168.557 L 796.91 198.486 L 796.91 198.486 Q 796.91 204.389 798.073 206.267 L 798.073 206.267 L 798.073 206.267 Q 799.235 208.145 802.931 208.503 L 802.931 208.503 L 802.931 210.649 L 774.195 210.649 L 774.195 208.503 L 774.195 208.503 Q 777.713 208.145 779.202 206.237 L 779.202 206.237 L 779.202 206.237 Q 780.216 204.925 780.216 198.486 L 780.216 198.486 L 780.216 167.008 L 780.216 167.008 Q 780.216 160.687 779.054 159.137 L 779.054 159.137 L 779.054 159.137 Q 777.891 157.587 774.195 157.11 L 774.195 157.11 L 774.195 154.905 L 774.195 154.905 Z " fill="rgb(244,55,55)"/><path d=" M 453.293 29.895 L 470.548 29.895 L 482.254 91.113 L 515.17 29.895 L 532.975 29.895 L 519.127 109.907 L 505.609 109.907 L 510.28 82.816 L 517.369 49.459 L 484.396 109.907 L 474.615 109.907 L 462.36 47.646 L 457.359 84.244 L 452.908 109.907 L 439.389 109.907 L 453.293 29.895 L 453.293 29.895 Z  M 585.566 109.907 L 582.434 91.278 L 552.484 91.278 L 542.922 109.907 L 528.305 109.907 L 571.498 29.895 L 583.697 29.895 L 599.194 109.907 L 585.566 109.907 L 585.566 109.907 Z  M 575.18 46.986 L 558.199 80.068 L 580.62 80.068 L 575.18 46.986 L 575.18 46.986 Z  M 653.159 109.907 L 642.937 79.079 L 627.661 79.079 L 622.275 109.907 L 608.701 109.907 L 622.605 29.895 L 647.829 29.951 L 647.829 29.951 Q 660.852 29.951 667.777 36.215 L 667.777 36.215 L 667.777 36.215 Q 674.7 42.479 673.767 53.635 L 673.767 53.635 L 673.767 53.635 Q 673.162 61.383 668.601 67.071 L 668.601 67.071 L 668.601 67.071 Q 664.039 72.759 655.797 76.002 L 655.797 76.002 L 667.612 109.083 L 667.557 109.907 L 653.159 109.907 L 653.159 109.907 Z  M 634.2 41.105 L 629.528 67.923 L 642.663 68.033 L 642.663 68.033 Q 649.751 68.033 654.505 64.323 L 654.505 64.323 L 654.505 64.323 Q 659.258 60.615 660.083 54.24 L 660.083 54.24 L 660.083 54.24 Q 660.907 48.03 657.885 44.706 L 657.885 44.706 L 657.885 44.706 Q 654.863 41.38 648.708 41.16 L 648.708 41.16 L 634.2 41.105 L 634.2 41.105 Z  M 723.499 109.907 L 706.19 75.452 L 695.198 85.508 L 690.967 109.907 L 677.394 109.907 L 691.296 29.895 L 704.87 29.895 L 698.441 66.659 L 706.849 57.921 L 734.435 29.895 L 751.801 29.895 L 716.191 66 L 738.667 109.907 L 723.499 109.907 L 723.499 109.907 Z  M 179.129 88.916 L 179.129 88.916 L 179.129 88.916 Q 180.338 81.002 170.501 77.156 L 170.501 77.156 L 166.05 75.507 L 166.05 75.507 Q 153.631 71.165 148.411 65.23 L 148.411 65.23 L 148.411 65.23 Q 143.19 59.295 143.685 51.437 L 143.685 51.437 L 143.685 51.437 Q 144.124 44.623 148.328 39.43 L 148.328 39.43 L 148.328 39.43 Q 152.532 34.237 159.401 31.434 L 159.401 31.434 L 159.401 31.434 Q 166.27 28.631 174.019 28.796 L 174.019 28.796 L 174.019 28.796 Q 181.492 28.961 187.317 32.066 L 187.317 32.066 L 187.317 32.066 Q 193.143 35.171 196.22 40.693 L 196.22 40.693 L 196.22 40.693 Q 199.298 46.216 199.078 53.306 L 199.078 53.306 L 185.559 53.251 L 185.559 53.251 Q 185.943 46.986 182.784 43.524 L 182.784 43.524 L 182.784 43.524 Q 179.624 40.062 173.249 39.897 L 173.249 39.897 L 173.249 39.897 Q 166.82 39.787 162.396 42.919 L 162.396 42.919 L 162.396 42.919 Q 157.973 46.052 157.203 51.382 L 157.203 51.382 L 157.203 51.382 Q 156.104 58.361 166.545 62.373 L 166.545 62.373 L 170.667 63.856 L 170.667 63.856 Q 183.251 68.362 188.252 74.436 L 188.252 74.436 L 188.252 74.436 Q 193.252 80.508 192.648 88.805 L 192.648 88.805 L 192.648 88.805 Q 192.098 95.564 188.197 100.593 L 188.197 100.593 L 188.197 100.593 Q 184.295 105.621 177.398 108.369 L 177.398 108.369 L 177.398 108.369 Q 170.501 111.117 162.204 111.006 L 162.204 111.006 L 162.204 111.006 Q 154.346 110.952 147.943 107.71 L 147.943 107.71 L 147.943 107.71 Q 141.541 104.467 138.134 98.725 L 138.134 98.725 L 138.134 98.725 Q 134.727 92.982 135.002 85.673 L 135.002 85.673 L 148.575 85.728 L 148.575 85.728 Q 148.136 92.543 151.927 96.225 L 151.927 96.225 L 151.927 96.225 Q 155.72 99.906 162.808 100.016 L 162.808 100.016 L 162.808 100.016 Q 169.402 100.125 173.827 97.213 L 173.827 97.213 L 173.827 97.213 Q 178.25 94.301 179.129 88.916 Z  M 254.91 63.197 L 252.987 74.188 L 221.114 74.188 L 216.827 98.807 L 254.086 98.807 L 252.163 109.907 L 201.331 109.907 L 215.179 29.895 L 265.681 29.895 L 263.703 41.105 L 226.829 41.105 L 222.982 63.197 L 254.91 63.197 L 254.91 63.197 Z  M 330.307 68.857 L 325.636 99.521 L 325.636 99.521 Q 321.239 105.237 313.217 108.177 L 313.217 108.177 L 313.217 108.177 Q 305.193 111.117 295.301 111.006 L 295.301 111.006 L 295.301 111.006 Q 287.388 110.952 281.343 107.462 L 281.343 107.462 L 281.343 107.462 Q 275.299 103.972 271.753 97.296 L 271.753 97.296 L 271.753 97.296 Q 268.209 90.619 267.715 82.101 L 267.715 82.101 L 267.715 82.101 Q 267.33 75.507 269.088 65.285 L 269.088 65.285 L 269.088 65.285 Q 270.847 55.064 275.38 47.123 L 275.38 47.123 L 275.38 47.123 Q 279.914 39.182 286.399 34.676 L 286.399 34.676 L 286.399 34.676 Q 295.191 28.577 306.512 28.796 L 306.512 28.796 L 306.512 28.796 Q 318.547 29.016 325.333 35.72 L 325.333 35.72 L 325.333 35.72 Q 332.12 42.425 332.999 54.514 L 332.999 54.514 L 319.865 54.46 L 319.865 54.46 Q 318.657 40.337 306.183 39.952 L 306.183 39.952 L 306.183 39.952 Q 296.84 39.677 290.822 46.519 L 290.822 46.519 L 290.822 46.519 Q 284.805 53.36 282.607 66.275 L 282.607 66.275 L 282.607 66.275 Q 281.343 73.803 281.233 78.584 L 281.233 78.584 L 281.233 78.584 Q 280.904 88.421 284.833 94.081 L 284.833 94.081 L 284.833 94.081 Q 288.762 99.741 296.29 99.852 L 296.29 99.852 L 296.29 99.852 Q 305.908 100.071 312.117 95.071 L 312.117 95.071 L 315.084 79.409 L 299.038 79.409 L 300.907 68.857 L 330.307 68.857 L 330.307 68.857 Z  M 388.503 109.907 L 385.371 91.278 L 355.421 91.278 L 345.859 109.907 L 331.241 109.907 L 374.435 29.895 L 386.634 29.895 L 402.131 109.907 L 388.503 109.907 L 388.503 109.907 Z  M 378.117 46.986 L 361.135 80.068 L 383.557 80.068 L 378.117 46.986 L 378.117 46.986 Z " fill="rgb(38,87,185)"/><path d=" M 768.03 17.299 L 768.03 17.299 L 768.811 14.671 L 815.829 14.671 L 814.907 17.299 L 814.907 17.299 Q 808.514 17.299 805.141 20.139 L 805.141 20.139 L 805.141 20.139 Q 801.767 22.98 799.21 32.001 L 799.21 32.001 L 781.596 93.65 L 781.596 93.65 Q 779.678 100.185 779.678 102.386 L 779.678 102.386 L 779.678 102.386 Q 779.678 104.943 781.667 106.363 L 781.667 106.363 L 781.667 106.363 Q 784.223 108.211 791.327 108.352 L 791.327 108.352 L 790.616 110.981 L 742.817 110.981 L 743.598 108.352 L 743.598 108.352 Q 750.771 108.352 754.109 105.618 L 754.109 105.618 L 754.109 105.618 Q 757.447 102.884 760.146 93.65 L 760.146 93.65 L 777.903 32.001 L 777.903 32.001 Q 779.536 26.318 779.536 23.407 L 779.536 23.407 L 779.536 23.407 Q 779.536 20.778 777.547 19.287 L 777.547 19.287 L 777.547 19.287 Q 775.559 17.796 768.03 17.299 Z  M 804.464 17.299 L 804.464 17.299 L 805.245 14.671 L 852.263 14.671 L 851.341 17.299 L 851.341 17.299 Q 844.948 17.299 841.575 20.139 L 841.575 20.139 L 841.575 20.139 Q 838.2 22.98 835.644 32.001 L 835.644 32.001 L 818.029 93.65 L 818.029 93.65 Q 816.112 100.185 816.112 102.386 L 816.112 102.386 L 816.112 102.386 Q 816.112 104.943 818.101 106.363 L 818.101 106.363 L 818.101 106.363 Q 820.657 108.211 827.76 108.352 L 827.76 108.352 L 827.05 110.981 L 779.25 110.981 L 780.031 108.352 L 780.031 108.352 Q 787.205 108.352 790.543 105.618 L 790.543 105.618 L 790.543 105.618 Q 793.881 102.884 796.58 93.65 L 796.58 93.65 L 814.337 32.001 L 814.337 32.001 Q 815.97 26.318 815.97 23.407 L 815.97 23.407 L 815.97 23.407 Q 815.97 20.778 813.981 19.287 L 813.981 19.287 L 813.981 19.287 Q 811.992 17.796 804.464 17.299 Z  M 840.897 17.299 L 840.897 17.299 L 841.679 14.671 L 888.697 14.671 L 887.774 17.299 L 887.774 17.299 Q 881.382 17.299 878.008 20.139 L 878.008 20.139 L 878.008 20.139 Q 874.634 22.98 872.077 32.001 L 872.077 32.001 L 854.463 93.65 L 854.463 93.65 Q 852.546 100.185 852.546 102.386 L 852.546 102.386 L 852.546 102.386 Q 852.546 104.943 854.534 106.363 L 854.534 106.363 L 854.534 106.363 Q 857.091 108.211 864.194 108.352 L 864.194 108.352 L 863.484 110.981 L 815.684 110.981 L 816.464 108.352 L 816.464 108.352 Q 823.639 108.352 826.977 105.618 L 826.977 105.618 L 826.977 105.618 Q 830.315 102.884 833.014 93.65 L 833.014 93.65 L 850.769 32.001 L 850.769 32.001 Q 852.403 26.318 852.403 23.407 L 852.403 23.407 L 852.403 23.407 Q 852.403 20.778 850.415 19.287 L 850.415 19.287 L 850.415 19.287 Q 848.426 17.796 840.897 17.299 Z " fill="rgb(38,87,185)"/></g></svg>