<?xml version="1.0" encoding="UTF-8"?>
<!-- Generator: Gravit.io -->
<svg width="992pt" height="250pt" style="isolation:isolate" version="1.1" viewBox="0 0 992 250" xmlns="http://www.w3.org/2000/svg" xmlns:xlink="http://www.w3.org/1999/xlink">
 <defs>
  <clipPath id="_clipPath_CKbUpqn0NSV5203y2x5UoBwrBWauyyex">
   <rect width="992" height="250"/>
  </clipPath>
  <linearGradient id="linearGradient2496" x1="538.81" x2="538.81" y1="167.48" y2="245.59" gradientTransform="matrix(.76472 0 0 1 97.69 1.6251)" gradientUnits="userSpaceOnUse">
   <stop stop-color="#b1b4c3" offset="0"/>
   <stop stop-color="#fff" offset="1"/>
  </linearGradient>
 </defs>
 <path d="m292.88 169.36 406.25 2e-3 -0.056 49.341-26.17 26.072-353.04 0.11855-26.995-25.904z" fill="url(#linearGradient2496)" stroke="#f2f2f2" stroke-width="4.786"/>
 <g transform="translate(0,-25.5)" clip-path="url(#_clipPath_CKbUpqn0NSV5203y2x5UoBwrBWauyyex)">
  <path d="m377.94 69.277c0-21.902 51.98-39.684 116-39.684s116 17.782 116 39.684-51.98 39.684-116 39.684-116-17.782-116-39.684z" fill="#ebebeb"/>
  <path d="m389.78 69.277c0-18.271 46.673-33.105 104.16-33.105s104.16 14.834 104.16 33.105c0 18.272-46.673 33.106-104.16 33.106s-104.16-14.834-104.16-33.106z"/>
  <path d="m502.09 69.585h-71.237c1.465 1.072 3.09 1.917 4.729 2.688 1.096 0.521 4.039 1.928 5.307 2.772 0.727 0.485 1.459 1.087 1.974 1.807 0.445 0.621 0.672 1.38 0.672 2.142 0 1.252-0.484 2.503-1.526 3.248-1.249 0.894-2.886 1.092-4.383 1.092-1.773 0-3.54-0.305-5.25-0.756-2.414-0.635-4.739-1.589-7.015-2.604v8.065c3.596 1.758 7.612 2.464 11.593 2.464 3.876 0 7.997-0.707 11.103-3.192 2.689-2.151 3.991-5.334 3.991-8.737 0-2.419-0.635-4.828-2.128-6.763-0.665-0.862-1.473-1.581-2.346-2.226h11.895v20.358h23.579v-7.169h-14.898v-10.557h13.862v-2.632h7.762c0.019 5.462 1.122 11.281 4.881 15.472 3.595 4.007 8.929 5.446 14.156 5.446 2.383 0 4.769-0.167 7.127-0.518 2.525-0.375 5.009-1.015 7.434-1.806v-18.594h11.749l-7.156 20.358h9.353l2.968-9.745h14.926l2.969 9.745h9.353l-7.184-20.358h-56.1 2.88v4.592h7.757v8.541c-1.814 0.363-3.665 0.56-5.516 0.56-3.056 0-6.02-1.044-7.939-3.514-2.234-2.875-2.731-6.644-2.731-10.179zm50.016 0c0.314 1.016 0.728 2.347 1.034 3.332h-10.669c0.309-1.001 0.712-2.288 1.016-3.332z" fill="#718dc3" fill-rule="evenodd"/>
  <path d="m547.21 69.585h-116.35c-0.425-0.297-0.518-0.37-0.9-0.7-1.222-1.058-2.25-2.345-2.996-3.781-0.803-1.545-1.12-3.31-1.12-5.04 0-3.267 1.145-6.4 3.682-8.541 2.814-2.376 6.589-3.109 10.179-3.109 2.05 0 4.107 0.239 6.091 0.756 2.067 0.54 4.105 1.28 6.063 2.129l-2.8 6.748c-1.635-0.67-3.671-1.442-5.419-1.876-1.377-0.342-2.795-0.532-4.215-0.532-1.32 0-2.755 0.254-3.78 1.148-0.863 0.753-1.316 1.86-1.316 2.997 0 0.697 0.16 1.406 0.532 2.002 0.414 0.664 1.06 1.217 1.694 1.652 1.185 0.814 4.65 2.463 5.503 2.87 1.929 0.923 3.833 1.957 5.523 3.277h11.895v-20.583h23.579v7.113h-14.898v8.989h13.862v4.481h7.762c-7e-3 -0.072-6e-3 -0.096-6e-3 -0.168 0-5.656 1.525-11.404 5.671-15.458 4.181-4.088 10.021-5.545 15.724-5.545 4.176 0 8.319 0.869 12.153 2.521l-2.884 6.944c-2.894-1.446-6.086-2.24-9.325-2.24-3.424 0-6.702 1.197-9.017 3.781-2.491 2.778-3.389 6.512-3.389 10.165h8.429v-2.633h16.242v2.633h11.749l7.294-20.751h10.613l7.322 20.751h-11.666 3.422l-3.601-11.65c-0.241-0.808-0.553-1.895-0.742-2.744-0.822 3.189-3.718 12.581-4.276 14.394z" fill="#e6eaed"/>
  <path d="m926.97 150.09c0.02 0.613 0.031 1.229 0.031 1.847v0.208c0 27.519-22.342 49.861-49.861 49.861h-762.28c-27.519 0-49.861-22.342-49.861-49.861v-0.208c0-0.618 0.011-1.234 0.031-1.847z" fill="#6e8abe"/>
  <path d="m926.97 150.09c-0.976-26.664-22.929-48.013-49.83-48.013h-762.28c-26.901 0-48.854 21.349-49.83 48.013z" fill="#e6eaed"/>
  <path d="m117.85 110.79h756.31c24.771 0 44.882 18.481 44.882 41.245s-20.111 41.246-44.882 41.246h-756.31c-24.771 0-44.882-18.482-44.882-41.246s20.111-41.245 44.882-41.245z"/>
  <path d="m142.79 150.09c0.147 0.625 0.207 1.281 0.207 1.951 0 6.07-4.928 10.998-10.998 10.998s-10.997-4.928-10.997-10.998c0-0.67 0.06-1.326 0.207-1.951z" fill="#6e8abe"/>
  <path d="m142.79 150.09c-0.895-5.146-5.391-9.046-10.791-9.046-5.399 0-9.895 3.9-10.79 9.046z" fill="#e6eaed"/>
  <path d="m869.45 150.09c0.147 0.625 0.207 1.281 0.207 1.951 0 6.07-4.928 10.998-10.998 10.998s-10.998-4.928-10.998-10.998c0-0.67 0.06-1.326 0.207-1.951z" fill="#6e8abe"/>
  <path d="m869.45 150.09c-0.895-5.146-5.391-9.046-10.791-9.046s-9.896 3.9-10.791 9.046z" fill="#e6eaed"/>
  <path d="m177.86 150.09h-16.239v-19.932h24.25l8.303 19.932h11.792l8.051-19.932h24.466v19.932h14.723v-19.932h57.051v7.393h-40.813v9.759h37.782v2.78h14.315c2.987-26.109 51.545-24.166 66.518-14.081 2.761 1.859 5.052 4.632 5.772 7.93h-15.264c-7.666-12.242-38.874-9.331-40.793 6.151h80.227l12.962-19.932h17.97l12.611 19.932h54.183v-19.932h30.853c13.564 0 33.065 2.728 34.462 19.932h13.171v-19.932h42.328c9.234 0 33.268 11.011 15.164 19.932h19.261v-19.932h16.239v19.932h21.079l-12.31-19.932h16.346l10.765 19.932h13.419l10.566-19.932h16.347l-12.511 19.932h21.929v-19.932h57.051v7.393h-40.812v9.759h37.781v2.78h-604.61l-0.053-6.151q-1.012-1.263-1.829 0.158-0.816 1.42-2.445 5.993h4.327zm0-5.862v5.862h4.394c-0.236-0.559-2.749-9.675-4.394-5.872zm267.72 5.862-5.954-9.759-5.954 9.759zm119.25 0c-0.806-9.756-9.711-12.539-18.25-12.539h-14.615v12.539zm45.621-1.302v-11.237h19.595c14.235 0 14.205 11.237 0 11.237z" fill="#e6eaed" fill-rule="evenodd"/>
  <path d="m723.1 150.09h-561.48v23.184h16.239v-23.184h4.394c3.8 9.002 5.733 13.58 9.787 23.184h16.239l9.638-23.184h4.327v23.184h16.238v-23.184h14.723v23.184h59v-7.393h-42.762v-11.178h37.782v-4.613h14.315c-4.143 27.391 46.065 29.251 60.598 17.624l1.949 5.678h9.743v-23.302h-31.611v7.392h17.97c-2.962 16.586-45.422 12.257-42.416-7.392h80.227l-15.077 23.184h16.563l5.305-8.694h29.554l5.196 8.694h16.672l-14.67-23.184h54.183v23.184h30.853c14.254 0 36.279-3.95 34.462-23.184h13.171v23.184h16.238v-17.093h18.62c3.544 0 10.068 0.106 10.068 5.087v1.774c-0.352 3.656-0.378 7.415 2.273 10.232h17.43v-1.597c-5.474-1.69-3.306-7.754-4.153-12.372-1.856-10.123-16.409-2.578-2.984-9.215h19.261v23.184h16.239v-23.184h21.079l14.321 23.184h13.748l14.553-23.184h21.929v23.184h59v-7.393h-42.761v-11.178h37.781v-4.613h-90.368 0.017l-6.646 12.538-6.773-12.538zm-517.14 0-5.806 14.371-5.986-14.371zm239.61 0 4.33 7.097h-20.568l4.33-7.097zm119.25 0c0.495 11.405-7.716 15.791-18.25 15.791h-14.615v-15.791zm158.26-0.034h13.419z" fill="#718dc3" fill-rule="evenodd"/>
 </g>
 <g transform="matrix(2.223 0 0 1.799 -460.12 -259.26)" stroke-width="1.0001" style="shape-inside:url(#rect6053);white-space:pre" aria-label="GENESIS">
  <path d="m366.5 250.22q-4.28 0-6.56 2.68-2.24 2.64-2.24 7.36 0 2.24 0.52 4.12 0.56 1.84 1.6 3.16 1.08 1.32 2.64 2.08 1.6 0.72 3.72 0.72 1.32 0 2.28-0.08 0.96-0.12 1.52-0.28v-9.96h5.04v13.32q-1.04 0.4-3.52 0.88t-5.72 0.48q-3 0-5.48-0.96t-4.24-2.8q-1.72-1.84-2.68-4.52t-0.96-6.16 1.04-6.16q1.08-2.68 2.92-4.52 1.84-1.88 4.32-2.84t5.28-0.96q1.92 0 3.4 0.28 1.52 0.24 2.6 0.56t1.76 0.68q0.72 0.36 1 0.52l-1.52 4.12q-1.2-0.72-3-1.2-1.76-0.52-3.72-0.52z"/>
  <path d="m380.86 274.14v-27.72h17.8v4.28h-12.76v6.84h11.36v4.2h-11.36v8.12h13.72v4.28z"/>
  <path d="m422.98 274.14q-1.36-2.28-3.04-4.88-1.68-2.64-3.48-5.28-1.8-2.68-3.68-5.16-1.84-2.52-3.52-4.52v19.84h-4.96v-27.72h4.12q1.6 1.68 3.44 4 1.84 2.28 3.68 4.76 1.88 2.48 3.6 5 1.76 2.48 3.12 4.64v-18.4h5v27.72z"/>
  <path d="m433.9 274.14v-27.72h17.8v4.28h-12.76v6.84h11.36v4.2h-11.36v8.12h13.72v4.28z"/>
  <path d="m464.06 270.38q2.72 0 3.96-0.92t1.24-2.6q0-1-0.44-1.72-0.4-0.72-1.2-1.28-0.76-0.6-1.88-1.08-1.12-0.52-2.56-1-1.44-0.52-2.8-1.12-1.32-0.64-2.36-1.56-1-0.92-1.64-2.2-0.6-1.28-0.6-3.08 0-3.76 2.6-5.88 2.6-2.16 7.08-2.16 2.6 0 4.6 0.6 2.04 0.56 3.2 1.24l-1.56 4.08q-1.36-0.76-3-1.16-1.6-0.4-3.32-0.4-2.04 0-3.2 0.84-1.12 0.84-1.12 2.36 0 0.92 0.36 1.6 0.4 0.64 1.08 1.16 0.72 0.52 1.64 0.96 0.96 0.44 2.08 0.84 1.96 0.72 3.48 1.48 1.56 0.72 2.6 1.76 1.08 1 1.64 2.4 0.56 1.36 0.56 3.32 0 3.76-2.68 5.84-2.64 2.04-7.76 2.04-1.72 0-3.16-0.24-1.4-0.2-2.52-0.52-1.08-0.32-1.88-0.64-0.8-0.36-1.28-0.64l1.48-4.12q1.08 0.6 2.92 1.2t4.44 0.6z"/>
  <path d="m478.94 246.42h5.04v27.72h-5.04z"/>
  <path d="m497.34 270.38q2.72 0 3.96-0.92t1.24-2.6q0-1-0.44-1.72-0.4-0.72-1.2-1.28-0.76001-0.6-1.88-1.08-1.12-0.52-2.56-1-1.44-0.52-2.8-1.12-1.32-0.64-2.36-1.56-1-0.92-1.64-2.2-0.60001-1.28-0.60001-3.08 0-3.76 2.6-5.88 2.6-2.16 7.08-2.16 2.6 0 4.6 0.6 2.04 0.56 3.2 1.24l-1.56 4.08q-1.36-0.76-3-1.16-1.6-0.4-3.32-0.4-2.04 0-3.2 0.84-1.12 0.84-1.12 2.36 0 0.92 0.35999 1.6 0.4 0.64 1.08 1.16 0.71999 0.52 1.64 0.96 0.96 0.44 2.08 0.84 1.96 0.72 3.48 1.48 1.56 0.72 2.6 1.76 1.08 1 1.64 2.4 0.56 1.36 0.56 3.32 0 3.76-2.68 5.84-2.64 2.04-7.76 2.04-1.72 0-3.16-0.24-1.4-0.2-2.52-0.52-1.08-0.32-1.88-0.64-0.80001-0.36-1.28-0.64l1.48-4.12q1.08 0.6 2.92 1.2 1.84 0.6 4.44 0.6z"/>
 </g>
</svg>
