<?xml version="1.0" encoding="UTF-8" standalone="no"?><!-- Generator: Gravit.io --><svg xmlns="http://www.w3.org/2000/svg" xmlns:xlink="http://www.w3.org/1999/xlink" style="isolation:isolate" viewBox="0 0 992 250" width="992pt" height="250pt"><defs><clipPath id="_clipPath_MGlPKG3GLCZLBI7iXpw8wHuoYTPjqLut"><rect width="992" height="250"/></clipPath></defs><g clip-path="url(#_clipPath_MGlPKG3GLCZLBI7iXpw8wHuoYTPjqLut)"><path d=" M 71 168.051 L 102.681 203.272 L 125.117 203.272 L 95.257 168.051" fill="rgb(40,40,42)"/><path d=" M 136.532 102.788 L 169.55 102.788 L 164.87 161.811 L 194.978 102.788 L 227.885 102.788 L 202.404 203.272 L 180.028 203.272 L 201.317 125.083 L 162.672 203.272 L 142.413 203.272 L 149.992 125.083 L 125.117 203.272 L 102.681 203.272 L 136.532 102.788 Z  M 244.892 102.788 L 270.044 102.788 L 248.425 203.272 L 220.969 203.272 L 244.892 102.788 Z  M 288.214 102.788 L 311.648 102.788 L 334.254 156.19 L 342.228 102.788 L 365.884 102.788 L 353.046 203.272 L 327.223 203.272 L 304.176 145.925 L 294.022 203.272 L 268.26 203.272 L 288.214 102.788 Z  M 382.504 102.788 L 449.758 102.788 L 448.732 122.8 L 405.86 122.8 L 404.481 138.178 L 444.798 138.178 L 443.696 158.543 L 402.655 158.543 L 400.826 178.936 L 447.156 178.936 L 445.934 203.272 L 371.188 203.272 L 382.504 102.788 Z  M 514.219 160.07 L 537.626 168.473 C 536.298 176.38 534.003 183.067 530.73 188.492 C 527.428 193.967 523.225 198.131 518.127 200.957 C 513.045 203.796 506.518 205.22 498.563 205.22 C 488.911 205.22 481.045 203.496 474.991 200.063 C 469.013 196.6 463.969 190.588 459.878 182.104 C 455.845 173.74 454.109 163.207 454.619 150.624 C 455.282 134.266 459.405 122.019 466.916 113.631 C 474.353 105.326 484.558 101.22 497.614 101.22 C 507.829 101.22 515.882 103.563 521.811 108.278 C 527.828 113.034 532.435 120.418 535.636 130.535 L 512.978 136.441 C 512.149 133.469 511.294 131.306 510.411 129.941 C 508.957 127.66 507.191 125.912 505.112 124.691 C 503.038 123.473 500.724 122.865 498.167 122.865 C 492.375 122.865 487.906 125.563 484.736 130.997 C 482.32 135.064 481.028 141.51 480.871 150.419 C 480.673 161.648 481.985 169.485 484.824 173.788 C 487.686 178.074 491.773 180.23 497.072 180.23 C 502.212 180.23 506.079 178.481 508.662 174.999 C 511.269 171.538 513.121 166.549 514.219 160.07 L 514.219 160.07 Z  M 545.389 203.272 L 541.077 102.788 L 582.904 102.788 C 590.659 102.788 596.658 103.542 600.907 105.053 C 605.168 106.568 608.779 109.399 611.749 113.567 C 614.736 117.723 616.571 122.843 617.241 128.953 C 617.832 134.332 617.355 139.026 615.798 143.016 C 614.226 146.988 611.813 150.236 608.558 152.748 C 606.475 154.352 603.528 155.684 599.715 156.743 C 602.971 157.988 605.381 159.237 606.94 160.488 C 607.994 161.323 609.573 163.114 611.684 165.869 C 613.844 168.638 615.321 170.782 616.106 172.295 L 632.593 203.272 L 601.63 203.272 L 584.463 170.664 C 582.348 166.572 580.548 163.93 579.055 162.718 C 577.033 161.137 574.819 160.348 572.409 160.348 L 570.076 160.348 L 572.905 203.272 L 545.389 203.272 Z  M 568.828 141.398 L 579.782 141.398 C 580.967 141.398 583.226 140.95 586.554 140.054 C 588.239 139.651 589.545 138.624 590.473 136.975 C 591.435 135.33 591.823 133.447 591.639 131.328 C 591.369 128.208 590.314 125.824 588.477 124.169 C 586.646 122.518 583.403 121.694 578.744 121.694 L 567.53 121.694 L 568.828 141.398 Z  M 692.902 185.434 L 662.162 185.434 L 660.411 203.272 L 632.412 203.272 L 651.321 102.788 L 678.688 102.788 L 728.929 203.272 L 700.264 203.272 L 692.902 185.434 Z  M 683.544 162.858 L 668.524 127.179 L 664.67 162.858 L 683.544 162.858 Z  M 717.357 102.788 L 779.404 102.788 L 784.645 122.93 L 747.128 122.93 L 750.963 139.853 L 783.493 139.853 L 788.655 160.07 L 755.545 160.07 L 765.335 203.272 L 737.819 203.272 L 717.357 102.788 Z  M 787.215 102.788 L 863.5 102.788 L 871.319 125.999 L 845.183 125.999 L 869.411 203.272 L 842.016 203.272 L 819.556 125.999 L 793.42 125.999 L 787.215 102.788 Z " fill-rule="evenodd" fill="rgb(40,40,42)"/><g style="isolation:isolate"><path d=" M 164.87 160.488 L 138.237 125.999 L 143.27 67.568 L 169.55 102.788 L 164.87 160.488 Z " fill="rgb(15,15,15)"/><path d=" M 202.404 203.272 L 179 168 L 206 67.568 L 227.885 102.957 L 202.404 203.272 Z " fill="rgb(15,15,15)"/><path d=" M 162 203.272 L 135.844 168 L 177.6 89.965 L 201.313 125 L 162 203.272 Z " fill="rgb(15,15,15)"/><path d=" M 812.07 67.568 L 818.781 90.782 L 793.42 125.999 L 787.215 102.957 L 812.07 67.568 Z " fill="rgb(0,0,0)"/><path d=" M 736.563 67.568 L 717 102.957 L 738 203.272 L 759 168 L 736.563 67.568 Z " fill="rgb(0,0,0)"/><path d=" M 710.094 150.199 L 692.902 185.443 L 700.016 203.262 L 718 168.153 L 710.094 150.199 Z " fill="rgb(0,0,0)"/><path d=" M 665 68 L 651.375 102.875 L 632.563 203.156 L 644.836 167.836 L 665 68 Z " fill="rgb(0,0,0)"/><path d=" M 618 83 L 614 91 L 606.94 154 L 626.375 108.352 L 618 83 Z " fill="rgb(0,0,0)"/><path d=" M 700 127.5 L 683.697 92 L 668.547 127.234 L 683.697 163 L 700 127.5 Z " fill="rgb(0,0,0)"/><path d=" M 546 68 L 541 104 L 545 203.272 L 550.625 168.051 L 546 68 Z " fill="rgb(0,0,0)"/><path d=" M 125.117 203.272 L 149.992 128.953 L 122.151 89.859 L 95.257 168.051 L 125.117 203.272 Z " fill="rgb(0,0,0)"/><path d=" M 251.947 67.568 L 270.044 102.788 L 248.425 203.272 L 228.523 168.153 L 251.947 67.568 Z " fill="rgb(15,15,15)"/><path d=" M 296.896 67.672 L 313 106 L 293.901 203.272 L 274 168.153 L 296.896 67.672 Z " fill="rgb(15,15,15)"/><path d=" M 355.565 67.568 L 365.891 102.788 L 353.039 203.272 L 341.672 168 L 355.565 67.568 Z " fill="rgb(15,15,15)"/><path d=" M 566 78.347 L 563 117.527 L 606.94 110.704 L 606.94 78.411 L 566 78.347 Z " fill="rgb(0,0,0)"/><path d=" M 557.03 115.829 L 554.03 155.01 L 592 158 L 618 176 L 597.97 115.893 L 557.03 115.829 Z " fill="rgb(40,40,42)"/></g><g style="isolation:isolate"><path d=" M 765 203.272 L 788 168 L 759 168 L 738 203.272 L 765 203.272 Z " fill="rgb(40,40,42)"/><path d=" M 729 203.272 L 749 168.051 L 718 168 L 700 203.298 L 729 203.272 Z " fill="rgb(40,40,42)"/><path d=" M 692.908 185.428 L 710.117 150.188 L 676.578 150.188 L 662 185 L 692.908 185.428 Z " fill="rgb(40,40,42)"/><path d=" M 573 203.272 L 580 168.051 L 550.625 168.051 L 545 203.272 L 573 203.272 Z " fill="rgb(40,40,42)"/><path d=" M 632.563 203.298 L 645 168.051 L 611.539 168 L 602 203.272 L 632.563 203.298 Z " fill="rgb(40,40,42)"/><path d=" M 660.406 203.272 L 675 168 L 645 168.051 L 631 203.298 L 660.406 203.272 Z " fill="rgb(40,40,42)"/><path d=" M 900.938 168.051 L 869.411 203.272 L 842.016 203.272 L 871.319 168.051 L 900.938 168.051 Z " fill="rgb(40,40,42)"/><path d=" M 903 90.779 L 871.319 125.999 L 842.016 125.999 L 875 90.779 L 903 90.779 Z " fill="rgb(40,40,42)"/><path d=" M 113.957 168.051 L 142.413 203.272 L 162.672 203.272 L 135.86 168.051 L 113.957 168.051 Z " fill="rgb(40,40,42)"/><path d=" M 155 168 L 180 203.272 L 202.437 203.272 L 179 168 L 155 168 Z " fill="rgb(40,40,42)"/><path d=" M 818.778 90.779 L 847.036 90.779 L 819.556 125.999 L 793.42 125.999 L 818.778 90.779 Z " fill="rgb(40,40,42)"/><path d=" M 769 87.688 L 809.297 87.703 L 784 123 L 747 123 L 769 87.688 Z " fill="rgb(40,40,42)"/><path d=" M 778 124.852 L 813.594 124.852 L 788.656 160.055 L 755 160.055 L 778 124.852 Z " fill="rgb(40,40,42)"/><path d=" M 199 168 L 221 203.272 L 248.492 203.272 L 228.547 168.051 L 199 168 Z " fill="rgb(40,40,42)"/><path d=" M 250 168 L 268 203.272 L 294 203.298 L 278 168 L 250 168 Z " fill="rgb(40,40,42)"/><path d=" M 314 168 L 327 203.272 L 353 203.272 L 341 168 L 314 168 Z " fill="rgb(40,40,42)"/><path d=" M 361 168 L 371 203.298 L 446 203.272 L 442 168 L 361 168 Z " fill="rgb(40,40,42)"/><path d=" M 395 123.281 L 396 158.438 L 443.656 158.438 L 439.68 123.281 L 395 123.281 Z " fill="rgb(40,40,42)"/><path d=" M 452 124 L 455 161 L 490 191 L 538 168.051 L 541 133 L 501 157 L 465 133 L 452 124 Z " fill="rgb(40,40,42)"/><path d=" M 398.672 87.574 L 398.469 122.922 L 448.813 122.75 L 445.113 87.574 L 398.672 87.574 Z " fill="rgb(40,40,42)"/><path d=" M 474.991 118 L 478 83 L 517 81 L 527 121.523 L 474.991 118 Z " fill="rgb(40,40,42)"/><path d=" M 474.991 153.183 L 478 84.902 L 517 81 L 527 160.055 L 474.991 153.183 Z " fill="rgb(40,40,42)"/></g><g style="isolation:isolate"><path d=" M 513 136.441 L 515 101.156 L 539.49 95.291 L 535.623 130.535 L 513 136.441 Z " fill="rgb(0,0,0)"/><path d=" M 847.036 90.756 L 871.319 168.051 L 842.016 203.272 L 819.556 125.999 L 847.036 90.756 Z " fill="rgb(0,0,0)"/><path d=" M 398.773 87.578 L 405.852 122.836 L 399.953 116.047 L 397.273 102.984 L 398.773 87.578 Z " fill="rgb(15,15,15)"/><path d=" M 446.219 67.594 L 449.75 102.797 L 448.76 122.73 L 445.094 87.578 L 446.219 67.594 Z " fill="rgb(15,15,15)"/><path d=" M 441 103 L 444.797 138.187 L 443.691 158.581 L 439.672 123.328 L 441 103 Z " fill="rgb(15,15,15)"/><path d=" M 443.434 143.719 L 447.148 178.941 L 446 203.272 L 442 168.051 L 443.434 143.719 Z " fill="rgb(15,15,15)"/><path d=" M 395.375 123.375 L 402.617 158.555 L 397.168 161.321 L 393.336 143.701 L 395.375 123.375 Z " fill="rgb(15,15,15)"/></g><path d=" M 107.598 67.568 L 143.296 67.568 L 138.237 126.591 L 170.788 67.568 L 206.366 67.568 L 178.817 168.051 L 154.625 168.051 L 177.642 89.863 L 135.86 168.051 L 113.957 168.051 L 122.151 89.863 L 95.257 168.051 L 71 168.051 L 107.598 67.568 Z  M 224.754 67.568 L 251.947 67.568 L 228.573 168.051 L 198.889 168.051 L 224.754 67.568 Z  M 271.593 67.568 L 296.928 67.568 L 321.369 120.97 L 329.991 67.568 L 355.566 67.568 L 341.686 168.051 L 313.767 168.051 L 288.85 110.704 L 277.872 168.051 L 250.019 168.051 L 271.593 67.568 Z  M 373.535 67.568 L 446.248 67.568 L 445.138 87.579 L 398.787 87.579 L 397.296 102.957 L 440.885 102.957 L 439.695 123.323 L 395.322 123.323 L 393.344 143.715 L 443.435 143.715 L 442.114 168.051 L 361.301 168.051 L 373.535 67.568 Z  M 516.347 124.85 L 541.654 133.253 C 540.218 141.16 537.737 147.847 534.199 153.272 C 530.628 158.747 526.084 162.911 520.572 165.736 C 515.078 168.575 508.021 170 499.42 170 C 488.985 170 480.481 168.276 473.935 164.843 C 467.471 161.38 462.018 155.368 457.595 146.884 C 453.235 138.52 451.358 127.987 451.91 115.404 C 452.626 99.046 457.084 86.799 465.205 78.411 C 473.246 70.106 484.279 66 498.394 66 C 509.439 66 518.146 68.342 524.555 73.058 C 531.06 77.813 536.041 85.198 539.502 95.315 L 515.005 101.22 C 514.109 98.249 513.185 96.085 512.23 94.721 C 510.658 92.44 508.749 90.691 506.501 89.471 C 504.259 88.253 501.757 87.645 498.992 87.645 C 492.73 87.645 487.898 90.342 484.471 95.777 C 481.859 99.843 480.462 106.29 480.292 115.198 C 480.078 126.428 481.496 134.265 484.567 138.568 C 487.66 142.854 492.079 145.009 497.808 145.009 C 503.365 145.009 507.547 143.261 510.339 139.779 C 513.158 136.318 515.16 131.328 516.347 124.85 L 516.347 124.85 Z  M 550.615 168.051 L 545.954 67.568 L 591.175 67.568 C 599.56 67.568 606.045 68.321 610.639 69.833 C 615.246 71.348 619.151 74.179 622.361 78.347 C 625.591 82.503 627.575 87.623 628.3 93.733 C 628.938 99.112 628.422 103.805 626.739 107.795 C 625.039 111.768 622.431 115.016 618.911 117.527 C 616.659 119.131 613.473 120.464 609.351 121.523 C 612.871 122.768 615.476 124.016 617.162 125.267 C 618.302 126.103 620.009 127.894 622.292 130.649 C 624.627 133.418 626.223 135.562 627.073 137.075 L 644.897 168.051 L 611.421 168.051 L 592.861 135.444 C 590.574 131.352 588.628 128.71 587.014 127.498 C 584.828 125.917 582.434 125.128 579.828 125.128 L 577.307 125.128 L 580.364 168.051 L 550.615 168.051 Z  M 575.957 106.178 L 587.799 106.178 C 589.081 106.178 591.523 105.73 595.121 104.834 C 596.943 104.431 598.356 103.403 599.358 101.754 C 600.399 100.11 600.819 98.227 600.62 96.107 C 600.327 92.987 599.186 90.604 597.2 88.948 C 595.22 87.297 591.714 86.474 586.678 86.474 L 574.553 86.474 L 575.957 106.178 Z  M 710.102 150.214 L 676.866 150.214 L 674.974 168.051 L 644.701 168.051 L 665.146 67.568 L 694.734 67.568 L 749.053 168.051 L 718.061 168.051 L 710.102 150.214 Z  M 699.984 127.637 L 683.745 91.958 L 679.578 127.637 L 699.984 127.637 Z  M 736.541 67.568 L 803.625 67.568 L 809.291 87.71 L 768.729 87.71 L 772.875 104.632 L 808.046 104.632 L 813.626 124.85 L 777.829 124.85 L 788.413 168.051 L 758.664 168.051 L 736.541 67.568 Z  M 812.07 67.568 L 894.546 67.568 L 903 90.779 L 874.743 90.779 L 900.937 168.051 L 871.319 168.051 L 847.036 90.779 L 818.778 90.779 L 812.07 67.568 Z " fill-rule="evenodd" fill="rgb(173,163,161)"/></g></svg>