<?xml version="1.0" encoding="UTF-8" standalone="no"?><!-- Generator: Gravit.io --><svg xmlns="http://www.w3.org/2000/svg" xmlns:xlink="http://www.w3.org/1999/xlink" style="isolation:isolate" viewBox="0 0 992 250" width="992pt" height="250pt"><defs><clipPath id="_clipPath_UWqCDINb7vrVTpAA0SAYnKgT8eskFy5e"><rect width="992" height="250"/></clipPath></defs><g clip-path="url(#_clipPath_UWqCDINb7vrVTpAA0SAYnKgT8eskFy5e)"><path d=" M 186.607 153.226 L 174.779 153.226 L 137.217 53.167 L 136.578 53.167 L 136.578 53.167 Q 137.057 58.122 137.377 66.513 L 137.377 66.513 L 137.377 66.513 Q 137.696 74.905 137.696 84.016 L 137.696 84.016 L 137.696 153.226 L 124.43 153.226 L 124.43 39.101 L 145.688 39.101 L 180.853 132.607 L 181.492 132.607 L 217.296 39.101 L 238.395 39.101 L 238.395 153.226 L 224.169 153.226 L 224.169 83.056 L 224.169 83.056 Q 224.169 74.745 224.569 66.593 L 224.569 66.593 L 224.569 66.593 Q 224.968 58.441 225.288 53.326 L 225.288 53.326 L 224.649 53.326 L 186.607 153.226 Z  M 341.971 110.229 L 341.971 110.229 L 341.971 110.229 Q 341.971 131.488 331.181 143.156 L 331.181 143.156 L 331.181 143.156 Q 320.392 154.824 302.011 154.824 L 302.011 154.824 L 302.011 154.824 Q 290.662 154.824 281.791 149.629 L 281.791 149.629 L 281.791 149.629 Q 272.92 144.435 267.805 134.445 L 267.805 134.445 L 267.805 134.445 Q 262.69 124.455 262.69 110.229 L 262.69 110.229 L 262.69 110.229 Q 262.69 88.971 273.4 77.462 L 273.4 77.462 L 273.4 77.462 Q 284.109 65.954 302.49 65.954 L 302.49 65.954 L 302.49 65.954 Q 314.159 65.954 323.03 71.148 L 323.03 71.148 L 323.03 71.148 Q 331.901 76.343 336.936 86.173 L 336.936 86.173 L 336.936 86.173 Q 341.971 96.003 341.971 110.229 Z  M 277.236 110.229 L 277.236 110.229 L 277.236 110.229 Q 277.236 125.414 283.23 134.285 L 283.23 134.285 L 283.23 134.285 Q 289.224 143.156 302.331 143.156 L 302.331 143.156 L 302.331 143.156 Q 315.277 143.156 321.351 134.285 L 321.351 134.285 L 321.351 134.285 Q 327.425 125.414 327.425 110.229 L 327.425 110.229 L 327.425 110.229 Q 327.425 95.044 321.351 86.413 L 321.351 86.413 L 321.351 86.413 Q 315.277 77.782 302.171 77.782 L 302.171 77.782 L 302.171 77.782 Q 289.064 77.782 283.15 86.413 L 283.15 86.413 L 283.15 86.413 Q 277.236 95.044 277.236 110.229 Z  M 438.673 110.229 L 438.673 110.229 L 438.673 110.229 Q 438.673 131.488 427.884 143.156 L 427.884 143.156 L 427.884 143.156 Q 417.095 154.824 398.713 154.824 L 398.713 154.824 L 398.713 154.824 Q 387.365 154.824 378.494 149.629 L 378.494 149.629 L 378.494 149.629 Q 369.623 144.435 364.508 134.445 L 364.508 134.445 L 364.508 134.445 Q 359.393 124.455 359.393 110.229 L 359.393 110.229 L 359.393 110.229 Q 359.393 88.971 370.102 77.462 L 370.102 77.462 L 370.102 77.462 Q 380.811 65.954 399.193 65.954 L 399.193 65.954 L 399.193 65.954 Q 410.861 65.954 419.732 71.148 L 419.732 71.148 L 419.732 71.148 Q 428.603 76.343 433.638 86.173 L 433.638 86.173 L 433.638 86.173 Q 438.673 96.003 438.673 110.229 Z  M 373.938 110.229 L 373.938 110.229 L 373.938 110.229 Q 373.938 125.414 379.932 134.285 L 379.932 134.285 L 379.932 134.285 Q 385.926 143.156 399.033 143.156 L 399.033 143.156 L 399.033 143.156 Q 411.98 143.156 418.054 134.285 L 418.054 134.285 L 418.054 134.285 Q 424.128 125.414 424.128 110.229 L 424.128 110.229 L 424.128 110.229 Q 424.128 95.044 418.054 86.413 L 418.054 86.413 L 418.054 86.413 Q 411.98 77.782 398.873 77.782 L 398.873 77.782 L 398.873 77.782 Q 385.766 77.782 379.852 86.413 L 379.852 86.413 L 379.852 86.413 Q 373.938 95.044 373.938 110.229 Z  M 502.129 65.954 L 502.129 65.954 L 502.129 65.954 Q 517.474 65.954 525.306 73.386 L 525.306 73.386 L 525.306 73.386 Q 533.138 80.819 533.138 97.442 L 533.138 97.442 L 533.138 153.226 L 519.232 153.226 L 519.232 98.401 L 519.232 98.401 Q 519.232 77.782 500.051 77.782 L 500.051 77.782 L 500.051 77.782 Q 485.826 77.782 480.391 85.774 L 480.391 85.774 L 480.391 85.774 Q 474.957 93.766 474.957 108.791 L 474.957 108.791 L 474.957 153.226 L 460.891 153.226 L 460.891 67.552 L 472.239 67.552 L 474.317 79.22 L 475.116 79.22 L 475.116 79.22 Q 479.272 72.507 486.625 69.23 L 486.625 69.23 L 486.625 69.23 Q 493.977 65.954 502.129 65.954 Z  M 573.737 31.748 L 573.737 153.226 L 559.671 153.226 L 559.671 31.748 L 573.737 31.748 Z  M 608.102 35.424 L 608.102 35.424 L 608.102 35.424 Q 611.299 35.424 613.777 37.582 L 613.777 37.582 L 613.777 37.582 Q 616.254 39.74 616.254 44.375 L 616.254 44.375 L 616.254 44.375 Q 616.254 48.851 613.777 51.089 L 613.777 51.089 L 613.777 51.089 Q 611.299 53.326 608.102 53.326 L 608.102 53.326 L 608.102 53.326 Q 604.586 53.326 602.188 51.089 L 602.188 51.089 L 602.188 51.089 Q 599.791 48.851 599.791 44.375 L 599.791 44.375 L 599.791 44.375 Q 599.791 39.74 602.188 37.582 L 602.188 37.582 L 602.188 37.582 Q 604.586 35.424 608.102 35.424 Z  M 600.91 67.552 L 614.975 67.552 L 614.975 153.226 L 600.91 153.226 L 600.91 67.552 Z  M 672.518 65.954 L 672.518 65.954 L 672.518 65.954 Q 680.989 65.954 687.782 69.15 L 687.782 69.15 L 687.782 69.15 Q 694.575 72.347 699.37 78.901 L 699.37 78.901 L 700.17 78.901 L 702.088 67.552 L 713.276 67.552 L 713.276 154.664 L 713.276 154.664 Q 713.276 173.046 703.926 182.316 L 703.926 182.316 L 703.926 182.316 Q 694.575 191.587 674.915 191.587 L 674.915 191.587 L 674.915 191.587 Q 656.054 191.587 644.066 186.153 L 644.066 186.153 L 644.066 173.206 L 644.066 173.206 Q 656.693 179.919 675.714 179.919 L 675.714 179.919 L 675.714 179.919 Q 686.743 179.919 693.057 173.445 L 693.057 173.445 L 693.057 173.445 Q 699.37 166.972 699.37 155.783 L 699.37 155.783 L 699.37 152.427 L 699.37 152.427 Q 699.37 150.508 699.53 146.912 L 699.53 146.912 L 699.53 146.912 Q 699.69 143.316 699.85 141.877 L 699.85 141.877 L 699.211 141.877 L 699.211 141.877 Q 690.579 154.824 672.677 154.824 L 672.677 154.824 L 672.677 154.824 Q 656.054 154.824 646.703 143.156 L 646.703 143.156 L 646.703 143.156 Q 637.353 131.488 637.353 110.549 L 637.353 110.549 L 637.353 110.549 Q 637.353 90.089 646.703 78.022 L 646.703 78.022 L 646.703 78.022 Q 656.054 65.954 672.518 65.954 Z  M 674.436 77.782 L 674.436 77.782 L 674.436 77.782 Q 663.726 77.782 657.812 86.333 L 657.812 86.333 L 657.812 86.333 Q 651.898 94.885 651.898 110.709 L 651.898 110.709 L 651.898 110.709 Q 651.898 126.533 657.732 134.924 L 657.732 134.924 L 657.732 134.924 Q 663.567 143.316 674.755 143.316 L 674.755 143.316 L 674.755 143.316 Q 687.702 143.316 693.616 136.363 L 693.616 136.363 L 693.616 136.363 Q 699.53 129.41 699.53 113.905 L 699.53 113.905 L 699.53 110.549 L 699.53 110.549 Q 699.53 92.966 693.456 85.374 L 693.456 85.374 L 693.456 85.374 Q 687.383 77.782 674.436 77.782 Z  M 754.515 31.748 L 754.515 67.392 L 754.515 67.392 Q 754.515 73.786 753.716 79.38 L 753.716 79.38 L 754.675 79.38 L 754.675 79.38 Q 758.831 72.827 765.943 69.47 L 765.943 69.47 L 765.943 69.47 Q 773.056 66.114 781.368 66.114 L 781.368 66.114 L 781.368 66.114 Q 797.032 66.114 804.864 73.546 L 804.864 73.546 L 804.864 73.546 Q 812.696 80.979 812.696 97.442 L 812.696 97.442 L 812.696 153.226 L 798.79 153.226 L 798.79 98.401 L 798.79 98.401 Q 798.79 77.782 779.61 77.782 L 779.61 77.782 L 779.61 77.782 Q 765.224 77.782 759.869 85.854 L 759.869 85.854 L 759.869 85.854 Q 754.515 93.926 754.515 108.95 L 754.515 108.95 L 754.515 153.226 L 740.449 153.226 L 740.449 31.748 L 754.515 31.748 Z  M 867.841 143.316 L 867.841 143.316 L 867.841 143.316 Q 871.037 143.316 874.394 142.756 L 874.394 142.756 L 874.394 142.756 Q 877.751 142.197 879.829 141.558 L 879.829 141.558 L 879.829 152.267 L 879.829 152.267 Q 877.591 153.386 873.435 154.105 L 873.435 154.105 L 873.435 154.105 Q 869.279 154.824 865.443 154.824 L 865.443 154.824 L 865.443 154.824 Q 858.73 154.824 853.056 152.506 L 853.056 152.506 L 853.056 152.506 Q 847.381 150.189 843.865 144.435 L 843.865 144.435 L 843.865 144.435 Q 840.348 138.68 840.348 128.291 L 840.348 128.291 L 840.348 78.421 L 828.201 78.421 L 828.201 71.708 L 840.508 66.114 L 846.103 47.892 L 854.414 47.892 L 854.414 67.552 L 879.189 67.552 L 879.189 78.421 L 854.414 78.421 L 854.414 127.971 L 854.414 127.971 Q 854.414 135.803 858.17 139.56 L 858.17 139.56 L 858.17 139.56 Q 861.927 143.316 867.841 143.316 Z " fill="rgb(209,209,209)"/><path d=" M 338.5 177.969 L 338.5 177.969 Q 342.847 177.969 345.934 179.198 L 345.934 179.198 L 345.934 179.198 Q 349.021 180.426 351.919 183.009 L 351.919 183.009 L 348.643 186.663 L 348.643 186.663 Q 346.186 184.71 343.823 183.797 L 343.823 183.797 L 343.823 183.797 Q 341.461 182.883 338.752 182.883 L 338.752 182.883 L 338.752 182.883 Q 335.35 182.883 333.145 184.458 L 333.145 184.458 L 333.145 184.458 Q 330.94 186.033 330.94 189.057 L 330.94 189.057 L 330.94 189.057 Q 330.94 190.947 331.696 192.239 L 331.696 192.239 L 331.696 192.239 Q 332.452 193.53 334.499 194.601 L 334.499 194.601 L 334.499 194.601 Q 336.547 195.672 340.453 196.869 L 340.453 196.869 L 340.453 196.869 Q 344.548 198.129 347.257 199.578 L 347.257 199.578 L 347.257 199.578 Q 349.966 201.027 351.635 203.579 L 351.635 203.579 L 351.635 203.579 Q 353.305 206.13 353.305 210.036 L 353.305 210.036 L 353.305 210.036 Q 353.305 213.816 351.446 216.714 L 351.446 216.714 L 351.446 216.714 Q 349.588 219.612 346.091 221.25 L 346.091 221.25 L 346.091 221.25 Q 342.595 222.888 337.807 222.888 L 337.807 222.888 L 337.807 222.888 Q 328.798 222.888 323.065 217.281 L 323.065 217.281 L 326.341 213.627 L 326.341 213.627 Q 328.987 215.769 331.696 216.872 L 331.696 216.872 L 331.696 216.872 Q 334.405 217.974 337.744 217.974 L 337.744 217.974 L 337.744 217.974 Q 341.776 217.974 344.422 215.99 L 344.422 215.99 L 344.422 215.99 Q 347.068 214.005 347.068 210.225 L 347.068 210.225 L 347.068 210.225 Q 347.068 208.083 346.249 206.666 L 346.249 206.666 L 346.249 206.666 Q 345.43 205.248 343.445 204.114 L 343.445 204.114 L 343.445 204.114 Q 341.461 202.98 337.681 201.846 L 337.681 201.846 L 337.681 201.846 Q 331.003 199.83 327.916 196.995 L 327.916 196.995 L 327.916 196.995 Q 324.829 194.16 324.829 189.309 L 324.829 189.309 L 324.829 189.309 Q 324.829 186.033 326.561 183.45 L 326.561 183.45 L 326.561 183.45 Q 328.294 180.867 331.412 179.418 L 331.412 179.418 L 331.412 179.418 Q 334.531 177.969 338.5 177.969 L 338.5 177.969 Z  M 376.363 216.777 L 378.568 220.62 L 378.568 220.62 Q 375.292 222.888 371.134 222.888 L 371.134 222.888 L 371.134 222.888 Q 366.913 222.888 364.55 220.463 L 364.55 220.463 L 364.55 220.463 Q 362.188 218.037 362.188 213.438 L 362.188 213.438 L 362.188 193.404 L 356.392 193.404 L 356.392 188.931 L 362.188 188.931 L 362.188 181.434 L 367.984 180.741 L 367.984 188.931 L 375.859 188.931 L 375.229 193.404 L 367.984 193.404 L 367.984 213.186 L 367.984 213.186 Q 367.984 215.769 368.897 216.935 L 368.897 216.935 L 368.897 216.935 Q 369.811 218.1 371.953 218.1 L 371.953 218.1 L 371.953 218.1 Q 373.906 218.1 376.363 216.777 L 376.363 216.777 Z  M 398.791 188.175 L 398.791 188.175 Q 400.555 188.175 402.067 188.553 L 402.067 188.553 L 400.996 194.223 L 400.996 194.223 Q 399.484 193.845 398.098 193.845 L 398.098 193.845 L 398.098 193.845 Q 395.011 193.845 393.121 196.113 L 393.121 196.113 L 393.121 196.113 Q 391.231 198.381 390.16 203.169 L 390.16 203.169 L 390.16 222.132 L 384.364 222.132 L 384.364 188.931 L 389.341 188.931 L 389.908 195.672 L 389.908 195.672 Q 391.231 191.955 393.499 190.065 L 393.499 190.065 L 393.499 190.065 Q 395.767 188.175 398.791 188.175 L 398.791 188.175 Z  M 433.756 204.555 L 433.756 204.555 Q 433.756 206.004 433.63 207.516 L 433.63 207.516 L 412.462 207.516 L 412.462 207.516 Q 412.84 212.997 415.234 215.58 L 415.234 215.58 L 415.234 215.58 Q 417.628 218.163 421.408 218.163 L 421.408 218.163 L 421.408 218.163 Q 423.802 218.163 425.818 217.47 L 425.818 217.47 L 425.818 217.47 Q 427.834 216.777 430.039 215.265 L 430.039 215.265 L 432.559 218.73 L 432.559 218.73 Q 427.267 222.888 420.967 222.888 L 420.967 222.888 L 420.967 222.888 Q 414.037 222.888 410.162 218.352 L 410.162 218.352 L 410.162 218.352 Q 406.288 213.816 406.288 205.878 L 406.288 205.878 L 406.288 205.878 Q 406.288 200.712 407.957 196.712 L 407.957 196.712 L 407.957 196.712 Q 409.627 192.711 412.745 190.443 L 412.745 190.443 L 412.745 190.443 Q 415.864 188.175 420.085 188.175 L 420.085 188.175 L 420.085 188.175 Q 426.7 188.175 430.228 192.522 L 430.228 192.522 L 430.228 192.522 Q 433.756 196.869 433.756 204.555 L 433.756 204.555 Z  M 428.023 203.232 L 428.023 202.854 L 428.023 202.854 Q 428.023 197.94 426.07 195.357 L 426.07 195.357 L 426.07 195.357 Q 424.117 192.774 420.211 192.774 L 420.211 192.774 L 420.211 192.774 Q 413.092 192.774 412.462 203.232 L 412.462 203.232 L 428.023 203.232 Z  M 465.004 214.383 L 465.004 214.383 Q 465.004 216.399 465.697 217.376 L 465.697 217.376 L 465.697 217.376 Q 466.39 218.352 467.776 218.856 L 467.776 218.856 L 466.453 222.888 L 466.453 222.888 Q 463.87 222.573 462.295 221.439 L 462.295 221.439 L 462.295 221.439 Q 460.72 220.305 459.964 217.911 L 459.964 217.911 L 459.964 217.911 Q 456.625 222.888 450.073 222.888 L 450.073 222.888 L 450.073 222.888 Q 445.159 222.888 442.324 220.116 L 442.324 220.116 L 442.324 220.116 Q 439.489 217.344 439.489 212.871 L 439.489 212.871 L 439.489 212.871 Q 439.489 207.579 443.3 204.744 L 443.3 204.744 L 443.3 204.744 Q 447.112 201.909 454.105 201.909 L 454.105 201.909 L 459.208 201.909 L 459.208 199.452 L 459.208 199.452 Q 459.208 195.924 457.507 194.412 L 457.507 194.412 L 457.507 194.412 Q 455.806 192.9 452.278 192.9 L 452.278 192.9 L 452.278 192.9 Q 448.624 192.9 443.332 194.664 L 443.332 194.664 L 441.883 190.443 L 441.883 190.443 Q 448.057 188.175 453.349 188.175 L 453.349 188.175 L 453.349 188.175 Q 459.208 188.175 462.106 191.042 L 462.106 191.042 L 462.106 191.042 Q 465.004 193.908 465.004 199.2 L 465.004 199.2 L 465.004 214.383 Z  M 451.396 218.541 L 451.396 218.541 Q 456.373 218.541 459.208 213.375 L 459.208 213.375 L 459.208 205.752 L 454.861 205.752 L 454.861 205.752 Q 445.663 205.752 445.663 212.556 L 445.663 212.556 L 445.663 212.556 Q 445.663 215.517 447.112 217.029 L 447.112 217.029 L 447.112 217.029 Q 448.561 218.541 451.396 218.541 L 451.396 218.541 Z  M 510.049 188.175 L 510.049 188.175 Q 514.144 188.175 516.601 190.916 L 516.601 190.916 L 516.601 190.916 Q 519.058 193.656 519.058 198.318 L 519.058 198.318 L 519.058 222.132 L 513.262 222.132 L 513.262 199.137 L 513.262 199.137 Q 513.262 192.711 508.6 192.711 L 508.6 192.711 L 508.6 192.711 Q 506.143 192.711 504.442 194.129 L 504.442 194.129 L 504.442 194.129 Q 502.741 195.546 500.788 198.57 L 500.788 198.57 L 500.788 222.132 L 494.992 222.132 L 494.992 199.137 L 494.992 199.137 Q 494.992 192.711 490.33 192.711 L 490.33 192.711 L 490.33 192.711 Q 487.81 192.711 486.109 194.16 L 486.109 194.16 L 486.109 194.16 Q 484.408 195.609 482.518 198.57 L 482.518 198.57 L 482.518 222.132 L 476.722 222.132 L 476.722 188.931 L 481.699 188.931 L 482.203 193.782 L 482.203 193.782 Q 485.92 188.175 491.779 188.175 L 491.779 188.175 L 491.779 188.175 Q 494.866 188.175 497.039 189.75 L 497.039 189.75 L 497.039 189.75 Q 499.213 191.325 500.158 194.16 L 500.158 194.16 L 500.158 194.16 Q 502.111 191.262 504.473 189.719 L 504.473 189.719 L 504.473 189.719 Q 506.836 188.175 510.049 188.175 L 510.049 188.175 Z  M 533.107 172.992 L 533.107 172.992 Q 534.934 172.992 536.068 174.126 L 536.068 174.126 L 536.068 174.126 Q 537.202 175.26 537.202 176.961 L 537.202 176.961 L 537.202 176.961 Q 537.202 178.662 536.068 179.765 L 536.068 179.765 L 536.068 179.765 Q 534.934 180.867 533.107 180.867 L 533.107 180.867 L 533.107 180.867 Q 531.343 180.867 530.209 179.765 L 530.209 179.765 L 530.209 179.765 Q 529.075 178.662 529.075 176.961 L 529.075 176.961 L 529.075 176.961 Q 529.075 175.26 530.209 174.126 L 530.209 174.126 L 530.209 174.126 Q 531.343 172.992 533.107 172.992 L 533.107 172.992 Z  M 536.068 188.931 L 536.068 222.132 L 530.272 222.132 L 530.272 188.931 L 536.068 188.931 Z  M 563.284 188.175 L 563.284 188.175 Q 567.82 188.175 570.371 190.884 L 570.371 190.884 L 570.371 190.884 Q 572.923 193.593 572.923 198.318 L 572.923 198.318 L 572.923 222.132 L 567.127 222.132 L 567.127 199.137 L 567.127 199.137 Q 567.127 195.609 565.804 194.16 L 565.804 194.16 L 565.804 194.16 Q 564.481 192.711 561.898 192.711 L 561.898 192.711 L 561.898 192.711 Q 559.252 192.711 557.236 194.223 L 557.236 194.223 L 557.236 194.223 Q 555.22 195.735 553.456 198.57 L 553.456 198.57 L 553.456 222.132 L 547.66 222.132 L 547.66 188.931 L 552.637 188.931 L 553.141 193.845 L 553.141 193.845 Q 554.905 191.199 557.519 189.687 L 557.519 189.687 L 557.519 189.687 Q 560.134 188.175 563.284 188.175 L 563.284 188.175 Z  M 609.4 185.214 L 611.101 190.443 L 611.101 190.443 Q 609.211 191.073 606.943 191.262 L 606.943 191.262 L 606.943 191.262 Q 604.675 191.451 601.399 191.451 L 601.399 191.451 L 601.399 191.451 Q 607.258 194.097 607.258 199.83 L 607.258 199.83 L 607.258 199.83 Q 607.258 204.807 603.856 207.957 L 603.856 207.957 L 603.856 207.957 Q 600.454 211.107 594.595 211.107 L 594.595 211.107 L 594.595 211.107 Q 592.327 211.107 590.374 210.477 L 590.374 210.477 L 590.374 210.477 Q 589.618 210.981 589.177 211.832 L 589.177 211.832 L 589.177 211.832 Q 588.736 212.682 588.736 213.564 L 588.736 213.564 L 588.736 213.564 Q 588.736 216.273 593.083 216.273 L 593.083 216.273 L 598.375 216.273 L 598.375 216.273 Q 601.714 216.273 604.297 217.47 L 604.297 217.47 L 604.297 217.47 Q 606.88 218.667 608.297 220.746 L 608.297 220.746 L 608.297 220.746 Q 609.715 222.825 609.715 225.471 L 609.715 225.471 L 609.715 225.471 Q 609.715 230.322 605.746 232.937 L 605.746 232.937 L 605.746 232.937 Q 601.777 235.551 594.154 235.551 L 594.154 235.551 L 594.154 235.551 Q 588.799 235.551 585.68 234.449 L 585.68 234.449 L 585.68 234.449 Q 582.562 233.346 581.239 231.141 L 581.239 231.141 L 581.239 231.141 Q 579.916 228.936 579.916 225.471 L 579.916 225.471 L 585.145 225.471 L 585.145 225.471 Q 585.145 227.487 585.901 228.653 L 585.901 228.653 L 585.901 228.653 Q 586.657 229.818 588.61 230.417 L 588.61 230.417 L 588.61 230.417 Q 590.563 231.015 594.154 231.015 L 594.154 231.015 L 594.154 231.015 Q 599.383 231.015 601.619 229.724 L 601.619 229.724 L 601.619 229.724 Q 603.856 228.432 603.856 225.849 L 603.856 225.849 L 603.856 225.849 Q 603.856 223.518 602.092 222.321 L 602.092 222.321 L 602.092 222.321 Q 600.328 221.124 597.178 221.124 L 597.178 221.124 L 591.949 221.124 L 591.949 221.124 Q 587.728 221.124 585.554 219.329 L 585.554 219.329 L 585.554 219.329 Q 583.381 217.533 583.381 214.824 L 583.381 214.824 L 583.381 214.824 Q 583.381 213.186 584.326 211.674 L 584.326 211.674 L 584.326 211.674 Q 585.271 210.162 587.035 208.965 L 587.035 208.965 L 587.035 208.965 Q 584.137 207.453 582.782 205.217 L 582.782 205.217 L 582.782 205.217 Q 581.428 202.98 581.428 199.767 L 581.428 199.767 L 581.428 199.767 Q 581.428 196.428 583.097 193.782 L 583.097 193.782 L 583.097 193.782 Q 584.767 191.136 587.696 189.656 L 587.696 189.656 L 587.696 189.656 Q 590.626 188.175 594.217 188.175 L 594.217 188.175 L 594.217 188.175 Q 598.123 188.238 600.769 187.892 L 600.769 187.892 L 600.769 187.892 Q 603.415 187.545 605.147 186.947 L 605.147 186.947 L 605.147 186.947 Q 606.88 186.348 609.4 185.214 L 609.4 185.214 Z  M 594.217 192.333 L 594.217 192.333 Q 590.941 192.333 589.145 194.381 L 589.145 194.381 L 589.145 194.381 Q 587.35 196.428 587.35 199.767 L 587.35 199.767 L 587.35 199.767 Q 587.35 203.169 589.177 205.217 L 589.177 205.217 L 589.177 205.217 Q 591.004 207.264 594.343 207.264 L 594.343 207.264 L 594.343 207.264 Q 597.745 207.264 599.54 205.28 L 599.54 205.28 L 599.54 205.28 Q 601.336 203.295 601.336 199.704 L 601.336 199.704 L 601.336 199.704 Q 601.336 192.333 594.217 192.333 L 594.217 192.333 Z  M 165.565 177.969 L 165.565 177.969 Q 169.66 177.969 172.652 179.135 L 172.652 179.135 L 172.652 179.135 Q 175.645 180.3 178.606 182.757 L 178.606 182.757 L 175.078 186.411 L 175.078 186.411 Q 172.747 184.521 170.605 183.702 L 170.605 183.702 L 170.605 183.702 Q 168.463 182.883 165.565 182.883 L 165.565 182.883 L 165.565 182.883 Q 162.226 182.883 159.422 184.679 L 159.422 184.679 L 159.422 184.679 Q 156.619 186.474 154.855 190.412 L 154.855 190.412 L 154.855 190.412 Q 153.091 194.349 153.091 200.397 L 153.091 200.397 L 153.091 200.397 Q 153.091 209.532 156.083 213.753 L 156.083 213.753 L 156.083 213.753 Q 159.076 217.974 164.935 217.974 L 164.935 217.974 L 164.935 217.974 Q 169.723 217.974 173.188 216.021 L 173.188 216.021 L 173.188 202.917 L 165.502 202.917 L 164.809 198.066 L 179.11 198.066 L 179.11 219.045 L 179.11 219.045 Q 172.369 222.888 164.935 222.888 L 164.935 222.888 L 164.935 222.888 Q 156.367 222.888 151.547 217.155 L 151.547 217.155 L 151.547 217.155 Q 146.728 211.422 146.728 200.397 L 146.728 200.397 L 146.728 200.397 Q 146.728 193.341 149.279 188.27 L 149.279 188.27 L 149.279 188.27 Q 151.831 183.198 156.146 180.584 L 156.146 180.584 L 156.146 180.584 Q 160.462 177.969 165.565 177.969 L 165.565 177.969 Z  M 211.051 214.383 L 211.051 214.383 Q 211.051 216.399 211.744 217.376 L 211.744 217.376 L 211.744 217.376 Q 212.437 218.352 213.823 218.856 L 213.823 218.856 L 212.5 222.888 L 212.5 222.888 Q 209.917 222.573 208.342 221.439 L 208.342 221.439 L 208.342 221.439 Q 206.767 220.305 206.011 217.911 L 206.011 217.911 L 206.011 217.911 Q 202.672 222.888 196.12 222.888 L 196.12 222.888 L 196.12 222.888 Q 191.206 222.888 188.371 220.116 L 188.371 220.116 L 188.371 220.116 Q 185.536 217.344 185.536 212.871 L 185.536 212.871 L 185.536 212.871 Q 185.536 207.579 189.347 204.744 L 189.347 204.744 L 189.347 204.744 Q 193.159 201.909 200.152 201.909 L 200.152 201.909 L 205.255 201.909 L 205.255 199.452 L 205.255 199.452 Q 205.255 195.924 203.554 194.412 L 203.554 194.412 L 203.554 194.412 Q 201.853 192.9 198.325 192.9 L 198.325 192.9 L 198.325 192.9 Q 194.671 192.9 189.379 194.664 L 189.379 194.664 L 187.93 190.443 L 187.93 190.443 Q 194.104 188.175 199.396 188.175 L 199.396 188.175 L 199.396 188.175 Q 205.255 188.175 208.153 191.042 L 208.153 191.042 L 208.153 191.042 Q 211.051 193.908 211.051 199.2 L 211.051 199.2 L 211.051 214.383 Z  M 197.443 218.541 L 197.443 218.541 Q 202.42 218.541 205.255 213.375 L 205.255 213.375 L 205.255 205.752 L 200.908 205.752 L 200.908 205.752 Q 191.71 205.752 191.71 212.556 L 191.71 212.556 L 191.71 212.556 Q 191.71 215.517 193.159 217.029 L 193.159 217.029 L 193.159 217.029 Q 194.608 218.541 197.443 218.541 L 197.443 218.541 Z  M 256.096 188.175 L 256.096 188.175 Q 260.191 188.175 262.648 190.916 L 262.648 190.916 L 262.648 190.916 Q 265.105 193.656 265.105 198.318 L 265.105 198.318 L 265.105 222.132 L 259.309 222.132 L 259.309 199.137 L 259.309 199.137 Q 259.309 192.711 254.647 192.711 L 254.647 192.711 L 254.647 192.711 Q 252.19 192.711 250.489 194.129 L 250.489 194.129 L 250.489 194.129 Q 248.788 195.546 246.835 198.57 L 246.835 198.57 L 246.835 222.132 L 241.039 222.132 L 241.039 199.137 L 241.039 199.137 Q 241.039 192.711 236.377 192.711 L 236.377 192.711 L 236.377 192.711 Q 233.857 192.711 232.156 194.16 L 232.156 194.16 L 232.156 194.16 Q 230.455 195.609 228.565 198.57 L 228.565 198.57 L 228.565 222.132 L 222.769 222.132 L 222.769 188.931 L 227.746 188.931 L 228.25 193.782 L 228.25 193.782 Q 231.967 188.175 237.826 188.175 L 237.826 188.175 L 237.826 188.175 Q 240.913 188.175 243.086 189.75 L 243.086 189.75 L 243.086 189.75 Q 245.26 191.325 246.205 194.16 L 246.205 194.16 L 246.205 194.16 Q 248.158 191.262 250.52 189.719 L 250.52 189.719 L 250.52 189.719 Q 252.883 188.175 256.096 188.175 L 256.096 188.175 Z  M 301.582 204.555 L 301.582 204.555 Q 301.582 206.004 301.456 207.516 L 301.456 207.516 L 280.288 207.516 L 280.288 207.516 Q 280.666 212.997 283.06 215.58 L 283.06 215.58 L 283.06 215.58 Q 285.454 218.163 289.234 218.163 L 289.234 218.163 L 289.234 218.163 Q 291.628 218.163 293.644 217.47 L 293.644 217.47 L 293.644 217.47 Q 295.66 216.777 297.865 215.265 L 297.865 215.265 L 300.385 218.73 L 300.385 218.73 Q 295.093 222.888 288.793 222.888 L 288.793 222.888 L 288.793 222.888 Q 281.863 222.888 277.988 218.352 L 277.988 218.352 L 277.988 218.352 Q 274.114 213.816 274.114 205.878 L 274.114 205.878 L 274.114 205.878 Q 274.114 200.712 275.783 196.712 L 275.783 196.712 L 275.783 196.712 Q 277.453 192.711 280.571 190.443 L 280.571 190.443 L 280.571 190.443 Q 283.69 188.175 287.911 188.175 L 287.911 188.175 L 287.911 188.175 Q 294.526 188.175 298.054 192.522 L 298.054 192.522 L 298.054 192.522 Q 301.582 196.869 301.582 204.555 L 301.582 204.555 Z  M 295.849 203.232 L 295.849 202.854 L 295.849 202.854 Q 295.849 197.94 293.896 195.357 L 293.896 195.357 L 293.896 195.357 Q 291.943 192.774 288.037 192.774 L 288.037 192.774 L 288.037 192.774 Q 280.918 192.774 280.288 203.232 L 280.288 203.232 L 295.849 203.232 Z " fill="rgb(209,209,209)"/></g></svg>