<?xml version="1.0" encoding="UTF-8" standalone="no"?><!-- Generator: Gravit.io --><svg xmlns="http://www.w3.org/2000/svg" xmlns:xlink="http://www.w3.org/1999/xlink" style="isolation:isolate" viewBox="0 0 992 250" width="992pt" height="250pt"><defs><clipPath id="_clipPath_BkJGDJEcvSevf5MbU5PF07pq0BbqXqbg"><rect width="992" height="250"/></clipPath></defs><g clip-path="url(#_clipPath_BkJGDJEcvSevf5MbU5PF07pq0BbqXqbg)"><path d=" M 126.998 176.224 L 126.998 46.461 L 153.159 46.461 L 186.273 134.766 L 219.562 46.461 L 245.723 46.461 L 245.723 176.224 L 228.601 176.224 L 228.601 62.279 L 195.139 151.279 L 177.495 151.279 L 144.033 62.279 L 144.033 176.224 L 126.998 176.224 Z  M 317.601 90.092 L 317.601 90.092 L 317.601 90.092 Q 304.737 90.092 297.263 100.13 L 297.263 100.13 L 297.263 100.13 Q 289.788 110.169 289.788 127.639 L 289.788 127.639 L 289.788 127.639 Q 289.788 145.108 297.219 155.147 L 297.219 155.147 L 297.219 155.147 Q 304.65 165.186 317.601 165.186 L 317.601 165.186 L 317.601 165.186 Q 330.377 165.186 337.852 155.104 L 337.852 155.104 L 337.852 155.104 Q 345.326 145.021 345.326 127.639 L 345.326 127.639 L 345.326 127.639 Q 345.326 110.343 337.852 100.217 L 337.852 100.217 L 337.852 100.217 Q 330.377 90.092 317.601 90.092 Z  M 317.601 76.533 L 317.601 76.533 L 317.601 76.533 Q 338.46 76.533 350.367 90.092 L 350.367 90.092 L 350.367 90.092 Q 362.274 103.65 362.274 127.639 L 362.274 127.639 L 362.274 127.639 Q 362.274 151.54 350.367 165.142 L 350.367 165.142 L 350.367 165.142 Q 338.46 178.744 317.601 178.744 L 317.601 178.744 L 317.601 178.744 Q 296.654 178.744 284.791 165.142 L 284.791 165.142 L 284.791 165.142 Q 272.927 151.54 272.927 127.639 L 272.927 127.639 L 272.927 127.639 Q 272.927 103.65 284.791 90.092 L 284.791 90.092 L 284.791 90.092 Q 296.654 76.533 317.601 76.533 Z  M 413.814 176.224 L 377.311 78.88 L 394.259 78.88 L 424.679 160.579 L 455.099 78.88 L 472.047 78.88 L 435.543 176.224 L 413.814 176.224 Z  M 494.123 176.224 L 494.123 78.88 L 510.115 78.88 L 510.115 176.224 L 494.123 176.224 Z  M 494.123 61.236 L 494.123 40.985 L 510.115 40.985 L 510.115 61.236 L 494.123 61.236 Z  M 626.841 123.554 L 626.841 123.554 L 626.841 131.376 L 553.312 131.376 L 553.312 131.376 Q 554.355 147.89 563.263 156.538 L 563.263 156.538 L 563.263 156.538 Q 572.172 165.186 588.077 165.186 L 588.077 165.186 L 588.077 165.186 Q 597.29 165.186 605.938 162.926 L 605.938 162.926 L 605.938 162.926 Q 614.586 160.666 623.104 156.146 L 623.104 156.146 L 623.104 171.27 L 623.104 171.27 Q 614.499 174.92 605.46 176.832 L 605.46 176.832 L 605.46 176.832 Q 596.421 178.744 587.121 178.744 L 587.121 178.744 L 587.121 178.744 Q 563.828 178.744 550.226 165.186 L 550.226 165.186 L 550.226 165.186 Q 536.624 151.627 536.624 128.508 L 536.624 128.508 L 536.624 128.508 Q 536.624 104.606 549.531 90.57 L 549.531 90.57 L 549.531 90.57 Q 562.438 76.533 584.34 76.533 L 584.34 76.533 L 584.34 76.533 Q 603.982 76.533 615.412 89.179 L 615.412 89.179 L 615.412 89.179 Q 626.841 101.825 626.841 123.554 Z  M 553.833 118.947 L 610.849 118.86 L 610.849 118.86 Q 610.675 105.736 603.504 97.914 L 603.504 97.914 L 603.504 97.914 Q 596.334 90.092 584.514 90.092 L 584.514 90.092 L 584.514 90.092 Q 571.129 90.092 563.089 97.653 L 563.089 97.653 L 563.089 97.653 Q 555.05 105.215 553.833 118.947 L 553.833 118.947 Z  M 715.146 81.748 L 715.146 81.748 L 715.146 96.871 L 715.146 96.871 Q 708.366 93.395 701.065 91.656 L 701.065 91.656 L 701.065 91.656 Q 693.765 89.918 685.942 89.918 L 685.942 89.918 L 685.942 89.918 Q 674.035 89.918 668.082 93.568 L 668.082 93.568 L 668.082 93.568 Q 662.128 97.219 662.128 104.52 L 662.128 104.52 L 662.128 104.52 Q 662.128 110.082 666.387 113.254 L 666.387 113.254 L 666.387 113.254 Q 670.646 116.427 683.509 119.295 L 683.509 119.295 L 688.984 120.512 L 688.984 120.512 Q 706.02 124.162 713.19 130.811 L 713.19 130.811 L 713.19 130.811 Q 720.36 137.46 720.36 149.367 L 720.36 149.367 L 720.36 149.367 Q 720.36 162.926 709.627 170.835 L 709.627 170.835 L 709.627 170.835 Q 698.893 178.744 680.119 178.744 L 680.119 178.744 L 680.119 178.744 Q 672.297 178.744 663.823 177.223 L 663.823 177.223 L 663.823 177.223 Q 655.349 175.702 645.962 172.66 L 645.962 172.66 L 645.962 156.146 L 645.962 156.146 Q 654.827 160.753 663.432 163.056 L 663.432 163.056 L 663.432 163.056 Q 672.036 165.359 680.467 165.359 L 680.467 165.359 L 680.467 165.359 Q 691.766 165.359 697.85 161.492 L 697.85 161.492 L 697.85 161.492 Q 703.934 157.624 703.934 150.584 L 703.934 150.584 L 703.934 150.584 Q 703.934 144.065 699.544 140.589 L 699.544 140.589 L 699.544 140.589 Q 695.155 137.112 680.293 133.896 L 680.293 133.896 L 674.731 132.593 L 674.731 132.593 Q 659.868 129.464 653.263 122.989 L 653.263 122.989 L 653.263 122.989 Q 646.657 116.514 646.657 105.215 L 646.657 105.215 L 646.657 105.215 Q 646.657 91.482 656.392 84.008 L 656.392 84.008 L 656.392 84.008 Q 666.126 76.533 684.03 76.533 L 684.03 76.533 L 684.03 76.533 Q 692.896 76.533 700.718 77.837 L 700.718 77.837 L 700.718 77.837 Q 708.54 79.141 715.146 81.748 Z " fill="rgb(52,117,215)"/><path d=" M 827.646 168.852 C 827.081 168.491 826.367 168.456 825.77 168.761 L 812.059 175.419 L 812.059 172.877 C 812.059 170.335 810.637 168.156 808.518 167.036 C 814.481 163.344 818.476 156.746 818.476 149.24 C 818.476 137.709 809.093 128.327 797.562 128.327 C 788.906 128.327 781.491 133.593 778.313 141.099 C 775.04 133.366 767.462 128.337 759.065 128.327 C 747.534 128.327 738.151 137.709 738.151 149.24 C 738.148 156.579 741.997 163.381 748.29 167.157 C 746.293 168.307 744.961 170.426 744.961 172.877 L 744.961 180.655 L 739.483 180.655 C 738.664 180.655 738 181.319 738 182.138 L 738 194.063 C 738 194.88 738.666 195.546 739.483 195.546 L 744.931 195.546 L 744.931 203.324 C 744.931 206.956 747.897 209.922 751.529 209.922 L 805.401 209.922 C 809.033 209.922 811.999 206.956 811.999 203.324 L 811.999 200.782 L 825.709 207.44 C 825.981 207.561 826.284 207.652 826.556 207.652 C 827.631 207.636 828.494 206.76 828.493 205.685 L 828.493 170.516 C 828.554 169.851 828.191 169.215 827.646 168.852 Z  M 759.034 142.491 C 762.757 142.491 765.784 145.517 765.784 149.24 C 765.784 152.963 762.757 155.989 759.034 155.989 C 755.312 155.989 752.285 152.963 752.285 149.24 C 752.285 145.517 755.312 142.491 759.034 142.491 Z  M 797.562 142.491 C 801.285 142.491 804.311 145.517 804.311 149.24 C 804.311 152.963 801.285 155.989 797.562 155.989 C 793.84 155.989 790.813 152.963 790.813 149.24 C 790.813 145.517 793.84 142.491 797.562 142.491 Z  M 785.426 166.249 L 771.141 166.249 C 774.296 163.998 776.768 160.919 778.283 157.351 C 779.796 160.953 782.308 164.04 785.426 166.249 L 785.426 166.249 Z " fill="rgb(240,240,240)"/><path d=" M 879.963 132.962 L 843.358 154.097 L 806.752 175.231 C 802.614 177.62 799.255 175.68 799.255 170.902 L 799.255 128.634 L 799.255 86.366 C 799.255 81.588 802.614 79.648 806.752 82.037 L 843.358 103.171 L 879.963 124.305 C 884.101 126.694 884.101 130.573 879.963 132.962 Z " fill="rgb(52,117,215)"/></g></svg>