<?xml version="1.0" encoding="UTF-8" standalone="no"?><!-- Generator: Gravit.io --><svg xmlns="http://www.w3.org/2000/svg" xmlns:xlink="http://www.w3.org/1999/xlink" style="isolation:isolate" viewBox="0 0 992 250" width="992pt" height="250pt"><defs><clipPath id="_clipPath_A9cMjw7D0yXHVREujjHMVS9b20PIlmuM"><rect width="992" height="250"/></clipPath></defs><g clip-path="url(#_clipPath_A9cMjw7D0yXHVREujjHMVS9b20PIlmuM)"><path d=" M 192.316 72.707 Q 204.77 44.569 239.366 44.569 Q 273.961 44.569 291.259 84.7 Q 325.855 76.397 332.082 84.008 C 343.325 72.765 369.445 80.895 372.213 85.738 Q 377.575 45.031 406.808 45.031 C 422.03 45.031 433.188 45.031 452.813 45.031 C 472.437 45.031 515.438 57.754 515.438 102.344 C 519.052 98.731 531.967 81.587 570.099 81.587 Q 608.231 81.587 628.681 104.65 Q 647.901 83.585 694.951 83.585 Q 731.238 83.585 751.38 102.344 Q 776.289 70.516 809.962 89.774 C 818.726 81.01 844.557 78.242 856.089 89.774 C 866.886 78.978 905.907 75.475 926.203 95.771 C 946.499 116.067 938.657 193.1 929.893 201.864 C 921.129 210.628 883.766 211.089 871.773 199.096 C 860.702 210.167 829.335 210.628 816.42 197.712 C 803.35 210.782 772.137 212.012 753.686 193.561 C 729.7 217.547 655.896 211.089 634.678 189.871 C 611.921 212.627 541.039 217.547 516.13 192.638 C 487.416 221.353 366.677 225.235 362.987 167.422 C 341.461 217.24 300.6 214.434 280.535 194.368 C 254.934 219.969 230.255 203.443 214.688 187.875 C 197.063 205.875 181.937 205.823 164.294 188.179 C 148.38 204.093 106.519 210.474 100.984 190.486 C 95.866 172.004 89.913 63.328 113.899 52.719 Q 158.047 33.192 192.316 72.707 Z " fill="rgb(0,0,0)"/><path d=" M 225.816 171.433 L 225.816 120.916 L 201.715 170.276 L 201.715 170.276 Q 198.63 176.446 195.159 179.049 L 195.159 179.049 L 195.159 179.049 Q 191.689 181.652 186.868 181.652 L 186.868 181.652 L 186.868 181.652 Q 180.698 181.652 176.456 177.313 L 176.456 177.313 L 176.456 177.313 Q 172.214 172.975 165.466 161.599 L 165.466 161.599 L 143.1 120.916 L 143.1 175.482 L 143.1 175.482 Q 143.1 183.773 139.34 187.629 L 139.34 187.629 L 139.34 187.629 Q 135.58 191.485 128.06 191.485 L 128.06 191.485 L 128.06 191.485 Q 119.577 191.485 115.72 187.725 L 115.72 187.725 L 115.72 187.725 Q 111.864 183.965 111.864 172.975 L 111.864 172.975 L 111.864 88.909 L 111.864 88.909 Q 111.864 74.062 118.613 66.543 L 118.613 66.543 L 118.613 66.543 Q 125.361 59.023 141.364 59.023 L 141.364 59.023 L 141.364 59.023 Q 147.342 59.023 151.776 61.047 L 151.776 61.047 L 151.776 61.047 Q 156.211 63.072 158.428 65.675 L 158.428 65.675 L 158.428 65.675 Q 160.646 68.278 162.767 72.134 L 162.767 72.134 L 188.604 128.628 L 215.983 73.098 L 215.983 73.098 Q 223.117 59.216 241.627 59.216 L 241.627 59.216 L 241.627 59.216 Q 250.304 59.216 256.474 62.204 L 256.474 62.204 L 256.474 62.204 Q 262.644 65.193 266.211 71.845 L 266.211 71.845 L 266.211 71.845 Q 269.778 78.497 269.778 88.523 L 269.778 88.523 L 269.778 172.397 L 269.778 172.397 Q 269.585 191.485 245.676 191.485 L 245.676 191.485 L 245.676 191.485 Q 237 191.485 231.504 186.761 L 231.504 186.761 L 231.504 186.761 Q 226.009 182.037 225.816 171.433 L 225.816 171.433 Z  M 332.442 132.099 L 332.442 170.854 L 332.442 170.854 Q 332.442 182.423 327.621 186.954 L 327.621 186.954 L 327.621 186.954 Q 322.801 191.485 310.461 191.485 L 310.461 191.485 L 310.461 191.485 Q 299.085 191.485 295.036 186.183 L 295.036 186.183 L 295.036 186.183 Q 290.987 180.88 290.987 168.733 L 290.987 168.733 L 290.987 121.301 L 290.987 121.301 Q 290.987 114.746 293.301 109.829 L 293.301 109.829 L 293.301 109.829 Q 295.615 104.912 300.049 102.213 L 300.049 102.213 L 300.049 102.213 Q 304.484 99.514 310.461 99.514 L 310.461 99.514 L 310.461 99.514 Q 325.115 99.514 329.742 107.997 L 329.742 107.997 L 329.742 107.997 Q 340.925 99.514 351.337 99.514 L 351.337 99.514 L 351.337 99.514 Q 371.583 99.514 371.583 118.795 L 371.583 118.795 L 371.583 118.795 Q 371.583 126.507 367.148 131.328 L 367.148 131.328 L 367.148 131.328 Q 362.713 136.148 355.579 136.148 L 355.579 136.148 L 355.579 136.148 Q 351.337 136.148 348.734 134.413 L 348.734 134.413 L 348.734 134.413 Q 346.131 132.677 343.914 130.942 L 343.914 130.942 L 343.914 130.942 Q 341.697 129.207 338.805 129.207 L 338.805 129.207 L 338.805 129.207 Q 334.563 129.207 332.442 132.099 L 332.442 132.099 Z  M 458.927 96.621 L 458.927 96.621 L 458.927 96.621 Q 458.927 88.523 452.66 85.535 L 452.66 85.535 L 452.66 85.535 Q 446.394 82.546 431.74 82.546 L 431.74 82.546 L 431.74 112.046 L 431.74 112.046 Q 440.802 112.046 446.49 110.697 L 446.49 110.697 L 446.49 110.697 Q 452.178 109.347 455.553 105.973 L 455.553 105.973 L 455.553 105.973 Q 458.927 102.599 458.927 96.621 Z  M 461.433 148.102 L 461.433 148.102 L 461.433 148.102 Q 461.433 141.74 458.155 138.269 L 458.155 138.269 L 458.155 138.269 Q 454.878 134.798 448.708 133.352 L 448.708 133.352 L 448.708 133.352 Q 442.538 131.906 431.74 131.906 L 431.74 131.906 L 431.74 165.263 L 431.74 165.263 Q 446.78 165.263 454.106 161.503 L 454.106 161.503 L 454.106 161.503 Q 461.433 157.743 461.433 148.102 Z  M 485.149 122.844 L 485.149 122.844 L 485.149 122.844 Q 503.081 133.449 503.081 151.187 L 503.081 151.187 L 503.081 151.187 Q 503.081 158.9 500.092 165.938 L 500.092 165.938 L 500.092 165.938 Q 497.104 172.975 491.223 178.76 L 491.223 178.76 L 491.223 178.76 Q 485.342 184.544 475.701 187.918 L 475.701 187.918 L 475.701 187.918 Q 466.061 191.292 453.914 191.292 L 453.914 191.292 L 409.181 191.292 L 409.181 191.292 Q 397.42 191.292 392.31 185.315 L 392.31 185.315 L 392.31 185.315 Q 387.2 179.338 387.2 163.913 L 387.2 163.913 L 387.2 82.353 L 387.2 82.353 Q 387.2 75.798 389.514 70.785 L 389.514 70.785 L 389.514 70.785 Q 391.828 65.771 396.938 62.686 L 396.938 62.686 L 396.938 62.686 Q 402.047 59.601 409.181 59.601 L 409.181 59.601 L 453.335 59.601 L 453.335 59.601 Q 472.616 59.794 485.438 70.11 L 485.438 70.11 L 485.438 70.11 Q 498.261 80.425 498.261 96.621 L 498.261 96.621 L 498.261 96.621 Q 498.261 101.827 497.393 105.78 L 497.393 105.78 L 497.393 105.78 Q 496.525 109.733 494.79 112.818 L 494.79 112.818 L 494.79 112.818 Q 493.055 115.903 490.741 118.216 L 490.741 118.216 L 490.741 118.216 Q 488.427 120.53 485.149 122.844 Z  M 583.676 145.789 L 583.676 145.789 L 583.676 145.789 Q 583.676 135.762 581.17 128.146 L 581.17 128.146 L 581.17 128.146 Q 578.663 120.53 573.843 120.53 L 573.843 120.53 L 573.843 120.53 Q 570.565 120.53 568.059 124.386 L 568.059 124.386 L 568.059 124.386 Q 565.552 128.243 564.395 133.834 L 564.395 133.834 L 564.395 133.834 Q 563.238 139.426 563.238 145.789 L 563.238 145.789 L 563.238 145.789 Q 563.238 155.622 565.938 163.045 L 565.938 163.045 L 565.938 163.045 Q 568.637 170.469 573.65 170.469 L 573.65 170.469 L 573.65 170.469 Q 578.663 170.469 581.17 163.142 L 581.17 163.142 L 581.17 163.142 Q 583.676 155.815 583.676 145.789 Z  M 573.65 192.835 L 573.65 192.835 L 573.65 192.835 Q 558.611 192.835 546.56 187.436 L 546.56 187.436 L 546.56 187.436 Q 534.509 182.037 527.279 171.24 L 527.279 171.24 L 527.279 171.24 Q 520.048 160.442 520.048 145.981 L 520.048 145.981 L 520.048 145.981 Q 520.048 124.001 535.088 111.082 L 535.088 111.082 L 535.088 111.082 Q 550.127 98.164 573.65 98.164 L 573.65 98.164 L 573.65 98.164 Q 597.173 98.164 612.02 111.082 L 612.02 111.082 L 612.02 111.082 Q 626.867 124.001 626.867 145.981 L 626.867 145.981 L 626.867 145.981 Q 626.867 167.769 611.731 180.302 L 611.731 180.302 L 611.731 180.302 Q 596.595 192.835 573.65 192.835 Z  M 705.341 145.789 L 705.341 145.789 L 705.341 145.789 Q 705.341 135.762 702.835 128.146 L 702.835 128.146 L 702.835 128.146 Q 700.328 120.53 695.508 120.53 L 695.508 120.53 L 695.508 120.53 Q 692.23 120.53 689.723 124.386 L 689.723 124.386 L 689.723 124.386 Q 687.217 128.243 686.06 133.834 L 686.06 133.834 L 686.06 133.834 Q 684.903 139.426 684.903 145.789 L 684.903 145.789 L 684.903 145.789 Q 684.903 155.622 687.602 163.045 L 687.602 163.045 L 687.602 163.045 Q 690.302 170.469 695.315 170.469 L 695.315 170.469 L 695.315 170.469 Q 700.328 170.469 702.835 163.142 L 702.835 163.142 L 702.835 163.142 Q 705.341 155.815 705.341 145.789 Z  M 695.315 192.835 L 695.315 192.835 L 695.315 192.835 Q 680.276 192.835 668.225 187.436 L 668.225 187.436 L 668.225 187.436 Q 656.174 182.037 648.944 171.24 L 648.944 171.24 L 648.944 171.24 Q 641.713 160.442 641.713 145.981 L 641.713 145.981 L 641.713 145.981 Q 641.713 124.001 656.752 111.082 L 656.752 111.082 L 656.752 111.082 Q 671.792 98.164 695.315 98.164 L 695.315 98.164 L 695.315 98.164 Q 718.838 98.164 733.685 111.082 L 733.685 111.082 L 733.685 111.082 Q 748.531 124.001 748.531 145.981 L 748.531 145.981 L 748.531 145.981 Q 748.531 167.769 733.395 180.302 L 733.395 180.302 L 733.395 180.302 Q 718.26 192.835 695.315 192.835 Z  M 879.065 175.482 L 879.065 140.583 L 879.065 140.583 Q 879.065 129.785 870.389 129.785 L 870.389 129.785 L 870.389 129.785 Q 866.532 129.785 864.604 134.22 L 864.604 134.22 L 864.604 134.22 Q 862.676 138.655 862.676 145.403 L 862.676 145.403 L 862.676 145.403 Q 862.676 155.622 862.387 162.37 L 862.387 162.37 L 862.387 162.37 Q 862.098 169.119 861.134 174.518 L 861.134 174.518 L 861.134 174.518 Q 860.17 179.916 858.82 183.001 L 858.82 183.001 L 858.82 183.001 Q 857.47 186.086 855.157 188.111 L 855.157 188.111 L 855.157 188.111 Q 852.843 190.135 849.951 190.81 L 849.951 190.81 L 849.951 190.81 Q 847.058 191.485 842.624 191.485 L 842.624 191.485 L 842.624 191.485 Q 835.875 191.485 831.73 189.557 L 831.73 189.557 L 831.73 189.557 Q 827.584 187.629 825.849 184.158 L 825.849 184.158 L 825.849 184.158 Q 824.114 180.688 824.114 175.482 L 824.114 175.482 L 824.114 140.583 L 824.114 140.583 Q 824.114 129.785 815.437 129.785 L 815.437 129.785 L 815.437 129.785 Q 811.967 129.785 809.749 133.738 L 809.749 133.738 L 809.749 133.738 Q 807.532 137.69 807.532 144.053 L 807.532 144.053 L 807.532 170.854 L 807.532 170.854 Q 807.532 182.423 802.712 186.954 L 802.712 186.954 L 802.712 186.954 Q 797.891 191.485 785.744 191.485 L 785.744 191.485 L 785.744 191.485 Q 774.368 191.485 770.223 186.183 L 770.223 186.183 L 770.223 186.183 Q 766.077 180.88 766.077 168.733 L 766.077 168.733 L 766.077 121.301 L 766.077 121.301 Q 766.077 111.468 771.38 105.491 L 771.38 105.491 L 771.38 105.491 Q 776.682 99.514 785.551 99.514 L 785.551 99.514 L 785.551 99.514 Q 801.362 99.514 805.604 109.733 L 805.604 109.733 L 805.604 109.733 Q 812.931 104.334 819.968 102.213 L 819.968 102.213 L 819.968 102.213 Q 827.006 100.092 836.454 100.092 L 836.454 100.092 L 836.454 100.092 Q 850.722 100.092 857.085 112.432 L 857.085 112.432 L 857.085 112.432 Q 858.049 111.661 859.013 110.89 L 859.013 110.89 L 859.013 110.89 Q 873.859 100.092 895.454 100.092 L 895.454 100.092 L 895.454 100.092 Q 909.144 100.092 915.121 110.504 L 915.121 110.504 L 915.121 110.504 Q 921.098 120.916 921.098 145.403 L 921.098 145.403 L 921.098 145.403 Q 921.098 155.622 920.809 162.37 L 920.809 162.37 L 920.809 162.37 Q 920.52 169.119 919.556 174.518 L 919.556 174.518 L 919.556 174.518 Q 918.592 179.916 917.146 183.001 L 917.146 183.001 L 917.146 183.001 Q 915.7 186.086 913.097 188.111 L 913.097 188.111 L 913.097 188.111 Q 910.494 190.135 907.312 190.81 L 907.312 190.81 L 907.312 190.81 Q 904.131 191.485 899.311 191.485 L 899.311 191.485 L 899.311 191.485 Q 891.984 191.485 887.453 189.557 L 887.453 189.557 L 887.453 189.557 Q 882.922 187.629 880.993 184.158 L 880.993 184.158 L 880.993 184.158 Q 879.065 180.688 879.065 175.482 L 879.065 175.482 Z " fill="rgb(255,255,255)"/></g></svg>