<?xml version="1.0" encoding="UTF-8" standalone="no"?><!-- Generator: Gravit.io --><svg xmlns="http://www.w3.org/2000/svg" xmlns:xlink="http://www.w3.org/1999/xlink" style="isolation:isolate" viewBox="0 0 992 250" width="992pt" height="250pt"><defs><clipPath id="_clipPath_hf7IvKjX9aDxY99HMnqc528TdrysZASC"><rect width="992" height="250"/></clipPath></defs><g clip-path="url(#_clipPath_hf7IvKjX9aDxY99HMnqc528TdrysZASC)"><path d=" M 211.082 10 L 780.918 10 L 780.918 240 L 211.082 240 L 211.082 10 Z " fill="rgb(0,0,0)"/><path d=" M 260.83 207.946 L 260.83 29.326 L 319.453 29.326 L 360.131 124.917 L 401.047 29.326 L 459.55 29.326 L 459.55 207.946 L 416.002 207.946 L 416.002 77.301 L 374.846 173.61 L 345.654 173.61 L 304.499 77.301 L 304.499 207.946 L 260.83 207.946 Z  M 582.959 34.949 L 582.959 34.949 L 582.959 72.754 L 582.959 72.754 Q 568.244 66.174 554.246 62.824 L 554.246 62.824 L 554.246 62.824 Q 540.248 59.475 527.806 59.475 L 527.806 59.475 L 527.806 59.475 Q 511.295 59.475 503.399 64.021 L 503.399 64.021 L 503.399 64.021 Q 495.503 68.567 495.503 78.138 L 495.503 78.138 L 495.503 78.138 Q 495.503 85.317 500.827 89.324 L 500.827 89.324 L 500.827 89.324 Q 506.151 93.332 520.149 96.204 L 520.149 96.204 L 539.769 100.152 L 539.769 100.152 Q 569.56 106.134 582.122 118.337 L 582.122 118.337 L 582.122 118.337 Q 594.684 130.54 594.684 153.032 L 594.684 153.032 L 594.684 153.032 Q 594.684 182.583 577.157 196.999 L 577.157 196.999 L 577.157 196.999 Q 559.63 211.416 523.618 211.416 L 523.618 211.416 L 523.618 211.416 Q 506.63 211.416 489.521 208.186 L 489.521 208.186 L 489.521 208.186 Q 472.413 204.955 455.304 198.615 L 455.304 198.615 L 455.304 159.732 L 455.304 159.732 Q 472.413 168.824 488.385 173.431 L 488.385 173.431 L 488.385 173.431 Q 504.356 178.037 519.192 178.037 L 519.192 178.037 L 519.192 178.037 Q 534.266 178.037 542.282 173.012 L 542.282 173.012 L 542.282 173.012 Q 550.298 167.987 550.298 158.655 L 550.298 158.655 L 550.298 158.655 Q 550.298 150.28 544.854 145.734 L 544.854 145.734 L 544.854 145.734 Q 539.411 141.188 523.14 137.599 L 523.14 137.599 L 505.313 133.651 L 505.313 133.651 Q 478.514 127.908 466.132 115.346 L 466.132 115.346 L 466.132 115.346 Q 453.749 102.784 453.749 81.488 L 453.749 81.488 L 453.749 81.488 Q 453.749 54.809 470.977 40.452 L 470.977 40.452 L 470.977 40.452 Q 488.205 26.095 520.508 26.095 L 520.508 26.095 L 520.508 26.095 Q 535.223 26.095 550.776 28.309 L 550.776 28.309 L 550.776 28.309 Q 566.329 30.522 582.959 34.949 Z  M 748.241 29.326 L 688.661 116.782 L 750.634 207.946 L 702.659 207.946 L 660.905 146.931 L 619.51 207.946 L 571.295 207.946 L 633.268 116.782 L 573.688 29.326 L 621.783 29.326 L 660.905 86.872 L 699.907 29.326 L 748.241 29.326 Z " fill="rgb(255,255,255)"/></g></svg>