<?xml version="1.0" encoding="UTF-8" standalone="no"?><!-- Generator: Gravit.io --><svg xmlns="http://www.w3.org/2000/svg" xmlns:xlink="http://www.w3.org/1999/xlink" style="isolation:isolate" viewBox="0 0 992 250" width="992pt" height="250pt"><defs><clipPath id="_clipPath_Zhcsd9orx3Rrb1VjCxUqk0ZkovCdVgOj"><rect width="992" height="250"/></clipPath></defs><g clip-path="url(#_clipPath_Zhcsd9orx3Rrb1VjCxUqk0ZkovCdVgOj)"><path d=" M 148.932 9 L 721.246 9 L 721.246 240 L 148.932 240 L 148.932 9 Z " fill="rgb(0,0,0)"/><path d=" M 198.897 207.807 L 198.897 28.41 L 257.775 28.41 L 298.629 124.417 L 339.723 28.41 L 398.481 28.41 L 398.481 207.807 L 354.743 207.807 L 354.743 76.593 L 313.408 173.321 L 284.09 173.321 L 242.755 76.593 L 242.755 207.807 L 198.897 207.807 Z  M 522.426 34.057 L 522.426 34.057 L 522.426 72.027 L 522.426 72.027 Q 507.647 65.419 493.588 62.054 L 493.588 62.054 L 493.588 62.054 Q 479.529 58.69 467.033 58.69 L 467.033 58.69 L 467.033 58.69 Q 450.451 58.69 442.52 63.256 L 442.52 63.256 L 442.52 63.256 Q 434.59 67.822 434.59 77.434 L 434.59 77.434 L 434.59 77.434 Q 434.59 84.644 439.937 88.669 L 439.937 88.669 L 439.937 88.669 Q 445.284 92.695 459.343 95.579 L 459.343 95.579 L 479.049 99.544 L 479.049 99.544 Q 508.968 105.552 521.585 117.808 L 521.585 117.808 L 521.585 117.808 Q 534.202 130.064 534.202 152.654 L 534.202 152.654 L 534.202 152.654 Q 534.202 182.333 516.598 196.812 L 516.598 196.812 L 516.598 196.812 Q 498.995 211.292 462.827 211.292 L 462.827 211.292 L 462.827 211.292 Q 445.765 211.292 428.582 208.047 L 428.582 208.047 L 428.582 208.047 Q 411.399 204.803 394.216 198.435 L 394.216 198.435 L 394.216 159.383 L 394.216 159.383 Q 411.399 168.515 427.44 173.141 L 427.44 173.141 L 427.44 173.141 Q 443.482 177.767 458.381 177.767 L 458.381 177.767 L 458.381 177.767 Q 473.521 177.767 481.572 172.721 L 481.572 172.721 L 481.572 172.721 Q 489.623 167.674 489.623 158.302 L 489.623 158.302 L 489.623 158.302 Q 489.623 149.89 484.155 145.324 L 484.155 145.324 L 484.155 145.324 Q 478.688 140.758 462.347 137.154 L 462.347 137.154 L 444.443 133.188 L 444.443 133.188 Q 417.527 127.421 405.091 114.804 L 405.091 114.804 L 405.091 114.804 Q 392.654 102.187 392.654 80.799 L 392.654 80.799 L 392.654 80.799 Q 392.654 54.003 409.957 39.584 L 409.957 39.584 L 409.957 39.584 Q 427.26 25.165 459.703 25.165 L 459.703 25.165 L 459.703 25.165 Q 474.483 25.165 490.103 27.388 L 490.103 27.388 L 490.103 27.388 Q 505.724 29.611 522.426 34.057 Z  M 688.427 28.41 L 628.588 116.246 L 690.83 207.807 L 642.646 207.807 L 600.711 146.526 L 559.136 207.807 L 510.712 207.807 L 572.954 116.246 L 513.115 28.41 L 561.419 28.41 L 600.711 86.206 L 639.883 28.41 L 688.427 28.41 Z " fill="rgb(255,255,255)"/><path d=" M 806.225 179.054 L 774.649 208.394 L 839.68 208.394 L 839.68 238.049 L 732.285 238.049 L 732.285 208.394 L 786.23 157.991 L 786.23 157.991 Q 793.456 151.075 796.92 144.474 L 796.92 144.474 L 796.92 144.474 Q 800.385 137.872 800.385 130.746 L 800.385 130.746 L 800.385 130.746 Q 800.385 119.744 793.406 113.037 L 793.406 113.037 L 793.406 113.037 Q 786.428 106.331 774.847 106.331 L 774.847 106.331 L 774.847 106.331 Q 765.939 106.331 755.348 110.365 L 755.348 110.365 L 755.348 110.365 Q 744.757 114.399 732.681 122.363 L 732.681 122.363 L 732.681 87.993 L 732.681 87.993 Q 745.549 83.487 758.119 81.129 L 758.119 81.129 L 758.119 81.129 Q 770.69 78.771 782.766 78.771 L 782.766 78.771 L 782.766 78.771 Q 809.293 78.771 823.992 91.136 L 823.992 91.136 L 823.992 91.136 Q 838.69 103.501 838.69 125.612 L 838.69 125.612 L 838.69 125.612 Q 838.69 138.396 832.455 149.451 L 832.455 149.451 L 832.455 149.451 Q 826.219 160.506 806.225 179.054 L 806.225 179.054 Z " fill="rgb(234,234,234)"/></g></svg>