<?xml version="1.0" encoding="UTF-8" standalone="no"?><!-- Generator: Gravit.io --><svg xmlns="http://www.w3.org/2000/svg" xmlns:xlink="http://www.w3.org/1999/xlink" style="isolation:isolate" viewBox="0 0 992 250" width="992pt" height="250pt"><defs><clipPath id="_clipPath_eiBMU3nSpDJ4EbPKSVWxD5b5IXbB1GCj"><rect width="992" height="250"/></clipPath></defs><g clip-path="url(#_clipPath_eiBMU3nSpDJ4EbPKSVWxD5b5IXbB1GCj)"><path d=" M 178.924 8.443 L 821.613 8.443 L 821.613 240 L 178.924 240 L 178.924 8.443 Z " fill="rgb(0,0,0)"/><path d=" M 573.044 16.477 L 811.216 16.477 L 811.216 228.186 L 573.044 228.186 L 573.044 16.477 Z " fill="rgb(255,255,255)"/><path d=" M 216.729 143.033 L 216.729 41.005 L 252.136 41.005 L 276.703 95.606 L 301.416 41.005 L 336.75 41.005 L 336.75 143.033 L 310.448 143.033 L 310.448 68.408 L 285.591 123.42 L 267.96 123.42 L 243.103 68.408 L 243.103 143.033 L 216.729 143.033 Z  M 411.285 44.217 L 411.285 44.217 L 411.285 65.811 L 411.285 65.811 Q 402.397 62.053 393.943 60.139 L 393.943 60.139 L 393.943 60.139 Q 385.489 58.226 377.974 58.226 L 377.974 58.226 L 377.974 58.226 Q 368.002 58.226 363.233 60.823 L 363.233 60.823 L 363.233 60.823 Q 358.464 63.419 358.464 68.886 L 358.464 68.886 L 358.464 68.886 Q 358.464 72.987 361.68 75.276 L 361.68 75.276 L 361.68 75.276 Q 364.895 77.565 373.349 79.205 L 373.349 79.205 L 385.2 81.461 L 385.2 81.461 Q 403.192 84.877 410.779 91.848 L 410.779 91.848 L 410.779 91.848 Q 418.366 98.818 418.366 111.666 L 418.366 111.666 L 418.366 111.666 Q 418.366 128.545 407.78 136.78 L 407.78 136.78 L 407.78 136.78 Q 397.194 145.014 375.445 145.014 L 375.445 145.014 L 375.445 145.014 Q 365.184 145.014 354.851 143.169 L 354.851 143.169 L 354.851 143.169 Q 344.518 141.324 334.185 137.702 L 334.185 137.702 L 334.185 115.493 L 334.185 115.493 Q 344.518 120.686 354.165 123.317 L 354.165 123.317 L 354.165 123.317 Q 363.811 125.948 372.771 125.948 L 372.771 125.948 L 372.771 125.948 Q 381.876 125.948 386.717 123.078 L 386.717 123.078 L 386.717 123.078 Q 391.558 120.208 391.558 114.878 L 391.558 114.878 L 391.558 114.878 Q 391.558 110.094 388.271 107.497 L 388.271 107.497 L 388.271 107.497 Q 384.983 104.9 375.156 102.85 L 375.156 102.85 L 364.389 100.595 L 364.389 100.595 Q 348.203 97.315 340.725 90.139 L 340.725 90.139 L 340.725 90.139 Q 333.246 82.964 333.246 70.8 L 333.246 70.8 L 333.246 70.8 Q 333.246 55.561 343.651 47.36 L 343.651 47.36 L 343.651 47.36 Q 354.056 39.16 373.566 39.16 L 373.566 39.16 L 373.566 39.16 Q 382.454 39.16 391.847 40.424 L 391.847 40.424 L 391.847 40.424 Q 401.241 41.688 411.285 44.217 Z  M 511.11 41.005 L 475.125 90.959 L 512.555 143.033 L 483.58 143.033 L 458.362 108.18 L 433.36 143.033 L 404.24 143.033 L 441.67 90.959 L 405.685 41.005 L 434.733 41.005 L 458.362 73.875 L 481.918 41.005 L 511.11 41.005 Z " fill="rgb(255,255,255)"/><path d=" M 223.685 195.639 L 223.685 158.359 L 238.153 156.335 L 238.153 169.408 L 255.533 169.408 L 255.533 179.867 L 238.153 179.867 L 238.153 195.471 L 238.153 195.471 Q 238.153 199.435 239.755 201.796 L 239.755 201.796 L 239.755 201.796 Q 241.357 204.158 246.212 204.158 L 246.212 204.158 L 246.212 204.158 Q 248.542 204.158 251.018 203.778 L 251.018 203.778 L 251.018 203.778 Q 253.494 203.399 255.533 202.724 L 255.533 202.724 L 257.572 212.508 L 257.572 212.508 Q 254.951 213.436 251.747 214.111 L 251.747 214.111 L 251.747 214.111 Q 248.542 214.785 243.882 214.785 L 243.882 214.785 L 243.882 214.785 Q 237.959 214.785 234.075 213.394 L 234.075 213.394 L 234.075 213.394 Q 230.191 212.002 227.861 209.514 L 227.861 209.514 L 227.861 209.514 Q 225.53 207.026 224.608 203.483 L 224.608 203.483 L 224.608 203.483 Q 223.685 199.941 223.685 195.639 L 223.685 195.639 Z  M 321.051 169.408 L 321.051 212.255 L 321.051 212.255 Q 317.361 213.183 311.536 213.984 L 311.536 213.984 L 311.536 213.984 Q 305.71 214.785 299.301 214.785 L 299.301 214.785 L 299.301 214.785 Q 292.796 214.785 288.475 213.267 L 288.475 213.267 L 288.475 213.267 Q 284.154 211.749 281.629 209.008 L 281.629 209.008 L 281.629 209.008 Q 279.105 206.267 278.037 202.471 L 278.037 202.471 L 278.037 202.471 Q 276.969 198.676 276.969 194.121 L 276.969 194.121 L 276.969 169.408 L 291.436 169.408 L 291.436 192.603 L 291.436 192.603 Q 291.436 198.676 293.281 201.375 L 293.281 201.375 L 293.281 201.375 Q 295.126 204.074 300.175 204.074 L 300.175 204.074 L 300.175 204.074 Q 301.729 204.074 303.476 203.947 L 303.476 203.947 L 303.476 203.947 Q 305.224 203.821 306.584 203.652 L 306.584 203.652 L 306.584 169.408 L 321.051 169.408 Z  M 378.024 170.167 L 375.597 180.542 L 375.597 180.542 Q 373.655 180.12 371.033 179.656 L 371.033 179.656 L 371.033 179.656 Q 368.412 179.192 365.402 179.192 L 365.402 179.192 L 365.402 179.192 Q 364.042 179.192 362.149 179.403 L 362.149 179.403 L 362.149 179.403 Q 360.255 179.614 359.284 179.867 L 359.284 179.867 L 359.284 213.773 L 344.817 213.773 L 344.817 171.77 L 344.817 171.77 Q 348.701 170.589 353.993 169.535 L 353.993 169.535 L 353.993 169.535 Q 359.284 168.481 365.79 168.481 L 365.79 168.481 L 365.79 168.481 Q 366.955 168.481 368.606 168.607 L 368.606 168.607 L 368.606 168.607 Q 370.256 168.734 371.907 168.944 L 371.907 168.944 L 371.907 168.944 Q 373.558 169.155 375.208 169.45 L 375.208 169.45 L 375.208 169.45 Q 376.859 169.746 378.024 170.167 L 378.024 170.167 Z  M 428.686 191.253 L 428.686 191.253 L 428.686 191.253 Q 428.686 179.108 418.394 179.108 L 418.394 179.108 L 418.394 179.108 Q 416.16 179.108 413.976 179.614 L 413.976 179.614 L 413.976 179.614 Q 411.791 180.12 410.432 180.879 L 410.432 180.879 L 410.432 203.736 L 410.432 203.736 Q 411.5 203.905 413.15 204.031 L 413.15 204.031 L 413.15 204.031 Q 414.801 204.158 416.743 204.158 L 416.743 204.158 L 416.743 204.158 Q 422.666 204.158 425.676 200.616 L 425.676 200.616 L 425.676 200.616 Q 428.686 197.073 428.686 191.253 Z  M 443.445 191.591 L 443.445 191.591 L 443.445 191.591 Q 443.445 196.904 441.649 201.206 L 441.649 201.206 L 441.649 201.206 Q 439.852 205.508 436.454 208.544 L 436.454 208.544 L 436.454 208.544 Q 433.055 211.58 428.103 213.225 L 428.103 213.225 L 428.103 213.225 Q 423.151 214.87 416.84 214.87 L 416.84 214.87 L 416.84 214.87 Q 414.218 214.87 411.354 214.659 L 411.354 214.659 L 411.354 214.659 Q 408.49 214.448 405.722 214.111 L 405.722 214.111 L 405.722 214.111 Q 402.955 213.773 400.431 213.309 L 400.431 213.309 L 400.431 213.309 Q 397.906 212.845 395.964 212.339 L 395.964 212.339 L 395.964 150.347 L 410.432 148.322 L 410.432 170.42 L 410.432 170.42 Q 412.859 169.493 415.481 168.987 L 415.481 168.987 L 415.481 168.987 Q 418.102 168.481 421.112 168.481 L 421.112 168.481 L 421.112 168.481 Q 426.55 168.481 430.725 170.125 L 430.725 170.125 L 430.725 170.125 Q 434.9 171.77 437.716 174.806 L 437.716 174.806 L 437.716 174.806 Q 440.532 177.843 441.988 182.102 L 441.988 182.102 L 441.988 182.102 Q 443.445 186.361 443.445 191.591 Z  M 512.555 191.506 L 512.555 191.506 L 512.555 191.506 Q 512.555 196.736 510.807 201.079 L 510.807 201.079 L 510.807 201.079 Q 509.06 205.423 505.758 208.502 L 505.758 208.502 L 505.758 208.502 Q 502.457 211.58 497.845 213.267 L 497.845 213.267 L 497.845 213.267 Q 493.233 214.954 487.504 214.954 L 487.504 214.954 L 487.504 214.954 Q 481.872 214.954 477.26 213.267 L 477.26 213.267 L 477.26 213.267 Q 472.648 211.58 469.347 208.502 L 469.347 208.502 L 469.347 208.502 Q 466.045 205.423 464.201 201.079 L 464.201 201.079 L 464.201 201.079 Q 462.356 196.736 462.356 191.506 L 462.356 191.506 L 462.356 191.506 Q 462.356 186.277 464.249 181.976 L 464.249 181.976 L 464.249 181.976 Q 466.143 177.674 469.492 174.638 L 469.492 174.638 L 469.492 174.638 Q 472.842 171.601 477.454 169.914 L 477.454 169.914 L 477.454 169.914 Q 482.067 168.227 487.504 168.227 L 487.504 168.227 L 487.504 168.227 Q 493.039 168.227 497.651 169.914 L 497.651 169.914 L 497.651 169.914 Q 502.263 171.601 505.564 174.638 L 505.564 174.638 L 505.564 174.638 Q 508.865 177.674 510.71 181.976 L 510.71 181.976 L 510.71 181.976 Q 512.555 186.277 512.555 191.506 Z  M 497.796 191.506 L 497.796 191.506 L 497.796 191.506 Q 497.796 185.687 495.126 182.355 L 495.126 182.355 L 495.126 182.355 Q 492.456 179.024 487.504 179.024 L 487.504 179.024 L 487.504 179.024 Q 482.552 179.024 479.833 182.355 L 479.833 182.355 L 479.833 182.355 Q 477.115 185.687 477.115 191.506 L 477.115 191.506 L 477.115 191.506 Q 477.115 197.326 479.833 200.742 L 479.833 200.742 L 479.833 200.742 Q 482.552 204.158 487.504 204.158 L 487.504 204.158 L 487.504 204.158 Q 492.456 204.158 495.126 200.742 L 495.126 200.742 L 495.126 200.742 Q 497.796 197.326 497.796 191.506 Z " fill="rgb(255,255,255)"/><path d=" M 674.899 35.873 L 674.899 35.873 L 674.899 35.873 Q 713.529 35.873 734.082 49.616 L 734.082 49.616 L 734.082 49.616 Q 754.634 63.359 754.634 92.331 L 754.634 92.331 L 754.634 92.331 Q 754.634 110.407 746.339 121.674 L 746.339 121.674 L 746.339 121.674 Q 738.044 132.941 722.443 139.379 L 722.443 139.379 L 722.443 139.379 Q 727.643 145.818 733.339 154.113 L 733.339 154.113 L 733.339 154.113 Q 739.034 162.409 744.606 171.447 L 744.606 171.447 L 744.606 171.447 Q 750.177 180.485 755.377 190.266 L 755.377 190.266 L 755.377 190.266 Q 760.577 200.047 765.035 209.457 L 765.035 209.457 L 721.564 209.457 L 721.564 209.457 Q 716.875 201.038 712.063 192.371 L 712.063 192.371 L 712.063 192.371 Q 707.251 183.704 702.193 175.533 L 702.193 175.533 L 702.193 175.533 Q 697.134 167.361 692.199 160.056 L 692.199 160.056 L 692.199 160.056 Q 687.263 152.751 682.328 146.808 L 682.328 146.808 L 663.261 146.808 L 663.261 209.457 L 624.632 209.457 L 624.632 40.33 L 624.632 40.33 Q 637.26 37.854 650.756 36.863 L 650.756 36.863 L 650.756 36.863 Q 664.251 35.873 674.899 35.873 Z  M 677.128 68.807 L 677.128 68.807 L 677.128 68.807 Q 672.918 68.807 669.575 69.054 L 669.575 69.054 L 669.575 69.054 Q 666.232 69.302 663.261 69.549 L 663.261 69.549 L 663.261 116.103 L 674.156 116.103 L 674.156 116.103 Q 695.947 116.103 705.357 110.655 L 705.357 110.655 L 705.357 110.655 Q 714.767 105.207 714.767 92.083 L 714.767 92.083 L 714.767 92.083 Q 714.767 79.454 705.233 74.13 L 705.233 74.13 L 705.233 74.13 Q 695.7 68.807 677.128 68.807 Z " fill="rgb(0,0,0)"/></g></svg>