<?xml version="1.0" encoding="UTF-8" standalone="no"?><!-- Generator: Gravit.io --><svg xmlns="http://www.w3.org/2000/svg" xmlns:xlink="http://www.w3.org/1999/xlink" style="isolation:isolate" viewBox="0 0 992 250" width="992pt" height="250pt"><defs><clipPath id="_clipPath_a2VQTyuScYMOcwbJ62jsWEytFm8do0fQ"><rect width="992" height="250"/></clipPath></defs><g clip-path="url(#_clipPath_a2VQTyuScYMOcwbJ62jsWEytFm8do0fQ)"><path d=" M 514.743 67.251 L 514.743 67.251 L 514.743 67.251 Q 515.696 69.513 515.875 71.322 L 515.875 71.322 L 515.875 71.322 Q 516.054 73.131 516.054 76.599 L 516.054 76.599 L 516.054 160.273 L 516.054 160.273 Q 516.054 170.676 511.527 172.485 L 511.527 172.485 L 511.527 172.485 Q 509.264 173.389 505.81 173.389 L 505.81 173.389 L 505.81 173.389 Q 502.355 173.389 500.33 172.635 L 500.33 172.635 L 500.33 172.635 Q 498.305 171.882 497.233 170.826 L 497.233 170.826 L 497.233 170.826 Q 496.161 169.771 495.565 167.811 L 495.565 167.811 L 495.565 167.811 Q 494.97 165.248 494.97 159.971 L 494.97 159.971 L 494.97 109.465 L 494.97 109.465 Q 491.992 114.139 486.274 124.316 L 486.274 124.316 L 486.274 124.316 Q 480.556 134.492 479.008 137.055 L 479.008 137.055 L 479.008 137.055 Q 477.459 139.618 476.863 140.598 L 476.863 140.598 L 476.863 140.598 Q 476.268 141.578 473.945 143.312 L 473.945 143.312 L 473.945 143.312 Q 471.622 145.046 468.942 145.046 L 468.942 145.046 L 468.942 145.046 Q 466.262 145.046 464.058 143.463 L 464.058 143.463 L 464.058 143.463 Q 461.854 141.88 460.901 140.372 L 460.901 140.372 L 459.949 138.714 L 459.949 138.714 Q 457.566 134.944 450.538 122.657 L 450.538 122.657 L 450.538 122.657 Q 443.51 110.37 442.914 109.465 L 442.914 109.465 L 442.914 160.273 L 442.914 160.273 Q 442.914 163.74 442.736 165.474 L 442.736 165.474 L 442.736 165.474 Q 442.557 167.208 441.604 169.319 L 441.604 169.319 L 441.604 169.319 Q 439.817 173.389 432.313 173.389 L 432.313 173.389 L 432.313 173.389 Q 425.047 173.389 423.26 169.319 L 423.26 169.319 L 423.26 169.319 Q 422.307 167.208 422.128 165.399 L 422.128 165.399 L 422.128 165.399 Q 421.949 163.59 421.949 159.971 L 421.949 159.971 L 421.949 76.297 L 421.949 76.297 Q 421.949 72.83 422.128 71.096 L 422.128 71.096 L 422.128 71.096 Q 422.307 69.362 423.26 67.101 L 423.26 67.101 L 423.26 67.101 Q 425.047 63.181 432.551 63.181 L 432.551 63.181 L 432.551 63.181 Q 435.767 63.181 438.09 64.161 L 438.09 64.161 L 438.09 64.161 Q 440.413 65.141 441.128 66.196 L 441.128 66.196 L 441.842 67.101 L 468.882 112.028 L 468.882 112.028 Q 489.133 78.106 495.923 67.251 L 495.923 67.251 L 495.923 67.251 Q 497.948 63.181 505.512 63.181 L 505.512 63.181 L 505.512 63.181 Q 513.076 63.181 514.743 67.251 Z  M 547.4 173.239 L 547.4 173.239 L 547.4 173.239 Q 535.369 173.239 527.448 161.705 L 527.448 161.705 L 527.448 161.705 Q 519.526 150.172 519.526 133.588 L 519.526 133.588 L 519.526 107.204 L 519.526 107.204 Q 519.526 103.586 519.705 101.927 L 519.705 101.927 L 519.705 101.927 Q 519.884 100.269 520.718 98.007 L 520.718 98.007 L 520.718 98.007 Q 522.385 93.937 530.009 93.937 L 530.009 93.937 L 530.009 93.937 Q 538.347 93.937 539.777 99.666 L 539.777 99.666 L 539.777 99.666 Q 540.491 102.078 540.491 107.355 L 540.491 107.355 L 540.491 133.738 L 540.491 133.738 Q 540.491 139.92 543.291 143.387 L 543.291 143.387 L 543.291 143.387 Q 546.09 146.855 550.795 146.855 L 550.795 146.855 L 550.795 146.855 Q 555.501 146.855 558.419 143.237 L 558.419 143.237 L 558.419 143.237 Q 561.337 139.618 561.337 133.738 L 561.337 133.738 L 561.337 107.053 L 561.337 107.053 Q 561.337 103.586 561.516 101.852 L 561.516 101.852 L 561.516 101.852 Q 561.695 100.118 562.648 97.857 L 562.648 97.857 L 562.648 97.857 Q 564.196 93.937 571.82 93.937 L 571.82 93.937 L 571.82 93.937 Q 579.324 93.937 580.992 98.007 L 580.992 98.007 L 580.992 98.007 Q 581.826 100.269 582.005 102.003 L 582.005 102.003 L 582.005 102.003 Q 582.183 103.736 582.183 107.204 L 582.183 107.204 L 582.183 160.574 L 582.183 160.574 Q 582.183 163.891 582.005 165.625 L 582.005 165.625 L 582.005 165.625 Q 581.826 167.359 580.873 169.469 L 580.873 169.469 L 580.873 169.469 Q 579.086 173.389 571.701 173.389 L 571.701 173.389 L 571.701 173.389 Q 564.434 173.389 562.767 169.771 L 562.767 169.771 L 562.767 169.771 Q 561.576 167.208 561.576 163.59 L 561.576 163.59 L 561.576 163.59 Q 561.099 164.645 559.431 166.605 L 559.431 166.605 L 559.431 166.605 Q 557.764 168.565 556.215 169.922 L 556.215 169.922 L 556.215 169.922 Q 552.165 173.239 547.4 173.239 Z  M 585.656 141.729 L 585.656 69.965 L 585.656 69.965 Q 585.656 66.498 585.835 64.764 L 585.835 64.764 L 585.835 64.764 Q 586.013 63.03 586.847 60.769 L 586.847 60.769 L 586.847 60.769 Q 588.515 56.698 596.138 56.698 L 596.138 56.698 L 596.138 56.698 Q 603.405 56.698 605.191 60.769 L 605.191 60.769 L 605.191 60.769 Q 606.144 63.03 606.323 64.839 L 606.323 64.839 L 606.323 64.839 Q 606.502 66.648 606.502 70.116 L 606.502 70.116 L 606.502 139.92 L 606.502 139.92 Q 606.502 145.347 607.217 146.779 L 607.217 146.779 L 607.217 146.779 Q 607.931 148.212 610.373 148.212 L 610.373 148.212 L 610.373 148.212 Q 612.815 148.212 613.649 148.438 L 613.649 148.438 L 613.649 148.438 Q 614.483 148.664 615.674 149.719 L 615.674 149.719 L 615.674 149.719 Q 618.056 151.679 618.056 160.424 L 618.056 160.424 L 618.056 160.424 Q 618.056 169.922 615.674 172.032 L 615.674 172.032 L 615.674 172.032 Q 612.577 174.746 600.903 172.937 L 600.903 172.937 L 600.903 172.937 Q 591.731 171.429 588.991 165.248 L 588.991 165.248 L 588.991 165.248 Q 585.656 157.861 585.656 141.729 L 585.656 141.729 Z  M 650.237 120.773 L 650.237 120.773 L 642.494 120.17 L 642.494 140.975 L 642.494 140.975 Q 642.494 145.046 643.507 146.855 L 643.507 146.855 L 643.507 146.855 Q 644.519 148.664 647.318 148.664 L 647.318 148.664 L 647.318 148.664 Q 650.118 148.664 651.607 148.89 L 651.607 148.89 L 651.607 148.89 Q 653.096 149.116 654.763 150.322 L 654.763 150.322 L 654.763 150.322 Q 657.503 152.282 657.503 160.424 L 657.503 160.424 L 657.503 160.424 Q 657.503 169.922 654.168 172.032 L 654.168 172.032 L 654.168 172.032 Q 652.381 173.088 651.011 173.314 L 651.011 173.314 L 651.011 173.314 Q 649.641 173.54 647.021 173.54 L 647.021 173.54 L 647.021 173.54 Q 634.632 173.54 628.2 166.454 L 628.2 166.454 L 628.2 166.454 Q 621.767 159.368 621.767 142.483 L 621.767 142.483 L 621.767 120.17 L 621.767 120.17 Q 619.504 120.622 616.883 120.622 L 616.883 120.622 L 616.883 120.622 Q 614.263 120.622 612.536 118.059 L 612.536 118.059 L 612.536 118.059 Q 610.808 115.496 610.808 109.315 L 610.808 109.315 L 610.808 109.315 Q 610.808 103.133 611.404 100.344 L 611.404 100.344 L 611.404 100.344 Q 611.999 97.555 613.072 96.349 L 613.072 96.349 L 613.072 96.349 Q 614.977 94.389 617.836 94.389 L 617.836 94.389 L 621.767 94.992 L 621.767 79.463 L 621.767 79.463 Q 621.767 75.996 621.946 74.337 L 621.946 74.337 L 621.946 74.337 Q 622.125 72.679 623.078 70.719 L 623.078 70.719 L 623.078 70.719 Q 624.626 66.95 632.25 66.95 L 632.25 66.95 L 632.25 66.95 Q 640.35 66.95 641.898 72.528 L 641.898 72.528 L 641.898 72.528 Q 642.494 74.94 642.494 80.217 L 642.494 80.217 L 642.494 94.992 L 642.494 94.992 Q 647.735 94.389 650.415 94.389 L 650.415 94.389 L 650.415 94.389 Q 653.096 94.389 654.466 94.615 L 654.466 94.615 L 654.466 94.615 Q 655.835 94.841 657.622 96.047 L 657.622 96.047 L 657.622 96.047 Q 660.719 98.007 660.719 107.656 L 660.719 107.656 L 660.719 107.656 Q 660.719 117.154 657.503 119.265 L 657.503 119.265 L 657.503 119.265 Q 655.716 120.32 654.346 120.547 L 654.346 120.547 L 654.346 120.547 Q 652.977 120.773 650.237 120.773 Z  M 661.214 160.273 L 661.214 107.355 L 661.214 107.355 Q 661.214 103.887 661.393 102.153 L 661.393 102.153 L 661.393 102.153 Q 661.571 100.42 662.405 98.158 L 662.405 98.158 L 662.405 98.158 Q 664.073 94.238 671.696 94.238 L 671.696 94.238 L 671.696 94.238 Q 677.414 94.238 679.797 96.801 L 679.797 96.801 L 679.797 96.801 Q 681.822 98.912 681.941 103.284 L 681.941 103.284 L 681.941 103.284 Q 682.06 104.792 682.06 107.656 L 682.06 107.656 L 682.06 160.424 L 682.06 160.424 Q 682.06 163.891 681.881 165.625 L 681.881 165.625 L 681.881 165.625 Q 681.703 167.359 680.75 169.62 L 680.75 169.62 L 680.75 169.62 Q 679.201 173.54 671.577 173.54 L 671.577 173.54 L 671.577 173.54 Q 664.073 173.54 662.405 169.469 L 662.405 169.469 L 662.405 169.469 Q 661.571 167.208 661.393 165.55 L 661.393 165.55 L 661.393 165.55 Q 661.214 163.891 661.214 160.273 L 661.214 160.273 Z  M 680.809 79.388 L 680.809 79.388 L 680.809 79.388 Q 679.916 81.574 677.652 82.479 L 677.652 82.479 L 677.652 82.479 Q 675.389 83.383 671.637 83.383 L 671.637 83.383 L 671.637 83.383 Q 667.885 83.383 665.621 82.479 L 665.621 82.479 L 665.621 82.479 Q 663.358 81.574 662.465 79.313 L 662.465 79.313 L 662.465 79.313 Q 661.571 77.051 661.393 75.317 L 661.393 75.317 L 661.393 75.317 Q 661.214 73.584 661.214 70.116 L 661.214 70.116 L 661.214 70.116 Q 661.214 66.648 661.393 64.915 L 661.393 64.915 L 661.393 64.915 Q 661.571 63.181 662.405 61.07 L 662.405 61.07 L 662.405 61.07 Q 664.073 57 671.696 57 L 671.696 57 L 671.696 57 Q 679.201 57 680.75 61.07 L 680.75 61.07 L 680.75 61.07 Q 681.703 63.332 681.881 65.065 L 681.881 65.065 L 681.881 65.065 Q 682.06 66.799 682.06 70.267 L 682.06 70.267 L 682.06 70.267 Q 682.06 73.734 681.881 75.468 L 681.881 75.468 L 681.881 75.468 Q 681.703 77.202 680.809 79.388 Z  M 748.785 95.897 L 748.785 95.897 L 748.785 95.897 Q 754.979 100.57 754.979 105.847 L 754.979 105.847 L 754.979 105.847 Q 754.979 108.862 752.597 114.139 L 752.597 114.139 L 727.939 167.66 L 727.939 167.66 Q 726.748 170.223 724.127 172.259 L 724.127 172.259 L 724.127 172.259 Q 721.507 174.294 718.946 174.294 L 718.946 174.294 L 718.946 174.294 Q 716.384 174.294 714.062 172.711 L 714.062 172.711 L 714.062 172.711 Q 711.739 171.128 710.786 169.469 L 710.786 169.469 L 709.714 167.811 L 684.937 114.139 L 684.937 114.139 Q 682.555 109.164 682.555 105.998 L 682.555 105.998 L 682.555 105.998 Q 682.555 100.57 688.749 95.897 L 688.749 95.897 L 688.749 95.897 Q 693.275 92.58 695.896 92.58 L 695.896 92.58 L 695.896 92.58 Q 698.517 92.58 700.006 94.615 L 700.006 94.615 L 700.006 94.615 Q 701.495 96.65 703.162 100.721 L 703.162 100.721 L 718.767 138.714 L 734.372 100.721 L 734.372 100.721 Q 735.682 97.857 736.337 96.575 L 736.337 96.575 L 736.337 96.575 Q 736.992 95.294 738.422 94.012 L 738.422 94.012 L 738.422 94.012 Q 739.851 92.731 742.233 92.731 L 742.233 92.731 L 742.233 92.731 Q 744.616 92.731 748.785 95.897 Z  M 755.474 160.273 L 755.474 107.355 L 755.474 107.355 Q 755.474 103.887 755.653 102.153 L 755.653 102.153 L 755.653 102.153 Q 755.831 100.42 756.665 98.158 L 756.665 98.158 L 756.665 98.158 Q 758.333 94.238 765.956 94.238 L 765.956 94.238 L 765.956 94.238 Q 771.674 94.238 774.056 96.801 L 774.056 96.801 L 774.056 96.801 Q 776.081 98.912 776.201 103.284 L 776.201 103.284 L 776.201 103.284 Q 776.32 104.792 776.32 107.656 L 776.32 107.656 L 776.32 160.424 L 776.32 160.424 Q 776.32 163.891 776.141 165.625 L 776.141 165.625 L 776.141 165.625 Q 775.962 167.359 775.009 169.62 L 775.009 169.62 L 775.009 169.62 Q 773.461 173.54 765.837 173.54 L 765.837 173.54 L 765.837 173.54 Q 758.333 173.54 756.665 169.469 L 756.665 169.469 L 756.665 169.469 Q 755.831 167.208 755.653 165.55 L 755.653 165.55 L 755.653 165.55 Q 755.474 163.891 755.474 160.273 L 755.474 160.273 Z  M 775.069 79.388 L 775.069 79.388 L 775.069 79.388 Q 774.176 81.574 771.912 82.479 L 771.912 82.479 L 771.912 82.479 Q 769.649 83.383 765.897 83.383 L 765.897 83.383 L 765.897 83.383 Q 762.145 83.383 759.881 82.479 L 759.881 82.479 L 759.881 82.479 Q 757.618 81.574 756.725 79.313 L 756.725 79.313 L 756.725 79.313 Q 755.831 77.051 755.653 75.317 L 755.653 75.317 L 755.653 75.317 Q 755.474 73.584 755.474 70.116 L 755.474 70.116 L 755.474 70.116 Q 755.474 66.648 755.653 64.915 L 755.653 64.915 L 755.653 64.915 Q 755.831 63.181 756.665 61.07 L 756.665 61.07 L 756.665 61.07 Q 758.333 57 765.956 57 L 765.956 57 L 765.956 57 Q 773.461 57 775.009 61.07 L 775.009 61.07 L 775.009 61.07 Q 775.962 63.332 776.141 65.065 L 776.141 65.065 L 776.141 65.065 Q 776.32 66.799 776.32 70.267 L 776.32 70.267 L 776.32 70.267 Q 776.32 73.734 776.141 75.468 L 776.141 75.468 L 776.141 75.468 Q 775.962 77.202 775.069 79.388 Z  M 780.269 166.454 L 780.269 166.454 L 780.269 166.454 Q 778.006 164.645 778.006 160.725 L 778.006 160.725 L 778.006 160.725 Q 778.006 156.805 782.532 148.815 L 782.532 148.815 L 782.532 148.815 Q 783.842 146.252 786.761 146.252 L 786.761 146.252 L 786.761 146.252 Q 789.679 146.252 794.682 149.946 L 794.682 149.946 L 794.682 149.946 Q 799.685 153.639 803.735 153.639 L 803.735 153.639 L 803.735 153.639 Q 811.002 153.639 811.002 150.021 L 811.002 150.021 L 811.002 150.021 Q 811.002 147.156 803.021 145.8 L 803.021 145.8 L 803.021 145.8 Q 795.516 144.443 788.131 138.714 L 788.131 138.714 L 788.131 138.714 Q 784.676 136 782.413 130.195 L 782.413 130.195 L 782.413 130.195 Q 780.15 124.391 780.15 116.401 L 780.15 116.401 L 780.15 116.401 Q 780.15 92.58 805.999 92.58 L 805.999 92.58 L 805.999 92.58 Q 814.456 92.58 823.39 97.706 L 823.39 97.706 L 823.39 97.706 Q 827.559 100.118 827.559 103.736 L 827.559 103.736 L 827.559 103.736 Q 827.559 107.355 824.939 112.631 L 824.939 112.631 L 824.939 112.631 Q 822.318 117.908 819.578 117.908 L 819.578 117.908 L 819.578 117.908 Q 818.149 117.908 814.277 115.647 L 814.277 115.647 L 814.277 115.647 Q 810.406 113.385 805.88 113.385 L 805.88 113.385 L 805.88 113.385 Q 798.851 113.385 798.851 116.702 L 798.851 116.702 L 798.851 116.702 Q 798.851 121.225 806.952 122.582 L 806.952 122.582 L 806.952 122.582 Q 814.813 123.637 822.199 128.311 L 822.199 128.311 L 822.199 128.311 Q 825.653 130.422 827.976 135.623 L 827.976 135.623 L 827.976 135.623 Q 830.299 140.824 830.299 148.664 L 830.299 148.664 L 830.299 148.664 Q 830.299 156.504 827.976 162.007 L 827.976 162.007 L 827.976 162.007 Q 825.653 167.51 821.484 170.223 L 821.484 170.223 L 821.484 170.223 Q 813.861 174.897 802.366 174.897 L 802.366 174.897 L 802.366 174.897 Q 790.87 174.897 780.269 166.454 Z  M 831.985 160.273 L 831.985 107.355 L 831.985 107.355 Q 831.985 103.887 832.164 102.153 L 832.164 102.153 L 832.164 102.153 Q 832.342 100.42 833.176 98.158 L 833.176 98.158 L 833.176 98.158 Q 834.844 94.238 842.467 94.238 L 842.467 94.238 L 842.467 94.238 Q 848.185 94.238 850.567 96.801 L 850.567 96.801 L 850.567 96.801 Q 852.593 98.912 852.712 103.284 L 852.712 103.284 L 852.712 103.284 Q 852.831 104.792 852.831 107.656 L 852.831 107.656 L 852.831 160.424 L 852.831 160.424 Q 852.831 163.891 852.652 165.625 L 852.652 165.625 L 852.652 165.625 Q 852.473 167.359 851.52 169.62 L 851.52 169.62 L 851.52 169.62 Q 849.972 173.54 842.348 173.54 L 842.348 173.54 L 842.348 173.54 Q 834.844 173.54 833.176 169.469 L 833.176 169.469 L 833.176 169.469 Q 832.342 167.208 832.164 165.55 L 832.164 165.55 L 832.164 165.55 Q 831.985 163.891 831.985 160.273 L 831.985 160.273 Z  M 851.58 79.388 L 851.58 79.388 L 851.58 79.388 Q 850.687 81.574 848.423 82.479 L 848.423 82.479 L 848.423 82.479 Q 846.16 83.383 842.408 83.383 L 842.408 83.383 L 842.408 83.383 Q 838.656 83.383 836.392 82.479 L 836.392 82.479 L 836.392 82.479 Q 834.129 81.574 833.236 79.313 L 833.236 79.313 L 833.236 79.313 Q 832.342 77.051 832.164 75.317 L 832.164 75.317 L 832.164 75.317 Q 831.985 73.584 831.985 70.116 L 831.985 70.116 L 831.985 70.116 Q 831.985 66.648 832.164 64.915 L 832.164 64.915 L 832.164 64.915 Q 832.342 63.181 833.176 61.07 L 833.176 61.07 L 833.176 61.07 Q 834.844 57 842.467 57 L 842.467 57 L 842.467 57 Q 849.972 57 851.52 61.07 L 851.52 61.07 L 851.52 61.07 Q 852.473 63.332 852.652 65.065 L 852.652 65.065 L 852.652 65.065 Q 852.831 66.799 852.831 70.267 L 852.831 70.267 L 852.831 70.267 Q 852.831 73.734 852.652 75.468 L 852.652 75.468 L 852.652 75.468 Q 852.473 77.202 851.58 79.388 Z  M 854.517 133.889 L 854.517 133.889 Q 854.517 115.797 864.523 104.038 L 864.523 104.038 L 864.523 104.038 Q 874.529 92.278 887.394 92.278 L 887.394 92.278 L 887.394 92.278 Q 900.258 92.278 910.145 103.963 L 910.145 103.963 L 910.145 103.963 Q 920.032 115.647 920.032 133.738 L 920.032 133.738 L 920.032 133.738 Q 920.032 146.252 914.91 155.976 L 914.91 155.976 L 914.91 155.976 Q 909.788 165.7 902.462 170.299 L 902.462 170.299 L 902.462 170.299 Q 895.136 174.897 887.274 174.897 L 887.274 174.897 L 887.274 174.897 Q 879.413 174.897 872.027 169.997 L 872.027 169.997 L 872.027 169.997 Q 864.642 165.097 859.579 155.524 L 859.579 155.524 L 859.579 155.524 Q 854.517 145.95 854.517 133.889 L 854.517 133.889 Z  M 879.413 144.669 L 879.413 144.669 L 879.413 144.669 Q 883.224 148.362 887.155 148.362 L 887.155 148.362 L 887.155 148.362 Q 891.086 148.362 895.017 144.593 L 895.017 144.593 L 895.017 144.593 Q 898.948 140.824 898.948 133.437 L 898.948 133.437 L 898.948 133.437 Q 898.948 126.049 895.255 122.431 L 895.255 122.431 L 895.255 122.431 Q 891.563 118.813 887.274 118.813 L 887.274 118.813 L 887.274 118.813 Q 882.986 118.813 879.293 122.582 L 879.293 122.582 L 879.293 122.582 Q 875.601 126.351 875.601 133.663 L 875.601 133.663 L 875.601 133.663 Q 875.601 140.975 879.413 144.669 Z  M 956.62 94.087 L 956.62 94.087 L 956.62 94.087 Q 968.532 94.087 976.454 105.621 L 976.454 105.621 L 976.454 105.621 Q 984.375 117.154 984.375 133.738 L 984.375 133.738 L 984.375 160.273 L 984.375 160.273 Q 984.375 163.74 984.196 165.474 L 984.196 165.474 L 984.196 165.474 Q 984.018 167.208 983.184 169.319 L 983.184 169.319 L 983.184 169.319 Q 981.516 173.389 973.892 173.389 L 973.892 173.389 L 973.892 173.389 Q 965.435 173.389 964.125 167.811 L 964.125 167.811 L 964.125 167.811 Q 963.41 165.248 963.41 160.122 L 963.41 160.122 L 963.41 133.588 L 963.41 133.588 Q 963.41 127.406 960.611 123.939 L 960.611 123.939 L 960.611 123.939 Q 957.811 120.471 953.106 120.471 L 953.106 120.471 L 953.106 120.471 Q 948.401 120.471 945.482 124.089 L 945.482 124.089 L 945.482 124.089 Q 942.564 127.708 942.564 133.588 L 942.564 133.588 L 942.564 160.273 L 942.564 160.273 Q 942.564 163.74 942.385 165.474 L 942.385 165.474 L 942.385 165.474 Q 942.207 167.208 941.254 169.319 L 941.254 169.319 L 941.254 169.319 Q 939.705 173.389 932.082 173.389 L 932.082 173.389 L 932.082 173.389 Q 924.577 173.389 922.909 169.319 L 922.909 169.319 L 922.909 169.319 Q 922.076 167.057 921.897 165.323 L 921.897 165.323 L 921.897 165.323 Q 921.718 163.59 921.718 160.122 L 921.718 160.122 L 921.718 106.752 L 921.718 106.752 Q 921.718 103.435 921.897 101.701 L 921.897 101.701 L 921.897 101.701 Q 922.076 99.967 923.028 97.857 L 923.028 97.857 L 923.028 97.857 Q 924.696 94.087 932.201 94.087 L 932.201 94.087 L 932.201 94.087 Q 939.467 94.087 941.135 97.555 L 941.135 97.555 L 941.135 97.555 Q 942.326 100.118 942.326 103.736 L 942.326 103.736 L 942.326 103.736 Q 942.802 102.681 944.47 100.721 L 944.47 100.721 L 944.47 100.721 Q 946.138 98.761 947.686 97.555 L 947.686 97.555 L 947.686 97.555 Q 951.736 94.087 956.62 94.087 Z  M 45.744 61.673 L 45.744 61.673 L 45.744 61.673 Q 63.374 61.673 76.358 77.805 L 76.358 77.805 L 76.358 77.805 Q 89.342 93.937 89.342 117.833 L 89.342 117.833 L 89.342 117.833 Q 89.342 141.729 76.953 158.539 L 76.953 158.539 L 76.953 158.539 Q 64.565 175.349 46.459 175.349 L 46.459 175.349 L 46.459 175.349 Q 28.352 175.349 15.666 158.765 L 15.666 158.765 L 15.666 158.765 Q 2.98 142.181 2.98 119.265 L 2.98 119.265 L 2.98 119.265 Q 2.98 106.752 6.554 95.821 L 6.554 95.821 L 6.554 95.821 Q 10.127 84.891 16.083 77.503 L 16.083 77.503 L 16.083 77.503 Q 22.039 70.116 29.782 65.895 L 29.782 65.895 L 29.782 65.895 Q 37.525 61.673 45.744 61.673 Z  M 24.064 118.511 L 24.064 118.511 L 24.064 118.511 Q 24.064 131.929 30.914 140.297 L 30.914 140.297 L 30.914 140.297 Q 37.763 148.664 46.22 148.664 L 46.22 148.664 L 46.22 148.664 Q 54.678 148.664 61.468 140.523 L 61.468 140.523 L 61.468 140.523 Q 68.257 132.382 68.257 118.662 L 68.257 118.662 L 68.257 118.662 Q 68.257 104.942 61.408 96.65 L 61.408 96.65 L 61.408 96.65 Q 54.559 88.358 46.101 88.358 L 46.101 88.358 L 46.101 88.358 Q 37.644 88.358 30.854 96.726 L 30.854 96.726 L 30.854 96.726 Q 24.064 105.093 24.064 118.511 Z  M 127.478 120.773 L 127.478 120.773 L 119.735 120.17 L 119.735 140.975 L 119.735 140.975 Q 119.735 145.046 120.748 146.855 L 120.748 146.855 L 120.748 146.855 Q 121.76 148.664 124.56 148.664 L 124.56 148.664 L 124.56 148.664 Q 127.359 148.664 128.848 148.89 L 128.848 148.89 L 128.848 148.89 Q 130.337 149.116 132.005 150.322 L 132.005 150.322 L 132.005 150.322 Q 134.744 152.282 134.744 160.424 L 134.744 160.424 L 134.744 160.424 Q 134.744 169.922 131.409 172.032 L 131.409 172.032 L 131.409 172.032 Q 129.622 173.088 128.252 173.314 L 128.252 173.314 L 128.252 173.314 Q 126.882 173.54 124.262 173.54 L 124.262 173.54 L 124.262 173.54 Q 111.873 173.54 105.441 166.454 L 105.441 166.454 L 105.441 166.454 Q 99.008 159.368 99.008 142.483 L 99.008 142.483 L 99.008 120.17 L 99.008 120.17 Q 96.745 120.622 94.125 120.622 L 94.125 120.622 L 94.125 120.622 Q 91.504 120.622 89.777 118.059 L 89.777 118.059 L 89.777 118.059 Q 88.049 115.496 88.049 109.315 L 88.049 109.315 L 88.049 109.315 Q 88.049 103.133 88.645 100.344 L 88.645 100.344 L 88.645 100.344 Q 89.241 97.555 90.313 96.349 L 90.313 96.349 L 90.313 96.349 Q 92.219 94.389 95.078 94.389 L 95.078 94.389 L 99.008 94.992 L 99.008 79.463 L 99.008 79.463 Q 99.008 75.996 99.187 74.337 L 99.187 74.337 L 99.187 74.337 Q 99.366 72.679 100.319 70.719 L 100.319 70.719 L 100.319 70.719 Q 101.867 66.95 109.491 66.95 L 109.491 66.95 L 109.491 66.95 Q 117.591 66.95 119.14 72.528 L 119.14 72.528 L 119.14 72.528 Q 119.735 74.94 119.735 80.217 L 119.735 80.217 L 119.735 94.992 L 119.735 94.992 Q 124.977 94.389 127.657 94.389 L 127.657 94.389 L 127.657 94.389 Q 130.337 94.389 131.707 94.615 L 131.707 94.615 L 131.707 94.615 Q 133.077 94.841 134.863 96.047 L 134.863 96.047 L 134.863 96.047 Q 137.961 98.007 137.961 107.656 L 137.961 107.656 L 137.961 107.656 Q 137.961 117.154 134.744 119.265 L 134.744 119.265 L 134.744 119.265 Q 132.958 120.32 131.588 120.547 L 131.588 120.547 L 131.588 120.547 Q 130.218 120.773 127.478 120.773 Z  M 173.238 94.389 L 173.238 94.389 L 173.238 94.389 Q 185.15 94.389 193.071 105.847 L 193.071 105.847 L 193.071 105.847 Q 200.993 117.305 200.993 133.889 L 200.993 133.889 L 200.993 160.424 L 200.993 160.424 Q 200.993 163.891 200.814 165.625 L 200.814 165.625 L 200.814 165.625 Q 200.636 167.359 199.683 169.62 L 199.683 169.62 L 199.683 169.62 Q 198.134 173.54 190.51 173.54 L 190.51 173.54 L 190.51 173.54 Q 183.244 173.54 181.457 169.62 L 181.457 169.62 L 181.457 169.62 Q 180.504 167.359 180.326 165.55 L 180.326 165.55 L 180.326 165.55 Q 180.147 163.74 180.147 160.122 L 180.147 160.122 L 180.147 133.738 L 180.147 133.738 Q 180.147 127.557 177.407 124.089 L 177.407 124.089 L 177.407 124.089 Q 174.667 120.622 170.439 120.622 L 170.439 120.622 L 170.439 120.622 Q 166.21 120.622 162.994 123.863 L 162.994 123.863 L 162.994 123.863 Q 159.778 127.105 159.301 131.175 L 159.301 131.175 L 159.301 160.424 L 159.301 160.424 Q 159.301 163.891 159.122 165.625 L 159.122 165.625 L 159.122 165.625 Q 158.944 167.359 157.991 169.62 L 157.991 169.62 L 157.991 169.62 Q 156.442 173.54 148.819 173.54 L 148.819 173.54 L 148.819 173.54 Q 141.314 173.54 139.646 169.469 L 139.646 169.469 L 139.646 169.469 Q 138.813 167.208 138.634 165.55 L 138.634 165.55 L 138.634 165.55 Q 138.455 163.891 138.455 160.273 L 138.455 160.273 L 138.455 70.116 L 138.455 70.116 Q 138.455 66.648 138.634 64.915 L 138.634 64.915 L 138.634 64.915 Q 138.813 63.181 139.646 61.07 L 139.646 61.07 L 139.646 61.07 Q 141.314 57 148.938 57 L 148.938 57 L 148.938 57 Q 156.442 57 157.991 61.07 L 157.991 61.07 L 157.991 61.07 Q 158.944 63.332 159.122 65.065 L 159.122 65.065 L 159.122 65.065 Q 159.301 66.799 159.301 70.267 L 159.301 70.267 L 159.301 103.586 L 159.301 103.586 Q 165.257 94.389 173.238 94.389 Z  M 264.978 124.316 L 264.978 124.316 L 264.978 124.316 Q 264.978 133.588 261.345 138.035 L 261.345 138.035 L 261.345 138.035 Q 257.712 142.483 253.305 142.483 L 253.305 142.483 L 225.073 142.483 L 225.073 142.483 Q 225.073 146.704 229.004 149.569 L 229.004 149.569 L 229.004 149.569 Q 232.935 152.433 236.866 152.433 L 236.866 152.433 L 236.866 152.433 Q 243.775 152.433 247.706 150.624 L 247.706 150.624 L 249.016 150.021 L 249.016 150.021 Q 251.875 148.362 253.781 148.362 L 253.781 148.362 L 253.781 148.362 Q 257.593 148.362 260.333 155.147 L 260.333 155.147 L 260.333 155.147 Q 261.881 159.217 261.881 162.082 L 261.881 162.082 L 261.881 162.082 Q 261.881 175.5 236.509 175.5 L 236.509 175.5 L 236.509 175.5 Q 227.694 175.5 220.844 171.656 L 220.844 171.656 L 220.844 171.656 Q 213.995 167.811 210.183 161.479 L 210.183 161.479 L 210.183 161.479 Q 202.679 149.267 202.679 134.191 L 202.679 134.191 L 202.679 134.191 Q 202.679 115.194 212.387 103.812 L 212.387 103.812 L 212.387 103.812 Q 222.095 92.429 236.628 92.429 L 236.628 92.429 L 236.628 92.429 Q 253.185 92.429 260.928 107.204 L 260.928 107.204 L 260.928 107.204 Q 264.978 115.044 264.978 124.316 Z  M 224.835 128.763 L 239.844 128.763 L 239.844 128.763 Q 244.371 128.763 244.371 123.939 L 244.371 123.939 L 244.371 123.939 Q 244.371 120.471 242.286 118.36 L 242.286 118.36 L 242.286 118.36 Q 240.201 116.25 236.33 116.25 L 236.33 116.25 L 236.33 116.25 Q 232.459 116.25 228.647 120.245 L 228.647 120.245 L 228.647 120.245 Q 224.835 124.24 224.835 128.763 L 224.835 128.763 Z  M 266.664 141.729 L 266.664 69.965 L 266.664 69.965 Q 266.664 66.498 266.843 64.764 L 266.843 64.764 L 266.843 64.764 Q 267.021 63.03 267.855 60.769 L 267.855 60.769 L 267.855 60.769 Q 269.523 56.698 277.147 56.698 L 277.147 56.698 L 277.147 56.698 Q 284.413 56.698 286.2 60.769 L 286.2 60.769 L 286.2 60.769 Q 287.153 63.03 287.331 64.839 L 287.331 64.839 L 287.331 64.839 Q 287.51 66.648 287.51 70.116 L 287.51 70.116 L 287.51 139.92 L 287.51 139.92 Q 287.51 145.347 288.225 146.779 L 288.225 146.779 L 288.225 146.779 Q 288.939 148.212 291.381 148.212 L 291.381 148.212 L 291.381 148.212 Q 293.823 148.212 294.657 148.438 L 294.657 148.438 L 294.657 148.438 Q 295.491 148.664 296.682 149.719 L 296.682 149.719 L 296.682 149.719 Q 299.065 151.679 299.065 160.424 L 299.065 160.424 L 299.065 160.424 Q 299.065 169.922 296.682 172.032 L 296.682 172.032 L 296.682 172.032 Q 293.585 174.746 281.911 172.937 L 281.911 172.937 L 281.911 172.937 Q 272.739 171.429 269.999 165.248 L 269.999 165.248 L 269.999 165.248 Q 266.664 157.861 266.664 141.729 L 266.664 141.729 Z  M 299.559 141.729 L 299.559 69.965 L 299.559 69.965 Q 299.559 66.498 299.738 64.764 L 299.738 64.764 L 299.738 64.764 Q 299.917 63.03 300.75 60.769 L 300.75 60.769 L 300.75 60.769 Q 302.418 56.698 310.042 56.698 L 310.042 56.698 L 310.042 56.698 Q 317.308 56.698 319.095 60.769 L 319.095 60.769 L 319.095 60.769 Q 320.048 63.03 320.226 64.839 L 320.226 64.839 L 320.226 64.839 Q 320.405 66.648 320.405 70.116 L 320.405 70.116 L 320.405 139.92 L 320.405 139.92 Q 320.405 145.347 321.12 146.779 L 321.12 146.779 L 321.12 146.779 Q 321.835 148.212 324.276 148.212 L 324.276 148.212 L 324.276 148.212 Q 326.718 148.212 327.552 148.438 L 327.552 148.438 L 327.552 148.438 Q 328.386 148.664 329.577 149.719 L 329.577 149.719 L 329.577 149.719 Q 331.96 151.679 331.96 160.424 L 331.96 160.424 L 331.96 160.424 Q 331.96 169.922 329.577 172.032 L 329.577 172.032 L 329.577 172.032 Q 326.48 174.746 314.806 172.937 L 314.806 172.937 L 314.806 172.937 Q 305.634 171.429 302.895 165.248 L 302.895 165.248 L 302.895 165.248 Q 299.559 157.861 299.559 141.729 L 299.559 141.729 Z  M 330.668 133.889 L 330.668 133.889 Q 330.668 115.797 340.674 104.038 L 340.674 104.038 L 340.674 104.038 Q 350.68 92.278 363.545 92.278 L 363.545 92.278 L 363.545 92.278 Q 376.409 92.278 386.296 103.963 L 386.296 103.963 L 386.296 103.963 Q 396.183 115.647 396.183 133.738 L 396.183 133.738 L 396.183 133.738 Q 396.183 146.252 391.061 155.976 L 391.061 155.976 L 391.061 155.976 Q 385.939 165.7 378.613 170.299 L 378.613 170.299 L 378.613 170.299 Q 371.287 174.897 363.425 174.897 L 363.425 174.897 L 363.425 174.897 Q 355.564 174.897 348.178 169.997 L 348.178 169.997 L 348.178 169.997 Q 340.793 165.097 335.73 155.524 L 335.73 155.524 L 335.73 155.524 Q 330.668 145.95 330.668 133.889 L 330.668 133.889 Z  M 355.564 144.669 L 355.564 144.669 L 355.564 144.669 Q 359.375 148.362 363.306 148.362 L 363.306 148.362 L 363.306 148.362 Q 367.237 148.362 371.168 144.593 L 371.168 144.593 L 371.168 144.593 Q 375.099 140.824 375.099 133.437 L 375.099 133.437 L 375.099 133.437 Q 375.099 126.049 371.406 122.431 L 371.406 122.431 L 371.406 122.431 Q 367.714 118.813 363.425 118.813 L 363.425 118.813 L 363.425 118.813 Q 359.137 118.813 355.444 122.582 L 355.444 122.582 L 355.444 122.582 Q 351.752 126.351 351.752 133.663 L 351.752 133.663 L 351.752 133.663 Q 351.752 140.975 355.564 144.669 Z " fill="rgb(1,82,164)"/></g></svg>