<?xml version="1.0" encoding="UTF-8" standalone="no"?><!-- Generator: Gravit.io --><svg xmlns="http://www.w3.org/2000/svg" xmlns:xlink="http://www.w3.org/1999/xlink" style="isolation:isolate" viewBox="0 0 992 250" width="992pt" height="250pt"><defs><clipPath id="_clipPath_cdNRTPSMvnHXXogVHwYgduSlrfIS0kuU"><rect width="992" height="250"/></clipPath></defs><g clip-path="url(#_clipPath_cdNRTPSMvnHXXogVHwYgduSlrfIS0kuU)"><path d=" M 181.085 177.65 L 181.085 46.33 L 207.561 46.33 L 241.073 135.694 L 274.76 46.33 L 301.236 46.33 L 301.236 177.65 L 283.908 177.65 L 283.908 62.338 L 250.044 152.406 L 232.189 152.406 L 198.325 62.338 L 198.325 177.65 L 181.085 177.65 Z  M 334.132 138.773 L 334.132 138.773 L 334.132 79.138 L 350.316 79.138 L 350.316 138.157 L 350.316 138.157 Q 350.316 152.143 355.769 159.135 L 355.769 159.135 L 355.769 159.135 Q 361.223 166.128 372.129 166.128 L 372.129 166.128 L 372.129 166.128 Q 385.235 166.128 392.843 157.772 L 392.843 157.772 L 392.843 157.772 Q 400.452 149.416 400.452 134.991 L 400.452 134.991 L 400.452 79.138 L 416.636 79.138 L 416.636 177.65 L 400.452 177.65 L 400.452 162.522 L 400.452 162.522 Q 394.559 171.493 386.774 175.847 L 386.774 175.847 L 386.774 175.847 Q 378.99 180.201 368.699 180.201 L 368.699 180.201 L 368.699 180.201 Q 351.723 180.201 342.927 169.646 L 342.927 169.646 L 342.927 169.646 Q 334.132 159.091 334.132 138.773 Z  M 374.856 76.763 M 512.774 82.04 L 512.774 82.04 L 512.774 97.345 L 512.774 97.345 Q 505.913 93.827 498.524 92.067 L 498.524 92.067 L 498.524 92.067 Q 491.136 90.308 483.22 90.308 L 483.22 90.308 L 483.22 90.308 Q 471.17 90.308 465.145 94.003 L 465.145 94.003 L 465.145 94.003 Q 459.119 97.697 459.119 105.085 L 459.119 105.085 L 459.119 105.085 Q 459.119 110.714 463.429 113.925 L 463.429 113.925 L 463.429 113.925 Q 467.739 117.135 480.757 120.038 L 480.757 120.038 L 486.298 121.269 L 486.298 121.269 Q 503.538 124.964 510.795 131.692 L 510.795 131.692 L 510.795 131.692 Q 518.051 138.421 518.051 150.471 L 518.051 150.471 L 518.051 150.471 Q 518.051 164.193 507.188 172.197 L 507.188 172.197 L 507.188 172.197 Q 496.326 180.201 477.327 180.201 L 477.327 180.201 L 477.327 180.201 Q 469.411 180.201 460.835 178.662 L 460.835 178.662 L 460.835 178.662 Q 452.259 177.122 442.759 174.044 L 442.759 174.044 L 442.759 157.332 L 442.759 157.332 Q 451.731 161.994 460.439 164.325 L 460.439 164.325 L 460.439 164.325 Q 469.147 166.656 477.679 166.656 L 477.679 166.656 L 477.679 166.656 Q 489.113 166.656 495.27 162.741 L 495.27 162.741 L 495.27 162.741 Q 501.427 158.827 501.427 151.703 L 501.427 151.703 L 501.427 151.703 Q 501.427 145.106 496.985 141.588 L 496.985 141.588 L 496.985 141.588 Q 492.543 138.069 477.503 134.815 L 477.503 134.815 L 471.873 133.496 L 471.873 133.496 Q 456.833 130.329 450.148 123.776 L 450.148 123.776 L 450.148 123.776 Q 443.463 117.223 443.463 105.789 L 443.463 105.789 L 443.463 105.789 Q 443.463 91.892 453.314 84.327 L 453.314 84.327 L 453.314 84.327 Q 463.166 76.763 481.285 76.763 L 481.285 76.763 L 481.285 76.763 Q 490.256 76.763 498.173 78.082 L 498.173 78.082 L 498.173 78.082 Q 506.089 79.402 512.774 82.04 Z  M 543.823 177.65 L 543.823 79.138 L 560.007 79.138 L 560.007 177.65 L 543.823 177.65 Z  M 543.823 61.282 L 543.823 40.788 L 560.007 40.788 L 560.007 61.282 L 543.823 61.282 Z  M 664.764 82.92 L 664.764 82.92 L 664.764 98.049 L 664.764 98.049 Q 657.904 94.266 650.999 92.375 L 650.999 92.375 L 650.999 92.375 Q 644.094 90.484 637.058 90.484 L 637.058 90.484 L 637.058 90.484 Q 621.313 90.484 612.605 100.467 L 612.605 100.467 L 612.605 100.467 Q 603.898 110.451 603.898 128.482 L 603.898 128.482 L 603.898 128.482 Q 603.898 146.513 612.605 156.496 L 612.605 156.496 L 612.605 156.496 Q 621.313 166.48 637.058 166.48 L 637.058 166.48 L 637.058 166.48 Q 644.094 166.48 650.999 164.589 L 650.999 164.589 L 650.999 164.589 Q 657.904 162.697 664.764 158.915 L 664.764 158.915 L 664.764 173.868 L 664.764 173.868 Q 657.992 177.035 650.735 178.618 L 650.735 178.618 L 650.735 178.618 Q 643.479 180.201 635.299 180.201 L 635.299 180.201 L 635.299 180.201 Q 613.045 180.201 599.94 166.216 L 599.94 166.216 L 599.94 166.216 Q 586.834 152.23 586.834 128.482 L 586.834 128.482 L 586.834 128.482 Q 586.834 104.382 600.072 90.572 L 600.072 90.572 L 600.072 90.572 Q 613.309 76.763 636.354 76.763 L 636.354 76.763 L 636.354 76.763 Q 643.83 76.763 650.955 78.302 L 650.955 78.302 L 650.955 78.302 Q 658.08 79.841 664.764 82.92 Z " fill="rgb(52,117,215)"/><path d=" M 799.435 122.387 C 799.435 122.322 799.413 122.257 799.391 122.191 C 799.391 122.148 799.37 122.105 799.348 122.083 C 799.326 122.018 799.326 121.975 799.305 121.91 C 799.283 121.866 799.261 121.823 799.261 121.801 C 799.239 121.758 799.218 121.693 799.196 121.65 C 799.174 121.606 799.153 121.585 799.131 121.541 C 799.109 121.498 799.088 121.454 799.044 121.389 C 799.023 121.346 799.001 121.324 798.979 121.281 C 798.958 121.238 798.914 121.194 798.871 121.151 C 798.849 121.129 798.828 121.086 798.784 121.064 L 798.654 120.934 C 798.632 120.912 798.589 120.891 798.567 120.869 L 798.437 120.739 C 798.416 120.717 798.372 120.696 798.351 120.674 C 798.307 120.631 798.242 120.609 798.199 120.566 L 798.069 120.501 L 797.939 120.436 C 797.895 120.414 797.83 120.392 797.787 120.371 C 797.744 120.349 797.7 120.327 797.679 120.327 C 797.614 120.305 797.57 120.284 797.505 120.284 C 797.462 120.284 797.44 120.262 797.397 120.262 C 797.332 120.24 797.267 120.24 797.202 120.24 C 797.158 120.24 797.137 120.219 797.093 120.219 L 796.79 120.219 C 796.725 120.219 796.681 120.219 796.616 120.24 L 796.486 120.24 C 796.443 120.24 796.4 120.262 796.335 120.262 C 796.291 120.262 796.248 120.284 796.204 120.284 L 731.147 135.892 C 729.975 136.174 729.15 137.223 729.153 138.429 L 729.153 200.407 C 726.011 197.374 721.814 195.679 717.447 195.682 C 708.125 195.682 700.537 203.269 700.537 212.591 C 700.537 221.913 708.125 229.5 717.447 229.5 C 726.768 229.5 734.356 221.913 734.356 212.591 L 734.356 162.579 L 794.21 148.206 L 794.21 184.777 C 791.069 181.743 786.871 180.049 782.504 180.051 C 773.182 180.051 765.594 187.639 765.594 196.961 C 765.594 206.282 773.182 213.87 782.504 213.87 C 791.825 213.87 799.413 206.282 799.413 196.961 L 799.413 122.798 C 799.413 122.69 799.413 122.603 799.391 122.495 C 799.435 122.452 799.435 122.43 799.435 122.387 Z " fill="rgb(240,240,240)"/><path d=" M 841.231 134.845 L 804.626 155.979 L 768.021 177.113 C 763.883 179.502 760.523 177.563 760.523 172.785 L 760.523 130.517 L 760.523 88.248 C 760.523 83.47 763.883 81.531 768.021 83.92 L 804.626 105.054 L 841.231 126.188 C 845.369 128.577 845.369 132.456 841.231 134.845 Z " fill="rgb(52,117,215)"/></g></svg>