<?xml version="1.0" encoding="UTF-8"?>
<!-- Generator: Gravit.io -->
<svg width="992pt" height="250pt" style="isolation:isolate" version="1.1" viewBox="0 0 992 250" xmlns="http://www.w3.org/2000/svg">
 <defs>
  <clipPath id="_clipPath_NFd8xi8ZedhI0NglMYdUnyMSAtWkdz8w">
   <rect width="992" height="250"/>
  </clipPath>
 </defs>
 <g clip-path="url(#_clipPath_NFd8xi8ZedhI0NglMYdUnyMSAtWkdz8w)">
  <g stroke="#1a1a1a">
   <path transform="scale(.75)" d="m1030.3 97.238c-20.88 0-37.267 5.9903-49.16 17.971-11.893 11.981-17.84 28.529-17.84 49.641 0 21.053 5.9465 37.569 17.84 49.551 11.893 11.98 28.28 17.971 49.16 17.971 20.937 0 37.338-5.9902 49.203-17.971 11.865-11.981 17.797-28.497 17.797-49.551 0-21.112-5.932-37.659-17.797-49.641-11.865-11.98-28.266-17.971-49.203-17.971zm0 24.34c10.294 0 18.262 3.7798 23.902 11.34 5.6418 7.5609 8.4629 18.205 8.4629 31.932 0 13.668-2.8211 24.281-8.4629 31.842-5.6409 7.56-13.608 11.34-23.902 11.34-10.236 0-18.177-3.7798-23.818-11.34-5.6409-7.5609-8.461-18.174-8.461-31.842 0-13.726 2.8201-24.371 8.461-31.932 5.6417-7.56 13.582-11.34 23.818-11.34z" fill="#f7d11b" stroke-width="6.6667"/>
   <path transform="scale(.75)" d="m822.46 99.594v130.25h35.42c19.541 0 34.196-1.4091 43.967-4.2305 9.7707-2.8204 18.145-7.6049 25.125-14.352 6.1067-5.8738 10.643-12.664 13.609-20.371 2.9662-7.7058 4.4492-16.473 4.4492-26.303 0-9.712-1.483-18.407-4.4492-26.084-2.9662-7.6773-7.5027-14.452-13.609-20.326-6.9209-6.7467-15.223-11.529-24.906-14.35-9.6836-2.8213-24.411-4.2324-44.186-4.2324h-35.42zm33.588 25.387h12.037c13.784 0 24.283 3.3725 31.494 10.119 7.2116 6.7467 10.816 16.575 10.816 29.486 0 12.97-3.6204 22.859-10.861 29.664-7.2409 6.8044-17.724 10.205-31.449 10.205h-12.037v-79.475z" fill="#1fa765" stroke-width="6.6667"/>
   <g stroke-width="5">
    <path d="m504.7 172.38v-97.687h28.134l35.529 67v-67h23.882v97.687h-28.135l-35.529-67v67z" fill="#3065ad"/>
    <path d="m413.17 172.38v-97.687h67.981v19.04h-42.791v18.19h40.239v19.04h-40.239v22.377h44.23v19.04z" fill="#1fa765"/>
    <path d="m310.11 93.735v-19.04h90.031v19.04h-32.388v78.647h-25.19v-78.647z" fill="#3c94c5"/>
    <path d="m209.61 172.38v-97.687h28.135l35.528 67v-67h23.882v97.687h-28.135l-35.528-67v67z" fill="#f7d11b"/>
    <path d="m159.76 172.38v-97.687h25.191v97.687z" fill="#3c94c5"/>
    <path d="m47.61 172.38v-97.687h28.135l35.528 67v-67h23.882v97.687h-28.135l-35.528-67v67z" fill="#e74c31"/>
   </g>
  </g>
  <path d="m866.1 73.131q-4.784 0-7.176 3.102t-2.392 9.307 2.392 9.307 7.176 3.102q4.831 0 7.222-3.102 2.392-3.102 2.392-9.307t-2.392-9.307q-2.391-3.102-7.222-3.102zm22.544-33.96v13.073q-4.499-2.132-8.478-3.15-3.978-1.018-7.767-1.018-8.147 0-12.694 4.523-4.546 4.523-5.304 13.427 3.126-2.32 6.773-3.481 3.647-1.16 7.957-1.16 10.846 0 17.5 6.346 6.655 6.347 6.655 16.625 0 11.367-7.436 18.211t-19.94 6.844q-13.783 0-21.337-9.307-7.555-9.307-7.555-26.405 0-17.524 8.834-27.542 8.833-10.017 24.226-10.017 4.878 0 9.473 0.758 4.594 0.758 9.093 2.273zm45.564 42.769v-29.602l-19.987 29.602h19.987zm-31.355-2.415 28.324-42.201h20.271v44.616h10.089v13.215h-10.089v12.883h-17.24v-12.883h-31.355v-15.63z" fill="#e72d2f"/>
 </g>
</svg>
