<?xml version="1.0" encoding="UTF-8" standalone="no"?><!-- Generator: Gravit.io --><svg xmlns="http://www.w3.org/2000/svg" xmlns:xlink="http://www.w3.org/1999/xlink" style="isolation:isolate" viewBox="0 0 992 250" width="992pt" height="250pt"><defs><clipPath id="_clipPath_O3D65tCgpQuVm0WqrcaE1PlUOabk4XKy"><rect width="992" height="250"/></clipPath></defs><g clip-path="url(#_clipPath_O3D65tCgpQuVm0WqrcaE1PlUOabk4XKy)"><path d=" M 685.67 209.266 L 732.732 68.998 L 732.732 209.266 L 752.934 209.266 L 752.934 41.909 L 723.319 41.909 L 674.65 187.687 L 625.063 41.909 L 595.448 41.909 L 595.448 209.266 L 615.65 209.266 L 615.65 68.998 L 663.172 209.266 L 685.67 209.266 Z  M 814 41.909 L 792.42 41.909 L 792.42 209.266 L 814 209.266 L 814 41.909 Z " fill="rgb(234,234,234)"/><path d=" M 499.896 39.154 C 451.916 39.154 419.317 74.508 419.317 126.85 C 419.317 179.422 451.686 214.547 500.126 214.547 C 520.558 214.547 538.464 208.348 552.009 196.87 C 570.145 181.488 580.935 155.547 580.935 128.228 C 580.935 74.278 549.025 39.154 499.896 39.154 Z  M 499.896 57.979 C 536.169 57.979 559.585 85.298 559.585 127.769 C 559.585 168.173 535.48 195.722 500.126 195.722 C 464.313 195.722 440.667 168.173 440.667 126.85 C 440.667 85.527 464.313 57.979 499.896 57.979 Z " fill="rgb(191,18,12)"/><path d=" M 264.777 39.997 L 244.574 39.997 L 244.574 176.821 L 157.108 39.997 L 133.921 39.997 L 133.921 207.354 L 154.123 207.354 L 154.123 71.678 L 240.672 207.354 L 264.777 207.354 L 264.777 39.997 Z  M 388.745 157.078 L 405.963 207.354 L 429.839 207.354 L 371.068 39.997 L 343.52 39.997 L 307.983 139.172 L 290.134 139.172 L 289.362 157.078 L 301.892 157.078 L 283.831 207.354 L 306.559 207.354 L 324.236 157.078 L 388.745 157.078 Z  M 382.776 139.172 L 329.516 139.172 L 357.064 62.954 L 382.776 139.172 Z " fill="rgb(234,234,234)"/></g></svg>