<?xml version="1.0" encoding="UTF-8" standalone="no"?><!-- Generator: Gravit.io --><svg xmlns="http://www.w3.org/2000/svg" xmlns:xlink="http://www.w3.org/1999/xlink" style="isolation:isolate" viewBox="0 0 992 250" width="992pt" height="250pt"><defs><clipPath id="_clipPath_J7ARLp8Sc7eZux2oAJnDGBRvoVrOFhSd"><rect width="992" height="250"/></clipPath></defs><g clip-path="url(#_clipPath_J7ARLp8Sc7eZux2oAJnDGBRvoVrOFhSd)"><path d=" M 203.6 179.144 L 744.321 179.144 L 744.321 233 L 203.6 233 L 203.6 179.144 Z " fill="rgb(227,121,0)"/><path d=" M 642.287 170.254 L 679.706 58.729 L 679.706 170.254 L 695.768 170.254 L 695.768 37.19 L 672.222 37.19 L 633.526 153.096 L 594.1 37.19 L 570.553 37.19 L 570.553 170.254 L 586.616 170.254 L 586.616 58.729 L 624.399 170.254 L 642.287 170.254 Z  M 744.321 37.19 L 727.163 37.19 L 727.163 170.254 L 744.321 170.254 L 744.321 37.19 Z " fill="rgb(234,234,234)"/><path d=" M 494.582 35 C 456.433 35 430.514 63.109 430.514 104.726 C 430.514 146.525 456.251 174.452 494.764 174.452 C 511.009 174.452 525.246 169.524 536.016 160.397 C 550.435 148.168 559.014 127.542 559.014 105.821 C 559.014 62.927 533.643 35 494.582 35 Z  M 494.582 49.967 C 523.421 49.967 542.039 71.688 542.039 105.456 C 542.039 137.581 522.874 159.485 494.764 159.485 C 466.29 159.485 447.489 137.581 447.489 104.726 C 447.489 71.871 466.29 49.967 494.582 49.967 Z " fill="rgb(227,121,0)"/><path d=" M 307.642 35.67 L 291.579 35.67 L 291.579 144.457 L 222.036 35.67 L 203.6 35.67 L 203.6 168.734 L 219.663 168.734 L 219.663 60.859 L 288.476 168.734 L 307.642 168.734 L 307.642 35.67 Z  M 406.207 128.76 L 419.897 168.734 L 438.88 168.734 L 392.152 35.67 L 370.249 35.67 L 341.994 114.523 L 327.802 114.523 L 327.189 128.76 L 337.151 128.76 L 322.791 168.734 L 340.862 168.734 L 354.917 128.76 L 406.207 128.76 Z  M 401.461 114.523 L 359.115 114.523 L 381.018 53.923 L 401.461 114.523 Z " fill="rgb(234,234,234)"/><path d=" M 529.347 215.192 L 529.347 215.192 L 529.347 215.192 Q 529.347 220.262 524.863 223.278 L 524.863 223.278 L 524.863 223.278 Q 520.378 226.293 512.128 226.293 L 512.128 226.293 L 512.128 226.293 Q 504.73 226.293 498.903 223.998 L 498.903 223.998 L 498.903 216.473 L 498.903 216.473 Q 502.242 217.647 505.811 218.634 L 505.811 218.634 L 505.811 218.634 Q 509.379 219.622 512.914 219.622 L 512.914 219.622 L 512.914 219.622 Q 516.58 219.622 518.119 218.474 L 518.119 218.474 L 518.119 218.474 Q 519.658 217.327 519.658 215.565 L 519.658 215.565 L 519.658 215.565 Q 519.658 214.124 518.446 213.11 L 518.446 213.11 L 518.446 213.11 Q 517.235 212.096 515.206 211.215 L 515.206 211.215 L 515.206 211.215 Q 513.176 210.335 510.557 209.321 L 510.557 209.321 L 510.557 209.321 Q 508.92 208.68 507.022 207.8 L 507.022 207.8 L 507.022 207.8 Q 505.123 206.919 503.388 205.611 L 503.388 205.611 L 503.388 205.611 Q 501.653 204.304 500.54 202.435 L 500.54 202.435 L 500.54 202.435 Q 499.427 200.567 499.427 197.952 L 499.427 197.952 L 499.427 197.952 Q 499.427 192.828 503.683 189.973 L 503.683 189.973 L 503.683 189.973 Q 507.938 187.117 515.271 187.117 L 515.271 187.117 L 515.271 187.117 Q 518.937 187.117 522.244 187.811 L 522.244 187.811 L 522.244 187.811 Q 525.55 188.505 529.151 189.786 L 529.151 189.786 L 525.943 196.084 L 525.943 196.084 Q 522.735 195.017 520.181 194.43 L 520.181 194.43 L 520.181 194.43 Q 517.628 193.842 514.944 193.842 L 514.944 193.842 L 514.944 193.842 Q 512.128 193.842 510.623 194.91 L 510.623 194.91 L 510.623 194.91 Q 509.117 195.977 509.117 197.685 L 509.117 197.685 L 509.117 197.685 Q 509.117 199.713 511.343 200.888 L 511.343 200.888 L 511.343 200.888 Q 513.569 202.062 517.955 203.77 L 517.955 203.77 L 517.955 203.77 Q 521.556 205.158 524.077 206.652 L 524.077 206.652 L 524.077 206.652 Q 526.598 208.146 527.972 210.175 L 527.972 210.175 L 527.972 210.175 Q 529.347 212.203 529.347 215.192 Z  M 542.703 187.651 L 552.393 203.343 L 562.148 187.651 L 572.82 187.651 L 557.303 210.922 L 557.303 225.76 L 547.483 225.76 L 547.483 211.189 L 531.966 187.651 L 542.703 187.651 Z  M 606.275 215.192 L 606.275 215.192 L 606.275 215.192 Q 606.275 220.262 601.791 223.278 L 601.791 223.278 L 601.791 223.278 Q 597.306 226.293 589.057 226.293 L 589.057 226.293 L 589.057 226.293 Q 581.658 226.293 575.831 223.998 L 575.831 223.998 L 575.831 216.473 L 575.831 216.473 Q 579.17 217.647 582.739 218.634 L 582.739 218.634 L 582.739 218.634 Q 586.307 219.622 589.842 219.622 L 589.842 219.622 L 589.842 219.622 Q 593.509 219.622 595.047 218.474 L 595.047 218.474 L 595.047 218.474 Q 596.586 217.327 596.586 215.565 L 596.586 215.565 L 596.586 215.565 Q 596.586 214.124 595.374 213.11 L 595.374 213.11 L 595.374 213.11 Q 594.163 212.096 592.134 211.215 L 592.134 211.215 L 592.134 211.215 Q 590.104 210.335 587.485 209.321 L 587.485 209.321 L 587.485 209.321 Q 585.848 208.68 583.95 207.8 L 583.95 207.8 L 583.95 207.8 Q 582.051 206.919 580.316 205.611 L 580.316 205.611 L 580.316 205.611 Q 578.581 204.304 577.468 202.435 L 577.468 202.435 L 577.468 202.435 Q 576.355 200.567 576.355 197.952 L 576.355 197.952 L 576.355 197.952 Q 576.355 192.828 580.611 189.973 L 580.611 189.973 L 580.611 189.973 Q 584.866 187.117 592.199 187.117 L 592.199 187.117 L 592.199 187.117 Q 595.866 187.117 599.172 187.811 L 599.172 187.811 L 599.172 187.811 Q 602.478 188.505 606.079 189.786 L 606.079 189.786 L 602.871 196.084 L 602.871 196.084 Q 599.663 195.017 597.109 194.43 L 597.109 194.43 L 597.109 194.43 Q 594.556 193.842 591.872 193.842 L 591.872 193.842 L 591.872 193.842 Q 589.057 193.842 587.551 194.91 L 587.551 194.91 L 587.551 194.91 Q 586.045 195.977 586.045 197.685 L 586.045 197.685 L 586.045 197.685 Q 586.045 199.713 588.271 200.888 L 588.271 200.888 L 588.271 200.888 Q 590.497 202.062 594.883 203.77 L 594.883 203.77 L 594.883 203.77 Q 598.484 205.158 601.005 206.652 L 601.005 206.652 L 601.005 206.652 Q 603.526 208.146 604.9 210.175 L 604.9 210.175 L 604.9 210.175 Q 606.275 212.203 606.275 215.192 Z  M 632.791 194.376 L 632.791 225.76 L 622.905 225.76 L 622.905 194.376 L 610.204 194.376 L 610.204 187.651 L 645.492 187.651 L 645.492 194.376 L 632.791 194.376 Z  M 679.603 219.088 L 679.603 225.76 L 652.694 225.76 L 652.694 187.651 L 679.603 187.651 L 679.603 194.269 L 662.58 194.269 L 662.58 202.649 L 678.424 202.649 L 678.424 209.267 L 662.58 209.267 L 662.58 219.088 L 679.603 219.088 Z  M 718.23 225.76 L 709.13 225.76 L 697.869 195.871 L 697.607 195.871 L 697.607 195.871 Q 697.672 196.938 697.803 199.073 L 697.803 199.073 L 697.803 199.073 Q 697.934 201.208 698.065 203.636 L 698.065 203.636 L 698.065 203.636 Q 698.196 206.065 698.196 208.04 L 698.196 208.04 L 698.196 225.76 L 689.358 225.76 L 689.358 187.651 L 702.845 187.651 L 713.909 216.793 L 714.106 216.793 L 725.825 187.651 L 739.312 187.651 L 739.312 225.76 L 730.08 225.76 L 730.08 207.719 L 730.08 207.719 Q 730.08 205.905 730.179 203.556 L 730.179 203.556 L 730.179 203.556 Q 730.277 201.208 730.375 199.1 L 730.375 199.1 L 730.375 199.1 Q 730.473 196.991 730.539 195.924 L 730.539 195.924 L 730.277 195.924 L 718.23 225.76 Z  M 228.509 211.082 L 228.509 204.357 L 247.038 204.357 L 247.038 224.105 L 247.038 224.105 Q 243.371 225.119 239.41 225.706 L 239.41 225.706 L 239.41 225.706 Q 235.449 226.293 230.408 226.293 L 230.408 226.293 L 230.408 226.293 Q 219.933 226.293 214.302 221.276 L 214.302 221.276 L 214.302 221.276 Q 208.672 216.259 208.672 206.652 L 208.672 206.652 L 208.672 206.652 Q 208.672 200.674 211.52 196.298 L 211.52 196.298 L 211.52 196.298 Q 214.368 191.921 219.802 189.519 L 219.802 189.519 L 219.802 189.519 Q 225.236 187.117 233.092 187.117 L 233.092 187.117 L 233.092 187.117 Q 236.824 187.117 240.425 187.758 L 240.425 187.758 L 240.425 187.758 Q 244.026 188.398 246.972 189.466 L 246.972 189.466 L 243.699 195.924 L 243.699 195.924 Q 241.538 195.017 238.788 194.43 L 238.788 194.43 L 238.788 194.43 Q 236.039 193.842 233.027 193.842 L 233.027 193.842 L 233.027 193.842 Q 228.706 193.842 225.53 195.444 L 225.53 195.444 L 225.53 195.444 Q 222.355 197.045 220.62 199.954 L 220.62 199.954 L 220.62 199.954 Q 218.885 202.862 218.885 206.812 L 218.885 206.812 L 218.885 206.812 Q 218.885 210.548 220.129 213.43 L 220.129 213.43 L 220.129 213.43 Q 221.373 216.313 224.057 217.94 L 224.057 217.94 L 224.057 217.94 Q 226.742 219.568 231.063 219.568 L 231.063 219.568 L 231.063 219.568 Q 233.158 219.568 234.631 219.408 L 234.631 219.408 L 234.631 219.408 Q 236.104 219.248 237.348 219.035 L 237.348 219.035 L 237.348 211.082 L 228.509 211.082 Z  M 296.926 206.332 L 296.926 206.332 L 296.926 206.332 Q 296.926 215.992 290.216 220.876 L 290.216 220.876 L 290.216 220.876 Q 283.505 225.76 271.393 225.76 L 271.393 225.76 L 258.168 225.76 L 258.168 187.651 L 272.833 187.651 L 272.833 187.651 Q 280.166 187.651 285.567 189.786 L 285.567 189.786 L 285.567 189.786 Q 290.968 191.921 293.947 196.057 L 293.947 196.057 L 293.947 196.057 Q 296.926 200.194 296.926 206.332 Z  M 286.647 206.545 L 286.647 206.545 L 286.647 206.545 Q 286.647 200.194 283.243 197.232 L 283.243 197.232 L 283.243 197.232 Q 279.838 194.269 273.357 194.269 L 273.357 194.269 L 268.054 194.269 L 268.054 219.088 L 272.309 219.088 L 272.309 219.088 Q 286.647 219.088 286.647 206.545 Z  M 319.841 214.711 L 302.688 214.711 L 302.688 208.2 L 319.841 208.2 L 319.841 214.711 Z  M 327.698 187.651 L 341.315 187.651 L 341.315 187.651 Q 350.874 187.651 355.424 190.48 L 355.424 190.48 L 355.424 190.48 Q 359.975 193.309 359.975 199.073 L 359.975 199.073 L 359.975 199.073 Q 359.975 201.688 358.763 203.636 L 358.763 203.636 L 358.763 203.636 Q 357.552 205.585 355.555 206.946 L 355.555 206.946 L 355.555 206.946 Q 353.558 208.307 351.267 209.161 L 351.267 209.161 L 365.016 225.76 L 354.017 225.76 L 342.887 211.135 L 337.584 211.135 L 337.584 225.76 L 327.698 225.76 L 327.698 187.651 Z  M 340.595 194.269 L 340.595 194.269 L 337.584 194.269 L 337.584 204.57 L 340.792 204.57 L 340.792 204.57 Q 345.702 204.57 347.83 203.236 L 347.83 203.236 L 347.83 203.236 Q 349.958 201.902 349.958 199.286 L 349.958 199.286 L 349.958 199.286 Q 349.958 196.564 347.699 195.417 L 347.699 195.417 L 347.699 195.417 Q 345.44 194.269 340.595 194.269 Z  M 413.333 206.652 L 413.333 206.652 L 413.333 206.652 Q 413.333 212.576 410.944 216.98 L 410.944 216.98 L 410.944 216.98 Q 408.554 221.383 403.644 223.838 L 403.644 223.838 L 403.644 223.838 Q 398.733 226.293 391.073 226.293 L 391.073 226.293 L 391.073 226.293 Q 383.479 226.293 378.536 223.838 L 378.536 223.838 L 378.536 223.838 Q 373.592 221.383 371.203 216.953 L 371.203 216.953 L 371.203 216.953 Q 368.813 212.523 368.813 206.599 L 368.813 206.599 L 368.813 206.599 Q 368.813 200.674 371.203 196.298 L 371.203 196.298 L 371.203 196.298 Q 373.592 191.921 378.536 189.492 L 378.536 189.492 L 378.536 189.492 Q 383.479 187.064 391.139 187.064 L 391.139 187.064 L 391.139 187.064 Q 398.733 187.064 403.644 189.492 L 403.644 189.492 L 403.644 189.492 Q 408.554 191.921 410.944 196.324 L 410.944 196.324 L 410.944 196.324 Q 413.333 200.728 413.333 206.652 Z  M 379.223 206.652 L 379.223 206.652 L 379.223 206.652 Q 379.223 212.63 382.038 216.072 L 382.038 216.072 L 382.038 216.072 Q 384.853 219.515 391.073 219.515 L 391.073 219.515 L 391.073 219.515 Q 397.424 219.515 400.174 216.072 L 400.174 216.072 L 400.174 216.072 Q 402.923 212.63 402.923 206.652 L 402.923 206.652 L 402.923 206.652 Q 402.923 200.621 400.174 197.205 L 400.174 197.205 L 400.174 197.205 Q 397.424 193.789 391.139 193.789 L 391.139 193.789 L 391.139 193.789 Q 384.853 193.789 382.038 197.205 L 382.038 197.205 L 382.038 197.205 Q 379.223 200.621 379.223 206.652 Z  M 451.895 225.76 L 442.795 225.76 L 431.534 195.871 L 431.272 195.871 L 431.272 195.871 Q 431.338 196.938 431.469 199.073 L 431.469 199.073 L 431.469 199.073 Q 431.6 201.208 431.73 203.636 L 431.73 203.636 L 431.73 203.636 Q 431.861 206.065 431.861 208.04 L 431.861 208.04 L 431.861 225.76 L 423.023 225.76 L 423.023 187.651 L 436.51 187.651 L 447.574 216.793 L 447.771 216.793 L 459.49 187.651 L 472.977 187.651 L 472.977 225.76 L 463.746 225.76 L 463.746 207.719 L 463.746 207.719 Q 463.746 205.905 463.844 203.556 L 463.844 203.556 L 463.844 203.556 Q 463.942 201.208 464.04 199.1 L 464.04 199.1 L 464.04 199.1 Q 464.138 196.991 464.204 195.924 L 464.204 195.924 L 463.942 195.924 L 451.895 225.76 Z " fill="rgb(255,255,255)"/></g></svg>