<?xml version="1.0" encoding="UTF-8" standalone="no"?><!-- Generator: Gravit.io --><svg xmlns="http://www.w3.org/2000/svg" xmlns:xlink="http://www.w3.org/1999/xlink" style="isolation:isolate" viewBox="0 0 992 250" width="992pt" height="250pt"><defs><clipPath id="_clipPath_7v68COcaTdXmWakUFgftTf1kg8ufYr20"><rect width="992" height="250"/></clipPath></defs><g clip-path="url(#_clipPath_7v68COcaTdXmWakUFgftTf1kg8ufYr20)"><path d=" M 77.245 60.089 L 77.245 121.882 L 64.975 121.882 L 14.438 70.021 L 13.932 70.021 L 13.932 70.021 Q 14.944 79.151 14.944 86.759 L 14.944 86.759 L 14.944 121.882 L 5.014 121.882 L 5.014 60.089 L 17.158 60.089 L 67.568 111.738 L 68.074 111.738 L 68.074 111.738 Q 67.948 110.597 67.505 104.405 L 67.505 104.405 L 67.505 104.405 Q 67.062 98.213 67.189 95.55 L 67.189 95.55 L 67.189 60.089 L 77.245 60.089 Z  M 113.424 121.882 L 102.672 121.882 L 102.672 60.089 L 113.424 60.089 L 113.424 121.882 Z  M 211.018 60.089 L 211.018 121.882 L 198.748 121.882 L 148.211 70.021 L 147.705 70.021 L 147.705 70.021 Q 148.717 79.151 148.717 86.759 L 148.717 86.759 L 148.717 121.882 L 138.787 121.882 L 138.787 60.089 L 150.931 60.089 L 201.341 111.738 L 201.847 111.738 L 201.847 111.738 Q 201.72 110.597 201.278 104.405 L 201.278 104.405 L 201.278 104.405 Q 200.835 98.213 200.961 95.55 L 200.961 95.55 L 200.961 60.089 L 211.018 60.089 Z  M 264.907 66.471 L 264.907 121.882 L 254.154 121.882 L 254.154 66.471 L 224.87 66.471 L 224.87 60.089 L 294.191 60.089 L 294.191 66.471 L 264.907 66.471 Z  M 359.655 115.457 L 359.655 121.882 L 308.106 121.882 L 308.106 60.089 L 359.655 60.089 L 359.655 66.471 L 318.859 66.471 L 318.859 86.378 L 357.188 86.378 L 357.188 92.718 L 318.859 92.718 L 318.859 115.457 L 359.655 115.457 Z  M 452.378 60.089 L 452.378 121.882 L 440.108 121.882 L 389.572 70.021 L 389.066 70.021 L 389.066 70.021 Q 390.078 79.151 390.078 86.759 L 390.078 86.759 L 390.078 121.882 L 380.147 121.882 L 380.147 60.089 L 392.291 60.089 L 442.701 111.738 L 443.207 111.738 L 443.207 111.738 Q 443.081 110.597 442.638 104.405 L 442.638 104.405 L 442.638 104.405 Q 442.195 98.213 442.322 95.55 L 442.322 95.55 L 442.322 60.089 L 452.378 60.089 Z  M 551.617 90.394 L 551.617 90.394 L 551.617 90.394 Q 551.617 105.694 539.188 113.788 L 539.188 113.788 L 539.188 113.788 Q 526.76 121.882 503.421 121.882 L 503.421 121.882 L 477.805 121.882 L 477.805 60.089 L 506.14 60.089 L 506.14 60.089 Q 527.709 60.089 539.663 68.077 L 539.663 68.077 L 539.663 68.077 Q 551.617 76.065 551.617 90.394 Z  M 540.232 90.647 L 540.232 90.647 L 540.232 90.647 Q 540.232 78.559 531.156 72.43 L 531.156 72.43 L 531.156 72.43 Q 522.079 66.302 504.18 66.302 L 504.18 66.302 L 488.557 66.302 L 488.557 115.669 L 501.65 115.669 L 501.65 115.669 Q 520.878 115.669 530.555 109.35 L 530.555 109.35 L 530.555 109.35 Q 540.232 103.031 540.232 90.647 Z " fill="rgb(234,234,234)"/><path d=" M 828.405 127.561 L 828.405 127.561 L 828.405 127.561 Q 828.405 162.815 800.366 181.565 L 800.366 181.565 L 800.366 181.565 Q 772.326 200.315 719.386 200.315 L 719.386 200.315 L 662.897 200.315 L 662.897 57.542 L 725.526 57.542 L 725.526 57.542 Q 774.373 57.542 801.389 75.999 L 801.389 75.999 L 801.389 75.999 Q 828.405 94.456 828.405 127.561 Z  M 784.47 128.343 L 784.47 128.343 L 784.47 128.343 Q 784.47 82.346 727.709 82.346 L 727.709 82.346 L 705.195 82.346 L 705.195 175.315 L 723.343 175.315 L 723.343 175.315 Q 784.47 175.315 784.47 128.343 Z  M 987.5 160.667 L 987.5 160.667 L 987.5 160.667 Q 987.5 180.003 968.057 191.135 L 968.057 191.135 L 968.057 191.135 Q 948.613 202.268 913.956 202.268 L 913.956 202.268 L 913.956 202.268 Q 882.028 202.268 857.468 193.675 L 857.468 193.675 L 857.468 165.55 L 857.468 165.55 Q 877.662 171.995 891.647 174.632 L 891.647 174.632 L 891.647 174.632 Q 905.633 177.268 917.231 177.268 L 917.231 177.268 L 917.231 177.268 Q 931.148 177.268 938.584 173.46 L 938.584 173.46 L 938.584 173.46 Q 946.021 169.651 946.021 162.132 L 946.021 162.132 L 946.021 162.132 Q 946.021 157.932 942.746 154.661 L 942.746 154.661 L 942.746 154.661 Q 939.471 151.389 933.127 148.362 L 933.127 148.362 L 933.127 148.362 Q 926.782 145.335 907.27 138.694 L 907.27 138.694 L 907.27 138.694 Q 888.987 132.542 879.845 126.878 L 879.845 126.878 L 879.845 126.878 Q 870.703 121.214 865.245 113.694 L 865.245 113.694 L 865.245 113.694 Q 859.787 106.175 859.787 96.116 L 859.787 96.116 L 859.787 96.116 Q 859.787 77.171 877.73 66.331 L 877.73 66.331 L 877.73 66.331 Q 895.673 55.491 927.328 55.491 L 927.328 55.491 L 927.328 55.491 Q 942.882 55.491 957.005 58.128 L 957.005 58.128 L 957.005 58.128 Q 971.127 60.764 986.545 65.55 L 986.545 65.55 L 972.9 89.085 L 972.9 89.085 Q 956.936 84.397 946.498 82.542 L 946.498 82.542 L 946.498 82.542 Q 936.06 80.686 925.963 80.686 L 925.963 80.686 L 925.963 80.686 Q 913.956 80.686 907.543 84.69 L 907.543 84.69 L 907.543 84.69 Q 901.13 88.694 901.13 95.139 L 901.13 95.139 L 901.13 95.139 Q 901.13 99.143 903.723 102.122 L 903.723 102.122 L 903.723 102.122 Q 906.315 105.1 911.978 107.884 L 911.978 107.884 L 911.978 107.884 Q 917.64 110.667 938.789 117.893 L 938.789 117.893 L 938.789 117.893 Q 966.76 127.464 977.13 137.083 L 977.13 137.083 L 977.13 137.083 Q 987.5 146.702 987.5 160.667 Z " fill="rgb(234,234,234)"/><path d=" M 580.27 133 L 632.23 133 C 639.83 133 646 139.17 646 146.77 L 646 185.23 C 646 192.83 639.83 199 632.23 199 L 580.27 199 C 572.67 199 566.5 192.83 566.5 185.23 L 566.5 146.77 C 566.5 139.17 572.67 133 580.27 133 Z  M 580.27 143 L 632.23 143 C 633.23 143 634.19 143.4 634.9 144.1 C 635.6 144.81 636 145.77 636 146.77 L 636 185.23 C 636 186.23 635.6 187.19 634.9 187.9 C 634.19 188.6 633.23 189 632.23 189 L 580.27 189 C 579.27 189 578.31 188.6 577.6 187.9 C 576.9 187.19 576.5 186.23 576.5 185.23 L 576.5 146.77 C 576.5 145.77 576.9 144.81 577.6 144.1 C 578.31 143.4 579.27 143 580.27 143 Z " fill-rule="evenodd" fill="rgb(132,132,132)"/><path d=" M 580.27 57.985 L 632.23 57.985 C 639.83 57.985 646 64.156 646 71.756 L 646 110.215 C 646 117.815 639.83 123.985 632.23 123.985 L 580.27 123.985 C 572.67 123.985 566.5 117.815 566.5 110.215 L 566.5 71.756 C 566.5 64.156 572.67 57.985 580.27 57.985 Z  M 580.27 67.99 L 632.23 67.99 C 633.23 67.99 634.19 68.38 634.9 69.09 C 635.6 69.8 636 70.76 636 71.76 L 636 110.21 C 636 111.21 635.6 112.17 634.9 112.88 C 634.19 113.59 633.23 113.99 632.23 113.99 L 580.27 113.99 C 579.27 113.99 578.31 113.59 577.6 112.88 C 576.9 112.17 576.5 111.21 576.5 110.21 L 576.5 71.76 C 576.5 70.76 576.9 69.8 577.6 69.09 C 578.31 68.38 579.27 67.99 580.27 67.99 Z " fill-rule="evenodd" fill="rgb(234,234,234)"/></g></svg>