<?xml version="1.0" encoding="UTF-8" standalone="no"?><!-- Generator: Gravit.io --><svg xmlns="http://www.w3.org/2000/svg" xmlns:xlink="http://www.w3.org/1999/xlink" style="isolation:isolate" viewBox="0 0 992 250" width="992pt" height="250pt"><defs><clipPath id="_clipPath_6mJdlhewgQb4E8zyWlnm85j06dlwekBV"><rect width="992" height="250"/></clipPath></defs><g clip-path="url(#_clipPath_6mJdlhewgQb4E8zyWlnm85j06dlwekBV)"><path d=" M 867.952 53.75 L 871.086 53.75 L 871.086 101.86 L 867.952 101.86 L 867.952 101.86 Q 864.417 83.025 854.776 72.994 L 854.776 72.994 L 854.776 72.994 Q 845.135 62.962 832.924 62.962 L 832.924 62.962 L 832.924 62.962 Q 822.72 62.962 814.204 70.435 L 814.204 70.435 L 814.204 70.435 Q 805.688 77.907 801.751 89.986 L 801.751 89.986 L 801.751 89.986 Q 796.689 105.442 796.689 124.379 L 796.689 124.379 L 796.689 124.379 Q 796.689 143.009 800.385 158.312 L 800.385 158.312 L 800.385 158.312 Q 804.081 173.615 811.954 181.445 L 811.954 181.445 L 811.954 181.445 Q 819.828 189.276 832.361 189.276 L 832.361 189.276 L 832.361 189.276 Q 842.645 189.276 851.201 183.544 L 851.201 183.544 L 851.201 183.544 Q 859.758 177.811 869.238 163.788 L 869.238 163.788 L 869.238 175.764 L 869.238 175.764 Q 860.079 187.945 850.157 193.421 L 850.157 193.421 L 850.157 193.421 Q 840.235 198.898 826.978 198.898 L 826.978 198.898 L 826.978 198.898 Q 809.544 198.898 796.007 189.992 L 796.007 189.992 L 796.007 189.992 Q 782.469 181.087 775.118 164.402 L 775.118 164.402 L 775.118 164.402 Q 767.766 147.717 767.766 128.883 L 767.766 128.883 L 767.766 128.883 Q 767.766 109.025 775.921 91.214 L 775.921 91.214 L 775.921 91.214 Q 784.076 73.403 797.935 63.577 L 797.935 63.577 L 797.935 63.577 Q 811.794 53.75 827.38 53.75 L 827.38 53.75 L 827.38 53.75 Q 838.869 53.75 851.643 60.096 L 851.643 60.096 L 851.643 60.096 Q 859.035 63.781 861.043 63.781 L 861.043 63.781 L 861.043 63.781 Q 863.614 63.781 865.502 61.376 L 865.502 61.376 L 865.502 61.376 Q 867.39 58.97 867.952 53.75 L 867.952 53.75 Z  M 931.021 195.724 L 882.253 195.724 L 882.253 191.937 L 885.869 191.937 L 885.869 191.937 Q 890.609 191.937 893.14 190.043 L 893.14 190.043 L 893.14 190.043 Q 895.67 188.15 896.875 184.874 L 896.875 184.874 L 896.875 184.874 Q 897.599 182.725 897.599 171.977 L 897.599 171.977 L 897.599 80.671 L 897.599 80.671 Q 897.599 70.025 896.715 67.364 L 896.715 67.364 L 896.715 67.364 Q 895.831 64.703 893.14 62.707 L 893.14 62.707 L 893.14 62.707 Q 890.448 60.711 885.869 60.711 L 885.869 60.711 L 882.253 60.711 L 882.253 56.923 L 931.021 56.923 L 931.021 56.923 Q 950.544 56.923 962.434 63.679 L 962.434 63.679 L 962.434 63.679 Q 976.976 71.97 984.488 88.757 L 984.488 88.757 L 984.488 88.757 Q 992 105.545 992 126.733 L 992 126.733 L 992 126.733 Q 992 141.371 988.304 153.705 L 988.304 153.705 L 988.304 153.705 Q 984.609 166.04 978.744 174.075 L 978.744 174.075 L 978.744 174.075 Q 972.879 182.11 965.206 186.973 L 965.206 186.973 L 965.206 186.973 Q 957.533 191.835 946.446 194.496 L 946.446 194.496 L 946.446 194.496 Q 941.545 195.724 931.021 195.724 L 931.021 195.724 Z  M 923.79 64.805 L 923.79 64.805 L 923.79 173.103 L 923.79 173.103 Q 923.79 181.701 924.433 183.646 L 924.433 183.646 L 924.433 183.646 Q 925.075 185.591 926.602 186.614 L 926.602 186.614 L 926.602 186.614 Q 928.771 188.15 932.869 188.15 L 932.869 188.15 L 932.869 188.15 Q 946.286 188.15 953.356 176.481 L 953.356 176.481 L 953.356 176.481 Q 962.997 160.717 962.997 127.552 L 962.997 127.552 L 962.997 127.552 Q 962.997 100.836 956.409 84.868 L 956.409 84.868 L 956.409 84.868 Q 951.186 72.38 942.992 67.876 L 942.992 67.876 L 942.992 67.876 Q 937.207 64.703 923.79 64.805 Z " fill="rgb(234,234,234)"/><path d=" M 506.094 53.75 L 509.066 53.75 L 509.066 102.678 L 506.094 102.678 L 506.094 102.678 Q 500.711 82.616 489.945 72.175 L 489.945 72.175 L 489.945 72.175 Q 479.179 61.734 466.405 61.734 L 466.405 61.734 L 466.405 61.734 Q 454.193 61.734 446.078 70.486 L 446.078 70.486 L 446.078 70.486 Q 437.964 79.238 434.59 94.899 L 434.59 94.899 L 434.59 94.899 Q 431.215 110.56 431.215 127.04 L 431.215 127.04 L 431.215 127.04 Q 431.215 147.001 434.911 162.048 L 434.911 162.048 L 434.911 162.048 Q 438.607 177.095 446.842 184.158 L 446.842 184.158 L 446.842 184.158 Q 455.077 191.221 466.405 191.221 L 466.405 191.221 L 466.405 191.221 Q 470.342 191.221 474.479 190.146 L 474.479 190.146 L 474.479 190.146 Q 478.617 189.071 482.955 187.024 L 482.955 187.024 L 482.955 158.158 L 482.955 158.158 Q 482.955 149.969 482.071 147.564 L 482.071 147.564 L 482.071 147.564 Q 481.188 145.158 478.416 143.213 L 478.416 143.213 L 478.416 143.213 Q 475.644 141.269 471.707 141.269 L 471.707 141.269 L 468.895 141.269 L 468.895 137.481 L 521.841 137.481 L 521.841 141.269 L 521.841 141.269 Q 515.815 141.78 513.445 143.367 L 513.445 143.367 L 513.445 143.367 Q 511.075 144.953 509.789 148.638 L 509.789 148.638 L 509.789 148.638 Q 509.066 150.583 509.066 158.158 L 509.066 158.158 L 509.066 187.024 L 509.066 187.024 Q 498.622 192.961 487.334 195.98 L 487.334 195.98 L 487.334 195.98 Q 476.046 199 463.914 199 L 463.914 199 L 463.914 199 Q 448.408 199 438.165 193.626 L 438.165 193.626 L 438.165 193.626 Q 427.921 188.252 420.088 179.5 L 420.088 179.5 L 420.088 179.5 Q 412.255 170.748 407.836 159.796 L 407.836 159.796 L 407.836 159.796 Q 402.212 145.67 402.212 128.166 L 402.212 128.166 L 402.212 128.166 Q 402.212 96.844 419.485 75.246 L 419.485 75.246 L 419.485 75.246 Q 436.759 53.648 462.95 53.648 L 462.95 53.648 L 462.95 53.648 Q 471.065 53.648 477.572 55.285 L 477.572 55.285 L 477.572 55.285 Q 481.107 56.104 489.021 59.943 L 489.021 59.943 L 489.021 59.943 Q 496.935 63.781 498.381 63.781 L 498.381 63.781 L 498.381 63.781 Q 500.63 63.781 502.559 61.683 L 502.559 61.683 L 502.559 61.683 Q 504.487 59.585 506.094 53.75 L 506.094 53.75 Z  M 579.606 64.907 L 568.358 64.907 L 568.358 121.411 L 570.528 121.411 L 570.528 121.411 Q 580.892 121.411 585.552 113.119 L 585.552 113.119 L 585.552 113.119 Q 590.211 104.828 591.497 88.655 L 591.497 88.655 L 594.55 88.655 L 594.55 161.331 L 591.497 161.331 L 591.497 161.331 Q 590.533 149.457 587.44 141.883 L 587.44 141.883 L 587.44 141.883 Q 584.346 134.308 580.249 131.698 L 580.249 131.698 L 580.249 131.698 Q 576.152 129.088 568.358 129.088 L 568.358 129.088 L 568.358 168.189 L 568.358 168.189 Q 568.358 179.654 569.122 182.213 L 569.122 182.213 L 569.122 182.213 Q 569.885 184.772 571.974 186.41 L 571.974 186.41 L 571.974 186.41 Q 574.063 188.047 578.722 188.047 L 578.722 188.047 L 585.23 188.047 L 585.23 188.047 Q 600.495 188.047 609.694 179.04 L 609.694 179.04 L 609.694 179.04 Q 618.893 170.032 622.91 151.607 L 622.91 151.607 L 625.883 151.607 L 620.982 195.724 L 526.822 195.724 L 526.822 191.937 L 530.437 191.937 L 530.437 191.937 Q 535.177 191.937 538.07 189.788 L 538.07 189.788 L 538.07 189.788 Q 540.158 188.354 541.283 184.874 L 541.283 184.874 L 541.283 184.874 Q 542.167 182.418 542.167 171.977 L 542.167 171.977 L 542.167 80.671 L 542.167 80.671 Q 542.167 71.254 541.765 69.104 L 541.765 69.104 L 541.765 69.104 Q 540.962 65.522 538.793 63.577 L 538.793 63.577 L 538.793 63.577 Q 535.74 60.711 530.437 60.711 L 530.437 60.711 L 526.822 60.711 L 526.822 56.923 L 618.01 56.923 L 618.01 97.97 L 614.957 97.97 L 614.957 97.97 Q 612.627 82.923 608.409 76.372 L 608.409 76.372 L 608.409 76.372 Q 604.191 69.821 596.478 66.75 L 596.478 66.75 L 596.478 66.75 Q 591.979 64.907 579.606 64.907 L 579.606 64.907 Z  M 696.825 54.978 L 696.825 54.978 L 696.825 54.978 Q 722.855 53.75 739.125 74.325 L 739.125 74.325 L 739.125 74.325 Q 755.394 94.899 755.394 125.812 L 755.394 125.812 L 755.394 125.812 Q 755.394 152.221 743.262 172.284 L 743.262 172.284 L 743.262 172.284 Q 727.194 198.898 697.869 198.898 L 697.869 198.898 L 697.869 198.898 Q 668.464 198.898 652.396 173.512 L 652.396 173.512 L 652.396 173.512 Q 639.702 153.449 639.702 125.914 L 639.702 125.914 L 639.702 125.914 Q 639.702 95.001 656.212 74.376 L 656.212 74.376 L 656.212 74.376 Q 672.722 53.75 696.825 54.978 Z  M 697.789 61.529 L 697.789 61.529 L 697.789 61.529 Q 682.845 61.529 675.052 80.978 L 675.052 80.978 L 675.052 80.978 Q 668.705 96.946 668.705 126.836 L 668.705 126.836 L 668.705 126.836 Q 668.705 162.355 678.507 179.347 L 678.507 179.347 L 678.507 179.347 Q 685.336 191.221 697.628 191.221 L 697.628 191.221 L 697.628 191.221 Q 705.903 191.221 711.447 186.103 L 711.447 186.103 L 711.447 186.103 Q 718.517 179.551 722.454 165.17 L 722.454 165.17 L 722.454 165.17 Q 726.39 150.788 726.39 127.655 L 726.39 127.655 L 726.39 127.655 Q 726.39 100.119 722.373 86.454 L 722.373 86.454 L 722.373 86.454 Q 718.356 72.789 712.13 67.159 L 712.13 67.159 L 712.13 67.159 Q 705.903 61.529 697.789 61.529 Z " fill="rgb(255,231,0)"/><path d=" M 0.182 56.923 L 38.827 56.923 L 92.575 143.009 L 92.575 83.332 L 92.575 83.332 Q 92.575 70.844 89.763 66.443 L 89.763 66.443 L 89.763 66.443 Q 85.907 60.506 76.828 60.711 L 76.828 60.711 L 76.828 56.923 L 112.821 56.923 L 112.821 60.711 L 112.821 60.711 Q 105.912 61.837 103.542 63.628 L 103.542 63.628 L 103.542 63.628 Q 101.172 65.419 99.846 69.462 L 99.846 69.462 L 99.846 69.462 Q 98.52 73.506 98.52 83.332 L 98.52 83.332 L 98.52 198.898 L 95.789 198.898 L 22.115 83.332 L 22.115 171.567 L 22.115 171.567 Q 22.115 183.544 26.414 187.74 L 26.414 187.74 L 26.414 187.74 Q 30.712 191.937 36.256 191.937 L 36.256 191.937 L 38.827 191.937 L 38.827 195.724 L 0.182 195.724 L 0.182 191.937 L 0.182 191.937 Q 9.18 191.835 12.715 187.229 L 12.715 187.229 L 12.715 187.229 Q 16.25 182.622 16.25 171.567 L 16.25 171.567 L 16.25 73.608 L 13.921 69.923 L 13.921 69.923 Q 10.466 64.396 7.815 62.655 L 7.815 62.655 L 7.815 62.655 Q 5.163 60.915 0.182 60.711 L 0.182 60.711 L 0.182 56.923 Z  M 172.756 64.907 L 161.508 64.907 L 161.508 121.411 L 163.677 121.411 L 163.677 121.411 Q 174.042 121.411 178.701 113.119 L 178.701 113.119 L 178.701 113.119 Q 183.361 104.828 184.647 88.655 L 184.647 88.655 L 187.7 88.655 L 187.7 161.331 L 184.647 161.331 L 184.647 161.331 Q 183.683 149.457 180.589 141.883 L 180.589 141.883 L 180.589 141.883 Q 177.496 134.308 173.399 131.698 L 173.399 131.698 L 173.399 131.698 Q 169.301 129.088 161.508 129.088 L 161.508 129.088 L 161.508 168.189 L 161.508 168.189 Q 161.508 179.654 162.271 182.213 L 162.271 182.213 L 162.271 182.213 Q 163.035 184.772 165.124 186.41 L 165.124 186.41 L 165.124 186.41 Q 167.212 188.047 171.872 188.047 L 171.872 188.047 L 178.38 188.047 L 178.38 188.047 Q 193.645 188.047 202.844 179.04 L 202.844 179.04 L 202.844 179.04 Q 212.043 170.032 216.06 151.607 L 216.06 151.607 L 219.033 151.607 L 214.132 195.724 L 119.972 195.724 L 119.972 191.937 L 123.587 191.937 L 123.587 191.937 Q 128.327 191.937 131.219 189.788 L 131.219 189.788 L 131.219 189.788 Q 133.308 188.354 134.433 184.874 L 134.433 184.874 L 134.433 184.874 Q 135.317 182.418 135.317 171.977 L 135.317 171.977 L 135.317 80.671 L 135.317 80.671 Q 135.317 71.254 134.915 69.104 L 134.915 69.104 L 134.915 69.104 Q 134.112 65.522 131.942 63.577 L 131.942 63.577 L 131.942 63.577 Q 128.89 60.711 123.587 60.711 L 123.587 60.711 L 119.972 60.711 L 119.972 56.923 L 211.159 56.923 L 211.159 97.97 L 208.106 97.97 L 208.106 97.97 Q 205.776 82.923 201.559 76.372 L 201.559 76.372 L 201.559 76.372 Q 197.341 69.821 189.628 66.75 L 189.628 66.75 L 189.628 66.75 Q 185.129 64.907 172.756 64.907 L 172.756 64.907 Z  M 289.975 54.978 L 289.975 54.978 L 289.975 54.978 Q 316.005 53.75 332.274 74.325 L 332.274 74.325 L 332.274 74.325 Q 348.544 94.899 348.544 125.812 L 348.544 125.812 L 348.544 125.812 Q 348.544 152.221 336.412 172.284 L 336.412 172.284 L 336.412 172.284 Q 320.344 198.898 291.019 198.898 L 291.019 198.898 L 291.019 198.898 Q 261.614 198.898 245.546 173.512 L 245.546 173.512 L 245.546 173.512 Q 232.852 153.449 232.852 125.914 L 232.852 125.914 L 232.852 125.914 Q 232.852 95.001 249.362 74.376 L 249.362 74.376 L 249.362 74.376 Q 265.872 53.75 289.975 54.978 Z  M 290.939 61.529 L 290.939 61.529 L 290.939 61.529 Q 275.995 61.529 268.202 80.978 L 268.202 80.978 L 268.202 80.978 Q 261.855 96.946 261.855 126.836 L 261.855 126.836 L 261.855 126.836 Q 261.855 162.355 271.657 179.347 L 271.657 179.347 L 271.657 179.347 Q 278.486 191.221 290.778 191.221 L 290.778 191.221 L 290.778 191.221 Q 299.053 191.221 304.597 186.103 L 304.597 186.103 L 304.597 186.103 Q 311.667 179.551 315.604 165.17 L 315.604 165.17 L 315.604 165.17 Q 319.54 150.788 319.54 127.655 L 319.54 127.655 L 319.54 127.655 Q 319.54 100.119 315.523 86.454 L 315.523 86.454 L 315.523 86.454 Q 311.506 72.789 305.28 67.159 L 305.28 67.159 L 305.28 67.159 Q 299.053 61.529 290.939 61.529 Z " fill="rgb(2,138,230)"/><path d=" M 365.604 127.647 C 365.604 119.958 370.503 113.715 376.538 113.715 C 382.573 113.715 387.473 119.958 387.473 127.647 C 387.473 135.336 382.573 141.578 376.538 141.578 C 370.503 141.578 365.604 135.336 365.604 127.647 Z " fill="rgb(234,234,234)"/></g></svg>