<?xml version="1.0" encoding="UTF-8" standalone="no"?><!-- Generator: Gravit.io --><svg xmlns="http://www.w3.org/2000/svg" xmlns:xlink="http://www.w3.org/1999/xlink" style="isolation:isolate" viewBox="0 0 992 250" width="992pt" height="250pt"><defs><clipPath id="_clipPath_n5EbfY0H9Qu9xUsAeOw8H59Mbp8X5SxR"><rect width="992" height="250"/></clipPath></defs><g clip-path="url(#_clipPath_n5EbfY0H9Qu9xUsAeOw8H59Mbp8X5SxR)"><path d=" M 660.306 52.613 L 664.154 52.613 L 664.154 102.327 L 660.306 102.327 L 660.306 102.327 Q 653.338 81.942 639.401 71.334 L 639.401 71.334 L 639.401 71.334 Q 625.465 60.726 608.928 60.726 L 608.928 60.726 L 608.928 60.726 Q 593.12 60.726 582.615 69.618 L 582.615 69.618 L 582.615 69.618 Q 572.111 78.51 567.743 94.423 L 567.743 94.423 L 567.743 94.423 Q 563.375 110.335 563.375 127.08 L 563.375 127.08 L 563.375 127.08 Q 563.375 147.361 568.159 162.649 L 568.159 162.649 L 568.159 162.649 Q 572.943 177.938 583.603 185.114 L 583.603 185.114 L 583.603 185.114 Q 594.264 192.291 608.928 192.291 L 608.928 192.291 L 608.928 192.291 Q 614.024 192.291 619.381 191.198 L 619.381 191.198 L 619.381 191.198 Q 624.737 190.106 630.353 188.026 L 630.353 188.026 L 630.353 158.697 L 630.353 158.697 Q 630.353 150.377 629.209 147.933 L 629.209 147.933 L 629.209 147.933 Q 628.065 145.489 624.477 143.513 L 624.477 143.513 L 624.477 143.513 Q 620.889 141.537 615.792 141.537 L 615.792 141.537 L 612.152 141.537 L 612.152 137.688 L 680.691 137.688 L 680.691 141.537 L 680.691 141.537 Q 672.891 142.057 669.823 143.669 L 669.823 143.669 L 669.823 143.669 Q 666.754 145.281 665.09 149.025 L 665.09 149.025 L 665.09 149.025 Q 664.154 151.001 664.154 158.697 L 664.154 158.697 L 664.154 188.026 L 664.154 188.026 Q 650.634 194.059 636.021 197.127 L 636.021 197.127 L 636.021 197.127 Q 621.409 200.195 605.704 200.195 L 605.704 200.195 L 605.704 200.195 Q 585.631 200.195 572.371 194.735 L 572.371 194.735 L 572.371 194.735 Q 559.11 189.274 548.97 180.382 L 548.97 180.382 L 548.97 180.382 Q 538.83 171.49 533.109 160.361 L 533.109 160.361 L 533.109 160.361 Q 525.829 146.009 525.829 128.224 L 525.829 128.224 L 525.829 128.224 Q 525.829 96.399 548.19 74.454 L 548.19 74.454 L 548.19 74.454 Q 570.551 52.509 604.456 52.509 L 604.456 52.509 L 604.456 52.509 Q 614.96 52.509 623.385 54.173 L 623.385 54.173 L 623.385 54.173 Q 627.961 55.005 638.205 58.906 L 638.205 58.906 L 638.205 58.906 Q 648.45 62.806 650.322 62.806 L 650.322 62.806 L 650.322 62.806 Q 653.234 62.806 655.73 60.674 L 655.73 60.674 L 655.73 60.674 Q 658.226 58.542 660.306 52.613 L 660.306 52.613 Z  M 755.47 63.95 L 740.909 63.95 L 740.909 121.36 L 743.717 121.36 L 743.717 121.36 Q 757.134 121.36 763.166 112.936 L 763.166 112.936 L 763.166 112.936 Q 769.198 104.511 770.862 88.079 L 770.862 88.079 L 774.814 88.079 L 774.814 161.921 L 770.862 161.921 L 770.862 161.921 Q 769.614 149.857 765.61 142.161 L 765.61 142.161 L 765.61 142.161 Q 761.606 134.464 756.302 131.812 L 756.302 131.812 L 756.302 131.812 Q 750.998 129.16 740.909 129.16 L 740.909 129.16 L 740.909 168.89 L 740.909 168.89 Q 740.909 180.538 741.897 183.138 L 741.897 183.138 L 741.897 183.138 Q 742.885 185.738 745.589 187.402 L 745.589 187.402 L 745.589 187.402 Q 748.293 189.066 754.326 189.066 L 754.326 189.066 L 762.75 189.066 L 762.75 189.066 Q 782.511 189.066 794.419 179.914 L 794.419 179.914 L 794.419 179.914 Q 806.328 170.762 811.528 152.041 L 811.528 152.041 L 815.376 152.041 L 809.032 196.867 L 687.139 196.867 L 687.139 193.019 L 691.819 193.019 L 691.819 193.019 Q 697.956 193.019 701.7 190.834 L 701.7 190.834 L 701.7 190.834 Q 704.404 189.378 705.86 185.842 L 705.86 185.842 L 705.86 185.842 Q 707.004 183.346 707.004 172.738 L 707.004 172.738 L 707.004 79.966 L 707.004 79.966 Q 707.004 70.398 706.484 68.214 L 706.484 68.214 L 706.484 68.214 Q 705.444 64.574 702.636 62.598 L 702.636 62.598 L 702.636 62.598 Q 698.684 59.686 691.819 59.686 L 691.819 59.686 L 687.139 59.686 L 687.139 55.837 L 805.184 55.837 L 805.184 97.543 L 801.231 97.543 L 801.231 97.543 Q 798.215 82.254 792.755 75.598 L 792.755 75.598 L 792.755 75.598 Q 787.295 68.942 777.311 65.822 L 777.311 65.822 L 777.311 65.822 Q 771.486 63.95 755.47 63.95 L 755.47 63.95 Z  M 907.211 53.861 L 907.211 53.861 L 907.211 53.861 Q 940.909 52.613 961.969 73.518 L 961.969 73.518 L 961.969 73.518 Q 983.03 94.423 983.03 125.832 L 983.03 125.832 L 983.03 125.832 Q 983.03 152.665 967.326 173.05 L 967.326 173.05 L 967.326 173.05 Q 946.525 200.091 908.563 200.091 L 908.563 200.091 L 908.563 200.091 Q 870.498 200.091 849.697 174.298 L 849.697 174.298 L 849.697 174.298 Q 833.265 153.913 833.265 125.936 L 833.265 125.936 L 833.265 125.936 Q 833.265 94.527 854.637 73.57 L 854.637 73.57 L 854.637 73.57 Q 876.01 52.613 907.211 53.861 Z  M 908.459 60.518 L 908.459 60.518 L 908.459 60.518 Q 889.115 60.518 879.026 80.278 L 879.026 80.278 L 879.026 80.278 Q 870.81 96.503 870.81 126.872 L 870.81 126.872 L 870.81 126.872 Q 870.81 162.961 883.499 180.226 L 883.499 180.226 L 883.499 180.226 Q 892.339 192.291 908.251 192.291 L 908.251 192.291 L 908.251 192.291 Q 918.964 192.291 926.14 187.09 L 926.14 187.09 L 926.14 187.09 Q 935.292 180.434 940.389 165.822 L 940.389 165.822 L 940.389 165.822 Q 945.485 151.209 945.485 127.704 L 945.485 127.704 L 945.485 127.704 Q 945.485 99.727 940.285 85.843 L 940.285 85.843 L 940.285 85.843 Q 935.084 71.958 927.024 66.238 L 927.024 66.238 L 927.024 66.238 Q 918.964 60.518 908.459 60.518 Z  M 5.394 55.837 L 55.419 55.837 L 124.998 143.305 L 124.998 82.67 L 124.998 82.67 Q 124.998 69.982 121.358 65.51 L 121.358 65.51 L 121.358 65.51 Q 116.366 59.478 104.613 59.686 L 104.613 59.686 L 104.613 55.837 L 151.207 55.837 L 151.207 59.686 L 151.207 59.686 Q 142.263 60.83 139.195 62.65 L 139.195 62.65 L 139.195 62.65 Q 136.126 64.47 134.41 68.578 L 134.41 68.578 L 134.41 68.578 Q 132.694 72.686 132.694 82.67 L 132.694 82.67 L 132.694 200.091 L 129.158 200.091 L 33.787 82.67 L 33.787 172.322 L 33.787 172.322 Q 33.787 184.49 39.351 188.754 L 39.351 188.754 L 39.351 188.754 Q 44.915 193.019 52.091 193.019 L 52.091 193.019 L 55.419 193.019 L 55.419 196.867 L 5.394 196.867 L 5.394 193.019 L 5.394 193.019 Q 17.042 192.915 21.618 188.234 L 21.618 188.234 L 21.618 188.234 Q 26.194 183.554 26.194 172.322 L 26.194 172.322 L 26.194 72.79 L 23.178 69.046 L 23.178 69.046 Q 18.706 63.43 15.274 61.662 L 15.274 61.662 L 15.274 61.662 Q 11.842 59.894 5.394 59.686 L 5.394 59.686 L 5.394 55.837 Z  M 228.794 63.95 L 214.233 63.95 L 214.233 121.36 L 217.042 121.36 L 217.042 121.36 Q 230.458 121.36 236.49 112.936 L 236.49 112.936 L 236.49 112.936 Q 242.522 104.511 244.187 88.079 L 244.187 88.079 L 248.139 88.079 L 248.139 161.921 L 244.187 161.921 L 244.187 161.921 Q 242.938 149.857 238.934 142.161 L 238.934 142.161 L 238.934 142.161 Q 234.93 134.464 229.626 131.812 L 229.626 131.812 L 229.626 131.812 Q 224.322 129.16 214.233 129.16 L 214.233 129.16 L 214.233 168.89 L 214.233 168.89 Q 214.233 180.538 215.221 183.138 L 215.221 183.138 L 215.221 183.138 Q 216.209 185.738 218.914 187.402 L 218.914 187.402 L 218.914 187.402 Q 221.618 189.066 227.65 189.066 L 227.65 189.066 L 236.074 189.066 L 236.074 189.066 Q 255.835 189.066 267.743 179.914 L 267.743 179.914 L 267.743 179.914 Q 279.652 170.762 284.852 152.041 L 284.852 152.041 L 288.7 152.041 L 282.356 196.867 L 160.463 196.867 L 160.463 193.019 L 165.144 193.019 L 165.144 193.019 Q 171.28 193.019 175.024 190.834 L 175.024 190.834 L 175.024 190.834 Q 177.728 189.378 179.184 185.842 L 179.184 185.842 L 179.184 185.842 Q 180.328 183.346 180.328 172.738 L 180.328 172.738 L 180.328 79.966 L 180.328 79.966 Q 180.328 70.398 179.808 68.214 L 179.808 68.214 L 179.808 68.214 Q 178.768 64.574 175.96 62.598 L 175.96 62.598 L 175.96 62.598 Q 172.008 59.686 165.144 59.686 L 165.144 59.686 L 160.463 59.686 L 160.463 55.837 L 278.508 55.837 L 278.508 97.543 L 274.556 97.543 L 274.556 97.543 Q 271.54 82.254 266.079 75.598 L 266.079 75.598 L 266.079 75.598 Q 260.619 68.942 250.635 65.822 L 250.635 65.822 L 250.635 65.822 Q 244.811 63.95 228.794 63.95 L 228.794 63.95 Z  M 380.536 53.861 L 380.536 53.861 L 380.536 53.861 Q 414.233 52.613 435.294 73.518 L 435.294 73.518 L 435.294 73.518 Q 456.354 94.423 456.354 125.832 L 456.354 125.832 L 456.354 125.832 Q 456.354 152.665 440.65 173.05 L 440.65 173.05 L 440.65 173.05 Q 419.849 200.091 381.888 200.091 L 381.888 200.091 L 381.888 200.091 Q 343.822 200.091 323.021 174.298 L 323.021 174.298 L 323.021 174.298 Q 306.589 153.913 306.589 125.936 L 306.589 125.936 L 306.589 125.936 Q 306.589 94.527 327.962 73.57 L 327.962 73.57 L 327.962 73.57 Q 349.334 52.613 380.536 53.861 Z  M 381.784 60.518 L 381.784 60.518 L 381.784 60.518 Q 362.439 60.518 352.351 80.278 L 352.351 80.278 L 352.351 80.278 Q 344.134 96.503 344.134 126.872 L 344.134 126.872 L 344.134 126.872 Q 344.134 162.961 356.823 180.226 L 356.823 180.226 L 356.823 180.226 Q 365.663 192.291 381.576 192.291 L 381.576 192.291 L 381.576 192.291 Q 392.288 192.291 399.464 187.09 L 399.464 187.09 L 399.464 187.09 Q 408.617 180.434 413.713 165.822 L 413.713 165.822 L 413.713 165.822 Q 418.809 151.209 418.809 127.704 L 418.809 127.704 L 418.809 127.704 Q 418.809 99.727 413.609 85.843 L 413.609 85.843 L 413.609 85.843 Q 408.409 71.958 400.348 66.238 L 400.348 66.238 L 400.348 66.238 Q 392.288 60.518 381.784 60.518 Z " fill="rgb(234,234,234)"/><path d=" M 473.5 125 C 473.5 114.514 482.014 106 492.5 106 C 502.986 106 511.5 114.514 511.5 125 C 511.5 135.486 502.986 144 492.5 144 C 482.014 144 473.5 135.486 473.5 125 Z " fill="rgb(234,234,234)"/></g></svg>