<?xml version="1.0" encoding="UTF-8" standalone="no"?><!-- Generator: Gravit.io --><svg xmlns="http://www.w3.org/2000/svg" xmlns:xlink="http://www.w3.org/1999/xlink" style="isolation:isolate" viewBox="0 0 992 250" width="992pt" height="250pt"><defs><clipPath id="_clipPath_iCXTbJrbLuI6i3TknbUnsXzZDpn3xqrm"><rect width="992" height="250"/></clipPath></defs><g clip-path="url(#_clipPath_iCXTbJrbLuI6i3TknbUnsXzZDpn3xqrm)"><rect x="201.238" y="135" width="589.525" height="6" transform="matrix(1,0,0,1,0,0)" fill="rgb(221,0,0)"/><path d=" M 326.109 42.992 L 326.109 114.171 L 306.314 114.171 L 274.361 60.324 L 273.909 60.324 L 273.909 60.324 Q 274.863 74.589 274.863 80.675 L 274.863 80.675 L 274.863 114.171 L 260.946 114.171 L 260.946 42.992 L 280.591 42.992 L 312.494 96.303 L 312.845 96.303 L 312.845 96.303 Q 312.092 82.428 312.092 76.683 L 312.092 76.683 L 312.092 42.992 L 326.109 42.992 Z  M 342.738 45.669 L 342.738 45.669 L 342.738 45.669 Q 342.738 38.415 351.078 38.415 L 351.078 38.415 L 351.078 38.415 Q 359.418 38.415 359.418 45.669 L 359.418 45.669 L 359.418 45.669 Q 359.418 49.126 357.333 51.049 L 357.333 51.049 L 357.333 51.049 Q 355.249 52.972 351.078 52.972 L 351.078 52.972 L 351.078 52.972 Q 342.738 52.972 342.738 45.669 Z  M 358.715 59.74 L 358.715 114.171 L 343.392 114.171 L 343.392 59.74 L 358.715 59.74 Z  M 426.641 78.679 L 426.641 114.171 L 411.317 114.171 L 411.317 82.379 L 411.317 82.379 Q 411.317 76.488 409.157 73.542 L 409.157 73.542 L 409.157 73.542 Q 406.996 70.596 402.274 70.596 L 402.274 70.596 L 402.274 70.596 Q 395.843 70.596 392.98 74.759 L 392.98 74.759 L 392.98 74.759 Q 390.116 78.922 390.116 88.562 L 390.116 88.562 L 390.116 114.171 L 374.792 114.171 L 374.792 59.74 L 386.499 59.74 L 388.558 66.702 L 389.413 66.702 L 389.413 66.702 Q 391.974 62.758 396.471 60.738 L 396.471 60.738 L 396.471 60.738 Q 400.967 58.718 406.695 58.718 L 406.695 58.718 L 406.695 58.718 Q 416.492 58.718 421.567 63.854 L 421.567 63.854 L 421.567 63.854 Q 426.641 68.99 426.641 78.679 L 426.641 78.679 Z  M 466.08 103.314 L 466.08 103.314 L 466.08 103.314 Q 470.1 103.314 475.727 101.61 L 475.727 101.61 L 475.727 112.662 L 475.727 112.662 Q 469.999 115.145 461.658 115.145 L 461.658 115.145 L 461.658 115.145 Q 452.464 115.145 448.27 110.642 L 448.27 110.642 L 448.27 110.642 Q 444.074 106.138 444.074 97.131 L 444.074 97.131 L 444.074 70.889 L 436.739 70.889 L 436.739 64.608 L 445.18 59.642 L 449.601 48.153 L 459.398 48.153 L 459.398 59.74 L 475.123 59.74 L 475.123 70.889 L 459.398 70.889 L 459.398 97.131 L 459.398 97.131 Q 459.398 100.296 461.232 101.805 L 461.232 101.805 L 461.232 101.805 Q 463.065 103.314 466.08 103.314 Z  M 510.342 69.282 L 510.342 69.282 L 510.342 69.282 Q 505.468 69.282 502.706 72.277 L 502.706 72.277 L 502.706 72.277 Q 499.942 75.27 499.541 80.772 L 499.541 80.772 L 521.043 80.772 L 521.043 80.772 Q 520.943 75.27 518.079 72.277 L 518.079 72.277 L 518.079 72.277 Q 515.216 69.282 510.342 69.282 Z  M 512.503 115.145 L 512.503 115.145 L 512.503 115.145 Q 498.937 115.145 491.301 107.89 L 491.301 107.89 L 491.301 107.89 Q 483.664 100.637 483.664 87.345 L 483.664 87.345 L 483.664 87.345 Q 483.664 73.664 490.723 66.191 L 490.723 66.191 L 490.723 66.191 Q 497.782 58.718 510.242 58.718 L 510.242 58.718 L 510.242 58.718 Q 522.149 58.718 528.781 65.29 L 528.781 65.29 L 528.781 65.29 Q 535.412 71.863 535.412 83.45 L 535.412 83.45 L 535.412 90.656 L 499.188 90.656 L 499.188 90.656 Q 499.44 96.985 503.057 100.539 L 503.057 100.539 L 503.057 100.539 Q 506.675 104.093 513.206 104.093 L 513.206 104.093 L 513.206 104.093 Q 518.28 104.093 522.802 103.07 L 522.802 103.07 L 522.802 103.07 Q 527.324 102.048 532.247 99.809 L 532.247 99.809 L 532.247 111.299 L 532.247 111.299 Q 528.228 113.246 523.656 114.195 L 523.656 114.195 L 523.656 114.195 Q 519.084 115.145 512.503 115.145 Z  M 599.721 78.679 L 599.721 114.171 L 584.397 114.171 L 584.397 82.379 L 584.397 82.379 Q 584.397 76.488 582.237 73.542 L 582.237 73.542 L 582.237 73.542 Q 580.076 70.596 575.354 70.596 L 575.354 70.596 L 575.354 70.596 Q 568.923 70.596 566.06 74.759 L 566.06 74.759 L 566.06 74.759 Q 563.195 78.922 563.195 88.562 L 563.195 88.562 L 563.195 114.171 L 547.872 114.171 L 547.872 59.74 L 559.578 59.74 L 561.638 66.702 L 562.492 66.702 L 562.492 66.702 Q 565.054 62.758 569.551 60.738 L 569.551 60.738 L 569.551 60.738 Q 574.047 58.718 579.775 58.718 L 579.775 58.718 L 579.775 58.718 Q 589.572 58.718 594.646 63.854 L 594.646 63.854 L 594.646 63.854 Q 599.721 68.99 599.721 78.679 L 599.721 78.679 Z  M 633.281 115.145 L 633.281 115.145 L 633.281 115.145 Q 623.384 115.145 617.732 107.696 L 617.732 107.696 L 617.732 107.696 Q 612.08 100.247 612.08 87.053 L 612.08 87.053 L 612.08 87.053 Q 612.08 73.664 617.832 66.191 L 617.832 66.191 L 617.832 66.191 Q 623.585 58.718 633.684 58.718 L 633.684 58.718 L 633.684 58.718 Q 644.284 58.718 649.861 66.702 L 649.861 66.702 L 650.363 66.702 L 650.363 66.702 Q 649.208 60.616 649.208 55.844 L 649.208 55.844 L 649.208 38.415 L 664.581 38.415 L 664.581 114.171 L 652.825 114.171 L 649.861 107.112 L 649.208 107.112 L 649.208 107.112 Q 643.983 115.145 633.281 115.145 Z  M 638.657 103.314 L 638.657 103.314 L 638.657 103.314 Q 644.535 103.314 647.273 100.003 L 647.273 100.003 L 647.273 100.003 Q 650.012 96.693 650.263 88.757 L 650.263 88.757 L 650.263 87.15 L 650.263 87.15 Q 650.263 78.386 647.474 74.589 L 647.474 74.589 L 647.474 74.589 Q 644.686 70.792 638.406 70.792 L 638.406 70.792 L 638.406 70.792 Q 633.281 70.792 630.443 75.003 L 630.443 75.003 L 630.443 75.003 Q 627.605 79.214 627.605 87.247 L 627.605 87.247 L 627.605 87.247 Q 627.605 95.28 630.468 99.297 L 630.468 99.297 L 630.468 99.297 Q 633.332 103.314 638.657 103.314 Z  M 692.817 86.858 L 692.817 86.858 L 692.817 86.858 Q 692.817 94.94 695.555 99.079 L 695.555 99.079 L 695.555 99.079 Q 698.293 103.217 704.473 103.217 L 704.473 103.217 L 704.473 103.217 Q 710.602 103.217 713.29 99.103 L 713.29 99.103 L 713.29 99.103 Q 715.978 94.989 715.978 86.858 L 715.978 86.858 L 715.978 86.858 Q 715.978 78.776 713.265 74.735 L 713.265 74.735 L 713.265 74.735 Q 710.552 70.694 704.372 70.694 L 704.372 70.694 L 704.372 70.694 Q 698.243 70.694 695.53 74.711 L 695.53 74.711 L 695.53 74.711 Q 692.817 78.728 692.817 86.858 Z  M 731.653 86.858 L 731.653 86.858 L 731.653 86.858 Q 731.653 100.15 724.419 107.647 L 724.419 107.647 L 724.419 107.647 Q 717.184 115.145 704.272 115.145 L 704.272 115.145 L 704.272 115.145 Q 696.183 115.145 690.003 111.713 L 690.003 111.713 L 690.003 111.713 Q 683.824 108.28 680.508 101.854 L 680.508 101.854 L 680.508 101.854 Q 677.192 95.427 677.192 86.858 L 677.192 86.858 L 677.192 86.858 Q 677.192 73.518 684.376 66.118 L 684.376 66.118 L 684.376 66.118 Q 691.561 58.718 704.573 58.718 L 704.573 58.718 L 704.573 58.718 Q 712.662 58.718 718.842 62.125 L 718.842 62.125 L 718.842 62.125 Q 725.021 65.534 728.337 71.911 L 728.337 71.911 L 728.337 71.911 Q 731.653 78.289 731.653 86.858 Z " fill="rgb(221,0,0)"/><path d=" M 663.217 197.555 L 663.217 197.555 L 663.217 197.555 Q 663.217 203.339 659.054 206.67 L 659.054 206.67 L 659.054 206.67 Q 654.891 210 647.471 210 L 647.471 210 L 647.471 210 Q 640.636 210 635.378 207.429 L 635.378 207.429 L 635.378 199.016 L 635.378 199.016 Q 639.701 200.945 642.695 201.733 L 642.695 201.733 L 642.695 201.733 Q 645.69 202.522 648.172 202.522 L 648.172 202.522 L 648.172 202.522 Q 651.152 202.522 652.744 201.383 L 652.744 201.383 L 652.744 201.383 Q 654.336 200.243 654.336 197.994 L 654.336 197.994 L 654.336 197.994 Q 654.336 196.738 653.635 195.759 L 653.635 195.759 L 653.635 195.759 Q 652.934 194.781 651.576 193.875 L 651.576 193.875 L 651.576 193.875 Q 650.217 192.97 646.04 190.983 L 646.04 190.983 L 646.04 190.983 Q 642.126 189.142 640.168 187.448 L 640.168 187.448 L 640.168 187.448 Q 638.211 185.754 637.043 183.505 L 637.043 183.505 L 637.043 183.505 Q 635.874 181.255 635.874 178.247 L 635.874 178.247 L 635.874 178.247 Q 635.874 172.58 639.715 169.337 L 639.715 169.337 L 639.715 169.337 Q 643.557 166.094 650.334 166.094 L 650.334 166.094 L 650.334 166.094 Q 653.664 166.094 656.688 166.883 L 656.688 166.883 L 656.688 166.883 Q 659.711 167.672 663.012 169.103 L 663.012 169.103 L 660.091 176.144 L 660.091 176.144 Q 656.673 174.741 654.438 174.186 L 654.438 174.186 L 654.438 174.186 Q 652.204 173.631 650.042 173.631 L 650.042 173.631 L 650.042 173.631 Q 647.471 173.631 646.098 174.829 L 646.098 174.829 L 646.098 174.829 Q 644.726 176.026 644.726 177.955 L 644.726 177.955 L 644.726 177.955 Q 644.726 179.152 645.281 180.043 L 645.281 180.043 L 645.281 180.043 Q 645.836 180.935 647.048 181.766 L 647.048 181.766 L 647.048 181.766 Q 648.26 182.599 652.788 184.761 L 652.788 184.761 L 652.788 184.761 Q 658.776 187.623 660.997 190.501 L 660.997 190.501 L 660.997 190.501 Q 663.217 193.378 663.217 197.555 Z  M 672.905 166.708 L 681.756 184.294 L 690.666 166.708 L 700.423 166.708 L 686.255 192.794 L 686.255 209.416 L 677.258 209.416 L 677.258 193.087 L 663.09 166.708 L 672.905 166.708 Z  M 728.514 197.555 L 728.514 197.555 L 728.514 197.555 Q 728.514 203.339 724.352 206.67 L 724.352 206.67 L 724.352 206.67 Q 720.189 210 712.769 210 L 712.769 210 L 712.769 210 Q 705.934 210 700.676 207.429 L 700.676 207.429 L 700.676 199.016 L 700.676 199.016 Q 704.999 200.945 707.993 201.733 L 707.993 201.733 L 707.993 201.733 Q 710.988 202.522 713.471 202.522 L 713.471 202.522 L 713.471 202.522 Q 716.45 202.522 718.042 201.383 L 718.042 201.383 L 718.042 201.383 Q 719.634 200.243 719.634 197.994 L 719.634 197.994 L 719.634 197.994 Q 719.634 196.738 718.933 195.759 L 718.933 195.759 L 718.933 195.759 Q 718.232 194.781 716.874 193.875 L 716.874 193.875 L 716.874 193.875 Q 715.516 192.97 711.339 190.983 L 711.339 190.983 L 711.339 190.983 Q 707.424 189.142 705.466 187.448 L 705.466 187.448 L 705.466 187.448 Q 703.51 185.754 702.341 183.505 L 702.341 183.505 L 702.341 183.505 Q 701.172 181.255 701.172 178.247 L 701.172 178.247 L 701.172 178.247 Q 701.172 172.58 705.014 169.337 L 705.014 169.337 L 705.014 169.337 Q 708.855 166.094 715.633 166.094 L 715.633 166.094 L 715.633 166.094 Q 718.962 166.094 721.986 166.883 L 721.986 166.883 L 721.986 166.883 Q 725.01 167.672 728.31 169.103 L 728.31 169.103 L 725.389 176.144 L 725.389 176.144 Q 721.971 174.741 719.737 174.186 L 719.737 174.186 L 719.737 174.186 Q 717.502 173.631 715.34 173.631 L 715.34 173.631 L 715.34 173.631 Q 712.769 173.631 711.397 174.829 L 711.397 174.829 L 711.397 174.829 Q 710.024 176.026 710.024 177.955 L 710.024 177.955 L 710.024 177.955 Q 710.024 179.152 710.579 180.043 L 710.579 180.043 L 710.579 180.043 Q 711.133 180.935 712.346 181.766 L 712.346 181.766 L 712.346 181.766 Q 713.558 182.599 718.086 184.761 L 718.086 184.761 L 718.086 184.761 Q 724.075 187.623 726.295 190.501 L 726.295 190.501 L 726.295 190.501 Q 728.514 193.378 728.514 197.555 Z  M 750.239 174.245 L 750.239 209.416 L 741.183 209.416 L 741.183 174.245 L 729.586 174.245 L 729.586 166.708 L 761.836 166.708 L 761.836 174.245 L 750.239 174.245 Z  M 790.512 201.938 L 790.512 209.416 L 765.916 209.416 L 765.916 166.708 L 790.512 166.708 L 790.512 174.128 L 774.972 174.128 L 774.972 183.505 L 789.431 183.505 L 789.431 190.925 L 774.972 190.925 L 774.972 201.938 L 790.512 201.938 Z  M 823.307 209.416 L 815.011 209.416 L 804.729 175.91 L 804.466 175.91 L 804.466 175.91 Q 805.021 186.134 805.021 189.552 L 805.021 189.552 L 805.021 209.416 L 796.929 209.416 L 796.929 166.708 L 809.256 166.708 L 819.363 199.367 L 819.539 199.367 L 830.26 166.708 L 842.588 166.708 L 842.588 209.416 L 834.145 209.416 L 834.145 189.201 L 834.145 189.201 Q 834.145 187.77 834.189 185.9 L 834.189 185.9 L 834.189 185.9 Q 834.233 184.031 834.583 175.968 L 834.583 175.968 L 834.32 175.968 L 823.307 209.416 Z  M 174.608 201.938 L 174.608 209.416 L 150.013 209.416 L 150.013 166.708 L 174.608 166.708 L 174.608 174.128 L 159.068 174.128 L 159.068 183.505 L 173.528 183.505 L 173.528 190.925 L 159.068 190.925 L 159.068 201.938 L 174.608 201.938 Z  M 218.914 166.708 L 218.914 209.416 L 207.404 209.416 L 188.825 177.107 L 188.562 177.107 L 188.562 177.107 Q 189.117 185.667 189.117 189.318 L 189.117 189.318 L 189.117 209.416 L 181.026 209.416 L 181.026 166.708 L 192.447 166.708 L 210.997 198.695 L 211.201 198.695 L 211.201 198.695 Q 210.763 190.37 210.763 186.923 L 210.763 186.923 L 210.763 166.708 L 218.914 166.708 Z  M 243.646 174.245 L 243.646 209.416 L 234.591 209.416 L 234.591 174.245 L 222.994 174.245 L 222.994 166.708 L 255.243 166.708 L 255.243 174.245 L 243.646 174.245 Z  M 283.92 201.938 L 283.92 209.416 L 259.323 209.416 L 259.323 166.708 L 283.92 166.708 L 283.92 174.128 L 268.379 174.128 L 268.379 183.505 L 282.839 183.505 L 282.839 190.925 L 268.379 190.925 L 268.379 201.938 L 283.92 201.938 Z  M 299.392 174.128 L 299.392 185.667 L 302.314 185.667 L 302.314 185.667 Q 306.608 185.667 308.653 184.235 L 308.653 184.235 L 308.653 184.235 Q 310.697 182.804 310.697 179.736 L 310.697 179.736 L 310.697 179.736 Q 310.697 176.699 308.609 175.413 L 308.609 175.413 L 308.609 175.413 Q 306.52 174.128 302.138 174.128 L 302.138 174.128 L 299.392 174.128 Z  M 304.212 193.028 L 299.392 193.028 L 299.392 209.416 L 290.337 209.416 L 290.337 166.708 L 302.781 166.708 L 302.781 166.708 Q 311.486 166.708 315.663 169.878 L 315.663 169.878 L 315.663 169.878 Q 319.841 173.047 319.841 179.503 L 319.841 179.503 L 319.841 179.503 Q 319.841 183.271 317.766 186.207 L 317.766 186.207 L 317.766 186.207 Q 315.692 189.142 311.895 190.808 L 311.895 190.808 L 311.895 190.808 Q 321.535 205.209 324.456 209.416 L 324.456 209.416 L 314.407 209.416 L 304.212 193.028 Z  M 343.814 174.245 L 343.814 209.416 L 334.758 209.416 L 334.758 174.245 L 323.161 174.245 L 323.161 166.708 L 355.411 166.708 L 355.411 174.245 L 343.814 174.245 Z  M 395.392 209.416 L 385.635 209.416 L 382.539 199.25 L 366.969 199.25 L 363.873 209.416 L 354.116 209.416 L 369.189 166.533 L 380.26 166.533 L 395.392 209.416 Z  M 369.247 191.655 L 380.377 191.655 L 380.377 191.655 Q 376.083 177.838 375.543 176.026 L 375.543 176.026 L 375.543 176.026 Q 375.002 174.216 374.769 173.164 L 374.769 173.164 L 374.769 173.164 Q 373.805 176.903 369.247 191.655 L 369.247 191.655 Z  M 407.33 209.416 L 398.274 209.416 L 398.274 166.708 L 407.33 166.708 L 407.33 209.416 Z  M 453.475 166.708 L 453.475 209.416 L 441.966 209.416 L 423.387 177.107 L 423.124 177.107 L 423.124 177.107 Q 423.679 185.667 423.679 189.318 L 423.679 189.318 L 423.679 209.416 L 415.587 209.416 L 415.587 166.708 L 427.009 166.708 L 445.558 198.695 L 445.763 198.695 L 445.763 198.695 Q 445.325 190.37 445.325 186.923 L 445.325 186.923 L 445.325 166.708 L 453.475 166.708 Z  M 488.11 209.416 L 479.815 209.416 L 469.532 175.91 L 469.269 175.91 L 469.269 175.91 Q 469.824 186.134 469.824 189.552 L 469.824 189.552 L 469.824 209.416 L 461.732 209.416 L 461.732 166.708 L 474.06 166.708 L 484.167 199.367 L 484.342 199.367 L 495.063 166.708 L 507.39 166.708 L 507.39 209.416 L 498.948 209.416 L 498.948 189.201 L 498.948 189.201 Q 498.948 187.77 498.992 185.9 L 498.992 185.9 L 498.992 185.9 Q 499.036 184.031 499.387 175.968 L 499.387 175.968 L 499.123 175.968 L 488.11 209.416 Z  M 540.244 201.938 L 540.244 209.416 L 515.648 209.416 L 515.648 166.708 L 540.244 166.708 L 540.244 174.128 L 524.703 174.128 L 524.703 183.505 L 539.164 183.505 L 539.164 190.925 L 524.703 190.925 L 524.703 201.938 L 540.244 201.938 Z  M 584.549 166.708 L 584.549 209.416 L 573.039 209.416 L 554.461 177.107 L 554.197 177.107 L 554.197 177.107 Q 554.752 185.667 554.752 189.318 L 554.752 189.318 L 554.752 209.416 L 546.661 209.416 L 546.661 166.708 L 558.083 166.708 L 576.632 198.695 L 576.836 198.695 L 576.836 198.695 Q 576.399 190.37 576.399 186.923 L 576.399 186.923 L 576.399 166.708 L 584.549 166.708 Z  M 609.281 174.245 L 609.281 209.416 L 600.226 209.416 L 600.226 174.245 L 588.629 174.245 L 588.629 166.708 L 620.878 166.708 L 620.878 174.245 L 609.281 174.245 Z " fill="rgb(249,249,249)"/></g></svg>