<?xml version="1.0" encoding="UTF-8"?>
<svg width="992pt" height="250pt" style="isolation:isolate" version="1.1" viewBox="0 0 992 250" xmlns="http://www.w3.org/2000/svg" xmlns:xlink="http://www.w3.org/1999/xlink">
 <defs>
  <radialGradient id="radialGradient11905" cx="143.21" cy="105.18" r="89.305" gradientTransform="matrix(.34738 .93772 -1.099 .40713 215.27 -81.1)" gradientUnits="userSpaceOnUse">
   <stop stop-color="#88aade" offset="0"/>
   <stop stop-color="#4f81ce" offset="1"/>
  </radialGradient>
 </defs>
 <circle cx="188.3" cy="123.98" r="89.791" fill="#eaeaea" style="isolation:isolate"/>
 <circle cx="187.85" cy="124.18" r="84.634" fill="url(#radialGradient11905)" stroke="#000" stroke-width="7.0753"/>
 <g transform="matrix(.75 0 0 .75 19.301 -15.869)" fill="#eaeaea" style="shape-inside:url(#rect9238);white-space:pre" aria-label="NetSurf">
  <path d="m396.46 122.03h25.5l62.062 117.09v-117.09h18.375v139.97h-25.5l-62.062-117.09v117.09h-18.375z"/>
  <path d="m629.15 205.19v8.4375h-79.312q1.125 17.812 10.688 27.188 9.6562 9.2812 26.812 9.2812 9.9375 0 19.219-2.4375 9.375-2.4375 18.562-7.3125v16.312q-9.2812 3.9375-19.031 6t-19.781 2.0625q-25.125 0-39.844-14.625-14.625-14.625-14.625-39.562 0-25.781 13.875-40.875 13.969-15.188 37.594-15.188 21.188 0 33.469 13.688 12.375 13.594 12.375 37.031zm-17.25-5.0625q-0.1875-14.156-7.9688-22.594-7.6875-8.4375-20.438-8.4375-14.438 0-23.156 8.1562-8.625 8.1562-9.9375 22.969z"/>
  <path d="m674.53 127.19v29.812h35.531v13.406h-35.531v57q0 12.844 3.4688 16.5 3.5625 3.6562 14.344 3.6562h17.719v14.438h-17.719q-19.969 0-27.562-7.4062-7.5938-7.5-7.5938-27.188v-57h-12.656v-13.406h12.656v-29.812z"/>
  <path d="m817.4 126.62v18.469q-10.781-5.1562-20.344-7.6875t-18.469-2.5312q-15.469 0-23.906 6-8.3438 6-8.3438 17.062 0 9.2812 5.5312 14.062 5.625 4.6875 21.188 7.5938l11.438 2.3438q21.188 4.0312 31.219 14.25 10.125 10.125 10.125 27.188 0 20.344-13.688 30.844-13.594 10.5-39.938 10.5-9.9375 0-21.188-2.25-11.156-2.25-23.156-6.6562v-19.5q11.531 6.4688 22.594 9.75t21.75 3.2812q16.219 0 25.031-6.375t8.8125-18.188q0-10.312-6.375-16.125-6.2812-5.8125-20.719-8.7188l-11.531-2.25q-21.188-4.2188-30.656-13.219t-9.4688-25.031q0-18.562 13.031-29.25 13.125-10.688 36.094-10.688 9.8438 0 20.062 1.7812t20.906 5.3438z"/>
  <path d="m852.84 220.56v-63.562h17.25v62.906q0 14.906 5.8125 22.406 5.8125 7.4062 17.438 7.4062 13.969 0 22.031-8.9062 8.1562-8.9062 8.1562-24.281v-59.531h17.25v105h-17.25v-16.125q-6.2812 9.5625-14.625 14.25-8.25 4.5938-19.219 4.5938-18.094 0-27.469-11.25t-9.375-32.906z"/>
  <path d="m1037.2 173.12q-2.9062-1.6875-6.375-2.4375-3.375-0.84375-7.5-0.84375-14.625 0-22.5 9.5625-7.7812 9.4688-7.7812 27.281v55.312h-17.344v-105h17.344v16.312q5.4375-9.5625 14.156-14.156 8.7188-4.6875 21.188-4.6875 1.7813 0 3.9375 0.28125 2.1563 0.1875 4.7813 0.65625z"/>
  <path d="m1108.4 116.12v14.344h-16.5q-9.2812 0-12.938 3.75-3.5625 3.75-3.5625 13.5v9.2812h28.406v13.406h-28.406v91.594h-17.344v-91.594h-16.5v-13.406h16.5v-7.3125q0-17.531 8.1562-25.5 8.1563-8.0625 25.875-8.0625z"/>
 </g>
 <path d="m127.5 66.584s-15.183 90.704 56.199 142.07" fill="none" stroke="#000" stroke-dasharray="14.5417, 14.5417" stroke-width="7.2709"/>
 <path d="m129.02 184.19s91.133 12.352 140.25-60.596" fill="none" stroke="#000" stroke-dasharray="14.5417, 14.5417" stroke-width="7.2709" style="isolation:isolate"/>
 <path transform="matrix(.6491 0 0 .6491 43.69 39.216)" d="m294.43 118.69-29.331-5.3959-2.3794 29.728-16.925-24.555-22.703 19.338 5.3959-29.331-29.728-2.3794 24.555-16.925-19.338-22.703 29.331 5.3959 2.3794-29.728 16.925 24.555 22.703-19.338-5.3959 29.331 29.728 2.3794-24.555 16.925z" fill="#eaeaea"/>
</svg>
