<?xml version="1.0" encoding="UTF-8" standalone="no"?><!-- Generator: Gravit.io --><svg xmlns="http://www.w3.org/2000/svg" xmlns:xlink="http://www.w3.org/1999/xlink" style="isolation:isolate" viewBox="0 0 992 250" width="992pt" height="250pt"><defs><clipPath id="_clipPath_EVPlL3a04SJ4rqBubjjPRaf8QV95cWVv"><rect width="992" height="250"/></clipPath></defs><g clip-path="url(#_clipPath_EVPlL3a04SJ4rqBubjjPRaf8QV95cWVv)"><path d=" M 692.139 124.185 L 692.139 124.185 L 692.139 124.185 Q 692.139 145.476 681.372 157.668 L 681.372 157.668 L 681.372 157.668 Q 670.605 169.86 651.437 169.86 L 651.437 169.86 L 651.437 169.86 Q 631.845 169.86 621.199 157.88 L 621.199 157.88 L 621.199 157.88 Q 610.554 145.901 610.554 124.064 L 610.554 124.064 L 610.554 124.064 Q 610.554 102.409 621.23 90.49 L 621.23 90.49 L 621.23 90.49 Q 631.906 78.57 651.559 78.57 L 651.559 78.57 L 651.559 78.57 Q 670.666 78.57 681.402 90.702 L 681.402 90.702 L 681.402 90.702 Q 692.139 102.833 692.139 124.185 Z  M 621.472 124.185 L 621.472 124.185 L 621.472 124.185 Q 621.472 142.2 629.146 151.511 L 629.146 151.511 L 629.146 151.511 Q 636.819 160.822 651.437 160.822 L 651.437 160.822 L 651.437 160.822 Q 666.177 160.822 673.699 151.542 L 673.699 151.542 L 673.699 151.542 Q 681.22 142.261 681.22 124.185 L 681.22 124.185 L 681.22 124.185 Q 681.22 106.291 673.729 97.041 L 673.729 97.041 L 673.729 97.041 Q 666.238 87.79 651.559 87.79 L 651.559 87.79 L 651.559 87.79 Q 636.819 87.79 629.146 97.101 L 629.146 97.101 L 629.146 97.101 Q 621.472 106.412 621.472 124.185 Z  M 749.885 87.912 L 749.885 87.912 L 749.885 87.912 Q 735.267 87.912 726.805 97.647 L 726.805 97.647 L 726.805 97.647 Q 718.343 107.383 718.343 124.306 L 718.343 124.306 L 718.343 124.306 Q 718.343 141.715 726.501 151.208 L 726.501 151.208 L 726.501 151.208 Q 734.66 160.701 749.764 160.701 L 749.764 160.701 L 749.764 160.701 Q 759.044 160.701 770.933 157.365 L 770.933 157.365 L 770.933 166.403 L 770.933 166.403 Q 761.713 169.86 748.187 169.86 L 748.187 169.86 L 748.187 169.86 Q 728.594 169.86 717.949 157.971 L 717.949 157.971 L 717.949 157.971 Q 707.303 146.083 707.303 124.185 L 707.303 124.185 L 707.303 124.185 Q 707.303 110.476 712.429 100.165 L 712.429 100.165 L 712.429 100.165 Q 717.554 89.853 727.229 84.272 L 727.229 84.272 L 727.229 84.272 Q 736.904 78.692 750.006 78.692 L 750.006 78.692 L 750.006 78.692 Q 763.958 78.692 774.391 83.787 L 774.391 83.787 L 770.023 92.643 L 770.023 92.643 Q 759.954 87.912 749.885 87.912 Z  M 817.337 118.483 L 854.338 168.647 L 842.206 168.647 L 809.876 125.641 L 800.595 133.89 L 800.595 168.647 L 790.283 168.647 L 790.283 79.965 L 800.595 79.965 L 800.595 123.942 L 840.811 79.965 L 853.003 79.965 L 817.337 118.483 Z  M 915.966 159.427 L 915.966 168.647 L 866.53 168.647 L 866.53 79.965 L 915.966 79.965 L 915.966 89.125 L 876.842 89.125 L 876.842 117.695 L 913.601 117.695 L 913.601 126.793 L 876.842 126.793 L 876.842 159.427 L 915.966 159.427 Z  M 962.915 89.125 L 962.915 168.647 L 952.604 168.647 L 952.604 89.125 L 924.519 89.125 L 924.519 79.965 L 991 79.965 L 991 89.125 L 962.915 89.125 Z  M 71.852 79.965 L 71.852 168.647 L 60.084 168.647 L 11.618 94.22 L 11.133 94.22 L 11.133 94.22 Q 12.104 107.322 12.104 118.241 L 12.104 118.241 L 12.104 168.647 L 2.58 168.647 L 2.58 79.965 L 14.227 79.965 L 62.571 154.089 L 63.056 154.089 L 63.056 154.089 Q 62.935 152.452 62.51 143.565 L 62.51 143.565 L 62.51 143.565 Q 62.086 134.679 62.207 130.857 L 62.207 130.857 L 62.207 79.965 L 71.852 79.965 Z  M 145.672 159.427 L 145.672 168.647 L 96.236 168.647 L 96.236 79.965 L 145.672 79.965 L 145.672 89.125 L 106.548 89.125 L 106.548 117.695 L 143.307 117.695 L 143.307 126.793 L 106.548 126.793 L 106.548 159.427 L 145.672 159.427 Z  M 242.3 124.185 L 242.3 124.185 L 242.3 124.185 Q 242.3 145.476 231.533 157.668 L 231.533 157.668 L 231.533 157.668 Q 220.767 169.86 201.599 169.86 L 201.599 169.86 L 201.599 169.86 Q 182.006 169.86 171.361 157.88 L 171.361 157.88 L 171.361 157.88 Q 160.715 145.901 160.715 124.064 L 160.715 124.064 L 160.715 124.064 Q 160.715 102.409 171.391 90.49 L 171.391 90.49 L 171.391 90.49 Q 182.067 78.57 201.72 78.57 L 201.72 78.57 L 201.72 78.57 Q 220.827 78.57 231.564 90.702 L 231.564 90.702 L 231.564 90.702 Q 242.3 102.833 242.3 124.185 Z  M 171.634 124.185 L 171.634 124.185 L 171.634 124.185 Q 171.634 142.2 179.307 151.511 L 179.307 151.511 L 179.307 151.511 Q 186.98 160.822 201.599 160.822 L 201.599 160.822 L 201.599 160.822 Q 216.339 160.822 223.86 151.542 L 223.86 151.542 L 223.86 151.542 Q 231.382 142.261 231.382 124.185 L 231.382 124.185 L 231.382 124.185 Q 231.382 106.291 223.891 97.041 L 223.891 97.041 L 223.891 97.041 Q 216.399 87.79 201.72 87.79 L 201.72 87.79 L 201.72 87.79 Q 186.98 87.79 179.307 97.101 L 179.307 97.101 L 179.307 97.101 Q 171.634 106.412 171.634 124.185 Z  M 301.078 131.403 L 301.078 122.183 L 331.225 122.183 L 331.225 165.311 L 331.225 165.311 Q 324.188 167.555 316.909 168.708 L 316.909 168.708 L 316.909 168.708 Q 309.63 169.86 300.047 169.86 L 300.047 169.86 L 300.047 169.86 Q 279.908 169.86 268.686 157.88 L 268.686 157.88 L 268.686 157.88 Q 257.465 145.901 257.465 124.306 L 257.465 124.306 L 257.465 124.306 Q 257.465 110.476 263.015 100.074 L 263.015 100.074 L 263.015 100.074 Q 268.565 89.671 278.998 84.181 L 278.998 84.181 L 278.998 84.181 Q 289.431 78.692 303.443 78.692 L 303.443 78.692 L 303.443 78.692 Q 317.637 78.692 329.89 83.908 L 329.89 83.908 L 325.887 93.007 L 325.887 93.007 Q 313.876 87.912 302.776 87.912 L 302.776 87.912 L 302.776 87.912 Q 286.58 87.912 277.482 97.556 L 277.482 97.556 L 277.482 97.556 Q 268.383 107.201 268.383 124.306 L 268.383 124.306 L 268.383 124.306 Q 268.383 142.261 277.148 151.542 L 277.148 151.542 L 277.148 151.542 Q 285.913 160.822 302.897 160.822 L 302.897 160.822 L 302.897 160.822 Q 312.117 160.822 320.913 158.699 L 320.913 158.699 L 320.913 131.403 L 301.078 131.403 Z  M 401.952 159.427 L 401.952 168.647 L 352.516 168.647 L 352.516 79.965 L 401.952 79.965 L 401.952 89.125 L 362.827 89.125 L 362.827 117.695 L 399.586 117.695 L 399.586 126.793 L 362.827 126.793 L 362.827 159.427 L 401.952 159.427 Z  M 498.58 124.185 L 498.58 124.185 L 498.58 124.185 Q 498.58 145.476 487.813 157.668 L 487.813 157.668 L 487.813 157.668 Q 477.046 169.86 457.878 169.86 L 457.878 169.86 L 457.878 169.86 Q 438.286 169.86 427.64 157.88 L 427.64 157.88 L 427.64 157.88 Q 416.995 145.901 416.995 124.064 L 416.995 124.064 L 416.995 124.064 Q 416.995 102.409 427.671 90.49 L 427.671 90.49 L 427.671 90.49 Q 438.346 78.57 458 78.57 L 458 78.57 L 458 78.57 Q 477.107 78.57 487.843 90.702 L 487.843 90.702 L 487.843 90.702 Q 498.58 102.833 498.58 124.185 Z  M 427.913 124.185 L 427.913 124.185 L 427.913 124.185 Q 427.913 142.2 435.586 151.511 L 435.586 151.511 L 435.586 151.511 Q 443.26 160.822 457.878 160.822 L 457.878 160.822 L 457.878 160.822 Q 472.618 160.822 480.14 151.542 L 480.14 151.542 L 480.14 151.542 Q 487.661 142.261 487.661 124.185 L 487.661 124.185 L 487.661 124.185 Q 487.661 106.291 480.17 97.041 L 480.17 97.041 L 480.17 97.041 Q 472.679 87.79 458 87.79 L 458 87.79 L 458 87.79 Q 443.26 87.79 435.586 97.101 L 435.586 97.101 L 435.586 97.101 Q 427.913 106.412 427.913 124.185 Z " fill="rgb(234,234,234)"/><path d=" M 552.949 154.617 L 555.02 159.358 L 545.537 163.499 L 543.466 158.758 L 501.975 63.755 L 549.429 45.235 C 549.823 45.09 550.227 44.976 550.641 44.924 C 555.527 44.283 560.475 44.107 565.393 44.386 C 569.088 44.603 572.732 45.318 576.231 46.498 C 578.24 47.192 580.186 48.061 582.039 49.107 C 583.789 50.09 585.435 51.26 586.936 52.585 C 588.437 53.9 589.793 55.359 590.994 56.954 C 592.257 58.62 593.344 60.401 594.265 62.275 C 595.207 64.2 595.932 66.229 596.418 68.321 C 596.884 70.298 597.102 72.337 597.071 74.377 C 597.04 76.457 596.75 78.538 596.222 80.557 C 595.632 82.762 594.824 84.905 593.789 86.944 C 593.354 87.783 592.899 88.611 592.402 89.418 C 591.874 90.288 591.315 91.137 590.725 91.975 C 590.29 92.586 589.845 93.197 589.379 93.787 C 588.882 94.419 588.375 95.04 587.857 95.651 C 586.242 97.545 584.524 99.336 582.712 101.013 C 580.466 103.104 578.126 105.081 575.693 106.955 C 574.316 108.021 572.484 108.322 570.828 107.742 L 533.621 94.75 L 542.742 62.482 L 566.324 62.482 L 571.5 62.482 L 571.5 72.834 L 566.324 72.834 L 550.568 72.834 L 546.231 88.187 L 571.552 97.027 C 572.96 95.868 574.337 94.667 575.672 93.425 C 577.194 92.017 578.633 90.516 579.979 88.932 C 580.403 88.435 580.818 87.938 581.221 87.42 C 581.584 86.955 581.936 86.478 582.277 85.992 C 582.722 85.36 583.157 84.708 583.561 84.035 C 583.913 83.456 584.244 82.855 584.555 82.255 C 585.259 80.867 585.818 79.408 586.211 77.907 C 586.532 76.706 586.698 75.464 586.718 74.221 C 586.739 73.031 586.615 71.84 586.335 70.67 C 586.025 69.345 585.569 68.051 584.969 66.83 C 584.337 65.546 583.592 64.325 582.733 63.186 C 581.956 62.161 581.076 61.209 580.114 60.37 C 579.14 59.511 578.074 58.755 576.946 58.113 C 575.662 57.389 574.306 56.778 572.898 56.302 C 570.279 55.411 567.556 54.883 564.803 54.728 C 560.734 54.49 556.645 54.624 552.597 55.111 L 515.764 69.49 L 552.949 154.617 Z " fill="rgb(219,0,0)"/><path d=" M 562.674 10.842 L 562.239 33.779 L 569.981 34.363 L 574.029 11.699 L 562.674 10.842 Z " fill="rgb(219,0,0)"/><path d=" M 587.901 15.739 L 577.862 36.367 L 584.641 40.153 L 597.843 21.291 L 587.901 15.739 Z " fill="rgb(219,0,0)"/><path d=" M 607.202 29.414 L 589.908 44.487 L 594.671 50.619 L 614.188 38.407 L 607.202 29.414 Z " fill="rgb(219,0,0)"/></g></svg>