<?xml version="1.0" encoding="UTF-8" standalone="no"?><!-- Generator: Gravit.io --><svg xmlns="http://www.w3.org/2000/svg" xmlns:xlink="http://www.w3.org/1999/xlink" style="isolation:isolate" viewBox="0 0 992 250" width="992pt" height="250pt"><defs><clipPath id="_clipPath_m8OXFgx40kQC3SvTuKOdM5A8ItW1Fgia"><rect width="992" height="250"/></clipPath></defs><g clip-path="url(#_clipPath_m8OXFgx40kQC3SvTuKOdM5A8ItW1Fgia)"><path d=" M 367.392 191.93 L 367.392 191.93 L 367.392 191.93 Q 358.297 191.93 353.032 197.947 L 353.032 197.947 L 353.032 197.947 Q 347.767 203.963 347.767 214.422 L 347.767 214.422 L 347.767 214.422 Q 347.767 225.181 352.843 231.047 L 352.843 231.047 L 352.843 231.047 Q 357.919 236.914 367.317 236.914 L 367.317 236.914 L 367.317 236.914 Q 373.091 236.914 380.489 234.852 L 380.489 234.852 L 380.489 240.437 L 380.489 240.437 Q 374.752 242.574 366.336 242.574 L 366.336 242.574 L 366.336 242.574 Q 354.145 242.574 347.521 235.227 L 347.521 235.227 L 347.521 235.227 Q 340.898 227.88 340.898 214.347 L 340.898 214.347 L 340.898 214.347 Q 340.898 205.875 344.087 199.503 L 344.087 199.503 L 344.087 199.503 Q 347.276 193.13 353.296 189.681 L 353.296 189.681 L 353.296 189.681 Q 359.316 186.233 367.468 186.233 L 367.468 186.233 L 367.468 186.233 Q 376.149 186.233 382.64 189.381 L 382.64 189.381 L 379.923 194.854 L 379.923 194.854 Q 373.658 191.93 367.392 191.93 Z  M 453.82 214.347 L 453.82 214.347 L 453.82 214.347 Q 453.82 227.505 447.121 235.039 L 447.121 235.039 L 447.121 235.039 Q 440.422 242.574 428.496 242.574 L 428.496 242.574 L 428.496 242.574 Q 416.305 242.574 409.681 235.171 L 409.681 235.171 L 409.681 235.171 Q 403.058 227.767 403.058 214.272 L 403.058 214.272 L 403.058 214.272 Q 403.058 200.89 409.7 193.524 L 409.7 193.524 L 409.7 193.524 Q 416.343 186.158 428.571 186.158 L 428.571 186.158 L 428.571 186.158 Q 440.46 186.158 447.14 193.655 L 447.14 193.655 L 447.14 193.655 Q 453.82 201.152 453.82 214.347 Z  M 409.851 214.347 L 409.851 214.347 L 409.851 214.347 Q 409.851 225.48 414.626 231.235 L 414.626 231.235 L 414.626 231.235 Q 419.4 236.989 428.496 236.989 L 428.496 236.989 L 428.496 236.989 Q 437.667 236.989 442.347 231.253 L 442.347 231.253 L 442.347 231.253 Q 447.027 225.518 447.027 214.347 L 447.027 214.347 L 447.027 214.347 Q 447.027 203.289 442.366 197.572 L 442.366 197.572 L 442.366 197.572 Q 437.705 191.855 428.571 191.855 L 428.571 191.855 L 428.571 191.855 Q 419.4 191.855 414.626 197.61 L 414.626 197.61 L 414.626 197.61 Q 409.851 203.364 409.851 214.347 Z  M 510.281 241.824 L 479.522 241.824 L 479.522 187.02 L 485.938 187.02 L 485.938 236.052 L 510.281 236.052 L 510.281 241.824 Z  M 580.933 214.347 L 580.933 214.347 L 580.933 214.347 Q 580.933 227.505 574.234 235.039 L 574.234 235.039 L 574.234 235.039 Q 567.535 242.574 555.608 242.574 L 555.608 242.574 L 555.608 242.574 Q 543.418 242.574 536.794 235.171 L 536.794 235.171 L 536.794 235.171 Q 530.171 227.767 530.171 214.272 L 530.171 214.272 L 530.171 214.272 Q 530.171 200.89 536.813 193.524 L 536.813 193.524 L 536.813 193.524 Q 543.456 186.158 555.684 186.158 L 555.684 186.158 L 555.684 186.158 Q 567.573 186.158 574.253 193.655 L 574.253 193.655 L 574.253 193.655 Q 580.933 201.152 580.933 214.347 Z  M 536.964 214.347 L 536.964 214.347 L 536.964 214.347 Q 536.964 225.48 541.738 231.235 L 541.738 231.235 L 541.738 231.235 Q 546.513 236.989 555.608 236.989 L 555.608 236.989 L 555.608 236.989 Q 564.78 236.989 569.46 231.253 L 569.46 231.253 L 569.46 231.253 Q 574.14 225.518 574.14 214.347 L 574.14 214.347 L 574.14 214.347 Q 574.14 203.289 569.479 197.572 L 569.479 197.572 L 569.479 197.572 Q 564.817 191.855 555.684 191.855 L 555.684 191.855 L 555.684 191.855 Q 546.513 191.855 541.738 197.61 L 541.738 197.61 L 541.738 197.61 Q 536.964 203.364 536.964 214.347 Z  M 624.562 219.033 L 613.051 219.033 L 613.051 241.824 L 606.635 241.824 L 606.635 187.02 L 621.769 187.02 L 621.769 187.02 Q 631.922 187.02 636.771 190.881 L 636.771 190.881 L 636.771 190.881 Q 641.621 194.742 641.621 202.502 L 641.621 202.502 L 641.621 202.502 Q 641.621 213.372 630.525 217.196 L 630.525 217.196 L 645.509 241.824 L 637.922 241.824 L 624.562 219.033 Z  M 613.051 192.605 L 613.051 213.56 L 621.845 213.56 L 621.845 213.56 Q 628.638 213.56 631.808 210.88 L 631.808 210.88 L 631.808 210.88 Q 634.979 208.199 634.979 202.839 L 634.979 202.839 L 634.979 202.839 Q 634.979 197.403 631.752 195.004 L 631.752 195.004 L 631.752 195.004 Q 628.525 192.605 621.392 192.605 L 621.392 192.605 L 613.051 192.605 Z " fill="rgb(219,0,0)"/><path d=" M 691.475 122.511 L 691.475 122.511 L 691.475 122.511 Q 691.475 143.563 680.756 155.619 L 680.756 155.619 L 680.756 155.619 Q 670.038 167.675 650.956 167.675 L 650.956 167.675 L 650.956 167.675 Q 631.451 167.675 620.853 155.829 L 620.853 155.829 L 620.853 155.829 Q 610.255 143.983 610.255 122.391 L 610.255 122.391 L 610.255 122.391 Q 610.255 100.979 620.883 89.194 L 620.883 89.194 L 620.883 89.194 Q 631.511 77.408 651.076 77.408 L 651.076 77.408 L 651.076 77.408 Q 670.098 77.408 680.787 89.404 L 680.787 89.404 L 680.787 89.404 Q 691.475 101.399 691.475 122.511 Z  M 621.125 122.511 L 621.125 122.511 L 621.125 122.511 Q 621.125 140.325 628.764 149.531 L 628.764 149.531 L 628.764 149.531 Q 636.403 158.738 650.956 158.738 L 650.956 158.738 L 650.956 158.738 Q 665.63 158.738 673.118 149.561 L 673.118 149.561 L 673.118 149.561 Q 680.606 140.385 680.606 122.511 L 680.606 122.511 L 680.606 122.511 Q 680.606 104.818 673.148 95.671 L 673.148 95.671 L 673.148 95.671 Q 665.69 86.525 651.076 86.525 L 651.076 86.525 L 651.076 86.525 Q 636.403 86.525 628.764 95.731 L 628.764 95.731 L 628.764 95.731 Q 621.125 104.938 621.125 122.511 Z  M 748.963 86.645 L 748.963 86.645 L 748.963 86.645 Q 734.41 86.645 725.986 96.271 L 725.986 96.271 L 725.986 96.271 Q 717.562 105.898 717.562 122.631 L 717.562 122.631 L 717.562 122.631 Q 717.562 139.845 725.684 149.231 L 725.684 149.231 L 725.684 149.231 Q 733.806 158.618 748.842 158.618 L 748.842 158.618 L 748.842 158.618 Q 758.082 158.618 769.917 155.319 L 769.917 155.319 L 769.917 164.256 L 769.917 164.256 Q 760.739 167.675 747.272 167.675 L 747.272 167.675 L 747.272 167.675 Q 727.767 167.675 717.17 155.919 L 717.17 155.919 L 717.17 155.919 Q 706.572 144.163 706.572 122.511 L 706.572 122.511 L 706.572 122.511 Q 706.572 108.956 711.674 98.76 L 711.674 98.76 L 711.674 98.76 Q 716.777 88.564 726.409 83.046 L 726.409 83.046 L 726.409 83.046 Q 736.04 77.528 749.084 77.528 L 749.084 77.528 L 749.084 77.528 Q 762.973 77.528 773.359 82.566 L 773.359 82.566 L 769.012 91.323 L 769.012 91.323 Q 758.987 86.645 748.963 86.645 Z  M 816.113 116.873 L 852.949 166.475 L 840.872 166.475 L 808.686 123.951 L 799.446 132.108 L 799.446 166.475 L 789.181 166.475 L 789.181 78.788 L 799.446 78.788 L 799.446 122.271 L 839.483 78.788 L 851.62 78.788 L 816.113 116.873 Z  M 914.302 157.358 L 914.302 166.475 L 865.087 166.475 L 865.087 78.788 L 914.302 78.788 L 914.302 87.844 L 875.352 87.844 L 875.352 116.094 L 911.947 116.094 L 911.947 125.09 L 875.352 125.09 L 875.352 157.358 L 914.302 157.358 Z  M 961.041 87.844 L 961.041 166.475 L 950.775 166.475 L 950.775 87.844 L 922.816 87.844 L 922.816 78.788 L 989 78.788 L 989 87.844 L 961.041 87.844 Z  M 73.962 78.788 L 73.962 166.475 L 62.247 166.475 L 13.998 92.882 L 13.515 92.882 L 13.515 92.882 Q 14.481 105.838 14.481 116.634 L 14.481 116.634 L 14.481 166.475 L 5 166.475 L 5 78.788 L 16.594 78.788 L 64.722 152.08 L 65.205 152.08 L 65.205 152.08 Q 65.085 150.461 64.662 141.674 L 64.662 141.674 L 64.662 141.674 Q 64.239 132.887 64.36 129.109 L 64.36 129.109 L 64.36 78.788 L 73.962 78.788 Z  M 147.452 157.358 L 147.452 166.475 L 98.237 166.475 L 98.237 78.788 L 147.452 78.788 L 147.452 87.844 L 108.503 87.844 L 108.503 116.094 L 145.097 116.094 L 145.097 125.09 L 108.503 125.09 L 108.503 157.358 L 147.452 157.358 Z  M 243.648 122.511 L 243.648 122.511 L 243.648 122.511 Q 243.648 143.563 232.929 155.619 L 232.929 155.619 L 232.929 155.619 Q 222.211 167.675 203.129 167.675 L 203.129 167.675 L 203.129 167.675 Q 183.624 167.675 173.026 155.829 L 173.026 155.829 L 173.026 155.829 Q 162.428 143.983 162.428 122.391 L 162.428 122.391 L 162.428 122.391 Q 162.428 100.979 173.056 89.194 L 173.056 89.194 L 173.056 89.194 Q 183.684 77.408 203.249 77.408 L 203.249 77.408 L 203.249 77.408 Q 222.271 77.408 232.959 89.404 L 232.959 89.404 L 232.959 89.404 Q 243.648 101.399 243.648 122.511 Z  M 173.298 122.511 L 173.298 122.511 L 173.298 122.511 Q 173.298 140.325 180.936 149.531 L 180.936 149.531 L 180.936 149.531 Q 188.575 158.738 203.129 158.738 L 203.129 158.738 L 203.129 158.738 Q 217.802 158.738 225.29 149.561 L 225.29 149.561 L 225.29 149.561 Q 232.778 140.385 232.778 122.511 L 232.778 122.511 L 232.778 122.511 Q 232.778 104.818 225.321 95.671 L 225.321 95.671 L 225.321 95.671 Q 217.863 86.525 203.249 86.525 L 203.249 86.525 L 203.249 86.525 Q 188.575 86.525 180.936 95.731 L 180.936 95.731 L 180.936 95.731 Q 173.298 104.938 173.298 122.511 Z  M 302.163 129.649 L 302.163 120.532 L 332.175 120.532 L 332.175 163.176 L 332.175 163.176 Q 325.17 165.395 317.923 166.535 L 317.923 166.535 L 317.923 166.535 Q 310.677 167.675 301.136 167.675 L 301.136 167.675 L 301.136 167.675 Q 281.088 167.675 269.916 155.829 L 269.916 155.829 L 269.916 155.829 Q 258.745 143.983 258.745 122.631 L 258.745 122.631 L 258.745 122.631 Q 258.745 108.956 264.27 98.67 L 264.27 98.67 L 264.27 98.67 Q 269.795 88.384 280.182 82.956 L 280.182 82.956 L 280.182 82.956 Q 290.568 77.528 304.518 77.528 L 304.518 77.528 L 304.518 77.528 Q 318.648 77.528 330.846 82.686 L 330.846 82.686 L 326.861 91.683 L 326.861 91.683 Q 314.904 86.645 303.853 86.645 L 303.853 86.645 L 303.853 86.645 Q 287.73 86.645 278.672 96.181 L 278.672 96.181 L 278.672 96.181 Q 269.614 105.718 269.614 122.631 L 269.614 122.631 L 269.614 122.631 Q 269.614 140.385 278.34 149.561 L 278.34 149.561 L 278.34 149.561 Q 287.066 158.738 303.974 158.738 L 303.974 158.738 L 303.974 158.738 Q 313.153 158.738 321.909 156.639 L 321.909 156.639 L 321.909 129.649 L 302.163 129.649 Z  M 402.586 157.358 L 402.586 166.475 L 353.37 166.475 L 353.37 78.788 L 402.586 78.788 L 402.586 87.844 L 363.636 87.844 L 363.636 116.094 L 400.23 116.094 L 400.23 125.09 L 363.636 125.09 L 363.636 157.358 L 402.586 157.358 Z  M 498.781 122.511 L 498.781 122.511 L 498.781 122.511 Q 498.781 143.563 488.063 155.619 L 488.063 155.619 L 488.063 155.619 Q 477.344 167.675 458.262 167.675 L 458.262 167.675 L 458.262 167.675 Q 438.757 167.675 428.159 155.829 L 428.159 155.829 L 428.159 155.829 Q 417.561 143.983 417.561 122.391 L 417.561 122.391 L 417.561 122.391 Q 417.561 100.979 428.189 89.194 L 428.189 89.194 L 428.189 89.194 Q 438.817 77.408 458.383 77.408 L 458.383 77.408 L 458.383 77.408 Q 477.405 77.408 488.093 89.404 L 488.093 89.404 L 488.093 89.404 Q 498.781 101.399 498.781 122.511 Z  M 428.431 122.511 L 428.431 122.511 L 428.431 122.511 Q 428.431 140.325 436.07 149.531 L 436.07 149.531 L 436.07 149.531 Q 443.709 158.738 458.262 158.738 L 458.262 158.738 L 458.262 158.738 Q 472.936 158.738 480.424 149.561 L 480.424 149.561 L 480.424 149.561 Q 487.912 140.385 487.912 122.511 L 487.912 122.511 L 487.912 122.511 Q 487.912 104.818 480.454 95.671 L 480.454 95.671 L 480.454 95.671 Q 472.996 86.525 458.383 86.525 L 458.383 86.525 L 458.383 86.525 Q 443.709 86.525 436.07 95.731 L 436.07 95.731 L 436.07 95.731 Q 428.431 104.938 428.431 122.511 Z " fill="rgb(234,234,234)"/><path d=" M 552.908 152.602 L 554.969 157.29 L 545.529 161.385 L 543.468 156.697 L 502.161 62.759 L 549.404 44.447 C 549.795 44.303 550.197 44.191 550.61 44.139 C 555.474 43.505 560.4 43.331 565.296 43.607 C 568.975 43.822 572.603 44.528 576.086 45.695 C 578.085 46.381 580.023 47.241 581.868 48.275 C 583.609 49.247 585.248 50.404 586.742 51.714 C 588.237 53.014 589.587 54.458 590.782 56.034 C 592.04 57.682 593.122 59.443 594.039 61.295 C 594.977 63.199 595.698 65.206 596.183 67.273 C 596.646 69.228 596.863 71.245 596.832 73.261 C 596.801 75.319 596.512 77.376 595.987 79.372 C 595.399 81.553 594.596 83.672 593.565 85.688 C 593.132 86.517 592.679 87.336 592.184 88.135 C 591.658 88.994 591.102 89.834 590.514 90.663 C 590.082 91.267 589.638 91.871 589.175 92.454 C 588.68 93.079 588.175 93.693 587.66 94.297 C 586.052 96.17 584.341 97.941 582.538 99.599 C 580.301 101.667 577.972 103.622 575.55 105.475 C 574.179 106.529 572.355 106.826 570.706 106.253 L 533.667 93.406 L 542.746 61.5 L 566.223 61.5 L 571.376 61.5 L 571.376 71.736 L 566.223 71.736 L 550.538 71.736 L 546.219 86.917 L 571.428 95.658 C 572.829 94.512 574.2 93.324 575.53 92.096 C 577.044 90.704 578.477 89.22 579.817 87.654 C 580.239 87.162 580.652 86.671 581.054 86.159 C 581.414 85.698 581.765 85.228 582.105 84.746 C 582.548 84.122 582.981 83.477 583.383 82.812 C 583.733 82.239 584.063 81.645 584.372 81.051 C 585.073 79.68 585.629 78.236 586.021 76.752 C 586.34 75.565 586.505 74.336 586.526 73.108 C 586.547 71.931 586.423 70.754 586.145 69.597 C 585.836 68.287 585.382 67.007 584.784 65.799 C 584.156 64.53 583.414 63.322 582.558 62.196 C 581.785 61.183 580.909 60.241 579.951 59.412 C 578.982 58.562 577.92 57.815 576.797 57.18 C 575.519 56.464 574.169 55.86 572.767 55.389 C 570.16 54.509 567.45 53.987 564.708 53.833 C 560.658 53.598 556.587 53.731 552.557 54.212 L 515.889 68.43 L 552.908 152.602 Z " fill="rgb(219,0,0)"/><path d=" M 562.589 10.439 L 562.156 33.119 L 569.864 33.697 L 573.893 11.287 L 562.589 10.439 Z " fill="rgb(219,0,0)"/><path d=" M 587.703 15.281 L 577.71 35.678 L 584.458 39.421 L 597.601 20.771 L 587.703 15.281 Z " fill="rgb(56,130,105)"/><path d=" M 606.919 28.803 L 589.702 43.707 L 594.444 49.77 L 613.873 37.695 L 606.919 28.803 Z " fill="rgb(97,186,219)"/></g></svg>