<?xml version="1.0" encoding="UTF-8" standalone="no"?><!-- Generator: Gravit.io --><svg xmlns="http://www.w3.org/2000/svg" xmlns:xlink="http://www.w3.org/1999/xlink" style="isolation:isolate" viewBox="0 0 992 250" width="992pt" height="250pt"><defs><clipPath id="_clipPath_Ls68kJoFsruGzCPSaTMufngFt2d7hfQ6"><rect width="992" height="250"/></clipPath></defs><g clip-path="url(#_clipPath_Ls68kJoFsruGzCPSaTMufngFt2d7hfQ6)"><path d=" M 126.17 139.361 L 126.17 139.361 L 126.17 139.361 Q 126.17 126.212 130.765 114.073 L 130.765 114.073 L 130.765 114.073 Q 135.359 101.933 144.698 93.491 L 144.698 93.491 L 144.698 93.491 Q 153.065 85.871 164.196 82.77 L 164.196 82.77 L 164.196 82.77 Q 175.327 79.67 190.045 79.67 L 190.045 79.67 L 190.045 79.67 Q 212.756 79.67 225.68 91.324 L 225.68 91.324 L 225.68 91.324 Q 240.92 105.22 240.92 130.022 L 240.92 130.022 L 240.92 130.022 Q 240.92 143.022 237.372 153.593 L 237.372 153.593 L 237.372 153.593 Q 233.823 164.164 227.697 171.261 L 227.697 171.261 L 227.697 171.261 Q 221.571 178.358 213.092 183.139 L 213.092 183.139 L 213.092 183.139 Q 204.613 187.92 195.05 190.05 L 195.05 190.05 L 195.05 190.05 Q 185.488 192.179 174.73 192.179 L 174.73 192.179 L 174.73 192.179 Q 154.036 192.179 141.485 180.823 L 141.485 180.823 L 141.485 180.823 Q 133.492 173.502 129.831 162.557 L 129.831 162.557 L 129.831 162.557 Q 126.17 151.613 126.17 139.361 Z  M 147.312 133.833 L 147.312 133.833 L 147.312 133.833 Q 147.312 140.481 148.47 147.242 L 148.47 147.242 L 148.47 147.242 Q 149.628 154.003 152.43 160.951 L 152.43 160.951 L 152.43 160.951 Q 155.231 167.899 159.378 173.166 L 159.378 173.166 L 159.378 173.166 Q 163.524 178.433 170.061 181.794 L 170.061 181.794 L 170.061 181.794 Q 176.597 185.156 184.666 185.156 L 184.666 185.156 L 184.666 185.156 Q 192.435 185.156 198.524 182.467 L 198.524 182.467 L 198.524 182.467 Q 204.613 179.777 208.423 175.444 L 208.423 175.444 L 208.423 175.444 Q 212.233 171.111 214.698 165.097 L 214.698 165.097 L 214.698 165.097 Q 217.163 159.084 218.135 152.958 L 218.135 152.958 L 218.135 152.958 Q 219.106 146.832 219.106 140.108 L 219.106 140.108 L 219.106 140.108 Q 219.106 135.252 218.658 130.359 L 218.658 130.359 L 218.658 130.359 Q 218.209 125.465 217.051 120.049 L 217.051 120.049 L 217.051 120.049 Q 215.893 114.633 214.1 109.777 L 214.1 109.777 L 214.1 109.777 Q 212.307 104.921 209.469 100.476 L 209.469 100.476 L 209.469 100.476 Q 206.63 96.031 203.044 92.818 L 203.044 92.818 L 203.044 92.818 Q 199.458 89.606 194.452 87.701 L 194.452 87.701 L 194.452 87.701 Q 189.447 85.796 183.545 85.796 L 183.545 85.796 L 183.545 85.796 Q 176.373 85.796 170.285 88.747 L 170.285 88.747 L 170.285 88.747 Q 164.196 91.698 160.05 96.516 L 160.05 96.516 L 160.05 96.516 Q 155.904 101.335 152.953 107.648 L 152.953 107.648 L 152.953 107.648 Q 150.002 113.96 148.657 120.609 L 148.657 120.609 L 148.657 120.609 Q 147.312 127.258 147.312 133.833 Z  M 302.628 190.012 L 259.448 190.012 L 259.448 187.846 L 259.448 187.846 Q 259.971 187.173 260.942 185.978 L 260.942 185.978 L 260.942 185.978 Q 261.913 184.783 262.249 184.297 L 262.249 184.297 L 262.249 184.297 Q 262.585 183.812 263.146 182.728 L 263.146 182.728 L 263.146 182.728 Q 263.706 181.645 263.893 180.599 L 263.893 180.599 L 263.893 180.599 Q 264.079 179.553 264.229 177.798 L 264.229 177.798 L 264.229 177.798 Q 264.378 176.042 264.378 173.651 L 264.378 173.651 L 264.378 107.984 L 264.378 107.984 Q 264.378 97.973 263.258 94.238 L 263.258 94.238 L 263.258 94.238 Q 262.959 93.117 262.436 92.221 L 262.436 92.221 L 262.436 92.221 Q 261.913 91.324 260.904 90.727 L 260.904 90.727 L 260.904 90.727 Q 259.896 90.129 259.149 89.718 L 259.149 89.718 L 259.149 89.718 Q 258.402 89.307 256.833 88.934 L 256.833 88.934 L 256.833 88.934 Q 255.264 88.56 254.554 88.411 L 254.554 88.411 L 254.554 88.411 Q 253.845 88.261 251.94 88 L 251.94 88 L 251.94 88 Q 250.034 87.738 249.512 87.664 L 249.512 87.664 L 249.512 84.003 L 250.408 83.032 L 313.909 83.032 L 313.909 83.032 Q 323.322 83.032 331.166 84.414 L 331.166 84.414 L 331.166 84.414 Q 339.011 85.796 344.688 88.224 L 344.688 88.224 L 344.688 88.224 Q 350.366 90.652 354.736 94.238 L 354.736 94.238 L 354.736 94.238 Q 359.107 97.824 361.871 101.858 L 361.871 101.858 L 361.871 101.858 Q 364.635 105.892 366.353 110.86 L 366.353 110.86 L 366.353 110.86 Q 368.072 115.828 368.781 120.721 L 368.781 120.721 L 368.781 120.721 Q 369.491 125.615 369.491 131.143 L 369.491 131.143 L 369.491 131.143 Q 369.491 158.187 353.429 172.755 L 353.429 172.755 L 353.429 172.755 Q 343.792 181.57 330.606 185.791 L 330.606 185.791 L 330.606 185.791 Q 317.42 190.012 302.628 190.012 L 302.628 190.012 Z  M 283.503 101.858 L 283.503 161.549 L 283.503 161.549 Q 283.279 168.795 284.549 177.76 L 284.549 177.76 L 284.549 177.76 Q 284.848 179.628 286.043 180.823 L 286.043 180.823 L 286.043 180.823 Q 287.239 182.019 289.256 182.542 L 289.256 182.542 L 289.256 182.542 Q 291.273 183.064 293.066 183.251 L 293.066 183.251 L 293.066 183.251 Q 294.859 183.438 297.399 183.438 L 297.399 183.438 L 297.399 183.438 Q 319.96 183.438 332.287 171.933 L 332.287 171.933 L 332.287 171.933 Q 345.884 159.457 345.884 132.04 L 345.884 132.04 L 345.884 132.04 Q 345.884 124.046 344.427 117.658 L 344.427 117.658 L 344.427 117.658 Q 342.97 111.271 340.617 106.901 L 340.617 106.901 L 340.617 106.901 Q 338.263 102.53 334.528 99.318 L 334.528 99.318 L 334.528 99.318 Q 330.793 96.105 326.945 94.275 L 326.945 94.275 L 326.945 94.275 Q 323.098 92.445 317.868 91.399 L 317.868 91.399 L 317.868 91.399 Q 312.639 90.353 308.082 90.017 L 308.082 90.017 L 308.082 90.017 Q 303.525 89.681 297.698 89.681 L 297.698 89.681 L 297.698 89.681 Q 289.106 89.681 285.744 90.278 L 285.744 90.278 L 285.744 90.278 Q 284.176 90.577 283.839 92.221 L 283.839 92.221 L 283.839 92.221 Q 283.503 93.864 283.503 99.094 L 283.503 99.094 L 283.503 99.094 Q 283.503 100.887 283.503 101.858 L 283.503 101.858 Z  M 472.363 81.687 L 472.512 83.555 L 429.257 140.407 L 429.257 140.407 Q 429.257 157.739 430.601 185.605 L 430.601 185.605 L 413.195 190.46 L 410.43 189.116 L 410.43 189.116 Q 410.58 182.243 410.804 171.074 L 410.804 171.074 L 410.804 171.074 Q 411.028 159.905 411.178 152.21 L 411.178 152.21 L 411.178 152.21 Q 411.327 144.516 411.327 144.441 L 411.327 144.441 L 411.327 144.441 Q 411.252 144.366 407.442 136.709 L 407.442 136.709 L 407.442 136.709 Q 403.632 129.051 398.216 118.293 L 398.216 118.293 L 398.216 118.293 Q 392.8 107.536 389.737 101.709 L 389.737 101.709 L 389.737 101.709 Q 389.587 101.484 388.803 99.953 L 388.803 99.953 L 388.803 99.953 Q 388.018 98.421 387.757 97.936 L 387.757 97.936 L 387.757 97.936 Q 387.495 97.45 386.711 96.105 L 386.711 96.105 L 386.711 96.105 Q 385.927 94.761 385.516 94.2 L 385.516 94.2 L 385.516 94.2 Q 385.105 93.64 384.283 92.632 L 384.283 92.632 L 384.283 92.632 Q 383.461 91.623 382.826 91.1 L 382.826 91.1 L 382.826 91.1 Q 382.191 90.577 381.295 90.054 L 381.295 90.054 L 381.295 90.054 Q 380.398 89.531 379.502 89.307 L 379.502 89.307 L 372.479 87.514 L 372.479 83.555 L 373.675 82.135 L 401.69 82.135 L 401.69 82.135 Q 402.138 83.256 406.06 91.175 L 406.06 91.175 L 406.06 91.175 Q 409.982 99.094 415.847 110.785 L 415.847 110.785 L 415.847 110.785 Q 421.711 122.477 424.625 128.379 L 424.625 128.379 L 424.625 128.379 Q 425.073 129.275 426.492 129.275 L 426.492 129.275 L 426.492 129.275 Q 427.538 129.275 428.285 128.528 L 428.285 128.528 L 456.749 84.302 L 472.363 81.687 Z  M 551.776 94.686 L 537.208 106.042 L 534.594 105.22 L 534.594 105.22 Q 533.473 96.853 528.206 90.951 L 528.206 90.951 L 528.206 90.951 Q 522.939 85.049 514.124 85.049 L 514.124 85.049 L 514.124 85.049 Q 506.952 85.049 502.582 89.531 L 502.582 89.531 L 502.582 89.531 Q 498.211 94.014 498.211 100.513 L 498.211 100.513 L 498.211 100.513 Q 498.211 104.323 499.705 107.722 L 499.705 107.722 L 499.705 107.722 Q 501.2 111.122 503.291 113.55 L 503.291 113.55 L 503.291 113.55 Q 505.383 115.978 508.969 118.518 L 508.969 118.518 L 508.969 118.518 Q 512.555 121.058 515.244 122.589 L 515.244 122.589 L 515.244 122.589 Q 517.934 124.121 522.192 126.212 L 522.192 126.212 L 522.192 126.212 Q 528.243 129.35 532.203 131.629 L 532.203 131.629 L 532.203 131.629 Q 536.162 133.907 540.159 136.896 L 540.159 136.896 L 540.159 136.896 Q 544.156 139.884 546.397 142.76 L 546.397 142.76 L 546.397 142.76 Q 548.638 145.636 550.058 149.334 L 550.058 149.334 L 550.058 149.334 Q 551.477 153.032 551.477 157.291 L 551.477 157.291 L 551.477 157.291 Q 551.477 164.836 547.182 171.522 L 547.182 171.522 L 547.182 171.522 Q 542.886 178.209 536.088 182.579 L 536.088 182.579 L 536.088 182.579 Q 529.289 186.949 520.997 189.489 L 520.997 189.489 L 520.997 189.489 Q 512.704 192.029 504.636 192.029 L 504.636 192.029 L 504.636 192.029 Q 495.223 192.029 487.08 188.032 L 487.08 188.032 L 487.08 188.032 Q 478.937 184.036 473.707 176.565 L 473.707 176.565 L 488.574 159.905 L 491.488 160.951 L 491.488 160.951 Q 491.488 170.14 497.576 177.312 L 497.576 177.312 L 497.576 177.312 Q 503.665 184.484 513.377 184.484 L 513.377 184.484 L 513.377 184.484 Q 521.445 184.484 527.198 178.769 L 527.198 178.769 L 527.198 178.769 Q 532.95 173.054 532.95 165.658 L 532.95 165.658 L 532.95 165.658 Q 532.95 158.71 524.658 151.015 L 524.658 151.015 L 524.658 151.015 Q 522.267 148.774 517.672 146.047 L 517.672 146.047 L 517.672 146.047 Q 513.078 143.32 508.483 140.967 L 508.483 140.967 L 508.483 140.967 Q 503.889 138.614 498.846 135.289 L 498.846 135.289 L 498.846 135.289 Q 493.804 131.965 490.031 128.603 L 490.031 128.603 L 490.031 128.603 Q 486.258 125.241 483.755 120.423 L 483.755 120.423 L 483.755 120.423 Q 481.253 115.604 481.253 110.3 L 481.253 110.3 L 481.253 110.3 Q 481.253 102.306 484.615 96.143 L 484.615 96.143 L 484.615 96.143 Q 487.976 89.98 493.691 86.394 L 493.691 86.394 L 493.691 86.394 Q 499.407 82.808 506.317 81.015 L 506.317 81.015 L 506.317 81.015 Q 513.227 79.222 520.997 79.222 L 520.997 79.222 L 520.997 79.222 Q 533.249 79.222 540.794 82.808 L 540.794 82.808 L 540.794 82.808 Q 548.34 86.394 551.776 94.686 L 551.776 94.686 Z  M 639.706 94.686 L 625.138 106.042 L 622.524 105.22 L 622.524 105.22 Q 621.403 96.853 616.136 90.951 L 616.136 90.951 L 616.136 90.951 Q 610.869 85.049 602.054 85.049 L 602.054 85.049 L 602.054 85.049 Q 594.882 85.049 590.512 89.531 L 590.512 89.531 L 590.512 89.531 Q 586.141 94.014 586.141 100.513 L 586.141 100.513 L 586.141 100.513 Q 586.141 104.323 587.636 107.722 L 587.636 107.722 L 587.636 107.722 Q 589.13 111.122 591.222 113.55 L 591.222 113.55 L 591.222 113.55 Q 593.313 115.978 596.899 118.518 L 596.899 118.518 L 596.899 118.518 Q 600.485 121.058 603.175 122.589 L 603.175 122.589 L 603.175 122.589 Q 605.864 124.121 610.122 126.212 L 610.122 126.212 L 610.122 126.212 Q 616.174 129.35 620.133 131.629 L 620.133 131.629 L 620.133 131.629 Q 624.093 133.907 628.089 136.896 L 628.089 136.896 L 628.089 136.896 Q 632.086 139.884 634.327 142.76 L 634.327 142.76 L 634.327 142.76 Q 636.569 145.636 637.988 149.334 L 637.988 149.334 L 637.988 149.334 Q 639.408 153.032 639.408 157.291 L 639.408 157.291 L 639.408 157.291 Q 639.408 164.836 635.112 171.522 L 635.112 171.522 L 635.112 171.522 Q 630.816 178.209 624.018 182.579 L 624.018 182.579 L 624.018 182.579 Q 617.22 186.949 608.927 189.489 L 608.927 189.489 L 608.927 189.489 Q 600.635 192.029 592.566 192.029 L 592.566 192.029 L 592.566 192.029 Q 583.153 192.029 575.01 188.032 L 575.01 188.032 L 575.01 188.032 Q 566.867 184.036 561.638 176.565 L 561.638 176.565 L 576.504 159.905 L 579.418 160.951 L 579.418 160.951 Q 579.418 170.14 585.506 177.312 L 585.506 177.312 L 585.506 177.312 Q 591.595 184.484 601.307 184.484 L 601.307 184.484 L 601.307 184.484 Q 609.375 184.484 615.128 178.769 L 615.128 178.769 L 615.128 178.769 Q 620.88 173.054 620.88 165.658 L 620.88 165.658 L 620.88 165.658 Q 620.88 158.71 612.588 151.015 L 612.588 151.015 L 612.588 151.015 Q 610.197 148.774 605.603 146.047 L 605.603 146.047 L 605.603 146.047 Q 601.008 143.32 596.414 140.967 L 596.414 140.967 L 596.414 140.967 Q 591.819 138.614 586.776 135.289 L 586.776 135.289 L 586.776 135.289 Q 581.734 131.965 577.961 128.603 L 577.961 128.603 L 577.961 128.603 Q 574.188 125.241 571.686 120.423 L 571.686 120.423 L 571.686 120.423 Q 569.183 115.604 569.183 110.3 L 569.183 110.3 L 569.183 110.3 Q 569.183 102.306 572.545 96.143 L 572.545 96.143 L 572.545 96.143 Q 575.907 89.98 581.622 86.394 L 581.622 86.394 L 581.622 86.394 Q 587.337 82.808 594.247 81.015 L 594.247 81.015 L 594.247 81.015 Q 601.158 79.222 608.927 79.222 L 608.927 79.222 L 608.927 79.222 Q 621.179 79.222 628.724 82.808 L 628.724 82.808 L 628.724 82.808 Q 636.27 86.394 639.706 94.686 L 639.706 94.686 Z  M 688.117 180.524 L 731.745 178.209 L 733.24 179.479 L 729.28 191.058 L 729.28 191.058 Q 709.408 189.863 676.985 189.863 L 676.985 189.863 L 676.985 189.863 Q 664.733 189.863 662.417 189.265 L 662.417 189.265 L 662.417 189.265 Q 660.55 188.294 658.981 186.24 L 658.981 186.24 L 658.981 186.24 Q 657.412 184.185 657.412 182.093 L 657.412 182.093 L 657.412 116.426 L 657.412 116.426 Q 657.412 99.393 656.74 96.255 L 656.74 96.255 L 656.74 96.255 Q 656.291 94.611 655.507 93.341 L 655.507 93.341 L 655.507 93.341 Q 654.722 92.071 653.34 91.212 L 653.34 91.212 L 653.34 91.212 Q 651.958 90.353 651.024 89.83 L 651.024 89.83 L 651.024 89.83 Q 650.091 89.307 648.036 88.896 L 648.036 88.896 L 648.036 88.896 Q 645.982 88.485 645.309 88.373 L 645.309 88.373 L 645.309 88.373 Q 644.637 88.261 642.396 87.962 L 642.396 87.962 L 642.396 84.451 L 643.442 83.405 L 643.442 83.405 Q 699.323 83.405 716.58 81.388 L 716.58 81.388 L 718.597 82.135 L 718.597 91.623 L 716.729 93.341 L 716.729 93.341 Q 682.513 91.175 681.841 91.175 L 681.841 91.175 L 681.841 91.175 Q 680.496 91.175 679.525 91.399 L 679.525 91.399 L 679.525 91.399 Q 678.554 91.623 677.994 92.295 L 677.994 92.295 L 677.994 92.295 Q 677.433 92.968 677.097 93.379 L 677.097 93.379 L 677.097 93.379 Q 676.761 93.79 676.649 95.06 L 676.649 95.06 L 676.649 95.06 Q 676.537 96.33 676.537 96.741 L 676.537 96.741 L 676.537 96.741 Q 676.537 97.151 676.537 98.795 L 676.537 98.795 L 676.537 126.362 L 676.537 126.362 Q 676.537 127.557 677.433 128.939 L 677.433 128.939 L 677.433 128.939 Q 678.33 130.321 679.6 130.321 L 679.6 130.321 L 679.6 130.321 Q 683.858 130.321 692.151 129.724 L 692.151 129.724 L 692.151 129.724 Q 700.443 129.126 706.681 128.491 L 706.681 128.491 L 706.681 128.491 Q 712.919 127.856 713.218 127.781 L 713.218 127.781 L 713.218 127.781 Q 713.666 127.781 715.235 128.977 L 715.235 128.977 L 715.235 137.867 L 715.235 137.867 Q 704.701 137.418 680.795 137.418 L 680.795 137.418 L 680.795 137.418 Q 676.537 137.418 676.537 141.527 L 676.537 141.527 L 676.537 141.527 Q 676.537 163.267 677.882 171.037 L 677.882 171.037 L 677.882 171.037 Q 679.002 180.524 688.117 180.524 L 688.117 180.524 Z  M 829.163 81.687 L 829.313 83.555 L 786.057 140.407 L 786.057 140.407 Q 786.057 157.739 787.402 185.605 L 787.402 185.605 L 769.995 190.46 L 767.231 189.116 L 767.231 189.116 Q 767.381 182.243 767.605 171.074 L 767.605 171.074 L 767.605 171.074 Q 767.829 159.905 767.978 152.21 L 767.978 152.21 L 767.978 152.21 Q 768.128 144.516 768.128 144.441 L 768.128 144.441 L 768.128 144.441 Q 768.053 144.366 764.243 136.709 L 764.243 136.709 L 764.243 136.709 Q 760.433 129.051 755.017 118.293 L 755.017 118.293 L 755.017 118.293 Q 749.6 107.536 746.537 101.709 L 746.537 101.709 L 746.537 101.709 Q 746.388 101.484 745.604 99.953 L 745.604 99.953 L 745.604 99.953 Q 744.819 98.421 744.558 97.936 L 744.558 97.936 L 744.558 97.936 Q 744.296 97.45 743.512 96.105 L 743.512 96.105 L 743.512 96.105 Q 742.727 94.761 742.316 94.2 L 742.316 94.2 L 742.316 94.2 Q 741.906 93.64 741.084 92.632 L 741.084 92.632 L 741.084 92.632 Q 740.262 91.623 739.627 91.1 L 739.627 91.1 L 739.627 91.1 Q 738.992 90.577 738.096 90.054 L 738.096 90.054 L 738.096 90.054 Q 737.199 89.531 736.303 89.307 L 736.303 89.307 L 729.28 87.514 L 729.28 83.555 L 730.475 82.135 L 758.491 82.135 L 758.491 82.135 Q 758.939 83.256 762.861 91.175 L 762.861 91.175 L 762.861 91.175 Q 766.783 99.094 772.648 110.785 L 772.648 110.785 L 772.648 110.785 Q 778.512 122.477 781.426 128.379 L 781.426 128.379 L 781.426 128.379 Q 781.874 129.275 783.293 129.275 L 783.293 129.275 L 783.293 129.275 Q 784.339 129.275 785.086 128.528 L 785.086 128.528 L 813.55 84.302 L 829.163 81.687 Z " fill="rgb(0,0,0)"/><path d=" M 874.758 98.001 L 904.83 98.001 L 902.266 107.258 L 859.113 107.258 L 859.113 105.476 L 859.113 105.476 Q 873.193 93.873 882.319 81.531 L 882.319 81.531 L 882.319 81.531 Q 889.707 71.536 889.707 62.932 L 889.707 62.932 L 889.707 62.932 Q 889.707 60.672 889.185 58.629 L 889.185 58.629 L 889.185 58.629 Q 888.664 56.587 887.534 54.718 L 887.534 54.718 L 887.534 54.718 Q 886.404 52.85 884.296 51.741 L 884.296 51.741 L 884.296 51.741 Q 882.189 50.633 879.32 50.633 L 879.32 50.633 L 879.32 50.633 Q 877.191 50.633 874.584 51.589 L 874.584 51.589 L 874.584 51.589 Q 871.976 52.545 870.412 53.458 L 870.412 53.458 L 870.412 53.458 Q 868.847 54.371 866.153 56.065 L 866.153 56.065 L 864.545 53.936 L 864.545 53.936 Q 875.409 44.071 885.622 44.071 L 885.622 44.071 L 885.622 44.071 Q 889.837 44.071 893.401 45.571 L 893.401 45.571 L 893.401 45.571 Q 896.964 47.07 899.224 50.09 L 899.224 50.09 L 899.224 50.09 Q 901.484 53.11 901.484 57.065 L 901.484 57.065 L 901.484 57.065 Q 901.484 61.15 899.767 65.409 L 899.767 65.409 L 899.767 65.409 Q 898.05 69.667 894.813 73.97 L 894.813 73.97 L 894.813 73.97 Q 891.575 78.272 888.512 81.727 L 888.512 81.727 L 888.512 81.727 Q 885.448 85.182 881.037 89.81 L 881.037 89.81 L 881.037 89.81 Q 876.626 94.438 874.323 97.176 L 874.323 97.176 L 874.323 97.176 Q 874.236 97.263 874.236 97.567 L 874.236 97.567 L 874.236 97.567 Q 874.236 97.697 874.41 97.849 L 874.41 97.849 L 874.41 97.849 Q 874.584 98.001 874.758 98.001 L 874.758 98.001 Z " fill="rgb(0,0,0)"/><path d=" M 123.17 137.361 L 123.17 137.361 L 123.17 137.361 Q 123.17 124.212 127.765 112.073 L 127.765 112.073 L 127.765 112.073 Q 132.359 99.933 141.698 91.491 L 141.698 91.491 L 141.698 91.491 Q 150.065 83.871 161.196 80.77 L 161.196 80.77 L 161.196 80.77 Q 172.327 77.67 187.045 77.67 L 187.045 77.67 L 187.045 77.67 Q 209.756 77.67 222.68 89.324 L 222.68 89.324 L 222.68 89.324 Q 237.92 103.22 237.92 128.022 L 237.92 128.022 L 237.92 128.022 Q 237.92 141.022 234.372 151.593 L 234.372 151.593 L 234.372 151.593 Q 230.823 162.164 224.697 169.261 L 224.697 169.261 L 224.697 169.261 Q 218.571 176.358 210.092 181.139 L 210.092 181.139 L 210.092 181.139 Q 201.613 185.92 192.05 188.05 L 192.05 188.05 L 192.05 188.05 Q 182.488 190.179 171.73 190.179 L 171.73 190.179 L 171.73 190.179 Q 151.036 190.179 138.485 178.823 L 138.485 178.823 L 138.485 178.823 Q 130.492 171.502 126.831 160.557 L 126.831 160.557 L 126.831 160.557 Q 123.17 149.613 123.17 137.361 Z  M 144.312 131.833 L 144.312 131.833 L 144.312 131.833 Q 144.312 138.481 145.47 145.242 L 145.47 145.242 L 145.47 145.242 Q 146.628 152.003 149.43 158.951 L 149.43 158.951 L 149.43 158.951 Q 152.231 165.899 156.378 171.166 L 156.378 171.166 L 156.378 171.166 Q 160.524 176.433 167.061 179.794 L 167.061 179.794 L 167.061 179.794 Q 173.597 183.156 181.666 183.156 L 181.666 183.156 L 181.666 183.156 Q 189.435 183.156 195.524 180.467 L 195.524 180.467 L 195.524 180.467 Q 201.613 177.777 205.423 173.444 L 205.423 173.444 L 205.423 173.444 Q 209.233 169.111 211.698 163.097 L 211.698 163.097 L 211.698 163.097 Q 214.163 157.084 215.135 150.958 L 215.135 150.958 L 215.135 150.958 Q 216.106 144.832 216.106 138.108 L 216.106 138.108 L 216.106 138.108 Q 216.106 133.252 215.658 128.359 L 215.658 128.359 L 215.658 128.359 Q 215.209 123.465 214.051 118.049 L 214.051 118.049 L 214.051 118.049 Q 212.893 112.633 211.1 107.777 L 211.1 107.777 L 211.1 107.777 Q 209.307 102.921 206.469 98.476 L 206.469 98.476 L 206.469 98.476 Q 203.63 94.031 200.044 90.818 L 200.044 90.818 L 200.044 90.818 Q 196.458 87.606 191.452 85.701 L 191.452 85.701 L 191.452 85.701 Q 186.447 83.796 180.545 83.796 L 180.545 83.796 L 180.545 83.796 Q 173.373 83.796 167.285 86.747 L 167.285 86.747 L 167.285 86.747 Q 161.196 89.698 157.05 94.516 L 157.05 94.516 L 157.05 94.516 Q 152.904 99.335 149.953 105.648 L 149.953 105.648 L 149.953 105.648 Q 147.002 111.96 145.657 118.609 L 145.657 118.609 L 145.657 118.609 Q 144.312 125.258 144.312 131.833 Z  M 299.628 188.012 L 256.448 188.012 L 256.448 185.846 L 256.448 185.846 Q 256.971 185.173 257.942 183.978 L 257.942 183.978 L 257.942 183.978 Q 258.913 182.783 259.249 182.297 L 259.249 182.297 L 259.249 182.297 Q 259.585 181.812 260.146 180.728 L 260.146 180.728 L 260.146 180.728 Q 260.706 179.645 260.893 178.599 L 260.893 178.599 L 260.893 178.599 Q 261.079 177.553 261.229 175.798 L 261.229 175.798 L 261.229 175.798 Q 261.378 174.042 261.378 171.651 L 261.378 171.651 L 261.378 105.984 L 261.378 105.984 Q 261.378 95.973 260.258 92.238 L 260.258 92.238 L 260.258 92.238 Q 259.959 91.117 259.436 90.221 L 259.436 90.221 L 259.436 90.221 Q 258.913 89.324 257.904 88.727 L 257.904 88.727 L 257.904 88.727 Q 256.896 88.129 256.149 87.718 L 256.149 87.718 L 256.149 87.718 Q 255.402 87.307 253.833 86.934 L 253.833 86.934 L 253.833 86.934 Q 252.264 86.56 251.554 86.411 L 251.554 86.411 L 251.554 86.411 Q 250.845 86.261 248.94 86 L 248.94 86 L 248.94 86 Q 247.034 85.738 246.512 85.664 L 246.512 85.664 L 246.512 82.003 L 247.408 81.032 L 310.909 81.032 L 310.909 81.032 Q 320.322 81.032 328.166 82.414 L 328.166 82.414 L 328.166 82.414 Q 336.011 83.796 341.688 86.224 L 341.688 86.224 L 341.688 86.224 Q 347.366 88.652 351.736 92.238 L 351.736 92.238 L 351.736 92.238 Q 356.107 95.824 358.871 99.858 L 358.871 99.858 L 358.871 99.858 Q 361.635 103.892 363.353 108.86 L 363.353 108.86 L 363.353 108.86 Q 365.072 113.828 365.781 118.721 L 365.781 118.721 L 365.781 118.721 Q 366.491 123.615 366.491 129.143 L 366.491 129.143 L 366.491 129.143 Q 366.491 156.187 350.429 170.755 L 350.429 170.755 L 350.429 170.755 Q 340.792 179.57 327.606 183.791 L 327.606 183.791 L 327.606 183.791 Q 314.42 188.012 299.628 188.012 L 299.628 188.012 Z  M 280.503 99.858 L 280.503 159.549 L 280.503 159.549 Q 280.279 166.795 281.549 175.76 L 281.549 175.76 L 281.549 175.76 Q 281.848 177.628 283.043 178.823 L 283.043 178.823 L 283.043 178.823 Q 284.239 180.019 286.256 180.542 L 286.256 180.542 L 286.256 180.542 Q 288.273 181.064 290.066 181.251 L 290.066 181.251 L 290.066 181.251 Q 291.859 181.438 294.399 181.438 L 294.399 181.438 L 294.399 181.438 Q 316.96 181.438 329.287 169.933 L 329.287 169.933 L 329.287 169.933 Q 342.884 157.457 342.884 130.04 L 342.884 130.04 L 342.884 130.04 Q 342.884 122.046 341.427 115.658 L 341.427 115.658 L 341.427 115.658 Q 339.97 109.271 337.617 104.901 L 337.617 104.901 L 337.617 104.901 Q 335.263 100.53 331.528 97.318 L 331.528 97.318 L 331.528 97.318 Q 327.793 94.105 323.945 92.275 L 323.945 92.275 L 323.945 92.275 Q 320.098 90.445 314.868 89.399 L 314.868 89.399 L 314.868 89.399 Q 309.639 88.353 305.082 88.017 L 305.082 88.017 L 305.082 88.017 Q 300.525 87.681 294.698 87.681 L 294.698 87.681 L 294.698 87.681 Q 286.106 87.681 282.744 88.278 L 282.744 88.278 L 282.744 88.278 Q 281.176 88.577 280.839 90.221 L 280.839 90.221 L 280.839 90.221 Q 280.503 91.864 280.503 97.094 L 280.503 97.094 L 280.503 97.094 Q 280.503 98.887 280.503 99.858 L 280.503 99.858 Z  M 469.363 79.687 L 469.512 81.555 L 426.257 138.407 L 426.257 138.407 Q 426.257 155.739 427.601 183.605 L 427.601 183.605 L 410.195 188.46 L 407.43 187.116 L 407.43 187.116 Q 407.58 180.243 407.804 169.074 L 407.804 169.074 L 407.804 169.074 Q 408.028 157.905 408.178 150.21 L 408.178 150.21 L 408.178 150.21 Q 408.327 142.516 408.327 142.441 L 408.327 142.441 L 408.327 142.441 Q 408.252 142.366 404.442 134.709 L 404.442 134.709 L 404.442 134.709 Q 400.632 127.051 395.216 116.293 L 395.216 116.293 L 395.216 116.293 Q 389.8 105.536 386.737 99.709 L 386.737 99.709 L 386.737 99.709 Q 386.587 99.484 385.803 97.953 L 385.803 97.953 L 385.803 97.953 Q 385.018 96.421 384.757 95.936 L 384.757 95.936 L 384.757 95.936 Q 384.495 95.45 383.711 94.105 L 383.711 94.105 L 383.711 94.105 Q 382.927 92.761 382.516 92.2 L 382.516 92.2 L 382.516 92.2 Q 382.105 91.64 381.283 90.632 L 381.283 90.632 L 381.283 90.632 Q 380.461 89.623 379.826 89.1 L 379.826 89.1 L 379.826 89.1 Q 379.191 88.577 378.295 88.054 L 378.295 88.054 L 378.295 88.054 Q 377.398 87.531 376.502 87.307 L 376.502 87.307 L 369.479 85.514 L 369.479 81.555 L 370.675 80.135 L 398.69 80.135 L 398.69 80.135 Q 399.138 81.256 403.06 89.175 L 403.06 89.175 L 403.06 89.175 Q 406.982 97.094 412.847 108.785 L 412.847 108.785 L 412.847 108.785 Q 418.711 120.477 421.625 126.379 L 421.625 126.379 L 421.625 126.379 Q 422.073 127.275 423.492 127.275 L 423.492 127.275 L 423.492 127.275 Q 424.538 127.275 425.285 126.528 L 425.285 126.528 L 453.749 82.302 L 469.363 79.687 Z  M 548.776 92.686 L 534.208 104.042 L 531.594 103.22 L 531.594 103.22 Q 530.473 94.853 525.206 88.951 L 525.206 88.951 L 525.206 88.951 Q 519.939 83.049 511.124 83.049 L 511.124 83.049 L 511.124 83.049 Q 503.952 83.049 499.582 87.531 L 499.582 87.531 L 499.582 87.531 Q 495.211 92.014 495.211 98.513 L 495.211 98.513 L 495.211 98.513 Q 495.211 102.323 496.705 105.722 L 496.705 105.722 L 496.705 105.722 Q 498.2 109.122 500.291 111.55 L 500.291 111.55 L 500.291 111.55 Q 502.383 113.978 505.969 116.518 L 505.969 116.518 L 505.969 116.518 Q 509.555 119.058 512.244 120.589 L 512.244 120.589 L 512.244 120.589 Q 514.934 122.121 519.192 124.212 L 519.192 124.212 L 519.192 124.212 Q 525.244 127.35 529.203 129.629 L 529.203 129.629 L 529.203 129.629 Q 533.162 131.907 537.159 134.896 L 537.159 134.896 L 537.159 134.896 Q 541.156 137.884 543.397 140.76 L 543.397 140.76 L 543.397 140.76 Q 545.639 143.636 547.058 147.334 L 547.058 147.334 L 547.058 147.334 Q 548.477 151.032 548.477 155.291 L 548.477 155.291 L 548.477 155.291 Q 548.477 162.836 544.182 169.522 L 544.182 169.522 L 544.182 169.522 Q 539.886 176.209 533.088 180.579 L 533.088 180.579 L 533.088 180.579 Q 526.289 184.949 517.997 187.489 L 517.997 187.489 L 517.997 187.489 Q 509.704 190.029 501.636 190.029 L 501.636 190.029 L 501.636 190.029 Q 492.223 190.029 484.08 186.032 L 484.08 186.032 L 484.08 186.032 Q 475.937 182.036 470.707 174.565 L 470.707 174.565 L 485.574 157.905 L 488.488 158.951 L 488.488 158.951 Q 488.488 168.14 494.576 175.312 L 494.576 175.312 L 494.576 175.312 Q 500.665 182.484 510.377 182.484 L 510.377 182.484 L 510.377 182.484 Q 518.445 182.484 524.198 176.769 L 524.198 176.769 L 524.198 176.769 Q 529.95 171.054 529.95 163.658 L 529.95 163.658 L 529.95 163.658 Q 529.95 156.71 521.658 149.015 L 521.658 149.015 L 521.658 149.015 Q 519.267 146.774 514.672 144.047 L 514.672 144.047 L 514.672 144.047 Q 510.078 141.32 505.483 138.967 L 505.483 138.967 L 505.483 138.967 Q 500.889 136.614 495.846 133.289 L 495.846 133.289 L 495.846 133.289 Q 490.804 129.965 487.031 126.603 L 487.031 126.603 L 487.031 126.603 Q 483.258 123.241 480.755 118.423 L 480.755 118.423 L 480.755 118.423 Q 478.253 113.604 478.253 108.3 L 478.253 108.3 L 478.253 108.3 Q 478.253 100.306 481.615 94.143 L 481.615 94.143 L 481.615 94.143 Q 484.976 87.98 490.692 84.394 L 490.692 84.394 L 490.692 84.394 Q 496.407 80.808 503.317 79.015 L 503.317 79.015 L 503.317 79.015 Q 510.227 77.222 517.997 77.222 L 517.997 77.222 L 517.997 77.222 Q 530.249 77.222 537.794 80.808 L 537.794 80.808 L 537.794 80.808 Q 545.34 84.394 548.776 92.686 L 548.776 92.686 Z  M 636.706 92.686 L 622.139 104.042 L 619.524 103.22 L 619.524 103.22 Q 618.403 94.853 613.136 88.951 L 613.136 88.951 L 613.136 88.951 Q 607.869 83.049 599.054 83.049 L 599.054 83.049 L 599.054 83.049 Q 591.882 83.049 587.512 87.531 L 587.512 87.531 L 587.512 87.531 Q 583.141 92.014 583.141 98.513 L 583.141 98.513 L 583.141 98.513 Q 583.141 102.323 584.636 105.722 L 584.636 105.722 L 584.636 105.722 Q 586.13 109.122 588.222 111.55 L 588.222 111.55 L 588.222 111.55 Q 590.313 113.978 593.899 116.518 L 593.899 116.518 L 593.899 116.518 Q 597.485 119.058 600.175 120.589 L 600.175 120.589 L 600.175 120.589 Q 602.864 122.121 607.122 124.212 L 607.122 124.212 L 607.122 124.212 Q 613.174 127.35 617.133 129.629 L 617.133 129.629 L 617.133 129.629 Q 621.093 131.907 625.089 134.896 L 625.089 134.896 L 625.089 134.896 Q 629.086 137.884 631.327 140.76 L 631.327 140.76 L 631.327 140.76 Q 633.569 143.636 634.988 147.334 L 634.988 147.334 L 634.988 147.334 Q 636.408 151.032 636.408 155.291 L 636.408 155.291 L 636.408 155.291 Q 636.408 162.836 632.112 169.522 L 632.112 169.522 L 632.112 169.522 Q 627.816 176.209 621.018 180.579 L 621.018 180.579 L 621.018 180.579 Q 614.22 184.949 605.927 187.489 L 605.927 187.489 L 605.927 187.489 Q 597.635 190.029 589.566 190.029 L 589.566 190.029 L 589.566 190.029 Q 580.153 190.029 572.01 186.032 L 572.01 186.032 L 572.01 186.032 Q 563.867 182.036 558.638 174.565 L 558.638 174.565 L 573.504 157.905 L 576.418 158.951 L 576.418 158.951 Q 576.418 168.14 582.506 175.312 L 582.506 175.312 L 582.506 175.312 Q 588.595 182.484 598.307 182.484 L 598.307 182.484 L 598.307 182.484 Q 606.375 182.484 612.128 176.769 L 612.128 176.769 L 612.128 176.769 Q 617.88 171.054 617.88 163.658 L 617.88 163.658 L 617.88 163.658 Q 617.88 156.71 609.588 149.015 L 609.588 149.015 L 609.588 149.015 Q 607.197 146.774 602.603 144.047 L 602.603 144.047 L 602.603 144.047 Q 598.008 141.32 593.414 138.967 L 593.414 138.967 L 593.414 138.967 Q 588.819 136.614 583.776 133.289 L 583.776 133.289 L 583.776 133.289 Q 578.734 129.965 574.961 126.603 L 574.961 126.603 L 574.961 126.603 Q 571.188 123.241 568.686 118.423 L 568.686 118.423 L 568.686 118.423 Q 566.183 113.604 566.183 108.3 L 566.183 108.3 L 566.183 108.3 Q 566.183 100.306 569.545 94.143 L 569.545 94.143 L 569.545 94.143 Q 572.907 87.98 578.622 84.394 L 578.622 84.394 L 578.622 84.394 Q 584.337 80.808 591.247 79.015 L 591.247 79.015 L 591.247 79.015 Q 598.158 77.222 605.927 77.222 L 605.927 77.222 L 605.927 77.222 Q 618.179 77.222 625.724 80.808 L 625.724 80.808 L 625.724 80.808 Q 633.27 84.394 636.706 92.686 L 636.706 92.686 Z  M 685.117 178.524 L 728.745 176.209 L 730.24 177.479 L 726.28 189.058 L 726.28 189.058 Q 706.408 187.863 673.985 187.863 L 673.985 187.863 L 673.985 187.863 Q 661.733 187.863 659.417 187.265 L 659.417 187.265 L 659.417 187.265 Q 657.55 186.294 655.981 184.24 L 655.981 184.24 L 655.981 184.24 Q 654.412 182.185 654.412 180.093 L 654.412 180.093 L 654.412 114.426 L 654.412 114.426 Q 654.412 97.393 653.74 94.255 L 653.74 94.255 L 653.74 94.255 Q 653.291 92.611 652.507 91.341 L 652.507 91.341 L 652.507 91.341 Q 651.723 90.071 650.34 89.212 L 650.34 89.212 L 650.34 89.212 Q 648.958 88.353 648.025 87.83 L 648.025 87.83 L 648.025 87.83 Q 647.091 87.307 645.036 86.896 L 645.036 86.896 L 645.036 86.896 Q 642.982 86.485 642.309 86.373 L 642.309 86.373 L 642.309 86.373 Q 641.637 86.261 639.396 85.962 L 639.396 85.962 L 639.396 82.451 L 640.442 81.405 L 640.442 81.405 Q 696.323 81.405 713.58 79.388 L 713.58 79.388 L 715.597 80.135 L 715.597 89.623 L 713.729 91.341 L 713.729 91.341 Q 679.514 89.175 678.841 89.175 L 678.841 89.175 L 678.841 89.175 Q 677.496 89.175 676.525 89.399 L 676.525 89.399 L 676.525 89.399 Q 675.554 89.623 674.994 90.295 L 674.994 90.295 L 674.994 90.295 Q 674.433 90.968 674.097 91.379 L 674.097 91.379 L 674.097 91.379 Q 673.761 91.79 673.649 93.06 L 673.649 93.06 L 673.649 93.06 Q 673.537 94.33 673.537 94.741 L 673.537 94.741 L 673.537 94.741 Q 673.537 95.151 673.537 96.795 L 673.537 96.795 L 673.537 124.362 L 673.537 124.362 Q 673.537 125.557 674.433 126.939 L 674.433 126.939 L 674.433 126.939 Q 675.33 128.321 676.6 128.321 L 676.6 128.321 L 676.6 128.321 Q 680.858 128.321 689.151 127.724 L 689.151 127.724 L 689.151 127.724 Q 697.443 127.126 703.681 126.491 L 703.681 126.491 L 703.681 126.491 Q 709.919 125.856 710.218 125.781 L 710.218 125.781 L 710.218 125.781 Q 710.666 125.781 712.235 126.977 L 712.235 126.977 L 712.235 135.867 L 712.235 135.867 Q 701.702 135.418 677.795 135.418 L 677.795 135.418 L 677.795 135.418 Q 673.537 135.418 673.537 139.527 L 673.537 139.527 L 673.537 139.527 Q 673.537 161.267 674.882 169.037 L 674.882 169.037 L 674.882 169.037 Q 676.002 178.524 685.117 178.524 L 685.117 178.524 Z  M 826.163 79.687 L 826.313 81.555 L 783.057 138.407 L 783.057 138.407 Q 783.057 155.739 784.402 183.605 L 784.402 183.605 L 766.995 188.46 L 764.231 187.116 L 764.231 187.116 Q 764.381 180.243 764.605 169.074 L 764.605 169.074 L 764.605 169.074 Q 764.829 157.905 764.978 150.21 L 764.978 150.21 L 764.978 150.21 Q 765.128 142.516 765.128 142.441 L 765.128 142.441 L 765.128 142.441 Q 765.053 142.366 761.243 134.709 L 761.243 134.709 L 761.243 134.709 Q 757.433 127.051 752.017 116.293 L 752.017 116.293 L 752.017 116.293 Q 746.6 105.536 743.537 99.709 L 743.537 99.709 L 743.537 99.709 Q 743.388 99.484 742.604 97.953 L 742.604 97.953 L 742.604 97.953 Q 741.819 96.421 741.558 95.936 L 741.558 95.936 L 741.558 95.936 Q 741.296 95.45 740.512 94.105 L 740.512 94.105 L 740.512 94.105 Q 739.727 92.761 739.317 92.2 L 739.317 92.2 L 739.317 92.2 Q 738.906 91.64 738.084 90.632 L 738.084 90.632 L 738.084 90.632 Q 737.262 89.623 736.627 89.1 L 736.627 89.1 L 736.627 89.1 Q 735.992 88.577 735.096 88.054 L 735.096 88.054 L 735.096 88.054 Q 734.199 87.531 733.303 87.307 L 733.303 87.307 L 726.28 85.514 L 726.28 81.555 L 727.475 80.135 L 755.491 80.135 L 755.491 80.135 Q 755.939 81.256 759.861 89.175 L 759.861 89.175 L 759.861 89.175 Q 763.783 97.094 769.648 108.785 L 769.648 108.785 L 769.648 108.785 Q 775.512 120.477 778.426 126.379 L 778.426 126.379 L 778.426 126.379 Q 778.874 127.275 780.293 127.275 L 780.293 127.275 L 780.293 127.275 Q 781.339 127.275 782.086 126.528 L 782.086 126.528 L 810.55 82.302 L 826.163 79.687 Z " fill="rgb(206,96,0)"/><path d=" M 871.757 96.001 L 901.83 96.001 L 899.266 105.258 L 856.113 105.258 L 856.113 103.476 L 856.113 103.476 Q 870.193 91.873 879.319 79.531 L 879.319 79.531 L 879.319 79.531 Q 886.707 69.536 886.707 60.932 L 886.707 60.932 L 886.707 60.932 Q 886.707 58.672 886.185 56.629 L 886.185 56.629 L 886.185 56.629 Q 885.664 54.587 884.534 52.718 L 884.534 52.718 L 884.534 52.718 Q 883.404 50.85 881.296 49.741 L 881.296 49.741 L 881.296 49.741 Q 879.189 48.633 876.32 48.633 L 876.32 48.633 L 876.32 48.633 Q 874.191 48.633 871.584 49.589 L 871.584 49.589 L 871.584 49.589 Q 868.976 50.545 867.412 51.458 L 867.412 51.458 L 867.412 51.458 Q 865.847 52.371 863.153 54.065 L 863.153 54.065 L 861.545 51.936 L 861.545 51.936 Q 872.409 42.071 882.622 42.071 L 882.622 42.071 L 882.622 42.071 Q 886.837 42.071 890.401 43.571 L 890.401 43.571 L 890.401 43.571 Q 893.964 45.07 896.224 48.09 L 896.224 48.09 L 896.224 48.09 Q 898.484 51.11 898.484 55.065 L 898.484 55.065 L 898.484 55.065 Q 898.484 59.15 896.767 63.409 L 896.767 63.409 L 896.767 63.409 Q 895.05 67.667 891.813 71.97 L 891.813 71.97 L 891.813 71.97 Q 888.575 76.272 885.512 79.727 L 885.512 79.727 L 885.512 79.727 Q 882.448 83.182 878.037 87.81 L 878.037 87.81 L 878.037 87.81 Q 873.626 92.438 871.323 95.176 L 871.323 95.176 L 871.323 95.176 Q 871.236 95.263 871.236 95.567 L 871.236 95.567 L 871.236 95.567 Q 871.236 95.697 871.41 95.849 L 871.41 95.849 L 871.41 95.849 Q 871.584 96.001 871.757 96.001 L 871.757 96.001 Z " fill="rgb(206,96,0)"/></g></svg>