<?xml version="1.0" encoding="UTF-8" standalone="no"?><!-- Generator: Gravit.io --><svg xmlns="http://www.w3.org/2000/svg" xmlns:xlink="http://www.w3.org/1999/xlink" style="isolation:isolate" viewBox="0 0 992 250" width="992pt" height="250pt"><defs><clipPath id="_clipPath_MuYPuMbdUCPJYjqGqoXRIHGjq2CLXTOX"><rect width="992" height="250"/></clipPath></defs><g clip-path="url(#_clipPath_MuYPuMbdUCPJYjqGqoXRIHGjq2CLXTOX)"><path d=" M 96.59 131.187 C 43.695 127.287 2.172 113.439 6.901 96.475 C 12.23 77.355 56.921 58.305 119.196 56.862 L 96.59 131.187 L 96.59 131.187 Z  M 135.557 56.899 C 197.371 58.667 243.178 78.846 246.669 96.475 C 250.063 113.611 210.122 127.165 158.157 131.116 L 135.557 56.899 L 135.557 56.899 Z  M 119.933 54.441 C 54.338 55.827 2.244 77.002 2.244 102.92 C 2.244 124.892 39.679 143.453 91.037 149.442 L 74.741 203.019 C 74.741 203.019 71.082 208.34 65.096 211 L 96.688 211 C 96.688 211 89.683 207.233 86.812 203.789 L 127.367 60.702 L 148.394 134.79 L 152.826 150.406 C 152.826 150.406 152.826 150.406 152.826 150.406 L 167.923 203.602 C 165.051 207.046 158.045 210.814 158.045 210.814 L 158.045 210.814 L 189.637 210.814 C 183.652 208.154 179.994 202.831 179.994 202.831 L 163.695 149.302 C 214.454 143.17 251.325 124.726 251.325 102.92 C 251.325 77.159 199.856 56.082 134.817 54.468 L 127.367 30 L 119.933 54.441 L 119.933 54.441 Z  M 127.154 153.826 L 117.561 134.617 L 127.154 112.479 L 136.747 134.617 L 127.154 153.826 Z " fill-rule="evenodd" fill="rgb(9,166,246)"/><path d=" M 352.765 126.158 L 352.765 126.158 L 352.765 126.158 Q 352.765 135.402 350.081 142.858 L 350.081 142.858 L 350.081 142.858 Q 347.397 150.313 342.551 155.681 L 342.551 155.681 L 342.551 155.681 Q 337.705 161.049 330.995 163.957 L 330.995 163.957 L 330.995 163.957 Q 324.285 166.865 316.382 166.865 L 316.382 166.865 L 316.382 166.865 Q 308.479 166.865 301.77 163.957 L 301.77 163.957 L 301.77 163.957 Q 295.06 161.049 290.213 155.681 L 290.213 155.681 L 290.213 155.681 Q 285.367 150.313 282.683 142.858 L 282.683 142.858 L 282.683 142.858 Q 279.999 135.402 279.999 126.158 L 279.999 126.158 L 279.999 126.158 Q 279.999 117.062 282.683 109.532 L 282.683 109.532 L 282.683 109.532 Q 285.367 102.002 290.213 96.634 L 290.213 96.634 L 290.213 96.634 Q 295.06 91.266 301.77 88.358 L 301.77 88.358 L 301.77 88.358 Q 308.479 85.451 316.382 85.451 L 316.382 85.451 L 316.382 85.451 Q 324.285 85.451 330.995 88.358 L 330.995 88.358 L 330.995 88.358 Q 337.705 91.266 342.551 96.634 L 342.551 96.634 L 342.551 96.634 Q 347.397 102.002 350.081 109.532 L 350.081 109.532 L 350.081 109.532 Q 352.765 117.062 352.765 126.158 Z  M 338.301 126.158 L 338.301 126.158 L 338.301 126.158 Q 338.301 113.036 332.412 105.357 L 332.412 105.357 L 332.412 105.357 Q 326.522 97.678 316.382 97.678 L 316.382 97.678 L 316.382 97.678 Q 306.243 97.678 300.353 105.357 L 300.353 105.357 L 300.353 105.357 Q 294.463 113.036 294.463 126.158 L 294.463 126.158 L 294.463 126.158 Q 294.463 139.279 300.353 146.958 L 300.353 146.958 L 300.353 146.958 Q 306.243 154.638 316.382 154.638 L 316.382 154.638 L 316.382 154.638 Q 326.522 154.638 332.412 146.958 L 332.412 146.958 L 332.412 146.958 Q 338.301 139.279 338.301 126.158 Z  M 426.127 126.307 L 426.127 126.307 L 426.127 126.307 Q 426.127 112.738 419.417 105.431 L 419.417 105.431 L 419.417 105.431 Q 412.707 98.125 401.524 98.125 L 401.524 98.125 L 401.524 98.125 Q 395.261 98.125 391.757 98.572 L 391.757 98.572 L 391.757 98.572 Q 388.253 99.02 386.166 99.616 L 386.166 99.616 L 386.166 148.524 L 386.166 148.524 Q 388.701 150.612 393.472 152.55 L 393.472 152.55 L 393.472 152.55 Q 398.244 154.488 403.91 154.488 L 403.91 154.488 L 403.91 154.488 Q 409.874 154.488 414.124 152.326 L 414.124 152.326 L 414.124 152.326 Q 418.373 150.164 421.057 146.362 L 421.057 146.362 L 421.057 146.362 Q 423.741 142.56 424.934 137.415 L 424.934 137.415 L 424.934 137.415 Q 426.127 132.271 426.127 126.307 Z  M 440.591 126.307 L 440.591 126.307 L 440.591 126.307 Q 440.591 135.104 438.28 142.56 L 438.28 142.56 L 438.28 142.56 Q 435.968 150.015 431.495 155.383 L 431.495 155.383 L 431.495 155.383 Q 427.022 160.751 420.536 163.733 L 420.536 163.733 L 420.536 163.733 Q 414.049 166.715 405.699 166.715 L 405.699 166.715 L 405.699 166.715 Q 398.989 166.715 393.845 164.926 L 393.845 164.926 L 393.845 164.926 Q 388.701 163.137 386.166 161.497 L 386.166 161.497 L 386.166 192.511 L 372.298 192.511 L 372.298 89.775 L 372.298 89.775 Q 377.219 88.582 384.6 87.165 L 384.6 87.165 L 384.6 87.165 Q 391.981 85.749 401.673 85.749 L 401.673 85.749 L 401.673 85.749 Q 410.62 85.749 417.777 88.582 L 417.777 88.582 L 417.777 88.582 Q 424.934 91.415 430.004 96.634 L 430.004 96.634 L 430.004 96.634 Q 435.074 101.853 437.832 109.383 L 437.832 109.383 L 437.832 109.383 Q 440.591 116.913 440.591 126.307 Z  M 455.8 126.307 L 455.8 126.307 L 455.8 126.307 Q 455.8 116.018 458.782 108.339 L 458.782 108.339 L 458.782 108.339 Q 461.764 100.66 466.685 95.59 L 466.685 95.59 L 466.685 95.59 Q 471.606 90.52 478.017 87.985 L 478.017 87.985 L 478.017 87.985 Q 484.429 85.451 491.139 85.451 L 491.139 85.451 L 491.139 85.451 Q 506.796 85.451 515.146 95.217 L 515.146 95.217 L 515.146 95.217 Q 523.496 104.984 523.496 124.965 L 523.496 124.965 L 523.496 124.965 Q 523.496 125.859 523.496 127.276 L 523.496 127.276 L 523.496 127.276 Q 523.496 128.692 523.347 129.885 L 523.347 129.885 L 470.264 129.885 L 470.264 129.885 Q 471.158 141.963 477.272 148.226 L 477.272 148.226 L 477.272 148.226 Q 483.385 154.488 496.358 154.488 L 496.358 154.488 L 496.358 154.488 Q 503.664 154.488 508.66 153.221 L 508.66 153.221 L 508.66 153.221 Q 513.655 151.954 516.19 150.761 L 516.19 150.761 L 518.128 162.391 L 518.128 162.391 Q 515.593 163.733 509.256 165.224 L 509.256 165.224 L 509.256 165.224 Q 502.919 166.715 494.867 166.715 L 494.867 166.715 L 494.867 166.715 Q 484.727 166.715 477.346 163.659 L 477.346 163.659 L 477.346 163.659 Q 469.966 160.602 465.194 155.234 L 465.194 155.234 L 465.194 155.234 Q 460.422 149.866 458.111 142.485 L 458.111 142.485 L 458.111 142.485 Q 455.8 135.104 455.8 126.307 Z  M 470.562 118.702 L 509.032 118.702 L 509.032 118.702 Q 509.181 109.308 504.335 103.269 L 504.335 103.269 L 504.335 103.269 Q 499.489 97.23 490.99 97.23 L 490.99 97.23 L 490.99 97.23 Q 486.218 97.23 482.565 99.094 L 482.565 99.094 L 482.565 99.094 Q 478.912 100.958 476.377 103.94 L 476.377 103.94 L 476.377 103.94 Q 473.842 106.922 472.426 110.799 L 472.426 110.799 L 472.426 110.799 Q 471.009 114.676 470.562 118.702 L 470.562 118.702 L 470.562 118.702 Z  M 543.477 164.926 L 543.477 89.626 L 543.477 89.626 Q 548.248 88.433 556.151 87.091 L 556.151 87.091 L 556.151 87.091 Q 564.054 85.749 574.342 85.749 L 574.342 85.749 L 574.342 85.749 Q 583.587 85.749 589.701 88.358 L 589.701 88.358 L 589.701 88.358 Q 595.814 90.968 599.467 95.665 L 599.467 95.665 L 599.467 95.665 Q 603.121 100.362 604.612 106.922 L 604.612 106.922 L 604.612 106.922 Q 606.103 113.483 606.103 121.386 L 606.103 121.386 L 606.103 164.926 L 592.236 164.926 L 592.236 124.368 L 592.236 124.368 Q 592.236 117.211 591.266 112.141 L 591.266 112.141 L 591.266 112.141 Q 590.297 107.071 588.061 103.94 L 588.061 103.94 L 588.061 103.94 Q 585.824 100.809 582.096 99.392 L 582.096 99.392 L 582.096 99.392 Q 578.368 97.976 572.851 97.976 L 572.851 97.976 L 572.851 97.976 Q 570.615 97.976 568.229 98.125 L 568.229 98.125 L 568.229 98.125 Q 565.843 98.274 563.681 98.498 L 563.681 98.498 L 563.681 98.498 Q 561.519 98.721 559.804 99.02 L 559.804 99.02 L 559.804 99.02 Q 558.089 99.318 557.344 99.467 L 557.344 99.467 L 557.344 164.926 L 543.477 164.926 L 543.477 164.926 Z  M 655.309 154.936 L 655.309 154.936 L 655.309 154.936 Q 660.23 154.936 664.032 154.712 L 664.032 154.712 L 664.032 154.712 Q 667.834 154.488 670.369 153.892 L 670.369 153.892 L 670.369 130.78 L 670.369 130.78 Q 668.878 130.034 665.523 129.513 L 665.523 129.513 L 665.523 129.513 Q 662.168 128.991 657.397 128.991 L 657.397 128.991 L 657.397 128.991 Q 654.265 128.991 650.761 129.438 L 650.761 129.438 L 650.761 129.438 Q 647.257 129.885 644.35 131.302 L 644.35 131.302 L 644.35 131.302 Q 641.442 132.718 639.503 135.179 L 639.503 135.179 L 639.503 135.179 Q 637.565 137.639 637.565 141.665 L 637.565 141.665 L 637.565 141.665 Q 637.565 149.12 642.337 152.028 L 642.337 152.028 L 642.337 152.028 Q 647.108 154.936 655.309 154.936 Z  M 654.116 85.451 L 654.116 85.451 L 654.116 85.451 Q 662.466 85.451 668.207 87.613 L 668.207 87.613 L 668.207 87.613 Q 673.948 89.775 677.452 93.726 L 677.452 93.726 L 677.452 93.726 Q 680.956 97.678 682.447 103.12 L 682.447 103.12 L 682.447 103.12 Q 683.938 108.563 683.938 115.123 L 683.938 115.123 L 683.938 163.584 L 683.938 163.584 Q 682.149 163.882 678.943 164.404 L 678.943 164.404 L 678.943 164.404 Q 675.737 164.926 671.711 165.373 L 671.711 165.373 L 671.711 165.373 Q 667.685 165.821 662.988 166.194 L 662.988 166.194 L 662.988 166.194 Q 658.291 166.566 653.669 166.566 L 653.669 166.566 L 653.669 166.566 Q 647.108 166.566 641.591 165.224 L 641.591 165.224 L 641.591 165.224 Q 636.074 163.882 632.048 160.975 L 632.048 160.975 L 632.048 160.975 Q 628.022 158.067 625.785 153.296 L 625.785 153.296 L 625.785 153.296 Q 623.549 148.524 623.549 141.814 L 623.549 141.814 L 623.549 141.814 Q 623.549 135.402 626.158 130.78 L 626.158 130.78 L 626.158 130.78 Q 628.768 126.158 633.241 123.324 L 633.241 123.324 L 633.241 123.324 Q 637.714 120.491 643.679 119.149 L 643.679 119.149 L 643.679 119.149 Q 649.643 117.807 656.204 117.807 L 656.204 117.807 L 656.204 117.807 Q 658.291 117.807 660.528 118.031 L 660.528 118.031 L 660.528 118.031 Q 662.765 118.255 664.778 118.627 L 664.778 118.627 L 664.778 118.627 Q 666.791 119 668.282 119.298 L 668.282 119.298 L 668.282 119.298 Q 669.773 119.597 670.369 119.746 L 670.369 119.746 L 670.369 115.869 L 670.369 115.869 Q 670.369 112.439 669.624 109.084 L 669.624 109.084 L 669.624 109.084 Q 668.878 105.729 666.94 103.12 L 666.94 103.12 L 666.94 103.12 Q 665.001 100.511 661.646 98.945 L 661.646 98.945 L 661.646 98.945 Q 658.291 97.379 652.923 97.379 L 652.923 97.379 L 652.923 97.379 Q 646.064 97.379 640.92 98.349 L 640.92 98.349 L 640.92 98.349 Q 635.776 99.318 633.241 100.362 L 633.241 100.362 L 631.601 88.88 L 631.601 88.88 Q 634.285 87.687 640.547 86.569 L 640.547 86.569 L 640.547 86.569 Q 646.81 85.451 654.116 85.451 Z  M 735.53 85.749 L 735.53 85.749 L 735.53 85.749 Q 737.32 85.749 739.631 85.972 L 739.631 85.972 L 739.631 85.972 Q 741.942 86.196 744.179 86.569 L 744.179 86.569 L 744.179 86.569 Q 746.415 86.942 748.279 87.314 L 748.279 87.314 L 748.279 87.314 Q 750.143 87.687 751.038 87.985 L 751.038 87.985 L 748.652 100.063 L 748.652 100.063 Q 747.012 99.467 743.209 98.647 L 743.209 98.647 L 743.209 98.647 Q 739.407 97.827 733.443 97.827 L 733.443 97.827 L 733.443 97.827 Q 729.566 97.827 725.764 98.647 L 725.764 98.647 L 725.764 98.647 Q 721.961 99.467 720.768 99.765 L 720.768 99.765 L 720.768 164.926 L 706.901 164.926 L 706.901 90.669 L 706.901 90.669 Q 711.822 88.88 719.128 87.314 L 719.128 87.314 L 719.128 87.314 Q 726.435 85.749 735.53 85.749 Z  M 760.133 126.307 L 760.133 126.307 L 760.133 126.307 Q 760.133 116.018 763.116 108.339 L 763.116 108.339 L 763.116 108.339 Q 766.098 100.66 771.018 95.59 L 771.018 95.59 L 771.018 95.59 Q 775.939 90.52 782.351 87.985 L 782.351 87.985 L 782.351 87.985 Q 788.762 85.451 795.472 85.451 L 795.472 85.451 L 795.472 85.451 Q 811.129 85.451 819.479 95.217 L 819.479 95.217 L 819.479 95.217 Q 827.829 104.984 827.829 124.965 L 827.829 124.965 L 827.829 124.965 Q 827.829 125.859 827.829 127.276 L 827.829 127.276 L 827.829 127.276 Q 827.829 128.692 827.68 129.885 L 827.68 129.885 L 774.597 129.885 L 774.597 129.885 Q 775.492 141.963 781.605 148.226 L 781.605 148.226 L 781.605 148.226 Q 787.719 154.488 800.691 154.488 L 800.691 154.488 L 800.691 154.488 Q 807.998 154.488 812.993 153.221 L 812.993 153.221 L 812.993 153.221 Q 817.988 151.954 820.523 150.761 L 820.523 150.761 L 822.461 162.391 L 822.461 162.391 Q 819.927 163.733 813.589 165.224 L 813.589 165.224 L 813.589 165.224 Q 807.252 166.715 799.2 166.715 L 799.2 166.715 L 799.2 166.715 Q 789.061 166.715 781.68 163.659 L 781.68 163.659 L 781.68 163.659 Q 774.299 160.602 769.527 155.234 L 769.527 155.234 L 769.527 155.234 Q 764.756 149.866 762.445 142.485 L 762.445 142.485 L 762.445 142.485 Q 760.133 135.104 760.133 126.307 Z  M 774.895 118.702 L 813.366 118.702 L 813.366 118.702 Q 813.515 109.308 808.669 103.269 L 808.669 103.269 L 808.669 103.269 Q 803.823 97.23 795.323 97.23 L 795.323 97.23 L 795.323 97.23 Q 790.552 97.23 786.899 99.094 L 786.899 99.094 L 786.899 99.094 Q 783.245 100.958 780.711 103.94 L 780.711 103.94 L 780.711 103.94 Q 778.176 106.922 776.759 110.799 L 776.759 110.799 L 776.759 110.799 Q 775.343 114.676 774.895 118.702 L 774.895 118.702 L 774.895 118.702 Z  M 847.81 164.926 L 847.81 89.626 L 847.81 89.626 Q 852.582 88.433 860.484 87.091 L 860.484 87.091 L 860.484 87.091 Q 868.387 85.749 878.676 85.749 L 878.676 85.749 L 878.676 85.749 Q 887.921 85.749 894.034 88.358 L 894.034 88.358 L 894.034 88.358 Q 900.148 90.968 903.801 95.665 L 903.801 95.665 L 903.801 95.665 Q 907.454 100.362 908.945 106.922 L 908.945 106.922 L 908.945 106.922 Q 910.436 113.483 910.436 121.386 L 910.436 121.386 L 910.436 164.926 L 896.569 164.926 L 896.569 124.368 L 896.569 124.368 Q 896.569 117.211 895.6 112.141 L 895.6 112.141 L 895.6 112.141 Q 894.631 107.071 892.394 103.94 L 892.394 103.94 L 892.394 103.94 Q 890.157 100.809 886.429 99.392 L 886.429 99.392 L 886.429 99.392 Q 882.702 97.976 877.185 97.976 L 877.185 97.976 L 877.185 97.976 Q 874.948 97.976 872.562 98.125 L 872.562 98.125 L 872.562 98.125 Q 870.177 98.274 868.014 98.498 L 868.014 98.498 L 868.014 98.498 Q 865.852 98.721 864.138 99.02 L 864.138 99.02 L 864.138 99.02 Q 862.423 99.318 861.677 99.467 L 861.677 99.467 L 861.677 164.926 L 847.81 164.926 L 847.81 164.926 Z  M 959.642 154.936 L 959.642 154.936 L 959.642 154.936 Q 964.563 154.936 968.365 154.712 L 968.365 154.712 L 968.365 154.712 Q 972.168 154.488 974.703 153.892 L 974.703 153.892 L 974.703 130.78 L 974.703 130.78 Q 973.211 130.034 969.856 129.513 L 969.856 129.513 L 969.856 129.513 Q 966.502 128.991 961.73 128.991 L 961.73 128.991 L 961.73 128.991 Q 958.599 128.991 955.095 129.438 L 955.095 129.438 L 955.095 129.438 Q 951.591 129.885 948.683 131.302 L 948.683 131.302 L 948.683 131.302 Q 945.775 132.718 943.837 135.179 L 943.837 135.179 L 943.837 135.179 Q 941.898 137.639 941.898 141.665 L 941.898 141.665 L 941.898 141.665 Q 941.898 149.12 946.67 152.028 L 946.67 152.028 L 946.67 152.028 Q 951.441 154.936 959.642 154.936 Z  M 958.45 85.451 L 958.45 85.451 L 958.45 85.451 Q 966.8 85.451 972.54 87.613 L 972.54 87.613 L 972.54 87.613 Q 978.281 89.775 981.785 93.726 L 981.785 93.726 L 981.785 93.726 Q 985.289 97.678 986.78 103.12 L 986.78 103.12 L 986.78 103.12 Q 988.272 108.563 988.272 115.123 L 988.272 115.123 L 988.272 163.584 L 988.272 163.584 Q 986.482 163.882 983.276 164.404 L 983.276 164.404 L 983.276 164.404 Q 980.071 164.926 976.045 165.373 L 976.045 165.373 L 976.045 165.373 Q 972.019 165.821 967.322 166.194 L 967.322 166.194 L 967.322 166.194 Q 962.625 166.566 958.002 166.566 L 958.002 166.566 L 958.002 166.566 Q 951.441 166.566 945.924 165.224 L 945.924 165.224 L 945.924 165.224 Q 940.407 163.882 936.381 160.975 L 936.381 160.975 L 936.381 160.975 Q 932.355 158.067 930.119 153.296 L 930.119 153.296 L 930.119 153.296 Q 927.882 148.524 927.882 141.814 L 927.882 141.814 L 927.882 141.814 Q 927.882 135.402 930.491 130.78 L 930.491 130.78 L 930.491 130.78 Q 933.101 126.158 937.574 123.324 L 937.574 123.324 L 937.574 123.324 Q 942.047 120.491 948.012 119.149 L 948.012 119.149 L 948.012 119.149 Q 953.976 117.807 960.537 117.807 L 960.537 117.807 L 960.537 117.807 Q 962.625 117.807 964.861 118.031 L 964.861 118.031 L 964.861 118.031 Q 967.098 118.255 969.111 118.627 L 969.111 118.627 L 969.111 118.627 Q 971.124 119 972.615 119.298 L 972.615 119.298 L 972.615 119.298 Q 974.106 119.597 974.703 119.746 L 974.703 119.746 L 974.703 115.869 L 974.703 115.869 Q 974.703 112.439 973.957 109.084 L 973.957 109.084 L 973.957 109.084 Q 973.211 105.729 971.273 103.12 L 971.273 103.12 L 971.273 103.12 Q 969.335 100.511 965.98 98.945 L 965.98 98.945 L 965.98 98.945 Q 962.625 97.379 957.257 97.379 L 957.257 97.379 L 957.257 97.379 Q 950.398 97.379 945.253 98.349 L 945.253 98.349 L 945.253 98.349 Q 940.109 99.318 937.574 100.362 L 937.574 100.362 L 935.934 88.88 L 935.934 88.88 Q 938.618 87.687 944.881 86.569 L 944.881 86.569 L 944.881 86.569 Q 951.143 85.451 958.45 85.451 Z " fill="rgb(9,166,246)"/></g></svg>