<?xml version="1.0" encoding="UTF-8" standalone="no"?><!-- Generator: Gravit.io --><svg xmlns="http://www.w3.org/2000/svg" xmlns:xlink="http://www.w3.org/1999/xlink" style="isolation:isolate" viewBox="0 0 992 250" width="992pt" height="250pt"><defs><clipPath id="_clipPath_meGbpNT9ohbjh1xCRKQQQwdGbqkBo295"><rect width="992" height="250"/></clipPath></defs><g clip-path="url(#_clipPath_meGbpNT9ohbjh1xCRKQQQwdGbqkBo295)"><path d=" M 740.919 51.822 L 775.128 51.822 L 849.898 51.822 L 842.883 81.469 L 769.775 81.469 L 750.992 188.655 L 716.783 188.655 L 740.919 51.822 Z " fill="rgb(23,23,23)"/><path d=" M 694.355 91.292 L 694.355 91.292 L 694.355 91.292 Q 726.631 91.292 726.631 117.675 L 726.631 117.675 L 726.631 117.675 Q 726.631 122.094 725.694 127.184 L 725.694 127.184 L 721.007 153.969 L 721.007 153.969 Q 717.792 172.584 707.078 181.557 L 707.078 181.557 L 707.078 181.557 Q 696.364 190.53 676.945 190.53 L 676.945 190.53 L 676.945 190.53 Q 657.526 190.53 649.892 181.557 L 649.892 181.557 L 649.892 181.557 Q 644.669 175.397 644.669 164.549 L 644.669 164.549 L 644.669 164.549 Q 644.669 159.727 645.741 153.969 L 645.741 153.969 L 650.428 127.184 L 650.428 127.184 Q 656.722 91.292 694.355 91.292 Z  M 680.561 169.772 L 680.561 169.772 L 680.561 169.772 Q 687.257 169.772 691.275 166.29 L 691.275 166.29 L 691.275 166.29 Q 695.293 162.808 696.9 153.433 L 696.9 153.433 L 701.453 127.719 L 701.453 127.719 Q 701.855 125.041 701.855 122.898 L 701.855 122.898 L 701.855 122.898 Q 701.855 112.05 690.873 112.05 L 690.873 112.05 L 690.873 112.05 Q 677.079 112.318 674.401 127.719 L 674.401 127.719 L 669.847 153.433 L 669.847 153.433 Q 669.311 156.781 669.311 160.397 L 669.311 160.397 L 669.311 160.397 Q 669.311 169.772 680.561 169.772 Z " fill-rule="evenodd" fill="rgb(23,23,23)"/><path d=" M 382.769 191.334 L 382.769 191.334 L 382.769 191.334 Q 342.974 191.334 342.974 163.783 L 342.974 163.783 L 342.974 163.783 Q 342.974 159.957 343.739 155.557 L 343.739 155.557 L 347.757 131.833 L 347.757 131.833 Q 351.01 113.466 364.689 103.613 L 364.689 103.613 L 364.689 103.613 Q 378.369 93.76 400.945 93.76 L 400.945 93.76 L 400.945 93.76 Q 439.4 93.76 439.4 122.841 L 439.4 122.841 L 439.4 122.841 Q 439.4 127.05 438.635 132.024 L 438.635 132.024 L 436.339 145.608 L 377.986 145.608 L 377.221 150.008 L 377.221 150.008 Q 376.838 152.304 376.838 154.217 L 376.838 154.217 L 376.838 154.217 Q 376.838 164.74 389.274 164.74 L 389.274 164.74 L 389.274 164.74 Q 393.866 164.74 397.118 161.87 L 397.118 161.87 L 397.118 161.87 Q 400.371 159 400.945 155.174 L 400.945 155.174 L 432.704 155.557 L 432.704 155.557 Q 426.39 191.334 382.769 191.334 Z  M 379.899 133.937 L 405.728 133.937 L 405.728 133.937 Q 406.493 130.685 406.493 127.911 L 406.493 127.911 L 406.493 127.911 Q 406.493 125.136 404.006 122.267 L 404.006 122.267 L 404.006 122.267 Q 401.519 119.397 396.066 119.397 L 396.066 119.397 L 396.066 119.397 Q 390.613 119.397 386.117 123.032 L 386.117 123.032 L 386.117 123.032 Q 381.621 126.667 379.899 133.937 L 379.899 133.937 Z " fill-rule="evenodd" fill="rgb(23,23,23)"/><path d=" M 496.031 129.919 L 496.031 129.919 L 496.031 129.919 Q 496.031 121.693 488.092 121.693 L 488.092 121.693 L 488.092 121.693 Q 480.152 121.693 474.986 127.624 L 474.986 127.624 L 464.272 188.655 L 431.747 188.655 L 448.01 96.63 L 478.239 96.63 L 476.134 107.917 L 476.134 107.917 Q 487.422 93.951 504.641 93.951 L 504.641 93.951 L 504.641 93.951 Q 521.86 93.951 527.026 102.369 L 527.026 102.369 L 527.026 102.369 Q 530.278 107.726 530.278 114.614 L 530.278 114.614 L 530.278 114.614 Q 530.278 121.501 529.321 127.432 L 529.321 127.432 L 524.156 156.896 L 524.156 156.896 Q 523.964 158.044 523.964 159 L 523.964 159 L 523.964 159 Q 523.964 164.166 529.704 164.166 L 529.704 164.166 L 529.704 164.166 Q 534.104 164.166 537.548 162.253 L 537.548 162.253 L 536.592 183.872 L 536.592 183.872 Q 527.6 191.334 516.12 191.334 L 516.12 191.334 L 516.12 191.334 Q 490.1 191.334 490.1 169.523 L 490.1 169.523 L 490.1 169.523 Q 490.1 165.697 490.866 161.296 L 490.866 161.296 L 495.458 135.85 L 495.458 135.85 Q 496.031 132.407 496.031 129.919 Z " fill="rgb(23,23,23)"/><path d=" M 600.684 80.75 L 600.684 80.75 L 586.335 80.75 L 581.361 109.257 L 595.519 109.257 L 595.519 109.257 Q 613.886 109.257 613.886 93.186 L 613.886 93.186 L 613.886 93.186 Q 613.886 87.637 610.537 84.194 L 610.537 84.194 L 610.537 84.194 Q 607.189 80.75 600.684 80.75 L 600.684 80.75 Z  M 557.254 50.904 L 612.738 50.904 L 612.738 50.904 Q 634.548 50.904 643.732 60.47 L 643.732 60.47 L 643.732 60.47 Q 650.619 67.74 650.619 78.837 L 650.619 78.837 L 650.619 78.837 Q 650.619 82.663 649.854 86.872 L 649.854 86.872 L 648.132 96.056 L 648.132 96.056 Q 646.028 106.961 640.001 113.083 L 640.001 113.083 L 640.001 113.083 Q 633.974 119.205 629.383 119.205 L 629.383 119.205 L 629.191 120.736 L 629.191 120.736 Q 634.548 120.736 640.097 126.667 L 640.097 126.667 L 640.097 126.667 Q 645.645 132.598 645.645 140.633 L 645.645 140.633 L 645.645 140.633 Q 645.645 143.886 644.88 147.521 L 644.88 147.521 L 643.732 153.452 L 643.732 153.452 Q 640.671 169.906 629.096 179.28 L 629.096 179.28 L 629.096 179.28 Q 617.521 188.655 596.858 188.655 L 596.858 188.655 L 532.957 188.655 L 557.254 50.904 L 557.254 50.904 Z  M 595.519 132.407 L 595.519 132.407 L 577.343 132.407 L 572.751 158.809 L 590.927 158.809 L 590.927 158.809 Q 591.31 158.809 591.692 158.809 L 591.692 158.809 L 591.692 158.809 Q 600.493 158.809 605.659 154.696 L 605.659 154.696 L 605.659 154.696 Q 610.824 150.582 610.824 144.651 L 610.824 144.651 L 610.824 144.651 Q 610.824 132.407 595.519 132.407 Z " fill-rule="evenodd" fill="rgb(23,23,23)"/><path d=" M 317.586 159.326 L 317.586 159.326 L 301.649 159.326 L 296.426 188.655 L 272.319 188.655 L 289.328 92.229 L 330.175 92.229 L 330.175 92.229 Q 345.308 92.229 351.737 99.193 L 351.737 99.193 L 351.737 99.193 Q 356.424 104.55 356.424 112.854 L 356.424 112.854 L 356.424 112.854 Q 356.424 115.666 355.888 118.746 L 355.888 118.746 L 353.21 133.88 L 353.21 133.88 Q 351.201 144.996 341.424 152.161 L 341.424 152.161 L 341.424 152.161 Q 331.648 159.326 317.586 159.326 Z  M 321.737 113.121 L 321.737 113.121 L 309.684 113.121 L 305.265 138.433 L 317.184 138.433 L 317.184 138.433 Q 328.166 138.433 329.907 128.657 L 329.907 128.657 L 330.844 123.166 L 330.844 123.166 Q 331.112 121.96 331.112 119.952 L 331.112 119.952 L 331.112 119.952 Q 331.112 117.943 329.103 115.532 L 329.103 115.532 L 329.103 115.532 Q 327.094 113.121 321.737 113.121 Z " fill-rule="evenodd" fill="rgb(23,23,23)"/><path d=" M 236.102 49.564 L 236.102 49.564 L 236.102 49.564 Q 282.21 49.564 282.21 87.255 L 282.21 87.255 L 282.21 87.255 Q 282.21 93.568 280.871 100.839 L 280.871 100.839 L 274.175 139.103 L 274.175 139.103 Q 269.583 165.697 254.277 178.515 L 254.277 178.515 L 254.277 178.515 Q 238.972 191.334 211.23 191.334 L 211.23 191.334 L 211.23 191.334 Q 183.488 191.334 172.583 178.515 L 172.583 178.515 L 172.583 178.515 Q 165.122 169.714 165.122 154.217 L 165.122 154.217 L 165.122 154.217 Q 165.122 147.33 166.652 139.103 L 166.652 139.103 L 173.348 100.839 L 173.348 100.839 Q 182.34 49.564 236.102 49.564 Z  M 216.396 161.679 L 216.396 161.679 L 216.396 161.679 Q 225.962 161.679 231.701 156.705 L 231.701 156.705 L 231.701 156.705 Q 237.441 151.73 239.737 138.338 L 239.737 138.338 L 246.242 101.604 L 246.242 101.604 Q 246.816 97.777 246.816 94.716 L 246.816 94.716 L 246.816 94.716 Q 246.816 79.219 231.127 79.219 L 231.127 79.219 L 231.127 79.219 Q 211.421 79.602 207.595 101.604 L 207.595 101.604 L 201.09 138.338 L 201.09 138.338 Q 200.325 143.121 200.325 148.286 L 200.325 148.286 L 200.325 148.286 Q 200.325 161.679 216.396 161.679 Z " fill-rule="evenodd" fill="rgb(23,23,23)"/><path d=" M 746.021 56.924 L 780.23 56.924 L 855 56.924 L 847.985 86.571 L 774.877 86.571 L 756.094 193.757 L 721.885 193.757 L 746.021 56.924 Z " fill="rgb(247,168,36)"/><path d=" M 699.457 96.394 L 699.457 96.394 L 699.457 96.394 Q 731.733 96.394 731.733 122.777 L 731.733 122.777 L 731.733 122.777 Q 731.733 127.196 730.796 132.285 L 730.796 132.285 L 726.108 159.071 L 726.108 159.071 Q 722.894 177.686 712.18 186.659 L 712.18 186.659 L 712.18 186.659 Q 701.466 195.632 682.047 195.632 L 682.047 195.632 L 682.047 195.632 Q 662.628 195.632 654.994 186.659 L 654.994 186.659 L 654.994 186.659 Q 649.771 180.499 649.771 169.651 L 649.771 169.651 L 649.771 169.651 Q 649.771 164.829 650.843 159.071 L 650.843 159.071 L 655.53 132.285 L 655.53 132.285 Q 661.824 96.394 699.457 96.394 Z  M 685.663 174.874 L 685.663 174.874 L 685.663 174.874 Q 692.359 174.874 696.377 171.392 L 696.377 171.392 L 696.377 171.392 Q 700.395 167.91 702.002 158.535 L 702.002 158.535 L 706.555 132.821 L 706.555 132.821 Q 706.957 130.143 706.957 128 L 706.957 128 L 706.957 128 Q 706.957 117.152 695.975 117.152 L 695.975 117.152 L 695.975 117.152 Q 682.181 117.42 679.503 132.821 L 679.503 132.821 L 674.949 158.535 L 674.949 158.535 Q 674.413 161.883 674.413 165.499 L 674.413 165.499 L 674.413 165.499 Q 674.413 174.874 685.663 174.874 Z " fill-rule="evenodd" fill="rgb(247,168,36)"/><path d=" M 387.871 196.436 L 387.871 196.436 L 387.871 196.436 Q 348.076 196.436 348.076 168.885 L 348.076 168.885 L 348.076 168.885 Q 348.076 165.059 348.841 160.658 L 348.841 160.658 L 352.859 136.935 L 352.859 136.935 Q 356.112 118.568 369.791 108.715 L 369.791 108.715 L 369.791 108.715 Q 383.471 98.862 406.047 98.862 L 406.047 98.862 L 406.047 98.862 Q 444.502 98.862 444.502 127.942 L 444.502 127.942 L 444.502 127.942 Q 444.502 132.152 443.737 137.126 L 443.737 137.126 L 441.441 150.71 L 383.088 150.71 L 382.323 155.11 L 382.323 155.11 Q 381.94 157.406 381.94 159.319 L 381.94 159.319 L 381.94 159.319 Q 381.94 169.842 394.376 169.842 L 394.376 169.842 L 394.376 169.842 Q 398.968 169.842 402.22 166.972 L 402.22 166.972 L 402.22 166.972 Q 405.473 164.102 406.047 160.276 L 406.047 160.276 L 437.806 160.658 L 437.806 160.658 Q 431.492 196.436 387.871 196.436 Z  M 385.001 139.039 L 410.83 139.039 L 410.83 139.039 Q 411.595 135.787 411.595 133.012 L 411.595 133.012 L 411.595 133.012 Q 411.595 130.238 409.108 127.369 L 409.108 127.369 L 409.108 127.369 Q 406.62 124.499 401.168 124.499 L 401.168 124.499 L 401.168 124.499 Q 395.715 124.499 391.219 128.134 L 391.219 128.134 L 391.219 128.134 Q 386.723 131.769 385.001 139.039 L 385.001 139.039 Z " fill-rule="evenodd" fill="rgb(247,168,36)"/><path d=" M 501.133 135.021 L 501.133 135.021 L 501.133 135.021 Q 501.133 126.795 493.194 126.795 L 493.194 126.795 L 493.194 126.795 Q 485.254 126.795 480.088 132.726 L 480.088 132.726 L 469.374 193.757 L 436.849 193.757 L 453.112 101.731 L 483.34 101.731 L 481.236 113.019 L 481.236 113.019 Q 492.524 99.053 509.743 99.053 L 509.743 99.053 L 509.743 99.053 Q 526.962 99.053 532.127 107.471 L 532.127 107.471 L 532.127 107.471 Q 535.38 112.828 535.38 119.716 L 535.38 119.716 L 535.38 119.716 Q 535.38 126.603 534.423 132.534 L 534.423 132.534 L 529.258 161.998 L 529.258 161.998 Q 529.066 163.146 529.066 164.102 L 529.066 164.102 L 529.066 164.102 Q 529.066 169.268 534.806 169.268 L 534.806 169.268 L 534.806 169.268 Q 539.206 169.268 542.65 167.355 L 542.65 167.355 L 541.694 188.974 L 541.694 188.974 Q 532.701 196.436 521.222 196.436 L 521.222 196.436 L 521.222 196.436 Q 495.202 196.436 495.202 174.625 L 495.202 174.625 L 495.202 174.625 Q 495.202 170.799 495.968 166.398 L 495.968 166.398 L 500.559 140.952 L 500.559 140.952 Q 501.133 137.509 501.133 135.021 Z " fill="rgb(247,168,36)"/><path d=" M 605.786 85.852 L 605.786 85.852 L 591.437 85.852 L 586.463 114.359 L 600.621 114.359 L 600.621 114.359 Q 618.987 114.359 618.987 98.288 L 618.987 98.288 L 618.987 98.288 Q 618.987 92.739 615.639 89.296 L 615.639 89.296 L 615.639 89.296 Q 612.291 85.852 605.786 85.852 L 605.786 85.852 Z  M 562.356 56.006 L 617.84 56.006 L 617.84 56.006 Q 639.65 56.006 648.834 65.572 L 648.834 65.572 L 648.834 65.572 Q 655.721 72.842 655.721 83.938 L 655.721 83.938 L 655.721 83.938 Q 655.721 87.765 654.956 91.974 L 654.956 91.974 L 653.234 101.157 L 653.234 101.157 Q 651.13 112.063 645.103 118.185 L 645.103 118.185 L 645.103 118.185 Q 639.076 124.307 634.484 124.307 L 634.484 124.307 L 634.293 125.838 L 634.293 125.838 Q 639.65 125.838 645.199 131.769 L 645.199 131.769 L 645.199 131.769 Q 650.747 137.7 650.747 145.735 L 650.747 145.735 L 650.747 145.735 Q 650.747 148.988 649.982 152.623 L 649.982 152.623 L 648.834 158.554 L 648.834 158.554 Q 645.773 175.008 634.198 184.382 L 634.198 184.382 L 634.198 184.382 Q 622.623 193.757 601.96 193.757 L 601.96 193.757 L 538.058 193.757 L 562.356 56.006 L 562.356 56.006 Z  M 600.621 137.509 L 600.621 137.509 L 582.445 137.509 L 577.853 163.911 L 596.029 163.911 L 596.029 163.911 Q 596.412 163.911 596.794 163.911 L 596.794 163.911 L 596.794 163.911 Q 605.595 163.911 610.761 159.798 L 610.761 159.798 L 610.761 159.798 Q 615.926 155.684 615.926 149.753 L 615.926 149.753 L 615.926 149.753 Q 615.926 137.509 600.621 137.509 Z " fill-rule="evenodd" fill="rgb(247,168,36)"/><path d=" M 322.688 164.428 L 322.688 164.428 L 306.751 164.428 L 301.527 193.757 L 277.421 193.757 L 294.429 97.331 L 335.277 97.331 L 335.277 97.331 Q 350.41 97.331 356.839 104.295 L 356.839 104.295 L 356.839 104.295 Q 361.526 109.652 361.526 117.955 L 361.526 117.955 L 361.526 117.955 Q 361.526 120.768 360.99 123.848 L 360.99 123.848 L 358.312 138.982 L 358.312 138.982 Q 356.303 150.098 346.526 157.263 L 346.526 157.263 L 346.526 157.263 Q 336.75 164.428 322.688 164.428 Z  M 326.839 118.223 L 326.839 118.223 L 314.786 118.223 L 310.367 143.535 L 322.286 143.535 L 322.286 143.535 Q 333.268 143.535 335.009 133.759 L 335.009 133.759 L 335.946 128.268 L 335.946 128.268 Q 336.214 127.062 336.214 125.054 L 336.214 125.054 L 336.214 125.054 Q 336.214 123.045 334.205 120.634 L 334.205 120.634 L 334.205 120.634 Q 332.196 118.223 326.839 118.223 Z " fill-rule="evenodd" fill="rgb(247,168,36)"/><path d=" M 241.204 54.666 L 241.204 54.666 L 241.204 54.666 Q 287.312 54.666 287.312 92.357 L 287.312 92.357 L 287.312 92.357 Q 287.312 98.67 285.973 105.94 L 285.973 105.94 L 279.277 144.205 L 279.277 144.205 Q 274.685 170.799 259.379 183.617 L 259.379 183.617 L 259.379 183.617 Q 244.074 196.436 216.332 196.436 L 216.332 196.436 L 216.332 196.436 Q 188.59 196.436 177.685 183.617 L 177.685 183.617 L 177.685 183.617 Q 170.223 174.816 170.223 159.319 L 170.223 159.319 L 170.223 159.319 Q 170.223 152.432 171.754 144.205 L 171.754 144.205 L 178.45 105.94 L 178.45 105.94 Q 187.442 54.666 241.204 54.666 Z  M 221.498 166.781 L 221.498 166.781 L 221.498 166.781 Q 231.064 166.781 236.803 161.806 L 236.803 161.806 L 236.803 161.806 Q 242.543 156.832 244.839 143.44 L 244.839 143.44 L 251.344 106.706 L 251.344 106.706 Q 251.918 102.879 251.918 99.818 L 251.918 99.818 L 251.918 99.818 Q 251.918 84.321 236.229 84.321 L 236.229 84.321 L 236.229 84.321 Q 216.523 84.704 212.697 106.706 L 212.697 106.706 L 206.192 143.44 L 206.192 143.44 Q 205.427 148.223 205.427 153.388 L 205.427 153.388 L 205.427 153.388 Q 205.427 166.781 221.498 166.781 Z " fill-rule="evenodd" fill="rgb(247,168,36)"/></g></svg>