<?xml version="1.0" encoding="UTF-8" standalone="no"?><!-- Generator: Gravit.io --><svg xmlns="http://www.w3.org/2000/svg" xmlns:xlink="http://www.w3.org/1999/xlink" style="isolation:isolate" viewBox="0 0 992 250" width="992pt" height="250pt"><defs><clipPath id="_clipPath_8nFwREvRlayIfljnrfhcoUHQnpv5mofW"><rect width="992" height="250"/></clipPath></defs><g clip-path="url(#_clipPath_8nFwREvRlayIfljnrfhcoUHQnpv5mofW)"><path d=" M 378.503 128.271 L 378.503 128.271 L 378.503 128.271 Q 378.503 117.666 373.739 111.288 L 373.739 111.288 L 373.739 111.288 Q 368.974 104.91 359.599 104.91 L 359.599 104.91 L 359.599 104.91 Q 356.525 104.91 353.912 105.14 L 353.912 105.14 L 353.912 105.14 Q 351.3 105.371 349.609 105.678 L 349.609 105.678 L 349.609 147.021 L 349.609 147.021 Q 351.761 148.404 355.219 149.326 L 355.219 149.326 L 355.219 149.326 Q 358.677 150.249 362.212 150.249 L 362.212 150.249 L 362.212 150.249 Q 378.503 150.249 378.503 128.271 Z  M 401.864 127.656 L 401.864 127.656 L 401.864 127.656 Q 401.864 137.031 399.559 144.716 L 399.559 144.716 L 399.559 144.716 Q 397.253 152.4 392.796 157.933 L 392.796 157.933 L 392.796 157.933 Q 388.339 163.466 381.731 166.54 L 381.731 166.54 L 381.731 166.54 Q 375.122 169.614 366.515 169.614 L 366.515 169.614 L 366.515 169.614 Q 361.751 169.614 357.601 168.692 L 357.601 168.692 L 357.601 168.692 Q 353.451 167.769 349.609 166.079 L 349.609 166.079 L 349.609 196.51 L 326.709 196.51 L 326.709 90.002 L 326.709 90.002 Q 329.783 89.079 333.779 88.234 L 333.779 88.234 L 333.779 88.234 Q 337.775 87.389 342.155 86.774 L 342.155 86.774 L 342.155 86.774 Q 346.535 86.159 351.069 85.775 L 351.069 85.775 L 351.069 85.775 Q 355.603 85.391 359.753 85.391 L 359.753 85.391 L 359.753 85.391 Q 369.743 85.391 377.581 88.388 L 377.581 88.388 L 377.581 88.388 Q 385.419 91.385 390.798 96.841 L 390.798 96.841 L 390.798 96.841 Q 396.178 102.297 399.021 110.135 L 399.021 110.135 L 399.021 110.135 Q 401.864 117.973 401.864 127.656 Z  M 450.431 152.093 L 450.431 152.093 L 450.431 152.093 Q 453.812 152.093 456.886 151.939 L 456.886 151.939 L 456.886 151.939 Q 459.959 151.785 461.804 151.478 L 461.804 151.478 L 461.804 134.111 L 461.804 134.111 Q 460.42 133.804 457.654 133.496 L 457.654 133.496 L 457.654 133.496 Q 454.888 133.189 452.582 133.189 L 452.582 133.189 L 452.582 133.189 Q 449.355 133.189 446.511 133.573 L 446.511 133.573 L 446.511 133.573 Q 443.668 133.957 441.516 135.033 L 441.516 135.033 L 441.516 135.033 Q 439.365 136.109 438.135 137.953 L 438.135 137.953 L 438.135 137.953 Q 436.906 139.798 436.906 142.564 L 436.906 142.564 L 436.906 142.564 Q 436.906 147.943 440.517 150.018 L 440.517 150.018 L 440.517 150.018 Q 444.129 152.093 450.431 152.093 Z  M 448.586 85.083 L 448.586 85.083 L 448.586 85.083 Q 458.73 85.083 465.492 87.389 L 465.492 87.389 L 465.492 87.389 Q 472.255 89.694 476.328 93.998 L 476.328 93.998 L 476.328 93.998 Q 480.4 98.301 482.091 104.449 L 482.091 104.449 L 482.091 104.449 Q 483.782 110.596 483.782 118.127 L 483.782 118.127 L 483.782 165.771 L 483.782 165.771 Q 478.863 166.847 470.103 168.307 L 470.103 168.307 L 470.103 168.307 Q 461.343 169.767 448.894 169.767 L 448.894 169.767 L 448.894 169.767 Q 441.055 169.767 434.677 168.384 L 434.677 168.384 L 434.677 168.384 Q 428.299 167.001 423.688 163.85 L 423.688 163.85 L 423.688 163.85 Q 419.078 160.7 416.618 155.628 L 416.618 155.628 L 416.618 155.628 Q 414.159 150.556 414.159 143.179 L 414.159 143.179 L 414.159 143.179 Q 414.159 136.109 417.003 131.191 L 417.003 131.191 L 417.003 131.191 Q 419.846 126.273 424.61 123.353 L 424.61 123.353 L 424.61 123.353 Q 429.375 120.432 435.522 119.126 L 435.522 119.126 L 435.522 119.126 Q 441.67 117.82 448.279 117.82 L 448.279 117.82 L 448.279 117.82 Q 452.736 117.82 456.194 118.204 L 456.194 118.204 L 456.194 118.204 Q 459.652 118.588 461.804 119.203 L 461.804 119.203 L 461.804 117.051 L 461.804 117.051 Q 461.804 111.211 458.269 107.676 L 458.269 107.676 L 458.269 107.676 Q 454.734 104.141 445.973 104.141 L 445.973 104.141 L 445.973 104.141 Q 440.133 104.141 434.447 104.986 L 434.447 104.986 L 434.447 104.986 Q 428.76 105.832 424.61 107.369 L 424.61 107.369 L 421.69 88.926 L 421.69 88.926 Q 423.688 88.311 426.685 87.619 L 426.685 87.619 L 426.685 87.619 Q 429.682 86.928 433.217 86.39 L 433.217 86.39 L 433.217 86.39 Q 436.752 85.852 440.671 85.468 L 440.671 85.468 L 440.671 85.468 Q 444.59 85.083 448.586 85.083 Z  M 540.033 150.71 L 536.805 169.614 L 536.805 169.614 Q 526.815 169.46 520.591 167.462 L 520.591 167.462 L 520.591 167.462 Q 514.366 165.464 510.754 161.852 L 510.754 161.852 L 510.754 161.852 Q 507.143 158.241 505.836 153.092 L 505.836 153.092 L 505.836 153.092 Q 504.53 147.943 504.53 141.488 L 504.53 141.488 L 504.53 52.501 L 527.43 48.812 L 527.43 136.877 L 527.43 136.877 Q 527.43 139.951 527.891 142.41 L 527.891 142.41 L 527.891 142.41 Q 528.352 144.869 529.658 146.56 L 529.658 146.56 L 529.658 146.56 Q 530.965 148.251 533.424 149.326 L 533.424 149.326 L 533.424 149.326 Q 535.883 150.402 540.033 150.71 L 540.033 150.71 L 540.033 150.71 Z  M 597.513 168.077 L 597.513 125.197 L 597.513 125.197 Q 597.513 114.131 594.67 109.52 L 594.67 109.52 L 594.67 109.52 Q 591.827 104.91 584.91 104.91 L 584.91 104.91 L 584.91 104.91 Q 582.759 104.91 580.453 105.14 L 580.453 105.14 L 580.453 105.14 Q 578.148 105.371 575.996 105.678 L 575.996 105.678 L 575.996 168.077 L 553.096 168.077 L 553.096 90.002 L 553.096 90.002 Q 556.016 89.233 559.936 88.388 L 559.936 88.388 L 559.936 88.388 Q 563.855 87.543 568.235 86.851 L 568.235 86.851 L 568.235 86.851 Q 572.615 86.159 577.226 85.775 L 577.226 85.775 L 577.226 85.775 Q 581.837 85.391 586.294 85.391 L 586.294 85.391 L 586.294 85.391 Q 595.054 85.391 600.51 87.619 L 600.51 87.619 L 600.51 87.619 Q 605.966 89.848 609.501 92.922 L 609.501 92.922 L 609.501 92.922 Q 614.419 89.387 620.797 87.389 L 620.797 87.389 L 620.797 87.389 Q 627.176 85.391 632.555 85.391 L 632.555 85.391 L 632.555 85.391 Q 642.237 85.391 648.462 88.08 L 648.462 88.08 L 648.462 88.08 Q 654.686 90.77 658.375 95.688 L 658.375 95.688 L 658.375 95.688 Q 662.063 100.606 663.447 107.369 L 663.447 107.369 L 663.447 107.369 Q 664.83 114.131 664.83 122.43 L 664.83 122.43 L 664.83 168.077 L 641.93 168.077 L 641.93 125.197 L 641.93 125.197 Q 641.93 114.131 639.087 109.52 L 639.087 109.52 L 639.087 109.52 Q 636.243 104.91 629.327 104.91 L 629.327 104.91 L 629.327 104.91 Q 627.483 104.91 624.179 105.832 L 624.179 105.832 L 624.179 105.832 Q 620.874 106.754 618.722 108.137 L 618.722 108.137 L 618.722 108.137 Q 619.798 111.672 620.106 115.591 L 620.106 115.591 L 620.106 115.591 Q 620.413 119.51 620.413 123.967 L 620.413 123.967 L 620.413 168.077 L 597.513 168.077 L 597.513 168.077 Z " fill="rgb(28,89,153)"/><path d=" M 393.429 54.432 C 415.897 21.846 453.482 0.471 496.021 0.471 C 538.559 0.471 576.144 21.846 598.613 54.432 L 587.207 65.837 C 583.069 59.474 578.266 53.545 572.868 48.152 C 562.951 38.225 551.219 30.312 538.306 24.836 C 524.928 19.192 510.548 16.28 496.021 16.301 C 481.493 16.28 467.113 19.192 453.736 24.836 C 440.822 30.312 429.09 38.225 419.173 48.152 C 413.775 53.545 408.972 59.475 404.834 65.837 L 393.429 54.432 Z  M 393.429 195.568 C 415.897 228.154 453.482 249.529 496.021 249.529 C 538.559 249.529 576.144 228.154 598.613 195.568 L 587.207 184.163 C 583.069 190.526 578.266 196.455 572.868 201.848 C 562.951 211.775 551.219 219.688 538.306 225.164 C 524.928 230.808 510.548 233.72 496.021 233.699 C 481.493 233.72 467.113 230.808 453.736 225.164 C 440.822 219.688 429.09 211.775 419.173 201.848 C 413.775 196.455 408.973 190.526 404.834 184.163 L 393.429 195.568 Z " fill-rule="evenodd" fill="rgb(28,89,153)"/></g></svg>