<?xml version="1.0" encoding="UTF-8" standalone="no"?><!-- Generator: Gravit.io --><svg xmlns="http://www.w3.org/2000/svg" xmlns:xlink="http://www.w3.org/1999/xlink" style="isolation:isolate" viewBox="0 0 992 250" width="992pt" height="250pt"><defs><clipPath id="_clipPath_pKJTbUOPaSSkQzVUypFDIXU94M6xP9ng"><rect width="992" height="250"/></clipPath></defs><g clip-path="url(#_clipPath_pKJTbUOPaSSkQzVUypFDIXU94M6xP9ng)"><path d=" M 188.222 74.896 L 188.222 186.513 L 153.195 186.513 L 85.01 113.072 L 85.01 186.513 L 49.983 186.513 L 49.983 74.896 L 85.01 74.896 L 153.312 148.489 L 153.312 74.896 L 188.222 74.896 Z  M 321.09 120.125 L 321.09 138.14 L 253.839 138.14 L 253.839 168.038 L 332.766 168.038 L 332.766 186.513 L 218.812 186.513 L 218.812 74.896 L 332.532 74.896 L 332.532 93.524 L 253.839 93.524 L 253.839 120.125 L 321.09 120.125 Z  M 451.74 149.333 L 486.766 149.333 L 486.766 149.333 Q 484.782 167.348 466.509 177.697 L 466.509 177.697 L 466.509 177.697 Q 448.237 188.046 418.348 188.046 L 418.348 188.046 L 418.348 188.046 Q 385.656 188.046 366.917 173.595 L 366.917 173.595 L 366.917 173.595 Q 348.177 159.145 348.177 133.924 L 348.177 133.924 L 348.177 127.101 L 348.177 127.101 Q 348.177 111.002 356.817 98.737 L 356.817 98.737 L 356.817 98.737 Q 365.457 86.471 381.511 79.917 L 381.511 79.917 L 381.511 79.917 Q 397.565 73.362 418.815 73.362 L 418.815 73.362 L 418.815 73.362 Q 448.237 73.362 466.217 83.711 L 466.217 83.711 L 466.217 83.711 Q 484.198 94.061 487 112.766 L 487 112.766 L 451.973 112.766 L 451.973 112.766 Q 450.689 101.957 442.808 97.089 L 442.808 97.089 L 442.808 97.089 Q 434.927 92.221 418.815 92.221 L 418.815 92.221 L 418.815 92.221 Q 401.301 92.221 392.603 100.462 L 392.603 100.462 L 392.603 100.462 Q 383.905 108.703 383.671 126.028 L 383.671 126.028 L 383.671 134.46 L 383.671 134.46 Q 383.671 152.552 392.019 160.908 L 392.019 160.908 L 392.019 160.908 Q 400.367 169.264 418.348 169.264 L 418.348 169.264 L 418.348 169.264 Q 434.577 169.264 442.574 164.396 L 442.574 164.396 L 442.574 164.396 Q 450.572 159.528 451.74 149.333 L 451.74 149.333 Z " fill="rgb(119,119,119)"/><path d=" M 569.682 148.643 L 552.51 148.643 L 552.51 186.513 L 525.602 186.513 L 525.602 74.896 L 570.142 74.896 L 570.142 74.896 Q 582.944 74.896 592.795 79.61 L 592.795 79.61 L 592.795 79.61 Q 602.646 84.325 608.05 93.026 L 608.05 93.026 L 608.05 93.026 Q 613.455 101.727 613.455 112.766 L 613.455 112.766 L 613.455 112.766 Q 613.455 129.094 601.764 138.868 L 601.764 138.868 L 601.764 138.868 Q 590.073 148.643 569.682 148.643 L 569.682 148.643 Z  M 552.51 95.67 L 552.51 127.868 L 570.142 127.868 L 570.142 127.868 Q 577.961 127.868 582.062 123.958 L 582.062 123.958 L 582.062 123.958 Q 586.164 120.048 586.164 112.919 L 586.164 112.919 L 586.164 112.919 Q 586.164 105.1 581.947 100.423 L 581.947 100.423 L 581.947 100.423 Q 577.731 95.747 570.448 95.67 L 570.448 95.67 L 552.51 95.67 Z  M 686.341 148.719 L 713.096 148.719 L 713.096 148.719 Q 712.559 160.372 706.81 169.302 L 706.81 169.302 L 706.81 169.302 Q 701.06 178.233 690.673 183.14 L 690.673 183.14 L 690.673 183.14 Q 680.285 188.046 666.946 188.046 L 666.946 188.046 L 666.946 188.046 Q 644.945 188.046 632.296 173.71 L 632.296 173.71 L 632.296 173.71 Q 619.647 159.375 619.647 133.234 L 619.647 133.234 L 619.647 127.714 L 619.647 127.714 Q 619.647 111.309 625.358 99.005 L 625.358 99.005 L 625.358 99.005 Q 631.069 86.701 641.802 79.993 L 641.802 79.993 L 641.802 79.993 Q 652.534 73.286 666.64 73.286 L 666.64 73.286 L 666.64 73.286 Q 686.955 73.286 699.297 83.98 L 699.297 83.98 L 699.297 83.98 Q 711.639 94.674 713.326 113.456 L 713.326 113.456 L 686.495 113.456 L 686.495 113.456 Q 686.188 103.26 681.358 98.813 L 681.358 98.813 L 681.358 98.813 Q 676.529 94.367 666.64 94.367 L 666.64 94.367 L 666.64 94.367 Q 656.597 94.367 651.921 101.88 L 651.921 101.88 L 651.921 101.88 Q 647.245 109.393 647.015 125.875 L 647.015 125.875 L 647.015 133.771 L 647.015 133.771 Q 647.015 151.632 651.499 159.298 L 651.499 159.298 L 651.499 159.298 Q 655.984 166.964 666.946 166.964 L 666.946 166.964 L 666.946 166.964 Q 676.222 166.964 681.128 162.595 L 681.128 162.595 L 681.128 162.595 Q 686.035 158.225 686.341 148.719 L 686.341 148.719 Z  M 770.114 128.404 L 770.114 148.413 L 724.041 148.413 L 724.041 128.404 L 770.114 128.404 Z  M 946.015 104.716 L 946.015 104.716 L 946.015 104.716 Q 946.015 112.842 941.99 119.052 L 941.99 119.052 L 941.99 119.052 Q 937.965 125.261 930.913 129.018 L 930.913 129.018 L 930.913 129.018 Q 938.885 132.927 943.562 139.712 L 943.562 139.712 L 943.562 139.712 Q 948.238 146.496 948.238 155.772 L 948.238 155.772 L 948.238 155.772 Q 948.238 170.721 937.927 179.383 L 937.927 179.383 L 937.927 179.383 Q 927.616 188.046 909.524 188.046 L 909.524 188.046 L 909.524 188.046 Q 891.356 188.046 880.854 179.345 L 880.854 179.345 L 880.854 179.345 Q 870.351 170.644 870.351 155.772 L 870.351 155.772 L 870.351 155.772 Q 870.351 146.803 874.951 139.903 L 874.951 139.903 L 874.951 139.903 Q 879.55 133.004 887.983 129.018 L 887.983 129.018 L 887.983 129.018 Q 880.854 125.261 876.791 119.052 L 876.791 119.052 L 876.791 119.052 Q 872.728 112.842 872.728 104.716 L 872.728 104.716 L 872.728 104.716 Q 872.728 90.151 882.617 81.718 L 882.617 81.718 L 882.617 81.718 Q 892.506 73.286 909.294 73.286 L 909.294 73.286 L 909.294 73.286 Q 926.236 73.286 936.125 81.718 L 936.125 81.718 L 936.125 81.718 Q 946.015 90.151 946.015 104.716 Z  M 922.327 153.702 L 922.327 153.702 L 922.327 153.702 Q 922.327 146.803 918.762 143.085 L 918.762 143.085 L 918.762 143.085 Q 915.197 139.367 909.371 139.367 L 909.371 139.367 L 909.371 139.367 Q 903.545 139.367 899.942 143.085 L 899.942 143.085 L 899.942 143.085 Q 896.339 146.803 896.339 153.702 L 896.339 153.702 L 896.339 153.702 Q 896.339 160.372 899.98 164.243 L 899.98 164.243 L 899.98 164.243 Q 903.622 168.114 909.524 168.114 L 909.524 168.114 L 909.524 168.114 Q 915.274 168.114 918.8 164.281 L 918.8 164.281 L 918.8 164.281 Q 922.327 160.448 922.327 153.702 Z  M 909.294 93.217 L 909.294 93.217 L 909.294 93.217 Q 904.082 93.217 901.36 96.629 L 901.36 96.629 L 901.36 96.629 Q 898.639 100.04 898.639 106.096 L 898.639 106.096 L 898.639 106.096 Q 898.639 112.076 901.398 115.755 L 901.398 115.755 L 901.398 115.755 Q 904.158 119.435 909.524 119.435 L 909.524 119.435 L 909.524 119.435 Q 914.814 119.435 917.459 115.755 L 917.459 115.755 L 917.459 115.755 Q 920.104 112.076 920.104 106.096 L 920.104 106.096 L 920.104 106.096 Q 920.104 100.117 917.382 96.667 L 917.382 96.667 L 917.382 96.667 Q 914.661 93.217 909.294 93.217 Z  M 828.008 142.399 L 828.008 142.399 L 828.008 142.399 Q 819.546 150.007 809.065 150.007 L 809.065 150.007 L 809.065 150.007 Q 793.693 150.007 784.687 139.604 L 784.687 139.604 L 784.687 139.604 Q 775.681 129.201 775.681 111.81 L 775.681 111.81 L 775.681 111.81 Q 775.681 100.941 780.728 91.625 L 780.728 91.625 L 780.728 91.625 Q 785.774 82.308 794.896 76.874 L 794.896 76.874 L 794.896 76.874 Q 804.019 71.439 815.043 71.439 L 815.043 71.439 L 815.043 71.439 Q 826.223 71.439 835.267 77.068 L 835.267 77.068 L 835.267 77.068 Q 844.312 82.696 849.358 92.983 L 849.358 92.983 L 849.358 92.983 Q 854.405 103.27 854.56 116.701 L 854.56 116.701 L 854.56 126.716 L 854.56 126.716 Q 854.56 145.427 847.223 159.168 L 847.223 159.168 L 847.223 159.168 Q 839.887 172.91 826.3 180.286 L 826.3 180.286 L 826.3 180.286 Q 812.714 187.661 794.625 187.661 L 794.625 187.661 L 792.994 187.661 L 792.994 166.699 L 797.963 166.622 L 797.963 166.622 Q 824.98 165.302 828.008 142.399 Z  M 816.13 131.142 L 816.13 131.142 L 816.13 131.142 Q 824.67 131.142 828.396 123.766 L 828.396 123.766 L 828.396 112.897 L 828.396 112.897 Q 828.396 102.028 824.748 96.826 L 824.748 96.826 L 824.748 96.826 Q 821.099 91.625 814.888 91.625 L 814.888 91.625 L 814.888 91.625 Q 809.375 91.625 805.649 97.525 L 805.649 97.525 L 805.649 97.525 Q 801.922 103.425 801.922 111.81 L 801.922 111.81 L 801.922 111.81 Q 801.922 120.661 805.727 125.901 L 805.727 125.901 L 805.727 125.901 Q 809.531 131.142 816.13 131.142 Z " fill-rule="evenodd" fill="rgb(119,119,119)"/><path d=" M 184.222 70.896 L 184.222 182.513 L 149.195 182.513 L 81.01 109.072 L 81.01 182.513 L 45.983 182.513 L 45.983 70.896 L 81.01 70.896 L 149.312 144.489 L 149.312 70.896 L 184.222 70.896 Z  M 317.09 116.125 L 317.09 134.14 L 249.839 134.14 L 249.839 164.038 L 328.766 164.038 L 328.766 182.513 L 214.812 182.513 L 214.812 70.896 L 328.532 70.896 L 328.532 89.524 L 249.839 89.524 L 249.839 116.125 L 317.09 116.125 Z  M 447.74 145.333 L 482.766 145.333 L 482.766 145.333 Q 480.782 163.348 462.509 173.697 L 462.509 173.697 L 462.509 173.697 Q 444.237 184.046 414.348 184.046 L 414.348 184.046 L 414.348 184.046 Q 381.656 184.046 362.917 169.595 L 362.917 169.595 L 362.917 169.595 Q 344.177 155.145 344.177 129.924 L 344.177 129.924 L 344.177 123.101 L 344.177 123.101 Q 344.177 107.002 352.817 94.737 L 352.817 94.737 L 352.817 94.737 Q 361.457 82.471 377.511 75.917 L 377.511 75.917 L 377.511 75.917 Q 393.565 69.362 414.815 69.362 L 414.815 69.362 L 414.815 69.362 Q 444.237 69.362 462.217 79.711 L 462.217 79.711 L 462.217 79.711 Q 480.198 90.061 483 108.766 L 483 108.766 L 447.973 108.766 L 447.973 108.766 Q 446.689 97.957 438.808 93.089 L 438.808 93.089 L 438.808 93.089 Q 430.927 88.221 414.815 88.221 L 414.815 88.221 L 414.815 88.221 Q 397.301 88.221 388.603 96.462 L 388.603 96.462 L 388.603 96.462 Q 379.905 104.703 379.671 122.028 L 379.671 122.028 L 379.671 130.46 L 379.671 130.46 Q 379.671 148.552 388.019 156.908 L 388.019 156.908 L 388.019 156.908 Q 396.367 165.264 414.348 165.264 L 414.348 165.264 L 414.348 165.264 Q 430.577 165.264 438.574 160.396 L 438.574 160.396 L 438.574 160.396 Q 446.572 155.528 447.74 145.333 L 447.74 145.333 Z " fill="rgb(160,20,20)"/><path d=" M 566.682 144.643 L 549.51 144.643 L 549.51 182.513 L 522.602 182.513 L 522.602 70.896 L 567.142 70.896 L 567.142 70.896 Q 579.944 70.896 589.795 75.61 L 589.795 75.61 L 589.795 75.61 Q 599.646 80.325 605.05 89.026 L 605.05 89.026 L 605.05 89.026 Q 610.455 97.727 610.455 108.766 L 610.455 108.766 L 610.455 108.766 Q 610.455 125.094 598.764 134.868 L 598.764 134.868 L 598.764 134.868 Q 587.073 144.643 566.682 144.643 L 566.682 144.643 Z  M 549.51 91.67 L 549.51 123.868 L 567.142 123.868 L 567.142 123.868 Q 574.961 123.868 579.062 119.958 L 579.062 119.958 L 579.062 119.958 Q 583.164 116.048 583.164 108.919 L 583.164 108.919 L 583.164 108.919 Q 583.164 101.1 578.947 96.423 L 578.947 96.423 L 578.947 96.423 Q 574.731 91.747 567.448 91.67 L 567.448 91.67 L 549.51 91.67 Z  M 683.341 144.719 L 710.096 144.719 L 710.096 144.719 Q 709.559 156.372 703.81 165.302 L 703.81 165.302 L 703.81 165.302 Q 698.06 174.233 687.673 179.14 L 687.673 179.14 L 687.673 179.14 Q 677.285 184.046 663.946 184.046 L 663.946 184.046 L 663.946 184.046 Q 641.945 184.046 629.296 169.71 L 629.296 169.71 L 629.296 169.71 Q 616.647 155.375 616.647 129.234 L 616.647 129.234 L 616.647 123.714 L 616.647 123.714 Q 616.647 107.309 622.358 95.005 L 622.358 95.005 L 622.358 95.005 Q 628.069 82.701 638.802 75.993 L 638.802 75.993 L 638.802 75.993 Q 649.534 69.286 663.64 69.286 L 663.64 69.286 L 663.64 69.286 Q 683.955 69.286 696.297 79.98 L 696.297 79.98 L 696.297 79.98 Q 708.639 90.674 710.326 109.456 L 710.326 109.456 L 683.495 109.456 L 683.495 109.456 Q 683.188 99.26 678.358 94.813 L 678.358 94.813 L 678.358 94.813 Q 673.529 90.367 663.64 90.367 L 663.64 90.367 L 663.64 90.367 Q 653.597 90.367 648.921 97.88 L 648.921 97.88 L 648.921 97.88 Q 644.245 105.393 644.015 121.875 L 644.015 121.875 L 644.015 129.771 L 644.015 129.771 Q 644.015 147.632 648.499 155.298 L 648.499 155.298 L 648.499 155.298 Q 652.984 162.964 663.946 162.964 L 663.946 162.964 L 663.946 162.964 Q 673.222 162.964 678.128 158.595 L 678.128 158.595 L 678.128 158.595 Q 683.035 154.225 683.341 144.719 L 683.341 144.719 Z  M 767.114 124.404 L 767.114 144.413 L 721.041 144.413 L 721.041 124.404 L 767.114 124.404 Z  M 943.015 100.716 L 943.015 100.716 L 943.015 100.716 Q 943.015 108.842 938.99 115.052 L 938.99 115.052 L 938.99 115.052 Q 934.965 121.261 927.913 125.018 L 927.913 125.018 L 927.913 125.018 Q 935.885 128.927 940.562 135.712 L 940.562 135.712 L 940.562 135.712 Q 945.238 142.496 945.238 151.772 L 945.238 151.772 L 945.238 151.772 Q 945.238 166.721 934.927 175.383 L 934.927 175.383 L 934.927 175.383 Q 924.616 184.046 906.524 184.046 L 906.524 184.046 L 906.524 184.046 Q 888.356 184.046 877.854 175.345 L 877.854 175.345 L 877.854 175.345 Q 867.351 166.644 867.351 151.772 L 867.351 151.772 L 867.351 151.772 Q 867.351 142.803 871.951 135.903 L 871.951 135.903 L 871.951 135.903 Q 876.55 129.004 884.983 125.018 L 884.983 125.018 L 884.983 125.018 Q 877.854 121.261 873.791 115.052 L 873.791 115.052 L 873.791 115.052 Q 869.728 108.842 869.728 100.716 L 869.728 100.716 L 869.728 100.716 Q 869.728 86.151 879.617 77.718 L 879.617 77.718 L 879.617 77.718 Q 889.506 69.286 906.294 69.286 L 906.294 69.286 L 906.294 69.286 Q 923.236 69.286 933.125 77.718 L 933.125 77.718 L 933.125 77.718 Q 943.015 86.151 943.015 100.716 Z  M 919.327 149.702 L 919.327 149.702 L 919.327 149.702 Q 919.327 142.803 915.762 139.085 L 915.762 139.085 L 915.762 139.085 Q 912.197 135.367 906.371 135.367 L 906.371 135.367 L 906.371 135.367 Q 900.545 135.367 896.942 139.085 L 896.942 139.085 L 896.942 139.085 Q 893.339 142.803 893.339 149.702 L 893.339 149.702 L 893.339 149.702 Q 893.339 156.372 896.98 160.243 L 896.98 160.243 L 896.98 160.243 Q 900.622 164.114 906.524 164.114 L 906.524 164.114 L 906.524 164.114 Q 912.274 164.114 915.8 160.281 L 915.8 160.281 L 915.8 160.281 Q 919.327 156.448 919.327 149.702 Z  M 906.294 89.217 L 906.294 89.217 L 906.294 89.217 Q 901.082 89.217 898.36 92.629 L 898.36 92.629 L 898.36 92.629 Q 895.639 96.04 895.639 102.096 L 895.639 102.096 L 895.639 102.096 Q 895.639 108.076 898.398 111.755 L 898.398 111.755 L 898.398 111.755 Q 901.158 115.435 906.524 115.435 L 906.524 115.435 L 906.524 115.435 Q 911.814 115.435 914.459 111.755 L 914.459 111.755 L 914.459 111.755 Q 917.104 108.076 917.104 102.096 L 917.104 102.096 L 917.104 102.096 Q 917.104 96.117 914.382 92.667 L 914.382 92.667 L 914.382 92.667 Q 911.661 89.217 906.294 89.217 Z  M 826.008 139.399 L 826.008 139.399 L 826.008 139.399 Q 817.546 147.007 807.065 147.007 L 807.065 147.007 L 807.065 147.007 Q 791.693 147.007 782.687 136.604 L 782.687 136.604 L 782.687 136.604 Q 773.681 126.201 773.681 108.81 L 773.681 108.81 L 773.681 108.81 Q 773.681 97.941 778.728 88.625 L 778.728 88.625 L 778.728 88.625 Q 783.774 79.308 792.896 73.874 L 792.896 73.874 L 792.896 73.874 Q 802.019 68.439 813.043 68.439 L 813.043 68.439 L 813.043 68.439 Q 824.223 68.439 833.267 74.068 L 833.267 74.068 L 833.267 74.068 Q 842.312 79.696 847.358 89.983 L 847.358 89.983 L 847.358 89.983 Q 852.405 100.27 852.56 113.701 L 852.56 113.701 L 852.56 123.716 L 852.56 123.716 Q 852.56 142.427 845.223 156.168 L 845.223 156.168 L 845.223 156.168 Q 837.887 169.91 824.3 177.286 L 824.3 177.286 L 824.3 177.286 Q 810.714 184.661 792.625 184.661 L 792.625 184.661 L 790.994 184.661 L 790.994 163.699 L 795.963 163.622 L 795.963 163.622 Q 822.98 162.302 826.008 139.399 Z  M 814.13 128.142 L 814.13 128.142 L 814.13 128.142 Q 822.67 128.142 826.396 120.766 L 826.396 120.766 L 826.396 109.897 L 826.396 109.897 Q 826.396 99.028 822.748 93.826 L 822.748 93.826 L 822.748 93.826 Q 819.099 88.625 812.888 88.625 L 812.888 88.625 L 812.888 88.625 Q 807.375 88.625 803.649 94.525 L 803.649 94.525 L 803.649 94.525 Q 799.922 100.425 799.922 108.81 L 799.922 108.81 L 799.922 108.81 Q 799.922 117.661 803.727 122.901 L 803.727 122.901 L 803.727 122.901 Q 807.531 128.142 814.13 128.142 Z " fill-rule="evenodd" fill="rgb(234,234,234)"/></g></svg>