<?xml version="1.0" encoding="UTF-8" standalone="no"?><!-- Generator: Gravit.io --><svg xmlns="http://www.w3.org/2000/svg" xmlns:xlink="http://www.w3.org/1999/xlink" style="isolation:isolate" viewBox="0 0 992 250" width="992pt" height="250pt"><defs><clipPath id="_clipPath_24Ga3gW8UB3qQhF92nu5kblnusGPnycS"><rect width="992" height="250"/></clipPath></defs><g clip-path="url(#_clipPath_24Ga3gW8UB3qQhF92nu5kblnusGPnycS)"><path d=" M 343.786 136.139 L 320.345 48.656 L 357.788 38.623 L 357.788 38.623 Q 374.487 34.149 385.409 39.167 L 385.409 39.167 L 385.409 39.167 Q 396.331 44.185 400.005 57.896 L 400.005 57.896 L 400.005 57.896 Q 403.695 71.666 396.745 81.472 L 396.745 81.472 L 396.745 81.472 Q 389.795 91.279 373.096 95.754 L 373.096 95.754 L 358.212 99.742 L 366.345 130.094 L 343.786 136.139 Z  M 359.766 55.615 L 347.285 58.959 L 353.832 83.394 L 366.313 80.049 L 366.313 80.049 Q 372.875 78.291 375.594 74.14 L 375.594 74.14 L 375.594 74.14 Q 378.313 69.989 376.743 64.129 L 376.743 64.129 L 376.743 64.129 Q 375.173 58.269 370.75 56.063 L 370.75 56.063 L 370.75 56.063 Q 366.328 53.857 359.766 55.615 L 359.766 55.615 Z  M 488.707 72.752 L 493.558 90.858 L 493.558 90.858 Q 488.211 95.745 481.912 99.191 L 481.912 99.191 L 481.912 99.191 Q 475.613 102.637 468.289 104.6 L 468.289 104.6 L 468.289 104.6 Q 446.433 110.456 430.385 101.662 L 430.385 101.662 L 430.385 101.662 Q 414.338 92.867 408.733 71.949 L 408.733 71.949 L 408.733 71.949 Q 403.112 50.972 412.612 35.332 L 412.612 35.332 L 412.612 35.332 Q 422.112 19.692 443.969 13.835 L 443.969 13.835 L 443.969 13.835 Q 451.293 11.873 458.471 11.708 L 458.471 11.708 L 458.471 11.708 Q 465.649 11.543 472.724 13.102 L 472.724 13.102 L 477.575 31.208 L 477.575 31.208 Q 470.159 28.61 463.532 28.251 L 463.532 28.251 L 463.532 28.251 Q 456.904 27.891 450.165 29.697 L 450.165 29.697 L 450.165 29.697 Q 438.095 32.931 433.253 42.518 L 433.253 42.518 L 433.253 42.518 Q 428.411 52.106 432.054 65.7 L 432.054 65.7 L 432.054 65.7 Q 435.681 79.235 444.667 85.117 L 444.667 85.117 L 444.667 85.117 Q 453.654 90.999 465.725 87.765 L 465.725 87.765 L 465.725 87.765 Q 472.463 85.959 478.023 82.334 L 478.023 82.334 L 478.023 82.334 Q 483.583 78.709 488.707 72.752 L 488.707 72.752 Z " fill="rgb(253,32,32)"/><path d=" M 467.985 122.797 C 466.917 122.412 465.823 122.095 464.712 121.847 C 463.665 121.629 462.612 121.46 461.551 121.37 C 460.441 121.274 459.327 121.236 458.214 121.275 C 457.025 121.315 455.835 121.423 454.655 121.605 C 453.365 121.807 452.084 122.073 450.821 122.412 C 448.698 122.98 446.645 123.771 444.696 124.773 C 442.879 125.692 441.177 126.829 439.627 128.137 C 438.055 129.47 436.643 130.971 435.423 132.613 C 434.075 134.424 432.924 136.364 431.974 138.404 C 431.075 140.353 430.358 142.369 429.829 144.44 C 429.286 146.572 428.938 148.748 428.786 150.939 C 428.62 153.326 428.667 155.723 428.929 158.1 C 429.229 160.832 429.736 163.547 430.446 166.198 C 431.154 168.839 432.066 171.417 433.169 173.924 C 434.131 176.114 435.288 178.213 436.617 180.199 C 437.844 182.02 439.233 183.731 440.769 185.306 C 442.268 186.853 443.902 188.258 445.655 189.497 C 447.503 190.807 449.48 191.918 451.556 192.821 C 453.445 193.639 455.421 194.242 457.44 194.613 C 459.447 194.978 461.489 195.112 463.516 195.01 C 465.712 194.892 467.876 194.552 469.999 193.984 C 471.261 193.645 472.507 193.244 473.723 192.765 C 474.835 192.333 475.922 191.84 476.97 191.271 C 477.953 190.749 478.901 190.168 479.815 189.53 C 480.686 188.912 481.516 188.249 482.311 187.527 C 483.923 186.058 485.351 184.399 486.552 182.58 C 486.824 182.161 487.09 181.754 487.35 181.329 L 487.35 181.329 C 487.581 182.371 487.756 183.419 487.878 184.48 C 488.018 185.614 488.044 186.749 487.964 187.884 C 487.888 188.96 487.692 190.02 487.374 191.056 C 487.108 191.924 486.732 192.744 486.257 193.515 C 485.756 194.33 485.148 195.069 484.45 195.726 C 483.56 196.56 482.57 197.305 481.521 197.941 C 480.495 198.552 479.417 199.081 478.31 199.532 C 476.811 200.135 475.276 200.642 473.718 201.059 C 472.061 201.503 470.373 201.831 468.67 202.028 C 466.901 202.233 465.128 202.315 463.351 202.273 C 461.564 202.233 459.776 202.079 458.004 201.805 C 455.932 201.487 453.869 201.06 451.845 200.528 C 451.047 200.31 450.188 200.54 449.606 201.128 C 449.024 201.715 448.791 202.565 449.005 203.362 L 453.387 219.715 C 453.643 220.673 454.501 221.365 455.487 221.427 C 457.652 221.557 459.823 221.599 461.984 221.567 C 464.054 221.521 466.115 221.401 468.171 221.195 C 470.228 220.99 472.281 220.699 474.31 220.319 C 476.46 219.925 478.586 219.441 480.691 218.878 C 483.986 217.994 487.227 216.905 490.392 215.606 C 492.927 214.572 495.386 213.327 497.728 211.894 C 499.997 210.508 502.122 208.912 504.089 207.118 C 505.817 205.541 507.379 203.779 508.719 201.865 C 509.387 200.918 509.998 199.939 510.543 198.929 C 511.084 197.939 511.568 196.917 511.989 195.873 C 512.41 194.829 512.768 193.764 513.062 192.677 C 513.367 191.558 513.605 190.439 513.779 189.298 C 514.165 186.833 514.253 184.333 514.065 181.84 C 513.849 178.884 513.35 175.946 512.582 173.081 L 496.619 113.508 L 489.412 118.445 L 492.893 117.512 L 508.104 174.281 C 508.798 176.869 509.247 179.513 509.445 182.186 C 509.607 184.331 509.528 186.473 509.195 188.597 C 509.049 189.558 508.845 190.515 508.589 191.457 C 508.343 192.367 508.037 193.265 507.685 194.137 C 507.335 195.018 506.931 195.875 506.473 196.708 C 506.011 197.561 505.494 198.391 504.932 199.194 C 503.779 200.837 502.446 202.346 500.964 203.693 C 499.22 205.283 497.326 206.703 495.305 207.936 C 493.179 209.244 490.947 210.37 488.628 211.318 C 485.653 212.537 482.598 213.567 479.491 214.4 C 477.503 214.933 475.493 215.385 473.464 215.765 C 471.563 216.121 469.638 216.387 467.714 216.586 C 465.778 216.778 463.842 216.894 461.901 216.924 C 460.413 216.958 458.919 216.936 457.428 216.885 L 454.483 205.897 C 455.424 206.076 456.362 206.247 457.312 206.387 C 459.273 206.686 461.249 206.858 463.24 206.91 C 465.231 206.962 467.222 206.87 469.204 206.636 C 471.13 206.408 473.037 206.041 474.918 205.537 C 476.655 205.072 478.366 204.508 480.037 203.83 C 481.373 203.299 482.66 202.656 483.902 201.92 C 485.24 201.111 486.486 200.172 487.629 199.098 C 488.618 198.171 489.478 197.115 490.196 195.963 C 490.886 194.847 491.421 193.657 491.807 192.411 C 492.227 191.042 492.485 189.638 492.582 188.211 C 492.689 186.781 492.651 185.351 492.483 183.937 C 492.272 182.18 491.941 180.445 491.483 178.734 L 491.483 178.734 L 490.273 174.221 C 490.017 173.262 489.168 172.568 488.182 172.506 C 487.187 172.446 486.259 173.031 485.89 173.946 C 485.031 176.077 483.961 178.101 482.688 180.016 C 481.699 181.519 480.521 182.89 479.186 184.102 C 478.546 184.687 477.858 185.236 477.146 185.734 C 476.395 186.261 475.605 186.751 474.792 187.19 C 473.9 187.659 472.985 188.077 472.046 188.444 C 470.987 188.862 469.9 189.211 468.799 189.506 C 466.999 189.988 465.148 190.283 463.283 190.379 C 461.607 190.464 459.927 190.357 458.272 190.052 C 456.598 189.752 454.966 189.248 453.402 188.573 C 451.619 187.793 449.923 186.837 448.337 185.717 C 446.819 184.636 445.399 183.423 444.099 182.082 C 442.752 180.705 441.543 179.205 440.462 177.604 C 439.281 175.848 438.256 173.991 437.411 172.058 C 436.403 169.765 435.57 167.407 434.924 164.998 C 434.274 162.571 433.812 160.093 433.536 157.595 C 433.309 155.496 433.267 153.367 433.411 151.255 C 433.543 149.348 433.848 147.442 434.321 145.588 C 434.779 143.786 435.404 142.035 436.183 140.357 C 436.99 138.605 437.983 136.938 439.14 135.38 C 440.158 134.022 441.322 132.779 442.622 131.683 C 443.906 130.599 445.305 129.658 446.801 128.902 C 448.464 128.053 450.212 127.374 452.021 126.889 C 453.122 126.594 454.24 126.362 455.364 126.185 C 456.36 126.034 457.362 125.938 458.371 125.908 C 459.295 125.881 460.222 125.901 461.136 125.983 C 462.003 126.067 462.871 126.19 463.72 126.384 C 463.93 126.43 464.139 126.479 464.347 126.531 L 467.985 122.797 Z  M 472.268 130.187 C 473.07 130.716 473.851 131.28 474.608 131.875 C 475.387 132.492 476.483 132.534 477.315 131.985 C 478.149 131.445 478.537 130.419 478.278 129.452 L 477.512 126.595 L 472.268 130.187 Z  M 452.542 143.697 L 452.542 143.697 C 452.446 143.906 452.355 144.117 452.269 144.33 C 451.859 145.343 451.552 146.384 451.339 147.45 C 451.109 148.634 450.97 149.833 450.938 151.041 C 450.894 152.454 450.974 153.863 451.158 155.263 C 451.389 156.987 451.742 158.697 452.19 160.371 C 452.613 161.947 453.116 163.502 453.715 165.021 C 454.187 166.248 454.756 167.439 455.401 168.591 C 456.061 169.768 456.829 170.877 457.683 171.915 C 458.422 172.811 459.264 173.622 460.184 174.336 C 461.073 175.038 462.048 175.631 463.086 176.102 C 464.092 176.561 465.15 176.892 466.24 177.09 C 467.393 177.309 468.572 177.377 469.743 177.303 C 471.084 177.222 472.41 177.011 473.708 176.663 C 474.962 176.327 476.18 175.857 477.339 175.277 C 478.378 174.749 479.346 174.096 480.226 173.333 C 481.075 172.596 481.83 171.761 482.478 170.848 C 483.161 169.887 483.726 168.843 484.164 167.756 C 484.568 166.756 484.886 165.72 485.091 164.658 C 485.325 163.491 485.458 162.303 485.501 161.102 C 485.544 159.689 485.473 158.278 485.281 156.88 C 485.05 155.156 484.709 153.453 484.26 151.778 C 483.838 150.202 483.326 148.65 482.715 147.124 C 482.217 145.875 481.626 144.671 480.941 143.511 C 480.285 142.39 479.53 141.326 478.688 140.333 C 477.933 139.45 477.092 138.639 476.171 137.926 C 475.248 137.204 474.239 136.591 473.167 136.101 C 472.147 135.625 471.076 135.279 469.972 135.066 C 468.831 134.853 467.667 134.772 466.503 134.834 C 466.113 134.855 465.723 134.889 465.336 134.934 L 452.542 143.697 Z  M 517.27 106.181 L 505.583 109.312 L 524.367 179.416 L 524.367 179.416 L 549.819 172.596 L 534.354 114.883 L 528.797 112.052 L 544.141 169.318 L 527.645 173.738 L 527.645 173.738 L 511.261 112.59 L 523.444 109.326 L 517.27 106.181 Z  M 294.077 236.322 L 271.838 153.323 L 328.239 138.21 L 331.608 150.784 L 293.288 161.052 L 298.85 181.811 L 334.887 172.155 L 338.256 184.728 L 302.219 194.384 L 308.789 218.904 L 348.4 208.291 L 351.769 220.864 L 294.077 236.322 L 294.077 236.322 Z  M 420.237 162.089 L 430.344 199.81 L 413.732 204.261 L 412.589 199.998 L 406.137 175.917 C 405.371 173.06 404.561 170.216 403.699 167.394 C 403.356 166.257 402.971 165.142 402.532 164.04 C 402.33 163.538 402.11 163.04 401.884 162.553 C 401.697 162.143 401.486 161.748 401.275 161.354 C 400.987 160.855 400.673 160.363 400.326 159.89 C 400.043 159.515 399.726 159.158 399.388 158.826 C 398.663 158.128 397.841 157.532 396.961 157.039 C 396.064 156.559 395.111 156.19 394.127 155.955 C 393.142 155.72 392.124 155.609 391.114 155.639 C 390.02 155.673 388.929 155.831 387.882 156.112 C 386.628 156.448 385.419 156.916 384.273 157.511 C 383.236 158.048 382.262 158.712 381.376 159.487 C 380.516 160.255 379.742 161.124 379.094 162.075 C 378.398 163.097 377.816 164.184 377.365 165.332 C 376.932 166.437 376.605 167.58 376.391 168.751 C 376.152 170.044 376.025 171.364 376.014 172.682 C 375.994 174.079 376.09 175.474 376.28 176.862 C 376.517 178.536 376.855 180.192 377.292 181.822 L 385.343 211.868 L 368.847 216.288 L 352.462 155.14 L 368.958 150.72 L 370.933 158.09 C 371.185 159.031 372.013 159.721 372.984 159.797 C 373.956 159.881 374.876 159.337 375.282 158.451 C 376.282 156.273 377.47 154.189 378.852 152.216 C 379.912 150.693 381.151 149.296 382.533 148.043 C 383.213 147.428 383.934 146.861 384.686 146.333 C 385.443 145.794 386.227 145.315 387.04 144.877 C 387.896 144.417 388.767 144.011 389.669 143.654 C 390.634 143.28 391.621 142.949 392.633 142.678 C 394.468 142.186 396.341 141.866 398.241 141.722 C 399.717 141.605 401.206 141.647 402.676 141.868 C 403.966 142.06 405.229 142.403 406.442 142.884 C 407.642 143.349 408.775 143.958 409.835 144.691 C 410.946 145.469 411.961 146.358 412.882 147.359 C 413.968 148.546 414.937 149.832 415.783 151.198 C 416.682 152.656 417.457 154.186 418.102 155.77 C 418.951 157.827 419.661 159.94 420.237 162.089 L 420.237 162.089 Z  M 463.865 139.927 C 464.814 139.673 465.781 139.52 466.754 139.461 C 467.54 139.423 468.33 139.47 469.1 139.619 C 469.837 139.757 470.543 139.991 471.223 140.307 C 471.969 140.655 472.678 141.079 473.323 141.588 C 473.99 142.11 474.607 142.693 475.153 143.334 C 475.826 144.123 476.427 144.97 476.943 145.858 C 477.508 146.82 477.997 147.822 478.408 148.854 C 478.95 150.197 479.408 151.581 479.782 152.978 C 480.18 154.465 480.487 155.966 480.683 157.488 C 480.84 158.646 480.9 159.801 480.866 160.962 C 480.839 161.9 480.724 162.833 480.548 163.753 C 480.393 164.534 480.162 165.287 479.869 166.018 C 479.565 166.781 479.163 167.503 478.691 168.177 C 478.258 168.782 477.763 169.337 477.194 169.826 C 476.602 170.34 475.944 170.785 475.241 171.136 C 474.371 171.58 473.458 171.931 472.508 172.185 C 471.514 172.451 470.494 172.619 469.465 172.684 C 468.669 172.724 467.87 172.679 467.083 172.535 C 466.365 172.401 465.665 172.186 465.007 171.882 C 464.307 171.561 463.644 171.163 463.035 170.682 C 462.381 170.176 461.784 169.597 461.259 168.96 C 460.577 168.135 459.966 167.253 459.438 166.319 C 458.902 165.359 458.433 164.362 458.034 163.336 C 457.496 161.973 457.047 160.586 456.668 159.171 C 456.27 157.685 455.961 156.174 455.753 154.646 C 455.599 153.497 455.537 152.333 455.571 151.172 C 455.595 150.225 455.705 149.274 455.888 148.342 C 456.037 147.573 456.264 146.811 456.567 146.077 C 456.871 145.314 457.271 144.584 457.743 143.91 C 458.173 143.295 458.67 142.75 459.24 142.261 C 459.823 141.75 460.472 141.307 461.174 140.956 C 462.026 140.516 462.933 140.177 463.865 139.927 L 463.865 139.927 Z  M 613.899 110.198 L 624.006 147.918 L 607.394 152.37 L 606.251 148.107 L 599.799 124.026 C 599.033 121.169 598.214 118.326 597.362 115.503 C 597.019 114.366 596.624 113.252 596.185 112.151 C 595.983 111.648 595.773 111.148 595.546 110.662 C 595.35 110.254 595.148 109.857 594.928 109.464 C 594.65 108.963 594.335 108.471 593.988 107.998 C 593.705 107.623 593.389 107.266 593.05 106.935 C 592.316 106.238 591.504 105.64 590.614 105.149 C 589.726 104.667 588.773 104.299 587.789 104.063 C 586.804 103.828 585.786 103.717 584.777 103.747 C 583.682 103.782 582.592 103.939 581.535 104.223 C 580.29 104.556 579.081 105.024 577.935 105.619 C 576.89 106.158 575.916 106.822 575.038 107.595 C 574.169 108.365 573.404 109.233 572.756 110.184 C 572.06 111.205 571.478 112.292 571.028 113.44 C 570.594 114.545 570.267 115.688 570.053 116.859 C 569.814 118.152 569.687 119.472 569.676 120.79 C 569.657 122.187 569.752 123.582 569.942 124.971 C 570.179 126.645 570.517 128.301 570.954 129.931 L 579.005 159.976 L 562.509 164.396 L 546.124 103.248 L 562.62 98.828 L 564.595 106.199 C 564.847 107.139 565.666 107.831 566.637 107.907 C 567.61 107.992 568.538 107.446 568.944 106.56 C 569.944 104.382 571.132 102.297 572.505 100.326 C 573.574 98.802 574.813 97.404 576.195 96.151 C 576.875 95.537 577.596 94.969 578.348 94.441 C 579.097 93.905 579.889 93.424 580.703 92.985 C 581.558 92.525 582.429 92.119 583.322 91.765 C 584.297 91.389 585.283 91.057 586.295 90.786 C 588.131 90.294 590.003 89.975 591.903 89.83 C 593.379 89.713 594.868 89.756 596.33 89.978 C 597.628 90.168 598.891 90.511 600.105 90.992 C 601.304 91.458 602.437 92.066 603.488 92.802 C 604.608 93.577 605.623 94.466 606.544 95.467 C 607.63 96.654 608.599 97.94 609.445 99.307 C 610.335 100.767 611.119 102.295 611.764 103.878 C 612.613 105.935 613.323 108.049 613.899 110.198 L 613.899 110.198 Z  M 648.181 98.613 C 648.176 98.451 648.18 98.286 648.184 98.122 C 648.217 97.278 648.315 96.427 648.488 95.603 C 648.64 94.881 648.855 94.18 649.134 93.5 C 649.388 92.875 649.698 92.274 650.064 91.706 C 650.439 91.135 650.87 90.597 651.35 90.094 C 651.839 89.589 652.38 89.137 652.953 88.734 C 653.6 88.282 654.282 87.888 654.994 87.572 C 655.866 87.175 656.778 86.854 657.71 86.605 C 658.525 86.386 659.35 86.242 660.197 86.178 C 660.891 86.117 661.588 86.141 662.273 86.227 C 662.911 86.315 663.548 86.47 664.161 86.681 C 664.799 86.913 665.416 87.208 665.991 87.563 C 666.563 87.909 667.106 88.32 667.592 88.775 C 668.09 89.237 668.544 89.749 668.943 90.304 C 669.385 90.915 669.771 91.57 670.08 92.255 C 670.147 92.4 670.215 92.545 670.274 92.693 L 648.181 98.613 L 648.181 98.613 Z  M 290.799 242 L 266.16 150.045 L 331.517 132.533 L 337.286 154.062 L 298.966 164.33 L 302.128 176.133 L 338.165 166.477 L 343.934 188.006 L 307.897 197.662 L 312.067 213.227 L 351.677 202.613 L 357.446 224.142 L 290.799 242 L 290.799 242 Z  M 424.714 160.89 L 436.021 203.088 L 410.454 209.939 L 408.112 201.198 L 401.659 177.117 C 400.906 174.305 400.11 171.514 399.269 168.735 C 398.962 167.732 398.608 166.733 398.223 165.761 C 398.051 165.337 397.874 164.924 397.687 164.513 C 397.54 164.216 397.391 163.911 397.229 163.628 C 397.041 163.285 396.828 162.958 396.592 162.647 C 396.47 162.478 396.332 162.323 396.179 162.182 C 395.749 161.759 395.259 161.401 394.731 161.111 C 394.202 160.82 393.633 160.598 393.049 160.458 C 392.455 160.319 391.853 160.26 391.242 160.27 C 390.509 160.293 389.789 160.4 389.081 160.59 C 388.15 160.839 387.254 161.185 386.402 161.624 C 385.702 161.985 385.046 162.439 384.448 162.964 C 383.865 163.475 383.358 164.053 382.916 164.699 C 382.42 165.427 382.006 166.21 381.681 167.036 C 381.355 167.862 381.113 168.714 380.952 169.583 C 380.76 170.623 380.659 171.677 380.652 172.725 C 380.64 173.899 380.711 175.061 380.877 176.216 C 381.082 177.697 381.381 179.172 381.77 180.623 L 391.02 215.146 L 365.569 221.966 L 346.785 151.862 L 372.236 145.042 L 373.906 151.275 C 374.279 150.696 374.654 150.125 375.051 149.567 C 376.321 147.749 377.786 146.089 379.432 144.602 C 380.252 143.864 381.113 143.173 382.017 142.537 C 382.922 141.901 383.868 141.311 384.851 140.789 C 385.856 140.241 386.907 139.758 387.975 139.337 C 389.106 138.9 390.26 138.514 391.433 138.2 C 393.537 137.636 395.695 137.269 397.875 137.097 C 399.699 136.954 401.54 137.018 403.348 137.282 C 404.998 137.531 406.6 137.956 408.146 138.569 C 409.681 139.175 411.127 139.949 412.483 140.891 C 413.874 141.852 415.154 142.978 416.295 144.227 C 417.583 145.629 418.74 147.152 419.732 148.777 C 420.763 150.44 421.647 152.2 422.39 154.006 C 423.319 156.253 424.088 158.552 424.714 160.89 L 424.714 160.89 Z  M 618.377 108.998 L 629.684 151.196 L 604.116 158.047 L 601.774 149.307 L 595.321 125.225 C 594.568 122.413 593.772 119.622 592.922 116.846 C 592.624 115.841 592.27 114.841 591.885 113.87 C 591.714 113.445 591.536 113.032 591.34 112.624 C 591.202 112.325 591.053 112.019 590.891 111.736 C 590.694 111.396 590.491 111.066 590.254 110.755 C 590.132 110.586 589.994 110.431 589.841 110.29 C 589.411 109.868 588.922 109.509 588.393 109.219 C 587.864 108.929 587.296 108.707 586.711 108.566 C 586.117 108.428 585.515 108.368 584.904 108.378 C 584.171 108.402 583.442 108.511 582.735 108.7 C 581.812 108.947 580.916 109.293 580.064 109.733 C 579.355 110.095 578.7 110.549 578.11 111.072 C 577.527 111.583 577.011 112.163 576.579 112.807 C 576.083 113.535 575.668 114.318 575.343 115.144 C 575.017 115.971 574.775 116.823 574.614 117.691 C 574.423 118.731 574.321 119.785 574.305 120.836 C 574.293 122.01 574.374 123.169 574.539 124.325 C 574.744 125.805 575.043 127.28 575.432 128.731 L 584.682 163.254 L 559.231 170.074 L 540.447 99.971 L 565.898 93.151 L 567.568 99.384 C 567.932 98.807 568.316 98.233 568.714 97.676 C 569.974 95.86 571.448 94.198 573.094 92.71 C 573.914 91.973 574.775 91.281 575.671 90.648 C 576.584 90.009 577.53 89.42 578.504 88.9 C 579.518 88.35 580.56 87.869 581.637 87.446 C 582.768 87.009 583.922 86.623 585.095 86.308 C 587.199 85.744 589.357 85.377 591.538 85.206 C 593.361 85.063 595.202 85.126 597.01 85.39 C 598.661 85.639 600.262 86.064 601.809 86.677 C 603.335 87.286 604.789 88.057 606.137 89.002 C 607.527 89.963 608.816 91.086 609.957 92.335 C 611.245 93.737 612.393 95.263 613.394 96.886 C 614.416 98.551 615.309 100.308 616.052 102.115 C 616.972 104.364 617.75 106.661 618.377 108.998 L 618.377 108.998 Z  M 643.724 101.861 C 643.572 100.577 643.512 99.278 643.548 97.982 C 643.583 96.859 643.718 95.748 643.951 94.649 C 644.155 93.654 644.453 92.691 644.836 91.753 C 645.201 90.859 645.649 89.99 646.182 89.185 C 646.717 88.35 647.336 87.58 648.021 86.878 C 648.711 86.156 649.478 85.508 650.294 84.935 C 651.174 84.315 652.107 83.787 653.092 83.34 C 654.197 82.843 655.337 82.441 656.51 82.127 C 657.594 81.837 658.704 81.645 659.831 81.554 C 660.846 81.474 661.87 81.497 662.884 81.628 C 663.851 81.763 664.795 81.99 665.718 82.318 C 666.653 82.653 667.555 83.084 668.405 83.605 C 669.243 84.119 670.025 84.706 670.751 85.376 C 671.469 86.047 672.126 86.783 672.707 87.587 C 673.322 88.449 673.854 89.362 674.296 90.329 C 674.797 91.413 675.203 92.533 675.513 93.689 C 675.671 94.28 675.583 94.918 675.275 95.451 C 674.967 95.985 674.465 96.369 673.874 96.527 L 646.622 103.829 C 645.977 104.002 645.274 103.884 644.721 103.504 C 644.17 103.133 643.798 102.532 643.724 101.861 L 643.724 101.861 Z  M 694.458 96.08 C 693.776 93.536 692.877 91.042 691.767 88.652 C 690.847 86.652 689.727 84.764 688.417 82.994 C 687.227 81.383 685.88 79.901 684.389 78.563 C 682.912 77.241 681.302 76.07 679.576 75.073 C 677.859 74.074 676.037 73.257 674.142 72.632 C 672.256 72.005 670.296 71.57 668.316 71.343 C 666.148 71.098 663.962 71.069 661.794 71.257 C 659.19 71.494 656.613 71.944 654.088 72.621 C 651.231 73.386 648.445 74.382 645.756 75.592 C 643.579 76.569 641.508 77.758 639.563 79.133 C 637.863 80.347 636.274 81.723 634.838 83.24 C 633.476 84.68 632.277 86.259 631.242 87.947 C 630.193 89.658 629.327 91.474 628.664 93.37 C 628.003 95.275 627.535 97.253 627.285 99.259 C 627.005 101.474 626.964 103.721 627.157 105.945 C 627.396 108.664 627.866 111.351 628.574 113.992 C 629.294 116.679 630.249 119.312 631.443 121.833 C 632.402 123.871 633.575 125.812 634.945 127.595 C 636.182 129.202 637.583 130.67 639.123 131.975 C 640.647 133.256 642.316 134.364 644.082 135.292 C 645.833 136.205 647.678 136.93 649.579 137.467 C 651.653 138.044 653.778 138.415 655.926 138.588 C 658.387 138.783 660.872 138.741 663.332 138.466 C 666.437 138.123 669.508 137.55 672.526 136.741 C 674.926 136.098 677.295 135.339 679.624 134.465 C 681.997 133.579 684.331 132.58 686.606 131.471 C 688.899 130.358 691.13 129.155 693.312 127.841 C 695.149 126.744 696.949 125.58 698.714 124.359 L 695.781 113.415 C 694.52 114.511 693.238 115.565 691.924 116.57 C 689.888 118.143 687.753 119.598 685.542 120.91 C 683.333 122.231 681.037 123.403 678.667 124.412 C 676.473 125.356 674.226 126.14 671.924 126.757 C 670.348 127.179 668.752 127.492 667.136 127.694 C 665.798 127.861 664.448 127.906 663.097 127.845 C 661.94 127.791 660.784 127.63 659.66 127.375 C 658.617 127.136 657.594 126.796 656.616 126.367 C 655.603 125.918 654.647 125.359 653.752 124.706 C 652.834 124.04 651.987 123.278 651.224 122.436 C 650.387 121.499 649.635 120.482 648.998 119.395 C 648.255 118.125 647.612 116.8 647.092 115.433 C 646.859 114.814 646.897 114.132 647.19 113.544 C 647.495 112.963 648.023 112.534 648.659 112.364 L 695.461 99.823 L 694.458 96.08 L 694.458 96.08 Z  M 698.935 94.88 C 698.184 92.077 697.191 89.339 695.975 86.699 C 694.925 84.427 693.634 82.258 692.151 80.236 C 690.771 78.38 689.206 76.658 687.486 75.113 C 685.769 73.577 683.898 72.216 681.899 71.062 C 679.91 69.906 677.793 68.957 675.602 68.229 C 673.41 67.501 671.146 67.004 668.848 66.737 C 666.371 66.45 663.868 66.42 661.384 66.644 C 658.514 66.895 655.673 67.397 652.888 68.143 C 649.798 68.971 646.776 70.05 643.854 71.36 C 641.405 72.468 639.067 73.805 636.88 75.35 C 634.928 76.737 633.115 78.317 631.471 80.063 C 629.894 81.734 628.492 83.559 627.29 85.522 C 626.069 87.519 625.061 89.632 624.288 91.836 C 623.521 94.057 622.974 96.354 622.685 98.677 C 622.368 101.219 622.319 103.795 622.542 106.346 C 622.795 109.331 623.319 112.291 624.096 115.192 C 624.888 118.148 625.94 121.033 627.239 123.805 C 628.347 126.147 629.691 128.369 631.268 130.423 C 632.701 132.295 634.338 133.997 636.138 135.52 C 637.921 137.02 639.873 138.32 641.938 139.399 C 643.98 140.464 646.126 141.31 648.336 141.927 C 650.699 142.58 653.12 143.016 655.561 143.207 C 658.315 143.419 661.087 143.377 663.839 143.081 C 667.175 142.705 670.484 142.088 673.726 141.219 C 676.269 140.537 678.779 139.731 681.249 138.81 C 683.761 137.868 686.223 136.814 688.635 135.64 C 691.046 134.466 693.402 133.192 695.693 131.82 C 698.1 130.378 700.442 128.839 702.72 127.201 C 703.5 126.637 703.859 125.648 703.609 124.717 L 699.275 108.543 C 699.064 107.755 698.449 107.143 697.658 106.913 C 696.878 106.69 696.025 106.909 695.436 107.47 C 693.415 109.384 691.3 111.199 689.089 112.905 C 687.204 114.36 685.223 115.707 683.17 116.929 C 681.135 118.146 679.014 119.223 676.837 120.161 C 674.848 121.011 672.811 121.72 670.724 122.279 C 669.354 122.646 667.957 122.915 666.555 123.089 C 665.487 123.222 664.403 123.263 663.325 123.216 C 662.429 123.168 661.552 123.047 660.683 122.848 C 659.929 122.686 659.201 122.439 658.494 122.13 C 657.785 121.811 657.115 121.424 656.484 120.969 C 655.826 120.483 655.219 119.936 654.671 119.324 C 654.032 118.622 653.472 117.86 652.995 117.047 C 652.819 116.749 652.65 116.439 652.492 116.136 L 701.138 103.101 L 698.935 94.88 L 698.935 94.88 Z " fill-rule="evenodd" fill="rgb(253,32,32)"/><path d=" M 577.445 36.216 L 525.526 88.771 L 531.373 110.008 L 511.546 100.647 L 450.08 143.428 L 502.508 90.446 L 496.153 69.636 L 516.488 78.57 L 577.445 36.216 Z " fill="rgb(253,32,32)"/><path d=" M 300.183 69.271 C 245.833 95.06 213.293 127.643 217.28 158.916 L 217.28 158.916 C 219.932 179.714 238.368 197.018 267.827 209.598 C 267.303 208.339 266.828 207.044 266.388 205.725 C 265.723 205.427 265.061 205.126 264.4 204.82 C 260.8 203.15 257.26 201.34 253.81 199.37 C 250.62 197.56 247.53 195.6 244.54 193.48 C 241.8 191.53 239.17 189.43 236.68 187.17 C 234.39 185.1 232.25 182.87 230.28 180.5 C 228.46 178.3 226.82 175.96 225.39 173.49 C 224.05 171.16 222.93 168.71 222.04 166.17 C 221.19 163.7 220.59 161.14 220.26 158.54 L 220.26 158.54 C 220.05 156.94 219.95 155.34 219.95 153.73 C 219.96 150.53 220.35 147.34 221.1 144.23 C 221.91 140.91 223.06 137.68 224.53 134.6 C 226.14 131.21 228.03 127.96 230.19 124.89 C 232.58 121.48 235.2 118.23 238.02 115.18 C 241.15 111.8 244.46 108.59 247.94 105.57 C 251.75 102.25 255.72 99.11 259.82 96.15 C 264.28 92.92 268.87 89.87 273.56 86.99 C 278.63 83.89 283.79 80.95 289.05 78.18 C 291.581 76.842 294.129 75.539 296.703 74.289 C 297.834 72.61 298.997 70.938 300.183 69.271 Z  M 491.607 21.788 C 620.125 11.351 724.874 41.492 731.487 93.351 C 738.609 149.21 629.188 209.25 487.289 227.344 C 452.066 231.835 418.131 233.322 386.928 232.145 C 388.605 231.248 390.281 230.305 391.954 229.326 C 397.121 229.474 402.291 229.544 407.46 229.54 C 420.43 229.53 433.39 229.11 446.33 228.27 C 459.89 227.39 473.43 226.09 486.91 224.37 C 503.6 222.25 520.2 219.48 536.67 216.07 C 552.15 212.87 567.5 209.04 582.67 204.58 C 596.65 200.49 610.44 195.77 623.99 190.42 C 630.26 187.94 636.47 185.3 642.61 182.5 C 648.39 179.86 654.1 177.05 659.72 174.09 C 664.98 171.32 670.14 168.38 675.21 165.28 C 679.9 162.4 684.48 159.34 688.95 156.12 C 693.05 153.16 697.01 150.01 700.83 146.7 C 704.31 143.68 707.62 140.47 710.74 137.09 C 713.57 134.03 716.19 130.79 718.58 127.38 C 720.73 124.31 722.63 121.06 724.24 117.67 C 725.71 114.58 726.85 111.36 727.67 108.04 C 728.42 104.93 728.81 101.74 728.82 98.54 C 728.82 96.93 728.71 95.32 728.51 93.73 C 728.18 91.13 727.58 88.57 726.72 86.09 C 725.84 83.55 724.72 81.1 723.37 78.78 C 721.94 76.31 720.31 73.96 718.48 71.77 C 716.51 69.39 714.37 67.16 712.09 65.09 C 709.59 62.84 706.97 60.73 704.22 58.79 C 701.24 56.67 698.14 54.7 694.96 52.9 C 691.51 50.93 687.97 49.11 684.36 47.45 C 680.47 45.65 676.52 43.99 672.51 42.48 C 668.21 40.85 663.87 39.36 659.47 38.01 C 654.8 36.57 650.08 35.25 645.33 34.07 C 634.99 31.52 624.54 29.45 614.01 27.87 C 602.44 26.13 590.81 24.85 579.14 24.04 C 566.55 23.15 553.93 22.71 541.3 22.73 C 528.34 22.73 515.38 23.16 502.44 24 C 499.247 24.205 496.056 24.434 492.868 24.7 C 492.484 23.703 492.066 22.73 491.607 21.788 Z " fill-rule="evenodd" fill="rgb(255,0,0)"/></g></svg>