<?xml version="1.0" encoding="UTF-8" standalone="no"?><!-- Generator: Gravit.io --><svg xmlns="http://www.w3.org/2000/svg" xmlns:xlink="http://www.w3.org/1999/xlink" style="isolation:isolate" viewBox="0 0 992 250" width="992pt" height="250pt"><defs><clipPath id="_clipPath_Dwiw3HdLqcFWWgqR8Lj6durl233XdAnc"><rect width="992" height="250"/></clipPath></defs><g clip-path="url(#_clipPath_Dwiw3HdLqcFWWgqR8Lj6durl233XdAnc)"><path d=" M 506.99 204.877 L 506.99 50.092 L 614.707 50.092 L 614.707 80.261 L 546.904 80.261 L 546.904 109.083 L 610.664 109.083 L 610.664 139.252 L 546.904 139.252 L 546.904 204.877 L 506.99 204.877 Z  M 778.824 50.092 L 727.194 125.878 L 780.897 204.877 L 739.324 204.877 L 703.142 152.004 L 667.271 204.877 L 625.491 204.877 L 679.193 125.878 L 627.564 50.092 L 669.241 50.092 L 703.142 99.959 L 736.94 50.092 L 778.824 50.092 Z  M 265.705 67.302 L 239.372 67.302 L 239.372 125.463 L 265.705 125.463 L 265.705 125.463 Q 280.323 125.463 288.306 117.895 L 288.306 117.895 L 288.306 117.895 Q 296.288 110.327 296.288 96.331 L 296.288 96.331 L 296.288 96.331 Q 296.288 82.439 288.306 74.87 L 288.306 74.87 L 288.306 74.87 Q 280.323 67.302 265.705 67.302 L 265.705 67.302 Z  M 218.43 204.877 L 218.43 50.092 L 265.705 50.092 L 265.705 50.092 Q 291.727 50.092 305.049 61.859 L 305.049 61.859 L 305.049 61.859 Q 318.371 73.626 318.371 96.331 L 318.371 96.331 L 318.371 96.331 Q 318.371 119.243 305.049 130.958 L 305.049 130.958 L 305.049 130.958 Q 291.727 142.673 265.705 142.673 L 265.705 142.673 L 239.372 142.673 L 239.372 204.877 L 218.43 204.877 Z  M 451.282 62.015 L 451.282 62.015 L 451.282 84.097 L 451.282 84.097 Q 440.707 74.248 428.733 69.376 L 428.733 69.376 L 428.733 69.376 Q 416.759 64.503 403.281 64.503 L 403.281 64.503 L 403.281 64.503 Q 376.741 64.503 362.641 80.728 L 362.641 80.728 L 362.641 80.728 Q 348.541 96.953 348.541 127.64 L 348.541 127.64 L 348.541 127.64 Q 348.541 158.224 362.641 174.449 L 362.641 174.449 L 362.641 174.449 Q 376.741 190.674 403.281 190.674 L 403.281 190.674 L 403.281 190.674 Q 416.759 190.674 428.733 185.801 L 428.733 185.801 L 428.733 185.801 Q 440.707 180.928 451.282 171.079 L 451.282 171.079 L 451.282 192.955 L 451.282 192.955 Q 440.292 200.419 428.007 204.151 L 428.007 204.151 L 428.007 204.151 Q 415.722 207.884 402.037 207.884 L 402.037 207.884 L 402.037 207.884 Q 366.892 207.884 346.675 186.371 L 346.675 186.371 L 346.675 186.371 Q 326.459 164.859 326.459 127.64 L 326.459 127.64 L 326.459 127.64 Q 326.459 90.318 346.675 68.806 L 346.675 68.806 L 346.675 68.806 Q 366.892 47.293 402.037 47.293 L 402.037 47.293 L 402.037 47.293 Q 415.929 47.293 428.215 50.974 L 428.215 50.974 L 428.215 50.974 Q 440.5 54.654 451.282 62.015 Z " fill="rgb(119,119,119)"/><path d=" M 458.887 116.128 L 489.389 116.128 L 489.389 132.765 L 458.887 132.765 L 458.887 116.128 Z " fill="rgb(119,119,119)"/><path d=" M 499.663 199.7 L 499.663 44.916 L 607.38 44.916 L 607.38 75.085 L 539.578 75.085 L 539.578 103.906 L 603.337 103.906 L 603.337 134.075 L 539.578 134.075 L 539.578 199.7 L 499.663 199.7 Z  M 771.497 44.916 L 719.868 120.701 L 773.57 199.7 L 731.997 199.7 L 695.815 146.827 L 659.944 199.7 L 618.164 199.7 L 671.867 120.701 L 620.237 44.916 L 661.914 44.916 L 695.815 94.783 L 729.613 44.916 L 771.497 44.916 Z  M 258.378 62.125 L 232.045 62.125 L 232.045 120.286 L 258.378 120.286 L 258.378 120.286 Q 272.996 120.286 280.979 112.718 L 280.979 112.718 L 280.979 112.718 Q 288.962 105.15 288.962 91.154 L 288.962 91.154 L 288.962 91.154 Q 288.962 77.262 280.979 69.694 L 280.979 69.694 L 280.979 69.694 Q 272.996 62.125 258.378 62.125 L 258.378 62.125 Z  M 211.103 199.7 L 211.103 44.916 L 258.378 44.916 L 258.378 44.916 Q 284.4 44.916 297.722 56.683 L 297.722 56.683 L 297.722 56.683 Q 311.044 68.449 311.044 91.154 L 311.044 91.154 L 311.044 91.154 Q 311.044 114.066 297.722 125.781 L 297.722 125.781 L 297.722 125.781 Q 284.4 137.496 258.378 137.496 L 258.378 137.496 L 232.045 137.496 L 232.045 199.7 L 211.103 199.7 Z  M 443.955 56.838 L 443.955 56.838 L 443.955 78.92 L 443.955 78.92 Q 433.38 69.072 421.406 64.199 L 421.406 64.199 L 421.406 64.199 Q 409.432 59.326 395.954 59.326 L 395.954 59.326 L 395.954 59.326 Q 369.414 59.326 355.314 75.551 L 355.314 75.551 L 355.314 75.551 Q 341.215 91.776 341.215 122.463 L 341.215 122.463 L 341.215 122.463 Q 341.215 153.047 355.314 169.272 L 355.314 169.272 L 355.314 169.272 Q 369.414 185.497 395.954 185.497 L 395.954 185.497 L 395.954 185.497 Q 409.432 185.497 421.406 180.624 L 421.406 180.624 L 421.406 180.624 Q 433.38 175.752 443.955 165.903 L 443.955 165.903 L 443.955 187.778 L 443.955 187.778 Q 432.966 195.242 420.68 198.974 L 420.68 198.974 L 420.68 198.974 Q 408.395 202.707 394.71 202.707 L 394.71 202.707 L 394.71 202.707 Q 359.565 202.707 339.349 181.194 L 339.349 181.194 L 339.349 181.194 Q 319.132 159.682 319.132 122.463 L 319.132 122.463 L 319.132 122.463 Q 319.132 85.141 339.349 63.629 L 339.349 63.629 L 339.349 63.629 Q 359.565 42.116 394.71 42.116 L 394.71 42.116 L 394.71 42.116 Q 408.602 42.116 420.888 45.797 L 420.888 45.797 L 420.888 45.797 Q 433.173 49.477 443.955 56.838 Z " fill="rgb(234,234,234)"/><path d=" M 451.56 110.951 L 482.062 110.951 L 482.062 127.588 L 451.56 127.588 L 451.56 110.951 Z " fill="rgb(234,234,234)"/></g></svg>