<?xml version="1.0" encoding="UTF-8" standalone="no"?><!-- Generator: Gravit.io --><svg xmlns="http://www.w3.org/2000/svg" xmlns:xlink="http://www.w3.org/1999/xlink" style="isolation:isolate" viewBox="0 0 992 250" width="992pt" height="250pt"><defs><clipPath id="_clipPath_R4gambvcu4YTb6dCUDfdxg9l8sdDk9Ym"><rect width="992" height="250"/></clipPath></defs><g clip-path="url(#_clipPath_R4gambvcu4YTb6dCUDfdxg9l8sdDk9Ym)"><path d=" M 169.667 137.167 C 169.667 114.63 187.963 96.333 210.5 96.333 C 233.037 96.333 251.333 114.63 251.333 137.167 C 251.333 159.703 233.037 178 210.5 178 C 187.963 178 169.667 159.703 169.667 137.167 Z " fill="rgb(0,0,0)"/><path d=" M 100.667 112.333 C 100.667 92.28 119.262 76 142.167 76 C 165.071 76 183.667 92.28 183.667 112.333 C 183.667 132.386 165.071 148.667 142.167 148.667 C 119.262 148.667 100.667 132.386 100.667 112.333 Z " fill="rgb(0,0,0)"/><path d=" M 271.25 110.25 Q 275 97.5 287.5 97.5 Q 300 97.5 305.5 97.5 Q 316 96.75 316 112.5 Q 316 128.25 316 163.75 Q 318.75 177 306.25 177 C 293.75 177 285.75 178.5 285.75 177 C 285.75 175.5 275.25 175.75 275.25 162.25 Q 275.25 148.75 271.25 110.25 Z " fill="rgb(0,0,0)"/><path d=" M 322.25 106.75 Q 316.5 100 321.5 92 Q 326.5 84 331.5 76.75 Q 334.5 71.75 339 71.75 Q 343.5 71.75 360.5 71.75 Q 374.5 78.75 366 87.5 Q 357.5 96.25 345.25 110.5 L 322.25 106.75 Z " fill="rgb(0,0,0)"/><path d=" M 300.073 137.5 C 300.073 114.963 318.37 96.667 340.907 96.667 C 363.443 96.667 381.74 114.963 381.74 137.5 C 381.74 160.037 363.443 178.333 340.907 178.333 C 318.37 178.333 300.073 160.037 300.073 137.5 Z " fill="rgb(0,0,0)"/><path d=" M 461.299 137.5 C 461.299 114.963 479.595 96.667 502.132 96.667 C 524.668 96.667 542.965 114.963 542.965 137.5 C 542.965 160.037 524.668 178.333 502.132 178.333 C 479.595 178.333 461.299 160.037 461.299 137.5 Z " fill="rgb(0,0,0)"/><path d=" M 725.842 91.755 C 725.842 81.225 734.391 72.676 744.921 72.676 C 755.451 72.676 764 81.225 764 91.755 C 764 102.284 755.451 110.833 744.921 110.833 C 734.391 110.833 725.842 102.284 725.842 91.755 Z " fill="rgb(0,0,0)"/><path d=" M 823.067 91.755 C 823.067 81.225 831.616 72.676 842.146 72.676 C 852.675 72.676 861.224 81.225 861.224 91.755 C 861.224 102.284 852.675 110.833 842.146 110.833 C 831.616 110.833 823.067 102.284 823.067 91.755 Z " fill="rgb(0,0,0)"/><path d=" M 634.468 97.25 L 653.282 97.25 C 658.369 97.25 662.5 101.381 662.5 106.468 L 662.5 167.782 C 662.5 172.869 658.369 177 653.282 177 L 634.468 177 C 629.381 177 625.25 172.869 625.25 167.782 L 625.25 106.468 C 625.25 101.381 629.381 97.25 634.468 97.25 Z " fill="rgb(0,0,0)"/><path d=" M 540.052 97.25 L 558.865 97.25 C 563.953 97.25 568.083 101.381 568.083 106.468 L 568.083 167.782 C 568.083 172.869 563.953 177 558.865 177 L 540.052 177 C 534.964 177 530.833 172.869 530.833 167.782 L 530.833 106.468 C 530.833 101.381 534.964 97.25 540.052 97.25 Z " fill="rgb(0,0,0)"/><path d=" M 375.385 97.25 L 394.198 97.25 C 399.286 97.25 403.417 101.381 403.417 106.468 L 403.417 167.782 C 403.417 172.869 399.286 177 394.198 177 L 375.385 177 C 370.297 177 366.167 172.869 366.167 167.782 L 366.167 106.468 C 366.167 101.381 370.297 97.25 375.385 97.25 Z " fill="rgb(0,0,0)"/><path d=" M 699.947 97.238 L 703.686 96.914 C 717.864 95.685 729.813 106.233 730.353 120.455 L 732.15 167.788 C 732.343 172.872 728.369 177 723.282 177 L 704.468 177 C 699.381 177 694.115 173.028 692.718 168.136 L 680.521 125.449 C 676.439 111.162 685.144 98.521 699.947 97.238 Z " fill="rgb(0,0,0)"/><path d=" M 665.447 97.238 L 669.186 96.914 C 683.364 95.685 695.313 106.233 695.853 120.455 L 697.65 167.788 C 697.843 172.872 693.869 177 688.782 177 L 669.968 177 C 664.881 177 659.615 173.028 658.218 168.136 L 646.021 125.449 C 641.939 111.162 650.644 98.521 665.447 97.238 Z " fill="rgb(0,0,0)"/><path d=" M 797.822 97.238 L 801.561 96.914 C 815.739 95.685 827.688 106.233 828.228 120.455 L 830.025 167.788 C 830.218 172.872 826.244 177 821.157 177 L 802.343 177 C 797.256 177 791.99 173.028 790.593 168.136 L 778.396 125.449 C 774.314 111.162 783.019 98.521 797.822 97.238 Z " fill="rgb(0,0,0)"/><path d=" M 735.718 97.25 L 754.532 97.25 C 759.619 97.25 763.75 101.381 763.75 106.468 L 763.75 167.782 C 763.75 172.869 759.619 177 754.532 177 L 735.718 177 C 730.631 177 726.5 172.869 726.5 167.782 L 726.5 106.468 C 726.5 101.381 730.631 97.25 735.718 97.25 Z " fill="rgb(0,0,0)"/><path d=" M 765.718 97.25 L 784.532 97.25 C 789.619 97.25 793.75 101.381 793.75 106.468 L 793.75 167.782 C 793.75 172.869 789.619 177 784.532 177 L 765.718 177 C 760.631 177 756.5 172.869 756.5 167.782 L 756.5 106.468 C 756.5 101.381 760.631 97.25 765.718 97.25 Z " fill="rgb(0,0,0)"/><path d=" M 833.052 97.25 L 851.865 97.25 C 856.953 97.25 861.083 101.381 861.083 106.468 L 861.083 167.782 C 861.083 172.869 856.953 177 851.865 177 L 833.052 177 C 827.964 177 823.833 172.869 823.833 167.782 L 823.833 106.468 C 823.833 101.381 827.964 97.25 833.052 97.25 Z " fill="rgb(0,0,0)"/><path d=" M 111.156 76 L 140.203 76 L 140.203 76 C 139.401 76 138.75 80.7 138.75 86.489 L 138.75 166.511 C 138.75 172.3 134.05 177 128.261 177 L 111.156 177 C 105.367 177 100.667 172.3 100.667 166.511 L 100.667 86.489 C 100.667 80.7 105.367 76 111.156 76 Z " fill="rgb(0,0,0)"/><path d=" M 250.028 72 L 266.722 72 C 272.624 72 277.417 76.792 277.417 82.695 L 277.417 166.305 C 277.417 172.208 272.624 177 266.722 177 L 250.028 177 C 244.126 177 239.333 172.208 239.333 166.305 L 239.333 82.695 C 239.333 76.792 244.126 72 250.028 72 Z " fill="rgb(0,0,0)"/><path d=" M 571.947 97.238 L 575.686 96.914 C 589.864 95.685 601.813 106.233 602.353 120.455 L 604.15 167.788 C 604.343 172.872 600.369 177 595.282 177 L 576.468 177 C 571.381 177 566.115 173.028 564.718 168.136 L 552.521 125.449 C 548.439 111.162 557.144 98.521 571.947 97.238 Z " fill="rgb(0,0,0)"/><path d=" M 440.447 97.238 L 444.186 96.914 C 458.364 95.685 470.313 106.233 470.853 120.455 L 472.65 167.788 C 472.843 172.872 468.869 177 463.782 177 L 444.968 177 C 439.881 177 434.615 173.028 433.218 168.136 L 421.021 125.449 C 416.939 111.162 425.644 98.521 440.447 97.238 Z " fill="rgb(0,0,0)"/><path d=" M 405.947 97.238 L 409.686 96.914 C 423.864 95.685 435.813 106.233 436.353 120.455 L 438.15 167.788 C 438.343 172.872 434.369 177 429.282 177 L 410.468 177 C 405.381 177 400.115 173.028 398.718 168.136 L 386.521 125.449 C 382.439 111.162 391.144 98.521 405.947 97.238 Z " fill="rgb(0,0,0)"/><path d=" M 634.614 106.677 L 652.513 106.677 L 653.136 113.87 L 653.136 113.87 Q 659.649 105.544 670.638 105.544 L 670.638 105.544 L 670.638 105.544 Q 682.249 105.544 686.327 114.776 L 686.327 114.776 L 686.327 114.776 Q 692.558 105.544 704.339 105.544 L 704.339 105.544 L 704.339 105.544 Q 722.974 105.544 723.483 128.087 L 723.483 128.087 L 723.483 167.962 L 704.339 167.962 L 704.339 129.276 L 704.339 129.276 Q 704.339 124.575 702.753 122.423 L 702.753 122.423 L 702.753 122.423 Q 701.167 120.271 696.976 120.271 L 696.976 120.271 L 696.976 120.271 Q 691.312 120.271 688.536 125.312 L 688.536 125.312 L 688.593 126.104 L 688.593 167.962 L 669.448 167.962 L 669.448 129.39 L 669.448 129.39 Q 669.448 124.575 667.919 122.423 L 667.919 122.423 L 667.919 122.423 Q 666.39 120.271 662.085 120.271 L 662.085 120.271 L 662.085 120.271 Q 656.591 120.271 653.702 125.312 L 653.702 125.312 L 653.702 167.962 L 634.614 167.962 L 634.614 106.677 L 634.614 106.677 Z  M 754.522 106.677 L 754.522 167.962 L 735.378 167.962 L 735.378 106.677 L 754.522 106.677 L 754.522 106.677 Z  M 734.245 90.874 L 734.245 90.874 L 734.245 90.874 Q 734.245 86.796 737.19 84.19 L 737.19 84.19 L 737.19 84.19 Q 740.136 81.585 744.837 81.585 L 744.837 81.585 L 744.837 81.585 Q 749.538 81.585 752.483 84.19 L 752.483 84.19 L 752.483 84.19 Q 755.429 86.796 755.429 90.874 L 755.429 90.874 L 755.429 90.874 Q 755.429 94.952 752.483 97.558 L 752.483 97.558 L 752.483 97.558 Q 749.538 100.163 744.837 100.163 L 744.837 100.163 L 744.837 100.163 Q 740.136 100.163 737.19 97.558 L 737.19 97.558 L 737.19 97.558 Q 734.245 94.952 734.245 90.874 Z  M 765.907 106.677 L 783.806 106.677 L 784.429 113.87 L 784.429 113.87 Q 790.772 105.544 801.931 105.544 L 801.931 105.544 L 801.931 105.544 Q 811.503 105.544 816.232 111.265 L 816.232 111.265 L 816.232 111.265 Q 820.962 116.985 821.132 128.483 L 821.132 128.483 L 821.132 167.962 L 801.987 167.962 L 801.987 129.276 L 801.987 129.276 Q 801.987 124.632 800.118 122.451 L 800.118 122.451 L 800.118 122.451 Q 798.249 120.271 793.321 120.271 L 793.321 120.271 L 793.321 120.271 Q 787.714 120.271 784.995 124.688 L 784.995 124.688 L 784.995 167.962 L 765.907 167.962 L 765.907 106.677 L 765.907 106.677 Z  M 851.831 106.677 L 851.831 167.962 L 832.687 167.962 L 832.687 106.677 L 851.831 106.677 L 851.831 106.677 Z  M 831.554 90.874 L 831.554 90.874 L 831.554 90.874 Q 831.554 86.796 834.499 84.19 L 834.499 84.19 L 834.499 84.19 Q 837.444 81.585 842.146 81.585 L 842.146 81.585 L 842.146 81.585 Q 846.847 81.585 849.792 84.19 L 849.792 84.19 L 849.792 84.19 Q 852.737 86.796 852.737 90.874 L 852.737 90.874 L 852.737 90.874 Q 852.737 94.952 849.792 97.558 L 849.792 97.558 L 849.792 97.558 Q 846.847 100.163 842.146 100.163 L 842.146 100.163 L 842.146 100.163 Q 837.444 100.163 834.499 97.558 L 834.499 97.558 L 834.499 97.558 Q 831.554 94.952 831.554 90.874 Z " fill-rule="evenodd" fill="rgb(254,217,2)"/><path d=" M 142.067 139.981 L 129.38 139.981 L 129.38 167.962 L 109.499 167.962 L 109.499 85.493 L 142.407 85.493 L 142.407 85.493 C 148.147 85.493 153.939 86.485 159.145 88.977 L 159.145 88.977 L 159.145 88.977 L 159.145 88.977 C 163.744 91.178 167.716 94.541 170.416 98.889 L 170.416 98.889 L 170.416 98.889 L 170.416 98.889 C 173.133 103.263 174.409 108.344 174.409 113.474 L 174.409 113.474 L 174.409 113.474 L 174.409 113.474 C 174.409 120.956 171.565 127.916 165.771 132.76 L 165.771 132.76 L 165.771 132.76 L 165.771 132.76 C 159.196 138.257 150.437 139.981 142.067 139.981 L 142.067 139.981 L 142.067 139.981 L 142.067 139.981 Z  M 129.38 100.843 L 129.38 124.632 L 142.407 124.632 L 142.407 124.632 C 145.538 124.632 148.874 123.975 151.215 121.743 L 151.215 121.743 L 151.215 121.743 L 151.215 121.743 C 153.438 119.624 154.245 116.577 154.245 113.587 L 154.245 113.587 L 154.245 113.587 L 154.245 113.587 C 154.245 110.26 153.404 106.876 151.13 104.354 L 151.13 104.354 L 151.13 104.354 L 151.13 104.354 C 148.95 101.936 145.833 100.876 142.634 100.843 L 142.634 100.843 L 142.634 100.843 L 129.38 100.843 L 129.38 100.843 Z  M 181.036 139.981 L 180.979 136.753 L 180.979 136.753 C 180.979 131.128 182.028 125.472 184.548 120.412 L 184.548 120.412 L 184.548 120.412 L 184.548 120.412 C 186.833 115.823 190.349 111.961 194.8 109.396 L 194.8 109.396 L 194.8 109.396 L 194.8 109.396 C 199.554 106.656 205.042 105.544 210.489 105.544 L 210.489 105.544 L 210.489 105.544 L 210.489 105.544 C 218.588 105.544 226.558 108.022 232.183 114.068 L 232.183 114.068 L 232.183 114.068 L 232.183 114.068 C 238.017 120.341 240.112 128.884 240.112 137.263 L 240.112 137.263 L 240.112 137.263 L 240.112 137.942 L 240.112 137.942 C 240.112 146.203 237.952 154.556 232.154 160.684 L 232.154 160.684 L 232.154 160.684 L 232.154 160.684 C 226.53 166.628 218.638 169.095 210.603 169.095 L 210.603 169.095 L 210.603 169.095 L 210.603 169.095 C 202.846 169.095 195.196 166.797 189.589 161.25 L 189.589 161.25 L 189.589 161.25 L 189.589 161.25 C 183.893 155.616 181.402 147.854 181.036 139.981 L 181.036 139.981 L 181.036 139.981 L 181.036 139.981 Z  M 200.124 134.487 L 200.067 137.942 L 200.067 137.942 C 200.067 142.082 200.343 146.849 202.729 150.403 L 202.729 150.403 L 202.729 150.403 L 202.729 150.403 C 204.524 153.076 207.432 154.368 210.603 154.368 L 210.603 154.368 L 210.603 154.368 L 210.603 154.368 C 219.061 154.368 220.926 145.513 221.024 138.679 L 221.024 138.679 L 221.024 138.679 L 221.024 136.753 L 221.024 136.753 C 221.024 129.714 219.317 120.271 210.489 120.271 L 210.489 120.271 L 210.489 120.271 L 210.489 120.271 C 202.715 120.271 200.484 128.027 200.124 134.487 L 200.124 134.487 L 200.124 134.487 L 200.124 134.487 Z  M 286.501 167.962 L 273.134 145.136 L 267.753 150.517 L 267.753 167.962 L 248.665 167.962 L 248.665 80.905 L 267.753 80.905 L 267.753 127.124 L 269.679 124.575 L 284.065 106.677 L 306.948 106.677 L 285.481 131.882 L 308.364 167.962 L 286.501 167.962 L 286.501 167.962 Z  M 341.612 169.095 L 341.612 169.095 L 341.612 169.095 C 333.207 169.095 324.93 166.608 318.786 160.684 L 318.786 160.684 L 318.786 160.684 L 318.786 160.684 C 312.799 154.911 310.063 147.011 310.063 138.792 L 310.063 138.792 L 310.063 138.792 L 310.063 137.206 L 310.063 137.206 C 310.063 131.512 311.051 125.764 313.547 120.61 L 313.547 120.61 L 313.547 120.61 L 313.547 120.61 C 315.786 115.987 319.28 112.092 323.714 109.48 L 323.714 109.48 L 323.714 109.48 L 323.714 109.48 C 328.5 106.662 334.064 105.544 339.573 105.544 L 339.573 105.544 L 339.573 105.544 L 339.573 105.544 C 347.187 105.544 354.67 107.884 359.964 113.559 L 359.964 113.559 L 359.964 113.559 L 359.964 113.559 C 365.576 119.574 367.44 127.881 367.44 135.903 L 367.44 135.903 L 367.44 135.903 L 367.44 143.323 L 329.491 143.323 L 329.491 143.323 C 330.104 146.422 331.534 149.35 333.966 151.423 L 333.966 151.423 L 333.966 151.423 L 333.966 151.423 C 336.454 153.544 339.699 154.368 342.915 154.368 L 342.915 154.368 L 342.915 154.368 L 342.915 154.368 C 348.395 154.368 353.589 152.362 357.075 148.024 L 357.075 148.024 L 357.075 148.024 L 365.798 158.333 L 365.798 158.333 C 363.248 161.854 359.627 164.421 355.688 166.178 L 355.688 166.178 L 355.688 166.178 L 355.688 166.178 C 351.265 168.15 346.447 169.095 341.612 169.095 L 341.612 169.095 Z  M 339.46 120.271 L 339.46 120.271 L 339.46 120.271 C 333.08 120.271 330.294 125.751 329.491 131.372 L 329.491 131.372 L 329.491 131.372 L 348.749 131.372 L 348.749 129.899 L 348.749 129.899 C 348.812 127.348 348.254 124.682 346.427 122.791 L 346.427 122.791 L 346.427 122.791 L 346.427 122.791 C 344.613 120.914 341.995 120.271 339.46 120.271 L 339.46 120.271 Z  M 328.075 98.69 L 339.233 80.905 L 359.397 80.905 L 343.651 98.69 L 328.075 98.69 L 328.075 98.69 Z  M 375.257 106.677 L 393.155 106.677 L 393.778 113.87 L 393.778 113.87 C 398.068 108.387 404.357 105.544 411.28 105.544 L 411.28 105.544 L 411.28 105.544 L 411.28 105.544 C 418.051 105.544 424.138 108.367 426.97 114.776 L 426.97 114.776 L 426.97 114.776 L 426.97 114.776 C 431.104 108.65 437.66 105.544 444.981 105.544 L 444.981 105.544 L 444.981 105.544 L 444.981 105.544 C 458.34 105.544 463.851 115.911 464.126 128.087 L 464.126 128.087 L 464.126 128.087 L 464.126 167.962 L 444.981 167.962 L 444.981 129.276 L 444.981 129.276 C 444.981 126.987 444.806 124.337 443.396 122.423 L 443.396 122.423 L 443.396 122.423 L 443.396 122.423 C 442.086 120.646 439.675 120.271 437.618 120.271 L 437.618 120.271 L 437.618 120.271 L 437.618 120.271 C 433.969 120.271 430.933 122.125 429.179 125.312 L 429.179 125.312 L 429.179 125.312 L 429.235 126.104 L 429.235 167.962 L 410.091 167.962 L 410.091 129.39 L 410.091 129.39 C 410.091 127.078 409.952 124.38 408.562 122.423 L 408.562 122.423 L 408.562 122.423 L 408.562 122.423 C 407.272 120.608 404.784 120.271 402.728 120.271 L 402.728 120.271 L 402.728 120.271 L 402.728 120.271 C 399.099 120.271 396.128 122.199 394.345 125.312 L 394.345 125.312 L 394.345 125.312 L 394.345 167.962 L 375.257 167.962 L 375.257 106.677 L 375.257 106.677 Z  M 472.679 139.981 L 472.622 136.753 L 472.622 136.753 C 472.622 131.128 473.671 125.472 476.19 120.412 L 476.19 120.412 L 476.19 120.412 L 476.19 120.412 C 478.476 115.823 481.991 111.961 486.442 109.396 L 486.442 109.396 L 486.442 109.396 L 486.442 109.396 C 491.196 106.656 496.684 105.544 502.132 105.544 L 502.132 105.544 L 502.132 105.544 L 502.132 105.544 C 510.23 105.544 518.201 108.022 523.825 114.068 L 523.825 114.068 L 523.825 114.068 L 523.825 114.068 C 529.66 120.341 531.755 128.884 531.755 137.263 L 531.755 137.263 L 531.755 137.263 L 531.755 137.942 L 531.755 137.942 C 531.755 146.203 529.594 154.556 523.797 160.684 L 523.797 160.684 L 523.797 160.684 L 523.797 160.684 C 518.172 166.628 510.281 169.095 502.245 169.095 L 502.245 169.095 L 502.245 169.095 L 502.245 169.095 C 494.488 169.095 486.838 166.797 481.231 161.25 L 481.231 161.25 L 481.231 161.25 L 481.231 161.25 C 475.536 155.616 473.044 147.854 472.679 139.981 L 472.679 139.981 L 472.679 139.981 L 472.679 139.981 Z  M 491.767 134.487 L 491.71 137.942 L 491.71 137.942 C 491.71 142.082 491.985 146.849 494.372 150.403 L 494.372 150.403 L 494.372 150.403 L 494.372 150.403 C 496.167 153.076 499.074 154.368 502.245 154.368 L 502.245 154.368 L 502.245 154.368 L 502.245 154.368 C 510.704 154.368 512.568 145.513 512.667 138.679 L 512.667 138.679 L 512.667 138.679 L 512.667 136.753 L 512.667 136.753 C 512.667 129.714 510.96 120.271 502.132 120.271 L 502.132 120.271 L 502.132 120.271 L 502.132 120.271 C 494.358 120.271 492.127 128.027 491.767 134.487 L 491.767 134.487 L 491.767 134.487 L 491.767 134.487 Z  M 539.798 106.677 L 557.696 106.677 L 558.319 113.87 L 558.319 113.87 C 562.555 108.31 568.898 105.544 575.821 105.544 L 575.821 105.544 L 575.821 105.544 L 575.821 105.544 C 581.141 105.544 586.612 107.017 590.123 111.265 L 590.123 111.265 L 590.123 111.265 L 590.123 111.265 C 594.028 115.989 594.935 122.561 595.022 128.483 L 595.022 128.483 L 595.022 128.483 L 595.022 167.962 L 575.878 167.962 L 575.878 129.276 L 575.878 129.276 C 575.878 126.949 575.587 124.293 574.009 122.451 L 574.009 122.451 L 574.009 122.451 L 574.009 122.451 C 572.387 120.559 569.536 120.271 567.212 120.271 L 567.212 120.271 L 567.212 120.271 L 567.212 120.271 C 563.789 120.271 560.706 121.73 558.886 124.688 L 558.886 124.688 L 558.886 124.688 L 558.886 167.962 L 539.798 167.962 L 539.798 106.677 L 539.798 106.677 Z " fill-rule="evenodd" fill="rgb(255,255,255)"/></g></svg>