<?xml version="1.0" encoding="UTF-8" standalone="no"?><!-- Generator: Gravit.io --><svg xmlns="http://www.w3.org/2000/svg" xmlns:xlink="http://www.w3.org/1999/xlink" style="isolation:isolate" viewBox="0 0 992 250" width="992pt" height="250pt"><defs><clipPath id="_clipPath_mt57z1ioW2PDaOsz4sr1tip5myemXEjv"><rect width="992" height="250"/></clipPath></defs><g clip-path="url(#_clipPath_mt57z1ioW2PDaOsz4sr1tip5myemXEjv)"><path d=" M 154.27 14.726 C 143.807 48.946 138.177 85.267 138.177 122.893 L 138.177 122.893 C 138.177 164.927 145.204 205.334 158.145 243 L 172.152 243 C 158.713 205.463 151.392 165.026 151.392 122.893 L 151.392 122.893 C 151.392 85.191 157.254 48.848 168.116 14.726 L 154.27 14.726 Z  M 861.869 14.726 C 872.332 48.946 877.962 85.267 877.962 122.893 C 877.962 164.927 870.935 205.334 857.994 243 L 843.987 243 C 857.426 205.463 864.747 165.026 864.747 122.893 C 864.747 85.191 858.885 48.848 848.023 14.726 L 861.869 14.726 Z " fill-rule="evenodd" fill="rgb(234,234,234)"/><path d=" M 570.847 183.383 L 570.847 183.383 L 570.847 183.383 Q 570.847 189.491 566.679 192.779 L 566.679 192.779 L 566.679 192.779 Q 562.51 196.067 554.751 196.067 L 554.751 196.067 L 550.019 196.067 L 550.019 211.887 L 545.342 211.887 L 545.342 171.662 L 555.769 171.662 L 555.769 171.662 Q 570.847 171.662 570.847 183.383 Z  M 550.019 175.707 L 550.019 192.05 L 554.229 192.05 L 554.229 192.05 Q 560.447 192.05 563.226 190.041 L 563.226 190.041 L 563.226 190.041 Q 566.004 188.033 566.004 183.603 L 566.004 183.603 L 566.004 183.603 Q 566.004 179.614 563.391 177.66 L 563.391 177.66 L 563.391 177.66 Q 560.777 175.707 555.247 175.707 L 555.247 175.707 L 550.019 175.707 Z  M 604.606 196.782 L 604.606 196.782 L 604.606 196.782 Q 604.606 204.156 600.892 208.297 L 600.892 208.297 L 600.892 208.297 Q 597.177 212.437 590.629 212.437 L 590.629 212.437 L 590.629 212.437 Q 586.585 212.437 583.448 210.539 L 583.448 210.539 L 583.448 210.539 Q 580.312 208.641 578.606 205.091 L 578.606 205.091 L 578.606 205.091 Q 576.9 201.542 576.9 196.782 L 576.9 196.782 L 576.9 196.782 Q 576.9 189.409 580.587 185.295 L 580.587 185.295 L 580.587 185.295 Q 584.273 181.182 590.822 181.182 L 590.822 181.182 L 590.822 181.182 Q 597.15 181.182 600.878 185.392 L 600.878 185.392 L 600.878 185.392 Q 604.606 189.601 604.606 196.782 Z  M 581.632 196.782 L 581.632 196.782 L 581.632 196.782 Q 581.632 202.56 583.943 205.587 L 583.943 205.587 L 583.943 205.587 Q 586.254 208.613 590.739 208.613 L 590.739 208.613 L 590.739 208.613 Q 595.224 208.613 597.549 205.6 L 597.549 205.6 L 597.549 205.6 Q 599.874 202.588 599.874 196.782 L 599.874 196.782 L 599.874 196.782 Q 599.874 191.032 597.549 188.047 L 597.549 188.047 L 597.549 188.047 Q 595.224 185.061 590.684 185.061 L 590.684 185.061 L 590.684 185.061 Q 586.199 185.061 583.916 188.005 L 583.916 188.005 L 583.916 188.005 Q 581.632 190.949 581.632 196.782 Z  M 626.369 181.182 L 626.369 181.182 L 626.369 181.182 Q 628.378 181.182 629.973 181.512 L 629.973 181.512 L 629.341 185.749 L 629.341 185.749 Q 627.47 185.337 626.039 185.337 L 626.039 185.337 L 626.039 185.337 Q 622.38 185.337 619.78 188.308 L 619.78 188.308 L 619.78 188.308 Q 617.18 191.28 617.18 195.709 L 617.18 195.709 L 617.18 211.887 L 612.612 211.887 L 612.612 181.732 L 616.382 181.732 L 616.905 187.318 L 617.125 187.318 L 617.125 187.318 Q 618.803 184.374 621.169 182.778 L 621.169 182.778 L 621.169 182.778 Q 623.535 181.182 626.369 181.182 Z  M 645.353 208.668 L 645.353 208.668 L 645.353 208.668 Q 646.564 208.668 647.692 208.489 L 647.692 208.489 L 647.692 208.489 Q 648.82 208.31 649.481 208.118 L 649.481 208.118 L 649.481 211.612 L 649.481 211.612 Q 648.738 211.97 647.293 212.204 L 647.293 212.204 L 647.293 212.204 Q 645.849 212.437 644.693 212.437 L 644.693 212.437 L 644.693 212.437 Q 635.944 212.437 635.944 203.22 L 635.944 203.22 L 635.944 185.282 L 631.624 185.282 L 631.624 183.08 L 635.944 181.182 L 637.87 174.744 L 640.511 174.744 L 640.511 181.732 L 649.26 181.732 L 649.26 185.282 L 640.511 185.282 L 640.511 203.028 L 640.511 203.028 Q 640.511 205.752 641.804 207.21 L 641.804 207.21 L 641.804 207.21 Q 643.097 208.668 645.353 208.668 Z  M 677.434 211.887 L 674.05 211.887 L 673.142 207.595 L 672.922 207.595 L 672.922 207.595 Q 670.666 210.429 668.424 211.433 L 668.424 211.433 L 668.424 211.433 Q 666.181 212.437 662.825 212.437 L 662.825 212.437 L 662.825 212.437 Q 658.34 212.437 655.795 210.126 L 655.795 210.126 L 655.795 210.126 Q 653.25 207.815 653.25 203.551 L 653.25 203.551 L 653.25 203.551 Q 653.25 194.416 667.86 193.976 L 667.86 193.976 L 672.977 193.811 L 672.977 191.94 L 672.977 191.94 Q 672.977 188.391 671.45 186.699 L 671.45 186.699 L 671.45 186.699 Q 669.923 185.006 666.566 185.006 L 666.566 185.006 L 666.566 185.006 Q 662.797 185.006 658.037 187.318 L 658.037 187.318 L 656.634 183.823 L 656.634 183.823 Q 658.863 182.613 661.518 181.925 L 661.518 181.925 L 661.518 181.925 Q 664.173 181.237 666.842 181.237 L 666.842 181.237 L 666.842 181.237 Q 672.234 181.237 674.834 183.631 L 674.834 183.631 L 674.834 183.631 Q 677.434 186.024 677.434 191.307 L 677.434 191.307 L 677.434 211.887 Z  M 663.733 208.668 L 663.733 208.668 L 663.733 208.668 Q 667.997 208.668 670.432 206.329 L 670.432 206.329 L 670.432 206.329 Q 672.867 203.991 672.867 199.781 L 672.867 199.781 L 672.867 197.057 L 668.3 197.25 L 668.3 197.25 Q 662.852 197.443 660.445 198.942 L 660.445 198.942 L 660.445 198.942 Q 658.037 200.442 658.037 203.606 L 658.037 203.606 L 658.037 203.606 Q 658.037 206.082 659.537 207.375 L 659.537 207.375 L 659.537 207.375 Q 661.036 208.668 663.733 208.668 Z  M 700.876 181.237 L 700.876 181.237 L 700.876 181.237 Q 706.819 181.237 710.107 185.295 L 710.107 185.295 L 710.107 185.295 Q 713.394 189.354 713.394 196.782 L 713.394 196.782 L 713.394 196.782 Q 713.394 204.211 710.079 208.324 L 710.079 208.324 L 710.079 208.324 Q 706.764 212.437 700.876 212.437 L 700.876 212.437 L 700.876 212.437 Q 697.932 212.437 695.497 211.351 L 695.497 211.351 L 695.497 211.351 Q 693.062 210.264 691.411 208.008 L 691.411 208.008 L 691.081 208.008 L 690.118 211.887 L 686.844 211.887 L 686.844 169.076 L 691.411 169.076 L 691.411 179.476 L 691.411 179.476 Q 691.411 182.97 691.191 185.749 L 691.191 185.749 L 691.411 185.749 L 691.411 185.749 Q 694.603 181.237 700.876 181.237 Z  M 700.215 185.061 L 700.215 185.061 L 700.215 185.061 Q 695.538 185.061 693.475 187.744 L 693.475 187.744 L 693.475 187.744 Q 691.411 190.427 691.411 196.782 L 691.411 196.782 L 691.411 196.782 Q 691.411 203.138 693.53 205.875 L 693.53 205.875 L 693.53 205.875 Q 695.648 208.613 700.326 208.613 L 700.326 208.613 L 700.326 208.613 Q 704.535 208.613 706.599 205.545 L 706.599 205.545 L 706.599 205.545 Q 708.662 202.478 708.662 196.727 L 708.662 196.727 L 708.662 196.727 Q 708.662 190.839 706.599 187.95 L 706.599 187.95 L 706.599 187.95 Q 704.535 185.061 700.215 185.061 Z  M 725.941 169.076 L 725.941 211.887 L 721.373 211.887 L 721.373 169.076 L 725.941 169.076 Z  M 748.364 212.437 L 748.364 212.437 L 748.364 212.437 Q 741.678 212.437 737.813 208.365 L 737.813 208.365 L 737.813 208.365 Q 733.947 204.293 733.947 197.057 L 733.947 197.057 L 733.947 197.057 Q 733.947 189.766 737.538 185.474 L 737.538 185.474 L 737.538 185.474 Q 741.128 181.182 747.181 181.182 L 747.181 181.182 L 747.181 181.182 Q 752.849 181.182 756.15 184.91 L 756.15 184.91 L 756.15 184.91 Q 759.452 188.638 759.452 194.746 L 759.452 194.746 L 759.452 197.635 L 738.679 197.635 L 738.679 197.635 Q 738.817 202.945 741.362 205.697 L 741.362 205.697 L 741.362 205.697 Q 743.907 208.448 748.529 208.448 L 748.529 208.448 L 748.529 208.448 Q 753.399 208.448 758.159 206.412 L 758.159 206.412 L 758.159 210.484 L 758.159 210.484 Q 755.738 211.529 753.578 211.983 L 753.578 211.983 L 753.578 211.983 Q 751.418 212.437 748.364 212.437 Z  M 747.126 185.006 L 747.126 185.006 L 747.126 185.006 Q 743.494 185.006 741.334 187.373 L 741.334 187.373 L 741.334 187.373 Q 739.175 189.739 738.789 193.921 L 738.789 193.921 L 754.555 193.921 L 754.555 193.921 Q 754.555 189.601 752.629 187.304 L 752.629 187.304 L 752.629 187.304 Q 750.703 185.006 747.126 185.006 Z  M 263.383 183.383 L 263.383 183.383 L 263.383 183.383 Q 263.383 189.491 259.215 192.779 L 259.215 192.779 L 259.215 192.779 Q 255.047 196.067 247.288 196.067 L 247.288 196.067 L 242.555 196.067 L 242.555 211.887 L 237.878 211.887 L 237.878 171.662 L 248.306 171.662 L 248.306 171.662 Q 263.383 171.662 263.383 183.383 Z  M 242.555 175.707 L 242.555 192.05 L 246.765 192.05 L 246.765 192.05 Q 252.983 192.05 255.762 190.041 L 255.762 190.041 L 255.762 190.041 Q 258.541 188.033 258.541 183.603 L 258.541 183.603 L 258.541 183.603 Q 258.541 179.614 255.927 177.66 L 255.927 177.66 L 255.927 177.66 Q 253.313 175.707 247.783 175.707 L 247.783 175.707 L 242.555 175.707 Z  M 275.682 169.076 L 275.682 211.887 L 271.115 211.887 L 271.115 169.076 L 275.682 169.076 Z  M 307.295 211.887 L 303.911 211.887 L 303.003 207.595 L 302.783 207.595 L 302.783 207.595 Q 300.526 210.429 298.284 211.433 L 298.284 211.433 L 298.284 211.433 Q 296.042 212.437 292.685 212.437 L 292.685 212.437 L 292.685 212.437 Q 288.2 212.437 285.655 210.126 L 285.655 210.126 L 285.655 210.126 Q 283.11 207.815 283.11 203.551 L 283.11 203.551 L 283.11 203.551 Q 283.11 194.416 297.72 193.976 L 297.72 193.976 L 302.838 193.811 L 302.838 191.94 L 302.838 191.94 Q 302.838 188.391 301.311 186.699 L 301.311 186.699 L 301.311 186.699 Q 299.784 185.006 296.427 185.006 L 296.427 185.006 L 296.427 185.006 Q 292.658 185.006 287.898 187.318 L 287.898 187.318 L 286.495 183.823 L 286.495 183.823 Q 288.723 182.613 291.378 181.925 L 291.378 181.925 L 291.378 181.925 Q 294.033 181.237 296.702 181.237 L 296.702 181.237 L 296.702 181.237 Q 302.095 181.237 304.695 183.631 L 304.695 183.631 L 304.695 183.631 Q 307.295 186.024 307.295 191.307 L 307.295 191.307 L 307.295 211.887 Z  M 293.593 208.668 L 293.593 208.668 L 293.593 208.668 Q 297.858 208.668 300.293 206.329 L 300.293 206.329 L 300.293 206.329 Q 302.728 203.991 302.728 199.781 L 302.728 199.781 L 302.728 197.057 L 298.16 197.25 L 298.16 197.25 Q 292.713 197.443 290.305 198.942 L 290.305 198.942 L 290.305 198.942 Q 287.898 200.442 287.898 203.606 L 287.898 203.606 L 287.898 203.606 Q 287.898 206.082 289.397 207.375 L 289.397 207.375 L 289.397 207.375 Q 290.897 208.668 293.593 208.668 Z  M 324.078 212.052 L 311.917 181.732 L 316.814 181.732 L 323.418 198.928 L 323.418 198.928 Q 325.591 204.816 326.114 207.43 L 326.114 207.43 L 326.334 207.43 L 326.334 207.43 Q 326.692 206.027 327.834 202.629 L 327.834 202.629 L 327.834 202.629 Q 328.975 199.231 335.304 181.732 L 335.304 181.732 L 340.201 181.732 L 327.242 216.069 L 327.242 216.069 Q 325.316 221.159 322.744 223.291 L 322.744 223.291 L 322.744 223.291 Q 320.171 225.424 316.429 225.424 L 316.429 225.424 L 316.429 225.424 Q 314.338 225.424 312.302 224.956 L 312.302 224.956 L 312.302 221.297 L 312.302 221.297 Q 313.816 221.627 315.686 221.627 L 315.686 221.627 L 315.686 221.627 Q 320.391 221.627 322.4 216.344 L 322.4 216.344 L 324.078 212.052 Z  M 368.485 201.184 L 368.485 201.184 L 368.485 201.184 Q 368.485 206.494 364.633 209.466 L 364.633 209.466 L 364.633 209.466 Q 360.781 212.437 354.178 212.437 L 354.178 212.437 L 354.178 212.437 Q 347.024 212.437 343.172 210.594 L 343.172 210.594 L 343.172 206.082 L 343.172 206.082 Q 345.649 207.127 348.565 207.733 L 348.565 207.733 L 348.565 207.733 Q 351.482 208.338 354.343 208.338 L 354.343 208.338 L 354.343 208.338 Q 359.02 208.338 361.386 206.563 L 361.386 206.563 L 361.386 206.563 Q 363.753 204.789 363.753 201.625 L 363.753 201.625 L 363.753 201.625 Q 363.753 199.534 362.913 198.199 L 362.913 198.199 L 362.913 198.199 Q 362.074 196.865 360.107 195.737 L 360.107 195.737 L 360.107 195.737 Q 358.14 194.609 354.123 193.178 L 354.123 193.178 L 354.123 193.178 Q 348.51 191.169 346.103 188.418 L 346.103 188.418 L 346.103 188.418 Q 343.695 185.667 343.695 181.237 L 343.695 181.237 L 343.695 181.237 Q 343.695 176.587 347.189 173.836 L 347.189 173.836 L 347.189 173.836 Q 350.684 171.085 356.434 171.085 L 356.434 171.085 L 356.434 171.085 Q 362.432 171.085 367.467 173.286 L 367.467 173.286 L 366.009 177.358 L 366.009 177.358 Q 361.029 175.267 356.324 175.267 L 356.324 175.267 L 356.324 175.267 Q 352.61 175.267 350.519 176.862 L 350.519 176.862 L 350.519 176.862 Q 348.428 178.458 348.428 181.292 L 348.428 181.292 L 348.428 181.292 Q 348.428 183.383 349.198 184.718 L 349.198 184.718 L 349.198 184.718 Q 349.968 186.052 351.798 187.166 L 351.798 187.166 L 351.798 187.166 Q 353.628 188.281 357.397 189.629 L 357.397 189.629 L 357.397 189.629 Q 363.725 191.885 366.105 194.471 L 366.105 194.471 L 366.105 194.471 Q 368.485 197.057 368.485 201.184 Z  M 385.763 208.668 L 385.763 208.668 L 385.763 208.668 Q 386.974 208.668 388.102 208.489 L 388.102 208.489 L 388.102 208.489 Q 389.23 208.31 389.89 208.118 L 389.89 208.118 L 389.89 211.612 L 389.89 211.612 Q 389.148 211.97 387.703 212.204 L 387.703 212.204 L 387.703 212.204 Q 386.259 212.437 385.103 212.437 L 385.103 212.437 L 385.103 212.437 Q 376.354 212.437 376.354 203.22 L 376.354 203.22 L 376.354 185.282 L 372.034 185.282 L 372.034 183.08 L 376.354 181.182 L 378.28 174.744 L 380.921 174.744 L 380.921 181.732 L 389.67 181.732 L 389.67 185.282 L 380.921 185.282 L 380.921 203.028 L 380.921 203.028 Q 380.921 205.752 382.214 207.21 L 382.214 207.21 L 382.214 207.21 Q 383.507 208.668 385.763 208.668 Z  M 417.844 211.887 L 414.46 211.887 L 413.552 207.595 L 413.332 207.595 L 413.332 207.595 Q 411.076 210.429 408.833 211.433 L 408.833 211.433 L 408.833 211.433 Q 406.591 212.437 403.234 212.437 L 403.234 212.437 L 403.234 212.437 Q 398.75 212.437 396.205 210.126 L 396.205 210.126 L 396.205 210.126 Q 393.66 207.815 393.66 203.551 L 393.66 203.551 L 393.66 203.551 Q 393.66 194.416 408.269 193.976 L 408.269 193.976 L 413.387 193.811 L 413.387 191.94 L 413.387 191.94 Q 413.387 188.391 411.86 186.699 L 411.86 186.699 L 411.86 186.699 Q 410.333 185.006 406.976 185.006 L 406.976 185.006 L 406.976 185.006 Q 403.207 185.006 398.447 187.318 L 398.447 187.318 L 397.044 183.823 L 397.044 183.823 Q 399.273 182.613 401.928 181.925 L 401.928 181.925 L 401.928 181.925 Q 404.583 181.237 407.251 181.237 L 407.251 181.237 L 407.251 181.237 Q 412.644 181.237 415.244 183.631 L 415.244 183.631 L 415.244 183.631 Q 417.844 186.024 417.844 191.307 L 417.844 191.307 L 417.844 211.887 Z  M 404.142 208.668 L 404.142 208.668 L 404.142 208.668 Q 408.407 208.668 410.842 206.329 L 410.842 206.329 L 410.842 206.329 Q 413.277 203.991 413.277 199.781 L 413.277 199.781 L 413.277 197.057 L 408.71 197.25 L 408.71 197.25 Q 403.262 197.443 400.855 198.942 L 400.855 198.942 L 400.855 198.942 Q 398.447 200.442 398.447 203.606 L 398.447 203.606 L 398.447 203.606 Q 398.447 206.082 399.947 207.375 L 399.947 207.375 L 399.947 207.375 Q 401.446 208.668 404.142 208.668 Z  M 436.994 208.668 L 436.994 208.668 L 436.994 208.668 Q 438.204 208.668 439.332 208.489 L 439.332 208.489 L 439.332 208.489 Q 440.46 208.31 441.121 208.118 L 441.121 208.118 L 441.121 211.612 L 441.121 211.612 Q 440.378 211.97 438.933 212.204 L 438.933 212.204 L 438.933 212.204 Q 437.489 212.437 436.333 212.437 L 436.333 212.437 L 436.333 212.437 Q 427.584 212.437 427.584 203.22 L 427.584 203.22 L 427.584 185.282 L 423.264 185.282 L 423.264 183.08 L 427.584 181.182 L 429.51 174.744 L 432.151 174.744 L 432.151 181.732 L 440.9 181.732 L 440.9 185.282 L 432.151 185.282 L 432.151 203.028 L 432.151 203.028 Q 432.151 205.752 433.444 207.21 L 433.444 207.21 L 433.444 207.21 Q 434.737 208.668 436.994 208.668 Z  M 451.713 181.732 L 451.713 211.887 L 447.146 211.887 L 447.146 181.732 L 451.713 181.732 Z  M 446.761 173.561 L 446.761 173.561 L 446.761 173.561 Q 446.761 171.993 447.531 171.263 L 447.531 171.263 L 447.531 171.263 Q 448.302 170.534 449.457 170.534 L 449.457 170.534 L 449.457 170.534 Q 450.558 170.534 451.356 171.277 L 451.356 171.277 L 451.356 171.277 Q 452.154 172.02 452.154 173.561 L 452.154 173.561 L 452.154 173.561 Q 452.154 175.102 451.356 175.858 L 451.356 175.858 L 451.356 175.858 Q 450.558 176.615 449.457 176.615 L 449.457 176.615 L 449.457 176.615 Q 448.302 176.615 447.531 175.858 L 447.531 175.858 L 447.531 175.858 Q 446.761 175.102 446.761 173.561 Z  M 487.426 196.782 L 487.426 196.782 L 487.426 196.782 Q 487.426 204.156 483.712 208.297 L 483.712 208.297 L 483.712 208.297 Q 479.997 212.437 473.449 212.437 L 473.449 212.437 L 473.449 212.437 Q 469.404 212.437 466.268 210.539 L 466.268 210.539 L 466.268 210.539 Q 463.131 208.641 461.426 205.091 L 461.426 205.091 L 461.426 205.091 Q 459.72 201.542 459.72 196.782 L 459.72 196.782 L 459.72 196.782 Q 459.72 189.409 463.407 185.295 L 463.407 185.295 L 463.407 185.295 Q 467.093 181.182 473.642 181.182 L 473.642 181.182 L 473.642 181.182 Q 479.97 181.182 483.698 185.392 L 483.698 185.392 L 483.698 185.392 Q 487.426 189.601 487.426 196.782 Z  M 464.452 196.782 L 464.452 196.782 L 464.452 196.782 Q 464.452 202.56 466.763 205.587 L 466.763 205.587 L 466.763 205.587 Q 469.074 208.613 473.559 208.613 L 473.559 208.613 L 473.559 208.613 Q 478.044 208.613 480.369 205.6 L 480.369 205.6 L 480.369 205.6 Q 482.694 202.588 482.694 196.782 L 482.694 196.782 L 482.694 196.782 Q 482.694 191.032 480.369 188.047 L 480.369 188.047 L 480.369 188.047 Q 478.044 185.061 473.504 185.061 L 473.504 185.061 L 473.504 185.061 Q 469.019 185.061 466.736 188.005 L 466.736 188.005 L 466.736 188.005 Q 464.452 190.949 464.452 196.782 Z  M 520.635 211.887 L 516.067 211.887 L 516.067 192.38 L 516.067 192.38 Q 516.067 188.693 514.389 186.877 L 514.389 186.877 L 514.389 186.877 Q 512.711 185.061 509.134 185.061 L 509.134 185.061 L 509.134 185.061 Q 504.402 185.061 502.201 187.62 L 502.201 187.62 L 502.201 187.62 Q 500 190.179 500 196.067 L 500 196.067 L 500 211.887 L 495.432 211.887 L 495.432 181.732 L 499.147 181.732 L 499.889 185.859 L 500.11 185.859 L 500.11 185.859 Q 501.513 183.631 504.044 182.406 L 504.044 182.406 L 504.044 182.406 Q 506.575 181.182 509.684 181.182 L 509.684 181.182 L 509.684 181.182 Q 515.132 181.182 517.883 183.81 L 517.883 183.81 L 517.883 183.81 Q 520.635 186.437 520.635 192.215 L 520.635 192.215 L 520.635 211.887 Z " fill="rgb(234,234,234)"/><path d=" M 394.295 61.439 L 394.295 61.439 L 394.295 61.439 Q 394.295 76.009 383.023 83.776 L 383.023 83.776 L 383.023 83.776 Q 371.751 91.543 351.085 91.543 L 351.085 91.543 L 212.2 92.917 L 212.2 134.43 L 204.216 134.43 L 204.216 32.572 L 353.434 32.572 L 353.434 32.572 Q 394.295 32.572 394.295 61.439 Z  M 212.2 38.895 L 212.2 86.869 L 349.128 85.494 L 349.128 85.494 Q 368.463 85.494 377.073 79.893 L 377.073 79.893 L 377.073 79.893 Q 385.684 74.291 385.684 61.714 L 385.684 61.714 L 385.684 61.714 Q 385.684 50.098 377.543 44.497 L 377.543 44.497 L 377.543 44.497 Q 369.402 38.895 352.338 38.895 L 352.338 38.895 L 212.2 38.895 Z " fill="rgb(234,234,234)"/><path d=" M 813.726 61.439 L 813.726 61.439 L 813.726 61.439 Q 813.726 76.009 802.454 83.776 L 802.454 83.776 L 802.454 83.776 Q 791.182 91.543 770.517 91.543 L 770.517 91.543 L 631.632 92.917 L 631.632 134.43 L 623.647 134.43 L 623.647 32.572 L 772.865 32.572 L 772.865 32.572 Q 813.726 32.572 813.726 61.439 Z  M 631.632 38.895 L 631.632 86.869 L 768.56 85.494 L 768.56 85.494 Q 787.894 85.494 796.505 79.893 L 796.505 79.893 L 796.505 79.893 Q 805.116 74.291 805.116 61.714 L 805.116 61.714 L 805.116 61.714 Q 805.116 50.098 796.975 44.497 L 796.975 44.497 L 796.975 44.497 Q 788.834 38.895 771.769 38.895 L 771.769 38.895 L 631.632 38.895 Z " fill="rgb(234,234,234)"/><path d=" M 528.242 108.588 L 528.242 108.588 L 528.242 108.588 Q 528.242 121.165 517.713 128.519 L 517.713 128.519 L 517.713 128.519 Q 507.185 135.874 489.729 135.874 L 489.729 135.874 L 489.729 135.874 L 394.295 135.874 L 394.295 135.874 L 394.295 128.863 L 394.295 128.863 Q 469.925 129.413 489.103 129.413 L 489.103 129.413 L 489.103 129.413 Q 503.193 129.413 511.451 123.743 L 511.451 123.743 L 511.451 123.743 Q 519.709 118.072 519.709 108.863 L 519.709 108.863 L 519.709 108.863 Q 519.709 103.158 516.97 99.412 L 516.97 99.412 L 516.97 99.412 Q 514.23 95.666 508.046 92.573 L 508.046 92.573 L 508.046 92.573 Q 501.862 89.481 489.885 85.907 L 489.885 85.907 L 489.885 85.907 Q 472.351 80.614 465.658 74.463 L 465.658 74.463 L 465.658 74.463 Q 458.966 68.312 458.966 58.071 L 458.966 58.071 L 458.966 58.071 Q 458.966 46.799 469.024 39.685 L 469.024 39.685 L 469.024 39.685 Q 479.083 32.572 494.895 32.572 L 494.895 32.572 L 494.895 32.572 Q 576.135 32.572 593.324 32.572 L 593.324 38.881 Q 508.046 38.758 495.052 38.758 L 495.052 38.758 L 495.052 38.758 Q 482.371 38.758 474.856 43.912 L 474.856 43.912 L 474.856 43.912 Q 467.341 49.067 467.341 57.933 L 467.341 57.933 L 467.341 57.933 Q 467.341 63.5 469.651 67.074 L 469.651 67.074 L 469.651 67.074 Q 471.96 70.648 477.204 73.501 L 477.204 73.501 L 477.204 73.501 Q 482.449 76.353 495.208 80.339 L 495.208 80.339 L 495.208 80.339 Q 508.594 84.395 515.326 88.209 L 515.326 88.209 L 515.326 88.209 Q 522.058 92.024 525.15 96.869 L 525.15 96.869 L 525.15 96.869 Q 528.242 101.715 528.242 108.588 Z " fill="rgb(234,234,234)"/></g></svg>