<?xml version="1.0" encoding="UTF-8" standalone="no"?><!-- Generator: Gravit.io --><svg xmlns="http://www.w3.org/2000/svg" xmlns:xlink="http://www.w3.org/1999/xlink" style="isolation:isolate" viewBox="0 0 992 250" width="992pt" height="250pt"><defs><clipPath id="_clipPath_RJP6hT3Y6jGCQYimiufFvcfQGteTyIgh"><rect width="992" height="250"/></clipPath></defs><g clip-path="url(#_clipPath_RJP6hT3Y6jGCQYimiufFvcfQGteTyIgh)"><path d=" M 480.215 105.243 L 515.15 92.332 L 534.002 99.755 L 534.002 99.755 C 526.94 102.798 516.031 107.23 501.78 112.87 L 480.215 105.243 L 480.215 105.243 Z " fill="rgb(61,202,178)"/><path d=" M 480.215 105.243 L 466.425 110.339 L 487.259 118.563 C 492.334 116.581 497.081 114.716 501.78 112.87 L 480.215 105.243 L 480.215 105.243 Z " fill="rgb(255,234,49)"/><path d=" M 534.002 99.755 Q 540.773 96.893 543.661 95.433 C 553.221 90.602 555.277 85.359 538.829 77.135 C 528.293 71.867 511.166 73.275 487.429 81.377 L 487.429 81.377 L 503.877 87.364 Q 507.646 85.819 513.541 83.406 Q 524.129 79.191 529.68 83.098 Q 533.621 85.871 516.865 91.698 L 515.15 92.332 L 534.002 99.755 L 534.002 99.755 Z " fill="rgb(65,115,189)"/><path d=" M 470.616 100.995 C 470.335 101.11 470.194 101.168 470.057 101.224 C 461.841 104.603 452.264 106.571 439.063 106.356 Q 428.483 105.11 418.786 101.344 C 403.906 95.566 417.262 86.035 423.335 82.449 L 439.849 89.003 L 439.849 89.003 Q 432.178 92.951 434.283 95.057 Q 438.669 99.443 450.662 94.714 L 452.972 93.873 L 470.616 100.995 L 470.616 100.995 Z " fill="rgb(255,234,49)"/><path d=" M 470.616 100.995 C 475.849 98.843 486.554 94.456 503.877 87.364 L 487.429 81.377 L 487.429 81.377 Q 485.999 81.851 484.517 82.378 L 452.972 93.873 L 470.616 100.995 L 470.616 100.995 Z " fill="rgb(61,202,178)"/><path d=" M 468.586 73.795 L 467.316 78.403 C 454.343 82.656 445.138 86.199 439.849 89.003 L 439.849 89.003 L 423.335 82.449 C 423.711 82.234 424.085 82.021 424.414 81.838 C 427.215 80.287 437.877 76.083 456.787 69.097 L 468.586 73.795 L 468.586 73.795 Z " fill="rgb(61,202,178)"/><path d=" M 468.586 73.795 L 471.359 63.737 Q 463.179 66.719 456.787 69.097 L 468.586 73.795 L 468.586 73.795 Z " fill="rgb(65,115,189)"/><path d=" M 216.742 144.811 L 216.742 144.811 L 216.742 144.811 Q 234.078 144.811 243.361 150.906 L 243.361 150.906 L 243.361 150.906 Q 252.644 157.002 252.644 170.87 L 252.644 170.87 L 252.644 170.87 Q 252.644 184.851 243.249 191.058 L 243.249 191.058 L 243.249 191.058 Q 233.854 197.266 216.406 197.266 L 216.406 197.266 L 210.926 197.266 L 210.926 223.214 L 193.478 223.214 L 193.478 146.824 L 193.478 146.824 Q 199.182 145.705 205.557 145.258 L 205.557 145.258 L 205.557 145.258 Q 211.932 144.811 216.742 144.811 Z  M 217.86 159.686 L 217.86 159.686 L 217.86 159.686 Q 215.959 159.686 214.113 159.798 L 214.113 159.798 L 214.113 159.798 Q 212.268 159.91 210.926 160.021 L 210.926 160.021 L 210.926 182.39 L 216.406 182.39 L 216.406 182.39 Q 225.466 182.39 230.051 179.93 L 230.051 179.93 L 230.051 179.93 Q 234.637 177.469 234.637 170.759 L 234.637 170.759 L 234.637 170.759 Q 234.637 167.515 233.463 165.39 L 233.463 165.39 L 233.463 165.39 Q 232.288 163.265 230.107 161.979 L 230.107 161.979 L 230.107 161.979 Q 227.926 160.693 224.795 160.189 L 224.795 160.189 L 224.795 160.189 Q 221.663 159.686 217.86 159.686 Z  M 290.224 210.575 L 287.875 224.332 L 287.875 224.332 Q 280.605 224.22 276.075 222.767 L 276.075 222.767 L 276.075 222.767 Q 271.546 221.313 268.917 218.684 L 268.917 218.684 L 268.917 218.684 Q 266.289 216.056 265.338 212.309 L 265.338 212.309 L 265.338 212.309 Q 264.388 208.562 264.388 203.865 L 264.388 203.865 L 264.388 139.106 L 281.053 136.422 L 281.053 200.509 L 281.053 200.509 Q 281.053 202.746 281.388 204.536 L 281.388 204.536 L 281.388 204.536 Q 281.724 206.325 282.674 207.556 L 282.674 207.556 L 282.674 207.556 Q 283.625 208.786 285.414 209.569 L 285.414 209.569 L 285.414 209.569 Q 287.204 210.352 290.224 210.575 L 290.224 210.575 Z  M 323.889 211.582 L 323.889 211.582 L 323.889 211.582 Q 326.35 211.582 328.587 211.47 L 328.587 211.47 L 328.587 211.47 Q 330.824 211.358 332.166 211.135 L 332.166 211.135 L 332.166 198.496 L 332.166 198.496 Q 331.159 198.272 329.146 198.049 L 329.146 198.049 L 329.146 198.049 Q 327.133 197.825 325.455 197.825 L 325.455 197.825 L 325.455 197.825 Q 323.106 197.825 321.037 198.105 L 321.037 198.105 L 321.037 198.105 Q 318.968 198.384 317.402 199.167 L 317.402 199.167 L 317.402 199.167 Q 315.836 199.95 314.942 201.292 L 314.942 201.292 L 314.942 201.292 Q 314.047 202.634 314.047 204.648 L 314.047 204.648 L 314.047 204.648 Q 314.047 208.562 316.675 210.072 L 316.675 210.072 L 316.675 210.072 Q 319.304 211.582 323.889 211.582 Z  M 322.547 162.818 L 322.547 162.818 L 322.547 162.818 Q 329.929 162.818 334.85 164.495 L 334.85 164.495 L 334.85 164.495 Q 339.771 166.173 342.735 169.305 L 342.735 169.305 L 342.735 169.305 Q 345.699 172.436 346.929 176.91 L 346.929 176.91 L 346.929 176.91 Q 348.16 181.384 348.16 186.864 L 348.16 186.864 L 348.16 221.536 L 348.16 221.536 Q 344.581 222.319 338.205 223.382 L 338.205 223.382 L 338.205 223.382 Q 331.83 224.444 322.771 224.444 L 322.771 224.444 L 322.771 224.444 Q 317.067 224.444 312.425 223.438 L 312.425 223.438 L 312.425 223.438 Q 307.783 222.431 304.428 220.138 L 304.428 220.138 L 304.428 220.138 Q 301.073 217.845 299.283 214.154 L 299.283 214.154 L 299.283 214.154 Q 297.494 210.464 297.494 205.095 L 297.494 205.095 L 297.494 205.095 Q 297.494 199.95 299.563 196.371 L 299.563 196.371 L 299.563 196.371 Q 301.632 192.792 305.099 190.667 L 305.099 190.667 L 305.099 190.667 Q 308.566 188.542 313.04 187.591 L 313.04 187.591 L 313.04 187.591 Q 317.514 186.641 322.323 186.641 L 322.323 186.641 L 322.323 186.641 Q 325.567 186.641 328.083 186.92 L 328.083 186.92 L 328.083 186.92 Q 330.6 187.2 332.166 187.647 L 332.166 187.647 L 332.166 186.081 L 332.166 186.081 Q 332.166 181.831 329.593 179.259 L 329.593 179.259 L 329.593 179.259 Q 327.021 176.686 320.646 176.686 L 320.646 176.686 L 320.646 176.686 Q 316.396 176.686 312.257 177.302 L 312.257 177.302 L 312.257 177.302 Q 308.119 177.917 305.099 179.035 L 305.099 179.035 L 302.974 165.614 L 302.974 165.614 Q 304.428 165.166 306.609 164.663 L 306.609 164.663 L 306.609 164.663 Q 308.79 164.16 311.363 163.768 L 311.363 163.768 L 311.363 163.768 Q 313.935 163.377 316.787 163.097 L 316.787 163.097 L 316.787 163.097 Q 319.639 162.818 322.547 162.818 Z  M 396.924 164.383 L 414.148 164.383 L 414.148 164.383 Q 409.126 181.384 403.657 196.259 L 403.657 196.259 L 403.657 196.259 Q 398.188 211.135 391.715 225.115 L 391.715 225.115 L 391.715 225.115 Q 389.356 230.148 386.997 233.671 L 386.997 233.671 L 386.997 233.671 Q 384.638 237.195 381.83 239.487 L 381.83 239.487 L 381.83 239.487 Q 379.022 241.78 375.484 242.843 L 375.484 242.843 L 375.484 242.843 Q 371.945 243.905 367.228 243.905 L 367.228 243.905 L 367.228 243.905 Q 363.296 243.905 359.983 243.178 L 359.983 243.178 L 359.983 243.178 Q 356.669 242.451 354.535 241.556 L 354.535 241.556 L 357.443 228.247 L 357.443 228.247 Q 360.001 229.142 362.003 229.477 L 362.003 229.477 L 362.003 229.477 Q 364.006 229.813 366.23 229.813 L 366.23 229.813 L 366.23 229.813 Q 370.68 229.813 373.072 227.408 L 373.072 227.408 L 373.072 227.408 Q 375.463 225.003 377.132 220.753 L 377.132 220.753 L 377.132 220.753 Q 371.455 209.569 365.779 195.644 L 365.779 195.644 L 365.779 195.644 Q 360.103 181.719 355.094 164.383 L 355.094 164.383 L 372.765 164.383 L 372.765 164.383 Q 373.889 168.745 375.406 173.834 L 375.406 173.834 L 375.406 173.834 Q 376.922 178.923 378.607 184.124 L 378.607 184.124 L 378.607 184.124 Q 380.292 189.325 382.034 194.246 L 382.034 194.246 L 382.034 194.246 Q 383.775 199.167 385.348 203.194 L 385.348 203.194 L 385.348 203.194 Q 386.809 199.167 388.382 194.246 L 388.382 194.246 L 388.382 194.246 Q 389.956 189.325 391.473 184.124 L 391.473 184.124 L 391.473 184.124 Q 392.99 178.923 394.395 173.834 L 394.395 173.834 L 394.395 173.834 Q 395.8 168.745 396.924 164.383 L 396.924 164.383 Z  M 445.241 209.904 L 445.241 209.904 L 445.241 209.904 Q 448.932 209.904 451.337 209.289 L 451.337 209.289 L 451.337 209.289 Q 453.741 208.674 455.195 207.612 L 455.195 207.612 L 455.195 207.612 Q 456.649 206.549 457.208 205.095 L 457.208 205.095 L 457.208 205.095 Q 457.768 203.641 457.768 201.851 L 457.768 201.851 L 457.768 201.851 Q 457.768 198.049 454.189 195.532 L 454.189 195.532 L 454.189 195.532 Q 450.61 193.016 441.886 190.108 L 441.886 190.108 L 441.886 190.108 Q 438.083 188.766 434.28 187.032 L 434.28 187.032 L 434.28 187.032 Q 430.477 185.298 427.458 182.67 L 427.458 182.67 L 427.458 182.67 Q 424.438 180.042 422.536 176.295 L 422.536 176.295 L 422.536 176.295 Q 420.635 172.548 420.635 167.18 L 420.635 167.18 L 420.635 167.18 Q 420.635 161.811 422.648 157.505 L 422.648 157.505 L 422.648 157.505 Q 424.661 153.199 428.352 150.179 L 428.352 150.179 L 428.352 150.179 Q 432.043 147.159 437.3 145.538 L 437.3 145.538 L 437.3 145.538 Q 442.557 143.916 449.156 143.916 L 449.156 143.916 L 449.156 143.916 Q 456.985 143.916 462.689 145.593 L 462.689 145.593 L 462.689 145.593 Q 468.393 147.271 472.084 149.284 L 472.084 149.284 L 467.051 163.041 L 467.051 163.041 Q 463.807 161.364 459.837 160.077 L 459.837 160.077 L 459.837 160.077 Q 455.866 158.791 450.274 158.791 L 450.274 158.791 L 450.274 158.791 Q 444.011 158.791 441.27 160.525 L 441.27 160.525 L 441.27 160.525 Q 438.53 162.258 438.53 165.837 L 438.53 165.837 L 438.53 165.837 Q 438.53 167.962 439.537 169.416 L 439.537 169.416 L 439.537 169.416 Q 440.543 170.87 442.389 172.045 L 442.389 172.045 L 442.389 172.045 Q 444.234 173.219 446.639 174.17 L 446.639 174.17 L 446.639 174.17 Q 449.044 175.121 451.952 176.127 L 451.952 176.127 L 451.952 176.127 Q 457.991 178.364 462.465 180.545 L 462.465 180.545 L 462.465 180.545 Q 466.939 182.726 469.903 185.634 L 469.903 185.634 L 469.903 185.634 Q 472.867 188.542 474.321 192.457 L 474.321 192.457 L 474.321 192.457 Q 475.775 196.371 475.775 201.963 L 475.775 201.963 L 475.775 201.963 Q 475.775 212.812 468.169 218.796 L 468.169 218.796 L 468.169 218.796 Q 460.564 224.78 445.241 224.78 L 445.241 224.78 L 445.241 224.78 Q 440.096 224.78 435.958 224.165 L 435.958 224.165 L 435.958 224.165 Q 431.82 223.549 428.632 222.655 L 428.632 222.655 L 428.632 222.655 Q 425.444 221.76 423.152 220.753 L 423.152 220.753 L 423.152 220.753 Q 420.859 219.747 419.293 218.852 L 419.293 218.852 L 424.214 204.983 L 424.214 204.983 Q 427.681 206.885 432.77 208.394 L 432.77 208.394 L 432.77 208.394 Q 437.859 209.904 445.241 209.904 Z  M 487.518 199.167 L 487.518 149.732 L 504.183 147.047 L 504.183 164.383 L 524.204 164.383 L 524.204 178.252 L 504.183 178.252 L 504.183 198.944 L 504.183 198.944 Q 504.183 204.2 506.029 207.332 L 506.029 207.332 L 506.029 207.332 Q 507.874 210.464 513.466 210.464 L 513.466 210.464 L 513.466 210.464 Q 516.151 210.464 519.003 209.96 L 519.003 209.96 L 519.003 209.96 Q 521.855 209.457 524.204 208.562 L 524.204 208.562 L 526.552 221.536 L 526.552 221.536 Q 523.532 222.767 519.842 223.661 L 519.842 223.661 L 519.842 223.661 Q 516.151 224.556 510.782 224.556 L 510.782 224.556 L 510.782 224.556 Q 503.96 224.556 499.486 222.711 L 499.486 222.711 L 499.486 222.711 Q 495.012 220.865 492.328 217.566 L 492.328 217.566 L 492.328 217.566 Q 489.643 214.266 488.581 209.569 L 488.581 209.569 L 488.581 209.569 Q 487.518 204.871 487.518 199.167 L 487.518 199.167 Z  M 557.981 211.582 L 557.981 211.582 L 557.981 211.582 Q 560.441 211.582 562.678 211.47 L 562.678 211.47 L 562.678 211.47 Q 564.915 211.358 566.257 211.135 L 566.257 211.135 L 566.257 198.496 L 566.257 198.496 Q 565.251 198.272 563.237 198.049 L 563.237 198.049 L 563.237 198.049 Q 561.224 197.825 559.547 197.825 L 559.547 197.825 L 559.547 197.825 Q 557.198 197.825 555.129 198.105 L 555.129 198.105 L 555.129 198.105 Q 553.059 198.384 551.494 199.167 L 551.494 199.167 L 551.494 199.167 Q 549.928 199.95 549.033 201.292 L 549.033 201.292 L 549.033 201.292 Q 548.138 202.634 548.138 204.648 L 548.138 204.648 L 548.138 204.648 Q 548.138 208.562 550.767 210.072 L 550.767 210.072 L 550.767 210.072 Q 553.395 211.582 557.981 211.582 Z  M 556.639 162.818 L 556.639 162.818 L 556.639 162.818 Q 564.02 162.818 568.941 164.495 L 568.941 164.495 L 568.941 164.495 Q 573.863 166.173 576.827 169.305 L 576.827 169.305 L 576.827 169.305 Q 579.79 172.436 581.021 176.91 L 581.021 176.91 L 581.021 176.91 Q 582.251 181.384 582.251 186.864 L 582.251 186.864 L 582.251 221.536 L 582.251 221.536 Q 578.672 222.319 572.297 223.382 L 572.297 223.382 L 572.297 223.382 Q 565.922 224.444 556.862 224.444 L 556.862 224.444 L 556.862 224.444 Q 551.158 224.444 546.517 223.438 L 546.517 223.438 L 546.517 223.438 Q 541.875 222.431 538.52 220.138 L 538.52 220.138 L 538.52 220.138 Q 535.164 217.845 533.375 214.154 L 533.375 214.154 L 533.375 214.154 Q 531.585 210.464 531.585 205.095 L 531.585 205.095 L 531.585 205.095 Q 531.585 199.95 533.654 196.371 L 533.654 196.371 L 533.654 196.371 Q 535.724 192.792 539.191 190.667 L 539.191 190.667 L 539.191 190.667 Q 542.658 188.542 547.132 187.591 L 547.132 187.591 L 547.132 187.591 Q 551.606 186.641 556.415 186.641 L 556.415 186.641 L 556.415 186.641 Q 559.658 186.641 562.175 186.92 L 562.175 186.92 L 562.175 186.92 Q 564.691 187.2 566.257 187.647 L 566.257 187.647 L 566.257 186.081 L 566.257 186.081 Q 566.257 181.831 563.685 179.259 L 563.685 179.259 L 563.685 179.259 Q 561.112 176.686 554.737 176.686 L 554.737 176.686 L 554.737 176.686 Q 550.487 176.686 546.349 177.302 L 546.349 177.302 L 546.349 177.302 Q 542.211 177.917 539.191 179.035 L 539.191 179.035 L 537.066 165.614 L 537.066 165.614 Q 538.52 165.166 540.701 164.663 L 540.701 164.663 L 540.701 164.663 Q 542.882 164.16 545.454 163.768 L 545.454 163.768 L 545.454 163.768 Q 548.026 163.377 550.879 163.097 L 550.879 163.097 L 550.879 163.097 Q 553.731 162.818 556.639 162.818 Z  M 596.791 199.167 L 596.791 149.732 L 613.456 147.047 L 613.456 164.383 L 633.476 164.383 L 633.476 178.252 L 613.456 178.252 L 613.456 198.944 L 613.456 198.944 Q 613.456 204.2 615.301 207.332 L 615.301 207.332 L 615.301 207.332 Q 617.147 210.464 622.739 210.464 L 622.739 210.464 L 622.739 210.464 Q 625.423 210.464 628.275 209.96 L 628.275 209.96 L 628.275 209.96 Q 631.127 209.457 633.476 208.562 L 633.476 208.562 L 635.825 221.536 L 635.825 221.536 Q 632.805 222.767 629.114 223.661 L 629.114 223.661 L 629.114 223.661 Q 625.423 224.556 620.055 224.556 L 620.055 224.556 L 620.055 224.556 Q 613.232 224.556 608.758 222.711 L 608.758 222.711 L 608.758 222.711 Q 604.285 220.865 601.6 217.566 L 601.6 217.566 L 601.6 217.566 Q 598.916 214.266 597.853 209.569 L 597.853 209.569 L 597.853 209.569 Q 596.791 204.871 596.791 199.167 L 596.791 199.167 Z  M 663.674 164.383 L 663.674 223.214 L 647.009 223.214 L 647.009 164.383 L 663.674 164.383 Z  M 665.24 147.383 L 665.24 147.383 L 665.24 147.383 Q 665.24 151.969 662.276 154.597 L 662.276 154.597 L 662.276 154.597 Q 659.312 157.225 655.286 157.225 L 655.286 157.225 L 655.286 157.225 Q 651.259 157.225 648.296 154.597 L 648.296 154.597 L 648.296 154.597 Q 645.332 151.969 645.332 147.383 L 645.332 147.383 L 645.332 147.383 Q 645.332 142.797 648.296 140.169 L 648.296 140.169 L 648.296 140.169 Q 651.259 137.541 655.286 137.541 L 655.286 137.541 L 655.286 137.541 Q 659.312 137.541 662.276 140.169 L 662.276 140.169 L 662.276 140.169 Q 665.24 142.797 665.24 147.383 Z  M 734.36 193.687 L 734.36 193.687 L 734.36 193.687 Q 734.36 200.621 732.347 206.381 L 732.347 206.381 L 732.347 206.381 Q 730.334 212.141 726.531 216.224 L 726.531 216.224 L 726.531 216.224 Q 722.728 220.306 717.416 222.543 L 717.416 222.543 L 717.416 222.543 Q 712.103 224.78 705.504 224.78 L 705.504 224.78 L 705.504 224.78 Q 699.017 224.78 693.705 222.543 L 693.705 222.543 L 693.705 222.543 Q 688.392 220.306 684.589 216.224 L 684.589 216.224 L 684.589 216.224 Q 680.786 212.141 678.661 206.381 L 678.661 206.381 L 678.661 206.381 Q 676.536 200.621 676.536 193.687 L 676.536 193.687 L 676.536 193.687 Q 676.536 186.752 678.717 181.048 L 678.717 181.048 L 678.717 181.048 Q 680.898 175.344 684.757 171.318 L 684.757 171.318 L 684.757 171.318 Q 688.616 167.291 693.928 165.055 L 693.928 165.055 L 693.928 165.055 Q 699.241 162.818 705.504 162.818 L 705.504 162.818 L 705.504 162.818 Q 711.879 162.818 717.192 165.055 L 717.192 165.055 L 717.192 165.055 Q 722.505 167.291 726.307 171.318 L 726.307 171.318 L 726.307 171.318 Q 730.11 175.344 732.235 181.048 L 732.235 181.048 L 732.235 181.048 Q 734.36 186.752 734.36 193.687 Z  M 717.36 193.687 L 717.36 193.687 L 717.36 193.687 Q 717.36 185.97 714.284 181.552 L 714.284 181.552 L 714.284 181.552 Q 711.208 177.134 705.504 177.134 L 705.504 177.134 L 705.504 177.134 Q 699.8 177.134 696.668 181.552 L 696.668 181.552 L 696.668 181.552 Q 693.537 185.97 693.537 193.687 L 693.537 193.687 L 693.537 193.687 Q 693.537 201.404 696.668 205.934 L 696.668 205.934 L 696.668 205.934 Q 699.8 210.464 705.504 210.464 L 705.504 210.464 L 705.504 210.464 Q 711.208 210.464 714.284 205.934 L 714.284 205.934 L 714.284 205.934 Q 717.36 201.404 717.36 193.687 Z  M 747.222 223.214 L 747.222 166.397 L 747.222 166.397 Q 751.472 165.166 758.183 164.104 L 758.183 164.104 L 758.183 164.104 Q 764.894 163.041 772.276 163.041 L 772.276 163.041 L 772.276 163.041 Q 779.769 163.041 784.746 164.999 L 784.746 164.999 L 784.746 164.999 Q 789.723 166.956 792.631 170.535 L 792.631 170.535 L 792.631 170.535 Q 795.539 174.114 796.77 179.035 L 796.77 179.035 L 796.77 179.035 Q 798 183.956 798 189.996 L 798 189.996 L 798 223.214 L 781.335 223.214 L 781.335 192.009 L 781.335 192.009 Q 781.335 183.956 779.21 180.601 L 779.21 180.601 L 779.21 180.601 Q 777.085 177.246 771.269 177.246 L 771.269 177.246 L 771.269 177.246 Q 769.48 177.246 767.466 177.413 L 767.466 177.413 L 767.466 177.413 Q 765.453 177.581 763.887 177.805 L 763.887 177.805 L 763.887 223.214 L 747.222 223.214 Z " fill="rgb(234,234,234)"/><path d=" M 491.542 9.185 Q 507.287 14.72 512.655 19.655 C 518.022 24.591 522.999 34.553 522.526 44.025 C 522.054 53.497 519.323 60.689 512.102 65.313 Q 504.881 69.938 486.408 69.631 L 486.942 118.563 L 464.705 110.446 L 464.705 1.578 L 491.542 9.185 Z  M 486.904 23.492 L 486.904 23.492 L 486.904 52.002 Q 490.623 53.498 492.776 53.594 C 494.929 53.691 500.615 53.443 503.467 50.51 Q 506.318 47.578 505.831 37.352 Q 505.251 32.365 503.702 30.334 C 502.154 28.304 499.09 26.482 496.243 25.208 C 493.397 23.934 488.614 23.35 486.904 23.492 Z " fill="rgb(227,31,50)"/></g></svg>