<?xml version="1.0" encoding="UTF-8" standalone="no"?><!-- Generator: Gravit.io --><svg xmlns="http://www.w3.org/2000/svg" xmlns:xlink="http://www.w3.org/1999/xlink" style="isolation:isolate" viewBox="0 0 992 250" width="992pt" height="250pt"><defs><clipPath id="_clipPath_hOV8gFXdEJ81J8svayLdsUIHpxw38lmv"><rect width="992" height="250"/></clipPath></defs><g clip-path="url(#_clipPath_hOV8gFXdEJ81J8svayLdsUIHpxw38lmv)"><path d=" M 237.981 227.477 C 234.322 207.457 232.701 196.287 232.901 192.487 C 232.911 192.288 233.285 192.139 233.776 192.139 C 234.863 192.139 234.734 191.638 233.454 190.89 L 232.504 190.334 L 232.579 185.604 L 232.655 180.872 L 228.83 180.259 C 226.498 179.886 223.628 179.187 221.477 178.469 L 217.948 177.292 L 217.867 175.899 L 217.785 174.505 L 216.188 174.422 C 215.206 174.371 214.592 174.451 214.592 174.631 C 214.592 174.797 213.97 174.922 213.146 174.922 C 211.817 174.922 211.453 174.759 208.644 172.909 C 206.964 171.802 205.164 170.426 204.644 169.854 C 203.827 168.956 203.53 168.812 202.492 168.812 C 201.334 168.812 201.28 168.775 201.105 167.84 C 200.922 166.866 199.699 165.023 198.111 163.328 C 197.477 162.651 197.018 162.42 196.278 162.406 C 195.371 162.388 195.059 162.118 192.407 159.056 C 190.577 156.942 189.196 155.046 188.628 153.868 C 188.053 152.676 187.198 151.506 186.236 150.6 C 185.013 149.446 184.424 148.532 183.022 145.601 C 182.076 143.628 181.229 141.75 181.14 141.426 C 181.05 141.103 180.729 140.615 180.427 140.342 C 180.052 140.002 179.879 139.488 179.879 138.709 C 179.879 138.029 179.553 136.882 179.068 135.859 C 178.124 133.861 178.041 133.359 178.331 131.377 C 178.51 130.157 178.463 129.809 178.06 129.363 C 177.672 128.935 177.585 128.398 177.633 126.756 C 177.666 125.619 177.556 124.432 177.388 124.118 C 177.22 123.804 177.18 123.546 177.301 123.543 C 177.42 123.541 177.701 123.424 177.924 123.282 C 178.271 123.064 178.252 122.941 177.8 122.441 C 177.413 122.013 177.29 121.522 177.345 120.626 C 177.387 119.949 177.33 119.247 177.217 119.066 C 176.917 118.579 177.098 115.114 177.434 114.906 C 177.618 114.792 177.629 114.562 177.465 114.268 C 177.084 113.588 178.111 106.758 178.808 105.334 C 178.964 105.016 179.056 104.579 179.013 104.363 C 178.971 104.146 179.233 102.761 179.596 101.284 C 180.136 99.089 180.373 98.545 180.901 98.305 C 181.435 98.062 181.545 97.8 181.545 96.769 C 181.545 95.088 182.02 94.112 182.84 94.112 C 183.374 94.112 183.489 93.966 183.489 93.295 C 183.489 92.846 183.376 92.409 183.238 92.323 C 183.099 92.237 183.058 91.886 183.146 91.543 C 183.349 90.753 185.147 87.975 185.745 87.526 C 185.994 87.339 186.197 86.86 186.197 86.46 C 186.197 85.346 186.812 84.432 187.625 84.337 C 188.18 84.273 188.356 84.092 188.379 83.559 C 188.436 82.241 188.81 81.406 189.481 81.101 C 189.87 80.923 190.154 80.557 190.154 80.232 C 190.154 79.923 190.654 79.218 191.265 78.666 C 192.072 77.938 192.375 77.444 192.375 76.862 C 192.375 76.198 192.492 76.061 193.054 76.061 C 193.547 76.061 194.133 75.58 195.205 74.294 C 196.185 73.118 197.169 72.281 198.138 71.797 C 198.962 71.386 199.596 70.881 199.596 70.636 C 199.596 69.918 201.035 68.86 202.026 68.85 C 202.773 68.843 202.929 68.733 202.931 68.217 C 202.934 67.438 204.851 66.16 209.265 63.993 C 212.453 62.429 213.384 62.191 213.981 62.788 C 214.722 63.529 214.261 64.005 211.339 65.509 C 209.706 66.348 207.991 67.363 207.525 67.763 C 207.058 68.164 205.3 69.539 203.616 70.818 C 201.45 72.466 200.584 73.288 200.652 73.632 C 200.705 73.898 200.628 74.118 200.482 74.118 C 200.013 74.118 195.576 78.852 195.383 79.557 C 195.281 79.932 194.563 80.971 193.786 81.867 C 193.01 82.763 192.375 83.742 192.375 84.044 C 192.375 84.344 191.938 85.163 191.404 85.863 C 190.869 86.563 190.43 87.299 190.428 87.5 C 190.426 87.7 190.114 88.407 189.734 89.072 C 189.355 89.737 189.043 90.677 189.043 91.16 C 189.043 91.644 188.731 92.499 188.349 93.06 C 187.967 93.622 187.655 94.468 187.655 94.939 C 187.655 95.411 187.342 96.413 186.961 97.166 C 186.392 98.288 186.266 98.938 186.266 100.757 C 186.266 102.724 185.514 107.627 185.021 108.871 C 184.921 109.123 184.973 109.412 185.137 109.513 C 185.317 109.624 185.434 110.858 185.433 112.664 C 185.433 114.297 185.577 116.668 185.754 117.934 L 186.075 120.234 L 185.286 121.058 C 184.851 121.511 184.344 121.882 184.158 121.882 C 183.965 121.882 183.877 122.103 183.953 122.394 C 184.047 122.753 184.275 122.871 184.711 122.787 C 185.706 122.598 187.1 123.938 187.1 125.084 C 187.1 125.595 186.964 126.098 186.797 126.201 C 186.608 126.318 186.805 126.709 187.331 127.259 C 187.947 127.903 188.256 128.602 188.515 129.934 C 188.755 131.175 189.054 131.887 189.472 132.216 C 189.806 132.478 190.367 133.464 190.719 134.405 C 191.243 135.806 191.305 136.26 191.059 136.913 C 190.771 137.676 190.792 137.71 191.557 137.71 C 192.168 137.71 192.521 137.954 193.06 138.747 C 193.447 139.317 193.764 140.106 193.764 140.5 C 193.764 140.934 194.093 141.532 194.597 142.015 C 195.056 142.454 195.43 142.984 195.43 143.194 C 195.43 143.8 197.743 146.565 198.264 146.581 C 198.523 146.59 199.128 147.167 199.608 147.864 C 200.555 149.24 202.527 151.163 203.762 151.915 C 204.189 152.174 204.747 152.739 205.003 153.171 C 205.26 153.602 206.283 154.436 207.279 155.023 C 208.701 155.862 209.059 156.204 208.95 156.619 C 208.855 156.981 209.065 157.329 209.612 157.718 C 210.079 158.051 210.549 158.745 210.74 159.384 C 211.002 160.256 211.203 160.482 211.72 160.482 C 212.23 160.482 212.37 160.331 212.37 159.779 C 212.37 159.392 212.569 159 212.812 158.907 C 213.307 158.715 216.269 160.033 217.354 160.927 C 217.743 161.25 218.562 161.604 219.173 161.716 C 220.753 162.006 220.979 162.29 220.979 163.987 C 220.979 165.78 221.019 165.79 224.147 164.748 C 226.258 164.045 226.434 164.03 228.591 164.36 C 229.826 164.549 231.275 164.66 231.809 164.606 L 232.78 164.509 L 232.861 162.25 C 232.926 160.426 233.045 159.899 233.486 159.5 C 234.195 158.859 234.178 158.321 233.447 158.21 C 232.88 158.124 232.865 157.993 232.896 153.539 C 232.921 149.84 233.018 148.787 233.392 148.076 C 233.784 147.33 233.799 147.125 233.481 146.743 C 233.237 146.449 233.126 145.686 233.166 144.569 L 233.225 142.848 L 231.615 141.275 C 229.837 139.538 228.76 139.103 226.241 139.101 C 224.566 139.099 224.033 138.783 224.033 137.791 L 224.033 137.151 L 239.377 137.222 L 254.719 137.294 L 254.719 137.957 C 254.719 138.823 254.272 139.037 252.043 139.243 C 249.543 139.475 247.129 140.866 246.346 142.527 C 245.893 143.487 245.848 143.886 246.074 144.9 C 246.288 145.867 246.263 146.182 245.947 146.427 C 245.729 146.597 245.594 147.041 245.649 147.414 C 245.705 147.811 245.561 148.228 245.301 148.419 C 244.904 148.709 244.901 148.784 245.274 149.093 C 245.623 149.383 245.694 150.39 245.694 155.09 L 245.694 160.74 L 244.727 161.396 L 243.76 162.053 L 244.588 162.847 C 245.055 163.295 245.416 163.929 245.416 164.305 C 245.416 164.956 245.458 164.967 247.29 164.827 C 252.111 164.457 257.993 162.924 260.796 161.307 C 262.121 160.543 263.035 160.204 263.779 160.204 C 264.698 160.204 264.94 160.066 265.478 159.235 C 265.976 158.465 266.286 158.266 266.989 158.263 C 267.702 158.261 268.025 158.046 268.655 157.155 C 269.085 156.548 269.667 156.048 269.948 156.045 C 270.23 156.041 271.415 155.157 272.583 154.082 C 274.611 152.213 274.755 152.132 275.752 152.301 L 276.796 152.478 L 276.796 151.438 C 276.796 150.511 277.055 150.131 279.226 147.873 C 280.562 146.484 281.966 144.885 282.345 144.321 C 282.724 143.757 283.317 143.166 283.663 143.008 C 284.018 142.846 284.294 142.474 284.294 142.156 C 284.294 141.181 286.016 138.832 286.735 138.826 C 287.297 138.822 287.364 138.697 287.309 137.771 C 287.261 136.955 287.627 135.99 288.964 133.413 C 289.908 131.594 290.682 129.786 290.684 129.395 C 290.686 129.005 291.063 127.498 291.522 126.047 C 292.488 122.998 293.45 117.302 293.455 114.611 C 293.458 113 293.531 112.731 294.013 112.578 C 294.814 112.325 294.766 110.993 293.943 110.632 C 293.354 110.373 293.309 110.144 293.137 106.608 C 293.036 104.546 292.949 102.252 292.943 101.509 C 292.937 100.762 292.758 99.956 292.541 99.704 C 292.107 99.201 291.236 95.932 291.236 94.807 C 291.236 94.413 290.986 93.6 290.681 93.001 C 290.375 92.402 290.125 91.399 290.125 90.772 C 290.125 89.473 289.729 88.558 289.166 88.558 C 288.956 88.558 288.557 87.965 288.279 87.239 C 287.716 85.763 284.762 81.17 282.34 78.005 C 280.54 75.652 276.921 72.071 274.435 70.183 C 271.734 68.131 266.177 64.398 265.823 64.398 C 265.311 64.398 264.577 63.444 264.577 62.779 C 264.577 62.064 264.932 62.033 266.556 62.604 C 268.137 63.161 274.432 66.617 277.004 68.341 C 278.549 69.377 279.018 69.843 279.018 70.343 C 279.018 70.82 279.261 71.093 279.921 71.358 C 280.416 71.558 281.931 72.791 283.286 74.1 C 285.221 75.968 286.504 77.609 289.274 81.754 C 294.647 89.798 295.68 91.611 295.68 93.006 C 295.68 93.945 295.862 94.386 296.587 95.189 C 297.301 95.979 297.728 96.988 298.586 99.908 C 299.594 103.344 299.641 103.646 299.204 103.965 C 298.528 104.46 298.623 105.358 299.388 105.706 C 299.916 105.947 300.165 106.48 300.672 108.458 C 301.229 110.625 301.318 111.797 301.438 118.463 C 301.567 125.663 301.548 126.049 301.022 126.793 C 300.719 127.223 300.151 128.211 299.76 128.987 L 299.048 130.4 L 299.772 131.125 L 300.497 131.849 L 299.488 134.571 C 298.934 136.068 297.982 138.731 297.374 140.487 C 294.011 150.197 292.109 153.432 285.337 160.967 C 281.807 164.897 280.961 165.426 280.961 163.709 C 280.961 162.881 280.317 161.866 279.996 162.187 C 279.57 162.614 279.439 163.764 279.681 164.949 C 279.946 166.246 279.922 166.347 279.15 167.154 C 278.212 168.132 270.523 173.477 268.882 174.292 C 268.271 174.595 267.396 174.931 266.938 175.038 C 266.479 175.145 264.912 175.843 263.454 176.588 C 261.841 177.412 260.242 178.016 259.37 178.133 C 258.515 178.246 257.746 178.534 257.465 178.844 C 257.118 179.227 256.609 179.365 255.545 179.365 C 254.736 179.365 253.558 179.597 252.88 179.89 C 252.212 180.18 250.384 180.575 248.818 180.769 L 245.972 181.122 L 245.972 185.639 C 245.972 190.006 245.951 190.171 245.339 190.661 C 244.66 191.204 244.644 192.118 245.309 192.501 C 246.159 192.991 245.45 203.238 244.423 205.283 C 244.204 205.718 244.028 206.863 244.028 207.841 C 244.028 209.562 243.998 209.634 243.041 210.285 L 242.054 210.955 L 242.763 211.134 C 243.195 211.242 243.472 211.507 243.472 211.811 C 243.472 212.087 242.986 214.739 242.392 217.707 C 241.798 220.675 241.021 225.508 240.668 228.448 C 240.133 232.903 239.951 233.794 239.58 233.794 C 239.218 233.794 238.918 232.611 237.981 227.477 L 237.981 227.477 Z " fill="rgb(234,234,234)"/><path d=" M 374.596 177.865 L 374.596 177.865 Q 330.425 177.865 330.425 142.212 L 330.425 142.212 L 330.425 71.222 L 330.425 71.222 Q 322.537 69.644 317.647 68.067 L 317.647 68.067 L 317.647 65.859 L 361.029 65.859 L 361.029 68.224 L 361.029 68.224 Q 356.297 69.802 348.409 71.222 L 348.409 71.222 L 348.409 144.105 L 348.409 144.105 Q 348.409 158.776 356.769 165.007 L 356.769 165.007 L 356.769 165.007 Q 365.131 171.239 379.014 171.239 L 379.014 171.239 L 379.014 171.239 Q 392.422 171.239 400.862 164.771 L 400.862 164.771 L 400.862 164.771 Q 409.303 158.303 409.303 144.105 L 409.303 144.105 L 409.303 71.065 L 409.303 71.065 Q 402.519 70.118 396.524 68.067 L 396.524 68.067 L 396.524 65.859 L 430.126 65.859 L 430.126 68.067 L 430.126 68.067 Q 422.87 70.433 417.19 71.38 L 417.19 71.38 L 417.19 142.212 L 417.19 142.212 Q 417.19 177.865 374.596 177.865 L 374.596 177.865 Z  M 542.25 170.923 L 542.25 170.923 Q 548.402 171.87 554.554 174.078 L 554.554 174.078 L 554.554 176.286 L 511.803 176.286 L 511.803 173.92 L 511.803 173.92 Q 517.64 171.712 524.581 170.923 L 524.581 170.923 L 516.378 147.733 L 470.313 147.733 L 461.952 171.08 L 461.952 171.08 Q 468.736 171.87 475.046 174.236 L 475.046 174.236 L 475.046 176.286 L 439.866 176.286 L 439.866 173.762 L 439.866 173.762 Q 442.707 172.817 446.256 171.87 L 446.256 171.87 L 446.256 171.87 Q 449.805 170.923 452.171 170.608 L 452.171 170.608 L 490.98 65.227 L 503.442 65.227 L 542.25 170.923 Z  M 472.68 141.424 L 514.169 141.424 L 493.504 83.211 L 472.68 141.424 Z  M 673.461 171.08 L 673.461 171.08 Q 680.718 172.343 686.871 174.078 L 686.871 174.078 L 686.871 176.286 L 658.317 176.286 L 616.828 122.335 L 604.839 135.113 L 604.839 171.08 L 604.839 171.08 Q 610.833 172.027 617.616 174.078 L 617.616 174.078 L 617.616 176.286 L 574.234 176.286 L 574.234 173.92 L 574.234 173.92 Q 577.546 172.974 581.018 172.106 L 581.018 172.106 L 581.018 172.106 Q 584.488 171.239 586.854 170.923 L 586.854 170.923 L 586.854 71.222 L 586.854 71.222 Q 578.493 69.487 574.234 68.067 L 574.234 68.067 L 574.234 65.859 L 617.616 65.859 L 617.616 68.224 L 617.616 68.224 Q 612.568 69.802 604.839 71.222 L 604.839 71.222 L 604.839 124.07 L 653.584 72.01 L 653.584 72.01 Q 651.849 70.591 645.539 69.644 L 645.539 69.644 L 641.437 68.856 L 641.437 65.859 L 674.882 65.859 L 674.882 68.856 L 674.882 68.856 Q 673.62 69.171 671.332 69.565 L 671.332 69.565 L 671.332 69.565 Q 669.044 69.959 667.309 70.512 L 667.309 70.512 L 667.309 70.512 Q 665.574 71.065 663.997 72.01 L 663.997 72.01 L 627.239 111.134 L 673.461 171.08 Z  M 788.898 151.835 L 793 151.835 L 790.476 176.286 L 706.707 176.286 L 706.707 173.92 L 706.707 173.92 Q 714.28 171.396 719.959 170.765 L 719.959 170.765 L 719.959 71.222 L 719.959 71.222 Q 714.438 70.433 706.707 68.067 L 706.707 68.067 L 706.707 65.859 L 790.633 65.859 L 790.633 90.468 L 786.532 90.468 L 786.532 90.468 Q 785.112 88.101 783.535 81.95 L 783.535 81.95 L 783.535 81.95 Q 781.957 75.797 781.641 72.326 L 781.641 72.326 L 737.944 72.326 L 737.944 119.495 L 769.021 119.495 L 769.021 119.495 Q 769.337 116.813 770.125 112.948 L 770.125 112.948 L 770.125 112.948 Q 770.914 109.084 772.019 106.244 L 772.019 106.244 L 775.016 106.244 L 775.016 139.215 L 772.019 139.215 L 772.019 139.215 Q 770.914 136.374 770.125 132.51 L 770.125 132.51 L 770.125 132.51 Q 769.337 128.645 769.021 125.963 L 769.021 125.963 L 737.944 125.963 L 737.944 169.976 L 782.272 169.976 L 782.272 169.976 Q 782.588 166.348 784.875 160.354 L 784.875 160.354 L 784.875 160.354 Q 787.163 154.359 788.898 151.835 L 788.898 151.835 Z " fill="rgb(234,234,234)"/></g></svg>