<?xml version="1.0" encoding="UTF-8" standalone="no"?><!-- Generator: Gravit.io --><svg xmlns="http://www.w3.org/2000/svg" xmlns:xlink="http://www.w3.org/1999/xlink" style="isolation:isolate" viewBox="0 0 992 250" width="992pt" height="250pt"><defs><clipPath id="_clipPath_LPtSNMrfHrHiBHAHpbYoZD5uKYAvOuaN"><rect width="992" height="250"/></clipPath></defs><g clip-path="url(#_clipPath_LPtSNMrfHrHiBHAHpbYoZD5uKYAvOuaN)"><path d=" M 305.477 173.589 L 305.477 173.589 Q 263.23 173.589 263.23 139.49 L 263.23 139.49 L 263.23 71.593 L 263.23 71.593 Q 255.686 70.084 251.009 68.575 L 251.009 68.575 L 251.009 66.463 L 292.501 66.463 L 292.501 68.726 L 292.501 68.726 Q 287.975 70.235 280.431 71.593 L 280.431 71.593 L 280.431 141.3 L 280.431 141.3 Q 280.431 155.332 288.427 161.292 L 288.427 161.292 L 288.427 161.292 Q 296.424 167.252 309.701 167.252 L 309.701 167.252 L 309.701 167.252 Q 322.526 167.252 330.598 161.066 L 330.598 161.066 L 330.598 161.066 Q 338.671 154.88 338.671 141.3 L 338.671 141.3 L 338.671 71.442 L 338.671 71.442 Q 332.183 70.537 326.449 68.575 L 326.449 68.575 L 326.449 66.463 L 358.588 66.463 L 358.588 68.575 L 358.588 68.575 Q 351.647 70.838 346.215 71.744 L 346.215 71.744 L 346.215 139.49 L 346.215 139.49 Q 346.215 173.589 305.477 173.589 L 305.477 173.589 Z  M 468.121 166.95 L 468.121 166.95 Q 474.006 167.856 479.89 169.968 L 479.89 169.968 L 479.89 172.08 L 439.001 172.08 L 439.001 169.817 L 439.001 169.817 Q 444.584 167.704 451.223 166.95 L 451.223 166.95 L 443.377 144.77 L 399.319 144.77 L 391.323 167.101 L 391.323 167.101 Q 397.81 167.856 403.845 170.119 L 403.845 170.119 L 403.845 172.08 L 370.199 172.08 L 370.199 169.666 L 370.199 169.666 Q 372.915 168.761 376.31 167.856 L 376.31 167.856 L 376.31 167.856 Q 379.705 166.95 381.968 166.648 L 381.968 166.648 L 419.085 65.859 L 431.005 65.859 L 468.121 166.95 Z  M 401.582 138.735 L 441.264 138.735 L 421.499 83.06 L 401.582 138.735 Z  M 595.912 167.101 L 595.912 167.101 Q 602.853 168.308 608.737 169.968 L 608.737 169.968 L 608.737 172.08 L 581.427 172.08 L 541.745 120.479 L 530.279 132.7 L 530.279 167.101 L 530.279 167.101 Q 536.012 168.006 542.5 169.968 L 542.5 169.968 L 542.5 172.08 L 501.007 172.08 L 501.007 169.817 L 501.007 169.817 Q 504.176 168.912 507.495 168.082 L 507.495 168.082 L 507.495 168.082 Q 510.815 167.252 513.078 166.95 L 513.078 166.95 L 513.078 71.593 L 513.078 71.593 Q 505.081 69.933 501.007 68.575 L 501.007 68.575 L 501.007 66.463 L 542.5 66.463 L 542.5 68.726 L 542.5 68.726 Q 537.671 70.235 530.279 71.593 L 530.279 71.593 L 530.279 122.138 L 576.901 72.348 L 576.901 72.348 Q 575.241 70.989 569.206 70.084 L 569.206 70.084 L 565.283 69.329 L 565.283 66.463 L 597.27 66.463 L 597.27 69.329 L 597.27 69.329 Q 596.063 69.632 593.875 70.009 L 593.875 70.009 L 593.875 70.009 Q 591.687 70.386 590.028 70.914 L 590.028 70.914 L 590.028 70.914 Q 588.368 71.442 586.859 72.348 L 586.859 72.348 L 551.703 109.766 L 595.912 167.101 Z  M 708.614 148.693 L 712.537 148.693 L 710.123 172.08 L 630.005 172.08 L 630.005 169.817 L 630.005 169.817 Q 637.247 167.403 642.679 166.799 L 642.679 166.799 L 642.679 71.593 L 642.679 71.593 Q 637.398 70.838 630.005 68.575 L 630.005 68.575 L 630.005 66.463 L 710.274 66.463 L 710.274 90 L 706.351 90 L 706.351 90 Q 704.993 87.737 703.484 81.853 L 703.484 81.853 L 703.484 81.853 Q 701.976 75.968 701.673 72.649 L 701.673 72.649 L 659.879 72.649 L 659.879 117.762 L 689.603 117.762 L 689.603 117.762 Q 689.905 115.198 690.659 111.501 L 690.659 111.501 L 690.659 111.501 Q 691.414 107.804 692.47 105.088 L 692.47 105.088 L 695.337 105.088 L 695.337 136.623 L 692.47 136.623 L 692.47 136.623 Q 691.414 133.907 690.659 130.211 L 690.659 130.211 L 690.659 130.211 Q 689.905 126.514 689.603 123.948 L 689.603 123.948 L 659.879 123.948 L 659.879 166.045 L 702.277 166.045 L 702.277 166.045 Q 702.579 162.574 704.766 156.841 L 704.766 156.841 L 704.766 156.841 Q 706.955 151.108 708.614 148.693 L 708.614 148.693 Z " fill="rgb(234,234,234)"/><path d=" M 771.466 172.08 L 771.466 169.817 L 771.466 169.817 Q 777.502 168.006 783.688 166.95 L 783.688 166.95 L 783.688 71.593 L 783.688 71.593 Q 778.708 70.838 771.466 68.575 L 771.466 68.575 L 771.466 66.463 L 813.11 66.463 L 813.11 68.726 L 813.11 68.726 Q 808.734 70.235 800.888 71.593 L 800.888 71.593 L 800.888 167.101 L 800.888 167.101 Q 806.924 168.006 813.11 169.968 L 813.11 169.968 L 813.11 172.08 L 771.466 172.08 Z  M 839.357 172.08 L 839.357 169.817 L 839.357 169.817 Q 845.392 168.006 851.579 166.95 L 851.579 166.95 L 851.579 71.593 L 851.579 71.593 Q 846.599 70.838 839.357 68.575 L 839.357 68.575 L 839.357 66.463 L 881 66.463 L 881 68.726 L 881 68.726 Q 876.625 70.235 868.779 71.593 L 868.779 71.593 L 868.779 167.101 L 868.779 167.101 Q 874.814 168.006 881 169.968 L 881 169.968 L 881 172.08 L 839.357 172.08 Z " fill="rgb(234,234,234)"/><path d=" M 166.498 141.39 L 159.658 141.358 L 144.599 141.288 L 144.599 141.917 C 144.599 142.89 145.123 143.2 146.767 143.201 C 149.239 143.204 150.295 143.632 152.04 145.336 L 153.621 146.88 L 153.562 148.569 C 153.525 149.665 153.633 150.415 153.872 150.703 C 154.183 151.077 154.17 151.28 153.785 152.011 C 153.417 152.709 153.323 153.742 153.298 157.373 C 153.267 161.744 153.282 161.872 153.839 161.957 C 154.557 162.066 154.573 162.593 153.877 163.223 C 153.468 163.593 153.34 164.076 153.275 165.649 C 153.046 165.546 152.733 165.473 152.329 165.399 C 151.729 165.288 150.925 164.94 150.542 164.624 C 149.478 163.747 146.571 162.454 146.085 162.641 C 145.846 162.732 145.651 163.118 145.651 163.497 C 145.651 164.039 145.514 164.187 145.013 164.187 C 144.506 164.187 144.308 163.965 144.052 163.11 C 143.864 162.482 143.403 161.801 142.944 161.475 C 142.407 161.092 142.202 160.751 142.295 160.396 C 142.402 159.988 142.05 159.653 140.654 158.829 C 139.677 158.253 138.672 157.435 138.421 157.012 C 138.169 156.588 137.622 156.033 137.204 155.779 C 135.991 155.041 134.055 153.153 133.126 151.803 C 132.655 151.119 132.062 150.552 131.806 150.544 C 131.295 150.527 129.025 147.814 129.025 147.219 C 129.025 147.013 128.657 146.493 128.208 146.062 C 127.713 145.588 127.39 145.001 127.39 144.576 C 127.39 144.188 127.079 143.415 126.699 142.855 C 126.17 142.076 125.824 141.838 125.224 141.838 C 124.473 141.838 124.452 141.804 124.735 141.055 C 124.977 140.414 124.917 139.969 124.402 138.593 C 124.056 137.669 123.506 136.703 123.178 136.444 C 122.768 136.122 122.475 135.423 122.238 134.205 C 121.985 132.898 121.681 132.211 121.075 131.579 C 120.559 131.04 120.366 130.657 120.552 130.542 C 120.716 130.44 120.849 129.947 120.849 129.444 C 120.849 128.32 119.481 127.005 118.505 127.192 C 118.077 127.273 117.853 127.157 117.761 126.806 C 117.686 126.519 117.773 126.302 117.962 126.302 C 118.145 126.302 118.643 125.938 119.069 125.493 L 119.844 124.685 L 119.529 122.427 C 119.354 121.185 119.213 118.858 119.213 117.256 C 119.214 115.483 119.1 114.271 118.923 114.162 C 118.762 114.063 118.712 113.78 118.81 113.532 C 119.293 112.311 120.032 107.499 120.032 105.569 C 120.032 103.784 120.154 103.146 120.713 102.045 C 121.088 101.305 121.394 100.322 121.394 99.859 C 121.394 99.396 121.7 98.566 122.075 98.015 C 122.45 97.464 122.757 96.624 122.757 96.15 C 122.757 95.675 123.062 94.752 123.435 94.101 C 123.808 93.448 124.114 92.754 124.116 92.557 C 124.118 92.361 124.549 91.638 125.074 90.951 C 125.598 90.264 126.028 89.46 126.028 89.165 C 126.028 88.869 126.651 87.908 127.413 87.029 C 128.174 86.15 128.879 85.129 128.98 84.762 C 129.168 84.069 133.524 79.423 133.984 79.423 C 134.127 79.423 134.201 79.209 134.15 78.946 C 134.083 78.608 134.934 77.802 137.06 76.185 C 138.712 74.929 140.438 73.58 140.896 73.187 C 141.353 72.794 143.037 71.799 144.639 70.974 C 147.507 69.497 147.96 69.031 147.232 68.303 C 146.647 67.717 145.734 67.951 142.604 69.487 C 138.272 71.614 136.39 72.868 136.387 73.631 C 136.385 74.139 136.233 74.246 135.499 74.253 C 134.526 74.262 133.114 75.301 133.114 76.006 C 133.114 76.247 132.491 76.742 131.683 77.146 C 130.731 77.621 129.767 78.442 128.805 79.596 C 127.752 80.859 127.177 81.331 126.693 81.331 C 126.142 81.331 126.028 81.466 126.028 82.117 C 126.028 82.688 125.73 83.172 124.937 83.888 C 124.338 84.43 123.847 85.121 123.847 85.424 C 123.847 85.744 123.569 86.103 123.186 86.277 C 122.529 86.577 122.162 87.396 122.105 88.69 C 122.083 89.211 121.909 89.39 121.364 89.453 C 120.566 89.547 119.963 90.444 119.963 91.537 C 119.963 91.93 119.764 92.4 119.52 92.583 C 118.932 93.023 117.168 95.751 116.969 96.525 C 116.883 96.863 116.923 97.207 117.059 97.291 C 117.195 97.375 117.306 97.804 117.306 98.245 C 117.306 98.904 117.192 99.047 116.668 99.047 C 115.865 99.047 115.398 100.005 115.398 101.655 C 115.398 102.666 115.29 102.923 114.765 103.162 C 114.247 103.398 114.014 103.932 113.484 106.087 C 113.128 107.536 112.871 108.895 112.913 109.108 C 112.955 109.32 112.864 109.749 112.711 110.062 C 112.027 111.458 111.02 118.162 111.393 118.83 C 111.554 119.118 111.544 119.344 111.363 119.455 C 111.032 119.66 110.855 123.061 111.15 123.538 C 111.26 123.717 111.317 124.406 111.276 125.069 C 111.221 125.95 111.342 126.431 111.722 126.851 C 112.166 127.342 112.184 127.462 111.844 127.677 C 111.625 127.816 111.35 127.931 111.232 127.933 C 111.114 127.936 111.153 128.189 111.317 128.497 C 111.483 128.805 111.59 129.97 111.558 131.086 C 111.511 132.698 111.597 133.226 111.977 133.645 C 112.373 134.082 112.419 134.425 112.243 135.621 C 111.958 137.566 112.04 138.059 112.967 140.021 C 113.442 141.025 113.763 142.151 113.763 142.817 C 113.763 143.582 113.932 144.086 114.301 144.42 C 114.597 144.689 114.911 145.168 115 145.485 C 115.088 145.802 115.919 147.647 116.847 149.582 C 118.224 152.458 118.801 153.356 120.001 154.488 C 120.945 155.378 121.785 156.526 122.349 157.696 C 122.906 158.852 124.262 160.713 126.059 162.787 C 128.661 165.792 128.967 166.057 129.857 166.076 C 130.584 166.09 131.034 166.316 131.657 166.98 C 133.215 168.644 134.416 170.453 134.595 171.409 C 134.767 172.326 134.821 172.364 135.956 172.364 C 136.976 172.364 137.267 172.504 138.067 173.386 C 138.579 173.948 140.345 175.296 141.995 176.383 C 144.751 178.2 145.109 178.36 146.412 178.36 C 147.222 178.36 147.832 178.237 147.832 178.073 C 147.832 177.897 148.434 177.819 149.399 177.869 L 150.966 177.951 L 151.047 179.318 L 151.126 180.685 L 153.083 181.338 L 153.061 184.2 L 152.987 188.843 L 152.912 193.486 L 153.845 194.031 C 155.102 194.765 155.229 195.258 154.161 195.258 C 153.681 195.258 153.314 195.403 153.303 195.599 C 153.106 199.328 154.697 210.291 158.288 229.94 L 158.288 229.94 C 159.209 234.979 159.503 236.141 159.858 236.141 C 160.223 236.141 160.401 235.266 160.927 230.894 C 161.273 228.008 162.035 223.265 162.618 220.352 C 163.201 217.439 163.678 214.835 163.678 214.566 C 163.678 214.266 163.406 214.006 162.983 213.9 L 162.286 213.725 L 163.255 213.067 C 164.194 212.428 164.223 212.358 164.223 210.669 C 164.223 209.709 164.397 208.584 164.611 208.158 C 165.619 206.152 166.315 196.093 165.48 195.612 C 164.828 195.237 164.843 194.34 165.51 193.807 C 166.111 193.327 166.131 193.164 166.131 188.877 L 166.131 184.444 Q 166.118 184.072 166.106 183.708 L 174.963 183.933 L 174.961 184.2 L 174.886 188.843 L 174.812 193.486 L 175.744 194.031 C 177.001 194.765 177.128 195.258 176.061 195.258 C 175.58 195.258 175.213 195.403 175.202 195.599 C 175.006 199.328 176.596 210.291 180.188 229.94 L 180.188 229.94 C 181.108 234.979 181.402 236.141 181.758 236.141 C 182.122 236.141 182.3 235.266 182.826 230.894 C 183.172 228.008 183.934 223.265 184.517 220.352 C 185.1 217.439 185.577 214.835 185.577 214.566 C 185.577 214.266 185.306 214.006 184.882 213.9 L 184.186 213.725 L 185.154 213.067 C 186.093 212.428 186.122 212.358 186.122 210.669 C 186.122 209.709 186.296 208.584 186.51 208.158 C 187.518 206.152 188.215 196.093 187.379 195.612 C 186.728 195.237 186.743 194.34 187.409 193.807 C 188.01 193.327 188.03 193.164 188.03 188.877 L 188.03 184.444 Q 188 183.558 187.971 182.72 C 187.989 182.72 188.007 182.72 188.025 182.72 C 189.071 182.72 189.571 182.585 189.911 182.209 C 190.186 181.904 190.941 181.622 191.78 181.511 C 192.636 181.397 194.206 180.803 195.789 179.995 C 197.219 179.263 198.758 178.579 199.208 178.474 C 199.658 178.368 200.516 178.039 201.116 177.741 C 202.728 176.941 210.274 171.695 211.194 170.735 C 211.952 169.943 211.975 169.844 211.715 168.571 C 211.477 167.408 211.605 166.28 212.024 165.861 C 212.34 165.546 212.972 166.542 212.972 167.355 C 212.972 169.04 213.801 168.52 217.267 164.664 C 223.913 157.268 225.779 154.092 229.08 144.563 C 229.677 142.839 230.611 140.226 231.155 138.756 L 232.145 136.085 L 231.434 135.374 L 230.723 134.663 L 231.422 133.276 C 231.806 132.513 232.364 131.545 232.661 131.123 C 233.176 130.392 233.195 130.014 233.069 122.946 C 232.952 116.405 232.863 115.254 232.318 113.127 C 231.819 111.187 231.574 110.662 231.057 110.426 C 230.305 110.084 230.212 109.203 230.877 108.717 C 231.305 108.404 231.259 108.108 230.268 104.735 C 229.427 101.87 229.008 100.88 228.308 100.104 C 227.597 99.317 227.417 98.884 227.417 97.961 C 227.417 96.593 226.404 94.812 221.13 86.919 C 218.412 82.849 217.152 81.24 215.253 79.405 C 213.923 78.122 212.437 76.911 211.95 76.715 C 211.303 76.455 211.063 76.186 211.063 75.719 C 211.063 75.228 210.604 74.77 209.088 73.755 C 206.563 72.063 200.386 68.67 198.833 68.123 C 197.239 67.562 196.891 67.593 196.891 68.295 C 196.891 68.948 197.611 69.884 198.114 69.884 C 198.461 69.884 203.915 73.548 206.567 75.561 C 209.006 77.414 212.558 80.93 214.326 83.239 C 216.703 86.345 219.602 90.853 220.154 92.301 C 220.426 93.013 220.817 93.596 221.025 93.596 C 221.577 93.596 221.966 94.494 221.966 95.769 C 221.966 96.385 222.211 97.369 222.511 97.956 C 222.81 98.545 223.056 99.342 223.056 99.729 C 223.056 100.834 223.91 104.042 224.336 104.536 C 224.55 104.783 224.725 105.573 224.731 106.308 C 224.737 107.036 224.822 109.288 224.921 111.312 C 225.09 114.783 225.135 115.007 225.713 115.26 C 226.52 115.615 226.567 116.922 225.781 117.172 C 225.309 117.322 225.236 117.585 225.234 119.166 C 225.229 121.807 224.285 127.398 223.337 130.39 C 222.886 131.814 222.516 133.293 222.514 133.676 C 222.512 134.059 221.753 135.835 220.826 137.621 C 219.514 140.149 219.154 141.095 219.201 141.898 C 219.255 142.806 219.188 142.929 218.638 142.933 C 217.932 142.938 216.242 145.244 216.242 146.201 C 216.242 146.513 215.971 146.878 215.624 147.037 C 215.284 147.192 214.701 147.771 214.329 148.326 C 213.958 148.88 212.58 150.449 211.268 151.812 C 209.137 154.028 208.883 154.401 208.883 155.312 L 208.883 156.331 L 207.859 156.158 C 206.88 155.992 206.738 156.072 204.749 157.906 C 203.602 158.962 202.438 159.829 202.162 159.832 C 201.887 159.835 201.315 160.326 200.894 160.922 C 200.275 161.796 199.958 162.007 199.258 162.01 C 198.567 162.012 198.264 162.208 197.775 162.964 C 197.246 163.779 197.009 163.914 196.107 163.914 C 195.378 163.914 194.48 164.246 193.18 164.997 C 191.79 165.799 189.63 166.579 187.215 167.198 C 187.078 166.958 186.887 166.713 186.672 166.508 L 185.86 165.73 L 186.809 165.085 L 187.758 164.44 L 187.758 158.895 C 187.758 154.282 187.689 153.295 187.346 153.009 C 186.98 152.706 186.983 152.633 187.372 152.348 C 187.628 152.16 187.77 151.751 187.714 151.362 C 187.66 150.995 187.792 150.559 188.007 150.393 C 188.316 150.152 188.341 149.843 188.13 148.893 C 187.909 147.899 187.954 147.506 188.398 146.564 C 189.166 144.935 191.535 143.569 193.989 143.343 C 196.177 143.14 196.616 142.929 196.616 142.08 L 196.616 141.428 L 181.558 141.358 L 166.498 141.288 L 166.498 141.39 Z  M 171.169 143.489 C 169.063 143.919 167.17 145.141 166.498 146.564 C 166.054 147.506 166.009 147.899 166.231 148.893 C 166.442 149.843 166.417 150.152 166.108 150.393 C 165.893 150.559 165.762 150.995 165.814 151.362 C 165.871 151.751 165.729 152.16 165.472 152.348 C 165.083 152.633 165.08 152.706 165.447 153.009 C 165.789 153.295 165.859 154.282 165.859 158.895 L 165.859 164.44 L 164.909 165.085 L 163.961 165.73 L 164.773 166.508 C 165.233 166.947 165.586 167.571 165.586 167.94 Q 165.586 168.009 165.593 168.257 Q 171.553 168.412 175.081 168.464 L 175.084 168.139 L 175.163 165.923 C 175.226 164.132 175.344 163.615 175.776 163.223 C 176.472 162.593 176.456 162.066 175.738 161.957 C 175.182 161.872 175.166 161.744 175.197 157.373 C 175.223 153.742 175.316 152.709 175.684 152.011 C 176.069 151.28 176.083 151.077 175.771 150.703 C 175.533 150.415 175.424 149.665 175.462 148.569 L 175.52 146.88 L 173.939 145.336 C 172.921 144.341 172.138 143.782 171.169 143.489 Z " fill-rule="evenodd" fill="rgb(234,234,234)"/></g></svg>