<?xml version="1.0" encoding="UTF-8" standalone="no"?><!-- Generator: Gravit.io --><svg xmlns="http://www.w3.org/2000/svg" xmlns:xlink="http://www.w3.org/1999/xlink" style="isolation:isolate" viewBox="0 0 992 250" width="992pt" height="250pt"><defs><clipPath id="_clipPath_PfK3HGhg1UysOCJ2HdCQis3yQ7EvvDI0"><rect width="992" height="250"/></clipPath></defs><g clip-path="url(#_clipPath_PfK3HGhg1UysOCJ2HdCQis3yQ7EvvDI0)"><path d=" M 283.531 180.846 L 283.531 180.846 Q 237.871 180.846 237.871 143.992 L 237.871 143.992 L 237.871 70.61 L 237.871 70.61 Q 229.717 68.979 224.662 67.349 L 224.662 67.349 L 224.662 65.066 L 269.506 65.066 L 269.506 67.512 L 269.506 67.512 Q 264.614 69.142 256.461 70.61 L 256.461 70.61 L 256.461 145.949 L 256.461 145.949 Q 256.461 161.114 265.104 167.556 L 265.104 167.556 L 265.104 167.556 Q 273.746 173.997 288.096 173.997 L 288.096 173.997 L 288.096 173.997 Q 301.958 173.997 310.682 167.311 L 310.682 167.311 L 310.682 167.311 Q 319.406 160.625 319.406 145.949 L 319.406 145.949 L 319.406 70.447 L 319.406 70.447 Q 312.394 69.469 306.197 67.349 L 306.197 67.349 L 306.197 65.066 L 340.931 65.066 L 340.931 67.349 L 340.931 67.349 Q 333.43 69.795 327.56 70.773 L 327.56 70.773 L 327.56 143.992 L 327.56 143.992 Q 327.56 180.846 283.531 180.846 L 283.531 180.846 Z  M 459.314 173.671 L 459.314 173.671 Q 465.674 174.649 472.034 176.932 L 472.034 176.932 L 472.034 179.215 L 427.842 179.215 L 427.842 176.769 L 427.842 176.769 Q 433.875 174.486 441.05 173.671 L 441.05 173.671 L 432.571 149.699 L 384.954 149.699 L 376.311 173.834 L 376.311 173.834 Q 383.323 174.649 389.846 177.095 L 389.846 177.095 L 389.846 179.215 L 353.481 179.215 L 353.481 176.606 L 353.481 176.606 Q 356.417 175.628 360.086 174.649 L 360.086 174.649 L 360.086 174.649 Q 363.755 173.671 366.201 173.345 L 366.201 173.345 L 406.316 64.413 L 419.199 64.413 L 459.314 173.671 Z  M 387.4 143.177 L 430.288 143.177 L 408.925 83.003 L 387.4 143.177 Z  M 597.429 173.834 L 597.429 173.834 Q 604.93 175.138 611.29 176.932 L 611.29 176.932 L 611.29 179.215 L 581.774 179.215 L 538.886 123.445 L 526.493 136.654 L 526.493 173.834 L 526.493 173.834 Q 532.69 174.812 539.702 176.932 L 539.702 176.932 L 539.702 179.215 L 494.857 179.215 L 494.857 176.769 L 494.857 176.769 Q 498.282 175.791 501.869 174.894 L 501.869 174.894 L 501.869 174.894 Q 505.457 173.997 507.903 173.671 L 507.903 173.671 L 507.903 70.61 L 507.903 70.61 Q 499.26 68.816 494.857 67.349 L 494.857 67.349 L 494.857 65.066 L 539.702 65.066 L 539.702 67.512 L 539.702 67.512 Q 534.483 69.142 526.493 70.61 L 526.493 70.61 L 526.493 125.239 L 576.882 71.425 L 576.882 71.425 Q 575.088 69.958 568.565 68.979 L 568.565 68.979 L 564.325 68.164 L 564.325 65.066 L 598.896 65.066 L 598.896 68.164 L 598.896 68.164 Q 597.592 68.49 595.227 68.898 L 595.227 68.898 L 595.227 68.898 Q 592.863 69.305 591.069 69.876 L 591.069 69.876 L 591.069 69.876 Q 589.275 70.447 587.645 71.425 L 587.645 71.425 L 549.649 111.867 L 597.429 173.834 Z  M 719.236 153.939 L 723.476 153.939 L 720.867 179.215 L 634.276 179.215 L 634.276 176.769 L 634.276 176.769 Q 642.104 174.16 647.974 173.508 L 647.974 173.508 L 647.974 70.61 L 647.974 70.61 Q 642.267 69.795 634.276 67.349 L 634.276 67.349 L 634.276 65.066 L 721.03 65.066 L 721.03 90.505 L 716.79 90.505 L 716.79 90.505 Q 715.322 88.059 713.692 81.699 L 713.692 81.699 L 713.692 81.699 Q 712.061 75.339 711.735 71.752 L 711.735 71.752 L 666.564 71.752 L 666.564 120.51 L 698.689 120.51 L 698.689 120.51 Q 699.015 117.737 699.831 113.742 L 699.831 113.742 L 699.831 113.742 Q 700.646 109.747 701.788 106.812 L 701.788 106.812 L 704.886 106.812 L 704.886 140.894 L 701.788 140.894 L 701.788 140.894 Q 700.646 137.958 699.831 133.963 L 699.831 133.963 L 699.831 133.963 Q 699.015 129.968 698.689 127.196 L 698.689 127.196 L 666.564 127.196 L 666.564 172.692 L 712.387 172.692 L 712.387 172.692 Q 712.713 168.942 715.078 162.745 L 715.078 162.745 L 715.078 162.745 Q 717.442 156.548 719.236 153.939 L 719.236 153.939 Z " fill="rgb(234,234,234)"/><path d=" M 100.97 140.617 C 100.97 140.617 100.97 140.39 100.742 140.39 C 100.742 140.163 100.742 140.163 100.513 139.936 C 100.056 139.706 99.373 139.706 98.686 139.936 L 98.686 140.39 C 98.002 140.617 97.316 140.847 96.632 140.39 C 96.405 140.39 95.946 140.163 95.721 140.163 C 95.492 139.476 94.352 139.706 93.668 139.936 C 93.668 139.936 93.438 139.936 93.438 140.163 C 93.211 140.163 92.751 140.163 92.525 140.163 C 92.068 139.936 91.611 139.706 91.154 139.706 C 90.468 139.476 89.557 141.303 88.644 141.76 C 88.414 141.76 87.958 139.706 87.73 139.706 C 87.504 139.476 87.274 139.476 87.044 139.476 C 86.815 139.476 86.361 139.476 86.133 139.476 C 84.764 139.25 83.393 139.25 82.023 139.25 C 81.11 139.023 80.197 139.023 79.513 139.25 C 79.286 139.25 79.057 139.023 79.057 139.25 C 78.829 139.25 78.6 139.25 78.37 139.25 C 78.143 139.25 77.913 139.023 77.686 139.023 C 77.456 139.023 77.456 139.023 77.456 139.023 C 77.23 139.023 77.23 139.023 77.23 139.023 C 76.543 138.796 76.087 138.796 75.403 138.796 C 74.262 138.569 72.892 138.569 71.749 138.569 C 71.749 138.569 71.522 138.569 71.522 138.796 C 71.066 138.796 70.609 138.796 69.923 138.569 C 69.466 138.569 69.239 138.569 68.783 138.341 C 68.783 138.341 68.555 138.112 68.325 138.112 C 68.325 138.112 68.098 138.112 67.869 138.112 C 65.585 137.655 63.532 137.425 61.248 137.199 C 61.019 137.199 60.792 137.199 60.338 137.199 C 59.195 136.972 58.051 136.972 56.911 136.972 C 56.684 136.972 56.684 136.972 56.454 137.199 C 55.998 136.972 55.768 138.112 55.541 138.112 C 55.313 137.885 55.085 136.514 54.855 136.742 C 54.855 136.742 54.855 136.742 54.627 136.742 C 54.398 136.742 53.941 136.514 53.484 136.514 C 53.484 136.514 53.258 136.514 53.258 136.285 C 53.03 136.058 52.574 136.285 52.344 136.285 C 52.117 136.285 51.887 136.285 51.661 136.285 C 51.433 136.285 51.204 136.058 50.974 135.828 C 50.744 135.828 50.744 136.058 50.518 136.058 L 50.518 136.285 C 50.29 136.285 50.29 136.285 50.29 136.285 C 49.604 136.285 49.147 135.372 48.461 135.372 C 46.866 134.915 45.267 134.685 43.67 134.459 C 42.759 134.231 41.843 134.002 40.702 134.002 C 40.476 134.002 40.476 134.229 40.246 134.459 C 40.246 134.459 40.246 134.459 40.018 134.459 C 39.332 134.459 38.421 134.231 37.735 133.775 C 37.508 133.775 37.508 133.775 37.508 133.775 C 37.508 133.775 37.508 133.775 37.281 133.775 C 36.595 133.088 35.911 132.634 35.455 132.404 C 34.997 132.178 34.544 131.948 33.857 131.948 C 33.63 131.948 33.171 131.721 32.717 131.721 C 32.717 131.721 32.717 131.721 32.49 131.721 C 32.26 131.493 31.803 131.267 31.577 131.037 C 31.12 131.037 30.89 130.807 30.436 130.807 C 30.209 130.807 29.98 130.58 29.75 130.58 C 29.52 130.58 29.293 130.58 29.066 130.58 C 28.609 130.124 28.153 129.667 27.696 129.21 C 27.01 128.983 26.782 128.754 26.326 128.524 C 25.869 128.524 25.642 132.634 25.413 132.634 C 25.185 132.634 24.955 128.297 24.955 128.297 C 24.499 128.067 24.499 128.297 24.269 128.297 C 24.04 128.297 24.042 128.297 24.042 128.297 C 23.129 127.605 22.443 126.922 22.672 125.779 C 21.303 124.639 21.759 123.725 22.216 122.812 C 22.443 122.352 23.586 121.669 24.042 121.215 C 24.729 120.301 25.64 119.845 26.553 119.388 C 27.01 118.931 27.923 118.702 28.607 118.474 C 29.976 118.018 30.89 117.331 32.258 116.877 C 33.628 116.421 34.997 116.421 36.138 115.737 C 36.595 115.51 37.281 115.28 37.735 115.05 C 39.332 114.367 40.929 114.594 42.529 114.367 C 43.899 113.911 45.269 113.681 46.64 113.453 C 46.866 113.453 47.323 112.997 47.323 112.77 C 47.55 112.542 48.009 112.084 47.55 112.084 C 47.78 111.856 47.094 111.627 47.094 111.627 C 47.094 111.4 46.64 111.17 46.41 111.4 C 45.497 111.627 44.583 111.4 43.899 111.627 C 43.67 111.854 43.442 112.31 43.213 112.084 C 42.3 111.856 41.616 112.084 40.702 112.54 C 40.246 112.54 39.562 112.31 38.876 112.997 C 38.876 112.997 38.649 112.77 38.419 112.77 C 36.592 112.542 34.765 113.227 32.942 113.683 C 32.714 113.683 32.485 114.597 32.255 114.369 C 31.345 113.683 30.658 113.913 30.201 114.826 C 29.972 114.826 29.972 114.826 29.972 114.826 L 29.744 114.826 C 29.518 114.826 29.288 114.597 29.288 114.597 C 27.691 114.369 26.094 114.826 24.951 115.51 C 24.494 115.737 24.951 116.423 24.723 116.65 C 24.267 116.65 24.037 116.65 23.581 116.65 C 23.354 116.423 23.124 116.423 22.897 116.423 C 21.984 115.966 21.071 116.88 20.157 117.793 C 20.157 117.793 20.157 117.793 19.93 117.793 C 19.702 117.337 19.016 117.337 18.56 117.567 C 16.276 118.707 13.995 120.077 12.398 122.13 C 11.939 122.816 11.712 123.271 11.485 124.187 C 11.029 124.643 11.942 125.557 11.485 126.011 C 11.485 126.24 11.258 126.468 11.029 126.468 C 11.029 127.381 11.485 128.065 11.712 128.751 C 11.939 129.438 12.398 129.894 12.855 130.578 C 13.082 131.265 13.766 131.718 14.452 131.948 C 14.909 132.178 15.139 132.404 15.822 132.634 C 15.822 132.862 15.822 133.091 16.05 133.318 C 16.506 134.231 17.647 134.688 18.56 135.372 C 19.246 135.828 19.702 136.058 20.157 136.514 C 20.613 136.742 21.071 136.742 21.297 136.972 C 21.527 137.199 21.754 137.428 21.984 137.428 C 22.211 137.655 22.44 137.655 22.44 137.428 C 22.897 137.655 23.354 137.885 23.81 138.115 C 24.267 138.571 24.951 139.028 25.637 139.255 C 25.637 139.482 25.864 139.482 25.864 139.712 C 26.55 139.942 27.005 139.712 27.691 139.942 L 27.918 139.942 C 28.145 140.168 28.604 140.395 28.831 140.395 C 29.061 140.622 29.518 140.852 29.972 141.081 C 30.201 141.309 30.658 141.539 31.115 141.765 C 31.115 141.765 31.341 141.765 31.571 141.995 C 32.255 142.222 33.396 141.995 34.082 142.452 C 34.309 142.679 34.539 143.136 34.765 143.136 C 35.222 143.362 35.679 143.592 35.906 143.592 C 37.733 144.962 40.016 145.189 42.07 145.876 C 43.213 146.332 44.581 146.102 45.723 146.332 L 45.723 146.56 C 46.18 146.56 46.637 146.786 47.094 147.016 C 47.78 147.243 48.463 147.702 49.15 147.929 C 51.887 148.615 54.4 149.07 56.911 149.756 C 58.737 150.212 60.338 150.212 62.161 150.67 C 63.302 150.897 64.218 151.356 65.585 151.356 C 66.042 151.129 66.726 150.67 67.182 150.899 C 67.41 151.129 67.639 151.129 67.869 151.356 C 68.096 151.356 68.096 151.356 68.096 151.583 L 68.553 151.583 C 71.063 152.496 74.03 152.953 76.77 152.953 C 77.227 152.726 77.684 152.726 78.14 152.496 C 78.827 152.039 79.053 150.67 79.967 150.442 L 80.194 151.129 C 80.422 151.356 80.422 151.356 80.422 151.585 C 80.422 151.815 80.422 152.042 80.651 152.042 C 80.878 152.269 81.108 152.728 81.337 152.955 L 81.564 152.955 L 81.791 153.182 C 82.705 153.412 83.618 153.639 84.532 153.639 C 85.445 153.412 86.129 153.182 86.815 153.412 L 88.185 153.412 C 88.185 153.639 88.412 153.639 88.412 153.639 C 88.869 153.639 89.325 153.639 89.782 154.096 C 90.012 154.553 90.239 154.779 90.468 155.237 L 90.468 156.377 C 90.468 156.604 90.696 156.834 90.696 157.063 L 90.696 157.52 C 90.696 157.976 90.468 158.206 90.468 158.433 C 90.696 158.66 90.696 158.66 90.925 158.66 C 90.925 159.117 90.925 159.573 91.154 160.258 C 90.925 160.944 90.925 161.627 90.698 162.311 C 90.698 162.768 90.471 163.224 90.471 163.681 L 90.471 167.562 L 90.698 167.789 L 90.698 168.016 C 90.698 168.243 90.925 168.473 90.925 168.473 C 91.154 168.702 91.154 168.929 91.382 169.159 C 91.382 169.159 91.382 169.386 91.611 169.386 C 91.611 169.615 91.838 169.842 91.838 170.072 C 92.065 170.3 91.838 170.528 91.838 170.528 C 91.611 170.756 91.382 170.986 91.382 171.215 C 91.382 171.215 91.382 171.215 91.154 171.215 C 90.925 171.215 90.925 171.442 90.698 171.899 L 90.698 172.355 C 90.471 173.266 90.698 173.95 90.698 174.866 C 90.925 176.463 90.925 178.06 91.154 179.66 L 91.154 180.8 C 91.382 181.03 91.382 181.03 91.382 181.03 C 91.382 182.171 91.611 183.54 91.611 184.681 C 91.611 185.367 91.382 185.821 91.611 186.508 L 91.838 186.737 C 91.838 187.194 92.065 187.648 92.065 188.107 C 91.838 188.334 91.838 188.334 91.838 188.564 L 91.838 189.251 C 92.065 189.251 92.065 189.477 92.295 189.477 C 92.295 189.934 93.892 190.164 94.122 190.391 C 94.122 190.848 92.525 191.531 92.525 191.988 L 92.298 191.988 C 92.755 192.671 92.068 193.128 92.298 193.585 L 92.298 193.814 L 92.298 194.272 C 92.298 194.955 92.298 195.641 92.525 196.325 L 92.525 197.695 C 92.525 199.065 92.751 200.435 92.751 201.803 C 92.981 202.259 92.981 202.489 92.981 202.943 C 93.209 205.683 93.438 208.65 93.892 211.618 C 93.892 212.987 94.122 214.128 94.122 215.271 C 94.352 217.325 94.578 219.605 95.035 221.664 C 95.035 222.575 95.035 223.719 95.262 224.63 C 95.035 224.859 95.035 225.088 95.035 225.318 C 95.262 225.543 95.262 226.002 95.262 226.229 C 95.489 227.369 95.489 228.512 95.719 229.653 C 95.719 231.023 95.719 232.163 96.175 233.307 L 96.175 233.765 L 96.175 234.676 C 96.403 234.676 96.403 234.676 96.403 234.906 L 96.175 235.13 C 96.175 235.819 96.175 237.641 96.632 238.33 C 96.632 238.554 96.862 237.189 97.089 236.959 C 97.089 236.501 97.318 235.819 97.318 235.36 C 97.546 235.13 97.546 234.906 97.546 234.676 C 97.772 233.307 98.002 231.706 98.232 230.341 C 98.459 228.742 98.005 227.372 98.459 225.772 C 98.686 222.578 98.916 219.838 99.145 216.873 C 98.459 215.73 98.232 214.36 98.688 213.217 C 98.916 212.991 98.916 212.761 98.916 212.533 C 99.145 212.306 99.373 211.85 99.373 211.62 C 99.599 204.086 100.286 196.784 100.513 189.251 C 100.742 186.51 100.742 184 100.513 181.26 C 100.513 181.26 100.286 181.26 100.286 181.032 C 100.286 180.803 100.056 180.803 100.056 180.576 C 99.829 179.663 99.829 178.749 100.056 178.065 C 100.286 177.608 100.742 176.925 100.742 176.468 C 100.97 175.555 100.97 174.871 100.97 173.956 C 100.742 173.044 99.827 171.901 100.056 170.761 C 100.286 170.075 100.742 169.391 100.742 168.707 C 100.97 167.337 101.199 165.967 100.97 164.6 C 100.97 163.914 100.742 163.23 100.742 162.545 C 100.97 161.632 101.199 160.948 101.199 160.035 C 100.972 158.893 101.656 157.752 101.199 156.838 C 100.742 155.698 100.513 154.555 101.199 153.415 C 101.196 149.292 102.337 144.955 100.97 140.617 L 100.97 140.617 Z " fill-rule="evenodd" fill="rgb(217,33,0)"/><path d=" M 119.002 140.388 C 119.232 138.104 119.461 135.82 119.461 133.54 C 119.461 132.17 119.002 130.799 119.002 129.432 C 119.232 127.835 119.232 126.238 119.002 124.639 L 119.002 124.411 L 119.002 124.185 C 119.002 123.955 118.772 123.498 118.772 123.044 C 118.546 122.588 118.546 121.901 118.772 121.217 C 118.772 120.761 119.002 119.847 119.002 119.16 C 119.002 118.704 119.002 118.25 118.772 117.791 C 118.772 117.563 118.772 117.334 118.772 117.105 C 118.772 116.875 118.546 116.877 118.546 116.648 C 118.546 116.648 118.546 116.648 118.546 116.421 C 118.546 114.824 119.002 113.451 118.772 111.854 C 118.546 106.376 118.318 101.126 118.088 95.875 C 117.859 94.275 117.175 92.905 117.402 91.308 C 117.63 90.395 117.402 89.711 117.402 89.025 C 117.402 87.655 117.173 86.515 116.946 85.371 C 116.716 81.49 117.173 78.067 116.487 74.186 C 116.259 73.73 116.259 73.273 116.03 72.817 C 116.03 71.903 115.803 71.219 115.573 70.533 C 115.573 69.622 116.03 68.709 115.803 67.796 C 115.803 67.568 114.66 67.338 114.66 67.112 C 114.66 66.655 115.573 66.425 115.573 66.199 C 115.343 64.372 115.573 62.318 115.116 60.264 C 115.116 60.034 115.116 60.034 115.116 59.807 C 114.887 59.123 114.887 58.437 114.657 57.754 C 114.432 57.524 114.203 55.013 113.746 55.013 C 113.29 54.786 113.06 57.524 113.06 57.754 C 113.06 58.437 112.831 59.123 112.831 59.807 C 112.147 62.775 112.374 65.741 112.147 68.711 C 112.147 69.168 112.147 69.395 111.917 69.851 C 111.917 70.306 111.917 70.992 111.69 71.448 C 111.46 72.362 111.46 73.503 111.234 74.416 C 111.006 76.927 111.46 79.21 111.006 81.72 L 111.006 81.948 C 111.006 82.404 110.78 82.634 110.78 82.861 C 110.78 83.547 110.78 84.001 111.006 84.688 L 111.006 86.285 C 110.78 86.511 110.78 86.511 110.55 86.741 L 110.55 87.655 L 110.55 88.112 C 110.093 90.392 110.776 92.449 110.55 94.502 C 110.55 94.959 110.32 95.416 110.32 95.873 C 110.093 95.873 110.093 96.099 110.093 96.099 C 110.093 96.327 111.006 98.154 111.234 98.383 L 110.093 98.383 C 110.093 98.61 109.636 98.383 109.636 98.383 C 109.636 99.067 110.093 98.84 109.863 99.296 C 109.636 100.437 109.179 101.58 109.636 102.95 C 109.863 103.863 109.636 104.774 109.636 105.69 L 109.636 106.373 C 109.179 109.571 108.493 112.765 108.95 115.962 C 109.177 116.875 109.177 117.788 108.95 118.472 L 108.95 119.156 C 108.721 119.385 108.721 119.612 108.95 119.842 C 108.95 120.983 108.95 121.896 108.721 122.812 C 108.493 123.723 108.266 124.636 108.493 125.552 C 108.721 127.605 108.95 129.66 108.721 131.94 C 108.721 132.626 108.493 133.537 108.266 134.223 C 108.036 141.528 108.036 148.832 108.266 156.137 C 108.721 160.701 108.266 165.495 108.721 170.062 C 109.177 175.313 108.721 180.563 108.95 185.811 C 109.407 192.659 109.636 199.509 110.09 206.127 C 110.09 207.497 110.776 208.637 110.547 209.781 C 110.318 210.921 110.09 212.291 110.547 213.434 C 110.547 213.662 111.231 213.662 111.231 213.89 C 111.231 213.89 111.917 213.89 112.145 214.118 L 110.774 215.031 C 111.001 216.172 111.001 217.312 111.001 218.228 C 111.001 218.453 111.228 218.911 111.228 219.139 C 111.228 219.593 111.228 220.05 111.455 220.28 C 111.685 222.563 111.228 224.614 111.685 226.898 L 111.685 227.356 C 111.912 228.497 111.912 229.64 111.912 230.78 C 111.685 231.691 111.685 232.834 111.912 233.974 C 111.912 235.115 112.141 236.258 112.598 237.174 L 112.598 238.314 L 112.825 238.314 C 113.055 239.679 112.369 240.825 112.598 242.193 C 112.598 242.422 112.598 242.881 112.825 243.109 C 112.825 243.792 113.055 246.762 113.738 246.986 C 114.198 247.216 114.879 244.481 114.649 243.792 C 114.649 243.792 114.649 243.562 114.649 243.338 C 115.109 242.193 115.336 241.279 114.879 240.139 C 114.879 239.909 114.879 239.455 114.649 239.228 C 114.879 239.228 114.879 239.228 114.879 238.999 C 114.649 238.999 114.649 238.999 114.649 238.999 C 114.649 238.769 114.649 238.314 114.879 238.088 L 114.879 237.858 C 114.879 237.628 114.879 237.628 115.109 237.628 C 115.336 237.174 115.336 236.488 115.565 236.033 C 115.565 235.804 115.565 235.804 115.565 235.804 C 116.022 234.434 115.336 233.064 115.795 231.694 C 116.252 229.183 116.252 227.13 116.479 224.619 C 116.479 224.165 116.252 223.708 116.252 223.249 C 116.479 222.795 116.479 222.565 116.479 222.339 C 117.166 220.055 117.392 218.004 116.938 215.947 C 116.938 215.036 116.479 214.35 116.708 213.664 C 116.708 212.751 117.166 212.067 117.166 210.924 C 117.622 208.869 117.166 206.816 117.394 204.533 C 117.394 203.849 117.852 202.935 117.852 202.249 C 118.081 197.685 118.763 193.574 118.538 189.011 C 118.538 188.325 118.311 187.413 118.538 186.727 C 118.538 186.041 118.538 185.13 118.765 184.444 C 118.995 183.757 118.995 183.074 118.995 182.39 C 118.765 181.706 118.538 181.02 118.538 180.336 C 118.995 178.739 116.711 177.596 116.481 175.999 C 116.481 175.772 118.992 175.542 118.992 175.315 C 118.992 175.315 118.992 175.315 118.763 175.315 C 118.763 175.085 118.763 174.859 118.763 174.629 C 118.763 174.172 118.535 173.488 118.763 173.032 C 119.451 169.608 119.221 166.64 118.992 163.444 C 118.992 163.216 118.992 163.216 118.992 163.216 C 118.992 162.99 118.992 162.99 118.992 162.76 C 118.992 160.933 118.763 158.88 118.992 156.823 C 119.221 155.912 119.221 154.769 119.221 153.856 C 119.221 151.8 119.221 149.518 118.992 147.465 C 119.221 147.235 119.221 147.008 118.992 147.008 C 118.992 146.552 118.081 146.095 118.081 145.638 C 118.081 145.411 119.451 144.952 119.221 144.725 C 118.992 144.725 118.992 144.495 118.992 144.495 C 119.002 143.128 119.002 141.758 119.002 140.388 L 119.002 140.388 Z " fill-rule="evenodd" fill="rgb(217,33,0)"/><path d=" M 216.245 124.411 C 216.245 123.955 215.332 123.955 215.332 123.725 C 215.561 121.898 214.421 120.758 213.048 119.845 C 212.589 119.845 212.137 119.845 211.679 119.618 C 211.449 119.39 211.449 118.934 210.992 118.477 C 210.306 118.02 209.852 118.25 209.395 118.704 C 209.165 118.704 208.938 118.704 208.938 118.704 C 208.252 118.477 207.568 118.704 207.568 118.018 C 207.339 118.018 208.025 117.331 207.568 117.105 C 206.882 116.877 205.971 116.421 205.285 116.191 C 204.828 116.191 204.371 115.734 204.145 116.191 L 203.915 116.421 C 203.688 116.421 203.228 116.648 202.774 116.648 C 202.774 116.421 202.774 116.421 202.544 116.421 C 202.544 115.734 202.318 115.05 201.861 115.28 C 201.401 115.28 201.175 115.737 200.721 115.737 L 200.491 115.737 C 199.804 115.28 199.804 114.597 199.121 114.367 C 197.067 113.681 195.011 113.911 192.957 113.224 C 192.046 112.997 191.133 112.997 190.219 112.767 C 189.762 112.767 189.533 112.54 189.306 112.54 C 188.395 112.084 187.481 112.31 186.798 112.767 L 186.798 112.994 C 186.568 112.994 186.112 113.221 185.884 113.221 C 186.341 112.994 185.884 112.538 185.655 112.081 C 185.198 111.854 184.744 111.854 184.287 111.854 C 184.058 112.081 183.829 112.31 183.829 112.54 C 183.829 112.54 183.601 112.54 183.374 112.54 C 183.144 112.767 182.915 112.767 182.915 112.997 C 183.144 113.453 183.374 113.683 183.601 113.683 C 184.287 114.139 184.971 113.453 185.655 113.683 C 186.114 113.911 186.568 114.369 187.028 114.597 C 188.625 114.826 189.992 115.737 191.362 115.51 C 192.049 115.51 192.502 115.053 193.189 115.51 C 193.875 115.737 194.1 116.423 194.559 116.65 C 197.526 117.791 200.264 118.934 203.006 120.758 C 204.374 121.671 205.514 123.268 204.833 125.095 C 203.92 127.379 201.637 128.746 199.353 129.889 C 198.896 130.116 198.445 130.799 197.985 131.259 C 197.529 131.713 196.845 131.943 196.158 132.17 L 195.932 132.17 C 195.932 131.94 195.702 131.713 195.472 131.713 C 195.013 131.713 194.561 131.713 194.103 131.94 C 193.875 131.94 193.418 131.94 193.192 132.17 C 191.365 132.626 189.538 133.083 187.714 133.997 C 187.487 133.997 187.257 133.997 187.03 133.997 C 186.8 133.997 186.341 133.997 186.117 133.997 C 185.658 133.997 185.43 134.223 184.977 134.223 C 184.519 134.68 184.063 134.91 183.379 135.137 C 183.379 134.91 183.15 134.91 183.15 134.91 C 182.69 134.68 182.239 134.91 181.779 135.137 C 181.55 135.137 181.323 135.137 181.096 135.137 C 180.637 135.364 180.407 135.82 180.182 135.82 C 179.726 135.82 179.496 135.82 179.269 135.82 C 178.812 135.82 178.358 136.05 177.901 136.05 L 177.901 135.82 C 175.618 135.82 173.335 136.507 171.051 136.734 L 171.051 136.961 C 170.365 136.961 170.14 138.102 169.454 138.331 C 169.224 138.558 168.768 137.418 168.541 137.645 C 168.541 137.418 168.314 137.418 168.314 137.418 C 168.084 136.961 167.627 137.418 167.401 137.645 C 167.173 137.645 166.944 137.645 166.714 137.645 C 166.487 137.418 166.258 137.418 166.03 137.418 C 165.8 137.418 165.571 137.418 165.342 137.418 C 165.114 137.418 164.658 137.418 164.431 137.418 C 163.06 137.645 161.693 137.875 160.323 138.104 C 160.093 138.104 160.093 138.104 159.866 138.104 C 159.637 138.104 159.637 138.334 159.637 138.334 C 159.18 138.561 158.95 138.561 158.496 138.561 C 158.269 138.788 158.039 138.788 157.81 138.788 C 157.583 138.561 157.123 138.331 156.67 138.561 C 156.442 138.561 156.442 138.788 156.442 138.788 C 155.983 138.788 155.756 138.788 155.302 138.788 L 155.072 138.788 L 154.843 138.561 C 154.157 138.561 153.703 138.561 153.246 138.561 C 153.016 138.561 152.56 138.561 152.106 138.561 C 151.192 138.561 150.049 138.561 149.138 138.788 C 147.768 139.015 146.852 139.931 145.484 139.931 C 145.255 139.931 145.255 139.931 145.028 139.701 C 145.028 139.472 145.028 139.472 144.798 139.244 C 144.112 139.018 143.658 139.472 142.972 139.701 C 142.515 139.931 142.061 139.931 141.832 140.158 C 141.374 140.158 141.145 140.158 140.691 140.158 C 140.691 139.931 140.691 139.701 140.461 139.701 C 140.005 139.472 139.55 139.472 138.864 139.701 C 138.634 139.472 138.408 139.472 138.178 139.701 C 134.754 139.931 131.557 139.701 128.134 139.701 C 127.676 139.701 127.447 139.701 126.993 139.931 C 126.763 140.158 127.679 140.841 127.679 140.841 C 127.449 141.071 126.539 140.841 126.539 141.071 C 126.079 143.582 126.079 145.862 126.079 148.144 C 126.309 149.973 126.765 152.027 126.539 153.853 C 126.539 157.048 127.223 160.244 126.765 163.668 C 126.765 164.127 126.539 164.581 126.539 165.038 C 126.765 165.722 126.995 166.178 126.995 166.636 C 127.452 169.146 126.539 171.657 126.995 173.937 C 126.995 174.851 127.452 175.764 127.452 176.68 C 126.995 179.874 127.223 183.071 127.223 186.266 C 127.223 186.722 127.452 187.179 127.452 187.863 C 127.911 188.773 127.223 189.689 127.452 190.602 C 127.452 190.829 127.681 191.059 127.681 191.287 C 128.138 192.427 128.138 193.57 128.138 194.71 C 127.681 195.623 127.452 196.308 127.452 197.221 C 127.911 198.361 127.911 199.504 128.366 200.417 C 128.822 201.557 128.822 202.928 128.592 204.068 C 128.592 204.525 128.366 204.981 128.366 205.438 C 127.679 210.689 129.049 215.483 129.276 220.506 C 129.276 220.96 129.046 221.871 129.046 222.56 C 129.506 224.16 129.046 225.525 129.733 227.124 C 129.733 227.354 129.963 227.813 130.189 228.035 C 130.189 228.265 130.419 228.495 130.419 228.495 L 130.419 228.953 C 130.189 229.178 130.189 229.637 129.963 229.864 C 129.733 230.094 129.733 230.548 129.963 231.005 C 129.963 231.235 129.963 231.459 130.189 231.915 L 130.189 232.145 C 130.189 232.599 129.733 233.056 129.963 233.516 C 129.963 233.745 129.963 233.745 130.189 233.97 C 130.189 234.429 130.189 235.799 130.419 236.029 C 130.649 236.483 130.649 237.853 130.876 237.853 C 131.79 237.853 131.79 234.658 131.562 233.748 C 131.792 233.288 131.562 232.832 131.562 232.148 C 131.792 232.148 131.792 231.919 131.792 231.689 C 131.792 231.235 131.792 231.005 131.562 230.778 C 131.562 230.548 131.792 230.324 131.792 230.094 C 131.562 229.864 131.333 229.405 131.333 229.178 L 131.792 229.178 C 131.792 228.953 132.248 228.953 132.248 228.724 C 132.248 228.035 132.478 227.354 132.478 226.67 C 132.478 225.755 132.248 224.841 132.478 223.93 C 132.478 223.93 132.705 223.7 132.705 223.471 C 132.705 223.242 132.705 223.012 132.478 223.012 C 132.705 222.558 132.705 222.328 132.478 221.871 C 132.478 221.417 132.478 220.96 132.478 220.506 C 132.705 220.506 132.935 220.506 132.935 220.276 C 133.164 219.818 133.391 219.366 133.391 218.677 C 133.621 218.447 133.621 217.993 133.621 217.307 C 133.621 216.624 132.935 215.937 133.164 215.027 C 133.391 214.799 133.621 214.569 133.848 214.113 C 133.848 213.656 133.848 213.426 133.848 212.972 C 133.848 212.743 133.848 212.286 133.848 212.059 C 133.848 211.603 133.848 211.375 133.848 210.918 C 134.077 210.462 134.077 210.006 133.848 209.321 C 133.848 209.094 134.077 208.635 134.077 208.408 L 134.307 208.181 C 134.307 207.724 134.307 207.495 134.307 207.038 C 134.307 206.582 134.535 205.898 134.535 205.441 C 134.535 205.441 134.535 205.441 134.535 205.213 C 134.764 204.527 134.764 203.844 134.991 203.16 C 134.991 202.703 135.221 202.247 135.221 201.79 C 135.45 200.42 134.991 199.506 134.764 198.139 C 134.535 197.682 134.764 197.226 134.991 196.542 C 135.45 195.856 135.678 195.172 135.678 194.715 L 135.678 194.488 C 135.907 194.032 135.907 193.574 135.678 193.118 C 135.678 192.661 135.678 192.205 135.678 191.977 C 135.678 191.751 135.678 191.751 135.45 191.751 C 135.221 190.837 134.991 190.154 134.991 189.467 C 134.991 189.011 135.221 188.553 135.45 188.097 C 135.678 188.097 136.134 187.87 136.134 187.64 C 136.134 187.184 136.134 186.956 136.364 186.73 L 136.364 186.5 C 136.364 186.273 136.364 186.043 136.364 185.814 C 136.364 185.13 136.364 184.673 136.134 184.217 C 135.907 183.99 135.907 183.76 135.907 183.53 C 135.678 183.304 135.678 183.074 135.907 182.617 L 136.134 182.846 C 136.134 182.39 136.364 181.933 136.364 181.477 C 136.594 180.563 136.823 179.65 136.823 178.736 C 136.823 177.366 136.823 176.226 136.823 174.855 C 136.594 174.399 136.594 173.715 136.823 173.258 C 137.05 172.575 137.05 172.118 137.05 171.435 C 137.277 170.978 137.277 170.748 137.277 170.292 C 137.507 168.465 137.05 166.868 137.05 165.271 C 137.277 165.043 137.277 164.814 137.277 164.587 C 137.277 163.674 137.277 162.99 137.277 162.303 C 137.507 161.847 137.507 161.393 137.277 161.163 C 137.277 160.706 137.05 160.25 137.05 159.793 C 136.823 159.336 137.05 158.88 137.277 158.423 C 137.277 157.967 137.277 157.739 137.277 157.509 C 137.507 157.053 137.507 156.823 137.277 156.369 C 137.277 156.142 137.277 155.912 137.277 155.456 C 137.277 155.456 137.507 155.229 137.277 154.999 L 137.277 154.769 C 137.277 154.543 137.277 154.085 137.507 153.859 C 137.507 153.402 137.966 153.402 138.193 153.402 C 140.476 153.402 142.53 153.629 145.043 153.402 C 145.271 153.172 145.5 153.172 145.954 152.946 C 147.551 152.259 148.921 153.402 150.521 152.946 C 151.205 152.946 152.118 152.718 152.804 152.718 C 156.228 152.032 159.195 152.032 162.619 151.121 C 162.849 151.121 162.849 151.121 163.076 150.891 L 163.306 150.891 L 163.535 150.664 C 163.992 150.437 164.446 150.208 164.676 149.98 C 164.676 149.751 164.446 149.524 164.676 149.524 C 164.676 149.294 164.676 149.294 164.903 149.067 C 164.903 148.84 164.903 148.84 165.133 148.611 C 165.133 148.383 164.446 147.925 164.446 147.47 C 164.676 147.47 164.903 146.33 164.903 145.873 C 164.903 146.1 165.816 146.786 165.816 147.243 C 165.587 147.7 165.587 148.386 165.816 148.84 C 166.045 149.754 166.956 150.21 167.186 150.21 C 169.24 150.667 170.84 149.524 172.661 149.067 C 173.12 149.067 173.348 148.84 173.802 148.84 C 174.488 148.383 175.171 148.383 175.858 148.153 C 176.087 148.153 176.315 147.927 176.315 147.927 L 176.544 147.927 C 176.772 147.927 176.772 147.927 177.001 147.7 C 177.687 147.473 178.371 147.473 179.285 147.243 L 179.514 147.243 C 180.654 147.016 181.797 147.016 182.938 146.786 C 183.397 146.56 183.848 146.33 184.078 146.1 L 184.764 146.1 C 184.994 146.1 185.221 145.643 185.221 145.416 C 185.221 145.416 185.221 145.416 185.221 145.189 L 185.678 145.189 C 186.364 144.733 187.05 145.416 187.964 145.189 C 188.42 145.189 189.105 144.733 189.561 144.503 C 190.247 144.276 190.702 143.819 191.16 143.362 C 191.618 143.136 191.844 143.136 192.071 142.906 C 193.212 142.679 194.126 142.679 195.036 142.449 C 195.495 142.449 195.725 142.22 195.952 141.993 C 196.409 141.993 196.636 141.763 197.092 141.535 C 197.32 141.535 197.549 141.309 197.549 141.079 C 197.776 140.849 198.236 141.306 198.462 141.079 C 198.69 141.079 198.917 140.849 199.147 140.62 C 199.833 140.62 200.287 140.163 200.973 139.48 C 201.202 139.48 201.43 139.252 201.66 139.252 L 202.116 139.252 C 202.116 139.025 202.116 139.025 202.116 139.025 C 203.029 138.798 203.715 138.569 204.626 138.341 C 204.626 138.112 204.856 138.112 204.856 138.112 C 205.54 137.885 206.223 137.425 206.683 136.742 C 206.683 136.514 206.91 136.285 206.91 136.056 L 207.139 136.056 C 207.596 136.056 208.28 135.826 208.736 135.599 L 208.966 135.599 C 210.563 134.915 211.934 133.775 213.074 132.404 C 213.303 132.178 213.303 131.948 213.303 131.718 C 213.303 131.491 213.303 131.491 213.303 131.491 C 213.531 131.265 213.303 129.894 213.531 129.664 C 213.531 129.208 214.671 130.121 215.358 129.894 C 216.271 129.894 215.358 128.751 215.587 128.297 C 215.587 127.841 216.044 127.841 216.497 127.841 C 216.727 127.611 216.727 127.384 216.727 127.384 C 216.926 126.238 216.702 125.325 216.245 124.411 L 216.245 124.411 Z  M 193.873 114.139 L 194.1 114.139 L 193.873 114.139 Z " fill-rule="evenodd" fill="rgb(217,33,0)"/><path d=" M 787.166 179.215 L 787.166 176.769 L 787.166 176.769 Q 793.689 174.812 800.375 173.671 L 800.375 173.671 L 800.375 70.61 L 800.375 70.61 Q 794.993 69.795 787.166 67.349 L 787.166 67.349 L 787.166 65.066 L 832.173 65.066 L 832.173 67.512 L 832.173 67.512 Q 827.444 69.142 818.965 70.61 L 818.965 70.61 L 818.965 173.834 L 818.965 173.834 Q 825.488 174.812 832.173 176.932 L 832.173 176.932 L 832.173 179.215 L 787.166 179.215 Z  M 860.541 179.215 L 860.541 176.769 L 860.541 176.769 Q 867.064 174.812 873.75 173.671 L 873.75 173.671 L 873.75 70.61 L 873.75 70.61 Q 868.369 69.795 860.541 67.349 L 860.541 67.349 L 860.541 65.066 L 905.549 65.066 L 905.549 67.512 L 905.549 67.512 Q 900.82 69.142 892.34 70.61 L 892.34 70.61 L 892.34 173.834 L 892.34 173.834 Q 898.863 174.812 905.549 176.932 L 905.549 176.932 L 905.549 179.215 L 860.541 179.215 Z  M 935.964 179.215 L 935.964 176.769 L 935.964 176.769 Q 942.487 174.812 949.173 173.671 L 949.173 173.671 L 949.173 70.61 L 949.173 70.61 Q 943.791 69.795 935.964 67.349 L 935.964 67.349 L 935.964 65.066 L 980.971 65.066 L 980.971 67.512 L 980.971 67.512 Q 976.242 69.142 967.763 70.61 L 967.763 70.61 L 967.763 173.834 L 967.763 173.834 Q 974.286 174.812 980.971 176.932 L 980.971 176.932 L 980.971 179.215 L 935.964 179.215 Z " fill-rule="evenodd" fill="rgb(234,234,234)"/></g></svg>