<?xml version="1.0" encoding="UTF-8" standalone="no"?><!-- Generator: Gravit.io --><svg xmlns="http://www.w3.org/2000/svg" xmlns:xlink="http://www.w3.org/1999/xlink" style="isolation:isolate" viewBox="0 0 992 250" width="992pt" height="250pt"><defs><clipPath id="_clipPath_4SufifW9adNelfWgWI6VSnix0j0DvKxF"><rect width="992" height="250"/></clipPath></defs><g clip-path="url(#_clipPath_4SufifW9adNelfWgWI6VSnix0j0DvKxF)"><path d=" M 200.813 28.875 L 249.563 69 L 244.313 33.375 L 274.5 69.563 L 304.596 2.855 L 327.886 64.804 L 383.782 30.908 L 369.808 84.675 L 445.5 82.337 L 380.288 120.909 L 439.678 207.404 L 351.562 180.984 L 337.641 217.828 L 317.953 175.219 L 269.662 247.145 L 270.826 175.845 L 212.601 201.56 L 251.03 140.779 L 190.476 134.935 L 248.701 119.74 L 202.688 101.437 L 243.75 98.062 L 200.813 28.875 Z " fill="rgb(0,0,0)"/><path d=" M 204.812 33.173 L 252.1 72.763 L 246.601 38.672 L 275.194 72.763 L 304.887 10.079 L 326.881 68.364 L 379.668 36.472 L 366.471 87.059 L 437.953 84.86 L 376.369 121.151 L 432.455 202.531 L 349.975 178.337 L 337.878 212.428 L 318.083 171.738 L 271.895 239.921 L 272.995 172.838 L 218.008 197.032 L 254.299 139.846 L 197.114 134.348 L 252.1 120.051 L 209.211 102.456 L 246.601 99.156 L 204.812 33.173 Z " fill="rgb(255,236,62)"/><path d=" M 225.297 57.57 L 263.415 87.97 L 258.982 61.792 L 278.5 86.424 L 304.599 38.005 L 323.486 82.99 L 365.724 57.922 L 355.608 98.947 L 413.228 97.258 L 363.586 125.125 L 408.993 186.698 L 345.464 167.811 L 336.535 192.536 L 318.678 161.286 L 279.371 216.325 L 280.258 164.814 L 235.934 183.392 L 265.188 139.481 L 219.091 135.258 L 263.415 124.281 L 228.02 106.685 L 257.552 103.595 L 225.297 57.57 Z " fill="rgb(70,132,36)"/><path d=" M 322.2 161.34 C 320.36 161.2 318.52 161.02 316.69 160.8 C 315.07 160.61 313.45 160.36 311.84 160.06 C 311.17 154.22 310.58 148.37 310.05 142.51 C 309.6 137.49 309.22 132.47 308.9 127.44 C 308.58 122.42 308.34 117.39 308.17 112.35 C 308.02 107.98 307.94 103.61 307.94 99.24 C 307.94 97.77 307.95 96.3 307.96 94.83 C 307.97 93.32 307.98 91.81 308 90.3 C 308.02 88.78 308.06 87.27 308.11 85.76 C 308.16 84.04 308.24 82.33 308.33 80.61 C 311.19 79.27 314.1 78.07 317.06 77.01 C 319.28 76.21 321.54 75.54 323.83 75 C 326.12 74.46 328.44 74.05 330.78 73.79 C 333.25 73.51 335.73 73.37 338.22 73.37 C 341.6 73.37 344.98 73.6 348.33 74.07 C 350.98 74.44 353.58 75.05 356.12 75.88 C 358.29 76.59 360.38 77.5 362.38 78.59 C 364.16 79.57 365.83 80.73 367.37 82.06 C 368.95 83.42 370.38 84.96 371.61 86.65 C 372.86 88.35 373.91 90.18 374.74 92.12 C 375.66 94.26 376.34 96.5 376.77 98.8 C 377.28 101.57 377.54 104.39 377.54 107.21 C 377.54 109.86 377.29 112.5 376.81 115.11 C 376.31 117.83 375.57 120.5 374.61 123.09 C 373.54 125.96 372.22 128.73 370.67 131.38 C 368.86 134.46 366.83 137.41 364.58 140.2 C 362.41 142.91 360.04 145.46 357.5 147.83 C 355.16 150.01 352.66 152.01 350.01 153.81 C 347.45 155.54 344.77 157.07 341.98 158.39 C 339.12 159.74 336.16 160.87 333.13 161.76 C 331.32 161.76 329.51 161.73 327.71 161.66 C 325.87 161.59 324.03 161.48 322.2 161.34 Z  M 324.29 76.95 C 326.5 76.42 328.74 76.03 331 75.77 C 333.4 75.5 335.81 75.37 338.22 75.37 C 341.51 75.37 344.8 75.59 348.06 76.05 C 350.58 76.4 353.07 76.98 355.5 77.78 C 357.54 78.45 359.53 79.31 361.41 80.35 C 363.07 81.26 364.63 82.34 366.07 83.57 C 367.53 84.84 368.85 86.26 370 87.83 C 371.16 89.41 372.13 91.11 372.9 92.91 C 373.77 94.92 374.4 97.01 374.8 99.16 C 375.29 101.82 375.54 104.51 375.54 107.21 C 375.54 109.74 375.3 112.26 374.85 114.75 C 374.37 117.35 373.66 119.91 372.73 122.39 C 371.7 125.16 370.44 127.82 368.95 130.36 C 367.19 133.37 365.21 136.24 363.02 138.95 C 360.91 141.58 358.6 144.06 356.14 146.36 C 353.87 148.48 351.45 150.41 348.88 152.15 C 346.42 153.83 343.82 155.31 341.13 156.58 C 338.45 157.85 335.68 158.91 332.84 159.76 C 331.15 159.76 329.47 159.72 327.79 159.66 C 325.97 159.59 324.16 159.48 322.35 159.35 C 320.54 159.21 318.73 159.03 316.93 158.82 C 315.84 158.69 314.75 158.53 313.66 158.35 C 313.06 153.02 312.52 147.67 312.04 142.33 C 311.59 137.33 311.21 132.32 310.89 127.32 C 310.58 122.31 310.33 117.3 310.16 112.29 C 310.02 107.94 309.94 103.59 309.94 99.24 C 309.94 97.77 309.95 96.31 309.96 94.84 C 309.97 93.34 309.98 91.83 310 90.32 C 310.02 88.82 310.06 87.32 310.11 85.82 C 310.15 84.52 310.2 83.22 310.27 81.92 C 312.72 80.81 315.21 79.8 317.74 78.89 C 319.88 78.12 322.07 77.47 324.29 76.95 Z  M 346.15 128.57 C 346.94 127.11 347.64 125.6 348.24 124.05 C 348.87 122.44 349.39 120.79 349.8 119.11 C 350.24 117.31 350.57 115.48 350.79 113.63 C 351.02 111.58 351.14 109.51 351.14 107.45 C 351.14 105.97 351.03 104.5 350.81 103.04 C 350.64 101.84 350.35 100.67 349.97 99.53 C 349.63 98.53 349.2 97.57 348.69 96.64 C 348.22 95.79 347.66 94.98 347.03 94.23 C 346.38 93.45 345.64 92.74 344.84 92.12 C 344.09 91.54 343.27 91.05 342.41 90.66 C 341.52 90.25 340.58 89.94 339.61 89.75 C 338.49 89.52 337.34 89.41 336.19 89.41 L 335.36 89.41 L 335.22 89.41 C 334.93 92.9 334.68 96.4 334.45 99.9 C 334.2 103.92 333.98 107.94 333.8 111.95 C 333.62 115.97 333.49 119.99 333.41 124.01 C 333.31 128.33 333.27 132.64 333.27 136.96 L 333.27 139.58 L 333.27 140.95 C 333.27 141.21 333.27 141.48 333.28 141.75 C 334.33 141.14 335.36 140.47 336.34 139.76 C 337.68 138.79 338.94 137.73 340.12 136.57 C 341.29 135.42 342.38 134.18 343.37 132.87 C 344.4 131.51 345.32 130.07 346.15 128.57 Z  M 331.27 136.96 L 331.27 139.58 L 331.27 140.95 C 331.27 141.42 331.28 141.89 331.3 142.36 C 331.34 143.21 331.44 144.06 331.6 144.9 C 333.68 143.9 335.65 142.73 337.52 141.38 C 338.93 140.35 340.27 139.22 341.52 138 C 342.77 136.78 343.92 135.47 344.96 134.08 C 346.05 132.63 347.03 131.11 347.9 129.53 C 348.74 127.99 349.48 126.41 350.11 124.78 C 350.76 123.08 351.31 121.35 351.74 119.59 C 352.21 117.71 352.55 115.79 352.77 113.86 C 353.02 111.73 353.14 109.59 353.14 107.45 C 353.14 105.87 353.02 104.3 352.79 102.74 C 352.6 101.43 352.29 100.14 351.86 98.89 C 351.49 97.78 351.01 96.7 350.44 95.68 C 349.9 94.71 349.28 93.79 348.56 92.94 C 347.82 92.05 346.98 91.25 346.06 90.54 C 345.19 89.86 344.24 89.29 343.24 88.84 C 342.21 88.37 341.12 88.01 340.01 87.79 C 338.75 87.54 337.48 87.41 336.19 87.41 L 335.36 87.41 L 335 87.41 C 334.83 87.41 334.66 87.42 334.49 87.45 C 334.08 87.52 333.7 87.66 333.34 87.86 C 333 91.83 332.71 95.8 332.46 99.78 C 332.2 103.8 331.98 107.83 331.8 111.87 C 331.63 115.9 331.49 119.93 331.41 123.97 C 331.31 128.3 331.27 132.63 331.27 136.96 Z  M 452.83 166.71 C 451.25 167.79 449.58 168.74 447.84 169.54 C 445.98 170.4 444.06 171.14 442.11 171.77 C 440.16 172.39 438.17 172.91 436.16 173.32 C 433.19 173.92 430.19 174.39 427.17 174.72 C 426.91 172.01 426.6 169.31 426.25 166.62 C 425.9 164.02 425.53 161.42 425.11 158.84 C 424.7 156.25 424.24 153.67 423.73 151.11 C 423.24 148.66 422.72 146.23 422.16 143.8 C 419.89 143.84 417.63 143.9 415.37 143.98 C 413.35 144.05 411.33 144.15 409.32 144.26 C 407.31 144.38 405.3 144.54 403.29 144.72 C 401.72 144.87 400.14 145.05 398.57 145.25 C 398 146.85 397.41 148.44 396.8 150.03 C 396.17 151.68 395.51 153.32 394.83 154.95 C 394.15 156.59 393.45 158.21 392.72 159.83 C 391.99 161.43 391.23 163.02 390.43 164.59 C 388.2 164.28 386 163.75 383.87 163.02 C 381.98 162.38 380.14 161.58 378.38 160.63 C 376.62 159.68 374.96 158.57 373.4 157.31 C 371.94 156.12 370.63 154.75 369.52 153.23 C 372.67 147.4 375.65 141.48 378.44 135.47 C 381.04 129.87 383.47 124.19 385.72 118.45 C 386.29 116.98 386.85 115.52 387.4 114.04 C 388.01 112.39 388.61 110.74 389.2 109.08 C 390.92 104.23 392.54 99.34 394.08 94.42 C 396.17 87.71 398.16 80.97 400.05 74.2 C 402.26 74.19 404.48 74.24 406.68 74.35 C 408.28 74.43 409.87 74.56 411.46 74.74 C 413.04 74.92 414.63 75.16 416.2 75.46 C 418.27 75.85 420.34 76.3 422.39 76.83 C 423.24 78.17 424.07 79.53 424.87 80.9 C 425.64 82.21 426.4 83.54 427.13 84.87 C 429.66 89.5 431.96 94.24 434.04 99.08 C 436.49 104.77 438.7 110.55 440.67 116.41 C 443.21 123.96 445.43 131.61 447.31 139.35 C 449.5 148.4 451.35 157.52 452.83 166.71 Z  M 450.65 165.75 C 449.48 166.49 448.26 167.15 447 167.73 C 445.21 168.55 443.38 169.26 441.5 169.86 C 439.62 170.46 437.7 170.96 435.77 171.36 C 433.51 171.82 431.24 172.2 428.95 172.49 C 428.74 170.44 428.5 168.4 428.23 166.36 C 427.89 163.74 427.5 161.13 427.09 158.52 C 426.67 155.91 426.2 153.31 425.69 150.72 C 425.09 147.72 424.44 144.75 423.73 141.78 C 420.92 141.82 418.11 141.89 415.3 141.98 C 413.26 142.05 411.23 142.15 409.2 142.27 C 407.17 142.39 405.14 142.54 403.11 142.73 C 401.1 142.92 399.1 143.15 397.1 143.43 C 396.4 145.4 395.68 147.36 394.93 149.31 C 394.31 150.94 393.66 152.57 392.99 154.19 C 392.32 155.8 391.62 157.41 390.9 159 C 390.38 160.14 389.85 161.26 389.3 162.38 C 387.68 162.08 386.08 161.66 384.51 161.13 C 382.73 160.52 380.99 159.77 379.33 158.87 C 377.68 157.98 376.12 156.94 374.66 155.76 C 373.66 154.94 372.73 154.03 371.9 153.03 C 374.84 147.54 377.63 141.96 380.26 136.31 C 382.87 130.67 385.32 124.96 387.58 119.18 C 388.16 117.7 388.72 116.22 389.28 114.74 C 389.89 113.08 390.49 111.42 391.08 109.75 C 392.81 104.87 394.45 99.96 395.99 95.01 C 397.93 88.77 399.79 82.5 401.57 76.2 C 403.24 76.21 404.91 76.26 406.58 76.35 C 408.14 76.42 409.69 76.55 411.23 76.73 C 412.77 76.9 414.3 77.13 415.83 77.42 C 417.6 77.76 419.37 78.14 421.12 78.57 C 421.81 79.67 422.49 80.79 423.15 81.91 C 423.91 83.21 424.65 84.51 425.37 85.83 C 427.87 90.4 430.15 95.08 432.21 99.87 C 434.63 105.51 436.82 111.24 438.78 117.05 C 441.3 124.54 443.5 132.14 445.36 139.83 C 447.45 148.4 449.21 157.04 450.65 165.75 Z  M 411.01 126.21 C 412.31 126.09 413.61 125.99 414.92 125.91 C 415.8 125.85 416.68 125.81 417.56 125.77 C 417.01 123.97 416.45 122.17 415.88 120.38 C 415.24 118.35 414.58 116.33 413.9 114.31 C 413.23 112.29 412.54 110.29 411.82 108.29 C 411.5 107.42 411.18 106.55 410.86 105.68 C 410.6 106.63 410.33 107.59 410.07 108.54 C 409.46 110.73 408.83 112.92 408.2 115.1 C 407.56 117.29 406.91 119.47 406.25 121.65 C 405.72 123.42 405.17 125.18 404.62 126.94 C 405.45 126.83 406.29 126.72 407.12 126.62 C 408.42 126.46 409.72 126.33 411.01 126.21 Z  M 410.49 99.26 C 409.74 102.18 408.95 105.09 408.14 108 C 407.53 110.19 406.91 112.37 406.28 114.55 C 405.64 116.72 405 118.9 404.34 121.07 C 403.5 123.85 402.63 126.62 401.75 129.38 C 403.62 129.09 405.49 128.83 407.36 128.6 C 408.64 128.45 409.92 128.32 411.2 128.2 C 412.48 128.08 413.76 127.98 415.04 127.9 C 416.77 127.8 418.5 127.73 420.24 127.69 C 419.44 125.05 418.62 122.41 417.79 119.77 C 417.14 117.74 416.48 115.7 415.8 113.68 C 415.13 111.65 414.42 109.62 413.7 107.61 C 412.68 104.81 411.62 102.02 410.49 99.26 Z  M 484.04 139.58 L 484.04 162.66 C 484.04 163.1 483.75 163.49 483.33 163.62 C 482.27 163.95 481.19 164.21 480.09 164.42 C 478.15 164.78 476.2 165.08 474.24 165.32 C 472.28 165.56 470.31 165.75 468.34 165.88 C 466.43 166.01 464.52 166.06 462.61 166.04 C 461.82 157.08 461.11 148.12 460.46 139.16 C 459.95 132.08 459.51 125 459.13 117.91 C 458.76 110.83 458.46 103.74 458.23 96.64 C 458.07 91.55 458 86.45 458 81.36 C 458.43 81.04 458.86 80.73 459.31 80.45 C 459.49 80.33 459.68 80.23 459.86 80.14 C 459.86 80.14 459.86 80.14 459.86 80.14 L 460.81 79.66 C 462.39 78.85 464.01 78.15 465.68 77.54 C 467.67 76.83 469.69 76.22 471.74 75.71 C 473.79 75.21 475.86 74.82 477.95 74.53 C 480.32 74.21 482.71 74.01 485.1 73.94 C 487.6 77.55 490 81.22 492.31 84.95 C 494.3 88.17 496.21 91.45 498.02 94.77 C 499.83 98.1 501.55 101.47 503.17 104.9 C 504.21 107.09 505.21 109.29 506.18 111.51 C 506.15 108.42 506.1 105.33 506.03 102.24 C 505.94 98.54 505.8 94.84 505.6 91.14 C 505.41 87.44 505.14 83.76 504.8 80.07 C 504.56 77.45 504.23 74.84 503.82 72.24 C 506.17 71.49 508.54 70.84 510.94 70.27 C 512.96 69.79 514.99 69.38 517.03 69.04 C 519.07 68.69 521.13 68.44 523.2 68.26 C 525.51 68.07 527.84 67.99 530.16 68.02 C 530.3 70.6 530.42 73.18 530.51 75.76 C 530.59 77.87 530.65 79.97 530.69 82.08 C 530.73 84.19 530.76 86.29 530.78 88.4 C 530.8 90.38 530.81 92.37 530.81 94.36 C 530.81 99.24 530.76 104.13 530.65 109.01 C 530.54 114.36 530.37 119.7 530.15 125.04 C 529.93 130.38 529.67 135.72 529.38 141.05 C 529.08 146.25 528.75 151.44 528.37 156.62 C 525.64 157.07 522.91 157.48 520.18 157.87 C 518.57 158.1 516.96 158.3 515.34 158.48 C 513.73 158.66 512.11 158.82 510.49 158.95 C 508.74 159.1 506.99 159.21 505.23 159.29 C 502.61 152.94 499.92 146.61 497.14 140.31 C 495.65 136.91 494.08 133.54 492.44 130.2 C 490.8 126.87 489.08 123.57 487.28 120.32 C 486.25 118.46 485.19 116.62 484.09 114.8 C 484.08 115.29 484.08 115.78 484.07 116.26 C 484.05 118.22 484.04 120.18 484.04 122.14 L 484.04 128.03 L 484.04 139.58 Z  M 482.04 139.58 L 482.04 161.91 C 481.28 162.13 480.5 162.31 479.72 162.45 C 477.82 162.81 475.91 163.1 473.99 163.34 C 472.07 163.57 470.14 163.76 468.21 163.89 C 466.95 163.97 465.7 164.02 464.44 164.04 C 463.72 155.7 463.06 147.36 462.46 139.02 C 461.95 131.95 461.51 124.88 461.13 117.81 C 460.76 110.74 460.46 103.66 460.23 96.58 C 460.09 91.85 460.01 87.12 460 82.39 C 460.13 82.3 460.26 82.22 460.39 82.13 C 460.51 82.06 460.63 81.99 460.76 81.92 L 461.71 81.45 C 461.71 81.45 461.72 81.44 461.72 81.44 C 463.22 80.67 464.77 80 466.36 79.43 C 468.28 78.73 470.23 78.14 472.21 77.66 C 474.19 77.17 476.2 76.79 478.22 76.51 C 480.17 76.25 482.12 76.07 484.08 75.98 C 486.33 79.27 488.51 82.61 490.61 86 C 492.58 89.19 494.47 92.44 496.26 95.73 C 498.06 99.02 499.76 102.36 501.36 105.75 C 503.83 110.97 506.1 116.27 508.18 121.66 C 508.23 115.17 508.18 108.68 508.03 102.19 C 507.94 98.47 507.8 94.75 507.6 91.03 C 507.4 87.31 507.13 83.6 506.79 79.89 C 506.6 77.8 506.35 75.72 506.05 73.64 C 507.82 73.12 509.61 72.64 511.4 72.21 C 513.37 71.74 515.36 71.34 517.36 71.01 C 519.35 70.68 521.35 70.43 523.37 70.26 C 525 70.12 526.63 70.04 528.26 70.02 C 528.36 71.95 528.44 73.89 528.52 75.83 C 528.59 77.93 528.65 80.02 528.69 82.12 C 528.73 84.22 528.76 86.32 528.78 88.42 C 528.8 90.4 528.81 92.38 528.81 94.36 C 528.81 99.23 528.76 104.1 528.65 108.97 C 528.54 114.3 528.37 119.63 528.15 124.96 C 527.94 130.29 527.68 135.62 527.38 140.94 C 527.12 145.6 526.82 150.25 526.49 154.9 C 524.29 155.25 522.1 155.58 519.9 155.89 C 518.31 156.11 516.72 156.32 515.12 156.49 C 513.52 156.67 511.92 156.83 510.32 156.96 C 509.06 157.06 507.8 157.15 506.54 157.22 C 504.09 151.29 501.56 145.38 498.98 139.51 C 497.46 136.08 495.88 132.68 494.23 129.32 C 492.58 125.96 490.85 122.63 489.03 119.35 C 486.91 115.52 484.65 111.77 482.25 108.11 C 482.16 110.82 482.1 113.53 482.07 116.24 C 482.05 118.21 482.04 120.18 482.04 122.14 L 482.04 128.03 L 482.04 139.58 Z  M 608.77 116.8 C 608.7 120.88 608.77 124.96 608.98 129.04 C 609.16 132.66 609.46 136.28 609.88 139.88 C 610.29 143.48 610.82 147.07 611.47 150.64 C 612.16 154.48 612.99 158.28 613.96 162.06 C 612.44 162.49 610.9 162.86 609.35 163.17 C 607.9 163.45 606.44 163.69 604.97 163.89 C 603.51 164.09 602.04 164.26 600.57 164.38 C 598.56 164.56 596.54 164.68 594.52 164.76 C 593.94 163.56 593.38 162.36 592.85 161.14 C 592.39 160.09 591.95 159.04 591.53 157.97 C 591.11 156.91 590.71 155.85 590.32 154.78 C 590.13 154.26 589.94 153.73 589.76 153.21 C 588.53 154.54 587.21 155.79 585.8 156.92 C 584.11 158.27 582.28 159.42 580.34 160.35 C 578.39 161.28 576.35 161.98 574.24 162.44 C 571.92 162.94 569.55 163.19 567.17 163.19 C 565.06 163.19 562.96 162.97 560.89 162.54 C 559.07 162.16 557.3 161.56 555.61 160.76 C 553.98 159.99 552.44 159.02 551.03 157.89 C 549.52 156.67 548.14 155.29 546.93 153.77 C 545.79 152.33 544.78 150.78 543.93 149.15 C 543 147.38 542.23 145.53 541.62 143.62 C 540.92 141.44 540.41 139.21 540.1 136.94 C 539.71 134.19 539.52 131.41 539.52 128.63 C 539.52 124.57 539.79 120.52 540.34 116.51 C 540.83 112.98 541.58 109.5 542.61 106.1 C 543.54 102.98 544.72 99.94 546.14 97 C 547.5 94.18 549.09 91.47 550.88 88.9 C 551.91 87.44 553.01 86.04 554.18 84.69 C 555.22 83.49 556.33 82.35 557.5 81.28 C 558.58 80.31 559.7 79.39 560.88 78.55 C 561.99 77.75 563.14 77.03 564.34 76.38 C 565.5 75.75 566.7 75.19 567.93 74.71 C 569.15 74.24 570.41 73.84 571.68 73.52 C 572.99 73.19 574.31 72.95 575.65 72.79 C 577.06 72.62 578.48 72.53 579.91 72.53 C 581.99 72.53 584.08 72.71 586.13 73.06 C 587.89 73.35 589.62 73.83 591.29 74.47 C 592.82 75.05 594.28 75.79 595.66 76.67 C 597.03 77.53 598.3 78.53 599.46 79.66 C 600.61 80.77 601.65 81.98 602.56 83.29 C 603.52 84.66 604.34 86.12 605.03 87.63 C 605.79 89.33 606.4 91.09 606.84 92.89 C 607.43 95.29 607.81 97.72 607.98 100.18 C 605.96 100.85 603.92 101.42 601.85 101.88 C 599.89 102.32 597.92 102.68 595.93 102.96 C 593.95 103.24 591.95 103.45 589.95 103.58 C 587.32 103.75 584.68 103.82 582.03 103.8 C 581.8 102.4 581.55 100.99 581.26 99.6 C 581.09 98.74 580.9 97.89 580.7 97.05 C 580.4 95.84 580.06 94.65 579.67 93.48 C 579.46 92.83 579.2 92.2 578.89 91.59 C 578.65 91.11 578.37 90.66 578.05 90.23 C 577.84 89.94 577.59 89.69 577.31 89.47 C 577.05 89.26 576.75 89.09 576.43 88.97 C 576.13 88.87 575.82 88.81 575.5 88.81 C 575.2 88.81 574.9 88.86 574.61 88.94 C 574.29 89.03 573.99 89.16 573.71 89.33 C 573.41 89.52 573.12 89.75 572.87 90 C 572.5 90.36 572.17 90.75 571.88 91.17 C 571.39 91.87 570.97 92.61 570.63 93.39 C 570.07 94.65 569.6 95.94 569.2 97.26 C 568.98 98.02 568.77 98.79 568.58 99.56 C 568.37 100.44 568.18 101.33 568.01 102.22 C 567.51 104.83 567.16 107.46 566.95 110.11 C 566.65 113.82 566.51 117.53 566.51 121.25 C 566.51 122.89 566.55 124.53 566.63 126.17 C 566.69 127.43 566.79 128.69 566.93 129.95 C 567.12 131.61 567.41 133.26 567.8 134.89 C 568.04 135.91 568.38 136.9 568.8 137.86 C 569.17 138.68 569.63 139.46 570.18 140.16 C 570.6 140.69 571.09 141.15 571.65 141.53 C 572.16 141.88 572.74 142.15 573.34 142.32 C 574.04 142.52 574.77 142.62 575.5 142.62 C 575.99 142.62 576.48 142.58 576.96 142.5 C 577.42 142.42 577.87 142.3 578.31 142.15 C 578.76 141.98 579.2 141.78 579.62 141.54 C 580.09 141.28 580.53 140.98 580.95 140.64 C 581.77 139.98 582.49 139.21 583.1 138.35 C 583.83 137.32 584.44 136.21 584.94 135.05 C 584.76 133.91 584.59 132.77 584.42 131.62 C 584.24 130.39 584.07 129.16 583.91 127.92 C 583.75 126.68 583.61 125.44 583.49 124.2 C 583.35 122.69 583.23 121.18 583.14 119.67 C 585.01 119.14 586.9 118.69 588.8 118.33 C 590.69 117.97 592.58 117.68 594.49 117.46 C 596.39 117.24 598.3 117.08 600.22 116.99 C 603.06 116.85 605.91 116.78 608.77 116.8 Z  M 567.29 96.69 C 567.05 97.48 566.83 98.28 566.64 99.09 C 566.42 100 566.22 100.92 566.05 101.84 C 565.53 104.52 565.17 107.23 564.95 109.95 C 564.66 113.71 564.51 117.48 564.51 121.25 C 564.51 122.93 564.55 124.6 564.63 126.27 C 564.7 127.58 564.8 128.88 564.95 130.17 C 565.14 131.91 565.45 133.64 565.85 135.35 C 566.12 136.49 566.5 137.6 566.97 138.67 C 567.41 139.65 567.95 140.56 568.61 141.4 C 569.15 142.09 569.8 142.69 570.52 143.18 C 571.22 143.65 571.98 144.01 572.79 144.24 C 573.67 144.49 574.58 144.62 575.5 144.62 C 576.1 144.62 576.7 144.57 577.29 144.47 C 577.87 144.37 578.43 144.23 578.98 144.03 C 579.55 143.83 580.09 143.58 580.61 143.28 C 581.17 142.96 581.7 142.6 582.2 142.2 C 583.17 141.42 584.02 140.52 584.73 139.5 C 585.66 138.19 586.42 136.78 587.01 135.29 C 586.79 133.97 586.59 132.66 586.4 131.34 C 586.22 130.12 586.05 128.89 585.9 127.67 C 585.74 126.45 585.6 125.23 585.48 124.01 C 585.39 123.06 585.31 122.12 585.24 121.17 C 586.54 120.83 587.85 120.54 589.17 120.29 C 591.01 119.94 592.86 119.66 594.72 119.45 C 596.58 119.23 598.45 119.08 600.32 118.99 C 602.46 118.88 604.6 118.82 606.74 118.8 C 606.73 122.25 606.81 125.7 606.98 129.14 C 607.17 132.8 607.47 136.46 607.89 140.11 C 608.31 143.75 608.84 147.39 609.5 151 C 610.08 154.23 610.77 157.44 611.54 160.63 C 610.69 160.84 609.83 161.03 608.96 161.2 C 607.55 161.48 606.13 161.72 604.7 161.91 C 603.27 162.11 601.84 162.27 600.4 162.39 C 598.85 162.52 597.31 162.63 595.76 162.7 C 595.39 161.92 595.03 161.13 594.68 160.34 C 594.23 159.31 593.8 158.28 593.39 157.24 C 592.98 156.2 592.58 155.15 592.2 154.09 C 591.6 152.46 591.04 150.8 590.51 149.14 C 588.8 151.46 586.79 153.55 584.54 155.36 C 582.98 156.61 581.28 157.68 579.47 158.55 C 577.67 159.41 575.77 160.06 573.82 160.48 C 571.63 160.95 569.41 161.19 567.17 161.19 C 565.2 161.19 563.23 160.98 561.3 160.58 C 559.63 160.23 558.01 159.69 556.47 158.96 C 554.97 158.25 553.57 157.37 552.28 156.33 C 550.89 155.2 549.62 153.93 548.5 152.52 C 547.43 151.18 546.49 149.74 545.7 148.22 C 544.82 146.55 544.1 144.81 543.52 143.01 C 542.86 140.94 542.38 138.82 542.08 136.66 C 541.7 134 541.52 131.32 541.52 128.63 C 541.52 124.66 541.79 120.7 542.33 116.78 C 542.79 113.36 543.53 109.98 544.52 106.68 C 545.43 103.66 546.57 100.71 547.94 97.87 C 549.25 95.14 550.78 92.53 552.52 90.05 C 553.51 88.65 554.56 87.3 555.69 86 C 556.68 84.86 557.74 83.78 558.85 82.76 C 559.87 81.84 560.93 80.97 562.05 80.17 C 563.09 79.43 564.17 78.75 565.29 78.14 C 566.38 77.55 567.5 77.03 568.66 76.58 C 569.8 76.13 570.97 75.76 572.17 75.46 C 573.39 75.15 574.64 74.92 575.89 74.77 C 577.22 74.61 578.56 74.53 579.91 74.53 C 581.88 74.53 583.85 74.7 585.8 75.03 C 587.43 75.3 589.03 75.74 590.57 76.33 C 591.98 76.87 593.32 77.55 594.59 78.35 C 595.84 79.15 597.01 80.07 598.07 81.09 C 599.13 82.11 600.08 83.23 600.92 84.44 C 601.81 85.7 602.57 87.05 603.2 88.46 C 603.92 90.04 604.49 91.68 604.9 93.37 C 605.33 95.14 605.65 96.95 605.85 98.76 C 604.38 99.21 602.9 99.6 601.41 99.93 C 599.51 100.36 597.59 100.71 595.65 100.98 C 593.72 101.26 591.77 101.46 589.82 101.58 C 587.79 101.71 585.76 101.79 583.72 101.8 C 583.57 100.93 583.4 100.07 583.22 99.2 C 583.05 98.32 582.85 97.44 582.64 96.57 C 582.34 95.32 581.98 94.07 581.57 92.85 C 581.33 92.11 581.03 91.39 580.68 90.7 C 580.39 90.11 580.04 89.55 579.65 89.02 C 579.33 88.61 578.97 88.23 578.56 87.91 C 578.13 87.56 577.63 87.28 577.11 87.09 C 576.59 86.91 576.05 86.81 575.5 86.81 C 575.01 86.81 574.52 86.88 574.05 87.02 C 573.57 87.16 573.1 87.36 572.67 87.63 C 572.23 87.9 571.82 88.22 571.46 88.58 C 571.01 89.03 570.6 89.51 570.24 90.03 C 569.68 90.83 569.2 91.68 568.8 92.58 C 568.21 93.92 567.7 95.29 567.29 96.69 Z  M 680.8 150.47 C 681.02 152.37 681.19 154.27 681.31 156.18 C 681.43 157.98 681.48 159.79 681.46 161.59 C 680.94 161.79 680.4 161.95 679.85 162.07 C 679.3 162.19 678.74 162.29 678.17 162.39 C 677.7 162.46 677.23 162.54 676.75 162.6 C 676.08 162.7 675.41 162.78 674.74 162.87 C 672.84 163.1 670.93 163.3 669.02 163.48 C 665.51 163.81 661.99 164.1 658.46 164.37 C 652.25 164.85 646.03 165.23 639.8 165.52 C 635.34 165.72 630.88 165.82 626.41 165.8 C 625.37 159.21 624.44 152.59 623.62 145.97 C 622.59 137.57 621.67 129.17 620.86 120.75 C 620.04 112.34 619.37 103.91 618.83 95.47 C 618.46 89.59 618.23 83.71 618.17 77.82 C 624.56 76.61 630.97 75.5 637.39 74.51 C 641.88 73.81 646.38 73.21 650.9 72.72 C 655.42 72.22 659.94 71.84 664.48 71.59 C 669.14 71.33 673.81 71.21 678.48 71.23 C 678.5 73.04 678.46 74.86 678.36 76.68 C 678.26 78.35 678.13 80.01 677.95 81.67 C 677.76 83.34 677.54 84.99 677.26 86.65 C 676.91 88.73 676.5 90.8 676.02 92.86 C 673.54 92.85 671.06 92.87 668.58 92.92 C 666.2 92.96 663.83 93.02 661.45 93.1 C 659.08 93.18 656.71 93.27 654.33 93.39 C 652.04 93.5 649.76 93.62 647.47 93.76 C 647.42 94.33 647.38 94.91 647.35 95.49 C 647.28 96.61 647.23 97.73 647.19 98.86 C 647.15 99.98 647.12 101.11 647.09 102.24 C 647.05 104.04 647.01 105.85 646.98 107.66 C 648.59 107.21 650.22 106.81 651.86 106.46 C 653.88 106.02 655.91 105.67 657.95 105.39 C 660 105.11 662.05 104.9 664.11 104.76 C 666.49 104.6 668.87 104.53 671.26 104.55 C 671.66 106.21 672 107.88 672.28 109.57 C 672.52 111.04 672.73 112.52 672.89 114 C 673.05 115.49 673.16 116.98 673.23 118.48 C 673.34 120.8 673.38 123.14 673.37 125.47 C 670.78 125.45 668.2 125.49 665.62 125.57 C 663.41 125.64 661.2 125.74 658.98 125.88 C 656.77 126.02 654.56 126.18 652.35 126.38 C 650.56 126.53 648.76 126.71 646.97 126.9 C 647.01 128.38 647.05 129.86 647.1 131.33 C 647.16 133.03 647.23 134.74 647.31 136.44 C 647.39 138.13 647.49 139.83 647.61 141.52 C 647.7 142.76 647.81 143.99 647.93 145.22 C 648.35 145.21 648.78 145.18 649.2 145.16 C 650.53 145.07 651.85 144.96 653.17 144.82 C 655.92 144.53 658.67 144.22 661.42 143.88 C 665.1 143.43 668.77 142.93 672.44 142.39 C 674.57 142.08 676.7 141.71 678.81 141.3 C 679.03 141.78 679.22 142.28 679.38 142.8 C 679.48 143.1 679.57 143.4 679.65 143.71 C 679.87 144.55 680.05 145.41 680.2 146.27 C 680.44 147.66 680.64 149.06 680.8 150.47 Z  M 677.53 143.58 C 677.6 143.79 677.66 144 677.71 144.22 C 677.92 145 678.09 145.8 678.23 146.6 C 678.46 147.96 678.65 149.33 678.81 150.7 C 679.03 152.57 679.2 154.44 679.32 156.31 C 679.4 157.57 679.44 158.84 679.46 160.11 C 679.45 160.11 679.44 160.11 679.44 160.11 C 678.91 160.23 678.38 160.33 677.85 160.41 C 677.39 160.49 676.93 160.56 676.48 160.62 C 675.82 160.71 675.16 160.8 674.5 160.88 C 672.62 161.11 670.73 161.31 668.84 161.49 C 665.33 161.81 661.82 162.11 658.31 162.38 C 652.12 162.86 645.91 163.24 639.71 163.52 C 635.85 163.7 631.99 163.79 628.12 163.8 C 627.19 157.79 626.35 151.76 625.61 145.72 C 624.58 137.35 623.66 128.96 622.85 120.56 C 622.04 112.17 621.36 103.76 620.83 95.34 C 620.49 90.06 620.28 84.77 620.19 79.48 C 626.01 78.39 631.85 77.39 637.7 76.48 C 642.16 75.79 646.63 75.2 651.12 74.7 C 655.6 74.21 660.09 73.84 664.59 73.59 C 668.55 73.36 672.51 73.24 676.48 73.23 C 676.47 74.34 676.43 75.45 676.36 76.56 C 676.27 78.2 676.13 79.83 675.96 81.46 C 675.78 83.08 675.56 84.7 675.29 86.31 C 675.03 87.84 674.74 89.35 674.42 90.86 C 672.46 90.86 670.5 90.88 668.55 90.92 C 666.16 90.96 663.77 91.02 661.39 91.1 C 659 91.18 656.62 91.27 654.24 91.39 C 651.37 91.53 648.5 91.68 645.63 91.87 C 645.51 93.03 645.42 94.2 645.35 95.37 C 645.28 96.51 645.23 97.65 645.19 98.78 C 645.15 99.92 645.12 101.05 645.09 102.19 C 645.03 104.91 644.97 107.63 644.93 110.35 C 647.35 109.59 649.8 108.95 652.28 108.41 C 654.25 107.99 656.23 107.64 658.23 107.37 C 660.22 107.09 662.23 106.89 664.24 106.75 C 666.05 106.63 667.85 106.56 669.66 106.55 C 669.91 107.66 670.12 108.77 670.31 109.89 C 670.54 111.33 670.74 112.77 670.9 114.22 C 671.06 115.66 671.17 117.12 671.23 118.57 C 671.31 120.2 671.35 121.83 671.37 123.47 C 669.43 123.48 667.49 123.51 665.56 123.57 C 663.32 123.64 661.09 123.74 658.86 123.88 C 656.63 124.02 654.4 124.19 652.18 124.38 C 649.76 124.59 647.34 124.84 644.93 125.12 C 644.97 127.21 645.03 129.31 645.1 131.4 C 645.16 133.11 645.23 134.82 645.31 136.53 C 645.39 138.24 645.49 139.96 645.62 141.67 C 645.75 143.52 645.92 145.38 646.12 147.22 C 646.73 147.25 647.33 147.25 647.94 147.22 C 648.4 147.21 648.87 147.18 649.33 147.15 C 650.68 147.06 652.03 146.95 653.38 146.81 C 656.14 146.52 658.91 146.21 661.66 145.87 C 665.36 145.41 669.05 144.91 672.73 144.37 C 674.34 144.14 675.94 143.87 677.53 143.58 Z  M 750.26 133.8 C 752.16 136.75 753.95 139.76 755.65 142.83 C 757.8 146.71 759.83 150.65 761.75 154.64 C 760.36 156.14 758.84 157.5 757.2 158.73 C 755.55 159.97 753.8 161.1 751.99 162.11 C 750.18 163.12 748.3 164.01 746.38 164.79 C 743.82 165.82 741.21 166.7 738.55 167.43 C 735.91 161.18 733.19 154.96 730.41 148.77 C 729.25 146.2 728.04 143.67 726.75 141.16 C 725.48 138.67 724.12 136.2 722.7 133.78 C 721.54 131.81 720.32 129.88 719.05 127.98 C 718.93 128.01 718.8 128.04 718.68 128.07 C 718.52 128.11 718.36 128.16 718.2 128.21 C 718.09 128.25 717.97 128.29 717.86 128.33 M 759.34 154.25 C 758.29 155.29 757.18 156.25 756 157.13 C 754.42 158.32 752.75 159.4 751.02 160.36 C 749.28 161.33 747.48 162.19 745.63 162.93 C 743.69 163.72 741.71 164.42 739.7 165.02 C 737.27 159.3 734.78 153.61 732.23 147.94 C 731.06 145.35 729.83 142.79 728.54 140.25 C 727.24 137.72 725.87 135.22 724.43 132.77 C 723.01 130.37 721.52 128.02 719.94 125.73 C 719.35 125.85 718.76 125.98 718.18 126.13 C 717.97 126.19 717.77 126.25 717.57 126.31 C 717.37 126.38 717.17 126.45 716.98 126.53 C 716.6 126.69 716.24 126.87 715.89 127.08 C 715.81 130.12 715.7 133.16 715.57 136.2 C 715.46 138.91 715.32 141.63 715.16 144.34 C 715 147.05 714.83 149.76 714.63 152.47 C 714.45 154.82 714.26 157.17 714.06 159.52 C 712.59 159.51 711.12 159.48 709.66 159.42 C 707.84 159.35 706.03 159.25 704.22 159.11 C 702.41 158.97 700.6 158.8 698.8 158.58 C 697.7 158.46 696.61 158.3 695.52 158.13 L 695.62 153.4 C 695.64 152.49 695.66 151.58 695.68 150.67 C 695.7 149.75 695.72 148.83 695.73 147.92 C 695.74 147.12 695.74 146.32 695.74 145.53 C 695.74 140.48 695.66 135.43 695.5 130.39 C 695.32 124.9 695.07 119.41 694.73 113.93 C 694.39 108.45 693.98 102.97 693.5 97.5 C 692.94 91.23 692.32 84.97 691.63 78.71 C 693.31 77.33 695.11 76.1 697.02 75.06 C 699.42 73.73 701.93 72.63 704.52 71.74 C 707.13 70.85 709.8 70.17 712.51 69.71 C 715.02 69.28 717.55 69.06 720.09 69.06 C 722.86 69.06 725.63 69.24 728.38 69.61 C 730.52 69.89 732.63 70.36 734.69 71 C 736.38 71.53 738.03 72.2 739.61 73.01 C 740.99 73.71 742.29 74.55 743.51 75.51 C 744.79 76.52 745.96 77.68 746.99 78.96 C 747.96 80.17 748.78 81.49 749.44 82.9 C 750.14 84.39 750.66 85.95 750.99 87.57 C 751.38 89.49 751.58 91.44 751.58 93.41 C 751.58 94.56 751.5 95.71 751.34 96.85 C 751.19 97.96 750.97 99.06 750.67 100.13 C 750.36 101.22 749.99 102.28 749.54 103.31 C 749.07 104.39 748.52 105.44 747.91 106.45 C 746.7 108.45 745.26 110.3 743.61 111.95 C 741.29 114.27 738.72 116.32 735.95 118.07 C 738.31 120.73 740.55 123.5 742.68 126.35 C 744.74 129.12 746.71 131.97 748.58 134.88 C 750.45 137.8 752.23 140.77 753.9 143.8 C 755.8 147.24 757.62 150.72 759.34 154.25 Z  M 716.11 112.8 L 716.11 113.28 C 716.11 113.61 716.28 113.92 716.55 114.1 C 716.82 114.29 717.16 114.33 717.47 114.21 C 718.48 113.83 719.45 113.37 720.39 112.84 C 721.22 112.37 722.02 111.83 722.77 111.23 C 723.47 110.67 724.12 110.05 724.71 109.38 C 725.3 108.72 725.83 108.01 726.29 107.26 C 726.74 106.54 727.14 105.78 727.47 104.99 C 727.83 104.14 728.13 103.26 728.37 102.36 C 728.64 101.34 728.84 100.3 728.96 99.26 C 729.11 98.03 729.18 96.79 729.18 95.55 C 729.18 94.3 729.1 93.06 728.93 91.83 C 728.8 90.83 728.58 89.85 728.27 88.88 C 728.02 88.07 727.69 87.28 727.3 86.52 C 726.95 85.83 726.53 85.18 726.05 84.57 C 725.54 83.93 724.96 83.35 724.32 82.84 C 723.69 82.35 723.01 81.93 722.29 81.59 C 721.51 81.23 720.69 80.97 719.85 80.8 C 718.87 80.6 717.87 80.51 716.88 80.51 L 716.4 80.51 C 716.13 80.51 715.87 80.62 715.68 80.81 C 715.49 81 715.39 81.27 715.4 81.54 C 715.52 85.42 715.63 89.31 715.75 93.2 C 715.81 95.48 715.88 97.76 715.94 100.04 C 715.99 102.31 716.04 104.59 716.07 106.87 C 716.1 108.85 716.11 110.82 716.11 112.8 Z  M 802.56 71.46 C 805.06 71.46 807.56 71.7 810.02 72.17 C 812.1 72.57 814.12 73.21 816.06 74.07 C 817.84 74.87 819.53 75.87 821.09 77.05 C 822.68 78.25 824.12 79.63 825.4 81.16 C 826.68 82.7 827.8 84.36 828.73 86.13 C 829.77 88.11 830.63 90.18 831.29 92.32 C 832 94.62 832.51 96.97 832.83 99.36 C 833.23 102.32 833.42 105.3 833.42 108.28 C 833.42 111.4 833.22 114.52 832.81 117.62 C 832.37 120.91 831.73 124.18 830.89 127.39 C 830.05 130.61 829 133.77 827.75 136.85 C 826.66 139.53 825.36 142.13 823.88 144.62 C 822.92 146.16 821.87 147.65 820.75 149.08 C 819.72 150.38 818.62 151.61 817.44 152.78 C 816.33 153.87 815.16 154.89 813.93 155.84 C 812.74 156.76 811.5 157.59 810.2 158.35 C 808.89 159.12 807.52 159.79 806.12 160.38 C 804.7 160.96 803.25 161.45 801.77 161.84 C 800.23 162.25 798.67 162.55 797.09 162.75 C 795.39 162.96 793.68 163.07 791.96 163.07 C 789.52 163.07 787.09 162.8 784.7 162.28 C 782.61 161.82 780.59 161.1 778.68 160.14 C 777.75 159.68 776.86 159.16 776 158.58 C 775.12 158 774.29 157.36 773.49 156.68 C 772.66 155.96 771.87 155.2 771.13 154.38 C 770.34 153.51 769.59 152.6 768.9 151.65 C 767.62 149.88 766.5 147.99 765.57 146.02 C 764.52 143.8 763.66 141.51 762.99 139.16 C 762.24 136.55 761.7 133.88 761.36 131.19 C 760.95 127.89 760.74 124.57 760.74 121.25 C 760.74 117.47 761.02 113.69 761.59 109.95 C 762.08 106.74 762.85 103.58 763.9 100.52 C 764.85 97.73 766.05 95.04 767.48 92.46 C 768.85 89.98 770.46 87.63 772.27 85.45 C 773.25 84.27 774.28 83.15 775.38 82.09 C 776.4 81.09 777.48 80.14 778.61 79.26 C 779.69 78.42 780.82 77.64 781.99 76.92 C 783.14 76.22 784.33 75.58 785.55 75.01 C 786.78 74.44 788.04 73.93 789.33 73.5 C 790.66 73.06 792.01 72.69 793.38 72.4 C 794.83 72.09 796.29 71.85 797.77 71.7 C 799.36 71.54 800.96 71.46 802.56 71.46 Z  M 773.81 86.73 C 774.74 85.6 775.73 84.53 776.77 83.52 C 777.74 82.57 778.77 81.68 779.84 80.84 C 780.86 80.04 781.93 79.3 783.03 78.63 C 784.12 77.96 785.24 77.36 786.39 76.82 C 787.56 76.28 788.75 75.81 789.96 75.4 C 791.22 74.98 792.5 74.63 793.8 74.35 C 795.18 74.06 796.57 73.84 797.97 73.69 C 799.49 73.54 801.02 73.46 802.56 73.46 C 804.93 73.46 807.31 73.69 809.64 74.14 C 811.57 74.51 813.45 75.1 815.24 75.9 C 816.89 76.63 818.45 77.55 819.88 78.64 C 821.35 79.76 822.68 81.03 823.86 82.44 C 825.05 83.87 826.09 85.42 826.96 87.07 C 827.94 88.94 828.75 90.89 829.38 92.91 C 830.05 95.1 830.55 97.35 830.85 99.62 C 831.23 102.49 831.42 105.39 831.42 108.28 C 831.42 111.31 831.22 114.35 830.83 117.35 C 830.4 120.57 829.78 123.75 828.96 126.89 C 828.14 130.02 827.12 133.1 825.9 136.09 C 824.85 138.68 823.6 141.18 822.17 143.58 C 821.25 145.05 820.25 146.48 819.18 147.84 C 818.2 149.08 817.15 150.25 816.03 151.36 C 814.99 152.39 813.88 153.36 812.71 154.26 C 811.59 155.12 810.41 155.91 809.19 156.62 C 807.96 157.34 806.67 157.98 805.35 158.53 C 804.02 159.08 802.66 159.54 801.26 159.91 C 799.81 160.29 798.33 160.58 796.84 160.77 C 795.22 160.97 793.59 161.07 791.96 161.07 C 789.67 161.07 787.38 160.82 785.13 160.33 C 783.21 159.9 781.34 159.24 779.58 158.36 C 778.72 157.93 777.9 157.45 777.11 156.92 C 776.3 156.38 775.53 155.79 774.79 155.16 C 774.02 154.5 773.29 153.79 772.61 153.04 C 771.86 152.22 771.17 151.37 770.52 150.47 C 769.31 148.8 768.26 147.02 767.37 145.16 C 766.38 143.05 765.55 140.86 764.91 138.61 C 764.19 136.1 763.67 133.53 763.34 130.94 C 762.94 127.73 762.74 124.49 762.74 121.25 C 762.74 117.57 763.02 113.89 763.57 110.25 C 764.04 107.16 764.79 104.12 765.79 101.16 C 766.7 98.49 767.85 95.9 769.22 93.44 C 770.54 91.06 772.08 88.82 773.81 86.73 Z  M 796.96 145.6 C 797.35 145.6 797.75 145.56 798.13 145.49 C 798.48 145.42 798.83 145.32 799.16 145.18 C 799.5 145.04 799.82 144.87 800.13 144.67 C 800.47 144.44 800.79 144.18 801.08 143.9 C 801.64 143.36 802.12 142.74 802.51 142.07 C 803.1 141.06 803.6 139.99 803.99 138.89 C 804.21 138.27 804.4 137.65 804.57 137.02 C 804.79 136.19 804.98 135.36 805.14 134.52 C 805.26 133.9 805.37 133.28 805.47 132.65 C 805.59 131.91 805.69 131.17 805.78 130.43 C 806.04 128.32 806.22 126.19 806.32 124.07 C 806.48 120.99 806.55 117.91 806.55 114.83 C 806.55 112.82 806.52 110.82 806.44 108.82 C 806.39 107.3 806.29 105.79 806.16 104.27 C 805.98 102.14 805.69 100.02 805.29 97.92 C 805.06 96.72 804.73 95.55 804.3 94.41 C 803.93 93.45 803.45 92.54 802.86 91.69 C 802.45 91.09 801.94 90.57 801.36 90.14 C 800.84 89.75 800.26 89.46 799.64 89.27 C 798.92 89.04 798.18 88.93 797.44 88.93 C 797.04 88.93 796.64 88.97 796.25 89.05 C 795.88 89.12 795.52 89.23 795.18 89.37 C 794.82 89.53 794.47 89.71 794.15 89.93 C 793.78 90.19 793.43 90.48 793.11 90.79 C 792.53 91.38 792.02 92.03 791.6 92.74 C 790.96 93.82 790.42 94.96 789.99 96.13 C 789.75 96.78 789.53 97.44 789.33 98.1 C 789.11 98.88 788.9 99.67 788.72 100.46 C 788.59 101.04 788.47 101.62 788.36 102.21 C 788.24 102.86 788.12 103.51 788.03 104.17 C 787.73 106.12 787.52 108.08 787.39 110.06 C 787.22 112.67 787.13 115.3 787.13 117.92 C 787.13 120.02 787.19 122.11 787.3 124.21 C 787.39 125.87 787.54 127.53 787.74 129.18 C 787.97 131.05 788.29 132.9 788.7 134.74 C 789 136.08 789.39 137.4 789.87 138.69 C 790.28 139.8 790.78 140.87 791.37 141.89 C 791.77 142.57 792.24 143.19 792.79 143.75 C 793.1 144.07 793.43 144.35 793.8 144.61 C 794.1 144.83 794.44 145.01 794.78 145.16 C 795.12 145.3 795.46 145.41 795.82 145.48 C 796.19 145.56 796.58 145.6 796.96 145.6 Z  M 796.96 147.6 C 797.48 147.6 798 147.55 798.5 147.45 C 798.99 147.36 799.46 147.22 799.92 147.03 C 800.38 146.85 800.82 146.61 801.24 146.33 C 801.68 146.04 802.1 145.7 802.48 145.33 C 803.16 144.66 803.76 143.91 804.24 143.08 C 804.89 141.96 805.44 140.78 805.88 139.55 C 806.11 138.89 806.32 138.21 806.5 137.53 C 806.73 136.66 806.93 135.78 807.11 134.9 C 807.23 134.26 807.35 133.61 807.45 132.96 C 807.56 132.2 807.67 131.44 807.76 130.67 C 808.03 128.51 808.21 126.34 808.32 124.17 C 808.48 121.05 808.55 117.94 808.55 114.83 C 808.55 112.8 808.52 110.77 808.44 108.75 C 808.38 107.2 808.29 105.65 808.15 104.1 C 807.96 101.9 807.66 99.71 807.25 97.55 C 807 96.24 806.64 94.95 806.17 93.71 C 805.75 92.59 805.19 91.53 804.51 90.55 C 803.97 89.77 803.31 89.09 802.55 88.53 C 801.85 88.01 801.06 87.61 800.23 87.36 C 799.33 87.07 798.38 86.93 797.44 86.93 C 796.91 86.93 796.38 86.98 795.86 87.09 C 795.36 87.18 794.87 87.33 794.4 87.53 C 793.92 87.73 793.45 87.99 793.02 88.28 C 792.55 88.61 792.11 88.97 791.7 89.37 C 791 90.08 790.38 90.87 789.88 91.73 C 789.18 92.91 788.59 94.15 788.11 95.44 C 787.85 96.13 787.62 96.83 787.41 97.54 C 787.17 98.36 786.96 99.18 786.77 100.01 C 786.63 100.62 786.51 101.23 786.39 101.84 C 786.27 102.51 786.15 103.19 786.05 103.87 C 785.74 105.88 785.52 107.9 785.39 109.93 C 785.22 112.59 785.13 115.25 785.13 117.92 C 785.13 120.05 785.19 122.18 785.31 124.31 C 785.4 126.02 785.55 127.73 785.75 129.42 C 785.99 131.36 786.32 133.27 786.75 135.17 C 787.07 136.61 787.48 138.01 787.99 139.39 C 788.44 140.6 788.99 141.78 789.65 142.9 C 790.12 143.72 790.7 144.47 791.36 145.15 C 791.75 145.55 792.18 145.92 792.64 146.24 C 793.07 146.54 793.52 146.79 793.99 147 C 794.45 147.2 794.93 147.35 795.42 147.45 C 795.93 147.55 796.45 147.6 796.96 147.6 Z  M 900.47 73.97 C 901.41 78.36 902.27 82.77 903.06 87.2 C 903.53 89.89 903.94 92.59 904.28 95.3 C 904.62 98.02 904.88 100.74 905.06 103.47 C 905.22 105.86 905.3 108.26 905.3 110.66 C 905.3 115.2 905.11 119.73 904.73 124.26 C 904.43 127.83 903.94 131.38 903.26 134.89 C 902.5 138.83 901.44 142.7 900.08 146.47 C 899.02 149.39 897.67 152.2 896.05 154.86 C 895.26 156.15 894.38 157.4 893.44 158.6 C 892.58 159.69 891.65 160.73 890.65 161.7 C 889.72 162.61 888.72 163.46 887.67 164.25 C 886.65 165.01 885.58 165.7 884.47 166.32 C 883.35 166.94 882.19 167.49 881 167.96 C 879.76 168.44 878.49 168.85 877.2 169.17 C 875.81 169.51 874.4 169.77 872.98 169.93 C 871.41 170.12 869.83 170.21 868.24 170.21 C 865.87 170.21 863.5 169.95 861.18 169.43 C 859.18 168.99 857.26 168.29 855.45 167.35 C 854.58 166.9 853.74 166.39 852.94 165.84 C 852.13 165.27 851.36 164.66 850.63 164 C 849.86 163.31 849.14 162.58 848.47 161.8 C 847.75 160.96 847.09 160.09 846.47 159.18 C 845.25 157.37 844.22 155.45 843.39 153.44 C 842.38 151 841.57 148.48 840.96 145.91 C 840.36 143.34 839.93 140.74 839.66 138.12 C 839.33 134.81 839.16 131.48 839.16 128.15 C 839.16 124.05 839.33 119.94 839.68 115.85 C 840.05 111.43 840.6 107.03 841.31 102.65 C 841.77 99.89 842.28 97.14 842.86 94.41 C 843.2 92.8 843.61 91.21 844.08 89.64 C 844.37 88.7 844.68 87.77 845.04 86.85 C 845.32 86.15 845.65 85.46 846.05 84.81 C 846.96 84.56 847.87 84.35 848.8 84.18 C 849.9 83.98 851 83.81 852.11 83.67 C 853.22 83.53 854.34 83.42 855.45 83.35 C 856.5 83.28 857.55 83.24 858.6 83.24 C 859.86 83.24 861.11 83.29 862.36 83.38 C 863.29 83.45 864.22 83.57 865.15 83.73 C 866.07 83.9 866.99 84.13 867.89 84.41 C 868.7 84.67 869.48 85.05 870.18 85.55 C 869.58 88.96 869.05 92.38 868.61 95.82 C 868.19 98.98 867.85 102.16 867.57 105.33 C 867.3 108.51 867.09 111.69 866.94 114.88 C 866.81 117.72 866.74 120.55 866.74 123.39 C 866.74 125.55 866.78 127.71 866.84 129.87 C 866.89 131.6 866.97 133.33 867.08 135.05 C 867.21 137.1 867.4 139.15 867.64 141.19 C 867.82 142.64 868.05 144.08 868.33 145.51 C 868.56 146.63 868.83 147.73 869.16 148.82 C 869.36 149.47 869.6 150.1 869.89 150.7 C 870.06 151.05 870.25 151.39 870.46 151.71 C 870.6 151.9 870.75 152.08 870.92 152.25 C 871.09 152.41 871.28 152.55 871.5 152.64 C 871.63 152.71 871.78 152.74 871.93 152.74 C 872.15 152.74 872.37 152.7 872.58 152.62 C 872.84 152.51 873.08 152.37 873.29 152.19 C 873.51 152 873.71 151.78 873.89 151.55 C 874.16 151.18 874.41 150.78 874.62 150.37 C 874.99 149.67 875.29 148.94 875.53 148.19 C 875.94 146.91 876.28 145.62 876.55 144.31 C 876.71 143.52 876.86 142.73 876.98 141.93 C 877.14 140.96 877.28 139.99 877.4 139.01 C 877.74 136.25 877.98 133.48 878.12 130.71 C 878.33 126.49 878.43 122.26 878.43 118.04 C 878.43 115.21 878.34 112.38 878.15 109.55 C 877.94 106.35 877.64 103.14 877.25 99.95 C 876.85 96.76 876.37 93.58 875.8 90.42 C 875.1 86.56 874.29 82.72 873.39 78.91 C 875.21 78.06 877.1 77.37 879.03 76.84 C 881.42 76.18 883.84 75.64 886.28 75.22 C 888.72 74.8 891.17 74.48 893.64 74.24 C 895.91 74.03 898.19 73.94 900.47 73.97 Z  M 898.85 75.97 C 899.65 79.81 900.4 83.67 901.09 87.55 C 901.56 90.2 901.96 92.87 902.3 95.55 C 902.63 98.23 902.89 100.91 903.07 103.6 C 903.22 105.95 903.3 108.31 903.3 110.66 C 903.3 115.14 903.11 119.62 902.74 124.09 C 902.44 127.59 901.96 131.07 901.3 134.51 C 900.56 138.35 899.52 142.12 898.2 145.79 C 897.19 148.59 895.9 151.27 894.34 153.81 C 893.59 155.04 892.76 156.23 891.87 157.36 C 891.06 158.39 890.19 159.36 889.26 160.27 C 888.38 161.12 887.45 161.91 886.48 162.64 C 885.53 163.35 884.53 164 883.5 164.57 C 882.46 165.15 881.38 165.66 880.27 166.09 C 879.11 166.55 877.92 166.93 876.72 167.23 C 875.41 167.55 874.09 167.79 872.75 167.95 C 871.25 168.12 869.75 168.21 868.24 168.21 C 866.01 168.21 863.79 167.96 861.61 167.48 C 859.79 167.07 858.03 166.43 856.37 165.57 C 855.58 165.16 854.81 164.7 854.08 164.19 C 853.34 163.68 852.63 163.12 851.96 162.52 C 851.26 161.88 850.6 161.21 849.99 160.49 C 849.32 159.72 848.7 158.91 848.13 158.06 C 846.99 156.36 846.02 154.56 845.24 152.67 C 844.27 150.33 843.49 147.92 842.91 145.45 C 842.33 142.97 841.91 140.45 841.65 137.92 C 841.32 134.67 841.16 131.41 841.16 128.15 C 841.16 124.1 841.33 120.06 841.67 116.02 C 842.04 111.65 842.58 107.3 843.29 102.97 C 843.73 100.24 844.24 97.53 844.82 94.83 C 845.15 93.27 845.54 91.73 846 90.21 C 846.27 89.32 846.57 88.45 846.9 87.58 C 847.04 87.22 847.2 86.87 847.38 86.53 C 847.97 86.38 848.56 86.26 849.16 86.15 C 850.23 85.95 851.29 85.79 852.36 85.65 C 853.43 85.51 854.51 85.41 855.58 85.34 C 856.59 85.28 857.6 85.24 858.6 85.24 C 859.81 85.24 861.01 85.29 862.21 85.38 C 863.07 85.44 863.94 85.55 864.8 85.7 C 865.64 85.85 866.47 86.06 867.28 86.32 C 867.52 86.39 867.74 86.48 867.97 86.58 C 867.46 89.57 867.01 92.56 866.62 95.56 C 866.21 98.75 865.86 101.95 865.58 105.16 C 865.3 108.36 865.09 111.57 864.94 114.79 C 864.81 117.65 864.74 120.52 864.74 123.39 C 864.74 125.57 864.78 127.75 864.84 129.93 C 864.89 131.68 864.97 133.43 865.08 135.18 C 865.21 137.27 865.41 139.35 865.66 141.43 C 865.84 142.93 866.07 144.42 866.37 145.9 C 866.61 147.08 866.9 148.25 867.25 149.4 C 867.47 150.14 867.75 150.87 868.09 151.57 C 868.3 152 868.54 152.42 868.8 152.82 C 869.01 153.13 869.25 153.42 869.52 153.68 C 869.85 154.01 870.25 154.27 870.67 154.47 C 871.07 154.65 871.5 154.74 871.93 154.74 C 872.4 154.74 872.87 154.65 873.31 154.48 C 873.78 154.29 874.21 154.03 874.59 153.71 C 874.93 153.42 875.23 153.1 875.49 152.74 C 875.83 152.28 876.14 151.8 876.4 151.3 C 876.81 150.49 877.16 149.66 877.44 148.79 C 877.86 147.46 878.22 146.09 878.5 144.72 C 878.67 143.9 878.83 143.08 878.96 142.25 C 879.12 141.26 879.26 140.26 879.38 139.26 C 879.73 136.45 879.98 133.63 880.12 130.8 C 880.32 126.55 880.43 122.3 880.43 118.04 C 880.43 115.16 880.34 112.29 880.15 109.42 C 879.94 106.18 879.63 102.94 879.23 99.71 C 878.83 96.48 878.34 93.26 877.76 90.06 C 877.16 86.72 876.47 83.39 875.71 80.08 C 876.97 79.57 878.25 79.13 879.56 78.77 C 881.89 78.13 884.24 77.6 886.62 77.2 C 889.01 76.78 891.41 76.46 893.83 76.24 C 895.5 76.08 897.17 75.99 898.85 75.97 Z  M 953.73 87 C 953.37 86.54 952.97 86.13 952.52 85.76 C 952.11 85.42 951.66 85.14 951.18 84.91 C 950.68 84.67 950.15 84.49 949.6 84.38 C 948.95 84.24 948.28 84.17 947.62 84.17 C 947.21 84.17 946.8 84.21 946.4 84.28 C 946.08 84.34 945.77 84.43 945.47 84.56 C 945.19 84.67 944.93 84.82 944.69 84.99 C 944.44 85.16 944.21 85.36 944 85.58 C 943.8 85.8 943.61 86.04 943.46 86.3 C 943.29 86.57 943.15 86.85 943.04 87.15 C 942.92 87.48 942.83 87.82 942.77 88.17 C 942.7 88.6 942.67 89.04 942.67 89.48 C 942.67 90.06 942.71 90.65 942.8 91.23 C 942.89 91.81 943.02 92.38 943.19 92.94 C 943.37 93.52 943.6 94.1 943.87 94.65 C 944.16 95.26 944.5 95.85 944.88 96.42 C 945.07 96.71 945.27 96.98 945.49 97.25 C 945.78 97.62 946.09 97.98 946.41 98.33 C 946.65 98.59 946.9 98.85 947.15 99.1 C 947.45 99.41 947.76 99.71 948.07 100 C 948.96 100.84 949.87 101.65 950.82 102.43 C 952.22 103.59 953.66 104.72 955.12 105.81 C 957.11 107.29 959.07 108.8 961 110.36 C 962 111.17 962.97 112.02 963.9 112.91 C 964.83 113.8 965.72 114.74 966.56 115.71 C 967.31 116.58 968.01 117.48 968.66 118.41 C 969.6 119.71 970.43 121.08 971.15 122.51 C 971.83 123.87 972.4 125.28 972.85 126.73 C 973.3 128.18 973.63 129.66 973.85 131.16 C 974.08 132.8 974.2 134.46 974.2 136.13 C 974.2 138.22 974 140.31 973.59 142.37 C 973.22 144.23 972.65 146.06 971.89 147.8 C 971.13 149.52 970.2 151.15 969.09 152.67 C 967.9 154.29 966.56 155.8 965.07 157.15 C 963.6 158.5 962.01 159.7 960.32 160.74 C 958.67 161.76 956.94 162.62 955.14 163.3 C 953.26 164.01 951.33 164.54 949.35 164.88 C 947.17 165.26 944.95 165.45 942.74 165.45 C 940.29 165.45 937.85 165.24 935.43 164.82 C 933.28 164.45 931.16 163.87 929.12 163.09 C 927.17 162.35 925.29 161.42 923.52 160.31 C 921.71 159.18 920.01 157.89 918.44 156.44 C 916.81 154.93 915.32 153.27 914.01 151.48 C 912.83 149.89 911.83 148.17 911.03 146.37 C 910.25 144.62 909.66 142.79 909.27 140.92 C 908.82 138.75 908.62 136.54 908.66 134.32 C 910.13 133.55 911.66 132.89 913.22 132.33 C 915 131.7 916.8 131.16 918.63 130.69 C 920.46 130.23 922.31 129.86 924.18 129.57 C 925.73 129.34 927.3 129.25 928.87 129.32 C 928.83 131.23 928.92 133.14 929.13 135.04 C 929.27 136.31 929.51 137.57 929.82 138.81 C 930.09 139.85 930.43 140.87 930.84 141.86 C 931.2 142.72 931.62 143.56 932.11 144.35 C 932.64 145.22 933.26 146.02 933.97 146.75 C 934.54 147.32 935.18 147.82 935.88 148.23 C 936.54 148.61 937.24 148.9 937.98 149.09 C 938.8 149.3 939.63 149.41 940.48 149.41 C 941.15 149.41 941.82 149.35 942.49 149.24 C 943.01 149.15 943.51 149.01 944 148.82 C 944.42 148.66 944.82 148.45 945.2 148.2 C 945.56 147.97 945.89 147.69 946.19 147.39 C 946.49 147.08 946.76 146.74 946.99 146.37 C 947.23 145.99 947.44 145.58 947.6 145.15 C 947.78 144.67 947.92 144.17 948 143.66 C 948.11 143.02 948.16 142.37 948.16 141.72 C 948.16 141.22 948.12 140.73 948.04 140.24 C 947.96 139.74 947.84 139.24 947.68 138.75 C 947.5 138.23 947.29 137.71 947.03 137.22 C 946.73 136.65 946.4 136.1 946.03 135.57 C 945.84 135.31 945.65 135.06 945.44 134.82 C 945.15 134.47 944.84 134.12 944.53 133.79 C 944.29 133.54 944.05 133.3 943.8 133.05 C 943.5 132.76 943.2 132.47 942.89 132.18 C 942.01 131.37 941.12 130.58 940.2 129.82 C 938.8 128.67 937.38 127.55 935.94 126.45 C 933.95 124.94 931.99 123.38 930.06 121.79 C 929.02 120.94 928.02 120.05 927.05 119.12 C 926.08 118.19 925.15 117.23 924.25 116.24 C 923.48 115.4 922.75 114.53 922.06 113.63 C 921.08 112.25 920.2 110.8 919.43 109.29 C 918.72 107.9 918.12 106.45 917.63 104.96 C 917.14 103.47 916.78 101.95 916.54 100.4 C 916.28 98.71 916.15 97.01 916.15 95.31 C 916.15 93.26 916.35 91.22 916.75 89.22 C 917.11 87.42 917.67 85.66 918.42 83.99 C 919.15 82.35 920.05 80.8 921.13 79.36 C 922.27 77.83 923.57 76.42 925 75.16 C 926.38 73.94 927.88 72.86 929.47 71.93 C 931.1 70.98 932.83 70.17 934.62 69.54 C 936.58 68.83 938.61 68.32 940.67 67.99 C 943.09 67.61 945.53 67.42 947.97 67.42 C 950.18 67.42 952.38 67.57 954.56 67.88 C 956.39 68.14 958.2 68.56 959.96 69.13 C 961.51 69.63 963.01 70.27 964.46 71.03 C 965.81 71.74 967.09 72.57 968.29 73.52 C 969.5 74.48 970.61 75.55 971.62 76.72 C 972.68 77.94 973.62 79.25 974.43 80.64 C 975.34 82.18 976.11 83.8 976.73 85.48 C 977.54 87.66 978.16 89.91 978.6 92.2 C 977.24 93.13 975.81 93.94 974.31 94.61 C 972.88 95.25 971.41 95.79 969.9 96.21 C 968.4 96.64 966.87 96.97 965.33 97.2 C 962.64 97.6 959.93 97.88 957.22 98.03 C 957.05 96.66 956.82 95.3 956.53 93.95 C 956.36 93.14 956.15 92.34 955.91 91.56 C 955.61 90.59 955.24 89.64 954.8 88.72 C 954.5 88.11 954.14 87.53 953.73 87 Z  M 967.03 119.57 C 967.91 120.79 968.69 122.07 969.36 123.41 C 969.99 124.67 970.52 125.98 970.94 127.32 C 971.35 128.67 971.67 130.05 971.87 131.44 C 972.09 132.99 972.2 134.56 972.2 136.13 C 972.2 138.09 972.01 140.05 971.63 141.98 C 971.29 143.7 970.76 145.39 970.05 147 C 969.36 148.58 968.49 150.09 967.47 151.49 C 966.37 153.01 965.11 154.41 963.72 155.68 C 962.34 156.93 960.85 158.06 959.26 159.04 C 957.73 159.99 956.11 160.79 954.43 161.43 C 952.67 162.09 950.86 162.59 949.01 162.91 C 946.94 163.27 944.84 163.45 942.74 163.45 C 940.4 163.45 938.07 163.25 935.77 162.85 C 933.74 162.5 931.75 161.96 929.83 161.22 C 928 160.53 926.24 159.65 924.58 158.62 C 922.87 157.55 921.27 156.33 919.79 154.97 C 918.26 153.55 916.86 151.98 915.62 150.3 C 914.53 148.82 913.6 147.23 912.85 145.55 C 912.13 143.93 911.59 142.25 911.23 140.51 C 910.89 138.88 910.7 137.22 910.66 135.56 C 911.71 135.06 912.79 134.61 913.89 134.22 C 915.61 133.61 917.35 133.08 919.12 132.63 C 920.89 132.19 922.68 131.83 924.48 131.55 C 925.27 131.43 926.07 131.35 926.87 131.32 C 926.9 132.64 926.99 133.96 927.14 135.27 C 927.3 136.63 927.55 137.98 927.89 139.31 C 928.18 140.44 928.55 141.55 928.99 142.62 C 929.39 143.58 929.86 144.51 930.4 145.4 C 931.01 146.39 931.73 147.31 932.54 148.14 C 933.23 148.85 934.02 149.46 934.87 149.96 C 935.69 150.43 936.57 150.79 937.48 151.03 C 938.46 151.28 939.47 151.41 940.48 151.41 C 941.26 151.41 942.05 151.34 942.82 151.21 C 943.47 151.1 944.11 150.92 944.73 150.68 C 945.28 150.47 945.81 150.2 946.3 149.87 C 946.78 149.56 947.22 149.19 947.62 148.78 C 948.02 148.37 948.37 147.92 948.68 147.44 C 949 146.94 949.26 146.41 949.47 145.86 C 949.7 145.26 949.87 144.63 949.98 143.99 C 950.1 143.24 950.16 142.48 950.16 141.72 C 950.16 141.12 950.11 140.51 950.02 139.92 C 949.92 139.31 949.77 138.71 949.58 138.12 C 949.37 137.5 949.11 136.89 948.81 136.3 C 948.47 135.65 948.08 135.02 947.66 134.42 C 947.44 134.11 947.21 133.82 946.97 133.53 C 946.65 133.15 946.32 132.78 945.98 132.42 C 945.73 132.15 945.47 131.89 945.21 131.63 C 944.89 131.32 944.57 131.01 944.25 130.71 C 943.35 129.87 942.42 129.06 941.47 128.28 C 940.05 127.11 938.62 125.97 937.15 124.86 C 935.18 123.36 933.24 121.82 931.33 120.25 C 930.33 119.43 929.37 118.57 928.44 117.67 C 927.5 116.78 926.6 115.85 925.73 114.9 C 925.01 114.11 924.32 113.29 923.67 112.45 C 922.76 111.15 921.94 109.79 921.22 108.38 C 920.55 107.08 919.99 105.73 919.53 104.34 C 919.08 102.96 918.74 101.54 918.52 100.1 C 918.27 98.51 918.15 96.91 918.15 95.31 C 918.15 93.4 918.34 91.49 918.72 89.61 C 919.05 87.95 919.56 86.34 920.24 84.8 C 920.91 83.3 921.75 81.88 922.73 80.56 C 923.79 79.14 924.99 77.83 926.32 76.66 C 927.61 75.53 929 74.52 930.48 73.66 C 932.01 72.76 933.62 72.01 935.29 71.42 C 937.14 70.76 939.05 70.27 940.99 69.97 C 943.3 69.6 945.63 69.42 947.97 69.42 C 950.08 69.42 952.19 69.57 954.28 69.86 C 956 70.11 957.69 70.5 959.34 71.03 C 960.78 71.5 962.18 72.09 963.53 72.8 C 964.77 73.45 965.95 74.22 967.05 75.09 C 968.16 75.97 969.18 76.95 970.11 78.02 C 971.08 79.15 971.95 80.37 972.71 81.65 C 973.56 83.09 974.28 84.6 974.86 86.17 C 975.47 87.84 975.97 89.54 976.36 91.27 C 975.44 91.84 974.48 92.35 973.49 92.79 C 972.15 93.39 970.77 93.89 969.36 94.29 C 967.94 94.69 966.49 95 965.03 95.22 C 963.01 95.52 960.97 95.75 958.94 95.91 C 958.8 95.11 958.65 94.32 958.48 93.53 C 958.3 92.67 958.08 91.81 957.82 90.97 C 957.49 89.9 957.08 88.86 956.6 87.86 C 956.24 87.12 955.81 86.42 955.31 85.77 C 954.86 85.2 954.35 84.67 953.79 84.21 C 953.25 83.77 952.66 83.4 952.04 83.1 C 951.39 82.8 950.71 82.57 950.01 82.42 C 949.23 82.25 948.42 82.17 947.62 82.17 C 947.09 82.17 946.56 82.22 946.04 82.31 C 945.58 82.4 945.13 82.53 944.7 82.71 C 944.29 82.88 943.9 83.09 943.54 83.35 C 943.18 83.6 942.84 83.89 942.54 84.22 C 942.24 84.53 941.98 84.88 941.75 85.25 C 941.52 85.63 941.32 86.03 941.17 86.45 C 941 86.9 940.88 87.37 940.8 87.84 C 940.71 88.38 940.67 88.93 940.67 89.48 C 940.67 90.16 940.72 90.85 940.82 91.53 C 940.92 92.2 941.08 92.87 941.28 93.53 C 941.49 94.21 941.75 94.88 942.07 95.52 C 942.4 96.22 942.79 96.89 943.21 97.53 C 943.44 97.86 943.67 98.19 943.93 98.5 C 944.25 98.91 944.59 99.3 944.94 99.68 C 945.2 99.96 945.46 100.24 945.73 100.51 C 946.05 100.83 946.37 101.15 946.7 101.46 C 947.62 102.33 948.57 103.17 949.55 103.97 C 950.98 105.16 952.44 106.3 953.92 107.42 C 955.89 108.87 957.83 110.37 959.74 111.92 C 960.7 112.69 961.62 113.51 962.51 114.36 C 963.4 115.21 964.25 116.1 965.05 117.02 C 965.76 117.84 966.42 118.69 967.03 119.57 Z  M 76.32 107.49 C 75.03 109.63 73.48 111.6 71.72 113.37 C 69.85 115.24 67.81 116.95 65.65 118.47 C 67.5 120.64 69.28 122.87 70.98 125.16 C 73.07 127.97 75.07 130.85 76.96 133.8 C 78.86 136.75 80.65 139.76 82.35 142.83 C 84.49 146.71 86.53 150.65 88.45 154.64 C 87.06 156.14 85.54 157.5 83.9 158.73 C 82.24 159.97 80.5 161.1 78.69 162.11 C 76.87 163.12 75 164.01 73.08 164.79 C 70.52 165.82 67.91 166.7 65.25 167.43 C 62.61 161.18 59.89 154.96 57.11 148.77 C 55.95 146.2 54.73 143.67 53.45 141.16 C 52.17 138.67 50.82 136.2 49.4 133.78 C 48.24 131.81 47.02 129.88 45.75 127.98 C 45.62 128.01 45.5 128.04 45.38 128.07 C 45.22 128.11 45.06 128.16 44.9 128.21 C 44.78 128.25 44.67 128.29 44.56 128.33 C 44.48 130.99 44.38 133.64 44.27 136.29 C 44.15 139.01 44.02 141.73 43.86 144.46 C 43.7 147.18 43.52 149.9 43.32 152.62 C 43.1 155.59 42.85 158.55 42.58 161.52 C 40.48 161.53 38.38 161.5 36.28 161.42 C 34.44 161.35 32.6 161.24 30.76 161.1 C 28.93 160.96 27.09 160.79 25.26 160.57 C 23.56 160.37 21.87 160.12 20.18 159.81 L 20.32 153.36 C 20.34 152.45 20.36 151.54 20.38 150.62 C 20.4 149.71 20.42 148.8 20.43 147.9 C 20.43 147.11 20.44 146.32 20.44 145.53 C 20.44 140.5 20.36 135.48 20.2 130.45 C 20.02 124.98 19.77 119.52 19.43 114.05 C 19.09 108.59 18.68 103.13 18.2 97.68 C 17.62 91.07 16.96 84.47 16.22 77.88 C 18.23 76.12 20.42 74.59 22.75 73.3 C 25.26 71.93 27.87 70.77 30.58 69.85 C 33.28 68.93 36.06 68.22 38.87 67.74 C 41.49 67.28 44.13 67.06 46.79 67.06 C 49.65 67.06 52.51 67.25 55.35 67.63 C 57.6 67.93 59.81 68.42 61.98 69.09 C 63.79 69.65 65.54 70.37 67.22 71.23 C 68.71 71.99 70.13 72.9 71.44 73.94 C 72.85 75.05 74.13 76.31 75.25 77.71 C 76.32 79.04 77.22 80.5 77.95 82.05 C 78.72 83.68 79.28 85.4 79.64 87.17 C 80.06 89.22 80.27 91.31 80.27 93.41 C 80.27 94.65 80.19 95.89 80.02 97.12 C 79.86 98.32 79.62 99.51 79.29 100.67 C 78.96 101.84 78.56 102.99 78.07 104.11 C 77.56 105.27 76.98 106.4 76.32 107.49 Z  M 75.28 134.88 C 77.15 137.8 78.92 140.77 80.6 143.8 C 82.5 147.24 84.31 150.72 86.04 154.25 C 84.99 155.29 83.88 156.25 82.7 157.13 C 81.12 158.32 79.45 159.4 77.72 160.36 C 75.98 161.33 74.18 162.19 72.33 162.93 C 70.38 163.72 68.41 164.42 66.4 165.02 C 63.97 159.3 61.48 153.61 58.93 147.94 C 57.76 145.35 56.53 142.79 55.23 140.25 C 53.94 137.72 52.57 135.22 51.12 132.77 C 49.71 130.37 48.22 128.02 46.64 125.73 C 46.05 125.85 45.46 125.98 44.87 126.13 C 44.67 126.19 44.47 126.25 44.27 126.31 C 44.07 126.38 43.87 126.45 43.68 126.53 C 43.3 126.69 42.94 126.87 42.59 127.08 C 42.51 130.12 42.4 133.16 42.27 136.2 C 42.16 138.91 42.02 141.63 41.86 144.34 C 41.7 147.05 41.52 149.76 41.32 152.47 C 41.15 154.82 40.96 157.17 40.75 159.52 C 39.29 159.51 37.82 159.48 36.36 159.42 C 34.54 159.35 32.73 159.25 30.92 159.11 C 29.11 158.97 27.3 158.8 25.5 158.58 C 24.4 158.46 23.31 158.3 22.22 158.13 L 22.32 153.4 C 22.34 152.49 22.36 151.58 22.38 150.67 C 22.4 149.75 22.41 148.83 22.43 147.92 C 22.43 147.12 22.44 146.32 22.44 145.53 C 22.44 140.48 22.36 135.43 22.2 130.39 C 22.02 124.9 21.76 119.41 21.43 113.93 C 21.09 108.45 20.68 102.97 20.19 97.5 C 19.64 91.23 19.02 84.97 18.33 78.71 C 20.01 77.33 21.81 76.1 23.72 75.06 C 26.12 73.73 28.63 72.63 31.22 71.74 C 33.83 70.85 36.5 70.17 39.21 69.71 C 41.71 69.28 44.25 69.06 46.79 69.06 C 49.56 69.06 52.33 69.24 55.08 69.61 C 57.22 69.89 59.33 70.36 61.39 71 C 63.08 71.53 64.73 72.2 66.31 73.01 C 67.69 73.71 68.99 74.55 70.21 75.51 C 71.49 76.52 72.66 77.68 73.69 78.96 C 74.66 80.17 75.48 81.49 76.14 82.9 C 76.84 84.39 77.36 85.95 77.68 87.57 C 78.08 89.49 78.27 91.44 78.27 93.41 C 78.27 94.56 78.2 95.71 78.04 96.85 C 77.89 97.96 77.67 99.06 77.37 100.13 C 77.06 101.22 76.68 102.28 76.24 103.31 C 75.76 104.39 75.22 105.44 74.61 106.45 C 73.4 108.45 71.96 110.3 70.3 111.95 C 67.99 114.27 65.42 116.32 62.65 118.07 C 65 120.73 67.25 123.5 69.38 126.35 C 71.44 129.12 73.41 131.97 75.28 134.88 Z  M 44.81 111.77 C 45.25 111.56 45.68 111.34 46.11 111.1 C 46.85 110.68 47.55 110.21 48.21 109.67 C 48.82 109.18 49.39 108.64 49.92 108.05 C 50.43 107.48 50.89 106.86 51.29 106.21 C 51.69 105.57 52.03 104.9 52.32 104.21 C 52.65 103.45 52.92 102.66 53.13 101.85 C 53.38 100.92 53.56 99.98 53.67 99.02 C 53.81 97.87 53.88 96.71 53.88 95.55 C 53.88 94.39 53.8 93.24 53.65 92.1 C 53.53 91.21 53.33 90.34 53.06 89.48 C 52.84 88.78 52.56 88.09 52.22 87.43 C 51.93 86.86 51.58 86.32 51.18 85.81 C 50.77 85.29 50.3 84.82 49.78 84.41 C 49.27 84.01 48.73 83.67 48.15 83.41 C 47.51 83.11 46.84 82.9 46.16 82.76 C 45.49 82.63 44.81 82.55 44.13 82.52 C 44.24 86.06 44.34 89.6 44.44 93.14 C 44.51 95.42 44.57 97.7 44.63 99.98 C 44.69 102.27 44.74 104.55 44.77 106.84 C 44.79 108.48 44.81 110.12 44.81 111.77 Z  M 42.81 112.8 L 42.81 113.28 C 42.81 113.61 42.97 113.92 43.24 114.1 C 43.52 114.29 43.86 114.33 44.17 114.21 C 45.17 113.83 46.15 113.37 47.09 112.84 C 47.92 112.37 48.72 111.83 49.47 111.23 C 50.17 110.67 50.82 110.05 51.41 109.38 C 52 108.72 52.53 108.01 52.99 107.26 C 53.44 106.54 53.83 105.78 54.17 104.99 C 54.53 104.14 54.83 103.26 55.07 102.36 C 55.34 101.34 55.53 100.3 55.66 99.26 C 55.81 98.03 55.88 96.79 55.88 95.55 C 55.88 94.3 55.79 93.06 55.63 91.83 C 55.49 90.83 55.27 89.85 54.97 88.88 C 54.72 88.07 54.39 87.28 54 86.52 C 53.65 85.83 53.23 85.18 52.75 84.57 C 52.24 83.93 51.66 83.35 51.02 82.84 C 50.39 82.35 49.71 81.93 48.98 81.59 C 48.21 81.23 47.39 80.97 46.55 80.8 C 45.57 80.6 44.57 80.51 43.57 80.51 L 43.1 80.51 C 42.83 80.51 42.57 80.62 42.38 80.81 C 42.19 81 42.09 81.27 42.1 81.54 C 42.22 85.42 42.33 89.31 42.45 93.2 C 42.51 95.48 42.57 97.76 42.63 100.04 C 42.69 102.31 42.74 104.59 42.77 106.87 C 42.8 108.85 42.81 110.82 42.81 112.8 Z  M 113.24 77 C 114.12 77.1 115 77.24 115.86 77.42 C 117.17 77.68 118.47 77.99 119.76 78.36 C 119.81 79.83 119.85 81.31 119.89 82.79 C 119.94 84.31 119.98 85.84 120.02 87.37 C 120.06 88.9 120.09 90.43 120.11 91.97 C 120.13 93.68 120.14 95.38 120.14 97.09 C 120.14 102.5 120.08 107.9 119.97 113.3 C 119.84 119.2 119.66 125.09 119.42 130.99 C 119.19 136.89 118.88 142.78 118.51 148.67 C 118.23 153.08 117.88 157.49 117.45 161.88 C 116.1 162.3 114.73 162.63 113.33 162.89 C 111.41 163.24 109.48 163.53 107.54 163.77 C 105.6 164.01 103.65 164.2 101.7 164.33 C 99.73 164.46 97.75 164.52 95.77 164.49 C 95.77 155.88 95.68 147.27 95.47 138.66 C 95.31 131.88 95.05 125.1 94.7 118.33 C 94.34 111.56 93.87 104.8 93.27 98.05 C 92.78 92.44 92.16 86.85 91.41 81.27 C 92.55 80.46 93.77 79.76 95.06 79.19 C 96.32 78.64 97.61 78.17 98.94 77.8 C 100.27 77.44 101.62 77.16 102.98 76.98 C 104.43 76.79 105.89 76.7 107.36 76.7 C 108.44 76.7 109.53 76.73 110.62 76.78 C 111.5 76.83 112.37 76.9 113.24 77 Z  M 118.14 97.09 C 118.14 102.48 118.08 107.87 117.97 113.25 C 117.84 119.14 117.66 125.03 117.43 130.91 C 117.19 136.79 116.88 142.67 116.51 148.54 C 116.26 152.48 115.96 156.41 115.59 160.34 C 114.73 160.56 113.85 160.76 112.97 160.92 C 111.09 161.26 109.2 161.55 107.29 161.79 C 105.39 162.03 103.48 162.21 101.57 162.34 C 100.3 162.42 99.03 162.47 97.77 162.49 C 97.76 154.53 97.66 146.57 97.47 138.61 C 97.31 131.81 97.05 125.02 96.69 118.22 C 96.34 111.43 95.86 104.65 95.26 97.87 C 94.8 92.65 94.24 87.44 93.56 82.24 C 94.3 81.78 95.07 81.37 95.87 81.02 C 97.04 80.5 98.24 80.07 99.47 79.73 C 100.71 79.39 101.97 79.13 103.24 78.97 C 104.61 78.79 105.98 78.7 107.36 78.7 C 108.41 78.7 109.46 78.72 110.51 78.78 C 111.35 78.82 112.18 78.89 113.01 78.99 C 113.84 79.08 114.66 79.21 115.47 79.38 C 116.25 79.53 117.03 79.71 117.81 79.9 C 117.84 80.88 117.87 81.86 117.89 82.84 C 117.94 84.37 117.98 85.9 118.02 87.42 C 118.06 88.94 118.09 90.47 118.11 91.99 C 118.13 93.69 118.14 95.39 118.14 97.09 Z  M 160.78 101.01 C 160.52 101.7 160.29 102.4 160.07 103.1 C 159.84 103.85 159.63 104.61 159.44 105.37 C 158.8 107.88 158.33 110.44 158.05 113.02 C 157.69 116.26 157.5 119.53 157.5 122.8 C 157.5 124.71 157.56 126.63 157.68 128.54 C 157.78 130.04 157.93 131.54 158.14 133.03 C 158.38 134.76 158.73 136.48 159.18 138.16 C 159.51 139.38 159.93 140.57 160.45 141.72 C 160.92 142.78 161.51 143.77 162.19 144.7 C 162.67 145.36 163.24 145.94 163.88 146.43 C 164.18 146.66 164.51 146.87 164.85 147.06 C 165.18 147.23 165.52 147.38 165.87 147.5 C 166.22 147.62 166.58 147.71 166.95 147.76 C 167.35 147.83 167.76 147.86 168.17 147.86 C 169.04 147.86 169.92 147.76 170.77 147.56 C 171.45 147.4 172.1 147.15 172.71 146.81 C 173.28 146.48 173.81 146.08 174.27 145.61 C 174.8 145.08 175.26 144.48 175.63 143.84 C 176.03 143.15 176.35 142.42 176.59 141.67 C 176.89 140.72 177.11 139.75 177.24 138.76 C 177.36 137.76 177.43 136.76 177.42 135.75 C 177.4 134.11 177.28 132.47 177.04 130.84 C 179.04 130.59 181.06 130.51 183.08 130.61 C 184.94 130.71 186.8 130.93 188.64 131.28 C 189.45 131.43 190.26 131.6 191.06 131.8 C 191.7 131.96 192.32 132.14 192.95 132.35 C 193.74 132.61 194.52 132.93 195.28 133.3 C 196 133.65 196.67 134.08 197.28 134.6 C 197.14 137.18 196.75 139.74 196.12 142.24 C 195.61 144.25 194.9 146.2 193.99 148.05 C 193.15 149.78 192.14 151.41 190.96 152.92 C 189.77 154.43 188.43 155.82 186.96 157.06 C 185.53 158.26 183.99 159.32 182.36 160.22 C 180.59 161.19 178.75 162 176.84 162.64 C 174.66 163.37 172.41 163.91 170.12 164.24 C 167.35 164.65 164.55 164.85 161.74 164.85 C 159.14 164.85 156.55 164.62 154 164.15 C 151.84 163.76 149.73 163.13 147.71 162.28 C 145.85 161.5 144.08 160.52 142.44 159.36 C 140.79 158.2 139.27 156.86 137.91 155.36 C 136.56 153.88 135.38 152.25 134.37 150.51 C 133.28 148.61 132.37 146.62 131.67 144.55 C 130.89 142.26 130.32 139.91 129.97 137.53 C 129.54 134.58 129.32 131.61 129.32 128.63 C 129.32 124.88 129.61 121.14 130.18 117.44 C 130.69 114.15 131.48 110.92 132.55 107.76 C 133.55 104.81 134.8 101.94 136.3 99.2 C 137.78 96.48 139.51 93.89 141.44 91.47 C 142.5 90.15 143.62 88.89 144.8 87.69 C 145.89 86.58 147.04 85.54 148.24 84.56 C 149.37 83.64 150.55 82.79 151.77 82 C 152.95 81.25 154.17 80.56 155.42 79.95 C 156.67 79.34 157.94 78.81 159.25 78.35 C 160.57 77.88 161.92 77.5 163.28 77.19 C 164.7 76.87 166.14 76.63 167.58 76.47 C 169.12 76.3 170.67 76.22 172.21 76.22 C 174.16 76.22 176.1 76.39 178.02 76.73 C 179.68 77.03 181.31 77.49 182.89 78.12 C 184.35 78.71 185.76 79.45 187.08 80.32 C 188.41 81.21 189.65 82.23 190.77 83.36 C 191.87 84.46 192.85 85.67 193.72 86.96 C 194.64 88.33 195.43 89.78 196.09 91.28 C 196.83 92.98 197.42 94.75 197.85 96.55 C 198.42 98.93 198.8 101.35 198.97 103.79 C 196.64 104.83 194.26 105.75 191.83 106.55 C 190.34 107.04 188.81 107.43 187.27 107.72 C 185.73 108 184.18 108.2 182.62 108.31 C 179.97 108.51 177.31 108.59 174.65 108.56 C 174.68 107.05 174.65 105.54 174.55 104.03 C 174.48 103.1 174.38 102.18 174.25 101.27 C 174.09 100.24 173.87 99.22 173.59 98.22 C 173.38 97.49 173.12 96.78 172.8 96.09 C 172.49 95.45 172.12 94.85 171.69 94.28 C 171.39 93.9 171.04 93.56 170.65 93.28 C 170.3 93.03 169.91 92.84 169.5 92.71 C 169.07 92.57 168.62 92.5 168.17 92.5 C 167.83 92.5 167.49 92.54 167.16 92.62 C 166.82 92.71 166.48 92.83 166.17 92.99 C 165.8 93.18 165.46 93.41 165.15 93.68 C 164.72 94.04 164.33 94.43 163.98 94.86 C 163.41 95.56 162.91 96.31 162.5 97.11 C 161.84 98.37 161.26 99.67 160.78 101.01 Z  M 179.26 132.64 C 180.5 132.56 181.74 132.55 182.97 132.61 C 184.75 132.7 186.52 132.91 188.27 133.24 C 189.05 133.39 189.81 133.55 190.58 133.74 C 191.16 133.89 191.74 134.06 192.32 134.25 C 193.03 134.48 193.73 134.77 194.41 135.1 C 194.68 135.23 194.95 135.38 195.21 135.55 C 195.03 137.64 194.69 139.72 194.18 141.76 C 193.71 143.63 193.04 145.44 192.2 147.18 C 191.42 148.77 190.47 150.29 189.38 151.69 C 188.28 153.09 187.04 154.38 185.67 155.53 C 184.34 156.65 182.91 157.63 181.39 158.47 C 179.73 159.38 178 160.14 176.21 160.74 C 174.13 161.44 172 161.95 169.84 162.26 C 167.15 162.66 164.45 162.85 161.74 162.85 C 159.27 162.85 156.79 162.63 154.36 162.18 C 152.34 161.82 150.37 161.23 148.48 160.44 C 146.76 159.71 145.12 158.81 143.59 157.73 C 142.06 156.65 140.65 155.4 139.39 154.02 C 138.14 152.64 137.04 151.13 136.1 149.51 C 135.08 147.73 134.22 145.85 133.56 143.9 C 132.82 141.73 132.29 139.5 131.95 137.24 C 131.53 134.39 131.32 131.51 131.32 128.63 C 131.32 124.99 131.6 121.35 132.16 117.75 C 132.65 114.57 133.41 111.45 134.44 108.41 C 135.4 105.56 136.61 102.8 138.05 100.16 C 139.48 97.54 141.14 95.05 143.01 92.72 C 144.02 91.46 145.09 90.24 146.23 89.09 C 147.26 88.04 148.35 87.04 149.5 86.11 C 150.57 85.24 151.69 84.43 152.85 83.69 C 153.96 82.97 155.11 82.32 156.3 81.74 C 157.48 81.17 158.68 80.67 159.91 80.24 C 161.16 79.8 162.43 79.43 163.72 79.14 C 165.07 78.83 166.43 78.61 167.8 78.46 C 169.26 78.3 170.74 78.22 172.21 78.22 C 174.04 78.22 175.87 78.38 177.67 78.7 C 179.2 78.97 180.7 79.4 182.14 79.98 C 183.48 80.52 184.77 81.19 185.97 81.99 C 187.19 82.8 188.32 83.73 189.35 84.77 C 190.36 85.78 191.26 86.89 192.06 88.08 C 192.91 89.34 193.65 90.69 194.26 92.08 C 194.95 93.68 195.5 95.33 195.91 97.01 C 196.34 98.83 196.66 100.67 196.85 102.53 C 195 103.31 193.12 104.02 191.21 104.65 C 189.8 105.11 188.36 105.48 186.91 105.75 C 185.44 106.02 183.96 106.21 182.47 106.32 C 180.53 106.46 178.59 106.54 176.65 106.56 C 176.64 105.67 176.6 104.78 176.54 103.89 C 176.48 102.92 176.37 101.94 176.22 100.97 C 176.06 99.86 175.82 98.76 175.51 97.67 C 175.28 96.84 174.97 96.02 174.6 95.24 C 174.24 94.47 173.79 93.74 173.27 93.06 C 172.86 92.52 172.37 92.05 171.81 91.65 C 171.29 91.28 170.72 90.99 170.1 90.8 C 169.48 90.6 168.82 90.5 168.17 90.5 C 167.67 90.5 167.17 90.56 166.68 90.68 C 166.19 90.8 165.71 90.98 165.26 91.21 C 164.75 91.47 164.28 91.79 163.85 92.15 C 163.34 92.59 162.86 93.07 162.43 93.6 C 161.78 94.4 161.21 95.27 160.72 96.18 C 160.02 97.52 159.41 98.9 158.9 100.32 C 158.63 101.05 158.39 101.78 158.16 102.51 C 157.92 103.3 157.7 104.08 157.5 104.87 C 156.84 107.48 156.36 110.12 156.06 112.8 C 155.69 116.12 155.5 119.46 155.5 122.8 C 155.5 124.75 155.57 126.71 155.69 128.66 C 155.78 130.22 155.94 131.77 156.16 133.31 C 156.41 135.12 156.78 136.91 157.25 138.68 C 157.6 140 158.06 141.3 158.63 142.55 C 159.16 143.73 159.81 144.84 160.58 145.89 C 161.17 146.69 161.87 147.41 162.66 148.01 C 163.05 148.32 163.47 148.59 163.91 148.82 C 164.33 149.05 164.77 149.24 165.23 149.39 C 165.69 149.55 166.16 149.66 166.64 149.74 C 167.14 149.82 167.65 149.86 168.17 149.86 C 169.2 149.86 170.22 149.74 171.23 149.51 C 172.09 149.3 172.91 148.98 173.68 148.55 C 174.42 148.14 175.1 147.62 175.7 147.02 C 176.34 146.37 176.9 145.63 177.36 144.84 C 177.83 144.03 178.21 143.17 178.5 142.27 C 178.83 141.21 179.07 140.12 179.22 139.02 C 179.36 137.93 179.43 136.83 179.42 135.74 C 179.41 134.7 179.36 133.67 179.26 132.64 Z  M 231.44 136.22 C 231.39 136.26 231.34 136.29 231.29 136.32 C 231.34 138.58 231.41 140.84 231.52 143.09 C 231.64 145.65 231.8 148.2 232 150.75 C 232.19 153.29 232.43 155.84 232.7 158.38 C 233.01 161.27 233.37 164.16 233.77 167.04 C 233.22 167.23 232.66 167.41 232.1 167.55 C 231.74 167.65 231.39 167.73 231.03 167.81 C 230.04 168.04 229.04 168.23 228.03 168.38 C 226.47 168.63 224.89 168.84 223.32 169.01 C 221.18 169.25 219.04 169.44 216.89 169.57 C 214.9 169.7 212.9 169.75 210.9 169.73 C 209.91 164.81 209.08 159.86 208.39 154.89 C 207.67 149.69 207.08 144.48 206.62 139.25 C 206.16 134.02 205.82 128.78 205.6 123.54 C 205.36 118.06 205.25 112.58 205.25 107.09 C 205.25 104.94 205.27 102.79 205.3 100.65 C 205.35 98.38 205.41 96.11 205.49 93.85 C 205.56 91.58 205.66 89.31 205.78 87.05 C 205.91 84.5 206.06 81.95 206.23 79.41 C 207.35 78.62 208.55 77.96 209.8 77.44 C 211.2 76.85 212.63 76.38 214.1 76.01 C 215.56 75.65 217.04 75.37 218.54 75.19 C 220.06 75.01 221.6 74.91 223.14 74.91 C 224.27 74.91 225.4 74.95 226.53 75.01 C 227.47 75.07 228.41 75.16 229.34 75.28 C 230.28 75.4 231.2 75.55 232.13 75.73 C 233.38 75.98 234.62 76.27 235.84 76.62 C 235.22 79.88 234.66 83.15 234.18 86.44 C 233.71 89.56 233.3 92.7 232.94 95.84 C 232.59 98.98 232.28 102.13 232.03 105.28 C 231.85 107.55 231.69 109.82 231.56 112.1 C 232.97 110.42 234.33 108.7 235.62 106.92 C 237.68 104.1 239.6 101.19 241.38 98.19 C 241.84 97.42 242.29 96.65 242.73 95.87 C 243.22 95 243.71 94.12 244.18 93.24 C 245.58 90.66 246.91 88.05 248.18 85.4 C 249.99 81.63 251.74 77.82 253.41 73.98 C 255.49 74.59 257.52 75.38 259.46 76.35 C 261.2 77.21 262.88 78.21 264.47 79.32 C 266.07 80.43 267.59 81.65 269.01 82.98 C 270.9 84.76 272.68 86.65 274.33 88.65 C 272.32 92.28 270.2 95.85 267.96 99.34 C 266.16 102.15 264.26 104.9 262.26 107.57 C 260.27 110.24 258.16 112.83 255.93 115.32 C 254.07 117.4 252.13 119.41 250.11 121.34 C 252.79 123.67 255.4 126.09 257.91 128.61 C 260.55 131.27 263.09 134.04 265.5 136.91 C 267.91 139.78 270.22 142.74 272.42 145.78 C 275.32 149.78 278.09 153.87 280.75 158.04 C 279.36 160.13 277.81 162.11 276.1 163.94 C 274.64 165.51 273.05 166.96 271.36 168.27 C 269.66 169.59 267.87 170.77 266.01 171.83 C 263.55 173.22 260.99 174.44 258.36 175.48 C 256.27 171.22 254.03 167.02 251.65 162.91 C 249.81 159.75 247.85 156.66 245.77 153.65 C 243.68 150.65 241.48 147.73 239.15 144.91 C 236.68 141.93 234.11 139.03 231.44 136.22 Z  M 231.56 165.63 C 231.24 165.71 230.92 165.79 230.59 165.86 C 229.64 166.07 228.69 166.26 227.73 166.41 C 226.19 166.64 224.64 166.85 223.09 167.02 C 220.99 167.26 218.88 167.44 216.77 167.58 C 215.36 167.66 213.95 167.71 212.54 167.73 C 211.7 163.38 210.98 159.01 210.37 154.62 C 209.65 149.45 209.07 144.27 208.61 139.07 C 208.16 133.88 207.82 128.67 207.6 123.45 C 207.36 118 207.25 112.55 207.25 107.09 C 207.25 104.95 207.27 102.82 207.3 100.68 C 207.34 98.43 207.4 96.17 207.48 93.92 C 207.56 91.66 207.66 89.41 207.78 87.15 C 207.89 84.94 208.02 82.73 208.16 80.53 C 208.93 80.05 209.74 79.63 210.57 79.28 C 211.87 78.74 213.21 78.3 214.58 77.95 C 215.96 77.61 217.36 77.35 218.78 77.18 C 220.23 77 221.68 76.91 223.14 76.91 C 224.23 76.91 225.32 76.94 226.41 77.01 C 227.31 77.06 228.2 77.15 229.08 77.26 C 229.97 77.38 230.86 77.52 231.74 77.69 C 232.34 77.81 232.94 77.94 233.53 78.08 C 233.04 80.76 232.6 83.45 232.2 86.14 C 231.73 89.29 231.32 92.45 230.96 95.61 C 230.6 98.78 230.29 101.95 230.04 105.12 C 229.7 109.28 229.45 113.45 229.28 117.62 C 232.14 114.63 234.8 111.45 237.24 108.1 C 239.33 105.23 241.29 102.26 243.1 99.21 C 243.57 98.43 244.02 97.65 244.47 96.86 C 244.97 95.97 245.46 95.09 245.94 94.19 C 247.35 91.58 248.7 88.94 249.98 86.27 C 251.55 83.02 253.06 79.74 254.51 76.43 C 255.9 76.92 257.26 77.48 258.57 78.14 C 260.22 78.96 261.81 79.9 263.33 80.96 C 264.85 82.02 266.29 83.18 267.64 84.44 C 269.14 85.85 270.57 87.33 271.91 88.88 C 270.12 92.06 268.24 95.19 266.27 98.27 C 264.5 101.03 262.63 103.74 260.66 106.37 C 258.7 109 256.63 111.54 254.44 113.99 C 252.12 116.58 249.67 119.06 247.1 121.4 C 250.36 124.14 253.49 127.01 256.49 130.03 C 259.1 132.64 261.59 135.37 263.97 138.2 C 266.35 141.03 268.63 143.95 270.8 146.95 C 273.42 150.56 275.93 154.25 278.35 158 C 277.22 159.61 275.98 161.14 274.64 162.58 C 273.25 164.07 271.74 165.45 270.13 166.69 C 268.51 167.94 266.81 169.08 265.03 170.09 C 263.18 171.13 261.27 172.08 259.32 172.92 C 257.45 169.19 255.47 165.52 253.38 161.91 C 251.51 158.7 249.52 155.57 247.41 152.51 C 245.3 149.46 243.05 146.5 240.69 143.64 C 237.88 140.24 234.93 136.95 231.86 133.78 C 231.5 133.87 231.15 134.02 230.83 134.22 C 230.67 134.32 230.51 134.43 230.36 134.54 C 230.23 134.63 230.11 134.71 229.98 134.8 C 229.77 134.93 229.52 135.01 229.27 135.04 C 229.31 137.75 229.39 140.47 229.52 143.19 C 229.64 145.76 229.8 148.33 230 150.9 C 230.2 153.47 230.44 156.03 230.71 158.59 C 230.96 160.94 231.25 163.29 231.56 165.63 Z " fill-rule="evenodd" fill="rgb(0,0,0)"/><path d=" M 376.535 107.21 L 376.535 107.21 L 376.535 107.21 Q 376.535 123.751 363.802 139.577 L 363.802 139.577 L 363.802 139.577 Q 351.069 155.404 332.982 160.76 L 332.982 160.76 L 332.982 160.76 Q 327.746 160.76 322.272 160.343 L 322.272 160.343 L 322.272 160.343 Q 316.797 159.926 312.751 159.212 L 312.751 159.212 L 312.751 159.212 Q 310.848 142.434 309.896 127.38 L 309.896 127.38 L 309.896 127.38 Q 308.944 112.326 308.944 99.237 L 308.944 99.237 L 308.944 99.237 Q 308.944 94.834 309.003 90.312 L 309.003 90.312 L 309.003 90.312 Q 309.063 85.789 309.301 81.268 L 309.301 81.268 L 309.301 81.268 Q 317.273 77.578 324.056 75.972 L 324.056 75.972 L 324.056 75.972 Q 330.84 74.366 338.217 74.366 L 338.217 74.366 L 338.217 74.366 Q 356.901 74.366 366.718 82.814 L 366.718 82.814 L 366.718 82.814 Q 376.535 91.263 376.535 107.21 Z  M 334.29 88.526 L 334.29 88.526 L 334.29 88.526 Q 333.339 99.831 332.803 111.91 L 332.803 111.91 L 332.803 111.91 Q 332.267 123.989 332.267 136.96 L 332.267 136.96 L 332.267 136.96 Q 332.267 139.577 332.267 140.946 L 332.267 140.946 L 332.267 140.946 Q 332.267 142.314 332.387 143.385 L 332.387 143.385 L 332.387 143.385 Q 341.906 138.387 347.023 129.046 L 347.023 129.046 L 347.023 129.046 Q 352.141 119.704 352.141 107.448 L 352.141 107.448 L 352.141 107.448 Q 352.141 98.76 347.797 93.584 L 347.797 93.584 L 347.797 93.584 Q 343.453 88.408 336.194 88.408 L 336.194 88.408 L 336.194 88.408 Q 335.362 88.408 335.004 88.408 L 335.004 88.408 L 335.004 88.408 Q 334.647 88.408 334.29 88.526 Z  M 451.743 166.234 L 451.743 166.234 L 451.743 166.234 Q 447.578 168.971 441.807 170.815 L 441.807 170.815 L 441.807 170.815 Q 436.035 172.66 428.063 173.611 L 428.063 173.611 L 428.063 173.611 Q 427.349 166.471 426.099 158.677 L 426.099 158.677 L 426.099 158.677 Q 424.849 150.883 422.945 142.79 L 422.945 142.79 L 422.945 142.79 Q 415.329 142.91 409.26 143.266 L 409.26 143.266 L 409.26 143.266 Q 403.191 143.624 397.836 144.337 L 397.836 144.337 L 397.836 144.337 Q 395.932 149.693 393.909 154.572 L 393.909 154.572 L 393.909 154.572 Q 391.887 159.451 389.863 163.497 L 389.863 163.497 L 389.863 163.497 Q 384.033 162.544 378.856 159.748 L 378.856 159.748 L 378.856 159.748 Q 373.68 156.952 370.704 153.143 L 370.704 153.143 L 370.704 153.143 Q 379.867 136.126 386.651 118.812 L 386.651 118.812 L 386.651 118.812 Q 393.434 101.497 400.811 75.199 L 400.811 75.199 L 400.811 75.199 Q 406.642 75.199 411.343 75.734 L 411.343 75.734 L 411.343 75.734 Q 416.043 76.27 421.755 77.698 L 421.755 77.698 L 421.755 77.698 Q 432.108 94.119 439.724 116.729 L 439.724 116.729 L 439.724 116.729 Q 447.341 139.339 451.743 166.234 Z  M 410.689 102.45 L 410.689 102.45 L 410.689 102.45 Q 409.142 108.281 407.237 114.826 L 407.237 114.826 L 407.237 114.826 Q 405.333 121.37 403.191 128.154 L 403.191 128.154 L 403.191 128.154 Q 407.237 127.559 411.105 127.201 L 411.105 127.201 L 411.105 127.201 Q 414.973 126.844 418.9 126.726 L 418.9 126.726 L 418.9 126.726 Q 416.876 120.062 414.853 113.993 L 414.853 113.993 L 414.853 113.993 Q 412.831 107.924 410.689 102.45 Z  M 483.04 139.577 L 483.04 139.577 L 483.04 162.663 L 483.04 162.663 Q 479.947 163.615 474.116 164.329 L 474.116 164.329 L 474.116 164.329 Q 468.284 165.044 463.525 165.044 L 463.525 165.044 L 463.525 165.044 Q 461.263 139.102 460.133 117.86 L 460.133 117.86 L 460.133 117.86 Q 459.003 96.618 459.003 81.863 L 459.003 81.863 L 459.003 81.863 Q 459.836 81.268 460.311 81.03 L 460.311 81.03 L 460.311 81.03 Q 460.788 80.791 461.263 80.553 L 461.263 80.553 L 461.263 80.553 Q 465.905 78.174 471.974 76.686 L 471.974 76.686 L 471.974 76.686 Q 478.043 75.199 484.587 74.961 L 484.587 74.961 L 484.587 74.961 Q 491.728 85.313 497.142 95.25 L 497.142 95.25 L 497.142 95.25 Q 502.556 105.187 507.198 116.492 L 507.198 116.492 L 507.198 116.492 Q 507.198 102.212 506.603 91.085 L 506.603 91.085 L 506.603 91.085 Q 506.008 79.959 504.936 72.938 L 504.936 72.938 L 504.936 72.938 Q 511.125 71.034 517.193 70.022 L 517.193 70.022 L 517.193 70.022 Q 523.263 69.01 529.213 69.01 L 529.213 69.01 L 529.213 69.01 Q 529.57 75.794 529.688 82.101 L 529.688 82.101 L 529.688 82.101 Q 529.807 88.408 529.807 94.357 L 529.807 94.357 L 529.807 94.357 Q 529.807 108.994 529.153 125 L 529.153 125 L 529.153 125 Q 528.498 141.005 527.427 155.762 L 527.427 155.762 L 527.427 155.762 Q 520.049 156.952 515.23 157.487 L 515.23 157.487 L 515.23 157.487 Q 510.41 158.023 505.888 158.26 L 505.888 158.26 L 505.888 158.26 Q 498.272 139.816 493.334 129.76 L 493.334 129.76 L 493.334 129.76 Q 488.396 119.704 483.159 111.374 L 483.159 111.374 L 483.159 111.374 Q 483.04 116.254 483.04 122.144 L 483.04 122.144 L 483.04 122.144 Q 483.04 128.035 483.04 139.577 Z  M 607.753 117.8 L 607.753 117.8 L 607.753 117.8 Q 607.633 129.105 608.883 139.994 L 608.883 139.994 L 608.883 139.994 Q 610.133 150.883 612.75 161.355 L 612.75 161.355 L 612.75 161.355 Q 609.18 162.307 604.837 162.902 L 604.837 162.902 L 604.837 162.902 Q 600.494 163.497 595.138 163.734 L 595.138 163.734 L 595.138 163.734 Q 593.711 160.76 592.461 157.606 L 592.461 157.606 L 592.461 157.606 Q 591.211 154.452 590.141 151.24 L 590.141 151.24 L 590.141 151.24 Q 585.619 156.714 579.906 159.451 L 579.906 159.451 L 579.906 159.451 Q 574.195 162.188 567.174 162.188 L 567.174 162.188 L 567.174 162.188 Q 554.917 162.188 547.717 153.143 L 547.717 153.143 L 547.717 153.143 Q 540.518 144.1 540.518 128.63 L 540.518 128.63 L 540.518 128.63 Q 540.518 105.424 551.703 89.479 L 551.703 89.479 L 551.703 89.479 Q 562.89 73.533 579.906 73.533 L 579.906 73.533 L 579.906 73.533 Q 591.688 73.533 598.768 80.375 L 598.768 80.375 L 598.768 80.375 Q 605.849 87.217 606.919 99.475 L 606.919 99.475 L 606.919 99.475 Q 601.683 101.141 595.793 101.974 L 595.793 101.974 L 595.793 101.974 Q 589.903 102.807 582.881 102.807 L 582.881 102.807 L 582.881 102.807 Q 581.453 94.477 579.787 91.145 L 579.787 91.145 L 579.787 91.145 Q 578.122 87.813 575.503 87.813 L 575.503 87.813 L 575.503 87.813 Q 570.982 87.813 568.245 96.976 L 568.245 96.976 L 568.245 96.976 Q 565.508 106.138 565.508 121.252 L 565.508 121.252 L 565.508 121.252 Q 565.508 132.913 567.888 138.268 L 567.888 138.268 L 567.888 138.268 Q 570.268 143.624 575.503 143.624 L 575.503 143.624 L 575.503 143.624 Q 578.836 143.624 581.573 141.422 L 581.573 141.422 L 581.573 141.422 Q 584.31 139.221 585.976 135.174 L 585.976 135.174 L 585.976 135.174 Q 585.38 131.486 584.904 127.797 L 584.904 127.797 L 584.904 127.797 Q 584.429 124.107 584.19 120.419 L 584.19 120.419 L 584.19 120.419 Q 588.951 119.109 594.603 118.455 L 594.603 118.455 L 594.603 118.455 Q 600.255 117.8 607.753 117.8 Z  M 680.461 160.878 L 680.461 160.878 L 680.461 160.878 Q 677.01 161.949 658.387 163.378 L 658.387 163.378 L 658.387 163.378 Q 639.763 164.805 627.268 164.805 L 627.268 164.805 L 627.268 164.805 Q 624.294 145.885 621.854 120.657 L 621.854 120.657 L 621.854 120.657 Q 619.414 95.428 619.177 78.649 L 619.177 78.649 L 619.177 78.649 Q 637.503 75.199 651.009 73.711 L 651.009 73.711 L 651.009 73.711 Q 664.516 72.224 677.487 72.224 L 677.487 72.224 L 677.487 72.224 Q 677.487 76.627 676.951 81.565 L 676.951 81.565 L 676.951 81.565 Q 676.416 86.504 675.226 91.858 L 675.226 91.858 L 675.226 91.858 Q 668.562 91.858 661.422 92.096 L 661.422 92.096 L 661.422 92.096 Q 654.281 92.335 646.547 92.811 L 646.547 92.811 L 646.547 92.811 Q 646.308 95.428 646.19 98.82 L 646.19 98.82 L 646.19 98.82 Q 646.07 102.212 645.951 108.994 L 645.951 108.994 L 645.951 108.994 Q 652.021 107.21 658.089 106.377 L 658.089 106.377 L 658.089 106.377 Q 664.159 105.544 670.466 105.544 L 670.466 105.544 L 670.466 105.544 Q 671.417 109.709 671.893 114.112 L 671.893 114.112 L 671.893 114.112 Q 672.37 118.515 672.37 124.465 L 672.37 124.465 L 672.37 124.465 Q 665.586 124.465 658.922 124.881 L 658.922 124.881 L 658.922 124.881 Q 652.258 125.298 645.951 126.011 L 645.951 126.011 L 645.951 126.011 Q 646.07 131.367 646.308 136.484 L 646.308 136.484 L 646.308 136.484 Q 646.547 141.6 647.023 146.242 L 647.023 146.242 L 647.023 146.242 Q 650.474 146.242 661.541 144.873 L 661.541 144.873 L 661.541 144.873 Q 672.607 143.505 678.201 142.434 L 678.201 142.434 L 678.201 142.434 Q 679.153 144.932 679.807 150.585 L 679.807 150.585 L 679.807 150.585 Q 680.461 156.238 680.461 160.878 Z  M 760.549 154.452 L 760.549 154.452 L 760.549 154.452 Q 756.859 158.26 751.505 161.236 L 751.505 161.236 L 751.505 161.236 Q 746.149 164.21 739.128 166.234 L 739.128 166.234 L 739.128 166.234 Q 731.513 148.264 727.645 140.708 L 727.645 140.708 L 727.645 140.708 Q 723.778 133.152 719.494 126.844 L 719.494 126.844 L 719.494 126.844 Q 718.422 127.082 717.887 127.261 L 717.887 127.261 L 717.887 127.261 Q 717.352 127.439 716.875 127.677 L 716.875 127.677 L 716.875 127.677 Q 716.638 136.245 716.161 144.397 L 716.161 144.397 L 716.161 144.397 Q 715.685 152.548 714.971 160.521 L 714.971 160.521 L 714.971 160.521 Q 709.617 160.521 704.143 160.105 L 704.143 160.105 L 704.143 160.105 Q 698.669 159.689 694.503 158.975 L 694.503 158.975 L 694.503 158.975 Q 694.622 153.382 694.682 150.645 L 694.682 150.645 L 694.682 150.645 Q 694.742 147.908 694.742 145.527 L 694.742 145.527 L 694.742 145.527 Q 694.742 130.415 693.73 113.993 L 693.73 113.993 L 693.73 113.993 Q 692.719 97.571 690.576 78.293 L 690.576 78.293 L 690.576 78.293 Q 696.169 73.533 704.202 70.796 L 704.202 70.796 L 704.202 70.796 Q 712.234 68.059 720.089 68.059 L 720.089 68.059 L 720.089 68.059 Q 735.677 68.059 744.127 74.723 L 744.127 74.723 L 744.127 74.723 Q 752.576 81.386 752.576 93.406 L 752.576 93.406 L 752.576 93.406 Q 752.576 100.664 748.768 106.971 L 748.768 106.971 L 748.768 106.971 Q 744.959 113.279 737.463 118.276 L 737.463 118.276 L 737.463 118.276 Q 743.769 125.535 749.422 134.342 L 749.422 134.342 L 749.422 134.342 Q 755.075 143.148 760.549 154.452 Z  M 717.114 112.802 L 717.114 112.802 L 717.114 113.279 L 717.114 113.279 Q 722.706 111.136 725.443 106.733 L 725.443 106.733 L 725.443 106.733 Q 728.18 102.33 728.18 95.548 L 728.18 95.548 L 728.18 95.548 Q 728.18 88.883 725.265 85.195 L 725.265 85.195 L 725.265 85.195 Q 722.349 81.506 716.875 81.506 L 716.875 81.506 L 716.399 81.506 L 716.399 81.506 Q 716.756 93.168 716.935 100.01 L 716.935 100.01 L 716.935 100.01 Q 717.114 106.853 717.114 112.802 Z  M 802.555 72.462 L 802.555 72.462 L 802.555 72.462 Q 816.836 72.462 824.63 81.803 L 824.63 81.803 L 824.63 81.803 Q 832.424 91.145 832.424 108.281 L 832.424 108.281 L 832.424 108.281 Q 832.424 117.563 829.925 127.142 L 829.925 127.142 L 829.925 127.142 Q 827.427 136.721 823.023 144.1 L 823.023 144.1 L 823.023 144.1 Q 817.549 152.906 809.695 157.487 L 809.695 157.487 L 809.695 157.487 Q 801.841 162.068 791.964 162.068 L 791.964 162.068 L 791.964 162.068 Q 777.685 162.068 769.711 151.061 L 769.711 151.061 L 769.711 151.061 Q 761.739 140.053 761.739 121.252 L 761.739 121.252 L 761.739 121.252 Q 761.739 99.713 773.044 86.087 L 773.044 86.087 L 773.044 86.087 Q 784.349 72.462 802.555 72.462 Z  M 796.963 146.598 L 796.963 146.598 L 796.963 146.598 Q 802.318 146.598 804.935 139.221 L 804.935 139.221 L 804.935 139.221 Q 807.554 131.842 807.554 114.826 L 807.554 114.826 L 807.554 114.826 Q 807.554 100.188 805.233 94.06 L 805.233 94.06 L 805.233 94.06 Q 802.912 87.932 797.438 87.932 L 797.438 87.932 L 797.438 87.932 Q 791.964 87.932 789.049 95.785 L 789.049 95.785 L 789.049 95.785 Q 786.133 103.64 786.133 117.92 L 786.133 117.92 L 786.133 117.92 Q 786.133 131.486 788.93 139.042 L 788.93 139.042 L 788.93 139.042 Q 791.727 146.598 796.963 146.598 Z  M 899.659 74.961 L 899.659 74.961 L 899.659 74.961 Q 902.278 87.337 903.289 95.428 L 903.289 95.428 L 903.289 95.428 Q 904.3 103.521 904.3 110.66 L 904.3 110.66 L 904.3 110.66 Q 904.3 139.458 895.197 154.333 L 895.197 154.333 L 895.197 154.333 Q 886.094 169.208 868.244 169.208 L 868.244 169.208 L 868.244 169.208 Q 854.44 169.208 847.299 158.617 L 847.299 158.617 L 847.299 158.617 Q 840.159 148.027 840.159 128.154 L 840.159 128.154 L 840.159 128.154 Q 840.159 115.896 842.302 102.807 L 842.302 102.807 L 842.302 102.807 Q 844.443 89.716 846.705 85.671 L 846.705 85.671 L 846.705 85.671 Q 848.966 85.076 852.238 84.659 L 852.238 84.659 L 852.238 84.659 Q 855.51 84.243 858.604 84.243 L 858.604 84.243 L 858.604 84.243 Q 862.294 84.243 864.971 84.718 L 864.971 84.718 L 864.971 84.718 Q 867.648 85.195 869.076 86.027 L 869.076 86.027 L 869.076 86.027 Q 867.411 95.666 866.578 105.246 L 866.578 105.246 L 866.578 105.246 Q 865.745 114.826 865.745 123.394 L 865.745 123.394 L 865.745 123.394 Q 865.745 137.673 867.351 145.706 L 867.351 145.706 L 867.351 145.706 Q 868.958 153.738 871.932 153.738 L 871.932 153.738 L 871.932 153.738 Q 875.622 153.738 877.526 144.516 L 877.526 144.516 L 877.526 144.516 Q 879.43 135.294 879.43 118.038 L 879.43 118.038 L 879.43 118.038 Q 879.43 109.47 878.24 99.831 L 878.24 99.831 L 878.24 99.831 Q 877.049 90.192 874.55 79.482 L 874.55 79.482 L 874.55 79.482 Q 879.192 77.46 886.451 76.21 L 886.451 76.21 L 886.451 76.21 Q 893.709 74.961 899.659 74.961 Z  M 967.846 118.991 L 967.846 118.991 L 967.846 118.991 Q 970.583 122.799 971.893 127.023 L 971.893 127.023 L 971.893 127.023 Q 973.201 131.247 973.201 136.126 L 973.201 136.126 L 973.201 136.126 Q 973.201 148.383 964.396 156.416 L 964.396 156.416 L 964.396 156.416 Q 955.589 164.449 942.737 164.449 L 942.737 164.449 L 942.737 164.449 Q 928.576 164.449 919.116 155.702 L 919.116 155.702 L 919.116 155.702 Q 909.656 146.956 909.656 134.936 L 909.656 134.936 L 909.656 134.936 Q 913.464 133.033 918.878 131.664 L 918.878 131.664 L 918.878 131.664 Q 924.292 130.296 927.862 130.296 L 927.862 130.296 L 927.862 130.296 Q 927.862 139.339 931.254 144.873 L 931.254 144.873 L 931.254 144.873 Q 934.646 150.406 940.477 150.406 L 940.477 150.406 L 940.477 150.406 Q 944.641 150.406 946.903 148.086 L 946.903 148.086 L 946.903 148.086 Q 949.164 145.766 949.164 141.719 L 949.164 141.719 L 949.164 141.719 Q 949.164 138.268 946.843 134.996 L 946.843 134.996 L 946.843 134.996 Q 944.523 131.723 936.549 125.655 L 936.549 125.655 L 936.549 125.655 Q 930.599 121.132 927.744 118.396 L 927.744 118.396 L 927.744 118.396 Q 924.888 115.659 922.865 113.04 L 922.865 113.04 L 922.865 113.04 Q 920.008 108.994 918.581 104.651 L 918.581 104.651 L 918.581 104.651 Q 917.153 100.308 917.153 95.31 L 917.153 95.31 L 917.153 95.31 Q 917.153 83.41 925.661 75.912 L 925.661 75.912 L 925.661 75.912 Q 934.169 68.415 947.974 68.415 L 947.974 68.415 L 947.974 68.415 Q 960.231 68.415 967.668 74.306 L 967.668 74.306 L 967.668 74.306 Q 975.106 80.197 977.485 91.74 L 977.485 91.74 L 977.485 91.74 Q 974.034 94.001 969.631 95.25 L 969.631 95.25 L 969.631 95.25 Q 965.229 96.499 958.089 96.976 L 958.089 96.976 L 958.089 96.976 Q 957.018 89.598 954.518 86.384 L 954.518 86.384 L 954.518 86.384 Q 952.019 83.172 947.617 83.172 L 947.617 83.172 L 947.617 83.172 Q 944.88 83.172 943.273 84.897 L 943.273 84.897 L 943.273 84.897 Q 941.667 86.622 941.667 89.479 L 941.667 89.479 L 941.667 89.479 Q 941.667 93.406 944.047 96.976 L 944.047 96.976 L 944.047 96.976 Q 946.427 100.546 954.518 106.615 L 954.518 106.615 L 954.518 106.615 Q 960.469 111.018 963.206 113.635 L 963.206 113.635 L 963.206 113.635 Q 965.943 116.254 967.846 118.991 Z  M 87.246 154.452 L 87.246 154.452 L 87.246 154.452 Q 83.558 158.26 78.202 161.236 L 78.202 161.236 L 78.202 161.236 Q 72.848 164.21 65.826 166.234 L 65.826 166.234 L 65.826 166.234 Q 58.21 148.264 54.343 140.708 L 54.343 140.708 L 54.343 140.708 Q 50.475 133.152 46.192 126.844 L 46.192 126.844 L 46.192 126.844 Q 45.12 127.082 44.585 127.261 L 44.585 127.261 L 44.585 127.261 Q 44.049 127.439 43.574 127.677 L 43.574 127.677 L 43.574 127.677 Q 43.335 136.245 42.86 144.397 L 42.86 144.397 L 42.86 144.397 Q 42.383 152.548 41.669 160.521 L 41.669 160.521 L 41.669 160.521 Q 36.314 160.521 30.84 160.105 L 30.84 160.105 L 30.84 160.105 Q 25.367 159.689 21.201 158.975 L 21.201 158.975 L 21.201 158.975 Q 21.32 153.382 21.38 150.645 L 21.38 150.645 L 21.38 150.645 Q 21.44 147.908 21.44 145.527 L 21.44 145.527 L 21.44 145.527 Q 21.44 130.415 20.428 113.993 L 20.428 113.993 L 20.428 113.993 Q 19.417 97.571 17.274 78.293 L 17.274 78.293 L 17.274 78.293 Q 22.868 73.533 30.9 70.796 L 30.9 70.796 L 30.9 70.796 Q 38.932 68.059 46.786 68.059 L 46.786 68.059 L 46.786 68.059 Q 62.375 68.059 70.825 74.723 L 70.825 74.723 L 70.825 74.723 Q 79.273 81.386 79.273 93.406 L 79.273 93.406 L 79.273 93.406 Q 79.273 100.664 75.465 106.971 L 75.465 106.971 L 75.465 106.971 Q 71.658 113.279 64.16 118.276 L 64.16 118.276 L 64.16 118.276 Q 70.467 125.535 76.12 134.342 L 76.12 134.342 L 76.12 134.342 Q 81.772 143.148 87.246 154.452 Z  M 43.812 112.802 L 43.812 112.802 L 43.812 113.279 L 43.812 113.279 Q 49.404 111.136 52.141 106.733 L 52.141 106.733 L 52.141 106.733 Q 54.879 102.33 54.879 95.548 L 54.879 95.548 L 54.879 95.548 Q 54.879 88.883 51.963 85.195 L 51.963 85.195 L 51.963 85.195 Q 49.048 81.506 43.574 81.506 L 43.574 81.506 L 43.097 81.506 L 43.097 81.506 Q 43.454 93.168 43.633 100.01 L 43.633 100.01 L 43.633 100.01 Q 43.812 106.853 43.812 112.802 Z  M 119.138 97.094 L 119.138 97.094 L 119.138 97.094 Q 119.138 113.279 118.424 130.95 L 118.424 130.95 L 118.424 130.95 Q 117.711 148.622 116.521 161.117 L 116.521 161.117 L 116.521 161.117 Q 113.188 162.068 107.417 162.783 L 107.417 162.783 L 107.417 162.783 Q 101.646 163.497 96.767 163.497 L 96.767 163.497 L 96.767 163.497 Q 96.767 138.626 95.696 118.276 L 95.696 118.276 L 95.696 118.276 Q 94.624 97.927 92.482 81.743 L 92.482 81.743 L 92.482 81.743 Q 95.339 79.84 99.206 78.769 L 99.206 78.769 L 99.206 78.769 Q 103.074 77.698 107.357 77.698 L 107.357 77.698 L 107.357 77.698 Q 110.571 77.698 113.129 77.995 L 113.129 77.995 L 113.129 77.995 Q 115.688 78.293 118.782 79.126 L 118.782 79.126 L 118.782 79.126 Q 118.9 82.814 119.02 87.396 L 119.02 87.396 L 119.02 87.396 Q 119.138 91.978 119.138 97.094 Z  M 178.163 131.723 L 178.163 131.723 L 178.163 131.723 Q 183.042 131.247 188.456 132.259 L 188.456 132.259 L 188.456 132.259 Q 193.87 133.27 196.251 135.055 L 196.251 135.055 L 196.251 135.055 Q 195.298 148.74 186.314 156.297 L 186.314 156.297 L 186.314 156.297 Q 177.329 163.854 161.74 163.854 L 161.74 163.854 L 161.74 163.854 Q 146.984 163.854 138.654 154.691 L 138.654 154.691 L 138.654 154.691 Q 130.324 145.527 130.324 128.63 L 130.324 128.63 L 130.324 128.63 Q 130.324 106.971 142.225 92.096 L 142.225 92.096 L 142.225 92.096 Q 154.124 77.221 172.212 77.221 L 172.212 77.221 L 172.212 77.221 Q 183.279 77.221 190.063 84.064 L 190.063 84.064 L 190.063 84.064 Q 196.846 90.907 197.917 103.163 L 197.917 103.163 L 197.917 103.163 Q 191.609 105.9 187.087 106.733 L 187.087 106.733 L 187.087 106.733 Q 182.566 107.566 175.663 107.566 L 175.663 107.566 L 175.663 107.566 Q 175.663 99.831 173.7 95.666 L 173.7 95.666 L 173.7 95.666 Q 171.736 91.502 168.167 91.502 L 168.167 91.502 L 168.167 91.502 Q 163.169 91.502 159.837 100.664 L 159.837 100.664 L 159.837 100.664 Q 156.505 109.827 156.505 122.799 L 156.505 122.799 L 156.505 122.799 Q 156.505 135.413 159.539 142.136 L 159.539 142.136 L 159.539 142.136 Q 162.574 148.859 168.167 148.859 L 168.167 148.859 L 168.167 148.859 Q 173.878 148.859 176.497 144.337 L 176.497 144.337 L 176.497 144.337 Q 179.115 139.816 178.163 131.723 Z  M 279.551 158.023 L 279.551 158.023 L 279.551 158.023 Q 275.742 163.615 270.745 167.483 L 270.745 167.483 L 270.745 167.483 Q 265.746 171.35 258.845 174.206 L 258.845 174.206 L 258.845 174.206 Q 252.895 162.188 246.587 153.084 L 246.587 153.084 L 246.587 153.084 Q 240.281 143.98 231.594 134.936 L 231.594 134.936 L 231.594 134.936 Q 231.355 135.055 230.939 135.353 L 230.939 135.353 L 230.939 135.353 Q 230.523 135.65 230.285 135.77 L 230.285 135.77 L 230.285 135.77 Q 230.404 143.148 230.999 150.823 L 230.999 150.823 L 230.999 150.823 Q 231.594 158.499 232.665 166.352 L 232.665 166.352 L 232.665 166.352 Q 229.57 167.305 223.204 168.018 L 223.204 168.018 L 223.204 168.018 Q 216.837 168.732 211.721 168.732 L 211.721 168.732 L 211.721 168.732 Q 208.984 154.809 207.615 139.161 L 207.615 139.161 L 207.615 139.161 Q 206.247 123.512 206.247 107.09 L 206.247 107.09 L 206.247 107.09 Q 206.247 100.664 206.484 93.882 L 206.484 93.882 L 206.484 93.882 Q 206.723 87.099 207.199 79.959 L 207.199 79.959 L 207.199 79.959 Q 210.055 78.054 214.339 76.983 L 214.339 76.983 L 214.339 76.983 Q 218.622 75.912 223.145 75.912 L 223.145 75.912 L 223.145 75.912 Q 226.477 75.912 229.214 76.27 L 229.214 76.27 L 229.214 76.27 Q 231.951 76.627 234.688 77.34 L 234.688 77.34 L 234.688 77.34 Q 233.021 86.266 231.951 95.726 L 231.951 95.726 L 231.951 95.726 Q 230.88 105.187 230.404 114.945 L 230.404 114.945 L 230.404 114.945 Q 236.829 107.804 242.244 98.701 L 242.244 98.701 L 242.244 98.701 Q 247.658 89.598 253.965 75.199 L 253.965 75.199 L 253.965 75.199 Q 259.202 76.865 263.902 80.137 L 263.902 80.137 L 263.902 80.137 Q 268.603 83.41 273.125 88.765 L 273.125 88.765 L 273.125 88.765 Q 267.413 98.998 261.462 106.971 L 261.462 106.971 L 261.462 106.971 Q 255.512 114.945 248.611 121.37 L 248.611 121.37 L 248.611 121.37 Q 257.535 128.986 264.735 137.555 L 264.735 137.555 L 264.735 137.555 Q 271.935 146.122 279.551 158.023 Z " fill="rgb(172,14,14)"/></g></svg>