<?xml version="1.0" encoding="UTF-8" standalone="no"?><!-- Generator: Gravit.io --><svg xmlns="http://www.w3.org/2000/svg" xmlns:xlink="http://www.w3.org/1999/xlink" style="isolation:isolate" viewBox="0 0 992 250" width="992pt" height="250pt"><defs><clipPath id="_clipPath_ckmso3ibvLDeIQcaqeo7Joq6lnwAEfn7"><rect width="992" height="250"/></clipPath></defs><g clip-path="url(#_clipPath_ckmso3ibvLDeIQcaqeo7Joq6lnwAEfn7)"><path d=" M 174.426 154.282 L 174.426 154.282 L 174.426 154.282 Q 174.426 146.33 168.798 141.889 L 168.798 141.889 L 168.798 141.889 Q 163.17 137.449 149.021 132.698 L 149.021 132.698 L 149.021 132.698 Q 134.873 127.948 125.888 123.507 L 125.888 123.507 L 125.888 123.507 Q 96.662 109.152 96.662 84.057 L 96.662 84.057 L 96.662 84.057 Q 96.662 71.561 103.943 62.008 L 103.943 62.008 L 103.943 62.008 Q 111.224 52.455 124.546 47.137 L 124.546 47.137 L 124.546 47.137 Q 137.868 41.818 154.495 41.818 L 154.495 41.818 L 154.495 41.818 Q 170.709 41.818 183.566 47.601 L 183.566 47.601 L 183.566 47.601 Q 196.423 53.385 203.549 64.073 L 203.549 64.073 L 203.549 64.073 Q 210.675 74.762 210.675 88.497 L 210.675 88.497 L 174.53 88.497 L 174.53 88.497 Q 174.53 79.306 168.901 74.246 L 168.901 74.246 L 168.901 74.246 Q 163.273 69.185 153.669 69.185 L 153.669 69.185 L 153.669 69.185 Q 143.961 69.185 138.333 73.471 L 138.333 73.471 L 138.333 73.471 Q 132.704 77.757 132.704 84.366 L 132.704 84.366 L 132.704 84.366 Q 132.704 90.15 138.901 94.849 L 138.901 94.849 L 138.901 94.849 Q 145.097 99.548 160.691 104.556 L 160.691 104.556 L 160.691 104.556 Q 176.285 109.565 186.303 115.348 L 186.303 115.348 L 186.303 115.348 Q 210.675 129.393 210.675 154.076 L 210.675 154.076 L 210.675 154.076 Q 210.675 173.801 195.804 185.057 L 195.804 185.057 L 195.804 185.057 Q 180.933 196.314 155.011 196.314 L 155.011 196.314 L 155.011 196.314 Q 136.732 196.314 121.912 189.756 L 121.912 189.756 L 121.912 189.756 Q 107.093 183.198 99.605 171.787 L 99.605 171.787 L 99.605 171.787 Q 92.118 160.375 92.118 145.504 L 92.118 145.504 L 128.47 145.504 L 128.47 145.504 Q 128.47 157.587 134.718 163.318 L 134.718 163.318 L 134.718 163.318 Q 140.966 169.05 155.011 169.05 L 155.011 169.05 L 155.011 169.05 Q 163.996 169.05 169.211 165.177 L 169.211 165.177 L 169.211 165.177 Q 174.426 161.305 174.426 154.282 Z " fill="rgb(25,87,195)"/><path d=" M 329.115 202.475 L 302.359 163.076 L 261.608 163.076 L 262.95 202.475 L 226.508 202.475 L 227.521 45.393 L 265.835 45.393 L 363.145 202.475 L 329.115 202.475 Z  M 257.814 88.497 L 260.301 133.805 L 287.07 133.805 L 257.814 88.497 Z " fill-rule="evenodd" fill="rgb(25,87,195)"/><path d=" M 329.115 45.393 L 373.285 45.393 L 437.557 165.177 L 437.557 45.393 L 479.461 45.393 L 566.667 202.475 L 533.823 202.475 L 464.454 88.497 L 464.454 202.475 L 422.55 202.475 L 363.145 88.497 L 363.145 202.475 L 329.115 202.475 L 329.115 45.393 Z " fill="rgb(25,87,195)"/><path d=" M 644.392 109.874 L 681.62 45.393 L 590.169 45.393 L 498.719 45.393 L 544.444 124.592 L 590.169 203.79 L 609.469 170.362 C 603.795 163.899 600.365 155.502 600.365 146.329 C 600.365 125.936 617.315 109.38 638.194 109.38 C 640.304 109.38 642.375 109.549 644.392 109.874 Z " fill="rgb(25,87,195)"/><path d=" M 636.589 159.587 L 636.589 159.587 L 636.589 159.587 Q 640.353 158.784 642.264 156.212 L 642.264 156.212 L 642.264 156.212 Q 644.176 153.64 643.537 150.185 L 643.537 150.185 L 656.289 147.466 L 656.289 147.466 Q 657.345 152.652 655.487 157.549 L 655.487 157.549 L 655.487 157.549 Q 653.629 162.446 649.313 165.851 L 649.313 165.851 L 649.313 165.851 Q 644.997 169.256 639.162 170.5 L 639.162 170.5 L 639.162 170.5 Q 628.246 172.828 620.461 167.232 L 620.461 167.232 L 620.461 167.232 Q 612.676 161.636 610.067 149.403 L 610.067 149.403 L 609.876 148.509 L 609.876 148.509 Q 607.368 136.745 612.131 128.4 L 612.131 128.4 L 612.131 128.4 Q 616.894 120.055 627.81 117.727 L 627.81 117.727 L 627.81 117.727 Q 637.362 115.69 644.285 119.895 L 644.285 119.895 L 644.285 119.895 Q 651.207 124.101 653.228 133.115 L 653.228 133.115 L 640.477 135.834 L 640.477 135.834 Q 639.54 131.902 636.66 129.933 L 636.66 129.933 L 636.66 129.933 Q 633.781 127.964 629.923 128.787 L 629.923 128.787 L 629.923 128.787 Q 625.17 129.801 623.485 133.776 L 623.485 133.776 L 623.485 133.776 Q 621.799 137.751 623.454 145.515 L 623.454 145.515 L 623.756 146.926 L 623.756 146.926 Q 625.431 154.784 628.563 157.707 L 628.563 157.707 L 628.563 157.707 Q 631.696 160.63 636.589 159.587 Z  M 660.289 138.545 L 660.159 137.933 L 660.159 137.933 Q 658.543 130.358 660.196 123.807 L 660.196 123.807 L 660.196 123.807 Q 661.849 117.256 666.639 112.841 L 666.639 112.841 L 666.639 112.841 Q 671.428 108.425 678.674 106.88 L 678.674 106.88 L 678.674 106.88 Q 688.979 104.682 696.84 109.598 L 696.84 109.598 L 696.84 109.598 Q 704.702 114.513 707.762 125.175 L 707.762 125.175 L 708.599 128.636 L 708.599 128.636 Q 711.097 140.353 706.067 148.829 L 706.067 148.829 L 706.067 148.829 Q 701.037 157.305 690.027 159.653 L 690.027 159.653 L 690.027 159.653 Q 679.016 162.001 670.947 156.343 L 670.947 156.343 L 670.947 156.343 Q 662.878 150.685 660.289 138.545 L 660.289 138.545 Z  M 673.968 136.022 L 673.968 136.022 L 673.968 136.022 Q 675.513 143.268 679.06 146.521 L 679.06 146.521 L 679.06 146.521 Q 682.607 149.773 687.689 148.69 L 687.689 148.69 L 687.689 148.69 Q 692.629 147.636 694.598 143.256 L 694.598 143.256 L 694.598 143.256 Q 696.566 138.877 694.79 130.548 L 694.79 130.548 L 694.79 130.548 Q 693.275 123.443 689.666 120.13 L 689.666 120.13 L 689.666 120.13 Q 686.057 116.816 681.022 117.89 L 681.022 117.89 L 681.022 117.89 Q 676.035 118.954 674.133 123.418 L 674.133 123.418 L 674.133 123.418 Q 672.232 127.881 673.968 136.022 Z  M 753.159 145.206 L 751.679 140.111 L 751.679 140.111 Q 747.949 147.301 739.056 149.198 L 739.056 149.198 L 739.056 149.198 Q 730.869 150.943 725.56 147.156 L 725.56 147.156 L 725.56 147.156 Q 720.251 143.369 718.22 134.308 L 718.22 134.308 L 711.106 100.947 L 724.704 98.048 L 731.718 130.938 L 731.718 130.938 Q 733.414 138.89 740.66 137.344 L 740.66 137.344 L 740.66 137.344 Q 747.577 135.869 749.141 130.518 L 749.141 130.518 L 741.455 94.475 L 755.101 91.565 L 765.958 142.477 L 753.159 145.206 Z  M 816.566 104.825 L 816.717 105.531 L 816.717 105.531 Q 819.225 117.294 815.395 125.515 L 815.395 125.515 L 815.395 125.515 Q 811.564 133.735 802.483 135.672 L 802.483 135.672 L 802.483 135.672 Q 794.767 137.317 788.87 132.967 L 788.87 132.967 L 793.988 156.964 L 780.389 159.863 L 765.358 89.378 L 777.968 86.689 L 779.503 91.576 L 779.503 91.576 Q 783.179 84.594 791.131 82.898 L 791.131 82.898 L 791.131 82.898 Q 800.541 80.891 807.249 86.741 L 807.249 86.741 L 807.249 86.741 Q 813.957 92.591 816.566 104.825 L 816.566 104.825 Z  M 802.908 107.443 L 802.908 107.443 L 802.908 107.443 Q 801.392 100.338 798.052 97.016 L 798.052 97.016 L 798.052 97.016 Q 794.712 93.695 789.913 94.718 L 789.913 94.718 L 789.913 94.718 Q 783.514 96.083 782.157 101.488 L 782.157 101.488 L 786.603 122.333 L 786.603 122.333 Q 790.17 126.835 796.569 125.471 L 796.569 125.471 L 796.569 125.471 Q 806.309 123.394 802.908 107.443 Z  M 854.1 124.664 L 854.1 124.664 L 854.1 124.664 Q 842.902 127.052 834.402 121.683 L 834.402 121.683 L 834.402 121.683 Q 825.903 116.313 823.465 104.879 L 823.465 104.879 L 823.184 103.562 L 823.184 103.562 Q 821.548 95.892 823.223 89.213 L 823.223 89.213 L 823.223 89.213 Q 824.898 82.535 829.635 78.106 L 829.635 78.106 L 829.635 78.106 Q 834.372 73.677 841.336 72.192 L 841.336 72.192 L 841.336 72.192 Q 851.782 69.964 859.186 75.272 L 859.186 75.272 L 859.186 75.272 Q 866.59 80.58 869.169 92.673 L 869.169 92.673 L 870.353 98.225 L 837.933 105.139 L 837.933 105.139 Q 839.656 109.986 843.615 112.29 L 843.615 112.29 L 843.615 112.29 Q 847.575 114.594 852.656 113.51 L 852.656 113.51 L 852.656 113.51 Q 860.514 111.834 863.723 105.198 L 863.723 105.198 L 872 111.254 L 872 111.254 Q 869.865 116.235 865.159 119.772 L 865.159 119.772 L 865.159 119.772 Q 860.452 123.309 854.1 124.664 Z  M 843.637 83.212 L 843.637 83.212 L 843.637 83.212 Q 839.591 84.075 837.655 87.341 L 837.655 87.341 L 837.655 87.341 Q 835.72 90.607 836.098 95.839 L 836.098 95.839 L 855.013 91.805 L 854.782 90.723 L 854.782 90.723 Q 853.725 86.226 850.846 84.258 L 850.846 84.258 L 850.846 84.258 Q 847.966 82.289 843.637 83.212 Z  M 831.999 68.083 L 838.158 51.52 L 852.98 48.359 L 843.056 65.725 L 831.999 68.083 Z " fill="rgb(181,39,39)"/></g></svg>