<?xml version="1.0" encoding="UTF-8" standalone="no"?><!-- Generator: Gravit.io --><svg xmlns="http://www.w3.org/2000/svg" xmlns:xlink="http://www.w3.org/1999/xlink" style="isolation:isolate" viewBox="0 0 992 250" width="992pt" height="250pt"><defs><clipPath id="_clipPath_IfNcxJpW5xnS3Cb0oryY6E1LeN5NRm5a"><rect width="992" height="250"/></clipPath></defs><g clip-path="url(#_clipPath_IfNcxJpW5xnS3Cb0oryY6E1LeN5NRm5a)"><path d=" M 207.668 160.901 L 207.668 160.901 L 207.668 160.901 Q 207.668 154.343 203.04 150.833 L 203.04 150.833 L 203.04 150.833 Q 198.411 147.323 186.375 143.427 L 186.375 143.427 L 186.375 143.427 Q 174.34 139.531 167.32 135.75 L 167.32 135.75 L 167.32 135.75 Q 148.187 125.413 148.187 107.9 L 148.187 107.9 L 148.187 107.9 Q 148.187 98.796 153.317 91.66 L 153.317 91.66 L 153.317 91.66 Q 158.448 84.524 168.053 80.512 L 168.053 80.512 L 168.053 80.512 Q 177.658 76.5 189.616 76.5 L 189.616 76.5 L 189.616 76.5 Q 201.651 76.5 211.063 80.859 L 211.063 80.859 L 211.063 80.859 Q 220.475 85.218 225.683 93.165 L 225.683 93.165 L 225.683 93.165 Q 230.89 101.111 230.89 111.217 L 230.89 111.217 L 207.746 111.217 L 207.746 111.217 Q 207.746 103.502 202.885 99.221 L 202.885 99.221 L 202.885 99.221 Q 198.025 94.939 189.23 94.939 L 189.23 94.939 L 189.23 94.939 Q 180.744 94.939 176.038 98.526 L 176.038 98.526 L 176.038 98.526 Q 171.332 102.114 171.332 107.977 L 171.332 107.977 L 171.332 107.977 Q 171.332 113.455 176.848 117.158 L 176.848 117.158 L 176.848 117.158 Q 182.364 120.861 193.087 124.101 L 193.087 124.101 L 193.087 124.101 Q 212.837 130.042 221.864 138.836 L 221.864 138.836 L 221.864 138.836 Q 230.89 147.631 230.89 160.747 L 230.89 160.747 L 230.89 160.747 Q 230.89 175.328 219.858 183.621 L 219.858 183.621 L 219.858 183.621 Q 208.826 191.915 190.156 191.915 L 190.156 191.915 L 190.156 191.915 Q 177.195 191.915 166.548 187.17 L 166.548 187.17 L 166.548 187.17 Q 155.902 182.425 150.309 174.17 L 150.309 174.17 L 150.309 174.17 Q 144.715 165.916 144.715 155.038 L 144.715 155.038 L 167.937 155.038 L 167.937 155.038 Q 167.937 173.63 190.156 173.63 L 190.156 173.63 L 190.156 173.63 Q 198.411 173.63 203.04 170.274 L 203.04 170.274 L 203.04 170.274 Q 207.668 166.918 207.668 160.901 Z  M 318.985 190.372 L 296.458 190.372 L 296.458 190.372 Q 294.915 187.363 294.22 182.888 L 294.22 182.888 L 294.22 182.888 Q 286.12 191.915 273.159 191.915 L 273.159 191.915 L 273.159 191.915 Q 260.892 191.915 252.83 184.817 L 252.83 184.817 L 252.83 184.817 Q 244.768 177.719 244.768 166.918 L 244.768 166.918 L 244.768 166.918 Q 244.768 153.649 254.604 146.551 L 254.604 146.551 L 254.604 146.551 Q 264.441 139.454 283.034 139.376 L 283.034 139.376 L 293.294 139.376 L 293.294 134.593 L 293.294 134.593 Q 293.294 128.807 290.324 125.335 L 290.324 125.335 L 290.324 125.335 Q 287.354 121.864 280.951 121.864 L 280.951 121.864 L 280.951 121.864 Q 275.319 121.864 272.117 124.564 L 272.117 124.564 L 272.117 124.564 Q 268.916 127.264 268.916 131.97 L 268.916 131.97 L 246.62 131.97 L 246.62 131.97 Q 246.62 124.718 251.094 118.546 L 251.094 118.546 L 251.094 118.546 Q 255.569 112.375 263.747 108.864 L 263.747 108.864 L 263.747 108.864 Q 271.924 105.354 282.108 105.354 L 282.108 105.354 L 282.108 105.354 Q 297.538 105.354 306.603 113.107 L 306.603 113.107 L 306.603 113.107 Q 315.667 120.861 315.667 134.902 L 315.667 134.902 L 315.667 171.084 L 315.667 171.084 Q 315.745 182.965 318.985 189.06 L 318.985 189.06 L 318.985 190.372 Z  M 278.019 174.865 L 278.019 174.865 L 278.019 174.865 Q 282.957 174.865 287.123 172.666 L 287.123 172.666 L 287.123 172.666 Q 291.289 170.467 293.294 166.764 L 293.294 166.764 L 293.294 152.415 L 284.962 152.415 L 284.962 152.415 Q 268.221 152.415 267.141 163.987 L 267.141 163.987 L 267.064 165.298 L 267.064 165.298 Q 267.064 169.464 269.996 172.165 L 269.996 172.165 L 269.996 172.165 Q 272.927 174.865 278.019 174.865 Z  M 340.192 86.375 L 362.488 86.375 L 362.488 106.897 L 376.76 106.897 L 376.76 123.252 L 362.488 123.252 L 362.488 164.913 L 362.488 164.913 Q 362.488 169.542 364.262 171.547 L 364.262 171.547 L 364.262 171.547 Q 366.037 173.553 371.051 173.553 L 371.051 173.553 L 371.051 173.553 Q 374.754 173.553 377.609 173.013 L 377.609 173.013 L 377.609 189.909 L 377.609 189.909 Q 371.051 191.915 364.108 191.915 L 364.108 191.915 L 364.108 191.915 Q 340.655 191.915 340.192 168.23 L 340.192 168.23 L 340.192 123.252 L 328.002 123.252 L 328.002 106.897 L 340.192 106.897 L 340.192 86.375 Z  M 430.601 191.915 L 430.601 191.915 L 430.601 191.915 Q 412.24 191.915 400.706 180.651 L 400.706 180.651 L 400.706 180.651 Q 389.172 169.387 389.172 150.64 L 389.172 150.64 L 389.172 148.48 L 389.172 148.48 Q 389.172 135.905 394.033 125.991 L 394.033 125.991 L 394.033 125.991 Q 398.893 116.078 407.804 110.716 L 407.804 110.716 L 407.804 110.716 Q 416.714 105.354 428.132 105.354 L 428.132 105.354 L 428.132 105.354 Q 445.259 105.354 455.096 116.155 L 455.096 116.155 L 455.096 116.155 Q 464.932 126.956 464.932 146.783 L 464.932 146.783 L 464.932 155.886 L 411.777 155.886 L 411.777 155.886 Q 412.857 164.064 418.296 169.001 L 418.296 169.001 L 418.296 169.001 Q 423.735 173.939 432.067 173.939 L 432.067 173.939 L 432.067 173.939 Q 444.951 173.939 452.203 164.604 L 452.203 164.604 L 463.158 176.871 L 463.158 176.871 Q 458.143 183.968 449.58 187.941 L 449.58 187.941 L 449.58 187.941 Q 441.016 191.915 430.601 191.915 Z  M 428.055 123.407 L 428.055 123.407 L 428.055 123.407 Q 421.42 123.407 417.293 127.881 L 417.293 127.881 L 417.293 127.881 Q 413.166 132.356 412.008 140.688 L 412.008 140.688 L 443.022 140.688 L 443.022 138.914 L 443.022 138.914 Q 442.868 131.507 439.01 127.457 L 439.01 127.457 L 439.01 127.457 Q 435.153 123.407 428.055 123.407 Z  M 504.115 71.872 L 504.115 190.372 L 481.742 190.372 L 481.742 71.872 L 504.115 71.872 Z  M 549.006 71.872 L 549.006 190.372 L 526.633 190.372 L 526.633 71.872 L 549.006 71.872 Z  M 641.267 190.372 L 618.74 190.372 L 618.74 190.372 Q 617.197 187.363 616.502 182.888 L 616.502 182.888 L 616.502 182.888 Q 608.402 191.915 595.441 191.915 L 595.441 191.915 L 595.441 191.915 Q 583.174 191.915 575.112 184.817 L 575.112 184.817 L 575.112 184.817 Q 567.05 177.719 567.05 166.918 L 567.05 166.918 L 567.05 166.918 Q 567.05 153.649 576.887 146.551 L 576.887 146.551 L 576.887 146.551 Q 586.723 139.454 605.316 139.376 L 605.316 139.376 L 615.577 139.376 L 615.577 134.593 L 615.577 134.593 Q 615.577 128.807 612.606 125.335 L 612.606 125.335 L 612.606 125.335 Q 609.636 121.864 603.233 121.864 L 603.233 121.864 L 603.233 121.864 Q 597.601 121.864 594.399 124.564 L 594.399 124.564 L 594.399 124.564 Q 591.198 127.264 591.198 131.97 L 591.198 131.97 L 568.902 131.97 L 568.902 131.97 Q 568.902 124.718 573.376 118.546 L 573.376 118.546 L 573.376 118.546 Q 577.851 112.375 586.029 108.864 L 586.029 108.864 L 586.029 108.864 Q 594.207 105.354 604.39 105.354 L 604.39 105.354 L 604.39 105.354 Q 619.82 105.354 628.885 113.107 L 628.885 113.107 L 628.885 113.107 Q 637.95 120.861 637.95 134.902 L 637.95 134.902 L 637.95 171.084 L 637.95 171.084 Q 638.027 182.965 641.267 189.06 L 641.267 189.06 L 641.267 190.372 Z  M 600.301 174.865 L 600.301 174.865 L 600.301 174.865 Q 605.239 174.865 609.405 172.666 L 609.405 172.666 L 609.405 172.666 Q 613.571 170.467 615.577 166.764 L 615.577 166.764 L 615.577 152.415 L 607.245 152.415 L 607.245 152.415 Q 590.503 152.415 589.423 163.987 L 589.423 163.987 L 589.346 165.298 L 589.346 165.298 Q 589.346 169.464 592.278 172.165 L 592.278 172.165 L 592.278 172.165 Q 595.209 174.865 600.301 174.865 Z  M 672.658 106.897 L 688.165 163.138 L 703.671 106.897 L 726.97 106.897 L 698.811 190.372 L 677.518 190.372 L 649.359 106.897 L 672.658 106.897 Z  M 763.298 106.897 L 763.298 190.372 L 740.925 190.372 L 740.925 106.897 L 763.298 106.897 Z  M 739.614 85.295 L 739.614 85.295 L 739.614 85.295 Q 739.614 80.281 742.97 77.041 L 742.97 77.041 L 742.97 77.041 Q 746.326 73.8 752.112 73.8 L 752.112 73.8 L 752.112 73.8 Q 757.821 73.8 761.215 77.041 L 761.215 77.041 L 761.215 77.041 Q 764.61 80.281 764.61 85.295 L 764.61 85.295 L 764.61 85.295 Q 764.61 90.387 761.177 93.627 L 761.177 93.627 L 761.177 93.627 Q 757.744 96.868 752.112 96.868 L 752.112 96.868 L 752.112 96.868 Q 746.48 96.868 743.047 93.627 L 743.047 93.627 L 743.047 93.627 Q 739.614 90.387 739.614 85.295 Z  M 823.08 191.915 L 823.08 191.915 L 823.08 191.915 Q 804.718 191.915 793.185 180.651 L 793.185 180.651 L 793.185 180.651 Q 781.651 169.387 781.651 150.64 L 781.651 150.64 L 781.651 148.48 L 781.651 148.48 Q 781.651 135.905 786.511 125.991 L 786.511 125.991 L 786.511 125.991 Q 791.372 116.078 800.282 110.716 L 800.282 110.716 L 800.282 110.716 Q 809.193 105.354 820.611 105.354 L 820.611 105.354 L 820.611 105.354 Q 837.738 105.354 847.574 116.155 L 847.574 116.155 L 847.574 116.155 Q 857.411 126.956 857.411 146.783 L 857.411 146.783 L 857.411 155.886 L 804.255 155.886 L 804.255 155.886 Q 805.335 164.064 810.774 169.001 L 810.774 169.001 L 810.774 169.001 Q 816.213 173.939 824.545 173.939 L 824.545 173.939 L 824.545 173.939 Q 837.429 173.939 844.681 164.604 L 844.681 164.604 L 855.636 176.871 L 855.636 176.871 Q 850.622 183.968 842.058 187.941 L 842.058 187.941 L 842.058 187.941 Q 833.495 191.915 823.08 191.915 Z  M 820.534 123.407 L 820.534 123.407 L 820.534 123.407 Q 813.899 123.407 809.771 127.881 L 809.771 127.881 L 809.771 127.881 Q 805.644 132.356 804.487 140.688 L 804.487 140.688 L 835.5 140.688 L 835.5 138.914 L 835.5 138.914 Q 835.346 131.507 831.489 127.457 L 831.489 127.457 L 831.489 127.457 Q 827.631 123.407 820.534 123.407 Z  M 930.461 106.897 L 945.66 160.052 L 956.615 106.897 L 978.139 106.897 L 956.846 190.372 L 938.176 190.372 L 922.361 137.833 L 906.545 190.372 L 887.953 190.372 L 866.66 106.897 L 888.184 106.897 L 899.062 159.975 L 914.337 106.897 L 930.461 106.897 Z " fill="rgb(0,140,227)"/><path d=" M 17.737 163.993 C -5.455 127.775 -5.194 86.145 18.321 71.087 C 41.837 56.029 79.757 73.209 102.95 109.427 C 126.142 145.646 125.88 187.275 102.365 202.333 C 78.85 217.391 40.93 200.212 17.737 163.993 Z " fill="rgb(234,234,234)"/><path d=" M 10 162 Q 19 197.5 5.5 209 Q 38 209 60 209.5 Q 22 187.5 10 162 Z " fill="rgb(234,234,234)"/><path d=" M 31 41.5 Q 95.5 70.875 121 139.875 Q 121 125.5 121 129 Q 93.5 66.5 56 41.5 Q 34.5 41.5 31 41.5 Z " fill="rgb(234,234,234)"/><path d=" M 77.5 41.5 Q 101.438 65.063 121.667 116.789 Q 121.667 104.414 121 101 Q 103 61 89.5 41.5 Q 81.375 41.5 77.5 41.5 Z " fill="rgb(234,234,234)"/><path d=" M 100.5 41.5 Q 114.75 62.063 121 86.375 Q 121 64.125 121 41.5 L 100.5 41.5 Z " fill="rgb(234,234,234)"/><path d=" M 57.085 139.086 C 49.47 144.316 37.095 139.546 29.468 128.44 C 21.841 117.334 21.831 104.072 29.446 98.842 C 37.061 93.612 49.435 98.383 57.063 109.489 C 64.69 120.594 64.7 133.857 57.085 139.086 Z " fill="rgb(0,140,227)"/><path d=" M 106.309 144.439 C 99.696 150.889 86.69 148.296 77.283 138.651 C 67.876 129.006 65.608 115.939 72.221 109.489 C 78.834 103.039 91.841 105.633 101.248 115.278 C 110.654 124.922 112.923 137.989 106.309 144.439 Z " fill="rgb(176,49,35)"/><ellipse vector-effect="non-scaling-stroke" cx="77.33333333333334" cy="150" rx="18.333333333333343" ry="16" fill="rgb(234,234,234)"/><ellipse vector-effect="non-scaling-stroke" cx="87.16666666666666" cy="165.66666666666669" rx="18.333333333333343" ry="16" fill="rgb(176,176,35)"/><ellipse vector-effect="non-scaling-stroke" cx="36.33333333333334" cy="140.66666666666669" rx="18.333333333333343" ry="16" fill="rgb(234,234,234)"/><ellipse vector-effect="non-scaling-stroke" cx="46.33333333333334" cy="156.66666666666669" rx="18.333333333333343" ry="16" fill="rgb(35,176,77)"/></g></svg>