<?xml version="1.0" encoding="UTF-8" standalone="no"?><!-- Generator: Gravit.io --><svg xmlns="http://www.w3.org/2000/svg" xmlns:xlink="http://www.w3.org/1999/xlink" style="isolation:isolate" viewBox="0 0 992 250" width="992pt" height="250pt"><defs><clipPath id="_clipPath_eKaHTPMUYkyB5GkxPDdEWDZfxLjqOqLK"><rect width="992" height="250"/></clipPath></defs><g clip-path="url(#_clipPath_eKaHTPMUYkyB5GkxPDdEWDZfxLjqOqLK)"><path d=" M 739.71 201.91 L 646.33 70.15 L 685.81 59.57 L 751.46 154.14 L 760.93 39.44 L 800.42 28.86 L 785.43 189.66 L 739.71 201.91 Z  M 740.54 199.62 L 649.62 71.33 L 684.97 61.86 L 753 159.86 L 762.81 41 L 798.16 31.53 L 783.57 188.09 L 740.54 199.62 Z " fill-rule="evenodd" fill="rgb(181,181,181)" vector-effect="non-scaling-stroke" stroke-width="5" stroke="rgb(51,51,51)" stroke-linejoin="miter" stroke-linecap="square" stroke-miterlimit="3"/><path d=" M 790.14 193.6 L 805.78 34.91 L 858.86 40.14 L 885.78 125.91 L 929.13 47.06 L 982.11 52.28 L 966.47 210.97 L 926.28 207.01 L 937.19 96.26 L 894.79 173.5 L 867.87 170.84 L 841.35 86.82 L 830.44 197.57 L 790.14 193.6 Z  M 792.33 191.81 L 807.57 37.09 L 857.35 42 L 885.28 130.98 L 930.24 49.18 L 979.92 54.07 L 964.68 208.79 L 928.46 205.22 L 940.13 86.74 L 893.67 171.38 L 869.38 168.98 L 840.32 76.9 L 828.65 195.39 L 792.33 191.81 Z " fill-rule="evenodd" fill="rgb(181,181,181)" vector-effect="non-scaling-stroke" stroke-width="5" stroke="rgb(51,51,51)" stroke-linejoin="miter" stroke-linecap="square" stroke-miterlimit="3"/><path d=" M 102.03 82.26 L 100.79 107.84 C 100.77 108.17 100.6 108.47 100.32 108.64 C 100.04 108.81 99.69 108.84 99.39 108.71 C 98.28 108.22 97.15 107.76 96.02 107.32 C 94.55 106.76 93.07 106.23 91.59 105.73 C 90.1 105.22 88.61 104.75 87.1 104.31 C 85.5 103.83 83.88 103.39 82.26 102.98 C 80.64 102.58 79.01 102.2 77.37 101.87 C 75.72 101.54 74.07 101.24 72.41 100.98 C 70.75 100.72 69.09 100.53 67.43 100.39 C 65.98 100.27 64.52 100.21 63.07 100.21 C 61.84 100.21 60.6 100.25 59.37 100.34 C 58.4 100.4 57.44 100.51 56.48 100.67 C 55.48 100.82 54.48 101.04 53.51 101.31 C 52.77 101.52 52.05 101.78 51.35 102.1 C 50.72 102.39 50.12 102.76 49.58 103.2 C 49.15 103.54 48.78 103.95 48.49 104.41 C 48.19 104.86 47.97 105.36 47.83 105.88 C 47.65 106.53 47.57 107.2 47.57 107.87 C 47.57 108.18 47.59 108.48 47.65 108.78 C 47.7 109.06 47.77 109.33 47.88 109.6 C 47.98 109.86 48.11 110.12 48.26 110.36 C 48.43 110.63 48.62 110.89 48.83 111.12 C 49.29 111.63 49.8 112.08 50.35 112.48 C 51.15 113.07 52 113.59 52.88 114.04 C 53.79 114.51 54.72 114.94 55.66 115.33 C 56.92 115.86 58.19 116.34 59.48 116.79 C 60.78 117.24 62.08 117.68 63.39 118.11 C 64.97 118.63 66.56 119.13 68.15 119.63 C 68.15 119.63 68.15 119.63 68.16 119.63 L 74.18 121.52 C 76.73 122.3 79.24 123.19 81.71 124.2 C 83.85 125.08 85.94 126.07 87.97 127.17 C 90.01 128.27 91.96 129.52 93.81 130.92 C 95.46 132.16 97 133.54 98.41 135.04 C 99.83 136.54 101.1 138.17 102.2 139.92 C 103.31 141.67 104.26 143.53 105.01 145.47 C 105.77 147.41 106.33 149.42 106.69 151.47 C 107.1 153.89 107.31 156.34 107.31 158.79 C 107.31 161.65 107.06 164.5 106.58 167.32 C 106.14 169.82 105.47 172.26 104.56 174.62 C 104.1 175.81 103.57 176.97 102.97 178.1 C 102.39 179.2 101.74 180.27 101.02 181.29 C 100.3 182.31 99.52 183.29 98.68 184.22 C 97.81 185.18 96.89 186.09 95.91 186.94 C 93.98 188.62 91.86 190.07 89.6 191.26 C 86.84 192.71 83.96 193.9 80.98 194.81 C 80.26 195.03 79.54 195.24 78.82 195.43 C 78.04 195.63 77.26 195.81 76.48 195.98 C 73.98 196.51 71.45 196.9 68.9 197.14 C 65.73 197.43 62.54 197.58 59.36 197.58 C 55.65 197.58 51.95 197.43 48.25 197.12 C 44.55 196.82 40.86 196.36 37.2 195.75 C 33.53 195.14 29.9 194.32 26.33 193.29 C 22.46 192.18 18.65 190.86 14.91 189.34 C 14.54 189.19 14.29 188.82 14.29 188.41 L 14.29 161.18 C 14.29 160.83 14.47 160.51 14.77 160.33 C 15.07 160.15 15.44 160.13 15.75 160.29 C 19.25 162.08 22.84 163.69 26.52 165.1 C 29.68 166.32 32.92 167.35 36.21 168.17 C 39.49 169 42.83 169.63 46.19 170.06 C 49.35 170.46 52.54 170.66 55.73 170.66 C 56.89 170.66 58.05 170.61 59.21 170.52 C 60.09 170.45 60.97 170.33 61.84 170.17 C 62.88 169.97 63.91 169.68 64.9 169.3 C 65.58 169.04 66.23 168.7 66.83 168.28 C 67.37 167.91 67.86 167.47 68.3 166.99 C 68.68 166.57 69 166.1 69.26 165.6 C 69.53 165.09 69.72 164.56 69.85 164 C 70 163.35 70.07 162.68 70.07 162.01 C 70.07 161.22 69.96 160.44 69.74 159.68 C 69.56 159.05 69.27 158.46 68.89 157.92 C 68.5 157.36 68.03 156.85 67.5 156.42 C 66.68 155.74 65.79 155.14 64.86 154.63 C 63.89 154.1 62.89 153.61 61.87 153.18 C 60.31 152.52 58.73 151.91 57.13 151.36 C 55.51 150.79 53.89 150.25 52.26 149.72 C 49.97 148.97 47.67 148.24 45.37 147.53 C 43.03 146.84 40.74 146.03 38.48 145.12 C 36.39 144.27 34.35 143.32 32.36 142.26 C 30.36 141.2 28.45 139.99 26.63 138.64 C 24.95 137.4 23.37 136.02 21.92 134.52 C 20.46 133.02 19.15 131.38 18 129.63 C 16.82 127.83 15.81 125.92 14.99 123.94 C 14.16 121.94 13.54 119.86 13.16 117.74 C 12.7 115.25 12.48 112.72 12.48 110.18 C 12.48 107.57 12.72 104.96 13.22 102.39 C 13.66 100.06 14.35 97.78 15.28 95.6 C 15.74 94.5 16.27 93.44 16.86 92.41 C 17.45 91.39 18.1 90.41 18.81 89.47 C 19.53 88.51 20.31 87.6 21.14 86.74 C 22.01 85.84 22.93 84.99 23.9 84.2 C 25.8 82.65 27.87 81.31 30.07 80.2 C 32.77 78.85 35.59 77.74 38.48 76.88 C 39.17 76.67 39.87 76.48 40.57 76.31 C 41.31 76.12 42.06 75.95 42.81 75.79 C 45.23 75.29 47.68 74.92 50.14 74.7 C 53.18 74.42 56.22 74.28 59.27 74.28 C 60.85 74.28 62.44 74.31 64.01 74.38 C 65.79 74.45 67.56 74.56 69.34 74.69 C 71.11 74.83 72.88 75 74.64 75.21 C 76.49 75.42 78.34 75.66 80.18 75.94 C 82.02 76.22 83.86 76.54 85.68 76.9 C 87.5 77.26 89.32 77.66 91.12 78.1 C 92.92 78.55 94.71 79.04 96.49 79.59 C 98.14 80.1 99.77 80.66 101.38 81.27 C 101.79 81.43 102.05 81.83 102.03 82.26 Z  M 67.56 121.54 L 73.58 123.43 C 73.58 123.43 73.59 123.43 73.59 123.44 C 76.08 124.19 78.54 125.07 80.95 126.06 C 83.02 126.9 85.05 127.86 87.02 128.93 C 88.97 129.98 90.83 131.18 92.6 132.51 C 94.16 133.69 95.62 134.99 96.96 136.41 C 98.29 137.82 99.48 139.35 100.51 140.99 C 101.56 142.64 102.44 144.38 103.15 146.2 C 103.86 148.01 104.38 149.89 104.71 151.81 C 105.11 154.12 105.31 156.45 105.31 158.79 C 105.31 161.53 105.07 164.28 104.6 166.98 C 104.2 169.35 103.56 171.66 102.69 173.9 C 102.26 175.02 101.77 176.11 101.21 177.16 C 100.66 178.19 100.05 179.19 99.38 180.14 C 98.71 181.1 97.98 182.01 97.2 182.88 C 96.38 183.78 95.51 184.63 94.6 185.43 C 92.78 187.01 90.79 188.37 88.67 189.49 C 86.02 190.88 83.25 192.02 80.39 192.9 C 79.71 193.11 79.01 193.31 78.32 193.49 C 77.57 193.68 76.82 193.86 76.06 194.02 C 73.64 194.54 71.18 194.91 68.72 195.14 C 65.6 195.44 62.48 195.58 59.36 195.58 C 55.71 195.58 52.06 195.43 48.42 195.13 C 44.77 194.83 41.14 194.38 37.53 193.78 C 33.94 193.18 30.38 192.38 26.88 191.37 C 23.29 190.34 19.76 189.13 16.29 187.74 L 16.29 162.8 C 19.39 164.34 22.57 165.73 25.8 166.97 C 29.04 168.22 32.35 169.27 35.72 170.11 C 39.08 170.96 42.5 171.6 45.94 172.04 C 49.18 172.45 52.45 172.66 55.73 172.66 C 56.94 172.66 58.16 172.61 59.38 172.51 C 60.33 172.43 61.27 172.31 62.21 172.13 C 63.37 171.91 64.51 171.59 65.61 171.17 C 66.45 170.85 67.24 170.43 67.97 169.92 C 68.63 169.46 69.24 168.93 69.78 168.33 C 70.28 167.78 70.7 167.18 71.04 166.52 C 71.38 165.87 71.63 165.17 71.8 164.44 C 71.98 163.64 72.07 162.83 72.07 162.01 C 72.07 161.03 71.93 160.06 71.66 159.12 C 71.42 158.28 71.03 157.49 70.53 156.77 C 70.03 156.06 69.44 155.42 68.77 154.87 C 67.85 154.12 66.86 153.45 65.82 152.88 C 64.79 152.31 63.73 151.8 62.65 151.34 C 61.05 150.66 59.43 150.04 57.79 149.47 C 56.16 148.9 54.52 148.35 52.88 147.82 C 50.58 147.07 48.26 146.33 45.95 145.62 C 43.67 144.94 41.43 144.16 39.23 143.26 C 37.21 142.44 35.23 141.52 33.3 140.49 C 31.39 139.48 29.56 138.32 27.82 137.04 C 26.23 135.86 24.73 134.55 23.35 133.13 C 21.98 131.72 20.75 130.18 19.67 128.54 C 18.56 126.84 17.61 125.04 16.83 123.17 C 16.06 121.31 15.49 119.37 15.13 117.38 C 14.69 115.01 14.48 112.6 14.48 110.18 C 14.48 107.69 14.71 105.21 15.18 102.76 C 15.6 100.57 16.25 98.43 17.12 96.38 C 17.55 95.36 18.04 94.37 18.6 93.4 C 19.14 92.46 19.75 91.54 20.41 90.67 C 21.08 89.78 21.8 88.93 22.58 88.13 C 23.39 87.29 24.26 86.49 25.17 85.75 C 26.95 84.29 28.9 83.03 30.96 81.99 C 33.56 80.69 36.27 79.62 39.05 78.79 C 39.71 78.6 40.38 78.42 41.05 78.25 C 41.77 78.07 42.49 77.9 43.21 77.75 C 45.56 77.26 47.94 76.91 50.32 76.69 C 53.3 76.41 56.29 76.28 59.27 76.28 C 60.83 76.28 62.38 76.31 63.93 76.37 C 65.68 76.45 67.43 76.55 69.18 76.69 C 70.93 76.82 72.67 76.99 74.41 77.19 C 76.24 77.4 78.06 77.64 79.88 77.92 C 81.69 78.19 83.5 78.5 85.3 78.86 C 87.09 79.21 88.87 79.61 90.64 80.04 C 92.41 80.48 94.16 80.97 95.9 81.5 C 97.28 81.93 98.64 82.39 99.99 82.89 L 98.86 106.31 C 98.16 106.01 97.45 105.73 96.73 105.45 C 95.24 104.89 93.74 104.34 92.23 103.83 C 90.72 103.32 89.2 102.84 87.67 102.39 C 86.04 101.91 84.4 101.46 82.75 101.04 C 81.1 100.63 79.44 100.25 77.77 99.91 C 76.09 99.57 74.4 99.27 72.71 99 C 71.01 98.74 69.31 98.54 67.59 98.4 C 66.09 98.27 64.58 98.21 63.07 98.21 C 61.79 98.21 60.51 98.25 59.24 98.34 C 58.21 98.41 57.18 98.53 56.17 98.69 C 55.09 98.86 54.02 99.09 52.97 99.39 C 52.13 99.62 51.32 99.92 50.53 100.28 C 49.73 100.64 48.99 101.1 48.31 101.65 C 47.73 102.12 47.22 102.69 46.81 103.32 C 46.4 103.95 46.09 104.64 45.9 105.36 C 45.68 106.18 45.57 107.02 45.57 107.87 C 45.57 108.3 45.6 108.72 45.68 109.14 C 45.75 109.54 45.86 109.94 46.01 110.32 C 46.16 110.7 46.34 111.07 46.56 111.42 C 46.79 111.79 47.06 112.14 47.35 112.46 C 47.9 113.07 48.51 113.62 49.18 114.1 C 50.06 114.75 51 115.32 51.97 115.82 C 52.92 116.31 53.9 116.76 54.89 117.18 C 56.19 117.72 57.5 118.22 58.82 118.68 C 60.13 119.13 61.45 119.58 62.77 120.01 C 64.36 120.53 65.96 121.04 67.56 121.54 Z  M 157.78 149.79 C 157.78 151.74 157.92 153.69 158.18 155.62 C 158.38 157.09 158.72 158.55 159.18 159.96 C 159.63 161.37 160.22 162.73 160.94 164.02 C 161.53 165.09 162.24 166.08 163.05 166.99 C 163.87 167.89 164.78 168.69 165.78 169.38 C 166.79 170.08 167.88 170.65 169.03 171.1 C 170.19 171.55 171.39 171.89 172.62 172.1 C 174.07 172.35 175.53 172.48 177 172.48 C 178.92 172.48 180.84 172.34 182.74 172.07 C 184.49 171.81 186.23 171.43 187.93 170.91 C 189.66 170.38 191.36 169.78 193.03 169.1 C 194.91 168.33 196.77 167.48 198.58 166.56 C 198.85 166.42 199.17 166.42 199.45 166.54 C 199.73 166.67 199.93 166.92 200 167.21 L 205.28 188.67 C 205.39 189.11 205.18 189.58 204.78 189.79 C 203.55 190.44 202.29 191.03 201.01 191.58 C 199.63 192.17 198.22 192.71 196.8 193.2 C 195.38 193.68 193.94 194.13 192.5 194.53 C 191.01 194.94 189.52 195.3 188.02 195.62 C 186.52 195.94 185.01 196.22 183.49 196.46 C 181.96 196.71 180.42 196.91 178.88 197.08 C 177.34 197.25 175.79 197.37 174.24 197.46 C 172.77 197.54 171.3 197.58 169.82 197.58 C 166.47 197.58 163.12 197.33 159.8 196.84 C 156.72 196.38 153.67 195.67 150.7 194.73 C 147.73 193.79 144.87 192.55 142.14 191.04 C 139.55 189.6 137.12 187.89 134.88 185.95 C 133.77 184.99 132.72 183.96 131.73 182.88 C 130.72 181.78 129.77 180.62 128.89 179.41 C 127.97 178.14 127.12 176.83 126.35 175.47 C 125.52 174.02 124.77 172.52 124.1 170.99 C 122.79 168.02 121.83 164.9 121.24 161.71 C 120.5 157.75 120.13 153.74 120.13 149.71 C 120.13 145.68 120.5 141.67 121.24 137.71 C 121.83 134.52 122.79 131.4 124.1 128.43 C 124.77 126.9 125.52 125.4 126.35 123.95 C 127.12 122.59 127.97 121.28 128.89 120.01 C 129.77 118.8 130.72 117.64 131.73 116.54 C 132.72 115.46 133.77 114.43 134.88 113.47 C 137.12 111.53 139.55 109.82 142.14 108.38 C 144.87 106.87 147.73 105.64 150.7 104.69 C 153.67 103.75 156.72 103.04 159.8 102.58 C 163.12 102.09 166.47 101.84 169.82 101.84 C 171.3 101.84 172.77 101.88 174.24 101.96 C 175.79 102.05 177.34 102.17 178.88 102.34 C 180.42 102.51 181.96 102.71 183.49 102.96 C 185.01 103.2 186.52 103.48 188.02 103.8 C 189.52 104.12 191.01 104.49 192.5 104.89 C 193.94 105.29 195.38 105.74 196.8 106.23 C 198.22 106.71 199.63 107.25 201.01 107.84 C 202.29 108.39 203.55 108.98 204.78 109.63 C 205.18 109.84 205.39 110.31 205.28 110.75 L 200 132.21 C 199.93 132.5 199.73 132.75 199.45 132.88 C 199.17 133 198.85 133 198.58 132.86 C 196.77 131.94 194.91 131.09 193.03 130.32 C 191.36 129.64 189.66 129.04 187.93 128.51 C 186.23 127.99 184.49 127.61 182.74 127.35 C 180.84 127.08 178.92 126.94 177 126.94 C 175.53 126.94 174.07 127.07 172.62 127.32 C 171.39 127.53 170.19 127.87 169.03 128.32 C 167.88 128.77 166.8 129.34 165.79 130.04 C 164.79 130.74 163.87 131.55 163.06 132.47 C 162.24 133.39 161.53 134.4 160.94 135.48 C 160.22 136.79 159.63 138.16 159.18 139.58 C 158.72 141.01 158.38 142.48 158.18 143.97 C 157.92 145.9 157.78 147.84 157.78 149.79 Z  M 159.18 134.52 C 158.41 135.94 157.77 137.43 157.27 138.97 C 156.78 140.51 156.42 142.09 156.2 143.7 C 155.92 145.72 155.78 147.75 155.78 149.79 C 155.78 151.83 155.92 153.87 156.2 155.89 C 156.42 157.48 156.78 159.05 157.28 160.58 C 157.77 162.11 158.41 163.58 159.19 164.99 C 159.85 166.19 160.65 167.31 161.57 168.33 C 162.49 169.35 163.52 170.25 164.65 171.03 C 165.79 171.81 167.01 172.46 168.3 172.96 C 169.59 173.46 170.92 173.83 172.28 174.07 C 173.84 174.34 175.42 174.48 177 174.48 C 179.01 174.48 181.03 174.33 183.02 174.05 C 184.88 173.78 186.72 173.37 188.51 172.82 C 190.3 172.28 192.06 171.65 193.79 170.95 C 195.33 170.32 196.86 169.63 198.36 168.9 L 203.15 188.38 C 202.19 188.86 201.22 189.32 200.23 189.74 C 198.89 190.31 197.53 190.83 196.15 191.3 C 194.77 191.78 193.37 192.21 191.96 192.6 C 190.52 193 189.07 193.35 187.6 193.66 C 186.13 193.98 184.66 194.25 183.18 194.49 C 181.68 194.73 180.17 194.93 178.67 195.09 C 177.16 195.26 175.65 195.38 174.13 195.46 C 172.7 195.54 171.26 195.58 169.82 195.58 C 166.57 195.58 163.32 195.34 160.1 194.86 C 157.12 194.42 154.18 193.73 151.31 192.82 C 148.47 191.92 145.72 190.74 143.11 189.29 C 140.64 187.92 138.32 186.29 136.19 184.44 C 135.14 183.53 134.14 182.56 133.21 181.53 C 132.25 180.48 131.35 179.38 130.51 178.23 C 129.63 177.03 128.82 175.77 128.09 174.48 C 127.29 173.09 126.57 171.65 125.93 170.19 C 124.68 167.35 123.77 164.39 123.21 161.35 C 122.49 157.51 122.13 153.61 122.13 149.71 C 122.13 145.81 122.49 141.91 123.21 138.07 C 123.77 135.03 124.68 132.07 125.93 129.24 C 126.57 127.77 127.29 126.33 128.09 124.94 C 128.82 123.65 129.63 122.39 130.51 121.19 C 131.35 120.04 132.25 118.94 133.21 117.89 C 134.14 116.86 135.14 115.89 136.19 114.98 C 138.32 113.13 140.64 111.5 143.11 110.13 C 145.72 108.68 148.47 107.5 151.31 106.6 C 154.18 105.69 157.12 105 160.1 104.56 C 163.32 104.08 166.57 103.84 169.82 103.84 C 171.26 103.84 172.7 103.88 174.13 103.96 C 175.65 104.04 177.16 104.17 178.67 104.33 C 180.17 104.49 181.68 104.69 183.18 104.93 C 184.66 105.17 186.13 105.44 187.6 105.76 C 189.07 106.07 190.52 106.42 191.96 106.82 C 193.37 107.21 194.77 107.64 196.15 108.12 C 197.53 108.59 198.89 109.11 200.23 109.68 C 201.22 110.11 202.19 110.56 203.15 111.04 L 198.36 130.52 C 196.86 129.79 195.33 129.1 193.79 128.47 C 192.06 127.77 190.3 127.14 188.51 126.6 C 186.72 126.05 184.88 125.64 183.02 125.37 C 181.03 125.09 179.01 124.94 177 124.94 C 175.42 124.94 173.84 125.08 172.28 125.35 C 170.92 125.59 169.59 125.96 168.3 126.46 C 167.01 126.96 165.79 127.61 164.65 128.4 C 163.52 129.19 162.48 130.11 161.56 131.14 C 160.65 132.17 159.85 133.31 159.18 134.52 Z  M 288.88 179.79 C 288.63 180.17 288.37 180.54 288.11 180.91 C 287.04 182.4 285.87 183.8 284.59 185.11 C 283.31 186.41 281.96 187.63 280.53 188.76 C 279.12 189.88 277.64 190.9 276.1 191.83 C 274.55 192.75 272.95 193.58 271.3 194.29 C 269.64 195 267.94 195.61 266.2 196.1 C 264.46 196.59 262.69 196.96 260.9 197.21 C 259.15 197.46 257.38 197.58 255.61 197.58 C 253.43 197.58 251.25 197.4 249.1 197.02 C 247.04 196.67 245.02 196.13 243.06 195.42 C 241.09 194.7 239.21 193.76 237.46 192.61 C 235.66 191.43 233.99 190.04 232.49 188.49 C 230.98 186.93 229.66 185.2 228.56 183.34 C 227.24 181.11 226.13 178.77 225.25 176.33 C 225.04 175.76 224.85 175.18 224.67 174.59 C 224.49 173.97 224.31 173.34 224.15 172.71 C 223.64 170.65 223.26 168.56 223.03 166.45 C 222.74 163.82 222.59 161.18 222.59 158.54 L 222.59 104.15 L 260.24 104.15 L 260.24 155.24 C 260.24 156.9 260.33 158.56 260.52 160.21 C 260.64 161.34 260.86 162.46 261.16 163.56 C 261.45 164.65 261.84 165.71 262.32 166.73 C 262.66 167.47 263.08 168.18 263.58 168.82 C 264.08 169.46 264.64 170.04 265.27 170.56 C 265.79 170.98 266.37 171.34 266.99 171.61 C 267.63 171.9 268.3 172.11 268.99 172.26 C 269.69 172.4 270.41 172.48 271.13 172.48 C 271.98 172.48 272.84 172.39 273.68 172.22 C 274.61 172.03 275.52 171.75 276.4 171.39 C 277.29 171.03 278.16 170.6 278.98 170.1 C 279.81 169.6 280.59 169.04 281.33 168.42 C 282.07 167.8 282.76 167.12 283.39 166.39 C 284.05 165.64 284.64 164.83 285.17 163.99 C 285.7 163.16 286.14 162.28 286.51 161.36 C 286.85 160.5 287.11 159.61 287.29 158.69 L 287.29 104.15 L 324.94 104.15 L 324.94 195.19 L 287.23 195.19 L 288.12 188.37 C 288.23 187.5 288.33 186.63 288.41 185.75 C 288.52 184.66 288.61 183.57 288.69 182.48 C 288.76 181.58 288.82 180.69 288.88 179.79 Z  M 322.94 106.15 L 322.94 193.19 L 289.51 193.19 L 290.11 188.62 C 290.11 188.62 290.11 188.62 290.11 188.62 C 290.22 187.73 290.32 186.84 290.4 185.95 C 290.51 184.84 290.61 183.74 290.69 182.63 C 290.77 181.52 290.85 180.42 290.91 179.31 C 291.1 176.28 291.23 173.24 291.3 170.2 C 290.19 173.61 288.57 176.83 286.48 179.75 C 285.48 181.15 284.37 182.48 283.16 183.71 C 281.94 184.95 280.65 186.12 279.29 187.19 C 277.94 188.26 276.53 189.23 275.07 190.11 C 273.6 190.99 272.08 191.77 270.51 192.45 C 268.93 193.13 267.31 193.71 265.65 194.18 C 264 194.64 262.32 194.99 260.62 195.23 C 258.96 195.46 257.29 195.58 255.61 195.58 C 253.54 195.58 251.48 195.4 249.44 195.05 C 247.5 194.72 245.59 194.21 243.74 193.54 C 241.92 192.87 240.18 192 238.56 190.94 C 236.88 189.84 235.32 188.55 233.93 187.1 C 232.53 185.65 231.31 184.04 230.28 182.31 C 229.02 180.2 227.97 177.97 227.13 175.65 C 226.94 175.11 226.76 174.56 226.59 174.01 C 226.41 173.42 226.24 172.82 226.09 172.22 C 225.6 170.25 225.24 168.25 225.01 166.23 C 224.73 163.68 224.59 161.11 224.59 158.54 L 224.59 106.15 L 258.24 106.15 L 258.24 155.24 C 258.24 156.97 258.34 158.7 258.53 160.43 C 258.66 161.66 258.9 162.89 259.23 164.09 C 259.55 165.28 259.98 166.45 260.5 167.57 C 260.91 168.45 261.41 169.28 262 170.04 C 262.58 170.81 263.26 171.5 264 172.11 C 264.67 172.65 265.4 173.1 266.18 173.44 C 266.95 173.78 267.75 174.04 268.58 174.21 C 269.42 174.39 270.27 174.48 271.13 174.48 C 272.12 174.48 273.11 174.38 274.08 174.18 C 275.13 173.96 276.16 173.65 277.15 173.25 C 278.14 172.85 279.1 172.37 280.02 171.81 C 280.93 171.26 281.8 170.64 282.62 169.95 C 283.44 169.26 284.2 168.51 284.9 167.7 C 285.62 166.87 286.28 165.99 286.87 165.06 C 287.46 164.12 287.96 163.13 288.37 162.1 C 288.77 161.09 289.07 160.04 289.27 158.97 C 289.28 158.91 289.29 158.85 289.29 158.79 L 289.29 106.15 L 322.94 106.15 Z  M 381.18 118.53 C 381.38 118.26 381.58 118 381.79 117.75 C 382.84 116.43 383.98 115.18 385.18 114.01 C 386.39 112.83 387.67 111.72 389.01 110.7 C 390.39 109.65 391.84 108.68 393.34 107.8 C 394.83 106.91 396.38 106.12 397.97 105.41 C 399.6 104.69 401.26 104.07 402.95 103.54 C 404.65 103 406.39 102.6 408.15 102.32 C 409.87 102.06 411.62 101.92 413.36 101.92 C 414.75 101.92 416.13 102.02 417.5 102.22 C 418.89 102.42 420.26 102.72 421.61 103.12 C 422.95 103.51 424.26 104.01 425.54 104.6 C 426.85 105.21 428.12 105.91 429.34 106.7 C 430.55 107.5 431.71 108.37 432.8 109.33 C 433.96 110.34 435.05 111.42 436.06 112.58 C 437.08 113.73 438.01 114.97 438.84 116.26 C 439.46 117.21 440.03 118.19 440.56 119.2 C 441.18 118.36 441.83 117.55 442.53 116.78 C 443.74 115.46 445.05 114.22 446.44 113.08 C 447.82 111.95 449.27 110.9 450.78 109.93 C 452.36 108.92 453.99 108.01 455.66 107.18 C 457.34 106.36 459.06 105.63 460.82 104.99 C 462.65 104.33 464.5 103.77 466.39 103.31 C 468.27 102.85 470.19 102.5 472.11 102.26 C 473.98 102.04 475.85 101.92 477.72 101.92 C 480.72 101.92 483.71 102.17 486.66 102.67 C 488.92 103.05 491.13 103.68 493.25 104.55 C 494.34 105.01 495.41 105.52 496.45 106.09 C 497.41 106.62 498.33 107.21 499.22 107.86 C 500.06 108.48 500.86 109.15 501.62 109.86 C 502.36 110.57 503.06 111.32 503.71 112.11 C 505.02 113.71 506.14 115.46 507.05 117.32 C 508.08 119.39 508.89 121.56 509.47 123.79 C 510.06 126.03 510.49 128.3 510.76 130.59 C 511.08 133.27 511.24 135.96 511.24 138.65 L 511.24 195.19 L 473.59 195.19 L 473.59 143.85 C 473.59 143.09 473.55 142.33 473.48 141.57 C 473.38 140.55 473.24 139.54 473.07 138.53 C 472.9 137.56 472.65 136.61 472.33 135.68 C 472.01 134.75 471.62 133.85 471.15 132.98 C 470.7 132.14 470.15 131.35 469.52 130.63 C 468.88 129.89 468.15 129.23 467.36 128.65 C 467 128.39 466.63 128.17 466.23 127.97 C 465.8 127.76 465.35 127.58 464.88 127.44 C 464.34 127.28 463.79 127.16 463.23 127.08 C 462.54 126.99 461.84 126.94 461.14 126.94 C 460.28 126.94 459.42 127.05 458.59 127.27 C 457.75 127.48 456.94 127.81 456.17 128.22 C 455.38 128.66 454.63 129.16 453.94 129.73 C 453.21 130.33 452.53 130.99 451.91 131.71 C 451.3 132.43 450.74 133.2 450.26 134.02 C 449.75 134.88 449.31 135.77 448.95 136.7 C 448.59 137.63 448.32 138.58 448.13 139.55 C 447.95 140.51 447.86 141.48 447.86 142.45 L 447.86 195.19 L 410.21 195.19 L 410.21 143.85 C 410.21 142.76 410.16 141.67 410.06 140.58 C 409.96 139.52 409.81 138.48 409.61 137.44 C 409.42 136.43 409.14 135.44 408.79 134.47 C 408.48 133.62 408.09 132.8 407.63 132.02 C 407.19 131.27 406.65 130.58 406.04 129.97 C 405.41 129.34 404.7 128.79 403.93 128.33 C 403.19 127.89 402.38 127.56 401.54 127.36 C 400.38 127.08 399.2 126.94 398.01 126.94 C 397.17 126.94 396.34 127.02 395.51 127.17 C 394.58 127.35 393.67 127.59 392.78 127.92 C 391.89 128.24 391.02 128.63 390.19 129.09 C 389.4 129.52 388.65 130.02 387.94 130.57 C 387.24 131.12 386.6 131.73 386.01 132.39 C 385.43 133.06 384.92 133.77 384.47 134.54 C 384.05 135.27 383.72 136.05 383.5 136.87 C 383.28 137.69 383.17 138.54 383.17 139.4 L 383.17 195.19 L 345.52 195.19 L 345.52 104.15 L 382.58 104.15 C 382.9 104.15 383.2 104.3 383.38 104.56 C 383.57 104.81 383.63 105.14 383.53 105.45 C 383.29 106.23 383.06 107.03 382.83 107.82 C 382.65 108.48 382.48 109.14 382.31 109.8 C 382.15 110.46 382.01 111.12 381.89 111.78 C 381.77 112.41 381.67 113.05 381.59 113.69 C 381.51 114.34 381.44 114.99 381.38 115.64 C 381.32 116.3 381.27 116.97 381.23 117.63 C 381.21 117.93 381.19 118.23 381.18 118.53 Z  M 347.52 193.19 L 347.52 106.15 L 381.23 106.15 C 381.12 106.53 381.01 106.9 380.91 107.28 C 380.72 107.96 380.54 108.64 380.37 109.33 C 380.2 110.02 380.05 110.71 379.92 111.41 C 379.8 112.09 379.69 112.76 379.61 113.44 C 379.52 114.11 379.45 114.79 379.39 115.46 C 379.32 116.14 379.27 116.82 379.23 117.51 C 379.19 118.19 379.16 118.88 379.14 119.56 C 379.08 121.65 379.1 123.74 379.2 125.83 C 380.27 123.38 381.67 121.08 383.34 119 C 384.35 117.75 385.43 116.56 386.58 115.44 C 387.73 114.32 388.94 113.27 390.22 112.29 C 391.54 111.29 392.92 110.36 394.35 109.52 C 395.78 108.68 397.26 107.92 398.78 107.24 C 400.34 106.55 401.93 105.95 403.55 105.44 C 405.15 104.94 406.79 104.56 408.46 104.3 C 410.08 104.05 411.72 103.92 413.36 103.92 C 414.65 103.92 415.94 104.01 417.22 104.2 C 418.51 104.39 419.79 104.67 421.04 105.04 C 422.29 105.4 423.51 105.87 424.69 106.41 C 425.92 106.98 427.11 107.64 428.24 108.38 C 429.38 109.12 430.46 109.94 431.49 110.83 C 432.58 111.78 433.6 112.81 434.56 113.9 C 435.51 114.98 436.38 116.13 437.16 117.34 C 438.39 119.24 439.43 121.24 440.29 123.33 C 441.33 121.46 442.57 119.71 444.01 118.13 C 445.16 116.87 446.39 115.7 447.7 114.63 C 449.03 113.54 450.42 112.54 451.86 111.62 C 453.37 110.65 454.94 109.77 456.55 108.98 C 458.16 108.18 459.81 107.48 461.5 106.87 C 463.26 106.24 465.05 105.7 466.86 105.25 C 468.67 104.81 470.51 104.48 472.36 104.25 C 474.14 104.03 475.93 103.92 477.72 103.92 C 480.61 103.92 483.48 104.16 486.33 104.64 C 488.44 105 490.5 105.59 492.49 106.41 C 493.51 106.83 494.51 107.31 495.48 107.84 C 496.37 108.33 497.22 108.88 498.04 109.48 C 498.81 110.04 499.55 110.66 500.25 111.32 C 500.93 111.96 501.57 112.65 502.16 113.37 C 503.37 114.86 504.41 116.48 505.26 118.2 C 506.22 120.15 506.98 122.2 507.54 124.3 C 508.1 126.44 508.51 128.63 508.77 130.83 C 509.08 133.42 509.24 136.04 509.24 138.65 L 509.24 193.19 L 475.59 193.19 L 475.59 143.85 C 475.59 143.02 475.55 142.2 475.47 141.37 C 475.36 140.31 475.22 139.25 475.04 138.19 C 474.85 137.12 474.58 136.06 474.22 135.03 C 473.87 133.99 473.43 132.99 472.91 132.03 C 472.39 131.06 471.76 130.15 471.03 129.32 C 470.28 128.47 469.45 127.7 468.54 127.04 C 468.09 126.71 467.61 126.42 467.11 126.18 C 466.58 125.92 466.03 125.7 465.46 125.53 C 464.82 125.33 464.16 125.19 463.49 125.1 C 462.71 125 461.93 124.94 461.14 124.94 C 460.11 124.94 459.09 125.07 458.09 125.33 C 457.09 125.59 456.12 125.97 455.21 126.47 C 454.31 126.96 453.46 127.54 452.67 128.19 C 451.85 128.86 451.09 129.6 450.39 130.41 C 449.7 131.22 449.08 132.08 448.54 133 C 447.97 133.95 447.49 134.95 447.09 135.98 C 446.68 137.02 446.38 138.09 446.17 139.18 C 445.96 140.26 445.86 141.35 445.86 142.45 L 445.86 193.19 L 412.21 193.19 L 412.21 143.85 C 412.21 142.7 412.16 141.54 412.05 140.39 C 411.95 139.27 411.79 138.16 411.58 137.06 C 411.36 135.95 411.06 134.85 410.67 133.78 C 410.31 132.82 409.87 131.89 409.35 131.01 C 408.82 130.11 408.18 129.29 407.45 128.55 C 406.7 127.81 405.87 127.15 404.96 126.61 C 404.04 126.06 403.04 125.66 402 125.41 C 400.69 125.1 399.35 124.94 398.01 124.94 C 397.05 124.94 396.09 125.03 395.15 125.21 C 394.11 125.4 393.09 125.68 392.1 126.04 C 391.11 126.39 390.15 126.83 389.23 127.34 C 388.34 127.82 387.5 128.37 386.71 128.99 C 385.91 129.62 385.17 130.32 384.51 131.08 C 383.84 131.84 383.26 132.66 382.75 133.53 C 382.23 134.41 381.84 135.36 381.57 136.35 C 381.3 137.34 381.17 138.37 381.17 139.4 L 381.17 193.19 L 347.52 193.19 Z  M 566.73 118.53 C 566.93 118.26 567.14 118 567.34 117.75 C 568.4 116.43 569.53 115.18 570.74 114.01 C 571.95 112.83 573.22 111.72 574.57 110.7 C 575.95 109.65 577.39 108.68 578.89 107.8 C 580.39 106.91 581.94 106.12 583.53 105.41 C 585.15 104.69 586.81 104.07 588.51 103.54 C 590.21 103 591.95 102.6 593.71 102.32 C 595.43 102.06 597.17 101.92 598.92 101.92 C 600.3 101.92 601.69 102.02 603.06 102.22 C 604.45 102.42 605.82 102.72 607.16 103.12 C 608.51 103.51 609.82 104.01 611.09 104.6 C 612.41 105.21 613.68 105.91 614.89 106.7 C 616.11 107.5 617.27 108.37 618.36 109.33 C 619.52 110.34 620.6 111.42 621.62 112.58 C 622.63 113.73 623.56 114.97 624.4 116.26 C 625.02 117.21 625.59 118.19 626.12 119.2 C 626.73 118.36 627.39 117.55 628.09 116.78 C 629.3 115.46 630.6 114.22 631.99 113.08 C 633.38 111.95 634.83 110.9 636.34 109.93 C 637.91 108.92 639.54 108.01 641.22 107.18 C 642.9 106.36 644.62 105.63 646.38 104.99 C 648.2 104.33 650.06 103.77 651.95 103.31 C 653.83 102.85 655.74 102.5 657.67 102.26 C 659.53 102.04 661.41 101.92 663.28 101.92 C 666.28 101.92 669.26 102.17 672.22 102.67 C 674.47 103.05 676.68 103.68 678.8 104.55 C 679.9 105.01 680.97 105.52 682.01 106.09 C 682.97 106.62 683.89 107.21 684.78 107.86 C 685.62 108.48 686.42 109.15 687.18 109.86 C 687.92 110.57 688.62 111.32 689.27 112.11 C 690.57 113.71 691.7 115.46 692.61 117.32 C 693.63 119.39 694.44 121.56 695.03 123.79 C 695.62 126.03 696.05 128.3 696.32 130.59 C 696.64 133.27 696.79 135.96 696.79 138.65 L 696.79 195.19 L 659.15 195.19 L 659.15 143.85 C 659.15 143.09 659.11 142.33 659.03 141.57 C 658.94 140.55 658.8 139.54 658.62 138.53 C 658.46 137.56 658.21 136.61 657.89 135.68 C 657.57 134.75 657.17 133.85 656.71 132.98 C 656.26 132.14 655.71 131.35 655.08 130.63 C 654.43 129.89 653.71 129.23 652.91 128.65 C 652.56 128.39 652.18 128.17 651.79 127.97 C 651.36 127.76 650.9 127.58 650.44 127.44 C 649.9 127.28 649.34 127.16 648.79 127.08 C 648.09 126.99 647.39 126.94 646.7 126.94 C 645.84 126.94 644.98 127.05 644.15 127.27 C 643.3 127.48 642.49 127.81 641.73 128.22 C 640.94 128.66 640.19 129.16 639.49 129.73 C 638.76 130.33 638.08 130.99 637.47 131.71 C 636.85 132.43 636.3 133.2 635.82 134.02 C 635.31 134.88 634.87 135.77 634.51 136.7 C 634.15 137.63 633.87 138.58 633.69 139.55 C 633.51 140.51 633.42 141.48 633.42 142.45 L 633.42 195.19 L 595.77 195.19 L 595.77 143.85 C 595.77 142.76 595.72 141.67 595.62 140.58 C 595.52 139.52 595.37 138.48 595.17 137.44 C 594.98 136.43 594.7 135.44 594.35 134.47 C 594.03 133.62 593.65 132.8 593.19 132.02 C 592.74 131.27 592.21 130.58 591.59 129.97 C 590.96 129.34 590.26 128.79 589.49 128.33 C 588.75 127.89 587.94 127.56 587.09 127.36 C 585.94 127.08 584.76 126.94 583.57 126.94 C 582.73 126.94 581.89 127.02 581.07 127.17 C 580.14 127.35 579.23 127.59 578.34 127.92 C 577.45 128.24 576.58 128.63 575.74 129.09 C 574.96 129.52 574.21 130.02 573.5 130.57 C 572.8 131.12 572.15 131.73 571.57 132.39 C 570.99 133.06 570.48 133.77 570.03 134.54 C 569.61 135.27 569.28 136.05 569.06 136.87 C 568.84 137.69 568.72 138.54 568.72 139.4 L 568.72 195.19 L 531.08 195.19 L 531.08 104.15 L 568.14 104.15 C 568.45 104.15 568.75 104.3 568.94 104.56 C 569.13 104.81 569.19 105.14 569.09 105.45 C 568.85 106.23 568.61 107.03 568.39 107.82 C 568.21 108.48 568.03 109.14 567.87 109.8 C 567.71 110.46 567.57 111.12 567.45 111.78 C 567.33 112.41 567.23 113.05 567.15 113.69 C 567.07 114.34 567 114.99 566.94 115.64 C 566.87 116.3 566.82 116.97 566.78 117.63 C 566.76 117.93 566.75 118.23 566.73 118.53 Z  M 533.08 193.19 L 533.08 106.15 L 566.79 106.15 C 566.68 106.53 566.57 106.9 566.46 107.28 C 566.27 107.96 566.1 108.64 565.93 109.33 C 565.76 110.02 565.61 110.71 565.48 111.41 C 565.35 112.09 565.25 112.76 565.16 113.44 C 565.08 114.11 565.01 114.79 564.94 115.46 C 564.88 116.14 564.83 116.82 564.79 117.51 C 564.74 118.19 564.71 118.88 564.69 119.56 C 564.63 121.65 564.66 123.74 564.76 125.83 C 565.83 123.38 567.23 121.08 568.9 119 C 569.91 117.75 570.99 116.56 572.14 115.44 C 573.28 114.32 574.5 113.27 575.78 112.29 C 577.1 111.29 578.48 110.36 579.91 109.52 C 581.34 108.68 582.82 107.92 584.34 107.24 C 585.89 106.55 587.49 105.95 589.11 105.44 C 590.71 104.94 592.35 104.56 594.01 104.3 C 595.64 104.05 597.27 103.92 598.92 103.92 C 600.21 103.92 601.5 104.01 602.77 104.2 C 604.07 104.39 605.34 104.67 606.6 105.04 C 607.85 105.4 609.07 105.87 610.25 106.41 C 611.48 106.98 612.67 107.64 613.8 108.38 C 614.94 109.12 616.02 109.94 617.04 110.83 C 618.13 111.78 619.16 112.81 620.12 113.9 C 621.07 114.98 621.94 116.13 622.72 117.34 C 623.94 119.24 624.99 121.24 625.85 123.33 C 626.88 121.46 628.13 119.71 629.57 118.13 C 630.71 116.87 631.95 115.7 633.26 114.63 C 634.58 113.54 635.97 112.54 637.42 111.62 C 638.93 110.65 640.49 109.77 642.1 108.98 C 643.71 108.18 645.37 107.48 647.06 106.87 C 648.81 106.24 650.6 105.7 652.42 105.25 C 654.23 104.81 656.07 104.48 657.92 104.25 C 659.7 104.03 661.49 103.92 663.28 103.92 C 666.16 103.92 669.04 104.16 671.88 104.64 C 674 105 676.06 105.59 678.04 106.41 C 679.07 106.83 680.07 107.31 681.04 107.84 C 681.92 108.33 682.78 108.88 683.6 109.48 C 684.37 110.04 685.11 110.66 685.8 111.32 C 686.49 111.96 687.12 112.65 687.72 113.37 C 688.93 114.86 689.97 116.48 690.82 118.2 C 691.78 120.15 692.54 122.2 693.09 124.3 C 693.66 126.44 694.07 128.63 694.33 130.83 C 694.64 133.42 694.79 136.04 694.79 138.65 L 694.79 193.19 L 661.15 193.19 L 661.15 143.85 C 661.15 143.02 661.11 142.2 661.03 141.37 C 660.92 140.31 660.78 139.25 660.59 138.19 C 660.41 137.12 660.14 136.06 659.78 135.03 C 659.42 133.99 658.99 132.99 658.47 132.03 C 657.95 131.06 657.31 130.15 656.59 129.32 C 655.84 128.47 655.01 127.7 654.09 127.04 C 653.64 126.71 653.17 126.42 652.67 126.18 C 652.14 125.92 651.58 125.7 651.02 125.53 C 650.37 125.33 649.72 125.19 649.05 125.1 C 648.27 125 647.48 124.94 646.7 124.94 C 645.67 124.94 644.64 125.07 643.65 125.33 C 642.64 125.59 641.68 125.97 640.77 126.47 C 639.87 126.96 639.02 127.54 638.23 128.19 C 637.4 128.86 636.64 129.6 635.95 130.41 C 635.26 131.22 634.64 132.08 634.1 133 C 633.53 133.95 633.04 134.95 632.64 135.98 C 632.24 137.02 631.93 138.09 631.73 139.18 C 631.52 140.26 631.42 141.35 631.42 142.45 L 631.42 193.19 L 597.77 193.19 L 597.77 143.85 C 597.77 142.7 597.72 141.54 597.61 140.39 C 597.5 139.27 597.35 138.16 597.13 137.06 C 596.92 135.95 596.61 134.85 596.22 133.78 C 595.87 132.82 595.43 131.89 594.91 131.01 C 594.38 130.11 593.74 129.29 593.01 128.55 C 592.26 127.81 591.42 127.15 590.52 126.61 C 589.6 126.06 588.6 125.66 587.56 125.41 C 586.25 125.1 584.91 124.94 583.57 124.94 C 582.61 124.94 581.65 125.03 580.71 125.21 C 579.67 125.4 578.65 125.68 577.66 126.04 C 576.67 126.39 575.71 126.83 574.78 127.34 C 573.9 127.82 573.06 128.37 572.27 128.99 C 571.47 129.62 570.73 130.32 570.07 131.08 C 569.4 131.84 568.81 132.66 568.3 133.53 C 567.79 134.41 567.39 135.36 567.13 136.35 C 566.86 137.34 566.72 138.37 566.72 139.4 L 566.72 193.19 L 533.08 193.19 Z " fill-rule="evenodd" fill="rgb(0,200,49)" vector-effect="non-scaling-stroke" stroke-width="5" stroke="rgb(51,51,51)" stroke-linejoin="miter" stroke-linecap="square" stroke-miterlimit="3"/><path d=" M 740.124 200.766 L 647.976 70.739 L 685.394 60.713 L 752.232 157.003 L 761.874 40.22 L 799.291 30.194 L 784.503 188.875 L 740.124 200.766 Z " fill="rgb(181,181,181)"/><path d=" M 791.236 192.705 L 806.672 35.999 L 858.103 41.065 L 885.529 128.444 L 929.686 48.117 L 981.012 53.173 L 965.575 209.879 L 927.37 206.116 L 938.66 91.499 L 894.231 172.435 L 868.62 169.912 L 840.837 81.862 L 829.546 196.479 L 791.236 192.705 Z " fill="rgb(181,181,181)"/><path d=" M 101.028 82.209 L 99.791 107.791 L 99.791 107.791 Q 96.407 106.305 91.91 104.779 L 91.91 104.779 L 91.91 104.779 Q 87.413 103.252 82.503 102.014 L 82.503 102.014 L 82.503 102.014 Q 77.593 100.776 72.559 99.992 L 72.559 99.992 L 72.559 99.992 Q 67.525 99.208 63.069 99.208 L 63.069 99.208 L 63.069 99.208 Q 55.313 99.208 50.939 101.189 L 50.939 101.189 L 50.939 101.189 Q 46.565 103.169 46.565 107.873 L 46.565 107.873 L 46.565 107.873 Q 46.565 110.101 48.092 111.793 L 48.092 111.793 L 48.092 111.793 Q 49.619 113.484 52.424 114.928 L 52.424 114.928 L 52.424 114.928 Q 55.23 116.373 59.15 117.734 L 59.15 117.734 L 59.15 117.734 Q 63.069 119.096 67.855 120.581 L 67.855 120.581 L 73.879 122.479 L 73.879 122.479 Q 81.471 124.79 87.495 128.049 L 87.495 128.049 L 87.495 128.049 Q 93.519 131.309 97.686 135.723 L 97.686 135.723 L 97.686 135.723 Q 101.854 140.138 104.082 145.832 L 104.082 145.832 L 104.082 145.832 Q 106.31 151.526 106.31 158.788 L 106.31 158.788 L 106.31 158.788 Q 106.31 167.287 103.628 174.26 L 103.628 174.26 L 103.628 174.26 Q 100.946 181.233 95.252 186.184 L 95.252 186.184 L 95.252 186.184 Q 89.558 191.135 80.687 193.858 L 80.687 193.858 L 80.687 193.858 Q 71.816 196.582 59.356 196.582 L 59.356 196.582 L 59.356 196.582 Q 48.298 196.582 37.365 194.766 L 37.365 194.766 L 37.365 194.766 Q 26.431 192.951 15.291 188.412 L 15.291 188.412 L 15.291 161.181 L 15.291 161.181 Q 25.936 166.627 35.962 169.144 L 35.962 169.144 L 35.962 169.144 Q 45.988 171.661 55.725 171.661 L 55.725 171.661 L 55.725 171.661 Q 63.729 171.661 67.402 169.103 L 67.402 169.103 L 67.402 169.103 Q 71.074 166.544 71.074 162.006 L 71.074 162.006 L 71.074 162.006 Q 71.074 159.283 69.712 157.344 L 69.712 157.344 L 69.712 157.344 Q 68.351 155.404 65.339 153.754 L 65.339 153.754 L 65.339 153.754 Q 62.327 152.104 57.458 150.412 L 57.458 150.412 L 57.458 150.412 Q 52.589 148.72 45.658 146.575 L 45.658 146.575 L 45.658 146.575 Q 38.726 144.512 32.826 141.376 L 32.826 141.376 L 32.826 141.376 Q 26.926 138.24 22.635 133.825 L 22.635 133.825 L 22.635 133.825 Q 18.344 129.411 15.909 123.552 L 15.909 123.552 L 15.909 123.552 Q 13.475 117.693 13.475 110.184 L 13.475 110.184 L 13.475 110.184 Q 13.475 102.427 16.198 95.99 L 16.198 95.99 L 16.198 95.99 Q 18.921 89.554 24.533 84.974 L 24.533 84.974 L 24.533 84.974 Q 30.144 80.394 38.767 77.836 L 38.767 77.836 L 38.767 77.836 Q 47.391 75.278 59.273 75.278 L 59.273 75.278 L 59.273 75.278 Q 63.977 75.278 69.258 75.69 L 69.258 75.69 L 69.258 75.69 Q 74.54 76.103 80.027 76.928 L 80.027 76.928 L 80.027 76.928 Q 85.515 77.753 90.878 79.074 L 90.878 79.074 L 90.878 79.074 Q 96.242 80.394 101.028 82.209 L 101.028 82.209 Z  M 156.782 149.793 L 156.782 149.793 L 156.782 149.793 Q 156.782 155.817 158.226 160.273 L 158.226 160.273 L 158.226 160.273 Q 159.67 164.729 162.311 167.658 L 162.311 167.658 L 162.311 167.658 Q 164.952 170.588 168.665 172.032 L 168.665 172.032 L 168.665 172.032 Q 172.378 173.476 177 173.476 L 177 173.476 L 177 173.476 Q 182.941 173.476 188.222 171.867 L 188.222 171.867 L 188.222 171.867 Q 193.503 170.258 199.032 167.452 L 199.032 167.452 L 204.313 188.907 L 204.313 188.907 Q 200.683 190.805 196.474 192.249 L 196.474 192.249 L 196.474 192.249 Q 192.266 193.693 187.81 194.642 L 187.81 194.642 L 187.81 194.642 Q 183.354 195.591 178.774 196.086 L 178.774 196.086 L 178.774 196.086 Q 174.194 196.582 169.82 196.582 L 169.82 196.582 L 169.82 196.582 Q 159.835 196.582 151.006 193.776 L 151.006 193.776 L 151.006 193.776 Q 142.176 190.97 135.533 185.194 L 135.533 185.194 L 135.533 185.194 Q 128.891 179.417 125.012 170.588 L 125.012 170.588 L 125.012 170.588 Q 121.134 161.758 121.134 149.71 L 121.134 149.71 L 121.134 149.71 Q 121.134 137.663 125.012 128.833 L 125.012 128.833 L 125.012 128.833 Q 128.891 120.003 135.533 114.227 L 135.533 114.227 L 135.533 114.227 Q 142.176 108.451 151.006 105.645 L 151.006 105.645 L 151.006 105.645 Q 159.835 102.839 169.82 102.839 L 169.82 102.839 L 169.82 102.839 Q 174.194 102.839 178.774 103.334 L 178.774 103.334 L 178.774 103.334 Q 183.354 103.83 187.81 104.779 L 187.81 104.779 L 187.81 104.779 Q 192.266 105.728 196.474 107.172 L 196.474 107.172 L 196.474 107.172 Q 200.683 108.616 204.313 110.514 L 204.313 110.514 L 199.032 131.969 L 199.032 131.969 Q 193.503 129.163 188.222 127.554 L 188.222 127.554 L 188.222 127.554 Q 182.941 125.945 177 125.945 L 177 125.945 L 177 125.945 Q 172.378 125.945 168.665 127.389 L 168.665 127.389 L 168.665 127.389 Q 164.952 128.833 162.311 131.804 L 162.311 131.804 L 162.311 131.804 Q 159.67 134.774 158.226 139.272 L 158.226 139.272 L 158.226 139.272 Q 156.782 143.769 156.782 149.793 Z  M 323.938 105.15 L 323.938 194.188 L 288.372 194.188 L 289.114 188.495 L 289.114 188.495 Q 289.444 185.854 289.692 182.553 L 289.692 182.553 L 289.692 182.553 Q 289.939 179.252 290.104 175.704 L 290.104 175.704 L 290.104 175.704 Q 287.629 180.573 283.874 184.41 L 283.874 184.41 L 283.874 184.41 Q 280.12 188.247 275.581 190.97 L 275.581 190.97 L 275.581 190.97 Q 271.042 193.693 265.926 195.137 L 265.926 195.137 L 265.926 195.137 Q 260.81 196.582 255.611 196.582 L 255.611 196.582 L 255.611 196.582 Q 249.175 196.582 243.398 194.477 L 243.398 194.477 L 243.398 194.477 Q 237.622 192.373 233.207 187.793 L 233.207 187.793 L 233.207 187.793 Q 228.792 183.213 226.193 175.993 L 226.193 175.993 L 226.193 175.993 Q 223.594 168.772 223.594 158.54 L 223.594 158.54 L 223.594 105.15 L 259.242 105.15 L 259.242 155.239 L 259.242 155.239 Q 259.242 160.355 260.191 163.821 L 260.191 163.821 L 260.191 163.821 Q 261.14 167.287 262.791 169.433 L 262.791 169.433 L 262.791 169.433 Q 264.441 171.578 266.586 172.527 L 266.586 172.527 L 266.586 172.527 Q 268.732 173.476 271.125 173.476 L 271.125 173.476 L 271.125 173.476 Q 273.931 173.476 276.778 172.321 L 276.778 172.321 L 276.778 172.321 Q 279.625 171.166 281.976 169.185 L 281.976 169.185 L 281.976 169.185 Q 284.328 167.205 286.02 164.523 L 286.02 164.523 L 286.02 164.523 Q 287.711 161.841 288.289 158.788 L 288.289 158.788 L 288.289 105.15 L 323.938 105.15 Z  M 346.519 194.188 L 346.519 105.15 L 382.58 105.15 L 382.58 105.15 Q 381.837 107.543 381.342 109.565 L 381.342 109.565 L 381.342 109.565 Q 380.847 111.586 380.599 113.567 L 380.599 113.567 L 380.599 113.567 Q 380.352 115.547 380.228 117.569 L 380.228 117.569 L 380.228 117.569 Q 380.104 119.591 380.104 121.901 L 380.104 121.901 L 380.104 121.901 Q 382.332 118.188 385.88 114.722 L 385.88 114.722 L 385.88 114.722 Q 389.429 111.256 393.844 108.657 L 393.844 108.657 L 393.844 108.657 Q 398.258 106.058 403.251 104.49 L 403.251 104.49 L 403.251 104.49 Q 408.243 102.922 413.359 102.922 L 413.359 102.922 L 413.359 102.922 Q 417.403 102.922 421.323 104.077 L 421.323 104.077 L 421.323 104.077 Q 425.242 105.232 428.791 107.543 L 428.791 107.543 L 428.791 107.543 Q 432.339 109.854 435.31 113.237 L 435.31 113.237 L 435.31 113.237 Q 438.28 116.62 440.426 121.159 L 440.426 121.159 L 440.426 121.159 Q 442.984 117.198 447.069 113.856 L 447.069 113.856 L 447.069 113.856 Q 451.153 110.514 456.104 108.079 L 456.104 108.079 L 456.104 108.079 Q 461.056 105.645 466.626 104.283 L 466.626 104.283 L 466.626 104.283 Q 472.196 102.922 477.725 102.922 L 477.725 102.922 L 477.725 102.922 Q 486.637 102.922 492.867 105.48 L 492.867 105.48 L 492.867 105.48 Q 499.097 108.038 502.934 112.742 L 502.934 112.742 L 502.934 112.742 Q 506.771 117.445 508.504 124.047 L 508.504 124.047 L 508.504 124.047 Q 510.237 130.648 510.237 138.653 L 510.237 138.653 L 510.237 194.188 L 474.589 194.188 L 474.589 143.852 L 474.589 143.852 Q 474.589 141.458 474.052 138.364 L 474.052 138.364 L 474.052 138.364 Q 473.516 135.27 472.031 132.505 L 472.031 132.505 L 472.031 132.505 Q 470.545 129.741 467.946 127.843 L 467.946 127.843 L 467.946 127.843 Q 465.347 125.945 461.138 125.945 L 461.138 125.945 L 461.138 125.945 Q 458.25 125.945 455.692 127.348 L 455.692 127.348 L 455.692 127.348 Q 453.134 128.75 451.153 131.061 L 451.153 131.061 L 451.153 131.061 Q 449.173 133.372 448.018 136.342 L 448.018 136.342 L 448.018 136.342 Q 446.862 139.313 446.862 142.449 L 446.862 142.449 L 446.862 194.188 L 411.214 194.188 L 411.214 143.852 L 411.214 143.852 Q 411.214 140.468 410.595 137.25 L 410.595 137.25 L 410.595 137.25 Q 409.976 134.032 408.491 131.515 L 408.491 131.515 L 408.491 131.515 Q 407.005 128.998 404.447 127.471 L 404.447 127.471 L 404.447 127.471 Q 401.889 125.945 398.011 125.945 L 398.011 125.945 L 398.011 125.945 Q 395.288 125.945 392.441 126.976 L 392.441 126.976 L 392.441 126.976 Q 389.594 128.008 387.324 129.782 L 387.324 129.782 L 387.324 129.782 Q 385.055 131.556 383.611 134.032 L 383.611 134.032 L 383.611 134.032 Q 382.167 136.507 382.167 139.396 L 382.167 139.396 L 382.167 194.188 L 346.519 194.188 Z  M 532.076 194.188 L 532.076 105.15 L 568.137 105.15 L 568.137 105.15 Q 567.394 107.543 566.899 109.565 L 566.899 109.565 L 566.899 109.565 Q 566.404 111.586 566.156 113.567 L 566.156 113.567 L 566.156 113.567 Q 565.909 115.547 565.785 117.569 L 565.785 117.569 L 565.785 117.569 Q 565.661 119.591 565.661 121.901 L 565.661 121.901 L 565.661 121.901 Q 567.889 118.188 571.438 114.722 L 571.438 114.722 L 571.438 114.722 Q 574.986 111.256 579.401 108.657 L 579.401 108.657 L 579.401 108.657 Q 583.815 106.058 588.808 104.49 L 588.808 104.49 L 588.808 104.49 Q 593.8 102.922 598.917 102.922 L 598.917 102.922 L 598.917 102.922 Q 602.96 102.922 606.88 104.077 L 606.88 104.077 L 606.88 104.077 Q 610.799 105.232 614.348 107.543 L 614.348 107.543 L 614.348 107.543 Q 617.896 109.854 620.867 113.237 L 620.867 113.237 L 620.867 113.237 Q 623.837 116.62 625.983 121.159 L 625.983 121.159 L 625.983 121.159 Q 628.541 117.198 632.626 113.856 L 632.626 113.856 L 632.626 113.856 Q 636.71 110.514 641.662 108.079 L 641.662 108.079 L 641.662 108.079 Q 646.613 105.645 652.183 104.283 L 652.183 104.283 L 652.183 104.283 Q 657.753 102.922 663.282 102.922 L 663.282 102.922 L 663.282 102.922 Q 672.194 102.922 678.424 105.48 L 678.424 105.48 L 678.424 105.48 Q 684.654 108.038 688.491 112.742 L 688.491 112.742 L 688.491 112.742 Q 692.329 117.445 694.062 124.047 L 694.062 124.047 L 694.062 124.047 Q 695.794 130.648 695.794 138.653 L 695.794 138.653 L 695.794 194.188 L 660.146 194.188 L 660.146 143.852 L 660.146 143.852 Q 660.146 141.458 659.61 138.364 L 659.61 138.364 L 659.61 138.364 Q 659.073 135.27 657.588 132.505 L 657.588 132.505 L 657.588 132.505 Q 656.103 129.741 653.503 127.843 L 653.503 127.843 L 653.503 127.843 Q 650.904 125.945 646.695 125.945 L 646.695 125.945 L 646.695 125.945 Q 643.807 125.945 641.249 127.348 L 641.249 127.348 L 641.249 127.348 Q 638.691 128.75 636.71 131.061 L 636.71 131.061 L 636.71 131.061 Q 634.73 133.372 633.575 136.342 L 633.575 136.342 L 633.575 136.342 Q 632.419 139.313 632.419 142.449 L 632.419 142.449 L 632.419 194.188 L 596.771 194.188 L 596.771 143.852 L 596.771 143.852 Q 596.771 140.468 596.152 137.25 L 596.152 137.25 L 596.152 137.25 Q 595.533 134.032 594.048 131.515 L 594.048 131.515 L 594.048 131.515 Q 592.563 128.998 590.004 127.471 L 590.004 127.471 L 590.004 127.471 Q 587.446 125.945 583.568 125.945 L 583.568 125.945 L 583.568 125.945 Q 580.845 125.945 577.998 126.976 L 577.998 126.976 L 577.998 126.976 Q 575.151 128.008 572.882 129.782 L 572.882 129.782 L 572.882 129.782 Q 570.612 131.556 569.168 134.032 L 569.168 134.032 L 569.168 134.032 Q 567.724 136.507 567.724 139.396 L 567.724 139.396 L 567.724 194.188 L 532.076 194.188 Z " fill="rgb(0,200,49)"/></g></svg>