<?xml version="1.0" encoding="UTF-8" standalone="no"?><!-- Generator: Gravit.io --><svg xmlns="http://www.w3.org/2000/svg" xmlns:xlink="http://www.w3.org/1999/xlink" style="isolation:isolate" viewBox="0 0 992 250" width="992pt" height="250pt"><defs><clipPath id="_clipPath_vgWqOWBYogZdBDOQqKMmuleK1IwSlxkn"><rect width="992" height="250"/></clipPath></defs><g clip-path="url(#_clipPath_vgWqOWBYogZdBDOQqKMmuleK1IwSlxkn)"><path d=" M 424.821 204.885 L 424.821 204.885 L 424.821 204.885 Q 424.821 200.071 421.423 197.493 L 421.423 197.493 L 421.423 197.493 Q 418.024 194.916 409.188 192.056 L 409.188 192.056 L 409.188 192.056 Q 400.353 189.196 395.198 186.42 L 395.198 186.42 L 395.198 186.42 Q 381.151 178.83 381.151 165.973 L 381.151 165.973 L 381.151 165.973 Q 381.151 159.289 384.918 154.05 L 384.918 154.05 L 384.918 154.05 Q 388.685 148.811 395.736 145.866 L 395.736 145.866 L 395.736 145.866 Q 402.788 142.92 411.567 142.92 L 411.567 142.92 L 411.567 142.92 Q 420.403 142.92 427.313 146.12 L 427.313 146.12 L 427.313 146.12 Q 434.224 149.321 438.047 155.155 L 438.047 155.155 L 438.047 155.155 Q 441.87 160.989 441.87 168.408 L 441.87 168.408 L 424.878 168.408 L 424.878 168.408 Q 424.878 162.744 421.31 159.601 L 421.31 159.601 L 421.31 159.601 Q 417.741 156.457 411.284 156.457 L 411.284 156.457 L 411.284 156.457 Q 405.054 156.457 401.599 159.091 L 401.599 159.091 L 401.599 159.091 Q 398.144 161.725 398.144 166.03 L 398.144 166.03 L 398.144 166.03 Q 398.144 170.051 402.193 172.77 L 402.193 172.77 L 402.193 172.77 Q 406.243 175.489 414.116 177.867 L 414.116 177.867 L 414.116 177.867 Q 428.616 182.229 435.243 188.686 L 435.243 188.686 L 435.243 188.686 Q 441.87 195.143 441.87 204.772 L 441.87 204.772 L 441.87 204.772 Q 441.87 215.477 433.771 221.566 L 433.771 221.566 L 433.771 221.566 Q 425.671 227.655 411.964 227.655 L 411.964 227.655 L 411.964 227.655 Q 402.448 227.655 394.632 224.171 L 394.632 224.171 L 394.632 224.171 Q 386.815 220.688 382.709 214.627 L 382.709 214.627 L 382.709 214.627 Q 378.603 208.567 378.603 200.58 L 378.603 200.58 L 395.651 200.58 L 395.651 200.58 Q 395.651 214.231 411.964 214.231 L 411.964 214.231 L 411.964 214.231 Q 418.024 214.231 421.423 211.767 L 421.423 211.767 L 421.423 211.767 Q 424.821 209.303 424.821 204.885 Z  M 505.647 226.522 L 499.927 209.53 L 470.134 209.53 L 464.47 226.522 L 446.401 226.522 L 477.101 144.053 L 492.847 144.053 L 523.716 226.522 L 505.647 226.522 Z  M 484.974 164.897 L 474.722 195.766 L 495.339 195.766 L 484.974 164.897 Z  M 586.7 144.053 L 586.7 157.817 L 561.438 157.817 L 561.438 226.522 L 544.446 226.522 L 544.446 157.817 L 519.524 157.817 L 519.524 144.053 L 586.7 144.053 Z  M 641.755 144.053 L 658.804 144.053 L 658.804 198.371 L 658.804 198.371 Q 658.804 211.908 650.336 219.782 L 650.336 219.782 L 650.336 219.782 Q 641.868 227.655 627.198 227.655 L 627.198 227.655 L 627.198 227.655 Q 612.755 227.655 604.259 220.008 L 604.259 220.008 L 604.259 220.008 Q 595.763 212.362 595.593 198.994 L 595.593 198.994 L 595.593 144.053 L 612.585 144.053 L 612.585 198.485 L 612.585 198.485 Q 612.585 206.584 616.465 210.294 L 616.465 210.294 L 616.465 210.294 Q 620.345 214.004 627.198 214.004 L 627.198 214.004 L 627.198 214.004 Q 641.528 214.004 641.755 198.938 L 641.755 198.938 L 641.755 144.053 Z  M 718.729 226.522 L 703.267 196.332 L 689.729 196.332 L 689.729 226.522 L 672.737 226.522 L 672.737 144.053 L 703.38 144.053 L 703.38 144.053 Q 717.993 144.053 725.923 150.567 L 725.923 150.567 L 725.923 150.567 Q 733.853 157.08 733.853 168.975 L 733.853 168.975 L 733.853 168.975 Q 733.853 177.414 730.199 183.05 L 730.199 183.05 L 730.199 183.05 Q 726.546 188.686 719.126 192.028 L 719.126 192.028 L 736.968 225.729 L 736.968 226.522 L 718.729 226.522 Z  M 689.729 157.817 L 689.729 182.569 L 703.437 182.569 L 703.437 182.569 Q 709.837 182.569 713.349 179.312 L 713.349 179.312 L 713.349 179.312 Q 716.86 176.055 716.86 170.334 L 716.86 170.334 L 716.86 170.334 Q 716.86 164.5 713.547 161.158 L 713.547 161.158 L 713.547 161.158 Q 710.233 157.817 703.38 157.817 L 703.38 157.817 L 689.729 157.817 Z  M 813.829 144.053 L 813.829 226.522 L 796.837 226.522 L 763.759 172.26 L 763.759 226.522 L 746.767 226.522 L 746.767 144.053 L 763.759 144.053 L 796.894 198.428 L 796.894 144.053 L 813.829 144.053 Z  M 501.314 103.914 L 501.314 103.914 L 501.314 103.914 Q 501.314 99.1 497.916 96.522 L 497.916 96.522 L 497.916 96.522 Q 494.518 93.945 485.682 91.085 L 485.682 91.085 L 485.682 91.085 Q 476.846 88.225 471.691 85.449 L 471.691 85.449 L 471.691 85.449 Q 457.645 77.859 457.645 65.002 L 457.645 65.002 L 457.645 65.002 Q 457.645 58.318 461.411 53.079 L 461.411 53.079 L 461.411 53.079 Q 465.178 47.84 472.229 44.895 L 472.229 44.895 L 472.229 44.895 Q 479.281 41.949 488.061 41.949 L 488.061 41.949 L 488.061 41.949 Q 496.896 41.949 503.807 45.149 L 503.807 45.149 L 503.807 45.149 Q 510.717 48.35 514.54 54.184 L 514.54 54.184 L 514.54 54.184 Q 518.363 60.018 518.363 67.438 L 518.363 67.438 L 501.371 67.438 L 501.371 67.438 Q 501.371 61.773 497.803 58.63 L 497.803 58.63 L 497.803 58.63 Q 494.234 55.486 487.777 55.486 L 487.777 55.486 L 487.777 55.486 Q 481.547 55.486 478.092 58.12 L 478.092 58.12 L 478.092 58.12 Q 474.637 60.754 474.637 65.059 L 474.637 65.059 L 474.637 65.059 Q 474.637 69.08 478.687 71.799 L 478.687 71.799 L 478.687 71.799 Q 482.736 74.518 490.609 76.896 L 490.609 76.896 L 490.609 76.896 Q 505.109 81.258 511.736 87.715 L 511.736 87.715 L 511.736 87.715 Q 518.363 94.172 518.363 103.801 L 518.363 103.801 L 518.363 103.801 Q 518.363 114.506 510.264 120.595 L 510.264 120.595 L 510.264 120.595 Q 502.164 126.684 488.457 126.684 L 488.457 126.684 L 488.457 126.684 Q 478.941 126.684 471.125 123.2 L 471.125 123.2 L 471.125 123.2 Q 463.309 119.717 459.202 113.656 L 459.202 113.656 L 459.202 113.656 Q 455.096 107.596 455.096 99.609 L 455.096 99.609 L 472.145 99.609 L 472.145 99.609 Q 472.145 113.26 488.457 113.26 L 488.457 113.26 L 488.457 113.26 Q 494.518 113.26 497.916 110.796 L 497.916 110.796 L 497.916 110.796 Q 501.314 108.332 501.314 103.914 Z  M 579.479 76.5 L 579.479 89.811 L 546.854 89.811 L 546.854 111.9 L 585.143 111.9 L 585.143 125.551 L 529.861 125.551 L 529.861 43.082 L 585.029 43.082 L 585.029 56.846 L 546.854 56.846 L 546.854 76.5 L 579.479 76.5 Z  M 660.361 82.221 L 660.361 115.129 L 660.361 115.129 Q 655.773 120.623 647.391 123.653 L 647.391 123.653 L 647.391 123.653 Q 639.008 126.684 628.813 126.684 L 628.813 126.684 L 628.813 126.684 Q 618.107 126.684 610.036 122.011 L 610.036 122.011 L 610.036 122.011 Q 601.965 117.338 597.575 108.445 L 597.575 108.445 L 597.575 108.445 Q 593.186 99.553 593.072 87.545 L 593.072 87.545 L 593.072 81.938 L 593.072 81.938 Q 593.072 69.59 597.235 60.556 L 597.235 60.556 L 597.235 60.556 Q 601.398 51.521 609.243 46.735 L 609.243 46.735 L 609.243 46.735 Q 617.088 41.949 627.623 41.949 L 627.623 41.949 L 627.623 41.949 Q 642.293 41.949 650.563 48.944 L 650.563 48.944 L 650.563 48.944 Q 658.832 55.939 660.361 69.307 L 660.361 69.307 L 643.822 69.307 L 643.822 69.307 Q 642.689 62.227 638.81 58.941 L 638.81 58.941 L 638.81 58.941 Q 634.93 55.656 628.133 55.656 L 628.133 55.656 L 628.133 55.656 Q 619.467 55.656 614.936 62.17 L 614.936 62.17 L 614.936 62.17 Q 610.404 68.684 610.348 81.541 L 610.348 81.541 L 610.348 86.809 L 610.348 86.809 Q 610.348 99.779 615.275 106.406 L 615.275 106.406 L 615.275 106.406 Q 620.203 113.033 629.719 113.033 L 629.719 113.033 L 629.719 113.033 Q 639.291 113.033 643.369 108.955 L 643.369 108.955 L 643.369 94.738 L 627.906 94.738 L 627.906 82.221 L 660.361 82.221 Z  M 726.404 125.551 L 720.684 108.559 L 690.891 108.559 L 685.227 125.551 L 667.158 125.551 L 697.857 43.082 L 713.604 43.082 L 744.473 125.551 L 726.404 125.551 Z  M 705.73 63.926 L 695.479 94.795 L 716.096 94.795 L 705.73 63.926 Z " fill="rgb(0,0,0)"/><path d=" M 421.821 200.885 L 421.821 200.885 L 421.821 200.885 Q 421.821 196.071 418.423 193.493 L 418.423 193.493 L 418.423 193.493 Q 415.024 190.916 406.188 188.056 L 406.188 188.056 L 406.188 188.056 Q 397.353 185.196 392.198 182.42 L 392.198 182.42 L 392.198 182.42 Q 378.151 174.83 378.151 161.973 L 378.151 161.973 L 378.151 161.973 Q 378.151 155.289 381.918 150.05 L 381.918 150.05 L 381.918 150.05 Q 385.685 144.811 392.736 141.866 L 392.736 141.866 L 392.736 141.866 Q 399.788 138.92 408.567 138.92 L 408.567 138.92 L 408.567 138.92 Q 417.403 138.92 424.313 142.12 L 424.313 142.12 L 424.313 142.12 Q 431.224 145.321 435.047 151.155 L 435.047 151.155 L 435.047 151.155 Q 438.87 156.989 438.87 164.408 L 438.87 164.408 L 421.878 164.408 L 421.878 164.408 Q 421.878 158.744 418.31 155.601 L 418.31 155.601 L 418.31 155.601 Q 414.741 152.457 408.284 152.457 L 408.284 152.457 L 408.284 152.457 Q 402.054 152.457 398.599 155.091 L 398.599 155.091 L 398.599 155.091 Q 395.144 157.725 395.144 162.03 L 395.144 162.03 L 395.144 162.03 Q 395.144 166.051 399.193 168.77 L 399.193 168.77 L 399.193 168.77 Q 403.243 171.489 411.116 173.867 L 411.116 173.867 L 411.116 173.867 Q 425.616 178.229 432.243 184.686 L 432.243 184.686 L 432.243 184.686 Q 438.87 191.143 438.87 200.772 L 438.87 200.772 L 438.87 200.772 Q 438.87 211.477 430.771 217.566 L 430.771 217.566 L 430.771 217.566 Q 422.671 223.655 408.964 223.655 L 408.964 223.655 L 408.964 223.655 Q 399.448 223.655 391.632 220.171 L 391.632 220.171 L 391.632 220.171 Q 383.815 216.688 379.709 210.627 L 379.709 210.627 L 379.709 210.627 Q 375.603 204.567 375.603 196.58 L 375.603 196.58 L 392.651 196.58 L 392.651 196.58 Q 392.651 210.231 408.964 210.231 L 408.964 210.231 L 408.964 210.231 Q 415.024 210.231 418.423 207.767 L 418.423 207.767 L 418.423 207.767 Q 421.821 205.303 421.821 200.885 Z  M 502.647 222.522 L 496.927 205.53 L 467.134 205.53 L 461.47 222.522 L 443.401 222.522 L 474.101 140.053 L 489.847 140.053 L 520.716 222.522 L 502.647 222.522 Z  M 481.974 160.897 L 471.722 191.766 L 492.339 191.766 L 481.974 160.897 Z  M 583.7 140.053 L 583.7 153.817 L 558.438 153.817 L 558.438 222.522 L 541.446 222.522 L 541.446 153.817 L 516.524 153.817 L 516.524 140.053 L 583.7 140.053 Z  M 638.755 140.053 L 655.804 140.053 L 655.804 194.371 L 655.804 194.371 Q 655.804 207.908 647.336 215.782 L 647.336 215.782 L 647.336 215.782 Q 638.868 223.655 624.198 223.655 L 624.198 223.655 L 624.198 223.655 Q 609.755 223.655 601.259 216.008 L 601.259 216.008 L 601.259 216.008 Q 592.763 208.362 592.593 194.994 L 592.593 194.994 L 592.593 140.053 L 609.585 140.053 L 609.585 194.485 L 609.585 194.485 Q 609.585 202.584 613.465 206.294 L 613.465 206.294 L 613.465 206.294 Q 617.345 210.004 624.198 210.004 L 624.198 210.004 L 624.198 210.004 Q 638.528 210.004 638.755 194.938 L 638.755 194.938 L 638.755 140.053 Z  M 715.729 222.522 L 700.267 192.332 L 686.729 192.332 L 686.729 222.522 L 669.737 222.522 L 669.737 140.053 L 700.38 140.053 L 700.38 140.053 Q 714.993 140.053 722.923 146.567 L 722.923 146.567 L 722.923 146.567 Q 730.853 153.08 730.853 164.975 L 730.853 164.975 L 730.853 164.975 Q 730.853 173.414 727.199 179.05 L 727.199 179.05 L 727.199 179.05 Q 723.546 184.686 716.126 188.028 L 716.126 188.028 L 733.968 221.729 L 733.968 222.522 L 715.729 222.522 Z  M 686.729 153.817 L 686.729 178.569 L 700.437 178.569 L 700.437 178.569 Q 706.837 178.569 710.349 175.312 L 710.349 175.312 L 710.349 175.312 Q 713.86 172.055 713.86 166.334 L 713.86 166.334 L 713.86 166.334 Q 713.86 160.5 710.547 157.158 L 710.547 157.158 L 710.547 157.158 Q 707.233 153.817 700.38 153.817 L 700.38 153.817 L 686.729 153.817 Z  M 810.829 140.053 L 810.829 222.522 L 793.837 222.522 L 760.759 168.26 L 760.759 222.522 L 743.767 222.522 L 743.767 140.053 L 760.759 140.053 L 793.894 194.428 L 793.894 140.053 L 810.829 140.053 Z  M 498.314 99.914 L 498.314 99.914 L 498.314 99.914 Q 498.314 95.1 494.916 92.522 L 494.916 92.522 L 494.916 92.522 Q 491.518 89.945 482.682 87.085 L 482.682 87.085 L 482.682 87.085 Q 473.846 84.225 468.691 81.449 L 468.691 81.449 L 468.691 81.449 Q 454.645 73.859 454.645 61.002 L 454.645 61.002 L 454.645 61.002 Q 454.645 54.318 458.411 49.079 L 458.411 49.079 L 458.411 49.079 Q 462.178 43.84 469.229 40.895 L 469.229 40.895 L 469.229 40.895 Q 476.281 37.949 485.061 37.949 L 485.061 37.949 L 485.061 37.949 Q 493.896 37.949 500.807 41.149 L 500.807 41.149 L 500.807 41.149 Q 507.717 44.35 511.54 50.184 L 511.54 50.184 L 511.54 50.184 Q 515.363 56.018 515.363 63.438 L 515.363 63.438 L 498.371 63.438 L 498.371 63.438 Q 498.371 57.773 494.803 54.63 L 494.803 54.63 L 494.803 54.63 Q 491.234 51.486 484.777 51.486 L 484.777 51.486 L 484.777 51.486 Q 478.547 51.486 475.092 54.12 L 475.092 54.12 L 475.092 54.12 Q 471.637 56.754 471.637 61.059 L 471.637 61.059 L 471.637 61.059 Q 471.637 65.08 475.687 67.799 L 475.687 67.799 L 475.687 67.799 Q 479.736 70.518 487.609 72.896 L 487.609 72.896 L 487.609 72.896 Q 502.109 77.258 508.736 83.715 L 508.736 83.715 L 508.736 83.715 Q 515.363 90.172 515.363 99.801 L 515.363 99.801 L 515.363 99.801 Q 515.363 110.506 507.264 116.595 L 507.264 116.595 L 507.264 116.595 Q 499.164 122.684 485.457 122.684 L 485.457 122.684 L 485.457 122.684 Q 475.941 122.684 468.125 119.2 L 468.125 119.2 L 468.125 119.2 Q 460.309 115.717 456.202 109.656 L 456.202 109.656 L 456.202 109.656 Q 452.096 103.596 452.096 95.609 L 452.096 95.609 L 469.145 95.609 L 469.145 95.609 Q 469.145 109.26 485.457 109.26 L 485.457 109.26 L 485.457 109.26 Q 491.518 109.26 494.916 106.796 L 494.916 106.796 L 494.916 106.796 Q 498.314 104.332 498.314 99.914 Z  M 576.479 72.5 L 576.479 85.811 L 543.854 85.811 L 543.854 107.9 L 582.143 107.9 L 582.143 121.551 L 526.861 121.551 L 526.861 39.082 L 582.029 39.082 L 582.029 52.846 L 543.854 52.846 L 543.854 72.5 L 576.479 72.5 Z  M 657.361 78.221 L 657.361 111.129 L 657.361 111.129 Q 652.773 116.623 644.391 119.653 L 644.391 119.653 L 644.391 119.653 Q 636.008 122.684 625.813 122.684 L 625.813 122.684 L 625.813 122.684 Q 615.107 122.684 607.036 118.011 L 607.036 118.011 L 607.036 118.011 Q 598.965 113.338 594.575 104.445 L 594.575 104.445 L 594.575 104.445 Q 590.186 95.553 590.072 83.545 L 590.072 83.545 L 590.072 77.938 L 590.072 77.938 Q 590.072 65.59 594.235 56.556 L 594.235 56.556 L 594.235 56.556 Q 598.398 47.521 606.243 42.735 L 606.243 42.735 L 606.243 42.735 Q 614.088 37.949 624.623 37.949 L 624.623 37.949 L 624.623 37.949 Q 639.293 37.949 647.563 44.944 L 647.563 44.944 L 647.563 44.944 Q 655.832 51.939 657.361 65.307 L 657.361 65.307 L 640.822 65.307 L 640.822 65.307 Q 639.689 58.227 635.81 54.941 L 635.81 54.941 L 635.81 54.941 Q 631.93 51.656 625.133 51.656 L 625.133 51.656 L 625.133 51.656 Q 616.467 51.656 611.936 58.17 L 611.936 58.17 L 611.936 58.17 Q 607.404 64.684 607.348 77.541 L 607.348 77.541 L 607.348 82.809 L 607.348 82.809 Q 607.348 95.779 612.275 102.406 L 612.275 102.406 L 612.275 102.406 Q 617.203 109.033 626.719 109.033 L 626.719 109.033 L 626.719 109.033 Q 636.291 109.033 640.369 104.955 L 640.369 104.955 L 640.369 90.738 L 624.906 90.738 L 624.906 78.221 L 657.361 78.221 Z  M 723.404 121.551 L 717.684 104.559 L 687.891 104.559 L 682.227 121.551 L 664.158 121.551 L 694.857 39.082 L 710.604 39.082 L 741.473 121.551 L 723.404 121.551 Z  M 702.73 59.926 L 692.479 90.795 L 713.096 90.795 L 702.73 59.926 Z " fill="rgb(249,249,249)"/><path d=" M 323.75 45.5 Q 323.247 62.61 300.5 58 Q 240.5 58.75 244 58.75 Q 247.5 58.75 232.5 36.25 Q 262.727 31.25 284.75 31.25 C 307.5 31.25 324.25 28.5 323.75 45.5 Z " fill="rgb(128,128,128)"/><path d=" M 53.856 205.546 Q 54.617 188.445 77.292 193.396 Q 137.296 193.548 133.796 193.495 Q 130.297 193.442 144.957 216.165 Q 114.658 220.711 92.638 220.38 C 69.891 220.038 53.101 222.536 53.856 205.546 Z " fill="rgb(128,128,128)"/><path d=" M 84.182 124.182 C 84.182 65.955 131.455 18.682 189.682 18.682 C 247.909 18.682 295.182 65.955 295.182 124.182 C 295.182 182.409 247.909 229.682 189.682 229.682 C 131.455 229.682 84.182 182.409 84.182 124.182 Z " fill="rgb(108,133,201)"/><path d=" M 95.063 77.438 Q 87 93.188 84.75 113.25 C 82.781 112.594 54.397 133.174 53.813 141.938 Q 53.438 147.563 85.125 141.188 L 291 79.5 Q 329.125 70.5 343.625 89.25 Q 376.199 131.371 284 173 Q 293.344 149.625 294.469 138.094 C 304.25 133 326.904 116.865 324.25 107.625 Q 321.656 98.594 293.766 106.594 L 92.333 167 Q 31.333 176.333 28.333 152.333 C 25.333 128.333 31.667 124 48 107 Q 64.333 90 95.063 77.438 Z " fill="rgb(139,139,139)"/></g></svg>