<?xml version="1.0" encoding="UTF-8" standalone="no"?><!-- Generator: Gravit.io --><svg xmlns="http://www.w3.org/2000/svg" xmlns:xlink="http://www.w3.org/1999/xlink" style="isolation:isolate" viewBox="0 0 992 250" width="992pt" height="250pt"><defs><clipPath id="_clipPath_TlHmYnCcRgaE6qxApKKY9LQTLmJFimGq"><rect width="992" height="250"/></clipPath></defs><g clip-path="url(#_clipPath_TlHmYnCcRgaE6qxApKKY9LQTLmJFimGq)"><path d=" M 716.198 125.453 L 784 225.327 L 728.858 225.327 L 685.814 155.556 L 642.77 225.327 L 589.878 225.327 L 656.555 122.077 L 593.817 24.453 L 646.99 24.453 L 687.221 91.974 L 726.045 24.453 L 779.217 24.453 L 716.198 125.453 Z " fill="rgb(157,38,38)"/><path d=" M 409.824 68.904 L 409.824 68.904 L 409.824 68.904 Q 409.824 90.004 397.023 102.524 L 397.023 102.524 L 397.023 102.524 Q 384.222 115.043 365.935 119.545 L 365.935 119.545 L 365.935 120.389 L 365.935 120.389 Q 390.13 123.202 402.931 135.018 L 402.931 135.018 L 402.931 135.018 Q 415.732 146.834 415.732 167.372 L 415.732 167.372 L 415.732 167.372 Q 415.732 184.252 407.01 198.037 L 407.01 198.037 L 407.01 198.037 Q 398.289 211.823 380.143 219.981 L 380.143 219.981 L 380.143 219.981 Q 361.997 228.14 333.3 228.14 L 333.3 228.14 L 333.3 228.14 Q 315.576 228.14 301.51 225.327 L 301.51 225.327 L 301.51 225.327 Q 287.443 222.513 274.501 217.168 L 274.501 217.168 L 274.501 176.937 L 274.501 176.937 Q 287.443 183.689 301.51 186.924 L 301.51 186.924 L 301.51 186.924 Q 315.576 190.16 327.392 190.16 L 327.392 190.16 L 327.392 190.16 Q 348.774 190.16 357.073 183.267 L 357.073 183.267 L 357.073 183.267 Q 365.373 176.374 365.373 164.277 L 365.373 164.277 L 365.373 164.277 Q 365.373 156.962 361.434 151.476 L 361.434 151.476 L 361.434 151.476 Q 357.495 145.99 347.508 143.177 L 347.508 143.177 L 347.508 143.177 Q 337.521 140.363 319.515 140.363 L 319.515 140.363 L 305.73 140.363 L 305.73 104.071 L 319.796 104.071 L 319.796 104.071 Q 336.958 104.071 346.383 100.976 L 346.383 100.976 L 346.383 100.976 Q 355.807 97.882 359.465 92.396 L 359.465 92.396 L 359.465 92.396 Q 363.122 86.91 363.122 79.876 L 363.122 79.876 L 363.122 79.876 Q 363.122 60.183 337.239 60.183 L 337.239 60.183 L 337.239 60.183 Q 323.172 60.183 312.482 65.247 L 312.482 65.247 L 312.482 65.247 Q 301.791 70.311 295.883 73.968 L 295.883 73.968 L 274.783 41.615 L 274.783 41.615 Q 286.88 33.175 302.916 27.407 L 302.916 27.407 L 302.916 27.407 Q 318.952 21.64 342.866 21.64 L 342.866 21.64 L 342.866 21.64 Q 373.813 21.64 391.818 34.019 L 391.818 34.019 L 391.818 34.019 Q 409.824 46.397 409.824 68.904 Z  M 579.75 185.377 L 579.75 225.327 L 436.832 225.327 L 436.832 192.973 L 486.628 142.614 L 486.628 142.614 Q 501.82 126.859 510.823 116.731 L 510.823 116.731 L 510.823 116.731 Q 519.826 106.603 523.624 98.866 L 523.624 98.866 L 523.624 98.866 Q 527.422 91.13 527.422 82.408 L 527.422 82.408 L 527.422 82.408 Q 527.422 71.999 521.233 66.935 L 521.233 66.935 L 521.233 66.935 Q 515.043 61.871 505.196 61.871 L 505.196 61.871 L 505.196 61.871 Q 494.787 61.871 484.378 67.216 L 484.378 67.216 L 484.378 67.216 Q 473.968 72.562 461.871 82.69 L 461.871 82.69 L 435.707 52.024 L 435.707 52.024 Q 444.428 44.147 454.275 37.254 L 454.275 37.254 L 454.275 37.254 Q 464.121 30.361 477.485 26.001 L 477.485 26.001 L 477.485 26.001 Q 490.848 21.64 509.698 21.64 L 509.698 21.64 L 509.698 21.64 Q 529.954 21.64 544.443 28.814 L 544.443 28.814 L 544.443 28.814 Q 558.932 35.988 566.95 48.226 L 566.95 48.226 L 566.95 48.226 Q 574.968 60.464 574.968 76.219 L 574.968 76.219 L 574.968 76.219 Q 574.968 93.38 568.497 107.025 L 568.497 107.025 L 568.497 107.025 Q 562.026 120.67 549.366 134.315 L 549.366 134.315 L 549.366 134.315 Q 536.706 147.96 518.419 164.558 L 518.419 164.558 L 497.6 183.689 L 497.6 185.377 L 579.75 185.377 Z " fill="rgb(79,135,181)"/><path d=" M 210.328 186.007 L 210.328 186.007 L 220.269 186.007 L 220.269 186.007 Q 218.538 189.876 217.658 193.557 L 217.658 193.557 L 217.658 193.557 Q 216.777 197.237 216.777 200.509 L 216.777 200.509 L 216.777 200.509 Q 216.777 204.85 217.972 206.926 L 217.972 206.926 L 217.972 206.926 Q 219.168 209.003 221.684 209.003 L 221.684 209.003 L 221.684 209.003 Q 223.572 209.003 224.626 207.603 L 224.626 207.603 L 224.626 207.603 Q 225.679 206.203 226.434 202.522 L 226.434 202.522 L 227.473 197.363 L 227.473 197.363 Q 229.045 189.53 232.254 186.227 L 232.254 186.227 L 232.254 186.227 Q 235.463 182.924 241.377 182.924 L 241.377 182.924 L 241.377 182.924 Q 249.147 182.924 252.938 187.532 L 252.938 187.532 L 252.938 187.532 Q 256.729 192.141 256.729 201.61 L 256.729 201.61 L 256.729 201.61 Q 256.729 206.077 255.879 210.575 L 255.879 210.575 L 255.879 210.575 Q 255.03 215.074 253.363 219.572 L 253.363 219.572 L 243.139 219.572 L 243.139 219.572 Q 245.529 215.074 246.741 210.874 L 246.741 210.874 L 246.741 210.874 Q 247.952 206.675 247.952 202.774 L 247.952 202.774 L 247.952 202.774 Q 247.952 198.81 246.63 196.702 L 246.63 196.702 L 246.63 196.702 Q 245.309 194.595 242.856 194.595 L 242.856 194.595 L 242.856 194.595 Q 240.653 194.595 239.458 196.026 L 239.458 196.026 L 239.458 196.026 Q 238.263 197.457 237.319 201.736 L 237.319 201.736 L 236.281 206.423 L 236.281 206.423 Q 234.771 213.47 231.468 216.726 L 231.468 216.726 L 231.468 216.726 Q 228.165 219.981 222.565 219.981 L 222.565 219.981 L 222.565 219.981 Q 215.55 219.981 211.775 215.451 L 211.775 215.451 L 211.775 215.451 Q 208 210.922 208 202.428 L 208 202.428 L 208 202.428 Q 208 198.558 208.582 194.469 L 208.582 194.469 L 208.582 194.469 Q 209.164 190.379 210.328 186.007 Z  M 255.816 172.291 L 208.849 172.291 L 208.849 139.606 L 218.004 139.606 L 218.004 160.18 L 226.749 160.18 L 226.749 140.833 L 235.903 140.833 L 235.903 160.18 L 246.662 160.18 L 246.662 138.914 L 255.816 138.914 L 255.816 172.291 Z  M 229.738 86.065 L 252.324 86.065 L 252.324 86.065 Q 254.526 90.594 255.627 95.47 L 255.627 95.47 L 255.627 95.47 Q 256.729 100.346 256.729 105.537 L 256.729 105.537 L 256.729 105.537 Q 256.729 117.271 250.17 124.129 L 250.17 124.129 L 250.17 124.129 Q 243.611 130.987 232.38 130.987 L 232.38 130.987 L 232.38 130.987 Q 221.024 130.987 214.512 124.003 L 214.512 124.003 L 214.512 124.003 Q 208 117.019 208 104.876 L 208 104.876 L 208 104.876 Q 208 100.189 208.881 95.895 L 208.881 95.895 L 208.881 95.895 Q 209.762 91.601 211.492 87.795 L 211.492 87.795 L 221.212 87.795 L 221.212 87.795 Q 218.979 91.727 217.878 95.612 L 217.878 95.612 L 217.878 95.612 Q 216.777 99.497 216.777 103.398 L 216.777 103.398 L 216.777 103.398 Q 216.777 110.633 220.819 114.55 L 220.819 114.55 L 220.819 114.55 Q 224.862 118.466 232.38 118.466 L 232.38 118.466 L 232.38 118.466 Q 239.836 118.466 243.894 114.691 L 243.894 114.691 L 243.894 114.691 Q 247.952 110.916 247.952 103.964 L 247.952 103.964 L 247.952 103.964 Q 247.952 102.077 247.716 100.457 L 247.716 100.457 L 247.716 100.457 Q 247.48 98.836 246.977 97.547 L 246.977 97.547 L 237.854 97.547 L 237.854 104.939 L 229.738 104.939 L 229.738 86.065 Z  M 255.816 43.942 L 247.26 46.899 L 247.26 65.837 L 255.816 68.826 L 255.816 81 L 208.849 63.603 L 208.849 49.164 L 255.816 31.768 L 255.816 43.942 Z  M 219.86 56.368 L 238.546 62.817 L 238.546 49.951 L 219.86 56.368 Z " fill="rgb(25,87,195)"/></g></svg>