<?xml version="1.0" encoding="UTF-8" standalone="no"?><!-- Generator: Gravit.io --><svg xmlns="http://www.w3.org/2000/svg" xmlns:xlink="http://www.w3.org/1999/xlink" style="isolation:isolate" viewBox="0 0 992 250" width="992pt" height="250pt"><defs><clipPath id="_clipPath_eYN3diZwhmtSYRITih6M04bn95daBEH2"><rect width="992" height="250"/></clipPath></defs><g clip-path="url(#_clipPath_eYN3diZwhmtSYRITih6M04bn95daBEH2)"><path d=" M 103.054 69.772 L 106.261 69.772 L 107.437 103.484 L 103.054 103.484 L 103.054 103.484 Q 99.953 90.805 87.82 83.085 L 87.82 83.085 L 87.82 83.085 Q 75.686 75.365 61.575 75.365 L 61.575 75.365 L 61.575 75.365 Q 50.671 75.365 44.31 79.43 L 44.31 79.43 L 44.31 79.43 Q 37.95 83.495 37.95 88.791 L 37.95 88.791 L 37.95 88.791 Q 37.95 92.147 40.195 94.758 L 40.195 94.758 L 40.195 94.758 Q 43.295 98.263 50.137 101.694 L 50.137 101.694 L 50.137 101.694 Q 55.161 104.155 73.335 110.42 L 73.335 110.42 L 73.335 110.42 Q 98.777 119.147 107.65 126.904 L 107.65 126.904 L 107.65 126.904 Q 116.416 134.661 116.416 144.655 L 116.416 144.655 L 116.416 144.655 Q 116.416 157.334 102.252 166.471 L 102.252 166.471 L 102.252 166.471 Q 88.087 175.608 66.279 175.608 L 66.279 175.608 L 66.279 175.608 Q 59.437 175.608 53.344 174.638 L 53.344 174.638 L 53.344 174.638 Q 47.25 173.669 38.057 170.984 L 38.057 170.984 L 38.057 170.984 Q 32.925 169.492 29.611 169.492 L 29.611 169.492 L 29.611 169.492 Q 26.832 169.492 23.732 170.984 L 23.732 170.984 L 23.732 170.984 Q 20.631 172.475 18.707 175.533 L 18.707 175.533 L 14.752 175.533 L 14.752 137.346 L 18.707 137.346 L 18.707 137.346 Q 23.411 153.456 36.827 161.921 L 36.827 161.921 L 36.827 161.921 Q 50.243 170.387 65.744 170.387 L 65.744 170.387 L 65.744 170.387 Q 77.718 170.387 84.827 165.837 L 84.827 165.837 L 84.827 165.837 Q 91.936 161.287 91.936 155.246 L 91.936 155.246 L 91.936 155.246 Q 91.936 151.666 89.21 148.31 L 89.21 148.31 L 89.21 148.31 Q 86.484 144.953 80.925 141.933 L 80.925 141.933 L 80.925 141.933 Q 75.366 138.912 61.254 134.064 L 61.254 134.064 L 61.254 134.064 Q 41.477 127.277 32.818 122.503 L 32.818 122.503 L 32.818 122.503 Q 24.159 117.73 19.509 111.838 L 19.509 111.838 L 19.509 111.838 Q 14.859 105.945 14.859 98.86 L 14.859 98.86 L 14.859 98.86 Q 14.859 86.777 27.58 78.274 L 27.58 78.274 L 27.58 78.274 Q 40.301 69.772 59.651 69.772 L 59.651 69.772 L 59.651 69.772 Q 66.707 69.772 73.335 70.965 L 73.335 70.965 L 73.335 70.965 Q 78.359 71.86 85.575 74.284 L 85.575 74.284 L 85.575 74.284 Q 92.791 76.708 95.677 76.708 L 95.677 76.708 L 95.677 76.708 Q 98.457 76.708 100.06 75.515 L 100.06 75.515 L 100.06 75.515 Q 101.664 74.321 103.054 69.772 L 103.054 69.772 Z  M 199.801 77.901 L 184.834 77.901 L 184.834 119.072 L 187.721 119.072 L 187.721 119.072 Q 201.511 119.072 207.712 113.031 L 207.712 113.031 L 207.712 113.031 Q 213.912 106.99 215.622 95.205 L 215.622 95.205 L 219.685 95.205 L 219.685 148.16 L 215.622 148.16 L 215.622 148.16 Q 214.34 139.509 210.224 133.989 L 210.224 133.989 L 210.224 133.989 Q 206.108 128.47 200.656 126.568 L 200.656 126.568 L 200.656 126.568 Q 195.204 124.666 184.834 124.666 L 184.834 124.666 L 184.834 153.158 L 184.834 153.158 Q 184.834 161.511 185.85 163.376 L 185.85 163.376 L 185.85 163.376 Q 186.866 165.24 189.645 166.434 L 189.645 166.434 L 189.645 166.434 Q 192.424 167.627 198.625 167.627 L 198.625 167.627 L 207.284 167.627 L 207.284 167.627 Q 227.596 167.627 239.836 161.064 L 239.836 161.064 L 239.836 161.064 Q 252.076 154.5 257.422 141.075 L 257.422 141.075 L 261.377 141.075 L 254.856 173.221 L 129.565 173.221 L 129.565 170.461 L 134.376 170.461 L 134.376 170.461 Q 140.683 170.461 144.532 168.895 L 144.532 168.895 L 144.532 168.895 Q 147.311 167.851 148.808 165.315 L 148.808 165.315 L 148.808 165.315 Q 149.984 163.525 149.984 155.917 L 149.984 155.917 L 149.984 89.387 L 149.984 89.387 Q 149.984 82.526 149.449 80.959 L 149.449 80.959 L 149.449 80.959 Q 148.38 78.349 145.494 76.932 L 145.494 76.932 L 145.494 76.932 Q 141.432 74.843 134.376 74.843 L 134.376 74.843 L 129.565 74.843 L 129.565 72.084 L 250.9 72.084 L 250.9 101.992 L 246.838 101.992 L 246.838 101.992 Q 243.738 91.028 238.126 86.255 L 238.126 86.255 L 238.126 86.255 Q 232.513 81.481 222.25 79.244 L 222.25 79.244 L 222.25 79.244 Q 216.264 77.901 199.801 77.901 L 199.801 77.901 Z  M 418.311 69.772 L 422.266 69.772 L 422.266 105.423 L 418.311 105.423 L 418.311 105.423 Q 411.148 90.805 396.823 83.197 L 396.823 83.197 L 396.823 83.197 Q 382.498 75.589 365.5 75.589 L 365.5 75.589 L 365.5 75.589 Q 349.251 75.589 338.454 81.966 L 338.454 81.966 L 338.454 81.966 Q 327.657 88.343 323.167 99.755 L 323.167 99.755 L 323.167 99.755 Q 318.677 111.166 318.677 123.174 L 318.677 123.174 L 318.677 123.174 Q 318.677 137.719 323.594 148.683 L 323.594 148.683 L 323.594 148.683 Q 328.512 159.647 339.47 164.793 L 339.47 164.793 L 339.47 164.793 Q 350.427 169.939 365.5 169.939 L 365.5 169.939 L 365.5 169.939 Q 370.739 169.939 376.244 169.156 L 376.244 169.156 L 376.244 169.156 Q 381.75 168.373 387.522 166.881 L 387.522 166.881 L 387.522 145.848 L 387.522 145.848 Q 387.522 139.882 386.347 138.129 L 386.347 138.129 L 386.347 138.129 Q 385.171 136.376 381.482 134.959 L 381.482 134.959 L 381.482 134.959 Q 377.794 133.542 372.556 133.542 L 372.556 133.542 L 368.814 133.542 L 368.814 130.782 L 439.264 130.782 L 439.264 133.542 L 439.264 133.542 Q 431.246 133.915 428.092 135.071 L 428.092 135.071 L 428.092 135.071 Q 424.939 136.227 423.228 138.912 L 423.228 138.912 L 423.228 138.912 Q 422.266 140.329 422.266 145.848 L 422.266 145.848 L 422.266 166.881 L 422.266 166.881 Q 408.369 171.207 393.349 173.408 L 393.349 173.408 L 393.349 173.408 Q 378.329 175.608 362.186 175.608 L 362.186 175.608 L 362.186 175.608 Q 341.554 175.608 327.924 171.692 L 327.924 171.692 L 327.924 171.692 Q 314.294 167.776 303.871 161.399 L 303.871 161.399 L 303.871 161.399 Q 293.448 155.022 287.568 147.042 L 287.568 147.042 L 287.568 147.042 Q 280.085 136.749 280.085 123.995 L 280.085 123.995 L 280.085 123.995 Q 280.085 101.172 303.069 85.434 L 303.069 85.434 L 303.069 85.434 Q 326.053 69.697 360.904 69.697 L 360.904 69.697 L 360.904 69.697 Q 371.701 69.697 380.36 70.89 L 380.36 70.89 L 380.36 70.89 Q 385.064 71.487 395.594 74.284 L 395.594 74.284 L 395.594 74.284 Q 406.124 77.081 408.048 77.081 L 408.048 77.081 L 408.048 77.081 Q 411.041 77.081 413.607 75.552 L 413.607 75.552 L 413.607 75.552 Q 416.173 74.023 418.311 69.772 L 418.311 69.772 Z  M 540.287 157.036 L 532.59 144.431 L 481.383 144.431 L 475.29 154.276 L 475.29 154.276 Q 472.297 159.199 472.297 162.406 L 472.297 162.406 L 472.297 162.406 Q 472.297 166.658 477.214 168.671 L 477.214 168.671 L 477.214 168.671 Q 480.101 169.865 491.432 170.461 L 491.432 170.461 L 491.432 173.221 L 443.219 173.221 L 443.219 170.461 L 443.219 170.461 Q 451.023 169.641 456.047 165.949 L 456.047 165.949 L 456.047 165.949 Q 461.072 162.257 468.448 150.696 L 468.448 150.696 L 520.296 69.995 L 522.327 69.995 L 574.603 152.934 L 574.603 152.934 Q 582.086 164.718 586.897 167.776 L 586.897 167.776 L 586.897 167.776 Q 590.531 170.089 597.159 170.461 L 597.159 170.461 L 597.159 173.221 L 527.031 173.221 L 527.031 170.461 L 529.917 170.461 L 529.917 170.461 Q 538.363 170.461 541.784 168.821 L 541.784 168.821 L 541.784 168.821 Q 544.135 167.627 544.135 165.39 L 544.135 165.39 L 544.135 165.39 Q 544.135 164.047 543.494 162.63 L 543.494 162.63 L 543.494 162.63 Q 543.28 161.959 540.287 157.036 L 540.287 157.036 Z  M 485.125 138.912 L 528.955 138.912 L 507.361 104.081 L 485.125 138.912 Z " fill="rgb(234,234,234)"/><path d=" M 782.987 90.568 Q 632.648 111.769 641.129 146.848 Q 650.709 186.475 789.155 160.726 Q 710.516 161.882 701.264 139.524 Q 692.013 117.166 782.987 90.568 L 782.987 90.568 Z  M 626.866 72.064 L 976.5 72.064 L 976.5 180 L 626.866 180 L 626.866 72.064 L 626.866 72.064 Z  M 806.501 86.327 Q 947.203 68.981 959.539 95.964 Q 974.315 128.287 808.814 157.256 L 808.814 107.143 L 822.692 147.619 Q 904.029 131.814 901.331 107.914 Q 898.632 84.014 806.501 86.327 Z " fill-rule="evenodd" fill="rgb(234,234,234)"/></g></svg>