<?xml version="1.0" encoding="UTF-8" standalone="no"?><!-- Generator: Gravit.io --><svg xmlns="http://www.w3.org/2000/svg" xmlns:xlink="http://www.w3.org/1999/xlink" style="isolation:isolate" viewBox="0 0 992 250" width="992pt" height="250pt"><defs><clipPath id="_clipPath_HoAmevCbWclmKXaBYPplEOwF8OedsSKX"><rect width="992" height="250"/></clipPath></defs><g clip-path="url(#_clipPath_HoAmevCbWclmKXaBYPplEOwF8OedsSKX)"><path d=" M 225.466 122.681 L 225.466 122.681 L 225.466 145.587 L 225.466 145.587 Q 216.55 141.6 208.069 139.571 L 208.069 139.571 L 208.069 139.571 Q 199.588 137.541 192.049 137.541 L 192.049 137.541 L 192.049 137.541 Q 182.045 137.541 177.261 140.296 L 177.261 140.296 L 177.261 140.296 Q 172.477 143.05 172.477 148.849 L 172.477 148.849 L 172.477 148.849 Q 172.477 153.199 175.702 155.627 L 175.702 155.627 L 175.702 155.627 Q 178.928 158.056 187.409 159.795 L 187.409 159.795 L 199.298 162.187 L 199.298 162.187 Q 217.347 165.812 224.959 173.206 L 224.959 173.206 L 224.959 173.206 Q 232.57 180.6 232.57 194.228 L 232.57 194.228 L 232.57 194.228 Q 232.57 212.133 221.951 220.868 L 221.951 220.868 L 221.951 220.868 Q 211.331 229.603 189.512 229.603 L 189.512 229.603 L 189.512 229.603 Q 179.218 229.603 168.852 227.645 L 168.852 227.645 L 168.852 227.645 Q 158.486 225.688 148.12 221.846 L 148.12 221.846 L 148.12 198.287 L 148.12 198.287 Q 158.486 203.796 168.163 206.587 L 168.163 206.587 L 168.163 206.587 Q 177.841 209.378 186.829 209.378 L 186.829 209.378 L 186.829 209.378 Q 195.963 209.378 200.82 206.334 L 200.82 206.334 L 200.82 206.334 Q 205.677 203.289 205.677 197.635 L 205.677 197.635 L 205.677 197.635 Q 205.677 192.561 202.378 189.806 L 202.378 189.806 L 202.378 189.806 Q 199.08 187.051 189.222 184.877 L 189.222 184.877 L 178.421 182.485 L 178.421 182.485 Q 162.183 179.005 154.68 171.394 L 154.68 171.394 L 154.68 171.394 Q 147.178 163.782 147.178 150.879 L 147.178 150.879 L 147.178 150.879 Q 147.178 134.714 157.616 126.015 L 157.616 126.015 L 157.616 126.015 Q 168.055 117.317 187.627 117.317 L 187.627 117.317 L 187.627 117.317 Q 196.543 117.317 205.967 118.658 L 205.967 118.658 L 205.967 118.658 Q 215.39 119.999 225.466 122.681 Z  M 354.352 167.407 L 354.352 219.454 L 354.352 219.454 Q 343.914 224.528 332.678 227.066 L 332.678 227.066 L 332.678 227.066 Q 321.442 229.603 309.482 229.603 L 309.482 229.603 L 309.482 229.603 Q 282.443 229.603 266.64 214.489 L 266.64 214.489 L 266.64 214.489 Q 250.838 199.375 250.838 173.496 L 250.838 173.496 L 250.838 173.496 Q 250.838 147.327 266.93 132.322 L 266.93 132.322 L 266.93 132.322 Q 283.023 117.317 311.004 117.317 L 311.004 117.317 L 311.004 117.317 Q 321.805 117.317 331.7 119.346 L 331.7 119.346 L 331.7 119.346 Q 341.594 121.376 350.366 125.363 L 350.366 125.363 L 350.366 147.762 L 350.366 147.762 Q 341.304 142.615 332.352 140.078 L 332.352 140.078 L 332.352 140.078 Q 323.399 137.541 314.411 137.541 L 314.411 137.541 L 314.411 137.541 Q 297.738 137.541 288.713 146.856 L 288.713 146.856 L 288.713 146.856 Q 279.688 156.171 279.688 173.496 L 279.688 173.496 L 279.688 173.496 Q 279.688 190.676 288.387 200.027 L 288.387 200.027 L 288.387 200.027 Q 297.086 209.378 313.106 209.378 L 313.106 209.378 L 313.106 209.378 Q 317.455 209.378 321.189 208.834 L 321.189 208.834 L 321.189 208.834 Q 324.922 208.291 327.894 207.131 L 327.894 207.131 L 327.894 186.109 L 310.859 186.109 L 310.859 167.407 L 354.352 167.407 Z  M 373.345 195.315 L 373.345 174.221 L 418.868 174.221 L 418.868 195.315 L 373.345 195.315 Z  M 444.312 227.5 L 444.312 208.218 L 468.958 208.218 L 468.958 138.266 L 443.659 143.485 L 443.659 124.493 L 468.813 119.274 L 495.344 119.274 L 495.344 208.218 L 519.991 208.218 L 519.991 227.5 L 444.312 227.5 Z  M 598.497 173.278 L 598.497 173.278 L 598.497 173.278 Q 598.497 152.981 594.691 144.681 L 594.691 144.681 L 594.691 144.681 Q 590.885 136.381 581.897 136.381 L 581.897 136.381 L 581.897 136.381 Q 572.908 136.381 569.066 144.681 L 569.066 144.681 L 569.066 144.681 Q 565.224 152.981 565.224 173.278 L 565.224 173.278 L 565.224 173.278 Q 565.224 193.793 569.066 202.202 L 569.066 202.202 L 569.066 202.202 Q 572.908 210.61 581.897 210.61 L 581.897 210.61 L 581.897 210.61 Q 590.813 210.61 594.655 202.202 L 594.655 202.202 L 594.655 202.202 Q 598.497 193.793 598.497 173.278 Z  M 626.405 173.496 L 626.405 173.496 L 626.405 173.496 Q 626.405 200.389 614.807 214.996 L 614.807 214.996 L 614.807 214.996 Q 603.209 229.603 581.897 229.603 L 581.897 229.603 L 581.897 229.603 Q 560.512 229.603 548.914 214.996 L 548.914 214.996 L 548.914 214.996 Q 537.316 200.389 537.316 173.496 L 537.316 173.496 L 537.316 173.496 Q 537.316 146.53 548.914 131.923 L 548.914 131.923 L 548.914 131.923 Q 560.512 117.317 581.897 117.317 L 581.897 117.317 L 581.897 117.317 Q 603.209 117.317 614.807 131.923 L 614.807 131.923 L 614.807 131.923 Q 626.405 146.53 626.405 173.496 Z  M 701.794 173.278 L 701.794 173.278 L 701.794 173.278 Q 701.794 152.981 697.988 144.681 L 697.988 144.681 L 697.988 144.681 Q 694.183 136.381 685.194 136.381 L 685.194 136.381 L 685.194 136.381 Q 676.205 136.381 672.363 144.681 L 672.363 144.681 L 672.363 144.681 Q 668.522 152.981 668.522 173.278 L 668.522 173.278 L 668.522 173.278 Q 668.522 193.793 672.363 202.202 L 672.363 202.202 L 672.363 202.202 Q 676.205 210.61 685.194 210.61 L 685.194 210.61 L 685.194 210.61 Q 694.11 210.61 697.952 202.202 L 697.952 202.202 L 697.952 202.202 Q 701.794 193.793 701.794 173.278 Z  M 729.703 173.496 L 729.703 173.496 L 729.703 173.496 Q 729.703 200.389 718.104 214.996 L 718.104 214.996 L 718.104 214.996 Q 706.506 229.603 685.194 229.603 L 685.194 229.603 L 685.194 229.603 Q 663.81 229.603 652.211 214.996 L 652.211 214.996 L 652.211 214.996 Q 640.613 200.389 640.613 173.496 L 640.613 173.496 L 640.613 173.496 Q 640.613 146.53 652.211 131.923 L 652.211 131.923 L 652.211 131.923 Q 663.81 117.317 685.194 117.317 L 685.194 117.317 L 685.194 117.317 Q 706.506 117.317 718.104 131.923 L 718.104 131.923 L 718.104 131.923 Q 729.703 146.53 729.703 173.496 Z  M 805.092 173.278 L 805.092 173.278 L 805.092 173.278 Q 805.092 152.981 801.286 144.681 L 801.286 144.681 L 801.286 144.681 Q 797.48 136.381 788.492 136.381 L 788.492 136.381 L 788.492 136.381 Q 779.503 136.381 775.661 144.681 L 775.661 144.681 L 775.661 144.681 Q 771.819 152.981 771.819 173.278 L 771.819 173.278 L 771.819 173.278 Q 771.819 193.793 775.661 202.202 L 775.661 202.202 L 775.661 202.202 Q 779.503 210.61 788.492 210.61 L 788.492 210.61 L 788.492 210.61 Q 797.408 210.61 801.25 202.202 L 801.25 202.202 L 801.25 202.202 Q 805.092 193.793 805.092 173.278 Z  M 833 173.496 L 833 173.496 L 833 173.496 Q 833 200.389 821.402 214.996 L 821.402 214.996 L 821.402 214.996 Q 809.803 229.603 788.492 229.603 L 788.492 229.603 L 788.492 229.603 Q 767.107 229.603 755.509 214.996 L 755.509 214.996 L 755.509 214.996 Q 743.911 200.389 743.911 173.496 L 743.911 173.496 L 743.911 173.496 Q 743.911 146.53 755.509 131.923 L 755.509 131.923 L 755.509 131.923 Q 767.107 117.317 788.492 117.317 L 788.492 117.317 L 788.492 117.317 Q 809.803 117.317 821.402 131.923 L 821.402 131.923 L 821.402 131.923 Q 833 146.53 833 173.496 Z " fill="rgb(217,49,49)"/><path d=" M 404.035 21.034 L 404.035 21.034 L 404.035 36.737 L 404.035 36.737 Q 397.922 34.004 392.108 32.612 L 392.108 32.612 L 392.108 32.612 Q 386.294 31.221 381.126 31.221 L 381.126 31.221 L 381.126 31.221 Q 374.268 31.221 370.988 33.109 L 370.988 33.109 L 370.988 33.109 Q 367.709 34.998 367.709 38.973 L 367.709 38.973 L 367.709 38.973 Q 367.709 41.955 369.92 43.62 L 369.92 43.62 L 369.92 43.62 Q 372.131 45.284 377.946 46.477 L 377.946 46.477 L 386.095 48.117 L 386.095 48.117 Q 398.469 50.602 403.687 55.67 L 403.687 55.67 L 403.687 55.67 Q 408.905 60.739 408.905 70.081 L 408.905 70.081 L 408.905 70.081 Q 408.905 82.356 401.625 88.344 L 401.625 88.344 L 401.625 88.344 Q 394.344 94.332 379.387 94.332 L 379.387 94.332 L 379.387 94.332 Q 372.33 94.332 365.224 92.99 L 365.224 92.99 L 365.224 92.99 Q 358.118 91.649 351.012 89.015 L 351.012 89.015 L 351.012 72.864 L 351.012 72.864 Q 358.118 76.641 364.752 78.554 L 364.752 78.554 L 364.752 78.554 Q 371.386 80.467 377.548 80.467 L 377.548 80.467 L 377.548 80.467 Q 383.809 80.467 387.139 78.38 L 387.139 78.38 L 387.139 78.38 Q 390.468 76.293 390.468 72.417 L 390.468 72.417 L 390.468 72.417 Q 390.468 68.939 388.207 67.05 L 388.207 67.05 L 388.207 67.05 Q 385.946 65.162 379.188 63.671 L 379.188 63.671 L 371.784 62.031 L 371.784 62.031 Q 360.652 59.646 355.509 54.428 L 355.509 54.428 L 355.509 54.428 Q 350.366 49.21 350.366 40.365 L 350.366 40.365 L 350.366 40.365 Q 350.366 29.283 357.521 23.32 L 357.521 23.32 L 357.521 23.32 Q 364.677 17.356 378.095 17.356 L 378.095 17.356 L 378.095 17.356 Q 384.207 17.356 390.667 18.276 L 390.667 18.276 L 390.667 18.276 Q 397.127 19.195 404.035 21.034 Z  M 425.701 92.891 L 425.701 18.698 L 477.333 18.698 L 477.333 33.159 L 444.833 33.159 L 444.833 46.974 L 475.395 46.974 L 475.395 61.435 L 444.833 61.435 L 444.833 78.43 L 478.426 78.43 L 478.426 92.891 L 425.701 92.891 Z  M 561.912 51.695 L 561.912 87.375 L 561.912 87.375 Q 554.756 90.853 547.053 92.593 L 547.053 92.593 L 547.053 92.593 Q 539.351 94.332 531.151 94.332 L 531.151 94.332 L 531.151 94.332 Q 512.616 94.332 501.782 83.971 L 501.782 83.971 L 501.782 83.971 Q 490.949 73.61 490.949 55.869 L 490.949 55.869 L 490.949 55.869 Q 490.949 37.93 501.981 27.643 L 501.981 27.643 L 501.981 27.643 Q 513.013 17.356 532.195 17.356 L 532.195 17.356 L 532.195 17.356 Q 539.599 17.356 546.382 18.748 L 546.382 18.748 L 546.382 18.748 Q 553.166 20.139 559.179 22.872 L 559.179 22.872 L 559.179 38.228 L 559.179 38.228 Q 552.967 34.7 546.83 32.96 L 546.83 32.96 L 546.83 32.96 Q 540.693 31.221 534.531 31.221 L 534.531 31.221 L 534.531 31.221 Q 523.101 31.221 516.914 37.607 L 516.914 37.607 L 516.914 37.607 Q 510.727 43.992 510.727 55.869 L 510.727 55.869 L 510.727 55.869 Q 510.727 67.646 516.69 74.057 L 516.69 74.057 L 516.69 74.057 Q 522.654 80.467 533.636 80.467 L 533.636 80.467 L 533.636 80.467 Q 536.618 80.467 539.177 80.095 L 539.177 80.095 L 539.177 80.095 Q 541.736 79.722 543.774 78.927 L 543.774 78.927 L 543.774 64.516 L 532.096 64.516 L 532.096 51.695 L 561.912 51.695 Z  M 628.452 92.891 L 623.78 79.374 L 593.865 79.374 L 589.144 92.891 L 569.912 92.891 L 597.393 18.698 L 620.203 18.698 L 647.683 92.891 L 628.452 92.891 Z  M 608.823 36.091 L 598.635 65.609 L 618.96 65.609 L 608.823 36.091 Z " fill="rgb(25,87,195)"/></g></svg>