<?xml version="1.0" encoding="UTF-8" standalone="no"?><!-- Generator: Gravit.io --><svg xmlns="http://www.w3.org/2000/svg" xmlns:xlink="http://www.w3.org/1999/xlink" style="isolation:isolate" viewBox="0 0 992 250" width="992pt" height="250pt"><defs><clipPath id="_clipPath_hBikCQaBL9LyxU9XomUcnKN23tJlJcSO"><rect width="992" height="250"/></clipPath></defs><g clip-path="url(#_clipPath_hBikCQaBL9LyxU9XomUcnKN23tJlJcSO)"><path d=" M 470.45 159.253 L 461.689 159.253 L 461.689 159.253 Q 460.048 148.755 457.932 136.628 L 457.932 136.628 L 457.932 136.628 Q 455.817 124.501 453.442 112.374 L 453.442 112.374 L 453.442 112.374 Q 451.067 100.246 448.52 88.753 L 448.52 88.753 L 448.52 88.753 Q 445.973 77.259 443.382 67.666 L 443.382 67.666 L 432.894 159.253 L 422.163 159.253 L 436.528 33.818 L 445.286 33.818 L 445.286 33.818 Q 447.704 41.963 450.338 52.461 L 450.338 52.461 L 450.338 52.461 Q 452.972 62.96 455.476 74.453 L 455.476 74.453 L 455.476 74.453 Q 457.981 85.947 460.312 97.531 L 460.312 97.531 L 460.312 97.531 Q 462.644 109.116 464.371 119.433 L 464.371 119.433 L 473.998 33.818 L 484.815 33.818 L 470.45 159.253 Z  M 484.382 159.253 L 498.747 33.818 L 509.65 33.818 L 495.285 159.253 L 484.382 159.253 Z  M 557.418 159.253 L 548.656 159.253 L 548.656 159.253 Q 547.016 148.755 544.9 136.628 L 544.9 136.628 L 544.9 136.628 Q 542.785 124.501 540.41 112.374 L 540.41 112.374 L 540.41 112.374 Q 538.035 100.246 535.488 88.753 L 535.488 88.753 L 535.488 88.753 Q 532.94 77.259 530.35 67.666 L 530.35 67.666 L 519.861 159.253 L 509.131 159.253 L 523.496 33.818 L 532.254 33.818 L 532.254 33.818 Q 534.672 41.963 537.306 52.461 L 537.306 52.461 L 537.306 52.461 Q 539.94 62.96 542.444 74.453 L 542.444 74.453 L 542.444 74.453 Q 544.948 85.947 547.28 97.531 L 547.28 97.531 L 547.28 97.531 Q 549.612 109.116 551.339 119.433 L 551.339 119.433 L 560.966 33.818 L 571.782 33.818 L 557.418 159.253 Z  M 581.042 33.818 L 627.684 33.818 L 625.434 53.004 L 607.608 53.004 L 595.407 159.253 L 584.503 159.253 L 596.705 53.004 L 578.878 53.004 L 581.042 33.818 Z  M 661 159.253 L 621.713 159.253 L 636.078 33.818 L 673.288 33.818 L 671.125 52.823 L 644.792 52.823 L 641.185 84.318 L 664.548 84.318 L 662.385 102.961 L 639.05 102.961 L 634.78 140.248 L 663.163 140.248 L 661 159.253 Z  M 719.498 159.253 L 710.737 159.253 L 710.737 159.253 Q 709.096 148.755 706.98 136.628 L 706.98 136.628 L 706.98 136.628 Q 704.865 124.501 702.49 112.374 L 702.49 112.374 L 702.49 112.374 Q 700.115 100.246 697.568 88.753 L 697.568 88.753 L 697.568 88.753 Q 695.021 77.259 692.43 67.666 L 692.43 67.666 L 681.942 159.253 L 671.211 159.253 L 685.576 33.818 L 694.334 33.818 L 694.334 33.818 Q 696.752 41.963 699.386 52.461 L 699.386 52.461 L 699.386 52.461 Q 702.02 62.96 704.524 74.453 L 704.524 74.453 L 704.524 74.453 Q 707.029 85.947 709.36 97.531 L 709.36 97.531 L 709.36 97.531 Q 711.692 109.116 713.419 119.433 L 713.419 119.433 L 723.046 33.818 L 733.863 33.818 L 719.498 159.253 Z  M 756.621 52.461 L 746.51 140.61 L 746.51 140.61 Q 747.461 140.972 748.716 141.063 L 748.716 141.063 L 748.716 141.063 Q 749.97 141.153 752.651 141.153 L 752.651 141.153 L 752.651 141.153 Q 758.879 141.153 763.897 136.99 L 763.897 136.99 L 763.897 136.99 Q 768.914 132.827 772.417 125.134 L 772.417 125.134 L 772.417 125.134 Q 775.92 117.442 777.823 106.672 L 777.823 106.672 L 777.823 106.672 Q 779.726 95.902 779.726 82.689 L 779.726 82.689 L 779.726 82.689 Q 779.726 68.39 775.832 60.064 L 775.832 60.064 L 775.832 60.064 Q 771.938 51.737 763.112 51.737 L 763.112 51.737 L 763.112 51.737 Q 760.862 51.737 759.52 51.918 L 759.52 51.918 L 759.52 51.918 Q 758.179 52.099 756.621 52.461 L 756.621 52.461 Z  M 790.976 81.965 L 790.976 81.965 L 790.976 81.965 Q 790.976 98.798 788.38 113.279 L 788.38 113.279 L 788.38 113.279 Q 785.784 127.759 780.678 138.257 L 780.678 138.257 L 780.678 138.257 Q 775.573 148.755 767.914 154.728 L 767.914 154.728 L 767.914 154.728 Q 760.256 160.701 750.131 160.701 L 750.131 160.701 L 750.131 160.701 Q 746.497 160.701 741.997 159.887 L 741.997 159.887 L 741.997 159.887 Q 737.497 159.072 733.69 157.262 L 733.69 157.262 L 747.622 35.809 L 747.622 35.809 Q 751.862 33.818 756.189 33.185 L 756.189 33.185 L 756.189 33.185 Q 760.515 32.551 764.15 32.551 L 764.15 32.551 L 764.15 32.551 Q 770.727 32.551 775.746 36.081 L 775.746 36.081 L 775.746 36.081 Q 780.765 39.61 784.14 46.036 L 784.14 46.036 L 784.14 46.036 Q 787.514 52.461 789.245 61.602 L 789.245 61.602 L 789.245 61.602 Q 790.976 70.743 790.976 81.965 Z  M 831.128 50.651 L 831.128 50.651 L 831.128 50.651 Q 826.196 50.651 822.172 55.81 L 822.172 55.81 L 822.172 55.81 Q 818.148 60.969 815.292 69.295 L 815.292 69.295 L 815.292 69.295 Q 812.437 77.621 810.836 88.21 L 810.836 88.21 L 810.836 88.21 Q 809.235 98.798 809.235 109.659 L 809.235 109.659 L 809.235 109.659 Q 809.235 124.501 812.263 133.37 L 812.263 133.37 L 812.263 133.37 Q 815.292 142.239 821.955 142.239 L 821.955 142.239 L 821.955 142.239 Q 826.888 142.239 830.955 137.081 L 830.955 137.081 L 830.955 137.081 Q 835.022 131.922 837.878 123.596 L 837.878 123.596 L 837.878 123.596 Q 840.734 115.27 842.334 104.681 L 842.334 104.681 L 842.334 104.681 Q 843.935 94.092 843.935 83.232 L 843.935 83.232 L 843.935 83.232 Q 843.935 68.39 840.863 59.521 L 840.863 59.521 L 840.863 59.521 Q 837.791 50.651 831.128 50.651 Z  M 820.83 161.969 L 820.83 161.969 L 820.83 161.969 Q 815.811 161.969 811.614 158.62 L 811.614 158.62 L 811.614 158.62 Q 807.418 155.271 804.346 148.936 L 804.346 148.936 L 804.346 148.936 Q 801.274 142.601 799.586 133.189 L 799.586 133.189 L 799.586 133.189 Q 797.899 123.777 797.899 111.65 L 797.899 111.65 L 797.899 111.65 Q 797.899 97.169 800.149 82.689 L 800.149 82.689 L 800.149 82.689 Q 802.398 68.209 806.769 56.715 L 806.769 56.715 L 806.769 56.715 Q 811.139 45.221 817.542 38.072 L 817.542 38.072 L 817.542 38.072 Q 823.946 30.922 832.253 30.922 L 832.253 30.922 L 832.253 30.922 Q 837.272 30.922 841.512 34.271 L 841.512 34.271 L 841.512 34.271 Q 845.753 37.619 848.781 43.954 L 848.781 43.954 L 848.781 43.954 Q 851.81 50.289 853.497 59.702 L 853.497 59.702 L 853.497 59.702 Q 855.185 69.114 855.185 81.241 L 855.185 81.241 L 855.185 81.241 Q 855.185 95.721 852.935 110.202 L 852.935 110.202 L 852.935 110.202 Q 850.685 124.682 846.358 136.176 L 846.358 136.176 L 846.358 136.176 Q 842.032 147.669 835.585 154.819 L 835.585 154.819 L 835.585 154.819 Q 829.138 161.969 820.83 161.969 Z  M 156.933 142.601 L 156.933 142.601 L 156.933 142.601 Q 159.27 142.601 161.563 141.696 L 161.563 141.696 L 161.563 141.696 Q 163.856 140.791 165.716 138.619 L 165.716 138.619 L 165.716 138.619 Q 167.577 136.447 168.702 132.736 L 168.702 132.736 L 168.702 132.736 Q 169.827 129.026 169.827 123.415 L 169.827 123.415 L 169.827 123.415 Q 169.827 119.252 168.961 116.265 L 168.961 116.265 L 168.961 116.265 Q 168.096 113.279 166.625 110.926 L 166.625 110.926 L 166.625 110.926 Q 165.154 108.573 163.293 106.491 L 163.293 106.491 L 163.293 106.491 Q 161.433 104.409 159.356 102.056 L 159.356 102.056 L 159.356 102.056 Q 157.106 99.703 155.073 96.717 L 155.073 96.717 L 155.073 96.717 Q 153.039 93.73 151.481 89.929 L 151.481 89.929 L 151.481 89.929 Q 149.924 86.128 149.015 81.06 L 149.015 81.06 L 149.015 81.06 Q 148.107 75.992 148.107 69.114 L 148.107 69.114 L 148.107 69.114 Q 148.107 60.788 149.621 53.819 L 149.621 53.819 L 149.621 53.819 Q 151.135 46.85 154.121 41.782 L 154.121 41.782 L 154.121 41.782 Q 157.106 36.714 161.476 33.818 L 161.476 33.818 L 161.476 33.818 Q 165.846 30.922 171.644 30.922 L 171.644 30.922 L 171.644 30.922 Q 174.327 30.922 176.793 31.827 L 176.793 31.827 L 176.793 31.827 Q 179.259 32.732 181.423 34.09 L 181.423 34.09 L 181.423 34.09 Q 183.586 35.447 185.23 37.076 L 185.23 37.076 L 185.23 37.076 Q 186.874 38.705 187.826 40.153 L 187.826 40.153 L 183.067 57.53 L 183.067 57.53 Q 181.249 54.452 178.004 52.28 L 178.004 52.28 L 178.004 52.28 Q 174.759 50.108 170.865 50.108 L 170.865 50.108 L 170.865 50.108 Q 168.529 50.108 166.409 51.104 L 166.409 51.104 L 166.409 51.104 Q 164.289 52.099 162.688 54.181 L 162.688 54.181 L 162.688 54.181 Q 161.087 56.263 160.178 59.611 L 160.178 59.611 L 160.178 59.611 Q 159.27 62.96 159.27 67.485 L 159.27 67.485 L 159.27 67.485 Q 159.27 71.648 159.919 74.363 L 159.919 74.363 L 159.919 74.363 Q 160.568 77.078 161.736 79.159 L 161.736 79.159 L 161.736 79.159 Q 162.904 81.241 164.462 82.961 L 164.462 82.961 L 164.462 82.961 Q 166.019 84.68 167.837 86.852 L 167.837 86.852 L 167.837 86.852 Q 170.519 89.929 172.899 93.006 L 172.899 93.006 L 172.899 93.006 Q 175.279 96.083 177.096 100.065 L 177.096 100.065 L 177.096 100.065 Q 178.913 104.047 179.995 109.206 L 179.995 109.206 L 179.995 109.206 Q 181.076 114.365 181.076 121.605 L 181.076 121.605 L 181.076 121.605 Q 181.076 131.741 179.259 139.343 L 179.259 139.343 L 179.259 139.343 Q 177.442 146.945 174.154 151.923 L 174.154 151.923 L 174.154 151.923 Q 170.865 156.9 166.365 159.434 L 166.365 159.434 L 166.365 159.434 Q 161.866 161.969 156.5 161.969 L 156.5 161.969 L 156.5 161.969 Q 152.953 161.969 149.967 160.883 L 149.967 160.883 L 149.967 160.883 Q 146.982 159.796 144.645 158.167 L 144.645 158.167 L 144.645 158.167 Q 142.309 156.538 140.621 154.728 L 140.621 154.728 L 140.621 154.728 Q 138.934 152.918 137.982 151.47 L 137.982 151.47 L 142.828 133.551 L 142.828 133.551 Q 143.693 134.818 145.121 136.447 L 145.121 136.447 L 145.121 136.447 Q 146.549 138.076 148.366 139.434 L 148.366 139.434 L 148.366 139.434 Q 150.183 140.791 152.347 141.696 L 152.347 141.696 L 152.347 141.696 Q 154.51 142.601 156.933 142.601 Z  M 246.67 33.818 L 237.584 113.098 L 237.584 113.098 Q 236.286 124.682 234.295 133.732 L 234.295 133.732 L 234.295 133.732 Q 232.305 142.782 229.147 149.027 L 229.147 149.027 L 229.147 149.027 Q 225.988 155.271 221.445 158.62 L 221.445 158.62 L 221.445 158.62 Q 216.902 161.969 210.498 161.969 L 210.498 161.969 L 210.498 161.969 Q 205.479 161.969 201.888 159.163 L 201.888 159.163 L 201.888 159.163 Q 198.297 156.357 196.047 151.47 L 196.047 151.47 L 196.047 151.47 Q 193.797 146.583 192.715 139.796 L 192.715 139.796 L 192.715 139.796 Q 191.634 133.008 191.634 125.044 L 191.634 125.044 L 191.634 125.044 Q 191.634 120.881 191.937 115.813 L 191.937 115.813 L 191.937 115.813 Q 192.239 110.745 192.845 106.038 L 192.845 106.038 L 201.066 33.818 L 212.056 33.818 L 203.547 108.573 L 203.547 108.573 Q 203.088 112.012 202.812 115.722 L 202.812 115.722 L 202.812 115.722 Q 202.537 119.433 202.537 122.872 L 202.537 122.872 L 202.537 122.872 Q 202.537 126.854 203.013 130.383 L 203.013 130.383 L 203.013 130.383 Q 203.489 133.913 204.613 136.447 L 204.613 136.447 L 204.613 136.447 Q 205.738 138.981 207.554 140.52 L 207.554 140.52 L 207.554 140.52 Q 209.37 142.058 212.052 142.058 L 212.052 142.058 L 212.052 142.058 Q 218.366 142.058 221.739 134.275 L 221.739 134.275 L 221.739 134.275 Q 225.113 126.492 226.843 110.926 L 226.843 110.926 L 235.68 33.818 L 246.67 33.818 Z  M 276.005 32.551 L 276.005 32.551 L 276.005 32.551 Q 286.822 32.551 292.577 41.42 L 292.577 41.42 L 292.577 41.42 Q 298.331 50.289 298.331 66.761 L 298.331 66.761 L 298.331 66.761 Q 298.331 79.793 295.95 88.934 L 295.95 88.934 L 295.95 88.934 Q 293.568 98.074 289.368 103.866 L 289.368 103.866 L 289.368 103.866 Q 285.168 109.659 279.322 112.283 L 279.322 112.283 L 279.322 112.283 Q 273.476 114.908 266.461 114.908 L 266.461 114.908 L 261.785 114.908 L 256.725 159.253 L 245.805 159.253 L 259.91 35.628 L 259.91 35.628 Q 264.064 33.818 268.217 33.185 L 268.217 33.185 L 268.217 33.185 Q 272.371 32.551 276.005 32.551 Z  M 274.967 51.737 L 274.967 51.737 L 274.967 51.737 Q 273.323 51.737 271.852 51.918 L 271.852 51.918 L 271.852 51.918 Q 270.381 52.099 268.91 52.461 L 268.91 52.461 L 263.974 95.721 L 268.388 95.721 L 268.388 95.721 Q 272.023 95.721 275.398 94.454 L 275.398 94.454 L 275.398 94.454 Q 278.773 93.187 281.37 90.201 L 281.37 90.201 L 281.37 90.201 Q 283.966 87.214 285.524 82.056 L 285.524 82.056 L 285.524 82.056 Q 287.082 76.897 287.082 68.933 L 287.082 68.933 L 287.082 68.933 Q 287.082 59.702 283.837 55.72 L 283.837 55.72 L 283.837 55.72 Q 280.592 51.737 274.967 51.737 Z  M 337.445 159.253 L 298.158 159.253 L 312.523 33.818 L 349.733 33.818 L 347.57 52.823 L 321.237 52.823 L 317.63 84.318 L 340.993 84.318 L 338.83 102.961 L 315.495 102.961 L 311.225 140.248 L 339.609 140.248 L 337.445 159.253 Z  M 378.03 32.551 L 378.03 32.551 L 378.03 32.551 Q 388.761 32.551 394.342 41.873 L 394.342 41.873 L 394.342 41.873 Q 399.924 51.194 399.924 66.58 L 399.924 66.58 L 399.924 66.58 Q 399.924 73.458 399.015 79.702 L 399.015 79.702 L 399.015 79.702 Q 398.106 85.947 396.159 91.287 L 396.159 91.287 L 396.159 91.287 Q 394.212 96.626 391.14 100.789 L 391.14 100.789 L 391.14 100.789 Q 388.068 104.952 383.742 107.667 L 383.742 107.667 L 383.742 107.667 Q 384.867 111.831 386.165 117.713 L 386.165 117.713 L 386.165 117.713 Q 387.463 123.596 388.847 130.383 L 388.847 130.383 L 388.847 130.383 Q 390.232 137.171 391.53 144.592 L 391.53 144.592 L 391.53 144.592 Q 392.828 152.013 393.866 159.253 L 393.866 159.253 L 382.303 159.253 L 382.303 159.253 Q 381.271 152.737 380.152 146.04 L 380.152 146.04 L 380.152 146.04 Q 379.034 139.343 377.829 133.098 L 377.829 133.098 L 377.829 133.098 Q 376.625 126.854 375.377 121.333 L 375.377 121.333 L 375.377 121.333 Q 374.129 115.813 372.925 111.469 L 372.925 111.469 L 372.925 111.469 Q 372.146 111.65 371.02 111.65 L 371.02 111.65 L 371.02 111.65 Q 369.895 111.65 369.029 111.65 L 369.029 111.65 L 364.008 111.65 L 358.577 159.253 L 347.656 159.253 L 361.762 35.628 L 361.762 35.628 Q 365.915 33.818 370.199 33.185 L 370.199 33.185 L 370.199 33.185 Q 374.482 32.551 378.03 32.551 Z  M 388.847 69.114 L 388.847 69.114 L 388.847 69.114 Q 388.847 59.159 385.386 55.448 L 385.386 55.448 L 385.386 55.448 Q 381.924 51.737 376.127 51.737 L 376.127 51.737 L 376.127 51.737 Q 374.915 51.737 373.53 51.918 L 373.53 51.918 L 373.53 51.918 Q 372.146 52.099 370.761 52.461 L 370.761 52.461 L 366.094 93.368 L 370.939 93.368 L 370.939 93.368 Q 374.832 93.368 378.119 92.011 L 378.119 92.011 L 378.119 92.011 Q 381.407 90.653 383.786 87.757 L 383.786 87.757 L 383.786 87.757 Q 386.165 84.861 387.506 80.245 L 387.506 80.245 L 387.506 80.245 Q 388.847 75.63 388.847 69.114 Z " fill="rgb(215,0,0)"/><path d=" M 134 172.458 L 856 172.458 L 856 223.155 L 134 223.155 L 134 172.458 Z  M 644.218 211.687 L 644.218 211.687 L 644.218 211.687 Q 645.564 211.687 646.884 211.438 L 646.884 211.438 L 646.884 211.438 Q 648.204 211.189 649.275 210.591 L 649.275 210.591 L 649.275 210.591 Q 650.347 209.993 650.994 208.972 L 650.994 208.972 L 650.994 208.972 Q 651.642 207.95 651.642 206.406 L 651.642 206.406 L 651.642 206.406 Q 651.642 205.26 651.144 204.438 L 651.144 204.438 L 651.144 204.438 Q 650.646 203.616 649.799 202.968 L 649.799 202.968 L 649.799 202.968 Q 648.952 202.32 647.88 201.747 L 647.88 201.747 L 647.88 201.747 Q 646.809 201.174 645.613 200.526 L 645.613 200.526 L 645.613 200.526 Q 644.318 199.879 643.147 199.057 L 643.147 199.057 L 643.147 199.057 Q 641.976 198.235 641.08 197.188 L 641.08 197.188 L 641.08 197.188 Q 640.183 196.142 639.66 194.747 L 639.66 194.747 L 639.66 194.747 Q 639.136 193.352 639.136 191.459 L 639.136 191.459 L 639.136 191.459 Q 639.136 189.167 640.008 187.249 L 640.008 187.249 L 640.008 187.249 Q 640.88 185.33 642.599 183.935 L 642.599 183.935 L 642.599 183.935 Q 644.318 182.54 646.834 181.743 L 646.834 181.743 L 646.834 181.743 Q 649.35 180.946 652.688 180.946 L 652.688 180.946 L 652.688 180.946 Q 654.233 180.946 655.653 181.195 L 655.653 181.195 L 655.653 181.195 Q 657.073 181.444 658.318 181.818 L 658.318 181.818 L 658.318 181.818 Q 659.564 182.192 660.511 182.64 L 660.511 182.64 L 660.511 182.64 Q 661.457 183.088 662.005 183.487 L 662.005 183.487 L 659.265 188.27 L 659.265 188.27 Q 658.219 187.423 656.35 186.825 L 656.35 186.825 L 656.35 186.825 Q 654.482 186.227 652.24 186.227 L 652.24 186.227 L 652.24 186.227 Q 650.895 186.227 649.674 186.501 L 649.674 186.501 L 649.674 186.501 Q 648.453 186.775 647.532 187.348 L 647.532 187.348 L 647.532 187.348 Q 646.61 187.921 646.087 188.843 L 646.087 188.843 L 646.087 188.843 Q 645.564 189.765 645.564 191.01 L 645.564 191.01 L 645.564 191.01 Q 645.564 192.156 645.937 192.904 L 645.937 192.904 L 645.937 192.904 Q 646.311 193.651 646.984 194.224 L 646.984 194.224 L 646.984 194.224 Q 647.656 194.797 648.553 195.27 L 648.553 195.27 L 648.553 195.27 Q 649.45 195.743 650.496 196.341 L 650.496 196.341 L 650.496 196.341 Q 652.041 197.188 653.411 198.035 L 653.411 198.035 L 653.411 198.035 Q 654.781 198.882 655.827 199.978 L 655.827 199.978 L 655.827 199.978 Q 656.874 201.075 657.496 202.494 L 657.496 202.494 L 657.496 202.494 Q 658.119 203.914 658.119 205.907 L 658.119 205.907 L 658.119 205.907 Q 658.119 208.697 657.073 210.79 L 657.073 210.79 L 657.073 210.79 Q 656.027 212.883 654.133 214.253 L 654.133 214.253 L 654.133 214.253 Q 652.24 215.623 649.649 216.32 L 649.649 216.32 L 649.649 216.32 Q 647.058 217.018 643.969 217.018 L 643.969 217.018 L 643.969 217.018 Q 641.927 217.018 640.208 216.719 L 640.208 216.719 L 640.208 216.719 Q 638.489 216.42 637.144 215.972 L 637.144 215.972 L 637.144 215.972 Q 635.798 215.523 634.827 215.025 L 634.827 215.025 L 634.827 215.025 Q 633.855 214.527 633.307 214.128 L 633.307 214.128 L 636.097 209.196 L 636.097 209.196 Q 636.595 209.544 637.418 209.993 L 637.418 209.993 L 637.418 209.993 Q 638.24 210.441 639.286 210.815 L 639.286 210.815 L 639.286 210.815 Q 640.332 211.189 641.578 211.438 L 641.578 211.438 L 641.578 211.438 Q 642.823 211.687 644.218 211.687 L 644.218 211.687 Z  M 682.921 196.989 L 682.921 196.989 L 682.921 196.989 Q 686.01 193.252 688.925 189.491 L 688.925 189.491 L 688.925 189.491 Q 691.84 185.729 694.381 181.743 L 694.381 181.743 L 701.456 181.743 L 701.456 181.743 Q 699.513 184.483 697.569 187.074 L 697.569 187.074 L 697.569 187.074 Q 695.626 189.665 693.609 192.231 L 693.609 192.231 L 693.609 192.231 Q 691.591 194.797 689.448 197.338 L 689.448 197.338 L 689.448 197.338 Q 687.306 199.879 685.014 202.519 L 685.014 202.519 L 681.726 216.271 L 675.448 216.271 L 678.736 202.519 L 678.736 202.519 Q 676.694 197.288 675.024 192.131 L 675.024 192.131 L 675.024 192.131 Q 673.355 186.975 671.911 181.743 L 671.911 181.743 L 678.587 181.743 L 678.587 181.743 Q 679.434 185.579 680.53 189.416 L 680.53 189.416 L 680.53 189.416 Q 681.626 193.252 682.921 196.989 L 682.921 196.989 Z  M 712.357 211.687 L 712.357 211.687 L 712.357 211.687 Q 713.703 211.687 715.023 211.438 L 715.023 211.438 L 715.023 211.438 Q 716.343 211.189 717.414 210.591 L 717.414 210.591 L 717.414 210.591 Q 718.486 209.993 719.133 208.972 L 719.133 208.972 L 719.133 208.972 Q 719.781 207.95 719.781 206.406 L 719.781 206.406 L 719.781 206.406 Q 719.781 205.26 719.283 204.438 L 719.283 204.438 L 719.283 204.438 Q 718.785 203.616 717.938 202.968 L 717.938 202.968 L 717.938 202.968 Q 717.091 202.32 716.019 201.747 L 716.019 201.747 L 716.019 201.747 Q 714.948 201.174 713.752 200.526 L 713.752 200.526 L 713.752 200.526 Q 712.457 199.879 711.286 199.057 L 711.286 199.057 L 711.286 199.057 Q 710.115 198.235 709.219 197.188 L 709.219 197.188 L 709.219 197.188 Q 708.322 196.142 707.799 194.747 L 707.799 194.747 L 707.799 194.747 Q 707.275 193.352 707.275 191.459 L 707.275 191.459 L 707.275 191.459 Q 707.275 189.167 708.147 187.249 L 708.147 187.249 L 708.147 187.249 Q 709.019 185.33 710.738 183.935 L 710.738 183.935 L 710.738 183.935 Q 712.457 182.54 714.973 181.743 L 714.973 181.743 L 714.973 181.743 Q 717.489 180.946 720.827 180.946 L 720.827 180.946 L 720.827 180.946 Q 722.372 180.946 723.792 181.195 L 723.792 181.195 L 723.792 181.195 Q 725.212 181.444 726.457 181.818 L 726.457 181.818 L 726.457 181.818 Q 727.703 182.192 728.65 182.64 L 728.65 182.64 L 728.65 182.64 Q 729.596 183.088 730.144 183.487 L 730.144 183.487 L 727.404 188.27 L 727.404 188.27 Q 726.358 187.423 724.489 186.825 L 724.489 186.825 L 724.489 186.825 Q 722.621 186.227 720.379 186.227 L 720.379 186.227 L 720.379 186.227 Q 719.034 186.227 717.813 186.501 L 717.813 186.501 L 717.813 186.501 Q 716.592 186.775 715.671 187.348 L 715.671 187.348 L 715.671 187.348 Q 714.749 187.921 714.226 188.843 L 714.226 188.843 L 714.226 188.843 Q 713.703 189.765 713.703 191.01 L 713.703 191.01 L 713.703 191.01 Q 713.703 192.156 714.076 192.904 L 714.076 192.904 L 714.076 192.904 Q 714.45 193.651 715.123 194.224 L 715.123 194.224 L 715.123 194.224 Q 715.795 194.797 716.692 195.27 L 716.692 195.27 L 716.692 195.27 Q 717.589 195.743 718.635 196.341 L 718.635 196.341 L 718.635 196.341 Q 720.18 197.188 721.55 198.035 L 721.55 198.035 L 721.55 198.035 Q 722.92 198.882 723.966 199.978 L 723.966 199.978 L 723.966 199.978 Q 725.012 201.075 725.635 202.494 L 725.635 202.494 L 725.635 202.494 Q 726.258 203.914 726.258 205.907 L 726.258 205.907 L 726.258 205.907 Q 726.258 208.697 725.212 210.79 L 725.212 210.79 L 725.212 210.79 Q 724.165 212.883 722.272 214.253 L 722.272 214.253 L 722.272 214.253 Q 720.379 215.623 717.788 216.32 L 717.788 216.32 L 717.788 216.32 Q 715.197 217.018 712.108 217.018 L 712.108 217.018 L 712.108 217.018 Q 710.066 217.018 708.347 216.719 L 708.347 216.719 L 708.347 216.719 Q 706.628 216.42 705.283 215.972 L 705.283 215.972 L 705.283 215.972 Q 703.937 215.523 702.966 215.025 L 702.966 215.025 L 702.966 215.025 Q 701.994 214.527 701.446 214.128 L 701.446 214.128 L 704.236 209.196 L 704.236 209.196 Q 704.734 209.544 705.557 209.993 L 705.557 209.993 L 705.557 209.993 Q 706.379 210.441 707.425 210.815 L 707.425 210.815 L 707.425 210.815 Q 708.471 211.189 709.717 211.438 L 709.717 211.438 L 709.717 211.438 Q 710.962 211.687 712.357 211.687 L 712.357 211.687 Z  M 741.494 181.743 L 768.349 181.743 L 767.054 187.024 L 756.79 187.024 L 749.765 216.271 L 743.487 216.271 L 750.512 187.024 L 740.249 187.024 L 741.494 181.743 L 741.494 181.743 Z  M 793.65 216.271 L 771.03 216.271 L 779.301 181.743 L 800.725 181.743 L 799.479 186.975 L 784.318 186.975 L 782.241 195.644 L 795.692 195.644 L 794.447 200.776 L 781.012 200.776 L 778.553 211.039 L 794.895 211.039 L 793.65 216.271 L 793.65 216.271 Z  M 815.612 181.743 L 821.492 181.743 L 821.492 181.743 Q 821.94 183.487 822.513 186.252 L 822.513 186.252 L 822.513 186.252 Q 823.086 189.017 823.659 192.156 L 823.659 192.156 L 823.659 192.156 Q 824.232 195.295 824.805 198.484 L 824.805 198.484 L 824.805 198.484 Q 825.378 201.672 825.826 204.263 L 825.826 204.263 L 825.826 204.263 Q 827.514 201.623 829.575 198.484 L 829.575 198.484 L 829.575 198.484 Q 831.635 195.345 833.696 192.256 L 833.696 192.256 L 833.696 192.256 Q 835.756 189.167 837.668 186.402 L 837.668 186.402 L 837.668 186.402 Q 839.58 183.636 840.97 181.743 L 840.97 181.743 L 846.951 181.743 L 846.951 181.743 Q 846.552 185.53 846.004 189.814 L 846.004 189.814 L 846.004 189.814 Q 845.456 194.099 844.734 198.583 L 844.734 198.583 L 844.734 198.583 Q 844.011 203.067 843.214 207.576 L 843.214 207.576 L 843.214 207.576 Q 842.417 212.085 841.62 216.271 L 841.62 216.271 L 835.392 216.271 L 835.392 216.271 Q 836.681 210.242 837.871 203.89 L 837.871 203.89 L 837.871 203.89 Q 839.061 197.537 840.053 191.309 L 840.053 191.309 L 840.053 191.309 Q 839.207 192.505 838.113 194.199 L 838.113 194.199 L 838.113 194.199 Q 837.019 195.893 835.775 197.761 L 835.775 197.761 L 835.775 197.761 Q 834.532 199.63 833.238 201.623 L 833.238 201.623 L 833.238 201.623 Q 831.945 203.616 830.727 205.484 L 830.727 205.484 L 830.727 205.484 Q 829.508 207.352 828.463 208.947 L 828.463 208.947 L 828.463 208.947 Q 827.419 210.541 826.673 211.687 L 826.673 211.687 L 821.84 211.687 L 821.84 211.687 Q 821.593 210.043 821.148 207.352 L 821.148 207.352 L 821.148 207.352 Q 820.704 204.662 820.16 201.697 L 820.16 201.697 L 820.16 201.697 Q 819.617 198.733 819.098 195.918 L 819.098 195.918 L 819.098 195.918 Q 818.579 193.103 818.184 191.259 L 818.184 191.259 L 818.184 191.259 Q 816.132 197.487 814.356 203.89 L 814.356 203.89 L 814.356 203.89 Q 812.58 210.292 810.979 216.271 L 810.979 216.271 L 804.8 216.271 L 804.8 216.271 Q 805.996 211.986 807.342 207.402 L 807.342 207.402 L 807.342 207.402 Q 808.687 202.818 810.107 198.309 L 810.107 198.309 L 810.107 198.309 Q 811.527 193.8 812.922 189.565 L 812.922 189.565 L 812.922 189.565 Q 814.317 185.33 815.612 181.743 L 815.612 181.743 L 815.612 181.743 Z  M 164.804 216.271 L 142.185 216.271 L 150.455 181.743 L 171.879 181.743 L 170.634 186.975 L 155.472 186.975 L 153.396 195.644 L 166.847 195.644 L 165.601 200.776 L 152.166 200.776 L 149.708 211.039 L 166.05 211.039 L 164.804 216.271 L 164.804 216.271 Z  M 204.603 216.271 L 199.559 216.271 L 199.559 216.271 Q 198.614 213.381 197.396 210.043 L 197.396 210.043 L 197.396 210.043 Q 196.178 206.705 194.811 203.366 L 194.811 203.366 L 194.811 203.366 Q 193.444 200.028 191.977 196.864 L 191.977 196.864 L 191.977 196.864 Q 190.511 193.701 189.019 191.06 L 189.019 191.06 L 182.98 216.271 L 176.802 216.271 L 185.073 181.743 L 190.115 181.743 L 190.115 181.743 Q 191.507 183.985 193.024 186.875 L 193.024 186.875 L 193.024 186.875 Q 194.54 189.765 195.982 192.928 L 195.982 192.928 L 195.982 192.928 Q 197.424 196.092 198.767 199.281 L 198.767 199.281 L 198.767 199.281 Q 200.109 202.47 201.104 205.31 L 201.104 205.31 L 206.646 181.743 L 212.874 181.743 L 204.603 216.271 L 204.603 216.271 Z  M 224.324 181.743 L 251.179 181.743 L 249.883 187.024 L 239.62 187.024 L 232.595 216.271 L 226.317 216.271 L 233.342 187.024 L 223.078 187.024 L 224.324 181.743 L 224.324 181.743 Z  M 276.479 216.271 L 253.859 216.271 L 262.13 181.743 L 283.554 181.743 L 282.308 186.975 L 267.147 186.975 L 265.071 195.644 L 278.522 195.644 L 277.276 200.776 L 263.841 200.776 L 261.383 211.039 L 277.725 211.039 L 276.479 216.271 L 276.479 216.271 Z  M 312.193 191.459 L 312.193 191.459 L 312.193 191.459 Q 312.193 188.718 310.2 187.697 L 310.2 187.697 L 310.2 187.697 Q 308.207 186.676 304.869 186.676 L 304.869 186.676 L 304.869 186.676 Q 304.171 186.676 303.374 186.725 L 303.374 186.725 L 303.374 186.725 Q 302.577 186.775 301.78 186.875 L 301.78 186.875 L 299.093 198.135 L 301.882 198.135 L 301.882 198.135 Q 304.123 198.135 306.016 197.761 L 306.016 197.761 L 306.016 197.761 Q 307.909 197.388 309.279 196.59 L 309.279 196.59 L 309.279 196.59 Q 310.649 195.793 311.421 194.523 L 311.421 194.523 L 311.421 194.523 Q 312.193 193.252 312.193 191.459 L 312.193 191.459 Z  M 329.771 181.743 L 356.626 181.743 L 355.33 187.024 L 345.067 187.024 L 338.041 216.271 L 331.764 216.271 L 338.789 187.024 L 328.525 187.024 L 329.771 181.743 L 329.771 181.743 Z  M 375.175 188.32 L 375.175 188.32 L 375.175 188.32 Q 373.338 191.259 371.019 194.921 L 371.019 194.921 L 371.019 194.921 Q 368.7 198.583 366.106 203.117 L 366.106 203.117 L 376.868 203.117 L 376.868 203.117 Q 376.55 199.58 376.112 195.868 L 376.112 195.868 L 376.112 195.868 Q 375.675 192.156 375.175 188.32 L 375.175 188.32 Z  M 394.422 216.271 L 402.693 181.743 L 408.971 181.743 L 400.7 216.271 L 394.422 216.271 L 394.422 216.271 Z  M 442.592 216.271 L 437.547 216.271 L 437.547 216.271 Q 436.603 213.381 435.385 210.043 L 435.385 210.043 L 435.385 210.043 Q 434.166 206.705 432.799 203.366 L 432.799 203.366 L 432.799 203.366 Q 431.432 200.028 429.965 196.864 L 429.965 196.864 L 429.965 196.864 Q 428.499 193.701 427.007 191.06 L 427.007 191.06 L 420.968 216.271 L 414.79 216.271 L 423.061 181.743 L 428.103 181.743 L 428.103 181.743 Q 429.496 183.985 431.012 186.875 L 431.012 186.875 L 431.012 186.875 Q 432.529 189.765 433.97 192.928 L 433.97 192.928 L 433.97 192.928 Q 435.412 196.092 436.755 199.281 L 436.755 199.281 L 436.755 199.281 Q 438.097 202.47 439.092 205.31 L 439.092 205.31 L 444.634 181.743 L 450.862 181.743 L 442.592 216.271 L 442.592 216.271 Z  M 466.696 181.743 L 472.576 181.743 L 472.576 181.743 Q 473.024 183.487 473.597 186.252 L 473.597 186.252 L 473.597 186.252 Q 474.17 189.017 474.743 192.156 L 474.743 192.156 L 474.743 192.156 Q 475.316 195.295 475.889 198.484 L 475.889 198.484 L 475.889 198.484 Q 476.462 201.672 476.91 204.263 L 476.91 204.263 L 476.91 204.263 Q 478.598 201.623 480.659 198.484 L 480.659 198.484 L 480.659 198.484 Q 482.72 195.345 484.78 192.256 L 484.78 192.256 L 484.78 192.256 Q 486.841 189.167 488.752 186.402 L 488.752 186.402 L 488.752 186.402 Q 490.664 183.636 492.054 181.743 L 492.054 181.743 L 498.035 181.743 L 498.035 181.743 Q 497.637 185.53 497.089 189.814 L 497.089 189.814 L 497.089 189.814 Q 496.541 194.099 495.818 198.583 L 495.818 198.583 L 495.818 198.583 Q 495.096 203.067 494.299 207.576 L 494.299 207.576 L 494.299 207.576 Q 493.501 212.085 492.704 216.271 L 492.704 216.271 L 486.476 216.271 L 486.476 216.271 Q 487.765 210.242 488.955 203.89 L 488.955 203.89 L 488.955 203.89 Q 490.145 197.537 491.137 191.309 L 491.137 191.309 L 491.137 191.309 Q 490.291 192.505 489.197 194.199 L 489.197 194.199 L 489.197 194.199 Q 488.103 195.893 486.859 197.761 L 486.859 197.761 L 486.859 197.761 Q 485.616 199.63 484.323 201.623 L 484.323 201.623 L 484.323 201.623 Q 483.03 203.616 481.811 205.484 L 481.811 205.484 L 481.811 205.484 Q 480.592 207.352 479.548 208.947 L 479.548 208.947 L 479.548 208.947 Q 478.503 210.541 477.757 211.687 L 477.757 211.687 L 472.924 211.687 L 472.924 211.687 Q 472.677 210.043 472.233 207.352 L 472.233 207.352 L 472.233 207.352 Q 471.788 204.662 471.245 201.697 L 471.245 201.697 L 471.245 201.697 Q 470.701 198.733 470.182 195.918 L 470.182 195.918 L 470.182 195.918 Q 469.663 193.103 469.268 191.259 L 469.268 191.259 L 469.268 191.259 Q 467.217 197.487 465.44 203.89 L 465.44 203.89 L 465.44 203.89 Q 463.664 210.292 462.063 216.271 L 462.063 216.271 L 455.885 216.271 L 455.885 216.271 Q 457.081 211.986 458.426 207.402 L 458.426 207.402 L 458.426 207.402 Q 459.771 202.818 461.191 198.309 L 461.191 198.309 L 461.191 198.309 Q 462.611 193.8 464.006 189.565 L 464.006 189.565 L 464.006 189.565 Q 465.401 185.33 466.696 181.743 L 466.696 181.743 L 466.696 181.743 Z  M 528.418 216.271 L 505.798 216.271 L 514.069 181.743 L 535.493 181.743 L 534.247 186.975 L 519.086 186.975 L 517.009 195.644 L 530.461 195.644 L 529.215 200.776 L 515.78 200.776 L 513.321 211.039 L 529.663 211.039 L 528.418 216.271 L 528.418 216.271 Z  M 568.217 216.271 L 563.173 216.271 L 563.173 216.271 Q 562.228 213.381 561.01 210.043 L 561.01 210.043 L 561.01 210.043 Q 559.792 206.705 558.425 203.366 L 558.425 203.366 L 558.425 203.366 Q 557.057 200.028 555.591 196.864 L 555.591 196.864 L 555.591 196.864 Q 554.124 193.701 552.633 191.06 L 552.633 191.06 L 546.594 216.271 L 540.416 216.271 L 548.686 181.743 L 553.729 181.743 L 553.729 181.743 Q 555.121 183.985 556.637 186.875 L 556.637 186.875 L 556.637 186.875 Q 558.154 189.765 559.596 192.928 L 559.596 192.928 L 559.596 192.928 Q 561.038 196.092 562.38 199.281 L 562.38 199.281 L 562.38 199.281 Q 563.723 202.47 564.717 205.31 L 564.717 205.31 L 570.26 181.743 L 576.488 181.743 L 568.217 216.271 L 568.217 216.271 Z  M 587.937 181.743 L 614.792 181.743 L 613.497 187.024 L 603.233 187.024 L 596.208 216.271 L 589.93 216.271 L 596.955 187.024 L 586.692 187.024 L 587.937 181.743 L 587.937 181.743 Z  M 305.965 181.394 L 305.965 181.394 L 305.965 181.394 Q 312.143 181.394 315.357 183.96 L 315.357 183.96 L 315.357 183.96 Q 318.57 186.526 318.57 190.761 L 318.57 190.761 L 318.57 190.761 Q 318.57 192.654 318.047 194.373 L 318.047 194.373 L 318.047 194.373 Q 317.524 196.092 316.403 197.562 L 316.403 197.562 L 316.403 197.562 Q 315.282 199.032 313.513 200.178 L 313.513 200.178 L 313.513 200.178 Q 311.744 201.324 309.253 202.071 L 309.253 202.071 L 309.253 202.071 Q 309.901 203.217 310.648 204.836 L 310.648 204.836 L 310.648 204.836 Q 311.396 206.455 312.193 208.324 L 312.193 208.324 L 312.193 208.324 Q 312.99 210.192 313.737 212.235 L 313.737 212.235 L 313.737 212.235 Q 314.485 214.278 315.083 216.271 L 315.083 216.271 L 308.425 216.271 L 308.425 216.271 Q 307.831 214.477 307.187 212.634 L 307.187 212.634 L 307.187 212.634 Q 306.543 210.79 305.849 209.071 L 305.849 209.071 L 305.849 209.071 Q 305.156 207.352 304.437 205.833 L 304.437 205.833 L 304.437 205.833 Q 303.719 204.313 303.025 203.117 L 303.025 203.117 L 303.025 203.117 Q 302.577 203.167 301.929 203.167 L 301.929 203.167 L 301.929 203.167 Q 301.281 203.167 300.782 203.167 L 300.782 203.167 L 297.892 203.167 L 294.764 216.271 L 288.477 216.271 L 296.598 182.241 L 296.598 182.241 Q 298.99 181.743 301.456 181.569 L 301.456 181.569 L 301.456 181.569 Q 303.922 181.394 305.965 181.394 L 305.965 181.394 Z  M 384.417 216.271 L 378.09 216.271 L 378.09 216.271 Q 377.872 214.178 377.706 212.11 L 377.706 212.11 L 377.706 212.11 Q 377.54 210.043 377.338 208.1 L 377.338 208.1 L 363.42 208.1 L 363.42 208.1 Q 362.224 210.043 361.129 212.061 L 361.129 212.061 L 361.129 212.061 Q 360.034 214.078 358.808 216.271 L 358.808 216.271 L 352.082 216.271 L 352.082 216.271 Q 355.116 210.989 357.877 206.306 L 357.877 206.306 L 357.877 206.306 Q 360.638 201.623 363.249 197.388 L 363.249 197.388 L 363.249 197.388 Q 365.86 193.153 368.422 189.291 L 368.422 189.291 L 368.422 189.291 Q 370.984 185.43 373.57 181.743 L 373.57 181.743 L 379.514 181.743 L 379.514 181.743 Q 381.099 189.167 382.238 197.961 L 382.238 197.961 L 382.238 197.961 Q 383.377 206.754 384.417 216.271 L 384.417 216.271 L 384.417 216.271 Z " fill-rule="evenodd" fill="rgb(215,0,0)"/></g></svg>