<?xml version="1.0" encoding="UTF-8" standalone="no"?><!-- Generator: Gravit.io --><svg xmlns="http://www.w3.org/2000/svg" xmlns:xlink="http://www.w3.org/1999/xlink" style="isolation:isolate" viewBox="0 0 992 250" width="992pt" height="250pt"><defs><clipPath id="_clipPath_z8mGBtkb4A3bFB6xMb53SGS6oQlxUFfq"><rect width="992" height="250"/></clipPath></defs><g clip-path="url(#_clipPath_z8mGBtkb4A3bFB6xMb53SGS6oQlxUFfq)"><rect x="48.125" y="29.938" width="895.75" height="190.125" transform="matrix(1,0,0,1,0,0)" fill="rgb(0,0,0)"/><rect x="48.125" y="28.375" width="895.75" height="1.563" transform="matrix(1,0,0,1,0,0)" fill="rgb(255,255,255)"/><rect x="99" y="152.5" width="794" height="6.438" transform="matrix(-1,0,0,-1,992,311.437)" fill="rgb(255,255,255)"/><rect x="119" y="164.5" width="754" height="6.438" transform="matrix(-1,0,0,-1,992,335.437)" fill="rgb(255,255,255)"/><rect x="143" y="176.5" width="706" height="6.438" transform="matrix(-1,0,0,-1,992,359.437)" fill="rgb(255,255,255)"/><path d=" M 163.51 119.124 L 163.51 119.124 L 163.51 119.124 Q 163.51 122.47 162.662 125.142 L 162.662 125.142 L 162.662 125.142 Q 161.815 127.815 160.424 129.857 L 160.424 129.857 L 160.424 129.857 Q 159.034 131.9 157.165 133.334 L 157.165 133.334 L 157.165 133.334 Q 155.296 134.768 153.297 135.681 L 153.297 135.681 L 153.297 135.681 Q 151.298 136.593 149.234 137.028 L 149.234 137.028 L 149.234 137.028 Q 147.17 137.462 145.345 137.462 L 145.345 137.462 L 101.757 137.462 L 101.757 126.164 L 145.345 126.164 L 145.345 126.164 Q 148.604 126.164 150.407 124.251 L 150.407 124.251 L 150.407 124.251 Q 152.211 122.339 152.211 119.124 L 152.211 119.124 L 152.211 119.124 Q 152.211 117.559 151.733 116.255 L 151.733 116.255 L 151.733 116.255 Q 151.255 114.952 150.364 113.996 L 150.364 113.996 L 150.364 113.996 Q 149.473 113.04 148.191 112.518 L 148.191 112.518 L 148.191 112.518 Q 146.909 111.997 145.345 111.997 L 145.345 111.997 L 119.357 111.997 L 119.357 111.997 Q 116.62 111.997 113.447 111.019 L 113.447 111.019 L 113.447 111.019 Q 110.275 110.041 107.559 107.868 L 107.559 107.868 L 107.559 107.868 Q 104.843 105.695 103.039 102.175 L 103.039 102.175 L 103.039 102.175 Q 101.236 98.655 101.236 93.571 L 101.236 93.571 L 101.236 93.571 Q 101.236 88.486 103.039 84.988 L 103.039 84.988 L 103.039 84.988 Q 104.843 81.49 107.559 79.295 L 107.559 79.295 L 107.559 79.295 Q 110.275 77.101 113.447 76.123 L 113.447 76.123 L 113.447 76.123 Q 116.62 75.145 119.357 75.145 L 119.357 75.145 L 157.817 75.145 L 157.817 86.444 L 119.357 86.444 L 119.357 86.444 Q 116.142 86.444 114.338 88.399 L 114.338 88.399 L 114.338 88.399 Q 112.535 90.355 112.535 93.571 L 112.535 93.571 L 112.535 93.571 Q 112.535 96.83 114.338 98.72 L 114.338 98.72 L 114.338 98.72 Q 116.142 100.611 119.357 100.611 L 119.357 100.611 L 145.345 100.611 L 145.432 100.611 L 145.432 100.611 Q 147.257 100.654 149.299 101.111 L 149.299 101.111 L 149.299 101.111 Q 151.342 101.567 153.363 102.523 L 153.363 102.523 L 153.363 102.523 Q 155.383 103.479 157.208 104.935 L 157.208 104.935 L 157.208 104.935 Q 159.034 106.391 160.446 108.433 L 160.446 108.433 L 160.446 108.433 Q 161.858 110.476 162.684 113.126 L 162.684 113.126 L 162.684 113.126 Q 163.51 115.777 163.51 119.124 Z  M 234.997 96.091 L 234.997 101.219 L 234.997 101.219 Q 234.997 105.087 234.041 108.129 L 234.041 108.129 L 234.041 108.129 Q 233.084 111.171 231.455 113.496 L 231.455 113.496 L 231.455 113.496 Q 229.825 115.821 227.696 117.472 L 227.696 117.472 L 227.696 117.472 Q 225.566 119.124 223.241 120.167 L 223.241 120.167 L 223.241 120.167 Q 220.917 121.209 218.548 121.688 L 218.548 121.688 L 218.548 121.688 Q 216.18 122.166 214.094 122.166 L 214.094 122.166 L 188.541 122.166 L 188.541 110.867 L 214.094 110.867 L 214.094 110.867 Q 216.267 110.693 218.027 109.976 L 218.027 109.976 L 218.027 109.976 Q 219.787 109.259 221.047 108.042 L 221.047 108.042 L 221.047 108.042 Q 222.307 106.825 223.002 105.109 L 223.002 105.109 L 223.002 105.109 Q 223.698 103.392 223.698 101.219 L 223.698 101.219 L 223.698 96.091 L 223.698 96.091 Q 223.48 93.962 222.785 92.18 L 222.785 92.18 L 222.785 92.18 Q 222.09 90.398 220.895 89.138 L 220.895 89.138 L 220.895 89.138 Q 219.7 87.878 218.005 87.161 L 218.005 87.161 L 218.005 87.161 Q 216.31 86.444 214.094 86.444 L 214.094 86.444 L 188.628 86.444 L 188.628 86.444 Q 186.368 86.444 185.195 87.617 L 185.195 87.617 L 185.195 87.617 Q 184.021 88.791 184.021 91.007 L 184.021 91.007 L 184.021 137.462 L 172.723 137.462 L 172.723 91.007 L 172.723 91.007 Q 172.723 86.661 174.309 83.619 L 174.309 83.619 L 174.309 83.619 Q 175.895 80.577 178.263 78.708 L 178.263 78.708 L 178.263 78.708 Q 180.632 76.84 183.413 75.992 L 183.413 75.992 L 183.413 75.992 Q 186.194 75.145 188.541 75.145 L 188.541 75.145 L 214.094 75.145 L 214.094 75.145 Q 217.918 75.145 220.96 76.123 L 220.96 76.123 L 220.96 76.123 Q 224.002 77.101 226.327 78.73 L 226.327 78.73 L 226.327 78.73 Q 228.652 80.36 230.281 82.489 L 230.281 82.489 L 230.281 82.489 Q 231.911 84.619 232.976 86.944 L 232.976 86.944 L 232.976 86.944 Q 234.041 89.269 234.519 91.637 L 234.519 91.637 L 234.519 91.637 Q 234.997 94.005 234.997 96.091 L 234.997 96.091 L 234.997 96.091 Z  M 295.88 100.611 L 295.88 111.997 L 260.202 111.997 L 260.202 100.611 L 295.88 100.611 L 295.88 100.611 Z  M 300.964 126.164 L 300.964 137.462 L 260.202 137.462 L 260.202 137.462 Q 257.855 137.462 255.074 136.637 L 255.074 136.637 L 255.074 136.637 Q 252.292 135.811 249.924 133.921 L 249.924 133.921 L 249.924 133.921 Q 247.556 132.03 245.969 129.01 L 245.969 129.01 L 245.969 129.01 Q 244.383 125.99 244.383 121.601 L 244.383 121.601 L 244.383 80.838 L 244.383 80.838 Q 244.383 79.665 244.818 78.622 L 244.818 78.622 L 244.818 78.622 Q 245.252 77.579 246.013 76.796 L 246.013 76.796 L 246.013 76.796 Q 246.773 76.014 247.816 75.58 L 247.816 75.58 L 247.816 75.58 Q 248.859 75.145 250.076 75.145 L 250.076 75.145 L 300.964 75.145 L 300.964 86.444 L 255.682 86.444 L 255.682 121.601 L 255.682 121.601 Q 255.682 123.817 256.855 124.99 L 256.855 124.99 L 256.855 124.99 Q 258.029 126.164 260.289 126.164 L 260.289 126.164 L 300.964 126.164 L 300.964 126.164 Z  M 367.28 126.164 L 367.28 137.462 L 326.517 137.462 L 326.517 137.462 Q 324.953 137.462 323.149 137.093 L 323.149 137.093 L 323.149 137.093 Q 321.346 136.724 319.586 135.941 L 319.586 135.941 L 319.586 135.941 Q 317.826 135.159 316.218 133.921 L 316.218 133.921 L 316.218 133.921 Q 314.61 132.682 313.371 130.922 L 313.371 130.922 L 313.371 130.922 Q 312.133 129.162 311.394 126.837 L 311.394 126.837 L 311.394 126.837 Q 310.655 124.512 310.655 121.601 L 310.655 121.601 L 310.655 91.007 L 310.655 91.007 Q 310.655 89.442 311.025 87.639 L 311.025 87.639 L 311.025 87.639 Q 311.394 85.835 312.176 84.075 L 312.176 84.075 L 312.176 84.075 Q 312.958 82.315 314.219 80.708 L 314.219 80.708 L 314.219 80.708 Q 315.479 79.1 317.239 77.861 L 317.239 77.861 L 317.239 77.861 Q 318.999 76.623 321.302 75.884 L 321.302 75.884 L 321.302 75.884 Q 323.605 75.145 326.517 75.145 L 326.517 75.145 L 367.28 75.145 L 367.28 86.444 L 326.517 86.444 L 326.517 86.444 Q 324.301 86.444 323.127 87.617 L 323.127 87.617 L 323.127 87.617 Q 321.954 88.791 321.954 91.094 L 321.954 91.094 L 321.954 121.601 L 321.954 121.601 Q 321.954 123.773 323.149 124.969 L 323.149 124.969 L 323.149 124.969 Q 324.344 126.164 326.517 126.164 L 326.517 126.164 L 367.28 126.164 L 367.28 126.164 Z  M 434.291 75.145 L 434.291 86.444 L 409.39 86.444 L 409.39 137.462 L 398.091 137.462 L 398.091 86.444 L 373.146 86.444 L 373.146 75.145 L 434.291 75.145 L 434.291 75.145 Z  M 504.865 88.877 L 504.865 96.091 L 504.865 96.091 Q 504.865 99.959 503.909 103.001 L 503.909 103.001 L 503.909 103.001 Q 502.953 106.043 501.323 108.368 L 501.323 108.368 L 501.323 108.368 Q 499.693 110.693 497.564 112.344 L 497.564 112.344 L 497.564 112.344 Q 495.435 113.996 493.11 115.06 L 493.11 115.06 L 493.11 115.06 Q 490.785 116.125 488.416 116.603 L 488.416 116.603 L 488.416 116.603 Q 486.048 117.081 483.962 117.081 L 483.962 117.081 L 507.559 137.462 L 490.089 137.462 L 466.536 117.081 L 458.409 117.081 L 458.409 105.782 L 483.962 105.782 L 483.962 105.782 Q 486.091 105.608 487.851 104.891 L 487.851 104.891 L 487.851 104.891 Q 489.611 104.174 490.893 102.958 L 490.893 102.958 L 490.893 102.958 Q 492.175 101.741 492.871 100.024 L 492.871 100.024 L 492.871 100.024 Q 493.566 98.308 493.566 96.091 L 493.566 96.091 L 493.566 88.964 L 493.566 88.964 Q 493.566 88.008 493.327 87.509 L 493.327 87.509 L 493.327 87.509 Q 493.088 87.009 492.719 86.77 L 492.719 86.77 L 492.719 86.77 Q 492.349 86.531 491.936 86.487 L 491.936 86.487 L 491.936 86.487 Q 491.523 86.444 491.176 86.444 L 491.176 86.444 L 453.89 86.444 L 453.89 137.462 L 442.591 137.462 L 442.591 80.838 L 442.591 80.838 Q 442.591 79.665 443.025 78.622 L 443.025 78.622 L 443.025 78.622 Q 443.46 77.579 444.22 76.796 L 444.22 76.796 L 444.22 76.796 Q 444.981 76.014 446.024 75.58 L 446.024 75.58 L 446.024 75.58 Q 447.067 75.145 448.284 75.145 L 448.284 75.145 L 491.176 75.145 L 491.176 75.145 Q 494.957 75.145 497.564 76.514 L 497.564 76.514 L 497.564 76.514 Q 500.171 77.883 501.801 79.947 L 501.801 79.947 L 501.801 79.947 Q 503.431 82.011 504.148 84.401 L 504.148 84.401 L 504.148 84.401 Q 504.865 86.792 504.865 88.877 L 504.865 88.877 L 504.865 88.877 Z  M 577.351 80.838 L 577.351 137.462 L 566.052 137.462 L 566.052 122.166 L 526.333 122.166 L 526.333 137.462 L 515.034 137.462 L 515.034 106.304 L 515.034 106.304 Q 515.034 99.481 517.38 93.745 L 517.38 93.745 L 517.38 93.745 Q 519.727 88.008 523.899 83.88 L 523.899 83.88 L 523.899 83.88 Q 528.071 79.751 533.764 77.448 L 533.764 77.448 L 533.764 77.448 Q 539.457 75.145 546.192 75.145 L 546.192 75.145 L 571.658 75.145 L 571.658 75.145 Q 572.832 75.145 573.875 75.58 L 573.875 75.58 L 573.875 75.58 Q 574.917 76.014 575.7 76.796 L 575.7 76.796 L 575.7 76.796 Q 576.482 77.579 576.917 78.622 L 576.917 78.622 L 576.917 78.622 Q 577.351 79.665 577.351 80.838 L 577.351 80.838 L 577.351 80.838 Z  M 526.333 106.304 L 526.333 110.867 L 566.052 110.867 L 566.052 86.444 L 546.192 86.444 L 546.192 86.444 Q 545.671 86.444 543.998 86.596 L 543.998 86.596 L 543.998 86.596 Q 542.325 86.748 540.13 87.356 L 540.13 87.356 L 540.13 87.356 Q 537.936 87.965 535.502 89.225 L 535.502 89.225 L 535.502 89.225 Q 533.068 90.485 531.026 92.702 L 531.026 92.702 L 531.026 92.702 Q 528.983 94.918 527.658 98.242 L 527.658 98.242 L 527.658 98.242 Q 526.333 101.567 526.333 106.304 L 526.333 106.304 L 526.333 106.304 Z  M 640.233 75.145 L 652.836 75.145 L 623.329 135.246 L 623.329 135.246 Q 622.633 136.637 621.264 137.484 L 621.264 137.484 L 621.264 137.484 Q 619.896 138.332 618.244 138.332 L 618.244 138.332 L 618.244 138.332 Q 616.636 138.332 615.267 137.484 L 615.267 137.484 L 615.267 137.484 Q 613.898 136.637 613.16 135.246 L 613.16 135.246 L 583.696 75.145 L 596.342 75.145 L 618.244 120.036 L 640.233 75.145 L 640.233 75.145 Z  M 670.61 75.145 L 670.61 137.462 L 659.311 137.462 L 659.311 75.145 L 670.61 75.145 L 670.61 75.145 Z  M 746.008 101.219 L 746.008 111.388 L 746.008 111.388 Q 746.008 117.081 744.031 121.861 L 744.031 121.861 L 744.031 121.861 Q 742.053 126.642 738.577 130.096 L 738.577 130.096 L 738.577 130.096 Q 735.1 133.551 730.32 135.507 L 730.32 135.507 L 730.32 135.507 Q 725.54 137.462 719.934 137.462 L 719.934 137.462 L 689.427 137.462 L 689.427 137.462 Q 688.21 137.462 687.167 137.028 L 687.167 137.028 L 687.167 137.028 Q 686.124 136.593 685.364 135.833 L 685.364 135.833 L 685.364 135.833 Q 684.603 135.072 684.168 134.029 L 684.168 134.029 L 684.168 134.029 Q 683.734 132.986 683.734 131.77 L 683.734 131.77 L 683.734 80.838 L 683.734 80.838 Q 683.734 79.665 684.168 78.622 L 684.168 78.622 L 684.168 78.622 Q 684.603 77.579 685.364 76.796 L 685.364 76.796 L 685.364 76.796 Q 686.124 76.014 687.167 75.58 L 687.167 75.58 L 687.167 75.58 Q 688.21 75.145 689.427 75.145 L 689.427 75.145 L 719.934 75.145 L 719.934 75.145 Q 725.54 75.145 730.32 77.101 L 730.32 77.101 L 730.32 77.101 Q 735.1 79.056 738.577 82.511 L 738.577 82.511 L 738.577 82.511 Q 742.053 85.966 744.031 90.768 L 744.031 90.768 L 744.031 90.768 Q 746.008 95.57 746.008 101.219 L 746.008 101.219 L 746.008 101.219 Z  M 734.709 111.388 L 734.709 101.219 L 734.709 101.219 Q 734.709 97.917 733.644 95.179 L 733.644 95.179 L 733.644 95.179 Q 732.58 92.441 730.624 90.507 L 730.624 90.507 L 730.624 90.507 Q 728.668 88.573 725.952 87.509 L 725.952 87.509 L 725.952 87.509 Q 723.236 86.444 719.934 86.444 L 719.934 86.444 L 695.033 86.444 L 695.033 126.164 L 719.934 126.164 L 719.934 126.164 Q 723.236 126.164 725.952 125.099 L 725.952 125.099 L 725.952 125.099 Q 728.668 124.034 730.624 122.1 L 730.624 122.1 L 730.624 122.1 Q 732.58 120.167 733.644 117.45 L 733.644 117.45 L 733.644 117.45 Q 734.709 114.734 734.709 111.388 L 734.709 111.388 L 734.709 111.388 Z  M 808.325 100.611 L 808.325 111.997 L 772.647 111.997 L 772.647 100.611 L 808.325 100.611 L 808.325 100.611 Z  M 813.41 126.164 L 813.41 137.462 L 772.647 137.462 L 772.647 137.462 Q 770.3 137.462 767.519 136.637 L 767.519 136.637 L 767.519 136.637 Q 764.738 135.811 762.369 133.921 L 762.369 133.921 L 762.369 133.921 Q 760.001 132.03 758.415 129.01 L 758.415 129.01 L 758.415 129.01 Q 756.829 125.99 756.829 121.601 L 756.829 121.601 L 756.829 80.838 L 756.829 80.838 Q 756.829 79.665 757.263 78.622 L 757.263 78.622 L 757.263 78.622 Q 757.698 77.579 758.458 76.796 L 758.458 76.796 L 758.458 76.796 Q 759.219 76.014 760.262 75.58 L 760.262 75.58 L 760.262 75.58 Q 761.305 75.145 762.521 75.145 L 762.521 75.145 L 813.41 75.145 L 813.41 86.444 L 768.127 86.444 L 768.127 121.601 L 768.127 121.601 Q 768.127 123.817 769.301 124.99 L 769.301 124.99 L 769.301 124.99 Q 770.474 126.164 772.734 126.164 L 772.734 126.164 L 813.41 126.164 L 813.41 126.164 Z  M 889.025 100.35 L 889.025 112.257 L 889.025 112.257 Q 889.025 117.95 887.069 122.73 L 887.069 122.73 L 887.069 122.73 Q 885.114 127.511 881.637 130.987 L 881.637 130.987 L 881.637 130.987 Q 878.161 134.464 873.402 136.398 L 873.402 136.398 L 873.402 136.398 Q 868.644 138.332 863.038 138.332 L 863.038 138.332 L 847.741 138.332 L 847.741 138.332 Q 842.135 138.332 837.354 136.398 L 837.354 136.398 L 837.354 136.398 Q 832.574 134.464 829.098 130.987 L 829.098 130.987 L 829.098 130.987 Q 825.621 127.511 823.644 122.73 L 823.644 122.73 L 823.644 122.73 Q 821.667 117.95 821.667 112.257 L 821.667 112.257 L 821.667 100.35 L 821.667 100.35 Q 821.667 94.701 823.644 89.899 L 823.644 89.899 L 823.644 89.899 Q 825.621 85.097 829.098 81.642 L 829.098 81.642 L 829.098 81.642 Q 832.574 78.187 837.354 76.231 L 837.354 76.231 L 837.354 76.231 Q 842.135 74.276 847.741 74.276 L 847.741 74.276 L 863.038 74.276 L 863.038 74.276 Q 868.644 74.276 873.402 76.231 L 873.402 76.231 L 873.402 76.231 Q 878.161 78.187 881.637 81.642 L 881.637 81.642 L 881.637 81.642 Q 885.114 85.097 887.069 89.899 L 887.069 89.899 L 887.069 89.899 Q 889.025 94.701 889.025 100.35 L 889.025 100.35 L 889.025 100.35 Z  M 877.726 112.257 L 877.726 100.35 L 877.726 100.35 Q 877.726 97.004 876.661 94.288 L 876.661 94.288 L 876.661 94.288 Q 875.597 91.572 873.663 89.638 L 873.663 89.638 L 873.663 89.638 Q 871.729 87.704 869.013 86.639 L 869.013 86.639 L 869.013 86.639 Q 866.297 85.575 863.038 85.575 L 863.038 85.575 L 847.741 85.575 L 847.741 85.575 Q 844.438 85.575 841.722 86.639 L 841.722 86.639 L 841.722 86.639 Q 839.006 87.704 837.05 89.638 L 837.05 89.638 L 837.05 89.638 Q 835.095 91.572 834.03 94.288 L 834.03 94.288 L 834.03 94.288 Q 832.965 97.004 832.965 100.35 L 832.965 100.35 L 832.965 112.257 L 832.965 112.257 Q 832.965 115.604 834.03 118.32 L 834.03 118.32 L 834.03 118.32 Q 835.095 121.036 837.05 122.969 L 837.05 122.969 L 837.05 122.969 Q 839.006 124.903 841.722 125.968 L 841.722 125.968 L 841.722 125.968 Q 844.438 127.033 847.741 127.033 L 847.741 127.033 L 862.951 127.033 L 862.951 127.033 Q 866.253 127.033 868.969 125.968 L 868.969 125.968 L 868.969 125.968 Q 871.686 124.903 873.641 122.969 L 873.641 122.969 L 873.641 122.969 Q 875.597 121.036 876.661 118.32 L 876.661 118.32 L 876.661 118.32 Q 877.726 115.604 877.726 112.257 L 877.726 112.257 L 877.726 112.257 Z " fill="rgb(255,255,255)"/><rect x="48.125" y="220.062" width="895.75" height="1.563" transform="matrix(1,0,0,1,0,0)" fill="rgb(255,255,255)"/></g></svg>