<?xml version="1.0" encoding="UTF-8" standalone="no"?><!-- Generator: Gravit.io --><svg xmlns="http://www.w3.org/2000/svg" xmlns:xlink="http://www.w3.org/1999/xlink" style="isolation:isolate" viewBox="0 0 992 250" width="992pt" height="250pt"><defs><clipPath id="_clipPath_W5y6k95uKu8jQ1PI3Fs6Ke2TTOOM3Son"><rect width="992" height="250"/></clipPath></defs><g clip-path="url(#_clipPath_W5y6k95uKu8jQ1PI3Fs6Ke2TTOOM3Son)"><path d=" M 557.044 81.278 L 631.791 81.278 L 627.534 102.72 L 600.536 102.72 L 582.581 194.708 L 561.833 194.708 L 579.787 102.72 L 552.789 102.72 L 557.044 81.278 Z  M 715.315 81.278 L 701.349 153.461 L 701.349 153.461 Q 696.828 176.54 686.653 186.77 L 686.653 186.77 L 686.653 186.77 Q 676.479 197 659.721 197 L 659.721 197 L 659.721 197 Q 651.076 197 645.157 194.463 L 645.157 194.463 L 645.157 194.463 Q 639.239 191.926 635.515 187.425 L 635.515 187.425 L 635.515 187.425 Q 631.791 182.923 630.128 176.622 L 630.128 176.622 L 630.128 176.622 Q 628.466 170.32 628.466 162.954 L 628.466 162.954 L 628.466 162.954 Q 628.466 154.443 630.461 144.786 L 630.461 144.786 L 642.83 81.278 L 663.578 81.278 L 650.544 148.387 L 650.544 148.387 Q 649.214 154.279 649.214 160.336 L 649.214 160.336 L 649.214 160.336 Q 649.214 163.609 649.812 166.228 L 649.812 166.228 L 649.812 166.228 Q 650.411 168.847 651.94 170.811 L 651.94 170.811 L 651.94 170.811 Q 653.469 172.775 656.063 173.839 L 656.063 173.839 L 656.063 173.839 Q 658.656 174.903 662.513 174.903 L 662.513 174.903 L 662.513 174.903 Q 670.494 174.903 674.617 168.765 L 674.617 168.765 L 674.617 168.765 Q 678.74 162.627 681 151.333 L 681 151.333 L 694.567 81.278 L 715.315 81.278 Z  M 761.333 79.968 L 761.333 79.968 L 761.333 79.968 Q 770.244 79.968 776.893 82.587 L 776.893 82.587 L 776.893 82.587 Q 783.544 85.206 787.932 89.626 L 787.932 89.626 L 787.932 89.626 Q 792.321 94.045 794.45 100.019 L 794.45 100.019 L 794.45 100.019 Q 796.578 105.994 796.578 112.541 L 796.578 112.541 L 796.578 112.541 Q 796.578 117.942 795.58 123.18 L 795.58 123.18 L 795.58 123.18 Q 794.583 128.418 791.856 133.165 L 791.856 133.165 L 791.856 133.165 Q 789.13 137.911 784.541 141.922 L 784.541 141.922 L 784.541 141.922 Q 779.953 145.932 772.771 148.714 L 772.771 148.714 L 772.771 148.714 Q 776.495 157.226 780.418 169.338 L 780.418 169.338 L 780.418 169.338 Q 784.341 181.45 787.799 194.708 L 787.799 194.708 L 765.589 194.708 L 765.589 194.708 Q 762.529 183.415 759.404 172.366 L 759.404 172.366 L 759.404 172.366 Q 756.279 161.318 752.422 153.297 L 752.422 153.297 L 742.047 153.297 L 733.935 194.708 L 713.32 194.708 L 734.998 82.915 L 734.998 82.915 Q 742.18 81.278 748.964 80.623 L 748.964 80.623 L 748.964 80.623 Q 755.747 79.968 761.333 79.968 Z  M 760.667 101.574 L 760.667 101.574 L 760.667 101.574 Q 758.406 101.574 756.013 101.738 L 756.013 101.738 L 756.013 101.738 Q 753.619 101.902 752.023 102.065 L 752.023 102.065 L 746.037 133.165 L 753.086 133.165 L 753.086 133.165 Q 759.471 133.165 763.859 131.691 L 763.859 131.691 L 763.859 131.691 Q 768.248 130.218 770.909 127.763 L 770.909 127.763 L 770.909 127.763 Q 773.568 125.308 774.699 122.116 L 774.699 122.116 L 774.699 122.116 Q 775.83 118.924 775.83 115.651 L 775.83 115.651 L 775.83 115.651 Q 775.83 112.868 775.164 110.331 L 775.164 110.331 L 775.164 110.331 Q 774.5 107.794 772.771 105.83 L 772.771 105.83 L 772.771 105.83 Q 771.042 103.866 768.115 102.72 L 768.115 102.72 L 768.115 102.72 Q 765.19 101.574 760.667 101.574 Z  M 832.089 196.182 L 832.089 196.182 L 832.089 196.182 Q 824.109 196.182 815.729 195.363 L 815.729 195.363 L 815.729 195.363 Q 807.351 194.545 800.568 192.744 L 800.568 192.744 L 821.847 83.078 L 821.847 83.078 Q 829.429 81.278 837.741 80.623 L 837.741 80.623 L 837.741 80.623 Q 846.054 79.968 852.969 79.968 L 852.969 79.968 L 852.969 79.968 Q 860.95 79.968 866.735 82.014 L 866.735 82.014 L 866.735 82.014 Q 872.521 84.06 876.178 87.498 L 876.178 87.498 L 876.178 87.498 Q 879.836 90.935 881.631 95.6 L 881.631 95.6 L 881.631 95.6 Q 883.427 100.265 883.427 105.503 L 883.427 105.503 L 883.427 105.503 Q 883.427 109.104 882.828 113.032 L 882.828 113.032 L 882.828 113.032 Q 882.229 116.96 880.434 120.807 L 880.434 120.807 L 880.434 120.807 Q 878.638 124.653 875.513 128.091 L 875.513 128.091 L 875.513 128.091 Q 872.388 131.528 867.333 134.31 L 867.333 134.31 L 867.333 134.31 Q 873.318 137.584 876.112 143.231 L 876.112 143.231 L 876.112 143.231 Q 878.904 148.878 878.904 155.753 L 878.904 155.753 L 878.904 155.753 Q 878.904 163.609 876.378 170.893 L 876.378 170.893 L 876.378 170.893 Q 873.851 178.177 868.265 183.824 L 868.265 183.824 L 868.265 183.824 Q 862.679 189.471 853.768 192.826 L 853.768 192.826 L 853.768 192.826 Q 844.857 196.182 832.089 196.182 Z  M 844.591 145.113 L 830.227 145.113 L 824.508 174.576 L 824.508 174.576 Q 826.635 175.067 829.894 175.312 L 829.894 175.312 L 829.894 175.312 Q 833.153 175.558 835.945 175.558 L 835.945 175.558 L 835.945 175.558 Q 839.935 175.558 843.859 174.821 L 843.859 174.821 L 843.859 174.821 Q 847.782 174.085 850.908 172.121 L 850.908 172.121 L 850.908 172.121 Q 854.034 170.156 856.029 166.719 L 856.029 166.719 L 856.029 166.719 Q 858.023 163.282 858.023 157.88 L 858.023 157.88 L 858.023 157.88 Q 858.023 155.589 857.292 153.297 L 857.292 153.297 L 857.292 153.297 Q 856.56 151.006 854.964 149.205 L 854.964 149.205 L 854.964 149.205 Q 853.369 147.405 850.775 146.259 L 850.775 146.259 L 850.775 146.259 Q 848.182 145.113 844.591 145.113 L 844.591 145.113 Z  M 838.872 101.083 L 834.083 125.963 L 847.117 125.963 L 847.117 125.963 Q 855.097 125.963 859.021 121.707 L 859.021 121.707 L 859.021 121.707 Q 862.945 117.451 862.945 111.559 L 862.945 111.559 L 862.945 111.559 Q 862.945 108.449 861.814 106.239 L 861.814 106.239 L 861.814 106.239 Q 860.683 104.029 858.821 102.72 L 858.821 102.72 L 858.821 102.72 Q 856.959 101.411 854.565 100.838 L 854.565 100.838 L 854.565 100.838 Q 852.172 100.265 849.644 100.265 L 849.644 100.265 L 849.644 100.265 Q 846.852 100.265 843.659 100.51 L 843.659 100.51 L 843.659 100.51 Q 840.468 100.756 838.872 101.083 L 838.872 101.083 Z  M 944.607 100.592 L 944.607 100.592 L 944.607 100.592 Q 938.489 100.592 933.235 104.521 L 933.235 104.521 L 933.235 104.521 Q 927.982 108.449 924.058 114.996 L 924.058 114.996 L 924.058 114.996 Q 920.135 121.543 917.94 130.055 L 917.94 130.055 L 917.94 130.055 Q 915.745 138.566 915.745 147.568 L 915.745 147.568 L 915.745 147.568 Q 915.745 159.845 919.935 167.456 L 919.935 167.456 L 919.935 167.456 Q 924.125 175.067 933.568 175.067 L 933.568 175.067 L 933.568 175.067 Q 939.685 175.067 944.939 171.138 L 944.939 171.138 L 944.939 171.138 Q 950.193 167.21 954.116 160.663 L 954.116 160.663 L 954.116 160.663 Q 958.039 154.116 960.234 145.686 L 960.234 145.686 L 960.234 145.686 Q 962.429 137.257 962.429 128.091 L 962.429 128.091 L 962.429 128.091 Q 962.429 115.814 958.239 108.203 L 958.239 108.203 L 958.239 108.203 Q 954.049 100.592 944.607 100.592 Z  M 931.44 197 L 931.44 197 L 931.44 197 Q 923.326 197 916.544 193.726 L 916.544 193.726 L 916.544 193.726 Q 909.76 190.453 904.839 184.315 L 904.839 184.315 L 904.839 184.315 Q 899.919 178.177 897.192 169.338 L 897.192 169.338 L 897.192 169.338 Q 894.466 160.499 894.466 149.369 L 894.466 149.369 L 894.466 149.369 Q 894.466 136.602 898.057 123.998 L 898.057 123.998 L 898.057 123.998 Q 901.648 111.395 908.364 101.329 L 908.364 101.329 L 908.364 101.329 Q 915.081 91.262 924.789 84.961 L 924.789 84.961 L 924.789 84.961 Q 934.498 78.659 946.734 78.659 L 946.734 78.659 L 946.734 78.659 Q 954.847 78.659 961.63 81.933 L 961.63 81.933 L 961.63 81.933 Q 968.414 85.206 973.334 91.344 L 973.334 91.344 L 973.334 91.344 Q 978.255 97.482 980.982 106.321 L 980.982 106.321 L 980.982 106.321 Q 983.708 115.16 983.708 126.29 L 983.708 126.29 L 983.708 126.29 Q 983.708 139.057 980.184 151.742 L 980.184 151.742 L 980.184 151.742 Q 976.659 164.428 969.943 174.494 L 969.943 174.494 L 969.943 174.494 Q 963.227 184.56 953.518 190.78 L 953.518 190.78 L 953.518 190.78 Q 943.808 197 931.44 197 Z  M 46.989 175.722 L 46.989 175.722 L 46.989 175.722 Q 50.049 175.722 53.107 175.149 L 53.107 175.149 L 53.107 175.149 Q 56.167 174.576 58.561 173.103 L 58.561 173.103 L 58.561 173.103 Q 60.954 171.63 62.484 168.929 L 62.484 168.929 L 62.484 168.929 Q 64.013 166.228 64.013 161.972 L 64.013 161.972 L 64.013 161.972 Q 64.013 158.699 62.55 156.325 L 62.55 156.325 L 62.55 156.325 Q 61.088 153.952 58.826 151.988 L 58.826 151.988 L 58.826 151.988 Q 56.565 150.024 53.772 148.387 L 53.772 148.387 L 53.772 148.387 Q 50.979 146.75 48.187 144.786 L 48.187 144.786 L 48.187 144.786 Q 44.596 142.167 41.403 139.221 L 41.403 139.221 L 41.403 139.221 Q 38.211 136.275 35.951 132.592 L 35.951 132.592 L 35.951 132.592 Q 33.689 128.909 32.36 124.408 L 32.36 124.408 L 32.36 124.408 Q 31.029 119.906 31.029 114.014 L 31.029 114.014 L 31.029 114.014 Q 31.029 106.485 33.357 100.019 L 33.357 100.019 L 33.357 100.019 Q 35.685 93.554 40.273 88.807 L 40.273 88.807 L 40.273 88.807 Q 44.861 84.06 51.778 81.36 L 51.778 81.36 L 51.778 81.36 Q 58.694 78.659 68.004 78.659 L 68.004 78.659 L 68.004 78.659 Q 72.259 78.659 76.249 79.559 L 76.249 79.559 L 76.249 79.559 Q 80.24 80.459 83.698 81.769 L 83.698 81.769 L 83.698 81.769 Q 87.156 83.078 90.015 84.797 L 90.015 84.797 L 90.015 84.797 Q 92.874 86.516 94.869 88.152 L 94.869 88.152 L 86.225 106.976 L 86.225 106.976 Q 82.899 103.866 78.112 101.738 L 78.112 101.738 L 78.112 101.738 Q 73.324 99.61 67.738 99.61 L 67.738 99.61 L 67.738 99.61 Q 64.678 99.61 61.886 100.265 L 61.886 100.265 L 61.886 100.265 Q 59.092 100.92 56.965 102.475 L 56.965 102.475 L 56.965 102.475 Q 54.836 104.029 53.573 106.485 L 53.573 106.485 L 53.573 106.485 Q 52.31 108.94 52.31 112.541 L 52.31 112.541 L 52.31 112.541 Q 52.31 115.814 53.307 118.024 L 53.307 118.024 L 53.307 118.024 Q 54.305 120.234 55.901 121.871 L 55.901 121.871 L 55.901 121.871 Q 57.496 123.507 59.625 124.817 L 59.625 124.817 L 59.625 124.817 Q 61.752 126.126 64.146 127.599 L 64.146 127.599 L 64.146 127.599 Q 68.27 130.218 72.127 133.165 L 72.127 133.165 L 72.127 133.165 Q 75.983 136.111 78.91 139.957 L 78.91 139.957 L 78.91 139.957 Q 81.836 143.804 83.564 148.714 L 83.564 148.714 L 83.564 148.714 Q 85.294 153.625 85.294 160.336 L 85.294 160.336 L 85.294 160.336 Q 85.294 169.665 82.501 176.54 L 82.501 176.54 L 82.501 176.54 Q 79.707 183.415 74.654 187.998 L 74.654 187.998 L 74.654 187.998 Q 69.6 192.581 62.617 194.79 L 62.617 194.79 L 62.617 194.79 Q 55.634 197 47.123 197 L 47.123 197 L 47.123 197 Q 41.536 197 36.682 195.854 L 36.682 195.854 L 36.682 195.854 Q 31.827 194.708 27.904 193.154 L 27.904 193.154 L 27.904 193.154 Q 23.98 191.599 21.121 189.798 L 21.121 189.798 L 21.121 189.798 Q 18.261 187.998 16.532 186.524 L 16.532 186.524 L 25.31 167.046 L 25.31 167.046 Q 26.906 168.356 29.167 169.829 L 29.167 169.829 L 29.167 169.829 Q 31.428 171.302 34.288 172.612 L 34.288 172.612 L 34.288 172.612 Q 37.147 173.921 40.34 174.821 L 40.34 174.821 L 40.34 174.821 Q 43.532 175.722 46.989 175.722 Z  M 188.368 81.278 L 174.404 153.461 L 174.404 153.461 Q 169.882 176.54 159.707 186.77 L 159.707 186.77 L 159.707 186.77 Q 149.533 197 132.775 197 L 132.775 197 L 132.775 197 Q 124.13 197 118.211 194.463 L 118.211 194.463 L 118.211 194.463 Q 112.293 191.926 108.568 187.425 L 108.568 187.425 L 108.568 187.425 Q 104.844 182.923 103.182 176.622 L 103.182 176.622 L 103.182 176.622 Q 101.52 170.32 101.52 162.954 L 101.52 162.954 L 101.52 162.954 Q 101.52 154.443 103.515 144.786 L 103.515 144.786 L 115.883 81.278 L 136.632 81.278 L 123.598 148.387 L 123.598 148.387 Q 122.268 154.279 122.268 160.336 L 122.268 160.336 L 122.268 160.336 Q 122.268 163.609 122.866 166.228 L 122.866 166.228 L 122.866 166.228 Q 123.465 168.847 124.994 170.811 L 124.994 170.811 L 124.994 170.811 Q 126.523 172.775 129.117 173.839 L 129.117 173.839 L 129.117 173.839 Q 131.71 174.903 135.568 174.903 L 135.568 174.903 L 135.568 174.903 Q 143.548 174.903 147.671 168.765 L 147.671 168.765 L 147.671 168.765 Q 151.794 162.627 154.055 151.333 L 154.055 151.333 L 167.62 81.278 L 188.368 81.278 Z  M 206.988 194.708 L 186.374 194.708 L 208.452 81.278 L 268.168 81.278 L 263.913 102.393 L 224.943 102.393 L 220.288 126.617 L 254.736 126.617 L 250.613 147.732 L 216.165 147.732 L 206.988 194.708 Z  M 339.988 194.708 L 319.108 194.708 L 319.108 194.708 Q 318.841 188.325 318.509 182.187 L 318.509 182.187 L 318.509 182.187 Q 318.177 176.049 317.777 169.993 L 317.777 169.993 L 283.198 169.993 L 283.198 169.993 Q 280.538 176.049 277.612 182.187 L 277.612 182.187 L 277.612 182.187 Q 274.685 188.325 272.026 194.708 L 272.026 194.708 L 250.346 194.708 L 250.346 194.708 Q 258.991 176.376 266.506 160.827 L 266.506 160.827 L 266.506 160.827 Q 274.021 145.277 281.003 131.528 L 281.003 131.528 L 281.003 131.528 Q 287.986 117.779 294.635 105.421 L 294.635 105.421 L 294.635 105.421 Q 301.285 93.063 308.202 81.278 L 308.202 81.278 L 326.689 81.278 L 326.689 81.278 Q 328.816 93.063 330.745 107.385 L 330.745 107.385 L 330.745 107.385 Q 332.673 121.707 334.336 136.684 L 334.336 136.684 L 334.336 136.684 Q 335.999 151.661 337.395 166.637 L 337.395 166.637 L 337.395 166.637 Q 338.792 181.614 339.988 194.708 L 339.988 194.708 Z  M 312.99 106.157 L 312.99 106.157 L 312.99 106.157 Q 307.404 117.124 302.017 127.927 L 302.017 127.927 L 302.017 127.927 Q 296.63 138.73 291.577 150.024 L 291.577 150.024 L 316.448 150.024 L 316.448 150.024 Q 315.783 140.039 315.051 128.745 L 315.051 128.745 L 315.051 128.745 Q 314.319 117.451 312.99 106.157 Z  M 380.022 81.278 L 398.642 81.278 L 398.642 81.278 Q 399.44 85.697 400.703 93.799 L 400.703 93.799 L 400.703 93.799 Q 401.966 101.902 403.363 111.641 L 403.363 111.641 L 403.363 111.641 Q 404.759 121.38 406.223 131.61 L 406.223 131.61 L 406.223 131.61 Q 407.685 141.84 408.883 150.351 L 408.883 150.351 L 408.883 150.351 Q 413.405 141.84 418.724 132.019 L 418.724 132.019 L 418.724 132.019 Q 424.044 122.198 429.232 112.705 L 429.232 112.705 L 429.232 112.705 Q 434.418 103.211 439.073 94.945 L 439.073 94.945 L 439.073 94.945 Q 443.728 86.679 447.053 81.278 L 447.053 81.278 L 465.408 81.278 L 465.408 81.278 Q 464.477 92.572 462.947 106.648 L 462.947 106.648 L 462.947 106.648 Q 461.418 120.725 459.489 135.783 L 459.489 135.783 L 459.489 135.783 Q 457.56 150.842 455.432 166.064 L 455.432 166.064 L 455.432 166.064 Q 453.305 181.287 451.177 194.708 L 451.177 194.708 L 430.961 194.708 L 430.961 194.708 Q 433.754 178.013 436.879 158.617 L 436.879 158.617 L 436.879 158.617 Q 440.004 139.221 442.664 119.415 L 442.664 119.415 L 442.664 119.415 Q 439.207 126.126 434.951 134.392 L 434.951 134.392 L 434.951 134.392 Q 430.694 142.658 426.439 151.088 L 426.439 151.088 L 426.439 151.088 Q 422.182 159.517 418.193 167.21 L 418.193 167.21 L 418.193 167.21 Q 414.203 174.903 411.276 180.305 L 411.276 180.305 L 396.115 180.305 L 396.115 180.305 Q 395.449 175.394 394.518 167.865 L 394.518 167.865 L 394.518 167.865 Q 393.587 160.336 392.457 151.906 L 392.457 151.906 L 392.457 151.906 Q 391.327 143.476 390.129 134.883 L 390.129 134.883 L 390.129 134.883 Q 388.932 126.29 387.868 119.415 L 387.868 119.415 L 387.868 119.415 Q 382.681 139.221 378.492 158.617 L 378.492 158.617 L 378.492 158.617 Q 374.302 178.013 370.711 194.708 L 370.711 194.708 L 350.629 194.708 L 350.629 194.708 Q 353.688 181.287 357.345 166.064 L 357.345 166.064 L 357.345 166.064 Q 361.003 150.842 364.926 135.702 L 364.926 135.702 L 364.926 135.702 Q 368.849 120.561 372.707 106.485 L 372.707 106.485 L 372.707 106.485 Q 376.564 92.408 380.022 81.278 L 380.022 81.278 Z  M 470.063 194.708 L 492.141 81.278 L 512.888 81.278 L 490.677 194.708 L 470.063 194.708 Z " fill="rgb(34,92,208)"/><path d=" M 742.826 16.899 C 741.71 14.729 739.664 11.195 737.99 8.901 L 733.092 10.885 C 734.828 13.241 736.626 16.465 737.928 19.069 L 742.826 16.899 Z  M 734.642 18.759 C 733.526 16.465 731.48 12.931 729.93 10.637 L 725.032 12.683 C 726.706 15.039 728.442 18.387 729.682 20.867 L 734.642 18.759 Z  M 696.636 35.251 C 694.094 40.459 689.134 47.279 684.98 51.247 L 691.676 55.835 C 695.086 52.177 700.79 44.055 703.642 38.537 L 696.636 35.251 Z  M 732.162 29.733 C 733.836 29.733 736.254 29.795 738.176 29.919 L 738.176 21.797 C 736.564 22.045 733.836 22.231 732.1 22.231 L 717.654 22.231 L 717.654 17.271 C 717.654 15.721 718.088 12.745 718.212 11.877 L 709.036 11.877 C 709.284 12.931 709.594 15.659 709.594 17.271 L 709.594 22.231 L 693.846 22.231 C 691.924 22.231 689.692 21.983 687.832 21.735 L 687.832 29.981 C 689.568 29.795 691.986 29.733 693.846 29.733 L 709.594 29.733 L 709.594 29.795 C 709.594 32.709 709.594 52.363 709.532 54.657 C 709.47 56.269 708.85 56.889 707.238 56.889 C 705.75 56.889 703.022 56.641 700.356 56.145 L 701.1 63.833 C 704.262 64.205 707.858 64.391 711.206 64.391 C 715.608 64.391 717.654 62.159 717.654 58.563 L 717.654 29.733 L 732.162 29.733 Z  M 723.544 38.723 C 726.52 42.505 730.922 50.007 733.588 55.339 L 740.904 51.371 C 738.424 46.845 733.464 39.033 730.302 35.065 L 723.544 38.723 Z  M 607.914 17.333 C 606.55 17.767 604.442 18.015 602.52 18.015 L 589.81 18.015 L 589.872 17.953 C 590.616 16.651 592.228 13.799 593.716 11.629 L 584.726 8.839 C 584.168 11.009 582.866 13.861 581.936 15.349 C 578.836 20.743 573.07 29.237 562.158 35.933 L 568.854 41.079 C 575.116 36.801 580.882 30.849 585.222 25.083 L 603.016 25.083 C 602.086 28.803 599.606 33.887 596.568 38.289 C 592.414 35.809 588.198 33.453 584.912 31.779 L 579.642 37.669 C 582.804 39.467 587.02 42.009 591.236 44.737 C 586.09 50.007 579.084 55.277 568.11 58.625 L 575.302 64.887 C 585.346 61.043 592.662 55.463 598.18 49.449 C 600.474 51.061 602.458 52.549 603.946 53.851 L 609.588 46.597 C 608.038 45.481 605.93 44.055 603.636 42.629 C 607.728 36.677 610.58 30.415 612.192 25.641 C 612.75 24.091 613.556 22.417 614.238 21.239 L 607.914 17.333 Z  M 626.204 41.823 C 628.498 41.637 632.652 41.513 636.186 41.513 L 669.48 41.513 C 672.084 41.513 675.246 41.761 676.734 41.823 L 676.734 32.089 C 675.122 32.213 672.332 32.461 669.48 32.461 L 636.186 32.461 C 632.962 32.461 628.436 32.275 626.204 32.089 L 626.204 41.823 Z  M 514.17 12.249 L 511.256 19.565 C 519.998 20.681 537.606 24.649 544.798 27.315 L 547.96 19.565 C 540.148 16.837 522.292 13.241 514.17 12.249 Z  M 511.318 28.927 L 508.466 36.429 C 517.704 37.917 533.576 41.513 540.706 44.241 L 543.744 36.491 C 535.932 33.763 520.184 30.415 511.318 28.927 Z  M 508.156 46.659 L 505.056 54.471 C 514.976 55.959 534.568 60.237 542.938 63.709 L 546.348 55.959 C 537.854 52.735 518.758 48.271 508.156 46.659 Z  M 421.542 15.597 C 419.868 16.031 417.884 16.093 416.644 16.093 L 388 16.093 C 385.954 16.093 382.42 15.783 380.56 15.597 L 380.56 24.339 C 382.172 24.215 385.148 24.091 387.938 24.091 L 416.83 24.091 C 416.024 29.361 413.668 36.429 409.576 41.575 C 404.554 47.837 397.548 53.231 385.272 56.083 L 392.03 63.523 C 403.066 59.989 411.312 53.851 416.954 46.411 C 422.1 39.529 424.828 29.919 426.254 23.843 C 426.564 22.479 427.06 20.743 427.618 19.503 L 421.542 15.597 Z  M 459.796 36.367 C 460.044 37.669 460.23 39.281 460.23 40.769 C 460.23 48.581 458.928 54.099 451.922 58.873 C 450.062 60.175 448.512 60.919 446.9 61.539 L 453.472 66.809 C 467.98 58.873 467.98 47.961 468.352 36.367 L 459.796 36.367 Z  M 485.03 25.703 C 484.038 26.013 481.372 26.137 480.008 26.137 L 451.24 26.137 C 449.194 26.137 446.714 25.951 444.792 25.641 L 444.792 33.639 C 447.086 33.391 449.194 33.267 451.24 33.267 L 478.148 33.267 C 476.66 35.871 472.754 40.273 469.22 42.691 L 475.42 47.031 C 479.822 43.621 485.588 35.809 487.758 32.337 C 488.13 31.717 488.998 30.539 489.618 29.857 L 485.03 25.703 Z  M 295.124 14.977 C 293.884 15.411 291.404 15.783 288.676 15.783 L 266.852 15.783 C 264.992 15.783 261.21 15.597 259.536 15.349 L 259.536 24.153 C 260.838 24.091 264.248 23.719 266.852 23.719 L 287.87 23.719 C 286.506 28.121 282.724 34.259 278.632 38.909 C 272.804 45.419 263.194 52.921 253.212 56.703 L 259.598 63.399 C 268.092 59.369 276.338 52.921 282.91 45.977 C 288.738 51.619 294.504 57.943 298.534 63.523 L 305.602 57.385 C 301.944 52.921 294.442 44.985 288.304 39.653 C 292.458 34.073 295.93 27.439 298.038 22.603 C 298.596 21.363 299.712 19.441 300.208 18.759 L 295.124 14.977 Z  M 316.204 41.823 C 318.498 41.637 322.652 41.513 326.186 41.513 L 359.48 41.513 C 362.084 41.513 365.246 41.761 366.734 41.823 L 366.734 32.089 C 365.122 32.213 362.332 32.461 359.48 32.461 L 326.186 32.461 C 322.962 32.461 318.436 32.275 316.204 32.089 L 316.204 41.823 Z " fill-rule="evenodd" fill="rgb(66,66,66)"/><path d=" M 741.326 15.024 C 740.21 12.854 738.164 9.32 736.49 7.026 L 731.592 9.01 C 733.328 11.366 735.126 14.59 736.428 17.194 L 741.326 15.024 Z  M 733.142 16.884 C 732.026 14.59 729.98 11.056 728.43 8.762 L 723.532 10.808 C 725.206 13.164 726.942 16.512 728.182 18.992 L 733.142 16.884 Z  M 695.136 33.376 C 692.594 38.584 687.634 45.404 683.48 49.372 L 690.176 53.96 C 693.586 50.302 699.29 42.18 702.142 36.662 L 695.136 33.376 Z  M 730.662 27.858 C 732.336 27.858 734.754 27.92 736.676 28.044 L 736.676 19.922 C 735.064 20.17 732.336 20.356 730.6 20.356 L 716.154 20.356 L 716.154 15.396 C 716.154 13.846 716.588 10.87 716.712 10.002 L 707.536 10.002 C 707.784 11.056 708.094 13.784 708.094 15.396 L 708.094 20.356 L 692.346 20.356 C 690.424 20.356 688.192 20.108 686.332 19.86 L 686.332 28.106 C 688.068 27.92 690.486 27.858 692.346 27.858 L 708.094 27.858 L 708.094 27.92 C 708.094 30.834 708.094 50.488 708.032 52.782 C 707.97 54.394 707.35 55.014 705.738 55.014 C 704.25 55.014 701.522 54.766 698.856 54.27 L 699.6 61.958 C 702.762 62.33 706.358 62.516 709.706 62.516 C 714.108 62.516 716.154 60.284 716.154 56.688 L 716.154 27.858 L 730.662 27.858 Z  M 722.044 36.848 C 725.02 40.63 729.422 48.132 732.088 53.464 L 739.404 49.496 C 736.924 44.97 731.964 37.158 728.802 33.19 L 722.044 36.848 Z  M 606.414 15.458 C 605.05 15.892 602.942 16.14 601.02 16.14 L 588.31 16.14 L 588.372 16.078 C 589.116 14.776 590.728 11.924 592.216 9.754 L 583.226 6.964 C 582.668 9.134 581.366 11.986 580.436 13.474 C 577.336 18.868 571.57 27.362 560.658 34.058 L 567.354 39.204 C 573.616 34.926 579.382 28.974 583.722 23.208 L 601.516 23.208 C 600.586 26.928 598.106 32.012 595.068 36.414 C 590.914 33.934 586.698 31.578 583.412 29.904 L 578.142 35.794 C 581.304 37.592 585.52 40.134 589.736 42.862 C 584.59 48.132 577.584 53.402 566.61 56.75 L 573.802 63.012 C 583.846 59.168 591.162 53.588 596.68 47.574 C 598.974 49.186 600.958 50.674 602.446 51.976 L 608.088 44.722 C 606.538 43.606 604.43 42.18 602.136 40.754 C 606.228 34.802 609.08 28.54 610.692 23.766 C 611.25 22.216 612.056 20.542 612.738 19.364 L 606.414 15.458 Z  M 624.704 39.948 C 626.998 39.762 631.152 39.638 634.686 39.638 L 667.98 39.638 C 670.584 39.638 673.746 39.886 675.234 39.948 L 675.234 30.214 C 673.622 30.338 670.832 30.586 667.98 30.586 L 634.686 30.586 C 631.462 30.586 626.936 30.4 624.704 30.214 L 624.704 39.948 Z  M 512.67 10.374 L 509.756 17.69 C 518.498 18.806 536.106 22.774 543.298 25.44 L 546.46 17.69 C 538.648 14.962 520.792 11.366 512.67 10.374 Z  M 509.818 27.052 L 506.966 34.554 C 516.204 36.042 532.076 39.638 539.206 42.366 L 542.244 34.616 C 534.432 31.888 518.684 28.54 509.818 27.052 Z  M 506.656 44.784 L 503.556 52.596 C 513.476 54.084 533.068 58.362 541.438 61.834 L 544.848 54.084 C 536.354 50.86 517.258 46.396 506.656 44.784 Z  M 420.042 13.722 C 418.368 14.156 416.384 14.218 415.144 14.218 L 386.5 14.218 C 384.454 14.218 380.92 13.908 379.06 13.722 L 379.06 22.464 C 380.672 22.34 383.648 22.216 386.438 22.216 L 415.33 22.216 C 414.524 27.486 412.168 34.554 408.076 39.7 C 403.054 45.962 396.048 51.356 383.772 54.208 L 390.53 61.648 C 401.566 58.114 409.812 51.976 415.454 44.536 C 420.6 37.654 423.328 28.044 424.754 21.968 C 425.064 20.604 425.56 18.868 426.118 17.628 L 420.042 13.722 Z  M 458.296 34.492 C 458.544 35.794 458.73 37.406 458.73 38.894 C 458.73 46.706 457.428 52.224 450.422 56.998 C 448.562 58.3 447.012 59.044 445.4 59.664 L 451.972 64.934 C 466.48 56.998 466.48 46.086 466.852 34.492 L 458.296 34.492 Z  M 483.53 23.828 C 482.538 24.138 479.872 24.262 478.508 24.262 L 449.74 24.262 C 447.694 24.262 445.214 24.076 443.292 23.766 L 443.292 31.764 C 445.586 31.516 447.694 31.392 449.74 31.392 L 476.648 31.392 C 475.16 33.996 471.254 38.398 467.72 40.816 L 473.92 45.156 C 478.322 41.746 484.088 33.934 486.258 30.462 C 486.63 29.842 487.498 28.664 488.118 27.982 L 483.53 23.828 Z  M 293.624 13.102 C 292.384 13.536 289.904 13.908 287.176 13.908 L 265.352 13.908 C 263.492 13.908 259.71 13.722 258.036 13.474 L 258.036 22.278 C 259.338 22.216 262.748 21.844 265.352 21.844 L 286.37 21.844 C 285.006 26.246 281.224 32.384 277.132 37.034 C 271.304 43.544 261.694 51.046 251.712 54.828 L 258.098 61.524 C 266.592 57.494 274.838 51.046 281.41 44.102 C 287.238 49.744 293.004 56.068 297.034 61.648 L 304.102 55.51 C 300.444 51.046 292.942 43.11 286.804 37.778 C 290.958 32.198 294.43 25.564 296.538 20.728 C 297.096 19.488 298.212 17.566 298.708 16.884 L 293.624 13.102 Z  M 314.704 39.948 C 316.998 39.762 321.152 39.638 324.686 39.638 L 357.98 39.638 C 360.584 39.638 363.746 39.886 365.234 39.948 L 365.234 30.214 C 363.622 30.338 360.832 30.586 357.98 30.586 L 324.686 30.586 C 321.462 30.586 316.936 30.4 314.704 30.214 L 314.704 39.948 Z " fill-rule="evenodd" fill="rgb(159,28,28)"/></g></svg>