<?xml version="1.0" encoding="UTF-8" standalone="no"?><!-- Generator: Gravit.io --><svg xmlns="http://www.w3.org/2000/svg" xmlns:xlink="http://www.w3.org/1999/xlink" style="isolation:isolate" viewBox="0 0 992 250" width="992pt" height="250pt"><defs><clipPath id="_clipPath_AkxuA7DZbOTZt7zNdwOOIDHCLV0P1eGK"><rect width="992" height="250"/></clipPath></defs><g clip-path="url(#_clipPath_AkxuA7DZbOTZt7zNdwOOIDHCLV0P1eGK)"><path d=" M 630.682 136.11 L 630.682 126.34 L 660.765 126.34 L 660.765 169.052 L 660.765 169.052 Q 653.854 171.256 646.706 172.388 L 646.706 172.388 L 646.706 172.388 Q 639.558 173.52 630.146 173.52 L 630.146 173.52 L 630.146 173.52 Q 610.249 173.52 599.348 161.725 L 599.348 161.725 L 599.348 161.725 Q 588.446 149.93 588.446 128.783 L 588.446 128.783 L 588.446 128.783 Q 588.446 115.141 593.867 104.955 L 593.867 104.955 L 593.867 104.955 Q 599.288 94.768 609.504 89.377 L 609.504 89.377 L 609.504 89.377 Q 619.721 83.986 633.601 83.986 L 633.601 83.986 L 633.601 83.986 Q 647.54 83.986 659.573 89.109 L 659.573 89.109 L 655.403 98.64 L 655.403 98.64 Q 643.906 93.636 632.945 93.636 L 632.945 93.636 L 632.945 93.636 Q 617.397 93.636 608.641 103.048 L 608.641 103.048 L 608.641 103.048 Q 599.884 112.46 599.884 128.783 L 599.884 128.783 L 599.884 128.783 Q 599.884 146.058 608.283 155.053 L 608.283 155.053 L 608.283 155.053 Q 616.683 164.048 632.707 164.048 L 632.707 164.048 L 632.707 164.048 Q 641.464 164.048 649.804 161.963 L 649.804 161.963 L 649.804 136.11 L 630.682 136.11 L 630.682 136.11 Z  M 700.635 94.708 L 700.635 127.055 L 713.681 127.055 L 713.681 127.055 Q 724.284 127.055 729.169 122.885 L 729.169 122.885 L 729.169 122.885 Q 734.054 118.715 734.054 110.495 L 734.054 110.495 L 734.054 110.495 Q 734.054 102.274 729.109 98.491 L 729.109 98.491 L 729.109 98.491 Q 724.165 94.708 713.085 94.708 L 713.085 94.708 L 700.635 94.708 L 700.635 94.708 Z  M 717.97 136.348 L 700.635 136.348 L 700.635 172.329 L 689.674 172.329 L 689.674 85.237 L 713.681 85.237 L 713.681 85.237 Q 729.884 85.237 737.658 91.402 L 737.658 91.402 L 737.658 91.402 Q 745.432 97.568 745.432 109.958 L 745.432 109.958 L 745.432 109.958 Q 745.432 127.293 727.978 133.31 L 727.978 133.31 L 751.865 172.329 L 739.058 172.329 L 717.97 136.348 L 717.97 136.348 Z  M 839.57 172.329 L 828.192 172.329 L 817.708 145.343 L 783.157 145.343 L 772.792 172.329 L 761.712 172.329 L 795.727 84.879 L 805.615 84.879 L 839.57 172.329 L 839.57 172.329 Z  M 786.851 135.633 L 814.432 135.633 L 804.662 109.244 L 800.492 96.198 L 800.492 96.198 Q 798.705 103.346 796.739 109.244 L 796.739 109.244 L 786.851 135.633 L 786.851 135.633 Z  M 870.505 135.335 L 870.505 172.329 L 859.544 172.329 L 859.544 85.237 L 908.213 85.237 L 908.213 94.887 L 870.505 94.887 L 870.505 125.745 L 905.89 125.745 L 905.89 135.335 L 870.505 135.335 L 870.505 135.335 Z  M 961.01 126.698 L 990.021 172.329 L 977.57 172.329 L 954.517 134.501 L 931.105 172.329 L 919.489 172.329 L 948.44 126.936 L 921.336 85.237 L 933.548 85.237 L 954.874 119.371 L 976.379 85.237 L 987.936 85.237 L 961.01 126.698 L 961.01 126.698 Z " fill="rgb(89,123,202)"/><path d=" M 500.523 81.744 L 500.523 81.744 Q 507.528 82.37 510.891 86.068 L 510.891 86.068 L 510.891 86.068 Q 514.939 90.52 514.939 98.511 L 514.939 98.511 L 514.939 98.511 Q 514.939 109.926 509.923 114.378 L 509.923 114.378 L 509.923 114.378 Q 506.04 117.825 500.523 118.603 L 500.523 154.33 L 526.027 211.296 L 564.571 211.296 L 527.963 140.292 L 527.963 140.292 Q 537.819 132.986 543.539 122.141 L 543.539 122.141 L 543.539 122.141 Q 549.259 111.296 549.259 96.456 L 549.259 96.456 L 549.259 96.456 Q 549.259 49.464 500.523 48.312 L 500.523 81.744 Z  M 490.827 211.296 L 456.859 211.296 L 456.859 48.283 L 456.859 48.283 L 456.859 48.283 L 456.859 48.283 L 456.859 48.283 L 456.859 48.283 L 490.827 48.312 L 490.827 211.296 Z  M 394.203 88.667 L 394.203 83.671 L 434.859 83.671 L 434.859 48.283 L 360.235 48.283 L 360.235 211.296 L 434.859 211.296 L 434.859 175.451 L 434.859 175.451 L 434.859 175.451 L 434.859 175.451 L 434.859 175.451 L 394.203 175.451 L 394.203 157.186 L 394.203 157.186 L 394.203 88.667 L 394.203 88.667 L 394.203 88.667 Z  M 403.232 109.242 L 431.867 109.242 L 431.867 144.629 L 403.232 144.629 L 403.232 109.242 L 403.232 109.242 Z  M 292 83.9 L 292 83.9 Q 299.217 83.974 302.683 88.694 L 302.683 88.694 L 302.683 88.694 Q 306.203 93.488 306.203 101.251 L 306.203 101.251 L 306.203 101.251 Q 306.203 112.438 301.275 116.89 L 301.275 116.89 L 301.275 116.89 Q 297.23 120.544 292 121.199 L 292 157.186 L 292.475 157.186 L 292.475 157.186 Q 305.851 157.186 315.003 152.506 L 315.003 152.506 L 315.003 152.506 Q 324.155 147.826 329.699 139.721 L 329.699 139.721 L 329.699 139.721 Q 335.243 131.616 337.707 121.456 L 337.707 121.456 L 337.707 121.456 Q 340.171 111.296 340.171 100.109 L 340.171 100.109 L 340.171 100.109 Q 340.171 75.224 328.291 61.753 L 328.291 61.753 L 328.291 61.753 Q 316.411 48.283 292.475 48.283 L 292.475 48.283 L 292 48.283 L 292 83.9 L 292 83.9 L 292 83.9 Z  M 282.971 168.667 L 282.971 211.296 L 249.003 211.296 L 249.003 48.283 L 249.003 48.283 L 249.003 48.283 L 249.003 48.283 L 282.971 48.283 L 282.971 168.667 L 282.971 168.667 L 282.971 168.667 Z  M 173.437 213.416 Q 196.95 211.86 209.139 195.428 L 209.139 195.428 L 209.139 195.428 Q 222.603 177.278 222.603 146.456 L 222.603 146.456 L 222.603 48.283 L 222.603 48.283 L 222.603 48.283 L 188.635 48.283 L 188.635 143.716 L 188.635 143.716 Q 188.635 161.068 183.971 168.944 L 183.971 168.944 L 183.971 168.944 Q 180.39 174.992 173.437 176.396 L 173.437 213.416 L 173.437 213.416 L 173.437 213.416 L 173.437 213.416 Z  M 164.408 213.474 Q 141.283 212.235 128.707 196.341 L 128.707 196.341 L 128.707 196.341 Q 115.067 179.104 115.067 147.369 L 115.067 147.369 L 115.067 48.283 L 149.211 48.283 L 149.211 143.944 L 149.211 143.944 Q 149.211 161.296 154.227 169.058 L 154.227 169.058 L 154.227 169.058 Q 157.999 174.896 164.408 176.343 L 164.408 213.474 L 164.408 213.474 L 164.408 213.474 L 164.408 213.474 Z  M 56.864 154.951 Q 57.062 155.101 57.251 155.246 L 57.251 155.246 L 57.251 155.246 Q 62.443 159.241 62.443 165.634 L 62.443 165.634 L 62.443 165.634 Q 62.443 170.885 58.923 174.31 L 58.923 174.31 L 58.923 174.31 Q 55.403 177.734 47.835 177.734 L 47.835 177.734 L 47.835 177.734 Q 39.387 177.734 29.003 174.195 L 29.003 174.195 L 29.003 174.195 Q 18.619 170.657 8.411 164.036 L 8.411 164.036 L 8.411 203.305 L 8.411 203.305 Q 14.395 206.958 20.027 209.241 L 20.027 209.241 L 20.027 209.241 Q 25.659 211.524 32.083 212.551 L 32.083 212.551 L 32.083 212.551 Q 38.507 213.579 47.131 213.579 L 47.131 213.579 L 47.131 213.579 Q 64.379 213.579 75.203 206.159 L 75.203 206.159 L 75.203 206.159 Q 86.027 198.739 91.219 186.867 L 91.219 186.867 L 91.219 186.867 Q 96.411 174.994 96.411 161.753 L 96.411 161.753 L 96.411 161.753 L 96.411 161.753 Q 96.411 148.967 92.979 140.406 L 92.979 140.406 L 92.979 140.406 Q 89.547 131.844 83.123 125.566 L 83.123 125.566 L 83.123 125.566 Q 76.699 119.287 67.547 114.036 L 67.547 114.036 L 67.547 114.036 Q 61.324 110.381 56.864 107.589 L 56.864 154.951 L 56.864 154.951 L 56.864 154.951 L 56.864 154.951 L 56.864 154.951 Z  M 47.835 148.961 Q 44.268 146.775 39.739 144.173 L 39.739 144.173 L 39.739 144.173 Q 30.411 138.465 23.547 132.187 L 23.547 132.187 L 23.547 132.187 Q 16.683 125.908 12.987 116.776 L 12.987 116.776 L 12.987 116.776 Q 9.291 107.643 9.291 93.717 L 9.291 93.717 L 9.291 93.717 Q 9.291 77.963 15.275 67.347 L 15.275 67.347 L 15.275 67.347 Q 21.259 56.731 31.907 51.365 L 31.907 51.365 L 31.907 51.365 Q 42.555 46 56.635 46 L 56.635 46 L 56.635 46 Q 68.955 46 78.811 49.539 L 78.811 49.539 L 78.811 49.539 Q 88.667 53.078 96.411 57.644 L 96.411 57.644 L 86.027 91.662 L 86.027 91.662 Q 77.931 86.867 70.099 84.013 L 70.099 84.013 L 70.099 84.013 Q 62.267 81.16 55.579 81.16 L 55.579 81.16 L 55.579 81.16 Q 49.067 81.16 45.987 84.128 L 45.987 84.128 L 45.987 84.128 Q 42.907 87.096 42.907 91.662 L 42.907 91.662 L 42.907 91.662 Q 42.907 95.543 45.195 98.511 L 45.195 98.511 L 45.195 98.511 Q 46.211 99.829 47.835 101.26 L 47.835 148.961 L 47.835 148.961 L 47.835 148.961 L 47.835 148.961 L 47.835 148.961 Z " fill-rule="evenodd" fill="rgb(89,123,202)"/><rect x="588.446" y="65.5" width="403.554" height="7.741" transform="matrix(1,0,0,1,0,0)" fill="rgb(89,123,202)"/><rect x="588.446" y="185.542" width="403.554" height="7.741" transform="matrix(1,0,0,1,0,0)" fill="rgb(89,123,202)"/><rect x="576" y="48.283" width="416" height="7.741" transform="matrix(1,0,0,1,0,0)" fill="rgb(89,123,202)"/><rect x="576" y="203.305" width="416" height="7.741" transform="matrix(1,0,0,1,0,0)" fill="rgb(89,123,202)"/></g></svg>