<?xml version="1.0" encoding="UTF-8" standalone="no"?><!-- Generator: Gravit.io --><svg xmlns="http://www.w3.org/2000/svg" xmlns:xlink="http://www.w3.org/1999/xlink" style="isolation:isolate" viewBox="0 0 992 250" width="992pt" height="250pt"><defs><clipPath id="_clipPath_UJu8uwDG5i0G21zXHFNYJl2EHiHm5DEM"><rect width="992" height="250"/></clipPath></defs><g clip-path="url(#_clipPath_UJu8uwDG5i0G21zXHFNYJl2EHiHm5DEM)"><rect x="145" y="12.5" width="702" height="225" transform="matrix(1,0,0,1,0,0)" fill="rgb(57,138,189)"/><path d=" M 178.663 71.684 L 178.663 39.59 L 290.53 39.59 L 290.53 71.684 L 250.287 71.684 L 250.287 204.254 L 218.987 204.254 L 218.987 71.684 L 178.663 71.684 L 178.663 71.684 Z  M 384.43 81.721 L 384.43 81.721 L 384.43 81.721 Q 392.316 96.058 392.316 122.087 L 392.316 122.087 L 392.316 122.087 Q 392.316 148.005 384.43 162.343 L 384.43 162.343 L 384.43 162.343 Q 376.544 176.681 362.154 176.681 L 362.154 176.681 L 362.154 176.681 Q 347.846 176.681 339.96 162.343 L 339.96 162.343 L 339.96 162.343 Q 332.074 148.005 332.074 122.087 L 332.074 122.087 L 332.074 122.087 Q 332.074 96.058 339.96 81.721 L 339.96 81.721 L 339.96 81.721 Q 347.846 67.383 362.154 67.383 L 362.154 67.383 L 362.154 67.383 Q 376.544 67.383 384.43 81.721 Z  M 362.154 36.612 L 362.154 36.612 L 362.154 36.612 Q 391.422 36.612 408.007 59.332 L 408.007 59.332 L 408.007 59.332 Q 424.592 82.052 424.592 122.087 L 424.592 122.087 L 424.592 122.087 Q 424.592 162.012 408.007 184.732 L 408.007 184.732 L 408.007 184.732 Q 391.422 207.452 362.154 207.452 L 362.154 207.452 L 362.154 207.452 Q 332.968 207.452 316.343 184.732 L 316.343 184.732 L 316.343 184.732 Q 299.717 162.012 299.717 122.087 L 299.717 122.087 L 299.717 122.087 Q 299.717 82.052 316.343 59.332 L 316.343 59.332 L 316.343 59.332 Q 332.968 36.612 362.154 36.612 Z  M 504.265 137.031 L 504.265 137.031 L 504.265 137.031 Q 508.899 143.483 508.899 155.726 L 508.899 155.726 L 508.899 155.726 Q 508.899 167.858 504.265 174.31 L 504.265 174.31 L 504.265 174.31 Q 499.631 180.762 490.932 180.762 L 490.932 180.762 L 490.932 180.762 Q 482.152 180.762 477.436 174.31 L 477.436 174.31 L 477.436 174.31 Q 472.721 167.858 472.721 155.726 L 472.721 155.726 L 472.721 155.726 Q 472.721 143.594 477.436 137.087 L 477.436 137.087 L 477.436 137.087 Q 482.152 130.579 490.932 130.579 L 490.932 130.579 L 490.932 130.579 Q 499.631 130.579 504.265 137.031 Z  M 449.429 131.627 L 449.429 131.627 L 449.429 131.627 Q 443.128 142.05 443.128 157.932 L 443.128 157.932 L 443.128 157.932 Q 443.128 182.416 455.201 194.934 L 455.201 194.934 L 455.201 194.934 Q 467.274 207.452 490.932 207.452 L 490.932 207.452 L 490.932 207.452 Q 514.508 207.452 526.5 194.934 L 526.5 194.934 L 526.5 194.934 Q 538.492 182.416 538.492 157.932 L 538.492 157.932 L 538.492 157.932 Q 538.492 142.05 532.191 131.627 L 532.191 131.627 L 532.191 131.627 Q 525.89 121.205 513.533 116.573 L 513.533 116.573 L 513.533 116.573 Q 524.59 112.051 530.24 102.676 L 530.24 102.676 L 530.24 102.676 Q 535.89 93.301 535.89 79.294 L 535.89 79.294 L 535.89 79.294 Q 535.89 58.339 524.427 47.475 L 524.427 47.475 L 524.427 47.475 Q 512.964 36.612 490.932 36.612 L 490.932 36.612 L 490.932 36.612 Q 468.737 36.612 457.274 47.531 L 457.274 47.531 L 457.274 47.531 Q 445.811 58.449 445.811 79.294 L 445.811 79.294 L 445.811 79.294 Q 445.811 93.301 451.421 102.676 L 451.421 102.676 L 451.421 102.676 Q 457.03 112.051 468.087 116.573 L 468.087 116.573 L 468.087 116.573 Q 455.729 121.205 449.429 131.627 Z  M 479.428 68.596 L 479.428 68.596 L 479.428 68.596 Q 483.452 63.302 490.932 63.302 L 490.932 63.302 L 490.932 63.302 Q 498.249 63.302 502.232 68.541 L 502.232 68.541 L 502.232 68.541 Q 506.216 73.78 506.216 83.596 L 506.216 83.596 L 506.216 83.596 Q 506.216 93.411 502.232 98.705 L 502.232 98.705 L 502.232 98.705 Q 498.249 103.999 490.932 103.999 L 490.932 103.999 L 490.932 103.999 Q 483.452 103.999 479.428 98.705 L 479.428 98.705 L 479.428 98.705 Q 475.404 93.411 475.404 83.596 L 475.404 83.596 L 475.404 83.596 Q 475.404 73.89 479.428 68.596 Z  M 176.86 74.131 L 176.86 37.148 L 292.33 37.148 L 292.33 74.131 L 252.091 74.131 L 252.091 206.701 L 217.189 206.701 L 217.189 74.131 L 176.86 74.131 Z  M 385.876 80.26 C 387.217 82.702 388.369 85.302 389.323 88.062 C 390.412 91.212 391.303 94.484 391.978 97.841 C 392.689 101.358 393.211 104.947 393.526 108.561 C 393.922 113.054 394.12 117.572 394.12 122.089 C 394.12 126.876 393.895 131.674 393.445 136.423 C 393.085 140.221 392.5 143.969 391.69 147.644 C 391.015 150.708 390.16 153.688 389.125 156.569 C 388.207 159.109 387.118 161.538 385.876 163.809 C 385.183 165.067 384.436 166.263 383.644 167.411 C 382.897 168.498 382.096 169.511 381.259 170.463 C 380.44 171.391 379.594 172.246 378.703 173.027 C 377.812 173.797 376.894 174.505 375.949 175.14 C 373.96 176.446 371.863 177.423 369.703 178.045 C 367.219 178.766 364.69 179.12 362.152 179.12 C 359.632 179.12 357.121 178.766 354.655 178.058 C 352.504 177.435 350.416 176.458 348.436 175.14 C 347.491 174.517 346.573 173.809 345.691 173.04 C 344.8 172.246 343.954 171.391 343.135 170.476 C 342.298 169.523 341.497 168.498 340.75 167.411 C 339.958 166.276 339.211 165.067 338.518 163.809 C 337.177 161.367 336.025 158.767 335.071 156.02 C 333.982 152.894 333.091 149.634 332.416 146.301 C 331.705 142.785 331.183 139.195 330.868 135.581 C 330.472 131.1 330.274 126.595 330.274 122.089 C 330.274 117.267 330.499 112.456 330.949 107.682 C 331.309 103.873 331.894 100.112 332.704 96.425 C 333.379 93.361 334.234 90.369 335.269 87.488 C 336.178 84.948 337.267 82.531 338.518 80.26 C 339.211 79.002 339.958 77.793 340.75 76.646 C 341.497 75.559 342.298 74.546 343.135 73.593 C 343.954 72.665 344.8 71.811 345.691 71.029 C 346.573 70.248 347.491 69.552 348.436 68.917 C 350.416 67.611 352.504 66.634 354.655 66.011 C 357.121 65.303 359.632 64.937 362.152 64.937 C 364.69 64.937 367.219 65.303 369.703 66.011 C 371.863 66.634 373.96 67.611 375.949 68.929 C 376.894 69.552 377.812 70.26 378.703 71.042 C 379.594 71.823 380.44 72.678 381.259 73.606 C 382.096 74.558 382.897 75.571 383.644 76.658 C 384.436 77.793 385.183 79.002 385.876 80.26 Z  M 362.152 34.169 C 367.345 34.169 372.52 34.767 377.632 35.939 C 381.907 36.928 386.092 38.503 390.133 40.64 C 391.978 41.617 393.778 42.728 395.542 43.949 C 397.243 45.133 398.899 46.452 400.501 47.868 C 402.085 49.272 403.606 50.786 405.064 52.41 C 406.54 54.046 407.944 55.78 409.285 57.611 C 410.617 59.443 411.877 61.36 413.065 63.362 C 414.253 65.364 415.351 67.44 416.377 69.589 C 417.412 71.786 418.366 74.045 419.23 76.365 C 420.13 78.782 420.94 81.249 421.651 83.764 C 423.217 89.295 424.369 95.021 425.089 100.869 C 425.953 107.878 426.394 114.984 426.394 122.089 C 426.394 129.171 425.962 136.24 425.098 143.236 C 424.369 149.06 423.217 154.786 421.66 160.305 C 420.94 162.82 420.139 165.287 419.239 167.692 C 418.375 170.012 417.421 172.283 416.377 174.468 C 415.36 176.617 414.253 178.693 413.074 180.695 C 411.886 182.697 410.617 184.626 409.285 186.446 C 407.944 188.289 406.54 190.023 405.064 191.659 C 403.606 193.271 402.085 194.797 400.501 196.189 C 398.899 197.617 397.243 198.924 395.542 200.108 C 393.778 201.341 391.978 202.44 390.133 203.417 C 386.092 205.553 381.907 207.128 377.632 208.117 C 372.52 209.302 367.345 209.9 362.152 209.9 C 356.986 209.9 351.829 209.302 346.726 208.13 C 342.469 207.141 338.284 205.566 334.252 203.429 C 332.407 202.452 330.607 201.353 328.843 200.12 C 327.133 198.936 325.477 197.629 323.875 196.213 C 322.291 194.797 320.761 193.283 319.303 191.659 C 317.818 190.023 316.405 188.289 315.064 186.458 C 313.723 184.626 312.463 182.697 311.266 180.695 C 310.087 178.693 308.971 176.617 307.954 174.456 C 306.91 172.27 305.956 170.012 305.083 167.692 C 304.183 165.274 303.382 162.808 302.662 160.293 C 301.096 154.774 299.944 149.06 299.215 143.224 C 298.351 136.24 297.919 129.171 297.919 122.089 C 297.919 114.984 298.351 107.89 299.224 100.882 C 299.944 95.033 301.096 89.307 302.671 83.776 C 303.382 81.249 304.192 78.782 305.092 76.377 C 305.956 74.045 306.919 71.786 307.954 69.601 C 308.98 67.44 310.087 65.364 311.275 63.362 C 312.463 61.36 313.732 59.443 315.064 57.611 C 316.405 55.78 317.818 54.034 319.303 52.398 C 320.761 50.774 322.291 49.26 323.875 47.856 C 325.477 46.427 327.133 45.121 328.843 43.937 C 330.607 42.716 332.407 41.605 334.252 40.628 C 338.284 38.491 342.469 36.928 346.726 35.939 C 351.829 34.767 356.986 34.169 362.152 34.169 Z  M 505.558 135.325 C 506.377 136.472 507.097 137.73 507.709 139.085 C 508.357 140.538 508.906 142.076 509.32 143.676 C 509.779 145.41 510.112 147.204 510.319 149.036 C 510.571 151.246 510.697 153.48 510.697 155.727 C 510.697 158.01 510.562 160.281 510.301 162.527 C 510.085 164.383 509.734 166.202 509.248 167.973 C 508.825 169.499 508.294 170.976 507.655 172.368 C 507.052 173.687 506.35 174.908 505.558 176.019 C 504.748 177.13 503.857 178.131 502.894 178.986 C 501.886 179.877 500.815 180.622 499.69 181.208 C 498.43 181.867 497.125 182.355 495.793 182.661 C 494.182 183.027 492.562 183.198 490.933 183.198 C 489.286 183.198 487.648 183.027 486.028 182.661 C 484.678 182.355 483.355 181.867 482.077 181.208 C 480.943 180.622 479.863 179.877 478.846 178.986 C 477.874 178.131 476.974 177.142 476.155 176.031 C 475.336 174.895 474.607 173.65 473.977 172.307 C 473.32 170.879 472.78 169.377 472.348 167.802 C 471.871 166.056 471.529 164.261 471.313 162.43 C 471.052 160.207 470.917 157.973 470.917 155.727 C 470.917 153.456 471.052 151.185 471.322 148.938 C 471.538 147.082 471.898 145.251 472.384 143.493 C 472.816 141.942 473.356 140.452 474.004 139.061 C 474.625 137.73 475.345 136.497 476.155 135.373 C 476.965 134.25 477.874 133.249 478.846 132.394 C 479.863 131.491 480.943 130.746 482.077 130.148 C 483.355 129.476 484.678 128.988 486.028 128.683 C 487.648 128.316 489.286 128.133 490.933 128.133 C 492.562 128.133 494.191 128.316 495.802 128.683 C 497.134 128.988 498.448 129.476 499.708 130.135 C 500.824 130.734 501.895 131.479 502.903 132.358 C 503.857 133.212 504.748 134.213 505.558 135.325 Z  M 455.761 52.276 C 455.005 53.179 454.294 54.156 453.637 55.182 C 452.998 56.17 452.413 57.208 451.873 58.307 C 451.333 59.382 450.847 60.505 450.415 61.665 C 449.974 62.861 449.587 64.094 449.254 65.352 C 448.903 66.683 448.615 68.05 448.381 69.442 C 448.129 70.956 447.94 72.495 447.814 74.033 C 447.679 75.779 447.607 77.537 447.607 79.295 C 447.607 81.566 447.742 83.849 447.994 86.096 C 448.21 88.025 448.561 89.93 449.02 91.786 C 449.452 93.495 449.992 95.155 450.631 96.73 C 451.261 98.281 451.99 99.758 452.818 101.138 C 453.619 102.481 454.51 103.739 455.464 104.874 C 456.517 106.144 457.642 107.292 458.83 108.329 C 460.189 109.514 461.62 110.564 463.096 111.455 C 467.821 114.312 472.861 116.082 478.009 116.681 C 472.636 117.242 467.362 118.988 462.394 121.845 C 460.738 122.798 459.136 123.921 457.606 125.215 C 456.274 126.338 455.005 127.608 453.817 129 C 452.737 130.27 451.729 131.674 450.82 133.176 C 449.893 134.714 449.065 136.362 448.363 138.096 C 447.634 139.879 447.022 141.747 446.536 143.664 C 446.005 145.776 445.618 147.937 445.366 150.147 C 445.078 152.723 444.925 155.324 444.925 157.936 C 444.925 161.966 445.222 165.983 445.807 169.938 C 446.275 173.125 447.022 176.226 448.039 179.169 C 448.507 180.524 449.029 181.83 449.614 183.1 C 450.181 184.346 450.811 185.542 451.486 186.678 C 452.17 187.837 452.908 188.924 453.7 189.962 C 454.519 191.036 455.383 192.05 456.292 192.99 C 458.182 194.956 460.234 196.628 462.394 197.984 C 465.076 199.656 467.857 200.999 470.719 201.988 C 473.59 202.989 476.506 203.71 479.449 204.149 C 483.265 204.723 487.099 205.016 490.933 205.016 C 494.713 205.016 498.484 204.735 502.246 204.174 C 505.153 203.746 508.033 203.038 510.859 202.062 C 513.748 201.073 516.565 199.717 519.274 198.032 C 521.443 196.665 523.504 194.98 525.403 193.002 C 526.303 192.062 527.167 191.049 527.977 189.974 C 528.751 188.936 529.489 187.85 530.164 186.702 C 530.839 185.554 531.46 184.37 532.027 183.125 C 532.612 181.855 533.134 180.548 533.593 179.193 C 534.61 176.251 535.357 173.149 535.816 169.963 C 536.401 165.995 536.689 161.966 536.689 157.936 C 536.689 155.324 536.545 152.723 536.257 150.147 C 536.005 147.937 535.609 145.776 535.078 143.664 C 534.601 141.747 533.989 139.879 533.26 138.096 C 532.549 136.362 531.73 134.714 530.803 133.176 C 529.885 131.674 528.886 130.27 527.797 129 C 526.609 127.608 525.349 126.338 524.008 125.215 C 522.478 123.921 520.885 122.798 519.22 121.845 C 514.261 118.988 508.996 117.254 503.632 116.681 C 508.771 116.07 513.802 114.312 518.518 111.455 C 520.003 110.564 521.434 109.514 522.802 108.329 C 523.99 107.292 525.115 106.144 526.177 104.874 C 527.14 103.726 528.031 102.481 528.85 101.126 C 529.678 99.758 530.416 98.281 531.055 96.718 C 531.694 95.143 532.243 93.483 532.666 91.773 C 533.134 89.917 533.485 88.025 533.701 86.084 C 533.962 83.837 534.088 81.566 534.088 79.295 C 534.088 77.525 534.025 75.754 533.881 73.984 C 533.764 72.434 533.575 70.895 533.314 69.369 C 533.08 67.977 532.792 66.597 532.441 65.254 C 532.108 63.997 531.721 62.764 531.271 61.579 C 530.839 60.407 530.353 59.284 529.822 58.209 C 529.282 57.123 528.688 56.085 528.058 55.096 C 527.392 54.07 526.69 53.106 525.943 52.202 C 525.133 51.226 524.278 50.322 523.396 49.48 C 521.596 47.77 519.67 46.33 517.645 45.158 C 515.098 43.692 512.47 42.52 509.779 41.666 C 507.088 40.799 504.361 40.176 501.616 39.798 C 498.07 39.297 494.497 39.053 490.933 39.053 C 487.405 39.053 483.886 39.297 480.385 39.761 C 477.658 40.139 474.958 40.738 472.294 41.568 C 469.522 42.435 466.804 43.631 464.176 45.121 C 462.106 46.305 460.144 47.783 458.308 49.529 C 457.417 50.371 456.571 51.287 455.761 52.276 Z  M 478.171 66.842 C 478.891 65.901 479.683 65.071 480.529 64.351 C 481.429 63.606 482.383 62.983 483.373 62.495 C 484.462 61.946 485.596 61.555 486.748 61.298 C 488.134 61.005 489.529 60.859 490.933 60.859 C 492.319 60.859 493.705 61.005 495.073 61.311 C 496.216 61.555 497.341 61.958 498.43 62.507 C 499.393 62.996 500.311 63.606 501.184 64.351 C 502.012 65.047 502.786 65.865 503.488 66.793 C 504.19 67.721 504.82 68.746 505.36 69.857 C 505.918 71.017 506.386 72.25 506.764 73.545 C 507.178 74.997 507.484 76.499 507.673 78.038 C 507.898 79.881 508.015 81.737 508.015 83.593 C 508.015 85.449 507.907 87.305 507.673 89.148 C 507.484 90.687 507.178 92.188 506.764 93.654 C 506.395 94.948 505.927 96.181 505.369 97.353 C 504.829 98.476 504.199 99.514 503.488 100.454 C 502.786 101.382 502.012 102.212 501.184 102.921 C 500.311 103.665 499.384 104.288 498.421 104.776 C 497.341 105.326 496.216 105.741 495.064 105.985 C 493.696 106.29 492.319 106.437 490.933 106.437 C 489.511 106.437 488.098 106.29 486.694 105.985 C 485.533 105.729 484.39 105.326 483.283 104.764 C 482.311 104.276 481.375 103.653 480.493 102.921 C 479.656 102.212 478.882 101.382 478.171 100.454 C 477.46 99.514 476.83 98.476 476.281 97.353 C 475.714 96.181 475.237 94.948 474.868 93.641 C 474.445 92.188 474.139 90.674 473.95 89.136 C 473.716 87.305 473.608 85.449 473.608 83.593 C 473.608 81.762 473.716 79.93 473.941 78.123 C 474.139 76.597 474.445 75.095 474.859 73.654 C 475.237 72.36 475.705 71.115 476.272 69.955 C 476.821 68.832 477.46 67.782 478.171 66.842 Z " fill-rule="evenodd" fill="rgb(255,255,255)"/><path d=" M 639.717 208.22 L 639.717 203.36 L 662.695 203.36 L 662.695 208.22 L 654.429 208.22 L 654.429 228.292 L 648 228.292 L 648 208.22 L 639.717 208.22 Z  M 666.018 228.292 L 666.018 203.36 L 672.447 203.36 L 672.447 212.862 L 681.933 212.862 L 681.933 203.36 L 688.362 203.36 L 688.362 228.292 L 681.933 228.292 L 681.933 217.721 L 672.447 217.721 L 672.447 228.292 L 666.018 228.292 Z  M 706.03 207.568 L 706.03 207.568 L 706.03 207.568 Q 703.091 207.568 701.471 209.739 L 701.471 209.739 L 701.471 209.739 Q 699.851 211.91 699.851 215.851 L 699.851 215.851 L 699.851 215.851 Q 699.851 219.775 701.471 221.946 L 701.471 221.946 L 701.471 221.946 Q 703.091 224.117 706.03 224.117 L 706.03 224.117 L 706.03 224.117 Q 708.985 224.117 710.605 221.946 L 710.605 221.946 L 710.605 221.946 Q 712.225 219.775 712.225 215.851 L 712.225 215.851 L 712.225 215.851 Q 712.225 211.91 710.605 209.739 L 710.605 209.739 L 710.605 209.739 Q 708.985 207.568 706.03 207.568 Z  M 706.03 202.909 L 706.03 202.909 L 706.03 202.909 Q 712.041 202.909 715.448 206.349 L 715.448 206.349 L 715.448 206.349 Q 718.855 209.789 718.855 215.851 L 718.855 215.851 L 718.855 215.851 Q 718.855 221.896 715.448 225.336 L 715.448 225.336 L 715.448 225.336 Q 712.041 228.776 706.03 228.776 L 706.03 228.776 L 706.03 228.776 Q 700.035 228.776 696.62 225.336 L 696.62 225.336 L 696.62 225.336 Q 693.205 221.896 693.205 215.851 L 693.205 215.851 L 693.205 215.851 Q 693.205 209.789 696.62 206.349 L 696.62 206.349 L 696.62 206.349 Q 700.035 202.909 706.03 202.909 Z  M 723.714 228.292 L 723.714 203.36 L 731.897 203.36 L 737.574 216.703 L 743.286 203.36 L 751.451 203.36 L 751.451 228.292 L 745.373 228.292 L 745.373 210.056 L 739.628 223.499 L 735.554 223.499 L 729.809 210.056 L 729.809 228.292 L 723.714 228.292 Z  M 775.098 204.145 L 775.098 204.145 L 775.098 209.422 L 775.098 209.422 Q 773.044 208.503 771.09 208.036 L 771.09 208.036 L 771.09 208.036 Q 769.136 207.568 767.399 207.568 L 767.399 207.568 L 767.399 207.568 Q 765.095 207.568 763.993 208.203 L 763.993 208.203 L 763.993 208.203 Q 762.89 208.837 762.89 210.173 L 762.89 210.173 L 762.89 210.173 Q 762.89 211.175 763.634 211.735 L 763.634 211.735 L 763.634 211.735 Q 764.377 212.294 766.33 212.695 L 766.33 212.695 L 769.069 213.246 L 769.069 213.246 Q 773.227 214.081 774.981 215.784 L 774.981 215.784 L 774.981 215.784 Q 776.734 217.488 776.734 220.627 L 776.734 220.627 L 776.734 220.627 Q 776.734 224.752 774.288 226.764 L 774.288 226.764 L 774.288 226.764 Q 771.841 228.776 766.815 228.776 L 766.815 228.776 L 766.815 228.776 Q 764.443 228.776 762.055 228.325 L 762.055 228.325 L 762.055 228.325 Q 759.667 227.875 757.279 226.989 L 757.279 226.989 L 757.279 221.562 L 757.279 221.562 Q 759.667 222.831 761.897 223.474 L 761.897 223.474 L 761.897 223.474 Q 764.126 224.117 766.197 224.117 L 766.197 224.117 L 766.197 224.117 Q 768.301 224.117 769.42 223.416 L 769.42 223.416 L 769.42 223.416 Q 770.539 222.714 770.539 221.412 L 770.539 221.412 L 770.539 221.412 Q 770.539 220.243 769.779 219.608 L 769.779 219.608 L 769.779 219.608 Q 769.019 218.974 766.748 218.473 L 766.748 218.473 L 764.26 217.922 L 764.26 217.922 Q 760.519 217.12 758.791 215.367 L 758.791 215.367 L 758.791 215.367 Q 757.062 213.613 757.062 210.641 L 757.062 210.641 L 757.062 210.641 Q 757.062 206.917 759.467 204.913 L 759.467 204.913 L 759.467 204.913 Q 761.872 202.909 766.381 202.909 L 766.381 202.909 L 766.381 202.909 Q 768.435 202.909 770.605 203.218 L 770.605 203.218 L 770.605 203.218 Q 772.776 203.527 775.098 204.145 Z  M 793.767 207.568 L 793.767 207.568 L 793.767 207.568 Q 790.828 207.568 789.208 209.739 L 789.208 209.739 L 789.208 209.739 Q 787.589 211.91 787.589 215.851 L 787.589 215.851 L 787.589 215.851 Q 787.589 219.775 789.208 221.946 L 789.208 221.946 L 789.208 221.946 Q 790.828 224.117 793.767 224.117 L 793.767 224.117 L 793.767 224.117 Q 796.723 224.117 798.343 221.946 L 798.343 221.946 L 798.343 221.946 Q 799.963 219.775 799.963 215.851 L 799.963 215.851 L 799.963 215.851 Q 799.963 211.91 798.343 209.739 L 798.343 209.739 L 798.343 209.739 Q 796.723 207.568 793.767 207.568 Z  M 793.767 202.909 L 793.767 202.909 L 793.767 202.909 Q 799.779 202.909 803.186 206.349 L 803.186 206.349 L 803.186 206.349 Q 806.592 209.789 806.592 215.851 L 806.592 215.851 L 806.592 215.851 Q 806.592 221.896 803.186 225.336 L 803.186 225.336 L 803.186 225.336 Q 799.779 228.776 793.767 228.776 L 793.767 228.776 L 793.767 228.776 Q 787.772 228.776 784.357 225.336 L 784.357 225.336 L 784.357 225.336 Q 780.942 221.896 780.942 215.851 L 780.942 215.851 L 780.942 215.851 Q 780.942 209.789 784.357 206.349 L 784.357 206.349 L 784.357 206.349 Q 787.772 202.909 793.767 202.909 Z  M 811.452 228.292 L 811.452 203.36 L 818.632 203.36 L 827.7 220.46 L 827.7 203.36 L 833.795 203.36 L 833.795 228.292 L 826.615 228.292 L 817.547 211.192 L 817.547 228.292 L 811.452 228.292 Z " fill="rgb(0,0,0)"/></g></svg>