<?xml version="1.0" encoding="UTF-8" standalone="no"?><!-- Generator: Gravit.io --><svg xmlns="http://www.w3.org/2000/svg" xmlns:xlink="http://www.w3.org/1999/xlink" style="isolation:isolate" viewBox="0 0 992 250" width="992pt" height="250pt"><defs><clipPath id="_clipPath_ZDIO3rjx8faSdcUGc8tVciKBGKUko3v8"><rect width="992" height="250"/></clipPath></defs><g clip-path="url(#_clipPath_ZDIO3rjx8faSdcUGc8tVciKBGKUko3v8)"><path d=" M 378.7 64.976 L 378.7 87.866 L 336.688 87.866 L 336.688 202.127 L 308.429 202.127 L 308.429 87.866 L 266.982 87.866 L 266.982 64.976 L 378.7 64.976 Z  M 424.856 64.976 L 424.856 202.127 L 396.597 202.127 L 396.597 64.976 L 424.856 64.976 Z  M 530.451 156.441 L 558.71 156.441 L 558.71 156.441 Q 557.109 178.577 542.367 191.294 L 542.367 191.294 L 542.367 191.294 Q 527.625 204.01 503.511 204.01 L 503.511 204.01 L 503.511 204.01 Q 477.136 204.01 462.017 186.254 L 462.017 186.254 L 462.017 186.254 Q 446.898 168.498 446.898 137.508 L 446.898 137.508 L 446.898 129.124 L 446.898 129.124 Q 446.898 109.343 453.869 94.271 L 453.869 94.271 L 453.869 94.271 Q 460.839 79.2 473.792 71.146 L 473.792 71.146 L 473.792 71.146 Q 486.744 63.092 503.887 63.092 L 503.887 63.092 L 503.887 63.092 Q 527.625 63.092 542.131 75.809 L 542.131 75.809 L 542.131 75.809 Q 556.638 88.525 558.898 111.509 L 558.898 111.509 L 530.639 111.509 L 530.639 111.509 Q 529.603 98.227 523.245 92.246 L 523.245 92.246 L 523.245 92.246 Q 516.887 86.264 503.887 86.264 L 503.887 86.264 L 503.887 86.264 Q 489.758 86.264 482.74 96.391 L 482.74 96.391 L 482.74 96.391 Q 475.723 106.517 475.534 127.805 L 475.534 127.805 L 475.534 138.167 L 475.534 138.167 Q 475.534 160.397 482.269 170.665 L 482.269 170.665 L 482.269 170.665 Q 489.004 180.932 503.511 180.932 L 503.511 180.932 L 503.511 180.932 Q 516.604 180.932 523.056 174.951 L 523.056 174.951 L 523.056 174.951 Q 529.509 168.969 530.451 156.441 L 530.451 156.441 Z " fill="rgb(99,117,200)"/><path d=" M 660.835 119.49 L 660.835 141.438 L 592.613 141.438 L 592.613 119.49 L 660.835 119.49 Z " fill="rgb(190,81,85)"/><path d=" M 789.893 81.752 L 789.893 81.752 L 789.893 81.752 Q 789.893 93.715 783.911 102.969 L 783.911 102.969 L 783.911 102.969 Q 777.93 112.223 767.434 117.754 L 767.434 117.754 L 767.434 117.754 Q 779.397 123.509 786.394 133.61 L 786.394 133.61 L 786.394 133.61 Q 793.391 143.711 793.391 157.367 L 793.391 157.367 L 793.391 157.367 Q 793.391 179.261 778.494 191.958 L 778.494 191.958 L 778.494 191.958 Q 763.597 204.655 737.978 204.655 L 737.978 204.655 L 737.978 204.655 Q 712.359 204.655 697.349 191.902 L 697.349 191.902 L 697.349 191.902 Q 682.339 179.149 682.339 157.367 L 682.339 157.367 L 682.339 157.367 Q 682.339 143.711 689.336 133.554 L 689.336 133.554 L 689.336 133.554 Q 696.333 123.396 708.183 117.754 L 708.183 117.754 L 708.183 117.754 Q 697.687 112.223 691.762 102.969 L 691.762 102.969 L 691.762 102.969 Q 685.837 93.715 685.837 81.752 L 685.837 81.752 L 685.837 81.752 Q 685.837 60.76 699.832 48.289 L 699.832 48.289 L 699.832 48.289 Q 713.826 35.818 737.865 35.818 L 737.865 35.818 L 737.865 35.818 Q 761.791 35.818 775.842 48.176 L 775.842 48.176 L 775.842 48.176 Q 789.893 60.534 789.893 81.752 Z  M 760.662 154.997 L 760.662 154.997 L 760.662 154.997 Q 760.662 144.275 754.455 137.842 L 754.455 137.842 L 754.455 137.842 Q 748.248 131.409 737.752 131.409 L 737.752 131.409 L 737.752 131.409 Q 727.369 131.409 721.162 137.786 L 721.162 137.786 L 721.162 137.786 Q 714.955 144.162 714.955 154.997 L 714.955 154.997 L 714.955 154.997 Q 714.955 165.493 721.049 171.926 L 721.049 171.926 L 721.049 171.926 Q 727.143 178.359 737.978 178.359 L 737.978 178.359 L 737.978 178.359 Q 748.586 178.359 754.624 172.151 L 754.624 172.151 L 754.624 172.151 Q 760.662 165.944 760.662 154.997 Z  M 757.277 83.332 L 757.277 83.332 L 757.277 83.332 Q 757.277 73.739 752.198 67.927 L 752.198 67.927 L 752.198 67.927 Q 747.119 62.114 737.865 62.114 L 737.865 62.114 L 737.865 62.114 Q 728.723 62.114 723.645 67.757 L 723.645 67.757 L 723.645 67.757 Q 718.566 73.4 718.566 83.332 L 718.566 83.332 L 718.566 83.332 Q 718.566 93.15 723.645 99.132 L 723.645 99.132 L 723.645 99.132 Q 728.723 105.113 737.978 105.113 L 737.978 105.113 L 737.978 105.113 Q 747.232 105.113 752.254 99.132 L 752.254 99.132 L 752.254 99.132 Q 757.277 93.15 757.277 83.332 Z  M 926 104.211 L 926 134.457 L 926 134.457 Q 926 168.54 911.893 186.597 L 911.893 186.597 L 911.893 186.597 Q 897.785 204.655 870.586 204.655 L 870.586 204.655 L 870.586 204.655 Q 843.726 204.655 829.506 186.936 L 829.506 186.936 L 829.506 186.936 Q 815.286 169.217 814.947 136.149 L 814.947 136.149 L 814.947 105.903 L 814.947 105.903 Q 814.947 71.482 829.224 53.65 L 829.224 53.65 L 829.224 53.65 Q 843.5 35.818 870.361 35.818 L 870.361 35.818 L 870.361 35.818 Q 897.221 35.818 911.441 53.481 L 911.441 53.481 L 911.441 53.481 Q 925.661 71.143 926 104.211 L 926 104.211 Z  M 893.384 140.325 L 893.384 101.276 L 893.384 101.276 Q 893.384 80.849 887.797 71.538 L 887.797 71.538 L 887.797 71.538 Q 882.211 62.227 870.361 62.227 L 870.361 62.227 L 870.361 62.227 Q 858.849 62.227 853.376 71.087 L 853.376 71.087 L 853.376 71.087 Q 847.902 79.946 847.563 98.793 L 847.563 98.793 L 847.563 138.745 L 847.563 138.745 Q 847.563 158.834 853.037 168.596 L 853.037 168.596 L 853.037 168.596 Q 858.511 178.359 870.586 178.359 L 870.586 178.359 L 870.586 178.359 Q 882.549 178.359 887.854 168.991 L 887.854 168.991 L 887.854 168.991 Q 893.158 159.624 893.384 140.325 L 893.384 140.325 Z " fill="rgb(48,45,97)"/><rect x="82.355" y="59.735" width="119.51" height="119.51" transform="matrix(1,0,0,1,0,0)" fill="rgb(99,117,200)"/><rect x="93.578" y="81.271" width="97.368" height="55.395" transform="matrix(1,0,0,1,0,0)" fill="rgb(235,235,235)"/><rect x="114.508" y="146.486" width="11.526" height="11.526" transform="matrix(1,0,0,1,0,0)" fill="rgb(235,235,235)"/><rect x="114.508" y="92.798" width="11.526" height="32.342" transform="matrix(1,0,0,1,0,0)" fill="rgb(0,0,0)"/><rect x="224.918" y="92.798" width="11.526" height="32.342" transform="matrix(1,0,0,1,0,0)" fill="rgb(0,0,0)"/><rect x="201.866" y="59.735" width="11.526" height="119.51" transform="matrix(1,0,0,1,0,0)" fill="rgb(0,0,0)"/><rect x="158.49" y="92.798" width="11.526" height="32.342" transform="matrix(1,0,0,1,0,0)" fill="rgb(0,0,0)"/><rect x="158.49" y="146.486" width="11.526" height="11.526" transform="matrix(1,0,0,1,0,0)" fill="rgb(235,235,235)"/><rect x="213.392" y="125.14" width="11.526" height="11.526" transform="matrix(1,0,0,1,0,0)" fill="rgb(0,0,0)"/><rect x="126.034" y="158.013" width="32.456" height="11.526" transform="matrix(1,0,0,1,0,0)" fill="rgb(235,235,235)"/><rect x="158.49" y="190.772" width="32.456" height="11.526" transform="matrix(1,0,0,1,0,0)" fill="rgb(48,45,97)"/><rect x="93.578" y="190.772" width="32.456" height="11.526" transform="matrix(1,0,0,1,0,0)" fill="rgb(48,45,97)"/><rect x="93.578" y="69.973" width="97.368" height="11.526" transform="matrix(1,0,0,1,0,0)" fill="rgb(48,45,97)"/><rect x="93.578" y="48.209" width="108.287" height="11.526" transform="matrix(1,0,0,1,0,0)" fill="rgb(48,45,97)"/><rect x="82.355" y="179.246" width="119.814" height="11.526" transform="matrix(1,0,0,1,0,0)" fill="rgb(0,0,0)"/></g></svg>