<?xml version="1.0" encoding="UTF-8" standalone="no"?><!-- Generator: Gravit.io --><svg xmlns="http://www.w3.org/2000/svg" xmlns:xlink="http://www.w3.org/1999/xlink" style="isolation:isolate" viewBox="0 0 992 250" width="992pt" height="250pt"><defs><clipPath id="_clipPath_2ljBr6lSnVkKg7MijpolR9JsLVZEp7Wk"><rect width="992" height="250"/></clipPath></defs><g clip-path="url(#_clipPath_2ljBr6lSnVkKg7MijpolR9JsLVZEp7Wk)"><path d=" M 472.17 115.777 L 468.523 136.933 L 425.159 136.933 L 420.214 165.059 L 471.522 165.059 L 467.712 186.943 L 388.684 186.943 L 409.11 68.928 L 488.3 68.928 L 484.491 90.894 L 433.102 90.894 L 428.725 115.777 L 472.17 115.777 Z  M 548.963 186.943 L 501.627 186.943 L 522.053 68.928 L 559.582 69.009 L 559.582 69.009 Q 581.791 69.09 592.733 77.438 L 592.733 77.438 L 592.733 77.438 Q 603.675 85.787 602.703 100.863 L 602.703 100.863 L 602.703 100.863 Q 601.487 119.506 582.277 127.287 L 582.277 127.287 L 582.277 127.287 Q 589.167 129.719 593.017 136.082 L 593.017 136.082 L 593.017 136.082 Q 596.867 142.444 596.299 151.36 L 596.299 151.36 L 596.299 151.36 Q 595.165 168.463 582.804 177.703 L 582.804 177.703 L 582.804 177.703 Q 570.443 186.943 548.963 186.943 L 548.963 186.943 Z  M 558.528 136.852 L 538.102 136.771 L 533.158 165.059 L 549.774 165.14 L 549.774 165.14 Q 557.555 165.14 562.743 161.29 L 562.743 161.29 L 562.743 161.29 Q 567.93 157.439 568.903 151.036 L 568.903 151.036 L 568.903 151.036 Q 571.172 137.5 558.528 136.852 L 558.528 136.852 Z  M 546.045 90.894 L 541.263 118.128 L 554.313 118.209 L 554.313 118.209 Q 572.388 117.804 574.577 104.349 L 574.577 104.349 L 574.577 104.349 Q 576.522 91.056 560.797 90.975 L 560.797 90.975 L 546.045 90.894 Z  M 665.983 188.564 L 665.983 188.564 L 665.983 188.564 Q 647.583 188.159 636.479 176.406 L 636.479 176.406 L 636.479 176.406 Q 625.375 164.653 623.916 144.957 L 623.916 144.957 L 623.916 144.957 Q 623.105 135.23 625.456 122.059 L 625.456 122.059 L 625.456 122.059 Q 627.806 108.888 633.804 97.783 L 633.804 97.783 L 633.804 97.783 Q 639.802 86.679 648.799 79.303 L 648.799 79.303 L 648.799 79.303 Q 663.875 66.901 683.491 67.307 L 683.491 67.307 L 683.491 67.307 Q 695.568 67.55 704.605 72.859 L 704.605 72.859 L 704.605 72.859 Q 713.643 78.168 719.074 88.138 L 719.074 88.138 L 719.074 88.138 Q 724.504 98.107 725.396 110.833 L 725.396 110.833 L 725.396 110.833 Q 726.044 119.83 724.302 131.299 L 724.302 131.299 L 724.302 131.299 Q 722.559 142.769 717.898 153.184 L 717.898 153.184 L 717.898 153.184 Q 713.238 163.6 705.862 171.543 L 705.862 171.543 L 705.862 171.543 Q 698.486 179.486 688.476 184.147 L 688.476 184.147 L 688.476 184.147 Q 678.465 188.808 665.983 188.564 Z  M 697.594 110.59 L 697.594 110.59 L 697.594 110.59 Q 696.784 90.326 681.87 89.516 L 681.87 89.516 L 681.87 89.516 Q 670.36 88.948 662.822 98.634 L 662.822 98.634 L 662.822 98.634 Q 655.284 108.32 652.852 127.206 L 652.852 127.206 L 652.852 127.206 Q 651.312 138.878 651.717 145.281 L 651.717 145.281 L 651.717 145.281 Q 652.528 165.869 667.604 166.437 L 667.604 166.437 L 667.604 166.437 Q 677.493 166.923 684.625 159.344 L 684.625 159.344 L 684.625 159.344 Q 691.758 151.766 694.919 137.297 L 694.919 137.297 L 694.919 137.297 Q 698.081 122.829 697.594 110.59 Z  M 786.3 68.928 L 798.783 107.996 L 823.585 68.928 L 856.494 68.928 L 814.507 128.584 L 837.608 186.943 L 806.888 186.943 L 793.919 147.146 L 768.468 186.943 L 735.317 186.943 L 778.276 126.314 L 755.905 68.928 L 786.3 68.928 Z  M 207.016 68.928 L 234.737 68.928 L 221.606 145.93 L 221.606 145.93 Q 218.769 165.95 205.111 177.46 L 205.111 177.46 L 205.111 177.46 Q 191.454 188.97 170.704 188.646 L 170.704 188.646 L 170.704 188.646 Q 157.816 188.402 148.333 183.093 L 148.333 183.093 L 148.333 183.093 Q 138.849 177.784 134.351 168.098 L 134.351 168.098 L 134.351 168.098 Q 129.852 158.412 131.311 146.011 L 131.311 146.011 L 144.442 68.928 L 172.325 68.928 L 159.275 146.092 L 159.275 146.092 Q 158.789 150.145 159.113 153.792 L 159.113 153.792 L 159.113 153.792 Q 159.518 159.79 162.882 163.113 L 162.882 163.113 L 162.882 163.113 Q 166.246 166.437 172.406 166.68 L 172.406 166.68 L 172.406 166.68 Q 190.238 167.247 193.885 146.011 L 193.885 146.011 L 207.016 68.928 Z " fill="rgb(0,0,0)"/><path d=" M 227 108 L 436 13 L 320 164 L 402 122 L 402 148 L 194 242 L 308 91 L 218 136 L 227 108 Z " fill="rgb(0,0,0)"/><path d=" M 465.17 110.777 L 461.523 131.933 L 418.159 131.933 L 413.214 160.059 L 464.522 160.059 L 460.712 181.943 L 381.684 181.943 L 402.11 63.928 L 481.3 63.928 L 477.491 85.894 L 426.102 85.894 L 421.725 110.777 L 465.17 110.777 Z  M 541.963 181.943 L 494.627 181.943 L 515.053 63.928 L 552.582 64.009 L 552.582 64.009 Q 574.791 64.09 585.733 72.438 L 585.733 72.438 L 585.733 72.438 Q 596.675 80.787 595.703 95.863 L 595.703 95.863 L 595.703 95.863 Q 594.487 114.506 575.277 122.287 L 575.277 122.287 L 575.277 122.287 Q 582.167 124.719 586.017 131.082 L 586.017 131.082 L 586.017 131.082 Q 589.867 137.444 589.299 146.36 L 589.299 146.36 L 589.299 146.36 Q 588.165 163.463 575.804 172.703 L 575.804 172.703 L 575.804 172.703 Q 563.443 181.943 541.963 181.943 L 541.963 181.943 Z  M 551.528 131.852 L 531.102 131.771 L 526.158 160.059 L 542.774 160.14 L 542.774 160.14 Q 550.555 160.14 555.743 156.29 L 555.743 156.29 L 555.743 156.29 Q 560.93 152.439 561.903 146.036 L 561.903 146.036 L 561.903 146.036 Q 564.172 132.5 551.528 131.852 L 551.528 131.852 Z  M 539.045 85.894 L 534.263 113.128 L 547.313 113.209 L 547.313 113.209 Q 565.388 112.804 567.577 99.349 L 567.577 99.349 L 567.577 99.349 Q 569.522 86.056 553.797 85.975 L 553.797 85.975 L 539.045 85.894 Z  M 658.983 183.564 L 658.983 183.564 L 658.983 183.564 Q 640.583 183.159 629.479 171.406 L 629.479 171.406 L 629.479 171.406 Q 618.375 159.653 616.916 139.957 L 616.916 139.957 L 616.916 139.957 Q 616.105 130.23 618.456 117.059 L 618.456 117.059 L 618.456 117.059 Q 620.806 103.888 626.804 92.783 L 626.804 92.783 L 626.804 92.783 Q 632.802 81.679 641.799 74.303 L 641.799 74.303 L 641.799 74.303 Q 656.875 61.901 676.491 62.307 L 676.491 62.307 L 676.491 62.307 Q 688.568 62.55 697.605 67.859 L 697.605 67.859 L 697.605 67.859 Q 706.643 73.168 712.074 83.138 L 712.074 83.138 L 712.074 83.138 Q 717.504 93.107 718.396 105.833 L 718.396 105.833 L 718.396 105.833 Q 719.044 114.83 717.302 126.299 L 717.302 126.299 L 717.302 126.299 Q 715.559 137.769 710.898 148.184 L 710.898 148.184 L 710.898 148.184 Q 706.238 158.6 698.862 166.543 L 698.862 166.543 L 698.862 166.543 Q 691.486 174.486 681.476 179.147 L 681.476 179.147 L 681.476 179.147 Q 671.465 183.808 658.983 183.564 Z  M 690.594 105.59 L 690.594 105.59 L 690.594 105.59 Q 689.784 85.326 674.87 84.516 L 674.87 84.516 L 674.87 84.516 Q 663.36 83.948 655.822 93.634 L 655.822 93.634 L 655.822 93.634 Q 648.284 103.32 645.852 122.206 L 645.852 122.206 L 645.852 122.206 Q 644.312 133.878 644.717 140.281 L 644.717 140.281 L 644.717 140.281 Q 645.528 160.869 660.604 161.437 L 660.604 161.437 L 660.604 161.437 Q 670.493 161.923 677.625 154.344 L 677.625 154.344 L 677.625 154.344 Q 684.758 146.766 687.919 132.297 L 687.919 132.297 L 687.919 132.297 Q 691.081 117.829 690.594 105.59 Z  M 779.3 63.928 L 791.783 102.996 L 816.585 63.928 L 849.494 63.928 L 807.507 123.584 L 830.608 181.943 L 799.888 181.943 L 786.919 142.146 L 761.468 181.943 L 728.317 181.943 L 771.276 121.314 L 748.905 63.928 L 779.3 63.928 Z  M 200.016 63.928 L 227.737 63.928 L 214.606 140.93 L 214.606 140.93 Q 211.769 160.95 198.111 172.46 L 198.111 172.46 L 198.111 172.46 Q 184.454 183.97 163.704 183.646 L 163.704 183.646 L 163.704 183.646 Q 150.816 183.402 141.333 178.093 L 141.333 178.093 L 141.333 178.093 Q 131.849 172.784 127.351 163.098 L 127.351 163.098 L 127.351 163.098 Q 122.852 153.412 124.311 141.011 L 124.311 141.011 L 137.442 63.928 L 165.325 63.928 L 152.275 141.092 L 152.275 141.092 Q 151.789 145.145 152.113 148.792 L 152.113 148.792 L 152.113 148.792 Q 152.518 154.79 155.882 158.113 L 155.882 158.113 L 155.882 158.113 Q 159.246 161.437 165.406 161.68 L 165.406 161.68 L 165.406 161.68 Q 183.238 162.247 186.885 141.011 L 186.885 141.011 L 200.016 63.928 Z " fill="rgb(253,253,253)"/><path d=" M 220 103 L 429 8 L 313 159 L 395 117 L 395 143 L 187 237 L 301 86 L 211 131 L 220 103 Z " fill="rgb(253,253,253)"/></g></svg>