<?xml version="1.0" encoding="UTF-8" standalone="no"?><!-- Generator: Gravit.io --><svg xmlns="http://www.w3.org/2000/svg" xmlns:xlink="http://www.w3.org/1999/xlink" style="isolation:isolate" viewBox="0 0 992 250" width="992pt" height="250pt"><defs><clipPath id="_clipPath_6WoQiE5Psm6G8dh3Qo3JXuuyR4Fdebpl"><rect width="992" height="250"/></clipPath></defs><g clip-path="url(#_clipPath_6WoQiE5Psm6G8dh3Qo3JXuuyR4Fdebpl)"><path d=" M 300.93 80.074 L 359 79.852 L 228 228.852 L 97 80.852 L 288.248 80.122 C 287.221 81.082 286.182 82.086 285.14 83.129 L 226.754 141.515 C 216.962 151.306 210.557 160.801 212.46 162.703 L 212.46 162.703 C 214.362 164.606 223.856 158.201 233.648 148.409 L 292.034 90.023 C 295.495 86.562 298.533 83.138 300.93 80.074 Z " fill="rgb(119,119,119)"/><path d=" M 813.019 228.852 L 898.25 228.852 L 855.5 174.102 L 898.25 119.352 L 858.335 119.786 L 838.398 139.724 C 828.606 149.515 819.112 155.92 817.21 154.018 L 817.21 154.018 C 815.307 152.115 821.712 142.621 831.504 132.829 L 844.395 119.938 L 760.25 120.852 L 806.75 174.102 L 760.25 228.852 L 799.231 228.852 L 821.64 206.443 C 831.431 196.652 840.925 190.247 842.828 192.149 L 842.828 192.149 C 844.731 194.052 838.326 203.546 828.534 213.337 L 813.019 228.852 Z " fill="rgb(119,119,119)"/><path d=" M 639.481 120.852 L 596 120.852 L 596 228.852 L 631.25 228.852 L 631.25 157.465 L 659 157.465 L 691.25 120.852 L 653.269 120.852 L 634.398 139.724 C 624.606 149.515 615.112 155.92 613.21 154.018 L 613.21 154.018 C 611.307 152.115 617.712 142.621 627.504 132.829 L 639.481 120.852 Z " fill="rgb(119,119,119)"/><path d=" M 487.607 183.257 C 490.741 180.857 494.299 177.716 497.898 174.117 L 525.07 146.946 C 529.175 154.721 531.5 163.58 531.5 172.977 C 531.5 203.815 506.463 228.852 475.625 228.852 C 444.787 228.852 419.75 203.815 419.75 172.977 C 419.75 142.139 444.787 117.102 475.625 117.102 C 493.495 117.102 509.416 125.509 519.647 138.58 L 491.004 167.223 C 490.356 167.871 489.723 168.517 489.098 169.161 C 486.878 163.84 481.622 160.102 475.5 160.102 C 467.359 160.102 460.75 166.711 460.75 174.852 C 460.75 182.993 467.359 189.602 475.5 189.602 C 480.516 189.602 484.95 187.093 487.607 183.257 Z " fill="rgb(119,119,119)"/><path d=" M 530.503 119.473 L 490.25 120.102 L 575.75 27.102 L 575.75 80.852 L 631.25 80.852 L 596 120.102 L 575.75 119.352 L 575.75 228.852 L 538.25 228.852 L 538.25 125.515 L 548.034 115.731 C 557.826 105.94 564.231 96.446 562.328 94.543 L 562.328 94.543 C 560.425 92.64 550.931 99.045 541.14 108.837 L 530.503 119.473 Z " fill="rgb(119,119,119)"/><path d=" M 767.566 138.161 C 757.324 125.33 741.553 117.102 723.875 117.102 C 693.037 117.102 668 142.139 668 172.977 L 668 172.977 C 668 203.815 693.037 228.852 723.875 228.852 C 754.713 228.852 779.75 203.815 779.75 172.977 C 779.75 163.382 777.326 154.349 773.058 146.457 L 745.398 174.117 C 735.606 183.909 726.112 190.314 724.21 188.411 L 724.21 188.411 C 722.307 186.509 728.712 177.015 738.504 167.223 L 767.566 138.161 Z  M 708.908 176.106 C 706.391 173.129 709.394 166.445 715.61 161.189 C 721.826 155.932 728.916 154.081 731.433 157.057 C 733.95 160.033 730.947 166.717 724.731 171.974 C 718.515 177.231 711.425 179.082 708.908 176.106 L 708.908 176.106 Z " fill-rule="evenodd" fill="rgb(119,119,119)"/><path d=" M 402.691 138.161 C 392.449 125.33 376.678 117.102 359 117.102 C 328.162 117.102 303.125 142.139 303.125 172.977 L 303.125 172.977 C 303.125 203.815 328.162 228.852 359 228.852 C 389.838 228.852 414.875 203.815 414.875 172.977 C 414.875 163.382 412.451 154.349 408.183 146.457 L 380.523 174.117 C 370.731 183.909 361.237 190.314 359.335 188.411 L 359.335 188.411 C 357.432 186.509 363.837 177.015 373.629 167.223 L 402.691 138.161 Z  M 344.033 176.106 C 341.516 173.129 344.519 166.445 350.735 161.189 C 356.951 155.932 364.041 154.081 366.558 157.057 C 369.075 160.033 366.072 166.717 359.856 171.974 C 353.64 177.231 346.55 179.082 344.033 176.106 L 344.033 176.106 Z " fill-rule="evenodd" fill="rgb(119,119,119)"/><path d=" M 298.93 76.222 L 357 76 L 226 225 L 95 77 L 286.248 76.27 C 285.221 77.23 284.182 78.234 283.14 79.276 L 224.754 137.663 C 214.962 147.454 208.557 156.948 210.46 158.851 L 210.46 158.851 C 212.362 160.753 221.856 154.349 231.648 144.557 L 290.034 86.171 C 293.495 82.71 296.533 79.286 298.93 76.222 Z " fill="rgb(251,251,251)"/><path d=" M 811.019 225 L 896.25 225 L 853.5 170.25 L 896.25 115.5 L 856.335 115.934 L 836.398 135.871 C 826.606 145.663 817.112 152.068 815.21 150.165 L 815.21 150.165 C 813.307 148.263 819.712 138.769 829.504 128.977 L 842.395 116.085 L 758.25 117 L 804.75 170.25 L 758.25 225 L 797.231 225 L 819.64 202.591 C 829.431 192.799 838.925 186.394 840.828 188.297 L 840.828 188.297 C 842.731 190.2 836.326 199.694 826.534 209.485 L 811.019 225 Z " fill="rgb(251,251,251)"/><path d=" M 637.481 117 L 594 117 L 594 225 L 629.25 225 L 629.25 153.613 L 657 153.613 L 689.25 117 L 651.269 117 L 632.398 135.871 C 622.606 145.663 613.112 152.068 611.21 150.165 L 611.21 150.165 C 609.307 148.263 615.712 138.769 625.504 128.977 L 637.481 117 Z " fill="rgb(251,251,251)"/><path d=" M 485.607 179.405 C 488.741 177.005 492.299 173.864 495.898 170.265 L 523.07 143.094 C 527.175 150.869 529.5 159.728 529.5 169.125 C 529.5 199.963 504.463 225 473.625 225 C 442.787 225 417.75 199.963 417.75 169.125 C 417.75 138.287 442.787 113.25 473.625 113.25 C 491.495 113.25 507.416 121.657 517.647 134.727 L 489.004 163.371 C 488.356 164.018 487.723 164.665 487.098 165.309 C 484.878 159.988 479.622 156.25 473.5 156.25 C 465.359 156.25 458.75 162.859 458.75 171 C 458.75 179.141 465.359 185.75 473.5 185.75 C 478.516 185.75 482.95 183.241 485.607 179.405 Z " fill="rgb(251,251,251)"/><path d=" M 528.503 115.621 L 488.25 116.25 L 573.75 23.25 L 573.75 77 L 629.25 77 L 594 116.25 L 573.75 115.5 L 573.75 225 L 536.25 225 L 536.25 121.663 L 546.034 111.879 C 555.826 102.087 562.231 92.593 560.328 90.691 L 560.328 90.691 C 558.425 88.788 548.931 95.193 539.14 104.985 L 528.503 115.621 Z " fill="rgb(251,251,251)"/><path d=" M 765.566 134.309 C 755.324 121.477 739.553 113.25 721.875 113.25 C 691.037 113.25 666 138.287 666 169.125 L 666 169.125 C 666 199.963 691.037 225 721.875 225 C 752.713 225 777.75 199.963 777.75 169.125 C 777.75 159.53 775.326 150.497 771.058 142.605 L 743.398 170.265 C 733.606 180.057 724.112 186.462 722.21 184.559 L 722.21 184.559 C 720.307 182.657 726.712 173.163 736.504 163.371 L 765.566 134.309 Z  M 706.908 172.254 C 704.391 169.277 707.394 162.593 713.61 157.336 C 719.826 152.08 726.916 150.228 729.433 153.205 C 731.95 156.181 728.947 162.865 722.731 168.122 C 716.515 173.379 709.425 175.23 706.908 172.254 L 706.908 172.254 Z " fill-rule="evenodd" fill="rgb(251,251,251)"/><path d=" M 400.691 134.309 C 390.449 121.477 374.678 113.25 357 113.25 C 326.162 113.25 301.125 138.287 301.125 169.125 L 301.125 169.125 C 301.125 199.963 326.162 225 357 225 C 387.838 225 412.875 199.963 412.875 169.125 C 412.875 159.53 410.451 150.497 406.183 142.605 L 378.523 170.265 C 368.731 180.057 359.237 186.462 357.335 184.559 L 357.335 184.559 C 355.432 182.657 361.837 173.163 371.629 163.371 L 400.691 134.309 Z  M 342.033 172.254 C 339.516 169.277 342.519 162.593 348.735 157.336 C 354.951 152.08 362.041 150.228 364.558 153.205 C 367.075 156.181 364.072 162.865 357.856 168.122 C 351.64 173.379 344.55 175.23 342.033 172.254 L 342.033 172.254 Z " fill-rule="evenodd" fill="rgb(251,251,251)"/></g></svg>