<?xml version="1.0" encoding="UTF-8" standalone="no"?><!-- Generator: Gravit.io --><svg xmlns="http://www.w3.org/2000/svg" xmlns:xlink="http://www.w3.org/1999/xlink" style="isolation:isolate" viewBox="0 0 992 250" width="992pt" height="250pt"><defs><clipPath id="_clipPath_RgBeiIjbD6hpo8HVlfNlN6vp8jH64TPr"><rect width="992" height="250"/></clipPath></defs><g clip-path="url(#_clipPath_RgBeiIjbD6hpo8HVlfNlN6vp8jH64TPr)"><path d=" M 636.235 205.374 L 604.743 205.374 L 604.743 43.665 L 634.337 43.665 L 634.337 43.665 Q 648.986 43.665 656.637 54.66 L 656.637 54.66 L 656.637 54.66 Q 664.287 65.656 664.287 87.424 L 664.287 87.424 L 664.287 87.424 Q 664.287 98.531 661.085 107.416 L 661.085 107.416 L 661.085 107.416 Q 657.882 116.301 651.714 121.188 L 651.714 121.188 L 651.714 121.188 Q 658.713 124.742 662.538 134.571 L 662.538 134.571 L 662.538 134.571 Q 666.363 144.4 666.363 158.172 L 666.363 158.172 L 666.363 158.172 Q 666.363 180.94 658.564 193.157 L 658.564 193.157 L 658.564 193.157 Q 650.765 205.374 636.235 205.374 L 636.235 205.374 Z  M 637.659 132.405 L 619.748 132.405 L 619.748 182.939 L 636.413 182.939 L 636.413 182.939 Q 643.471 182.939 647.444 176.386 L 647.444 176.386 L 647.444 176.386 Q 651.418 169.834 651.418 158.172 L 651.418 158.172 L 651.418 158.172 Q 651.418 132.96 637.659 132.405 L 637.659 132.405 Z  M 619.748 66.322 L 619.748 111.747 L 634.456 111.747 L 634.456 111.747 Q 641.454 111.747 645.398 105.805 L 645.398 105.805 L 645.398 105.805 Q 649.342 99.863 649.342 88.979 L 649.342 88.979 L 649.342 88.979 Q 649.342 76.984 645.695 71.653 L 645.695 71.653 L 645.695 71.653 Q 642.047 66.322 634.337 66.322 L 634.337 66.322 L 619.748 66.322 Z  M 739.121 119.744 L 739.121 128.74 L 739.121 128.74 Q 739.121 152.508 734.733 170.445 L 734.733 170.445 L 734.733 170.445 Q 730.344 188.381 722.189 197.988 L 722.189 197.988 L 722.189 197.988 Q 714.035 205.374 703.419 205.374 Q 689.984 204.16 684.707 197.988 L 684.707 197.988 L 684.707 197.988 Q 676.493 188.381 672.016 170.611 L 672.016 170.611 L 672.016 170.611 Q 667.538 152.841 667.479 129.629 L 667.479 129.629 L 667.479 120.521 L 667.479 120.521 Q 667.479 96.865 671.956 78.761 L 671.956 78.761 L 671.956 78.761 Q 676.434 60.658 684.589 51.051 L 684.589 51.051 L 684.589 51.051 Q 692.743 41.444 703.3 41.444 L 703.3 41.444 L 703.3 41.444 Q 713.857 41.444 722.011 50.94 L 722.011 50.94 L 722.011 50.94 Q 730.166 60.436 734.614 78.262 L 734.614 78.262 L 734.614 78.262 Q 739.062 96.087 739.121 119.744 L 739.121 119.744 Z  M 724.117 128.74 L 724.117 120.299 L 724.117 120.299 Q 724.117 93.422 718.69 79.095 L 718.69 79.095 L 718.69 79.095 Q 713.264 64.767 703.3 64.767 L 703.3 64.767 L 703.3 64.767 Q 693.574 64.767 688.088 79.039 L 688.088 79.039 L 688.088 79.039 Q 682.602 93.311 682.483 119.411 L 682.483 119.411 L 682.483 128.74 L 682.483 128.74 Q 682.483 155.395 688.028 169.945 L 688.028 169.945 L 688.028 169.945 Q 693.574 184.494 703.419 184.494 L 703.419 184.494 L 703.419 184.494 Q 713.382 184.494 718.749 170.278 L 718.749 170.278 L 718.749 170.278 Q 724.117 156.062 724.117 128.74 L 724.117 128.74 Z  M 748.658 43.665 L 768.526 120.299 L 788.394 43.665 L 805 43.665 L 776.058 145.844 L 776.058 205.374 L 760.994 205.374 L 760.994 145.844 L 731.993 43.665 L 748.658 43.665 Z  M 188.678 43.665 L 210.384 170.167 L 232.328 43.665 L 248.815 43.665 L 217.739 205.374 L 203.208 205.374 L 172.25 43.665 L 188.678 43.665 Z  M 263.215 43.665 L 263.215 205.374 L 248.27 205.374 L 248.27 43.665 L 263.215 43.665 Z  M 319.546 205.374 L 302.228 143.067 L 285.503 143.067 L 285.503 205.374 L 270.499 205.374 L 270.499 43.665 L 300.864 43.665 L 300.864 43.665 Q 315.809 43.665 323.934 56.215 L 323.934 56.215 L 323.934 56.215 Q 332.059 68.766 332.059 92.533 L 332.059 92.533 L 332.059 92.533 Q 332.059 108.749 327.878 119.688 L 327.878 119.688 L 327.878 119.688 Q 323.697 130.628 316.224 136.515 L 316.224 136.515 L 335.618 203.93 L 335.618 205.374 L 319.546 205.374 Z  M 285.503 66.322 L 285.503 120.521 L 300.923 120.521 L 300.923 120.521 Q 308.515 120.521 312.785 113.358 L 312.785 113.358 L 312.785 113.358 Q 317.055 106.194 317.055 93.755 L 317.055 93.755 L 317.055 93.755 Q 317.055 80.76 313.111 73.652 L 313.111 73.652 L 313.111 73.652 Q 309.167 66.544 301.338 66.322 L 301.338 66.322 L 285.503 66.322 Z  M 394.557 43.665 L 394.557 66.322 L 367.632 66.322 L 367.632 205.374 L 352.746 205.374 L 352.746 66.322 L 326.058 66.322 L 326.058 43.665 L 394.557 43.665 Z  M 442.94 43.665 L 457.886 43.665 L 457.886 151.73 L 457.886 151.73 Q 457.886 177.497 449.079 192.546 L 449.079 192.546 L 449.079 192.546 Q 439.336 205.374 425.623 205.374 Q 411.91 205.374 402.078 192.768 L 402.078 192.768 L 402.078 192.768 Q 393.36 177.941 393.36 151.619 L 393.36 151.619 L 393.36 43.665 L 408.305 43.665 L 408.305 151.841 L 408.305 151.841 Q 408.305 168.057 412.694 176.609 L 412.694 176.609 L 412.694 176.609 Q 417.083 185.161 425.623 185.161 L 425.623 185.161 L 425.623 185.161 Q 442.94 185.161 442.94 150.953 L 442.94 150.953 L 442.94 43.665 Z  M 516.826 205.374 L 509.768 167.724 L 476.319 167.724 L 469.321 205.374 L 453.723 205.374 L 486.342 43.665 L 499.804 43.665 L 532.483 205.374 L 516.826 205.374 Z  M 493.043 77.984 L 480.53 145.066 L 505.557 145.066 L 493.043 77.984 Z  M 546.112 43.665 L 546.112 182.939 L 585.314 182.939 L 585.314 205.374 L 531.107 205.374 L 531.107 43.665 L 546.112 43.665 Z " fill="rgb(221,9,9)"/></g></svg>