<?xml version="1.0" encoding="UTF-8" standalone="no"?><!-- Generator: Gravit.io --><svg xmlns="http://www.w3.org/2000/svg" xmlns:xlink="http://www.w3.org/1999/xlink" style="isolation:isolate" viewBox="0 0 992 250" width="992pt" height="250pt"><defs><clipPath id="_clipPath_WsTi8ZDvgOyQP7o8wlXMi2Gi1W35G2u2"><rect width="992" height="250"/></clipPath></defs><g clip-path="url(#_clipPath_WsTi8ZDvgOyQP7o8wlXMi2Gi1W35G2u2)"><path d=" M 228.06 28.082 L 231.968 86.592 L 251.849 28.082 L 268.784 28.082 L 238.142 110.551 L 221.433 110.551 L 217.071 55.609 L 195.491 110.551 L 178.782 110.551 L 173.911 28.082 L 190.11 28.082 L 191.753 86.309 L 213.956 28.082 L 228.06 28.082 Z  M 296.708 48.133 L 296.708 48.133 L 296.708 48.133 Q 304.808 48.246 310.67 52.296 L 310.67 52.296 L 310.67 52.296 Q 316.532 56.346 319.279 63.454 L 319.279 63.454 L 319.279 63.454 Q 322.026 70.563 321.233 79.229 L 321.233 79.229 L 321.233 79.229 Q 319.931 93.842 311.066 102.876 L 311.066 102.876 L 311.066 102.876 Q 302.202 111.91 289.175 111.684 L 289.175 111.684 L 289.175 111.684 Q 281.188 111.57 275.354 107.577 L 275.354 107.577 L 275.354 107.577 Q 269.521 103.584 266.745 96.504 L 266.745 96.504 L 266.745 96.504 Q 263.97 89.424 264.763 80.871 L 264.763 80.871 L 264.763 80.871 Q 266.235 65.691 275.071 56.742 L 275.071 56.742 L 275.071 56.742 Q 283.907 47.793 296.708 48.133 Z  M 280.565 86.705 L 280.565 86.705 L 280.565 86.705 Q 280.679 92.143 283.114 95.286 L 283.114 95.286 L 283.114 95.286 Q 285.55 98.43 289.968 98.543 L 289.968 98.543 L 289.968 98.543 Q 297.331 98.77 301.522 91.774 L 301.522 91.774 L 301.522 91.774 Q 305.714 84.779 305.431 73.395 L 305.431 73.395 L 305.431 73.395 Q 305.204 67.957 302.797 64.7 L 302.797 64.7 L 302.797 64.7 Q 300.39 61.443 295.915 61.33 L 295.915 61.33 L 295.915 61.33 Q 288.778 61.104 284.502 68.042 L 284.502 68.042 L 284.502 68.042 Q 280.226 74.98 280.565 86.705 Z  M 336.13 49.266 L 351.083 49.209 L 349.724 56.459 L 349.724 56.459 Q 357.087 47.906 367.565 48.133 L 367.565 48.133 L 367.565 48.133 Q 376.231 48.303 380.366 54.477 L 380.366 54.477 L 380.366 54.477 Q 384.501 60.65 383.368 71.582 L 383.368 71.582 L 376.911 110.551 L 360.938 110.551 L 367.509 71.412 L 367.509 71.412 Q 367.792 69.203 367.622 67.391 L 367.622 67.391 L 367.622 67.391 Q 366.886 61.613 360.372 61.443 L 360.372 61.443 L 360.372 61.443 Q 354.085 61.217 349.101 67.277 L 349.101 67.277 L 341.454 110.551 L 325.481 110.551 L 336.13 49.266 Z  M 419.845 48.076 L 419.845 48.076 L 419.845 48.076 Q 428.397 48.303 433.665 54.93 L 433.665 54.93 L 439.669 23.551 L 455.698 23.551 L 440.632 110.551 L 426.358 110.551 L 427.265 103.98 L 427.265 103.98 Q 420.411 111.967 411.292 111.74 L 411.292 111.74 L 411.292 111.74 Q 405.571 111.684 401.267 108.738 L 401.267 108.738 L 401.267 108.738 Q 396.962 105.793 394.611 100.271 L 394.611 100.271 L 394.611 100.271 Q 392.261 94.748 392.034 87.951 L 392.034 87.951 L 392.034 87.951 Q 391.864 84.383 392.204 81.041 L 392.204 81.041 L 392.544 78.492 L 392.544 78.492 Q 393.903 69.09 397.783 61.953 L 397.783 61.953 L 397.783 61.953 Q 401.663 54.816 407.299 51.361 L 407.299 51.361 L 407.299 51.361 Q 412.935 47.906 419.845 48.076 Z  M 408.233 81.041 L 408.233 81.041 L 408.233 81.041 Q 407.78 85.346 407.95 88.291 L 407.95 88.291 L 407.95 88.291 Q 408.517 98.26 415.993 98.43 L 415.993 98.43 L 415.993 98.43 Q 422.733 98.713 427.718 92.086 L 427.718 92.086 L 432.079 67.73 L 432.079 67.73 Q 429.87 61.67 423.243 61.387 L 423.243 61.387 L 423.243 61.387 Q 417.409 61.217 413.529 65.89 L 413.529 65.89 L 413.529 65.89 Q 409.649 70.563 408.233 81.041 Z  M 482.489 111.684 L 482.489 111.684 L 482.489 111.684 Q 474.446 111.627 468.244 107.747 L 468.244 107.747 L 468.244 107.747 Q 462.042 103.867 458.983 97.099 L 458.983 97.099 L 458.983 97.099 Q 455.925 90.33 456.604 82.174 L 456.604 82.174 L 456.774 79.908 L 456.774 79.908 Q 457.624 70.959 461.985 63.482 L 461.985 63.482 L 461.985 63.482 Q 466.347 56.006 473.2 51.956 L 473.2 51.956 L 473.2 51.956 Q 480.054 47.906 488.38 48.133 L 488.38 48.133 L 488.38 48.133 Q 500.218 48.359 506.307 56.827 L 506.307 56.827 L 506.307 56.827 Q 512.396 65.295 510.923 78.266 L 510.923 78.266 L 510.017 85.232 L 472.464 85.232 L 472.464 85.232 Q 472.237 91.18 475.353 94.748 L 475.353 94.748 L 475.353 94.748 Q 478.468 98.316 483.849 98.43 L 483.849 98.43 L 483.849 98.43 Q 492.571 98.656 499.142 91.689 L 499.142 91.689 L 506.448 100.752 L 506.448 100.752 Q 502.993 105.963 496.479 108.88 L 496.479 108.88 L 496.479 108.88 Q 489.966 111.797 482.489 111.684 Z  M 487.587 61.33 L 487.587 61.33 L 487.587 61.33 Q 483.169 61.217 479.742 64.105 L 479.742 64.105 L 479.742 64.105 Q 476.315 66.994 473.597 74.131 L 473.597 74.131 L 495.573 74.131 L 495.913 72.658 L 495.913 72.658 Q 496.253 70.393 495.97 68.354 L 495.97 68.354 L 495.97 68.354 Q 495.403 65.068 493.194 63.228 L 493.194 63.228 L 493.194 63.228 Q 490.985 61.387 487.587 61.33 Z  M 558.784 48.813 L 556.745 64.615 L 556.745 64.615 Q 553.46 64.049 551.364 64.049 L 551.364 64.049 L 551.364 64.049 Q 542.812 63.822 537.827 70.449 L 537.827 70.449 L 530.747 110.551 L 514.774 110.551 L 525.423 49.266 L 540.433 49.209 L 538.96 56.686 L 538.96 56.686 Q 544.737 48.02 553.233 48.02 L 553.233 48.02 L 553.233 48.02 Q 555.612 48.02 558.784 48.813 L 558.784 48.813 Z  M 602.794 88.518 L 602.794 88.518 L 602.794 88.518 Q 603.983 81.777 596.167 78.209 L 596.167 78.209 L 585.235 73.848 L 585.235 73.848 Q 566.204 65.352 567.167 50.455 L 567.167 50.455 L 567.167 50.455 Q 567.563 43.545 571.698 38.221 L 571.698 38.221 L 571.698 38.221 Q 575.833 32.896 583.31 29.866 L 583.31 29.866 L 583.31 29.866 Q 590.786 26.836 599.452 26.949 L 599.452 26.949 L 599.452 26.949 Q 611.403 27.176 618.767 34.058 L 618.767 34.058 L 618.767 34.058 Q 626.13 40.939 626.017 52.494 L 626.017 52.494 L 609.478 52.494 L 609.478 52.494 Q 609.761 46.887 607.014 43.771 L 607.014 43.771 L 607.014 43.771 Q 604.267 40.656 598.489 40.543 L 598.489 40.543 L 598.489 40.543 Q 592.825 40.43 588.634 43.12 L 588.634 43.12 L 588.634 43.12 Q 584.442 45.811 583.649 50.512 L 583.649 50.512 L 583.649 50.512 Q 582.573 56.686 591.919 60.311 L 591.919 60.311 L 599.396 63.143 L 603.7 65.125 L 603.7 65.125 Q 620.409 73.395 619.333 88.348 L 619.333 88.348 L 619.333 88.348 Q 618.823 95.654 614.66 100.95 L 614.66 100.95 L 614.66 100.95 Q 610.497 106.246 603.332 109.078 L 603.332 109.078 L 603.332 109.078 Q 596.167 111.91 587.558 111.74 L 587.558 111.74 L 587.558 111.74 Q 578.778 111.57 571.925 108.059 L 571.925 108.059 L 571.925 108.059 Q 565.071 104.547 561.503 98.146 L 561.503 98.146 L 561.503 98.146 Q 558.161 92.199 558.388 84.553 L 558.388 84.553 L 574.983 84.609 L 574.983 84.609 Q 574.19 98.033 588.181 98.26 L 588.181 98.26 L 588.181 98.26 Q 594.241 98.26 598.149 95.598 L 598.149 95.598 L 598.149 95.598 Q 602.058 92.936 602.794 88.518 Z  M 677.446 49.266 L 681.468 88.234 L 696.024 49.266 L 711.94 49.266 L 686.169 110.551 L 672.802 110.551 L 668.271 72.205 L 650.372 110.551 L 637.005 110.551 L 632.474 49.266 L 647.427 49.266 L 648.39 87.838 L 665.892 49.266 L 677.446 49.266 Z  M 760.538 110.551 L 744.849 110.551 L 744.849 110.551 Q 744.112 108.229 744.226 105 L 744.226 105 L 744.226 105 Q 737.315 111.91 728.593 111.684 L 728.593 111.684 L 728.593 111.684 Q 720.55 111.57 715.254 106.444 L 715.254 106.444 L 715.254 106.444 Q 709.958 101.318 710.298 93.785 L 710.298 93.785 L 710.298 93.785 Q 710.694 83.76 718.709 78.407 L 718.709 78.407 L 718.709 78.407 Q 726.724 73.055 740.204 73.055 L 740.204 73.055 L 747.681 73.168 L 748.474 69.486 L 748.474 69.486 Q 748.813 67.617 748.644 65.918 L 748.644 65.918 L 748.644 65.918 Q 748.36 63.256 746.633 61.755 L 746.633 61.755 L 746.633 61.755 Q 744.905 60.254 742.073 60.197 L 742.073 60.197 L 742.073 60.197 Q 738.335 60.084 735.729 62.038 L 735.729 62.038 L 735.729 62.038 Q 733.124 63.992 732.388 67.674 L 732.388 67.674 L 716.358 67.73 L 716.358 67.73 Q 716.755 58.951 724.43 53.485 L 724.43 53.485 L 724.43 53.485 Q 732.104 48.02 743.376 48.133 L 743.376 48.133 L 743.376 48.133 Q 753.798 48.359 759.688 54.335 L 759.688 54.335 L 759.688 54.335 Q 765.579 60.311 764.616 69.713 L 764.616 69.713 L 759.915 99.053 L 759.632 102.678 L 759.632 102.678 Q 759.519 106.699 760.595 109.475 L 760.595 109.475 L 760.538 110.551 Z  M 732.558 99.279 L 732.558 99.279 L 732.558 99.279 Q 739.468 99.506 744.622 93.275 L 744.622 93.275 L 746.604 82.684 L 741.054 82.627 L 741.054 82.627 Q 732.218 82.854 728.31 88.008 L 728.31 88.008 L 728.31 88.008 Q 726.894 89.877 726.554 92.596 L 726.554 92.596 L 726.554 92.596 Q 726.101 95.654 727.828 97.438 L 727.828 97.438 L 727.828 97.438 Q 729.556 99.223 732.558 99.279 Z  M 780.589 49.266 L 795.542 49.209 L 794.183 56.459 L 794.183 56.459 Q 801.546 47.906 812.024 48.133 L 812.024 48.133 L 812.024 48.133 Q 820.69 48.303 824.825 54.477 L 824.825 54.477 L 824.825 54.477 Q 828.96 60.65 827.827 71.582 L 827.827 71.582 L 821.37 110.551 L 805.397 110.551 L 811.968 71.412 L 811.968 71.412 Q 812.251 69.203 812.081 67.391 L 812.081 67.391 L 812.081 67.391 Q 811.345 61.613 804.831 61.443 L 804.831 61.443 L 804.831 61.443 Q 798.544 61.217 793.56 67.277 L 793.56 67.277 L 785.913 110.551 L 769.94 110.551 L 780.589 49.266 Z " fill="rgb(119,119,119)"/><path d=" M 226.06 26.082 L 229.968 84.592 L 249.849 26.082 L 266.784 26.082 L 236.142 108.551 L 219.433 108.551 L 215.071 53.609 L 193.491 108.551 L 176.782 108.551 L 171.911 26.082 L 188.11 26.082 L 189.753 84.309 L 211.956 26.082 L 226.06 26.082 Z  M 294.708 46.133 L 294.708 46.133 L 294.708 46.133 Q 302.808 46.246 308.67 50.296 L 308.67 50.296 L 308.67 50.296 Q 314.532 54.346 317.279 61.454 L 317.279 61.454 L 317.279 61.454 Q 320.026 68.563 319.233 77.229 L 319.233 77.229 L 319.233 77.229 Q 317.931 91.842 309.066 100.876 L 309.066 100.876 L 309.066 100.876 Q 300.202 109.91 287.175 109.684 L 287.175 109.684 L 287.175 109.684 Q 279.188 109.57 273.354 105.577 L 273.354 105.577 L 273.354 105.577 Q 267.521 101.584 264.745 94.504 L 264.745 94.504 L 264.745 94.504 Q 261.97 87.424 262.763 78.871 L 262.763 78.871 L 262.763 78.871 Q 264.235 63.691 273.071 54.742 L 273.071 54.742 L 273.071 54.742 Q 281.907 45.793 294.708 46.133 Z  M 278.565 84.705 L 278.565 84.705 L 278.565 84.705 Q 278.679 90.143 281.114 93.286 L 281.114 93.286 L 281.114 93.286 Q 283.55 96.43 287.968 96.543 L 287.968 96.543 L 287.968 96.543 Q 295.331 96.77 299.522 89.774 L 299.522 89.774 L 299.522 89.774 Q 303.714 82.779 303.431 71.395 L 303.431 71.395 L 303.431 71.395 Q 303.204 65.957 300.797 62.7 L 300.797 62.7 L 300.797 62.7 Q 298.39 59.443 293.915 59.33 L 293.915 59.33 L 293.915 59.33 Q 286.778 59.104 282.502 66.042 L 282.502 66.042 L 282.502 66.042 Q 278.226 72.98 278.565 84.705 Z  M 334.13 47.266 L 349.083 47.209 L 347.724 54.459 L 347.724 54.459 Q 355.087 45.906 365.565 46.133 L 365.565 46.133 L 365.565 46.133 Q 374.231 46.303 378.366 52.477 L 378.366 52.477 L 378.366 52.477 Q 382.501 58.65 381.368 69.582 L 381.368 69.582 L 374.911 108.551 L 358.938 108.551 L 365.509 69.412 L 365.509 69.412 Q 365.792 67.203 365.622 65.391 L 365.622 65.391 L 365.622 65.391 Q 364.886 59.613 358.372 59.443 L 358.372 59.443 L 358.372 59.443 Q 352.085 59.217 347.101 65.277 L 347.101 65.277 L 339.454 108.551 L 323.481 108.551 L 334.13 47.266 Z  M 417.845 46.076 L 417.845 46.076 L 417.845 46.076 Q 426.397 46.303 431.665 52.93 L 431.665 52.93 L 437.669 21.551 L 453.698 21.551 L 438.632 108.551 L 424.358 108.551 L 425.265 101.98 L 425.265 101.98 Q 418.411 109.967 409.292 109.74 L 409.292 109.74 L 409.292 109.74 Q 403.571 109.684 399.267 106.738 L 399.267 106.738 L 399.267 106.738 Q 394.962 103.793 392.611 98.271 L 392.611 98.271 L 392.611 98.271 Q 390.261 92.748 390.034 85.951 L 390.034 85.951 L 390.034 85.951 Q 389.864 82.383 390.204 79.041 L 390.204 79.041 L 390.544 76.492 L 390.544 76.492 Q 391.903 67.09 395.783 59.953 L 395.783 59.953 L 395.783 59.953 Q 399.663 52.816 405.299 49.361 L 405.299 49.361 L 405.299 49.361 Q 410.935 45.906 417.845 46.076 Z  M 406.233 79.041 L 406.233 79.041 L 406.233 79.041 Q 405.78 83.346 405.95 86.291 L 405.95 86.291 L 405.95 86.291 Q 406.517 96.26 413.993 96.43 L 413.993 96.43 L 413.993 96.43 Q 420.733 96.713 425.718 90.086 L 425.718 90.086 L 430.079 65.73 L 430.079 65.73 Q 427.87 59.67 421.243 59.387 L 421.243 59.387 L 421.243 59.387 Q 415.409 59.217 411.529 63.89 L 411.529 63.89 L 411.529 63.89 Q 407.649 68.563 406.233 79.041 Z  M 480.489 109.684 L 480.489 109.684 L 480.489 109.684 Q 472.446 109.627 466.244 105.747 L 466.244 105.747 L 466.244 105.747 Q 460.042 101.867 456.983 95.099 L 456.983 95.099 L 456.983 95.099 Q 453.925 88.33 454.604 80.174 L 454.604 80.174 L 454.774 77.908 L 454.774 77.908 Q 455.624 68.959 459.985 61.482 L 459.985 61.482 L 459.985 61.482 Q 464.347 54.006 471.2 49.956 L 471.2 49.956 L 471.2 49.956 Q 478.054 45.906 486.38 46.133 L 486.38 46.133 L 486.38 46.133 Q 498.218 46.359 504.307 54.827 L 504.307 54.827 L 504.307 54.827 Q 510.396 63.295 508.923 76.266 L 508.923 76.266 L 508.017 83.232 L 470.464 83.232 L 470.464 83.232 Q 470.237 89.18 473.353 92.748 L 473.353 92.748 L 473.353 92.748 Q 476.468 96.316 481.849 96.43 L 481.849 96.43 L 481.849 96.43 Q 490.571 96.656 497.142 89.689 L 497.142 89.689 L 504.448 98.752 L 504.448 98.752 Q 500.993 103.963 494.479 106.88 L 494.479 106.88 L 494.479 106.88 Q 487.966 109.797 480.489 109.684 Z  M 485.587 59.33 L 485.587 59.33 L 485.587 59.33 Q 481.169 59.217 477.742 62.105 L 477.742 62.105 L 477.742 62.105 Q 474.315 64.994 471.597 72.131 L 471.597 72.131 L 493.573 72.131 L 493.913 70.658 L 493.913 70.658 Q 494.253 68.393 493.97 66.354 L 493.97 66.354 L 493.97 66.354 Q 493.403 63.068 491.194 61.228 L 491.194 61.228 L 491.194 61.228 Q 488.985 59.387 485.587 59.33 Z  M 556.784 46.813 L 554.745 62.615 L 554.745 62.615 Q 551.46 62.049 549.364 62.049 L 549.364 62.049 L 549.364 62.049 Q 540.812 61.822 535.827 68.449 L 535.827 68.449 L 528.747 108.551 L 512.774 108.551 L 523.423 47.266 L 538.433 47.209 L 536.96 54.686 L 536.96 54.686 Q 542.737 46.02 551.233 46.02 L 551.233 46.02 L 551.233 46.02 Q 553.612 46.02 556.784 46.813 L 556.784 46.813 Z  M 600.794 86.518 L 600.794 86.518 L 600.794 86.518 Q 601.983 79.777 594.167 76.209 L 594.167 76.209 L 583.235 71.848 L 583.235 71.848 Q 564.204 63.352 565.167 48.455 L 565.167 48.455 L 565.167 48.455 Q 565.563 41.545 569.698 36.221 L 569.698 36.221 L 569.698 36.221 Q 573.833 30.896 581.31 27.866 L 581.31 27.866 L 581.31 27.866 Q 588.786 24.836 597.452 24.949 L 597.452 24.949 L 597.452 24.949 Q 609.403 25.176 616.767 32.058 L 616.767 32.058 L 616.767 32.058 Q 624.13 38.939 624.017 50.494 L 624.017 50.494 L 607.478 50.494 L 607.478 50.494 Q 607.761 44.887 605.014 41.771 L 605.014 41.771 L 605.014 41.771 Q 602.267 38.656 596.489 38.543 L 596.489 38.543 L 596.489 38.543 Q 590.825 38.43 586.634 41.12 L 586.634 41.12 L 586.634 41.12 Q 582.442 43.811 581.649 48.512 L 581.649 48.512 L 581.649 48.512 Q 580.573 54.686 589.919 58.311 L 589.919 58.311 L 597.396 61.143 L 601.7 63.125 L 601.7 63.125 Q 618.409 71.395 617.333 86.348 L 617.333 86.348 L 617.333 86.348 Q 616.823 93.654 612.66 98.95 L 612.66 98.95 L 612.66 98.95 Q 608.497 104.246 601.332 107.078 L 601.332 107.078 L 601.332 107.078 Q 594.167 109.91 585.558 109.74 L 585.558 109.74 L 585.558 109.74 Q 576.778 109.57 569.925 106.059 L 569.925 106.059 L 569.925 106.059 Q 563.071 102.547 559.503 96.146 L 559.503 96.146 L 559.503 96.146 Q 556.161 90.199 556.388 82.553 L 556.388 82.553 L 572.983 82.609 L 572.983 82.609 Q 572.19 96.033 586.181 96.26 L 586.181 96.26 L 586.181 96.26 Q 592.241 96.26 596.149 93.598 L 596.149 93.598 L 596.149 93.598 Q 600.058 90.936 600.794 86.518 Z  M 675.446 47.266 L 679.468 86.234 L 694.024 47.266 L 709.94 47.266 L 684.169 108.551 L 670.802 108.551 L 666.271 70.205 L 648.372 108.551 L 635.005 108.551 L 630.474 47.266 L 645.427 47.266 L 646.39 85.838 L 663.892 47.266 L 675.446 47.266 Z  M 758.538 108.551 L 742.849 108.551 L 742.849 108.551 Q 742.112 106.229 742.226 103 L 742.226 103 L 742.226 103 Q 735.315 109.91 726.593 109.684 L 726.593 109.684 L 726.593 109.684 Q 718.55 109.57 713.254 104.444 L 713.254 104.444 L 713.254 104.444 Q 707.958 99.318 708.298 91.785 L 708.298 91.785 L 708.298 91.785 Q 708.694 81.76 716.709 76.407 L 716.709 76.407 L 716.709 76.407 Q 724.724 71.055 738.204 71.055 L 738.204 71.055 L 745.681 71.168 L 746.474 67.486 L 746.474 67.486 Q 746.813 65.617 746.644 63.918 L 746.644 63.918 L 746.644 63.918 Q 746.36 61.256 744.633 59.755 L 744.633 59.755 L 744.633 59.755 Q 742.905 58.254 740.073 58.197 L 740.073 58.197 L 740.073 58.197 Q 736.335 58.084 733.729 60.038 L 733.729 60.038 L 733.729 60.038 Q 731.124 61.992 730.388 65.674 L 730.388 65.674 L 714.358 65.73 L 714.358 65.73 Q 714.755 56.951 722.43 51.485 L 722.43 51.485 L 722.43 51.485 Q 730.104 46.02 741.376 46.133 L 741.376 46.133 L 741.376 46.133 Q 751.798 46.359 757.688 52.335 L 757.688 52.335 L 757.688 52.335 Q 763.579 58.311 762.616 67.713 L 762.616 67.713 L 757.915 97.053 L 757.632 100.678 L 757.632 100.678 Q 757.519 104.699 758.595 107.475 L 758.595 107.475 L 758.538 108.551 Z  M 730.558 97.279 L 730.558 97.279 L 730.558 97.279 Q 737.468 97.506 742.622 91.275 L 742.622 91.275 L 744.604 80.684 L 739.054 80.627 L 739.054 80.627 Q 730.218 80.854 726.31 86.008 L 726.31 86.008 L 726.31 86.008 Q 724.894 87.877 724.554 90.596 L 724.554 90.596 L 724.554 90.596 Q 724.101 93.654 725.828 95.438 L 725.828 95.438 L 725.828 95.438 Q 727.556 97.223 730.558 97.279 Z  M 778.589 47.266 L 793.542 47.209 L 792.183 54.459 L 792.183 54.459 Q 799.546 45.906 810.024 46.133 L 810.024 46.133 L 810.024 46.133 Q 818.69 46.303 822.825 52.477 L 822.825 52.477 L 822.825 52.477 Q 826.96 58.65 825.827 69.582 L 825.827 69.582 L 819.37 108.551 L 803.397 108.551 L 809.968 69.412 L 809.968 69.412 Q 810.251 67.203 810.081 65.391 L 810.081 65.391 L 810.081 65.391 Q 809.345 59.613 802.831 59.443 L 802.831 59.443 L 802.831 59.443 Q 796.544 59.217 791.56 65.277 L 791.56 65.277 L 783.913 108.551 L 767.94 108.551 L 778.589 47.266 Z " fill="rgb(255,255,255)"/><path d=" M 700.978 148.146 L 697.87 170.837 L 697.87 170.837 Q 694.04 170.259 690.499 170.114 L 690.499 170.114 L 690.499 170.114 Q 679.804 169.825 674.167 177.485 L 674.167 177.485 L 665.351 226.987 L 641.575 226.987 L 655.161 148.796 L 677.347 148.724 L 675.54 158.985 L 675.54 158.985 Q 683.2 147.134 693.606 147.134 L 693.606 147.134 L 693.606 147.134 Q 696.569 147.134 700.978 148.146 L 700.978 148.146 Z " fill="rgb(242,118,168)"/><path d=" M 593.659 147.351 L 593.659 147.351 L 593.659 147.351 Q 604.138 147.495 611.798 152.59 L 611.798 152.59 L 611.798 152.59 Q 619.458 157.685 623.035 166.79 L 623.035 166.79 L 623.035 166.79 Q 626.612 175.896 625.601 187.024 L 625.601 187.024 L 625.456 188.614 L 625.456 188.614 Q 623.433 206.608 612.087 217.665 L 612.087 217.665 L 612.087 217.665 Q 600.741 228.722 584.048 228.433 L 584.048 228.433 L 584.048 228.433 Q 573.642 228.288 566.054 223.266 L 566.054 223.266 L 566.054 223.266 Q 558.466 218.243 554.816 209.21 L 554.816 209.21 L 554.816 209.21 Q 551.167 200.177 552.179 189.12 L 552.179 189.12 L 552.179 189.12 Q 553.985 169.897 565.367 158.479 L 565.367 158.479 L 565.367 158.479 Q 576.749 147.062 593.659 147.351 Z  M 575.954 189.12 L 575.954 189.12 L 575.737 193.384 L 575.737 193.384 Q 574.726 209.499 585.565 209.788 L 585.565 209.788 L 585.565 209.788 Q 599.585 210.222 601.825 187.024 L 601.825 187.024 L 602.114 180.448 L 602.114 180.448 Q 602.259 173.944 599.693 170.078 L 599.693 170.078 L 599.693 170.078 Q 597.128 166.212 592.142 166.067 L 592.142 166.067 L 592.142 166.067 Q 585.565 165.851 581.338 171.451 L 581.338 171.451 L 581.338 171.451 Q 577.11 177.052 575.954 189.12 Z " fill="rgb(116,135,203)"/><path d=" M 540.179 115.987 L 520.956 226.987 L 497.108 226.987 L 516.331 115.987 L 540.179 115.987 Z " fill="rgb(248,40,9)"/><path d=" M 448.108 147.351 L 448.108 147.351 L 448.108 147.351 Q 458.587 147.495 466.247 152.59 L 466.247 152.59 L 466.247 152.59 Q 473.907 157.685 477.484 166.79 L 477.484 166.79 L 477.484 166.79 Q 481.062 175.896 480.05 187.024 L 480.05 187.024 L 479.905 188.614 L 479.905 188.614 Q 477.882 206.608 466.536 217.665 L 466.536 217.665 L 466.536 217.665 Q 455.19 228.722 438.497 228.433 L 438.497 228.433 L 438.497 228.433 Q 428.091 228.288 420.503 223.266 L 420.503 223.266 L 420.503 223.266 Q 412.915 218.243 409.266 209.21 L 409.266 209.21 L 409.266 209.21 Q 405.616 200.177 406.628 189.12 L 406.628 189.12 L 406.628 189.12 Q 408.435 169.897 419.816 158.479 L 419.816 158.479 L 419.816 158.479 Q 431.198 147.062 448.108 147.351 Z  M 430.403 189.12 L 430.403 189.12 L 430.187 193.384 L 430.187 193.384 Q 429.175 209.499 440.015 209.788 L 440.015 209.788 L 440.015 209.788 Q 454.034 210.222 456.274 187.024 L 456.274 187.024 L 456.563 180.448 L 456.563 180.448 Q 456.708 173.944 454.143 170.078 L 454.143 170.078 L 454.143 170.078 Q 451.577 166.212 446.591 166.067 L 446.591 166.067 L 446.591 166.067 Q 440.015 165.851 435.787 171.451 L 435.787 171.451 L 435.787 171.451 Q 431.56 177.052 430.403 189.12 Z " fill="rgb(255,192,25)"/><path d=" M 360.663 191.433 L 384.8 191.144 L 384.8 191.144 Q 383.86 202.2 377.537 210.8 L 377.537 210.8 L 377.537 210.8 Q 371.214 219.399 360.916 224.024 L 360.916 224.024 L 360.916 224.024 Q 350.618 228.649 338.622 228.433 L 338.622 228.433 L 338.622 228.433 Q 322.146 228.071 312.679 217.81 L 312.679 217.81 L 312.679 217.81 Q 303.212 207.548 302.345 189.987 L 302.345 189.987 L 302.345 189.987 Q 301.694 178.28 304.91 164.478 L 304.91 164.478 L 304.91 164.478 Q 308.126 150.675 315.389 140.449 L 315.389 140.449 L 315.389 140.449 Q 322.651 130.224 332.516 125.129 L 332.516 125.129 L 332.516 125.129 Q 342.38 120.034 354.087 120.251 L 354.087 120.251 L 354.087 120.251 Q 371.286 120.54 381.295 130.585 L 381.295 130.585 L 381.295 130.585 Q 391.304 140.63 392.171 158.263 L 392.171 158.263 L 367.528 158.19 L 367.528 158.19 Q 367.673 148.579 364.06 144.46 L 364.06 144.46 L 364.06 144.46 Q 360.446 140.341 352.642 140.052 L 352.642 140.052 L 352.642 140.052 Q 333.13 139.401 328.866 170.403 L 328.866 170.403 L 328.866 170.403 Q 326.915 184.423 326.915 190.421 L 326.915 190.421 L 326.915 190.421 Q 326.554 208.198 340.067 208.704 L 340.067 208.704 L 340.067 208.704 Q 348.812 208.993 354.015 204.404 L 354.015 204.404 L 354.015 204.404 Q 359.218 199.815 360.663 191.433 L 360.663 191.433 Z " fill="rgb(9,136,236)"/></g></svg>