<?xml version="1.0" encoding="UTF-8" standalone="no"?><!-- Generator: Gravit.io --><svg xmlns="http://www.w3.org/2000/svg" xmlns:xlink="http://www.w3.org/1999/xlink" style="isolation:isolate" viewBox="0 0 992 250" width="992pt" height="250pt"><defs><clipPath id="_clipPath_JrivevLCTALNmXKN62UxGCTyfE8whKPd"><rect width="992" height="250"/></clipPath></defs><g clip-path="url(#_clipPath_JrivevLCTALNmXKN62UxGCTyfE8whKPd)"><path d=" M 458.929 227.94 C 455.649 175.76 466.755 128.887 493.518 97.439 C 553.416 27.057 669.2 60.421 751.916 171.899 C 765.201 189.803 776.83 208.64 786.744 227.94 L 458.929 227.94 Z " fill="rgb(255,0,0)"/><path d=" M 101.375 227.94 C 62.464 159.811 30.633 91.008 6.551 24 L 223.61 24 C 224.776 88.569 239.723 158.971 267.54 227.94 L 101.375 227.94 Z  M 894.284 24 C 932.821 92.198 964.253 161.003 987.908 227.94 L 833.675 227.94 C 822.114 160.578 797.371 90.243 760.33 24 L 894.284 24 Z " fill-rule="evenodd" fill="rgb(255,0,0)"/><path d=" M 122.6 71.691 L 127.966 152.033 L 155.265 71.691 L 178.52 71.691 L 136.444 184.932 L 113.5 184.932 L 107.511 109.49 L 77.879 184.932 L 54.935 184.932 L 48.246 71.691 L 70.49 71.691 L 72.746 151.644 L 103.234 71.691 L 122.6 71.691 Z  M 216.864 99.223 L 216.864 99.223 L 216.864 99.223 Q 227.986 99.379 236.035 104.94 L 236.035 104.94 L 236.035 104.94 Q 244.085 110.501 247.857 120.262 L 247.857 120.262 L 247.857 120.262 Q 251.629 130.022 250.541 141.922 L 250.541 141.922 L 250.541 141.922 Q 248.752 161.988 236.58 174.393 L 236.58 174.393 L 236.58 174.393 Q 224.408 186.799 206.52 186.487 L 206.52 186.487 L 206.52 186.487 Q 195.553 186.332 187.542 180.849 L 187.542 180.849 L 187.542 180.849 Q 179.531 175.366 175.72 165.644 L 175.72 165.644 L 175.72 165.644 Q 171.909 155.922 172.998 144.178 L 172.998 144.178 L 172.998 144.178 Q 175.02 123.334 187.153 111.045 L 187.153 111.045 L 187.153 111.045 Q 199.286 98.757 216.864 99.223 Z  M 194.698 152.188 L 194.698 152.188 L 194.698 152.188 Q 194.853 159.655 198.198 163.971 L 198.198 163.971 L 198.198 163.971 Q 201.542 168.288 207.608 168.444 L 207.608 168.444 L 207.608 168.444 Q 217.719 168.755 223.475 159.149 L 223.475 159.149 L 223.475 159.149 Q 229.23 149.544 228.841 133.911 L 228.841 133.911 L 228.841 133.911 Q 228.53 126.445 225.225 121.973 L 225.225 121.973 L 225.225 121.973 Q 221.919 117.501 215.775 117.345 L 215.775 117.345 L 215.775 117.345 Q 205.975 117.034 200.103 126.561 L 200.103 126.561 L 200.103 126.561 Q 194.231 136.089 194.698 152.188 Z  M 270.996 100.779 L 291.528 100.701 L 289.662 110.656 L 289.662 110.656 Q 299.773 98.912 314.161 99.223 L 314.161 99.223 L 314.161 99.223 Q 326.061 99.457 331.738 107.934 L 331.738 107.934 L 331.738 107.934 Q 337.416 116.412 335.86 131.422 L 335.86 131.422 L 326.994 184.932 L 305.061 184.932 L 314.083 131.189 L 314.083 131.189 Q 314.472 128.156 314.239 125.667 L 314.239 125.667 L 314.239 125.667 Q 313.228 117.734 304.284 117.501 L 304.284 117.501 L 304.284 117.501 Q 295.65 117.189 288.806 125.511 L 288.806 125.511 L 278.306 184.932 L 256.374 184.932 L 270.996 100.779 Z  M 385.948 99.145 L 385.948 99.145 L 385.948 99.145 Q 397.692 99.457 404.925 108.556 L 404.925 108.556 L 413.169 65.469 L 435.18 65.469 L 414.492 184.932 L 394.892 184.932 L 396.137 175.91 L 396.137 175.91 Q 386.726 186.876 374.204 186.565 L 374.204 186.565 L 374.204 186.565 Q 366.348 186.487 360.438 182.443 L 360.438 182.443 L 360.438 182.443 Q 354.527 178.399 351.299 170.816 L 351.299 170.816 L 351.299 170.816 Q 348.071 163.233 347.76 153.899 L 347.76 153.899 L 347.76 153.899 Q 347.527 149 347.993 144.411 L 347.993 144.411 L 348.46 140.911 L 348.46 140.911 Q 350.327 128 355.654 118.2 L 355.654 118.2 L 355.654 118.2 Q 360.982 108.401 368.721 103.656 L 368.721 103.656 L 368.721 103.656 Q 376.459 98.912 385.948 99.145 Z  M 370.004 144.411 L 370.004 144.411 L 370.004 144.411 Q 369.382 150.322 369.615 154.366 L 369.615 154.366 L 369.615 154.366 Q 370.393 168.055 380.659 168.288 L 380.659 168.288 L 380.659 168.288 Q 389.914 168.677 396.759 159.577 L 396.759 159.577 L 402.747 126.134 L 402.747 126.134 Q 399.714 117.812 390.614 117.423 L 390.614 117.423 L 390.614 117.423 Q 382.604 117.189 377.276 123.606 L 377.276 123.606 L 377.276 123.606 Q 371.948 130.022 370.004 144.411 Z  M 471.968 186.487 L 471.968 186.487 L 471.968 186.487 Q 460.924 186.41 452.407 181.082 L 452.407 181.082 L 452.407 181.082 Q 443.891 175.754 439.691 166.46 L 439.691 166.46 L 439.691 166.46 Q 435.491 157.166 436.424 145.966 L 436.424 145.966 L 436.658 142.855 L 436.658 142.855 Q 437.824 130.567 443.813 120.3 L 443.813 120.3 L 443.813 120.3 Q 449.802 110.034 459.213 104.473 L 459.213 104.473 L 459.213 104.473 Q 468.623 98.912 480.056 99.223 L 480.056 99.223 L 480.056 99.223 Q 496.311 99.534 504.672 111.162 L 504.672 111.162 L 504.672 111.162 Q 513.033 122.789 511.011 140.6 L 511.011 140.6 L 509.767 150.166 L 458.201 150.166 L 458.201 150.166 Q 457.89 158.333 462.168 163.233 L 462.168 163.233 L 462.168 163.233 Q 466.446 168.132 473.834 168.288 L 473.834 168.288 L 473.834 168.288 Q 485.812 168.599 494.834 159.033 L 494.834 159.033 L 504.867 171.477 L 504.867 171.477 Q 500.122 178.632 491.178 182.638 L 491.178 182.638 L 491.178 182.638 Q 482.234 186.643 471.968 186.487 Z  M 478.968 117.345 L 478.968 117.345 L 478.968 117.345 Q 472.901 117.189 468.196 121.156 L 468.196 121.156 L 468.196 121.156 Q 463.49 125.123 459.757 134.922 L 459.757 134.922 L 489.934 134.922 L 490.401 132.9 L 490.401 132.9 Q 490.867 129.789 490.478 126.989 L 490.478 126.989 L 490.478 126.989 Q 489.701 122.478 486.667 119.95 L 486.667 119.95 L 486.667 119.95 Q 483.634 117.423 478.968 117.345 Z  M 576.731 100.157 L 573.932 121.856 L 573.932 121.856 Q 569.421 121.078 566.543 121.078 L 566.543 121.078 L 566.543 121.078 Q 554.799 120.767 547.954 129.867 L 547.954 129.867 L 538.233 184.932 L 516.3 184.932 L 530.922 100.779 L 551.532 100.701 L 549.51 110.967 L 549.51 110.967 Q 557.443 99.068 569.109 99.068 L 569.109 99.068 L 569.109 99.068 Q 572.376 99.068 576.731 100.157 L 576.731 100.157 Z  M 637.163 154.677 L 637.163 154.677 L 637.163 154.677 Q 638.796 145.422 628.063 140.522 L 628.063 140.522 L 613.053 134.533 L 613.053 134.533 Q 586.92 122.867 588.242 102.412 L 588.242 102.412 L 588.242 102.412 Q 588.787 92.923 594.464 85.613 L 594.464 85.613 L 594.464 85.613 Q 600.142 78.302 610.408 74.141 L 610.408 74.141 L 610.408 74.141 Q 620.675 69.98 632.574 70.135 L 632.574 70.135 L 632.574 70.135 Q 648.985 70.446 659.096 79.896 L 659.096 79.896 L 659.096 79.896 Q 669.207 89.346 669.051 105.212 L 669.051 105.212 L 646.341 105.212 L 646.341 105.212 Q 646.729 97.512 642.957 93.235 L 642.957 93.235 L 642.957 93.235 Q 639.185 88.957 631.252 88.801 L 631.252 88.801 L 631.252 88.801 Q 623.475 88.646 617.719 92.34 L 617.719 92.34 L 617.719 92.34 Q 611.964 96.034 610.875 102.49 L 610.875 102.49 L 610.875 102.49 Q 609.397 110.967 622.23 115.945 L 622.23 115.945 L 632.497 119.834 L 638.407 122.556 L 638.407 122.556 Q 661.351 133.911 659.874 154.444 L 659.874 154.444 L 659.874 154.444 Q 659.174 164.477 653.457 171.749 L 653.457 171.749 L 653.457 171.749 Q 647.741 179.021 637.902 182.91 L 637.902 182.91 L 637.902 182.91 Q 628.063 186.799 616.241 186.565 L 616.241 186.565 L 616.241 186.565 Q 604.186 186.332 594.775 181.51 L 594.775 181.51 L 594.775 181.51 Q 585.365 176.688 580.465 167.899 L 580.465 167.899 L 580.465 167.899 Q 575.876 159.733 576.187 149.233 L 576.187 149.233 L 598.975 149.311 L 598.975 149.311 Q 597.886 167.744 617.097 168.055 L 617.097 168.055 L 617.097 168.055 Q 625.419 168.055 630.785 164.399 L 630.785 164.399 L 630.785 164.399 Q 636.152 160.744 637.163 154.677 Z  M 739.671 100.779 L 745.193 154.288 L 765.182 100.779 L 787.037 100.779 L 751.649 184.932 L 733.294 184.932 L 727.072 132.278 L 702.495 184.932 L 684.14 184.932 L 677.917 100.779 L 698.45 100.779 L 699.772 153.744 L 723.805 100.779 L 739.671 100.779 Z  M 853.768 184.932 L 832.224 184.932 L 832.224 184.932 Q 831.213 181.743 831.369 177.31 L 831.369 177.31 L 831.369 177.31 Q 821.88 186.799 809.903 186.487 L 809.903 186.487 L 809.903 186.487 Q 798.859 186.332 791.586 179.293 L 791.586 179.293 L 791.586 179.293 Q 784.314 172.255 784.781 161.91 L 784.781 161.91 L 784.781 161.91 Q 785.326 148.144 796.331 140.794 L 796.331 140.794 L 796.331 140.794 Q 807.336 133.444 825.847 133.444 L 825.847 133.444 L 836.113 133.6 L 837.202 128.545 L 837.202 128.545 Q 837.669 125.978 837.435 123.645 L 837.435 123.645 L 837.435 123.645 Q 837.046 119.989 834.674 117.928 L 834.674 117.928 L 834.674 117.928 Q 832.302 115.867 828.413 115.789 L 828.413 115.789 L 828.413 115.789 Q 823.28 115.634 819.702 118.317 L 819.702 118.317 L 819.702 118.317 Q 816.125 121 815.114 126.056 L 815.114 126.056 L 793.103 126.134 L 793.103 126.134 Q 793.648 114.078 804.186 106.573 L 804.186 106.573 L 804.186 106.573 Q 814.725 99.068 830.202 99.223 L 830.202 99.223 L 830.202 99.223 Q 844.513 99.534 852.601 107.74 L 852.601 107.74 L 852.601 107.74 Q 860.69 115.945 859.368 128.856 L 859.368 128.856 L 852.913 169.143 L 852.524 174.121 L 852.524 174.121 Q 852.368 179.643 853.846 183.454 L 853.846 183.454 L 853.768 184.932 Z  M 815.347 169.455 L 815.347 169.455 L 815.347 169.455 Q 824.836 169.766 831.913 161.21 L 831.913 161.21 L 834.635 146.666 L 827.013 146.589 L 827.013 146.589 Q 814.88 146.9 809.514 153.977 L 809.514 153.977 L 809.514 153.977 Q 807.569 156.544 807.103 160.277 L 807.103 160.277 L 807.103 160.277 Q 806.481 164.477 808.853 166.927 L 808.853 166.927 L 808.853 166.927 Q 811.225 169.377 815.347 169.455 Z  M 881.301 100.779 L 901.833 100.701 L 899.967 110.656 L 899.967 110.656 Q 910.078 98.912 924.466 99.223 L 924.466 99.223 L 924.466 99.223 Q 936.366 99.457 942.043 107.934 L 942.043 107.934 L 942.043 107.934 Q 947.721 116.412 946.165 131.422 L 946.165 131.422 L 937.299 184.932 L 915.366 184.932 L 924.388 131.189 L 924.388 131.189 Q 924.777 128.156 924.544 125.667 L 924.544 125.667 L 924.544 125.667 Q 923.533 117.734 914.589 117.501 L 914.589 117.501 L 914.589 117.501 Q 905.956 117.189 899.111 125.511 L 899.111 125.511 L 888.612 184.932 L 866.679 184.932 L 881.301 100.779 Z " fill="rgb(221,221,221)"/><path d=" M 119.853 68.944 L 125.22 149.287 L 152.519 68.944 L 175.774 68.944 L 133.698 182.186 L 110.754 182.186 L 104.765 106.743 L 75.133 182.186 L 52.189 182.186 L 45.5 68.944 L 67.744 68.944 L 69.999 148.898 L 100.487 68.944 L 119.853 68.944 Z  M 214.117 96.477 L 214.117 96.477 L 214.117 96.477 Q 225.239 96.633 233.289 102.193 L 233.289 102.193 L 233.289 102.193 Q 241.339 107.754 245.111 117.515 L 245.111 117.515 L 245.111 117.515 Q 248.883 127.276 247.794 139.176 L 247.794 139.176 L 247.794 139.176 Q 246.005 159.242 233.834 171.647 L 233.834 171.647 L 233.834 171.647 Q 221.662 184.052 203.773 183.741 L 203.773 183.741 L 203.773 183.741 Q 192.807 183.586 184.796 178.102 L 184.796 178.102 L 184.796 178.102 Q 176.785 172.619 172.974 162.897 L 172.974 162.897 L 172.974 162.897 Q 169.163 153.175 170.252 141.431 L 170.252 141.431 L 170.252 141.431 Q 172.274 120.587 184.407 108.299 L 184.407 108.299 L 184.407 108.299 Q 196.54 96.01 214.117 96.477 Z  M 191.951 149.442 L 191.951 149.442 L 191.951 149.442 Q 192.107 156.909 195.451 161.225 L 195.451 161.225 L 195.451 161.225 Q 198.796 165.542 204.862 165.697 L 204.862 165.697 L 204.862 165.697 Q 214.973 166.008 220.728 156.403 L 220.728 156.403 L 220.728 156.403 Q 226.484 146.798 226.095 131.165 L 226.095 131.165 L 226.095 131.165 Q 225.784 123.698 222.478 119.226 L 222.478 119.226 L 222.478 119.226 Q 219.173 114.754 213.029 114.599 L 213.029 114.599 L 213.029 114.599 Q 203.229 114.288 197.357 123.815 L 197.357 123.815 L 197.357 123.815 Q 191.485 133.343 191.951 149.442 Z  M 268.249 98.032 L 288.782 97.955 L 286.915 107.91 L 286.915 107.91 Q 297.026 96.166 311.415 96.477 L 311.415 96.477 L 311.415 96.477 Q 323.314 96.71 328.992 105.188 L 328.992 105.188 L 328.992 105.188 Q 334.67 113.665 333.114 128.676 L 333.114 128.676 L 324.248 182.186 L 302.315 182.186 L 311.337 128.443 L 311.337 128.443 Q 311.726 125.409 311.493 122.921 L 311.493 122.921 L 311.493 122.921 Q 310.481 114.988 301.537 114.754 L 301.537 114.754 L 301.537 114.754 Q 292.904 114.443 286.06 122.765 L 286.06 122.765 L 275.56 182.186 L 253.627 182.186 L 268.249 98.032 Z  M 383.202 96.399 L 383.202 96.399 L 383.202 96.399 Q 394.946 96.71 402.179 105.81 L 402.179 105.81 L 410.423 62.722 L 432.434 62.722 L 411.745 182.186 L 392.146 182.186 L 393.39 173.164 L 393.39 173.164 Q 383.979 184.13 371.458 183.819 L 371.458 183.819 L 371.458 183.819 Q 363.602 183.741 357.691 179.697 L 357.691 179.697 L 357.691 179.697 Q 351.78 175.653 348.553 168.069 L 348.553 168.069 L 348.553 168.069 Q 345.325 160.486 345.014 151.153 L 345.014 151.153 L 345.014 151.153 Q 344.78 146.253 345.247 141.665 L 345.247 141.665 L 345.714 138.165 L 345.714 138.165 Q 347.58 125.254 352.908 115.454 L 352.908 115.454 L 352.908 115.454 Q 358.236 105.654 365.974 100.91 L 365.974 100.91 L 365.974 100.91 Q 373.713 96.166 383.202 96.399 Z  M 367.258 141.665 L 367.258 141.665 L 367.258 141.665 Q 366.635 147.576 366.869 151.62 L 366.869 151.62 L 366.869 151.62 Q 367.646 165.308 377.913 165.542 L 377.913 165.542 L 377.913 165.542 Q 387.168 165.931 394.012 156.831 L 394.012 156.831 L 400.001 123.387 L 400.001 123.387 Q 396.968 115.065 387.868 114.676 L 387.868 114.676 L 387.868 114.676 Q 379.857 114.443 374.53 120.86 L 374.53 120.86 L 374.53 120.86 Q 369.202 127.276 367.258 141.665 Z  M 469.221 183.741 L 469.221 183.741 L 469.221 183.741 Q 458.177 183.663 449.661 178.336 L 449.661 178.336 L 449.661 178.336 Q 441.144 173.008 436.945 163.714 L 436.945 163.714 L 436.945 163.714 Q 432.745 154.42 433.678 143.22 L 433.678 143.22 L 433.911 140.109 L 433.911 140.109 Q 435.078 127.821 441.067 117.554 L 441.067 117.554 L 441.067 117.554 Q 447.055 107.288 456.466 101.727 L 456.466 101.727 L 456.466 101.727 Q 465.877 96.166 477.31 96.477 L 477.31 96.477 L 477.31 96.477 Q 493.565 96.788 501.926 108.416 L 501.926 108.416 L 501.926 108.416 Q 510.287 120.043 508.265 137.854 L 508.265 137.854 L 507.02 147.42 L 455.455 147.42 L 455.455 147.42 Q 455.144 155.586 459.422 160.486 L 459.422 160.486 L 459.422 160.486 Q 463.699 165.386 471.088 165.542 L 471.088 165.542 L 471.088 165.542 Q 483.065 165.853 492.087 156.286 L 492.087 156.286 L 502.12 168.73 L 502.12 168.73 Q 497.376 175.886 488.432 179.891 L 488.432 179.891 L 488.432 179.891 Q 479.488 183.897 469.221 183.741 Z  M 476.221 114.599 L 476.221 114.599 L 476.221 114.599 Q 470.155 114.443 465.449 118.41 L 465.449 118.41 L 465.449 118.41 Q 460.744 122.376 457.011 132.176 L 457.011 132.176 L 487.188 132.176 L 487.654 130.154 L 487.654 130.154 Q 488.121 127.043 487.732 124.243 L 487.732 124.243 L 487.732 124.243 Q 486.954 119.732 483.921 117.204 L 483.921 117.204 L 483.921 117.204 Q 480.888 114.676 476.221 114.599 Z  M 573.985 97.41 L 571.185 119.11 L 571.185 119.11 Q 566.674 118.332 563.797 118.332 L 563.797 118.332 L 563.797 118.332 Q 552.052 118.021 545.208 127.121 L 545.208 127.121 L 535.486 182.186 L 513.554 182.186 L 528.175 98.032 L 548.786 97.955 L 546.764 108.221 L 546.764 108.221 Q 554.697 96.321 566.363 96.321 L 566.363 96.321 L 566.363 96.321 Q 569.63 96.321 573.985 97.41 L 573.985 97.41 Z  M 634.417 151.931 L 634.417 151.931 L 634.417 151.931 Q 636.05 142.676 625.317 137.776 L 625.317 137.776 L 610.306 131.787 L 610.306 131.787 Q 584.174 120.121 585.496 99.666 L 585.496 99.666 L 585.496 99.666 Q 586.04 90.177 591.718 82.866 L 591.718 82.866 L 591.718 82.866 Q 597.396 75.555 607.662 71.394 L 607.662 71.394 L 607.662 71.394 Q 617.928 67.233 629.828 67.389 L 629.828 67.389 L 629.828 67.389 Q 646.239 67.7 656.349 77.15 L 656.349 77.15 L 656.349 77.15 Q 666.46 86.599 666.305 102.466 L 666.305 102.466 L 643.594 102.466 L 643.594 102.466 Q 643.983 94.766 640.211 90.488 L 640.211 90.488 L 640.211 90.488 Q 636.439 86.211 628.506 86.055 L 628.506 86.055 L 628.506 86.055 Q 620.728 85.899 614.973 89.594 L 614.973 89.594 L 614.973 89.594 Q 609.217 93.288 608.129 99.744 L 608.129 99.744 L 608.129 99.744 Q 606.651 108.221 619.484 113.199 L 619.484 113.199 L 629.75 117.087 L 635.661 119.81 L 635.661 119.81 Q 658.605 131.165 657.127 151.698 L 657.127 151.698 L 657.127 151.698 Q 656.427 161.731 650.711 169.003 L 650.711 169.003 L 650.711 169.003 Q 644.994 176.275 635.156 180.163 L 635.156 180.163 L 635.156 180.163 Q 625.317 184.052 613.495 183.819 L 613.495 183.819 L 613.495 183.819 Q 601.44 183.586 592.029 178.764 L 592.029 178.764 L 592.029 178.764 Q 582.618 173.941 577.718 165.153 L 577.718 165.153 L 577.718 165.153 Q 573.13 156.986 573.441 146.487 L 573.441 146.487 L 596.229 146.564 L 596.229 146.564 Q 595.14 164.997 614.351 165.308 L 614.351 165.308 L 614.351 165.308 Q 622.673 165.308 628.039 161.653 L 628.039 161.653 L 628.039 161.653 Q 633.406 157.997 634.417 151.931 Z  M 736.925 98.032 L 742.447 151.542 L 762.435 98.032 L 784.29 98.032 L 748.902 182.186 L 730.547 182.186 L 724.325 129.532 L 699.748 182.186 L 681.393 182.186 L 675.171 98.032 L 695.704 98.032 L 697.026 150.998 L 721.059 98.032 L 736.925 98.032 Z  M 851.022 182.186 L 829.478 182.186 L 829.478 182.186 Q 828.467 178.997 828.622 174.564 L 828.622 174.564 L 828.622 174.564 Q 819.134 184.052 807.156 183.741 L 807.156 183.741 L 807.156 183.741 Q 796.112 183.586 788.84 176.547 L 788.84 176.547 L 788.84 176.547 Q 781.568 169.508 782.035 159.164 L 782.035 159.164 L 782.035 159.164 Q 782.579 145.398 793.585 138.048 L 793.585 138.048 L 793.585 138.048 Q 804.59 130.698 823.1 130.698 L 823.1 130.698 L 833.367 130.854 L 834.456 125.798 L 834.456 125.798 Q 834.922 123.232 834.689 120.898 L 834.689 120.898 L 834.689 120.898 Q 834.3 117.243 831.928 115.182 L 831.928 115.182 L 831.928 115.182 Q 829.556 113.121 825.667 113.043 L 825.667 113.043 L 825.667 113.043 Q 820.534 112.888 816.956 115.571 L 816.956 115.571 L 816.956 115.571 Q 813.378 118.254 812.367 123.31 L 812.367 123.31 L 790.357 123.387 L 790.357 123.387 Q 790.901 111.332 801.44 103.827 L 801.44 103.827 L 801.44 103.827 Q 811.978 96.321 827.456 96.477 L 827.456 96.477 L 827.456 96.477 Q 841.767 96.788 849.855 104.993 L 849.855 104.993 L 849.855 104.993 Q 857.944 113.199 856.622 126.109 L 856.622 126.109 L 850.166 166.397 L 849.777 171.375 L 849.777 171.375 Q 849.622 176.897 851.1 180.708 L 851.1 180.708 L 851.022 182.186 Z  M 812.601 166.708 L 812.601 166.708 L 812.601 166.708 Q 822.089 167.019 829.167 158.464 L 829.167 158.464 L 831.889 143.92 L 824.267 143.842 L 824.267 143.842 Q 812.134 144.153 806.767 151.231 L 806.767 151.231 L 806.767 151.231 Q 804.823 153.798 804.356 157.531 L 804.356 157.531 L 804.356 157.531 Q 803.734 161.731 806.106 164.181 L 806.106 164.181 L 806.106 164.181 Q 808.479 166.631 812.601 166.708 Z  M 878.554 98.032 L 899.087 97.955 L 897.22 107.91 L 897.22 107.91 Q 907.331 96.166 921.72 96.477 L 921.72 96.477 L 921.72 96.477 Q 933.619 96.71 939.297 105.188 L 939.297 105.188 L 939.297 105.188 Q 944.975 113.665 943.419 128.676 L 943.419 128.676 L 934.553 182.186 L 912.62 182.186 L 921.642 128.443 L 921.642 128.443 Q 922.031 125.409 921.798 122.921 L 921.798 122.921 L 921.798 122.921 Q 920.787 114.988 911.842 114.754 L 911.842 114.754 L 911.842 114.754 Q 903.209 114.443 896.365 122.765 L 896.365 122.765 L 885.865 182.186 L 863.933 182.186 L 878.554 98.032 Z " fill="rgb(255,255,255)"/></g></svg>