<?xml version="1.0" encoding="UTF-8" standalone="no"?><!-- Generator: Gravit.io --><svg xmlns="http://www.w3.org/2000/svg" xmlns:xlink="http://www.w3.org/1999/xlink" style="isolation:isolate" viewBox="0 0 992 250" width="992pt" height="250pt"><defs><clipPath id="_clipPath_9TmVvzq563tWlQtObKGseuKtmLNm6JQo"><rect width="992" height="250"/></clipPath></defs><g clip-path="url(#_clipPath_9TmVvzq563tWlQtObKGseuKtmLNm6JQo)"><path d=" M 241.137 10.73 L 405.592 10.73 L 498.534 249.28 L 334.079 249.28 L 241.137 10.73 Z  M 259.261 23.122 L 397.124 23.122 L 480.4 236.887 L 342.552 236.887 L 259.261 23.122 Z " fill-rule="evenodd" fill="rgb(119,119,119)"/><path d=" M 650.648 62.673 L 596.101 62.673 L 619.199 10.73 L 840.125 10.73 L 779.01 249.28 L 597.776 249.28 L 650.648 62.673 Z  M 668.366 49.276 L 616.719 49.276 L 627.906 24.127 L 822.866 24.127 L 768.616 235.883 L 615.494 235.883 L 668.366 49.276 Z " fill-rule="evenodd" fill="rgb(119,119,119)"/><path d=" M 602.599 235.882 L 609.298 235.882 L 609.298 249.28 L 602.599 249.28 L 490.693 249.28 L 483.994 249.28 L 483.994 235.882 L 490.693 235.882 L 602.599 235.882 Z " fill="rgb(119,119,119)"/><path d=" M 438.896 10.73 L 558.171 10.73 L 480.203 114.676 L 438.896 10.73 Z  M 457.149 23.122 L 533.392 23.122 L 483.56 89.56 L 457.149 23.122 Z " fill-rule="evenodd" fill="rgb(119,119,119)"/><path d=" M 300.775 249.28 L 181.5 249.28 L 259.468 145.333 L 300.775 249.28 Z  M 282.512 236.887 L 206.284 236.887 L 256.116 170.45 L 282.512 236.887 Z " fill-rule="evenodd" fill="rgb(119,119,119)"/><path d=" M 238.137 6.73 L 402.592 6.73 L 495.534 245.28 L 331.079 245.28 L 238.137 6.73 Z  M 256.261 19.122 L 394.124 19.122 L 477.4 232.887 L 339.552 232.887 L 256.261 19.122 Z " fill-rule="evenodd" fill="rgb(247,247,247)"/><path d=" M 647.648 58.673 L 593.101 58.673 L 616.199 6.73 L 837.125 6.73 L 776.01 245.28 L 594.776 245.28 L 647.648 58.673 Z  M 665.366 45.276 L 613.719 45.276 L 624.906 20.127 L 819.866 20.127 L 765.616 231.883 L 612.494 231.883 L 665.366 45.276 Z " fill-rule="evenodd" fill="rgb(247,247,247)"/><path d=" M 599.599 231.882 L 606.298 231.882 L 606.298 245.28 L 599.599 245.28 L 487.693 245.28 L 480.994 245.28 L 480.994 231.882 L 487.693 231.882 L 599.599 231.882 Z " fill="rgb(247,247,247)"/><path d=" M 435.896 6.73 L 555.171 6.73 L 477.203 110.676 L 435.896 6.73 Z  M 454.149 19.122 L 530.392 19.122 L 480.56 85.56 L 454.149 19.122 Z " fill-rule="evenodd" fill="rgb(247,247,247)"/><path d=" M 297.775 245.28 L 178.5 245.28 L 256.468 141.333 L 297.775 245.28 Z  M 279.512 232.887 L 203.284 232.887 L 253.116 166.45 L 279.512 232.887 Z " fill-rule="evenodd" fill="rgb(247,247,247)"/></g></svg>