<?xml version="1.0" encoding="UTF-8" standalone="no"?><!-- Generator: Gravit.io --><svg xmlns="http://www.w3.org/2000/svg" xmlns:xlink="http://www.w3.org/1999/xlink" style="isolation:isolate" viewBox="0 0 992 250" width="992pt" height="250pt"><defs><clipPath id="_clipPath_84sRc0iFfOU5zgPYDxqiMSFTmsBQYC4L"><rect width="992" height="250"/></clipPath></defs><g clip-path="url(#_clipPath_84sRc0iFfOU5zgPYDxqiMSFTmsBQYC4L)"><path d=" M 394.001 50.075 L 394.001 50.075 L 394.001 60.675 L 394.001 60.675 Q 389.875 58.83 385.95 57.891 L 385.95 57.891 L 385.95 57.891 Q 382.025 56.952 378.536 56.952 L 378.536 56.952 L 378.536 56.952 Q 373.907 56.952 371.693 58.226 L 371.693 58.226 L 371.693 58.226 Q 369.479 59.501 369.479 62.185 L 369.479 62.185 L 369.479 62.185 Q 369.479 64.198 370.972 65.321 L 370.972 65.321 L 370.972 65.321 Q 372.464 66.445 376.389 67.25 L 376.389 67.25 L 381.891 68.357 L 381.891 68.357 Q 390.244 70.035 393.766 73.456 L 393.766 73.456 L 393.766 73.456 Q 397.289 76.878 397.289 83.185 L 397.289 83.185 L 397.289 83.185 Q 397.289 91.471 392.374 95.513 L 392.374 95.513 L 392.374 95.513 Q 387.459 99.555 377.362 99.555 L 377.362 99.555 L 377.362 99.555 Q 372.599 99.555 367.801 98.65 L 367.801 98.65 L 367.801 98.65 Q 363.004 97.744 358.207 95.966 L 358.207 95.966 L 358.207 85.063 L 358.207 85.063 Q 363.004 87.613 367.483 88.904 L 367.483 88.904 L 367.483 88.904 Q 371.961 90.196 376.121 90.196 L 376.121 90.196 L 376.121 90.196 Q 380.348 90.196 382.595 88.787 L 382.595 88.787 L 382.595 88.787 Q 384.843 87.378 384.843 84.761 L 384.843 84.761 L 384.843 84.761 Q 384.843 82.413 383.317 81.138 L 383.317 81.138 L 383.317 81.138 Q 381.79 79.864 377.228 78.857 L 377.228 78.857 L 372.229 77.75 L 372.229 77.75 Q 364.715 76.14 361.243 72.618 L 361.243 72.618 L 361.243 72.618 Q 357.771 69.095 357.771 63.124 L 357.771 63.124 L 357.771 63.124 Q 357.771 55.643 362.602 51.618 L 362.602 51.618 L 362.602 51.618 Q 367.432 47.592 376.49 47.592 L 376.49 47.592 L 376.49 47.592 Q 380.616 47.592 384.977 48.213 L 384.977 48.213 L 384.977 48.213 Q 389.338 48.833 394.001 50.075 Z  M 408.627 98.583 L 408.627 48.498 L 421.542 48.498 L 421.542 67.586 L 440.597 67.586 L 440.597 48.498 L 453.512 48.498 L 453.512 98.583 L 440.597 98.583 L 440.597 77.348 L 421.542 77.348 L 421.542 98.583 L 408.627 98.583 Z  M 499.672 98.583 L 496.518 89.458 L 476.323 89.458 L 473.137 98.583 L 460.154 98.583 L 478.705 48.498 L 494.103 48.498 L 512.654 98.583 L 499.672 98.583 Z  M 486.421 60.239 L 479.544 80.166 L 493.264 80.166 L 486.421 60.239 Z  M 532.211 70.706 L 537.646 70.706 L 537.646 70.706 Q 541.705 70.706 543.466 69.196 L 543.466 69.196 L 543.466 69.196 Q 545.227 67.686 545.227 64.231 L 545.227 64.231 L 545.227 64.231 Q 545.227 60.809 543.466 59.333 L 543.466 59.333 L 543.466 59.333 Q 541.705 57.857 537.646 57.857 L 537.646 57.857 L 532.211 57.857 L 532.211 70.706 Z  M 535.868 79.629 L 532.211 79.629 L 532.211 98.583 L 519.296 98.583 L 519.296 48.498 L 539.021 48.498 L 539.021 48.498 Q 548.917 48.498 553.53 51.819 L 553.53 51.819 L 553.53 51.819 Q 558.143 55.14 558.143 62.319 L 558.143 62.319 L 558.143 62.319 Q 558.143 67.284 555.744 70.471 L 555.744 70.471 L 555.744 70.471 Q 553.346 73.658 548.515 75.167 L 548.515 75.167 L 548.515 75.167 Q 551.165 75.771 553.262 77.901 L 553.262 77.901 L 553.262 77.901 Q 555.358 80.031 557.505 84.359 L 557.505 84.359 L 564.516 98.583 L 550.763 98.583 L 544.657 86.137 L 544.657 86.137 Q 542.812 82.38 540.917 81.004 L 540.917 81.004 L 540.917 81.004 Q 539.021 79.629 535.868 79.629 L 535.868 79.629 Z  M 572.199 98.583 L 572.199 48.498 L 593.635 48.498 L 593.635 48.498 Q 603.195 48.498 608.311 52.742 L 608.311 52.742 L 608.311 52.742 Q 613.427 56.985 613.427 64.835 L 613.427 64.835 L 613.427 64.835 Q 613.427 72.718 608.311 76.962 L 608.311 76.962 L 608.311 76.962 Q 603.195 81.206 593.635 81.206 L 593.635 81.206 L 585.114 81.206 L 585.114 98.583 L 572.199 98.583 Z  M 592.259 57.857 L 585.114 57.857 L 585.114 71.846 L 592.259 71.846 L 592.259 71.846 Q 596.016 71.846 598.063 70.018 L 598.063 70.018 L 598.063 70.018 Q 600.109 68.19 600.109 64.835 L 600.109 64.835 L 600.109 64.835 Q 600.109 61.48 598.063 59.669 L 598.063 59.669 L 598.063 59.669 Q 596.016 57.857 592.259 57.857 L 592.259 57.857 Z " fill="rgb(225,9,9)"/><path d=" M 399.217 169.292 L 399.217 169.292 L 399.217 169.292 Q 399.217 160.895 394.919 156.036 L 394.919 156.036 L 394.919 156.036 Q 390.622 151.176 383.217 151.176 L 383.217 151.176 L 383.217 151.176 Q 372.969 151.176 365.994 159.077 L 365.994 159.077 L 365.994 159.077 Q 359.018 166.978 359.018 178.614 L 359.018 178.614 L 359.018 178.614 Q 359.018 187.341 363.283 192.267 L 363.283 192.267 L 363.283 192.267 Q 367.547 197.192 375.085 197.192 L 375.085 197.192 L 375.085 197.192 Q 385.399 197.192 392.308 189.093 L 392.308 189.093 L 392.308 189.093 Q 399.217 180.994 399.217 169.292 Z  M 417.2 109.457 L 417.2 109.457 L 414.952 121.623 L 414.952 121.623 Q 411.117 119.11 406.159 117.788 L 406.159 117.788 L 406.159 117.788 Q 401.2 116.466 395.58 116.466 L 395.58 116.466 L 395.58 116.466 Q 381.894 116.466 373.597 125.061 L 373.597 125.061 L 373.597 125.061 Q 365.299 133.656 361.2 151.97 L 361.2 151.97 L 361.2 151.97 Q 366.027 146.35 372.407 143.474 L 372.407 143.474 L 372.407 143.474 Q 378.787 140.598 386.192 140.598 L 386.192 140.598 L 386.192 140.598 Q 398.291 140.598 405.465 147.573 L 405.465 147.573 L 405.465 147.573 Q 412.638 154.548 412.638 166.317 L 412.638 166.317 L 412.638 166.317 Q 412.638 175.969 409.101 184.267 L 409.101 184.267 L 409.101 184.267 Q 405.564 192.564 398.82 198.845 L 398.82 198.845 L 398.82 198.845 Q 394.192 203.143 388.043 205.457 L 388.043 205.457 L 388.043 205.457 Q 381.894 207.771 374.952 207.771 L 374.952 207.771 L 374.952 207.771 Q 361.333 207.771 353.465 199.11 L 353.465 199.11 L 353.465 199.11 Q 345.597 190.449 345.597 175.374 L 345.597 175.374 L 345.597 175.374 Q 345.597 161.358 349.2 148.366 L 349.2 148.366 L 349.2 148.366 Q 352.804 135.375 359.283 125.854 L 359.283 125.854 L 359.283 125.854 Q 366.093 115.804 375.779 110.581 L 375.779 110.581 L 375.779 110.581 Q 385.465 105.358 397.167 105.358 L 397.167 105.358 L 397.167 105.358 Q 402.324 105.358 407.349 106.383 L 407.349 106.383 L 407.349 106.383 Q 412.374 107.408 417.2 109.457 Z  M 483.448 175.903 L 483.448 175.903 L 483.448 175.903 Q 483.448 168.432 478.225 163.705 L 478.225 163.705 L 478.225 163.705 Q 473.001 158.978 464.539 158.978 L 464.539 158.978 L 464.539 158.978 Q 454.225 158.978 447.514 165.16 L 447.514 165.16 L 447.514 165.16 Q 440.803 171.341 440.803 180.796 L 440.803 180.796 L 440.803 180.796 Q 440.803 188.333 445.927 192.763 L 445.927 192.763 L 445.927 192.763 Q 451.051 197.192 459.778 197.192 L 459.778 197.192 L 459.778 197.192 Q 470.158 197.192 476.803 191.176 L 476.803 191.176 L 476.803 191.176 Q 483.448 185.159 483.448 175.903 Z  M 490.258 129.887 L 490.258 129.887 L 490.258 129.887 Q 490.258 123.606 485.629 119.771 L 485.629 119.771 L 485.629 119.771 Q 481.001 115.937 473.332 115.937 L 473.332 115.937 L 473.332 115.937 Q 464.274 115.937 458.423 121.028 L 458.423 121.028 L 458.423 121.028 Q 452.572 126.118 452.572 133.788 L 452.572 133.788 L 452.572 133.788 Q 452.572 140.399 457.167 144.432 L 457.167 144.432 L 457.167 144.432 Q 461.762 148.465 469.365 148.465 L 469.365 148.465 L 469.365 148.465 Q 478.489 148.465 484.373 143.209 L 484.373 143.209 L 484.373 143.209 Q 490.258 137.953 490.258 129.887 Z  M 481.2 153.887 L 481.2 153.887 L 481.2 153.887 Q 488.671 156.73 492.638 162.482 L 492.638 162.482 L 492.638 162.482 Q 496.605 168.234 496.605 176.366 L 496.605 176.366 L 496.605 176.366 Q 496.605 190.052 486.026 198.911 L 486.026 198.911 L 486.026 198.911 Q 475.448 207.771 458.72 207.771 L 458.72 207.771 L 458.72 207.771 Q 444.506 207.771 436.109 200.796 L 436.109 200.796 L 436.109 200.796 Q 427.712 193.821 427.712 182.184 L 427.712 182.184 L 427.712 182.184 Q 427.712 171.606 434.919 163.374 L 434.919 163.374 L 434.919 163.374 Q 442.126 155.143 453.696 152.895 L 453.696 152.895 L 453.696 152.895 Q 446.754 150.515 443.117 145.523 L 443.117 145.523 L 443.117 145.523 Q 439.481 140.532 439.481 133.391 L 439.481 133.391 L 439.481 133.391 Q 439.481 121.424 449.431 113.391 L 449.431 113.391 L 449.431 113.391 Q 459.382 105.358 474.654 105.358 L 474.654 105.358 L 474.654 105.358 Q 487.415 105.358 495.448 111.871 L 495.448 111.871 L 495.448 111.871 Q 503.481 118.383 503.481 128.432 L 503.481 128.432 L 503.481 128.432 Q 503.481 137.16 497.497 144.003 L 497.497 144.003 L 497.497 144.003 Q 491.514 150.846 481.2 153.887 Z  M 561.067 105.358 L 561.067 105.358 L 561.067 105.358 Q 574.489 105.358 581.596 114.284 L 581.596 114.284 L 581.596 114.284 Q 588.703 123.209 588.703 139.937 L 588.703 139.937 L 588.703 139.937 Q 588.703 152.631 585.364 165.16 L 585.364 165.16 L 585.364 165.16 Q 582.026 177.688 576.009 187.606 L 576.009 187.606 L 576.009 187.606 Q 569.86 197.523 561.563 202.647 L 561.563 202.647 L 561.563 202.647 Q 553.265 207.771 543.216 207.771 L 543.216 207.771 L 543.216 207.771 Q 530.257 207.771 523.183 198.779 L 523.183 198.779 L 523.183 198.779 Q 516.109 189.788 516.109 173.193 L 516.109 173.193 L 516.109 173.193 Q 516.109 160.631 519.514 148.036 L 519.514 148.036 L 519.514 148.036 Q 522.919 135.441 529.001 125.589 L 529.001 125.589 L 529.001 125.589 Q 535.084 115.672 543.249 110.515 L 543.249 110.515 L 543.249 110.515 Q 551.414 105.358 561.067 105.358 Z  M 560.274 115.937 L 560.274 115.937 L 560.274 115.937 Q 555.249 115.937 550.72 118.614 L 550.72 118.614 L 550.72 118.614 Q 546.191 121.292 542.555 126.515 L 542.555 126.515 L 542.555 126.515 Q 536.472 135.242 532.869 148.3 L 532.869 148.3 L 532.869 148.3 Q 529.266 161.358 529.266 175.11 L 529.266 175.11 L 529.266 175.11 Q 529.266 186.019 533.133 191.606 L 533.133 191.606 L 533.133 191.606 Q 537.001 197.192 544.538 197.192 L 544.538 197.192 L 544.538 197.192 Q 549.827 197.192 554.323 194.515 L 554.323 194.515 L 554.323 194.515 Q 558.819 191.837 562.456 186.614 L 562.456 186.614 L 562.456 186.614 Q 568.472 177.953 572.009 164.895 L 572.009 164.895 L 572.009 164.895 Q 575.546 151.837 575.546 138.019 L 575.546 138.019 L 575.546 138.019 Q 575.546 127.11 571.679 121.523 L 571.679 121.523 L 571.679 121.523 Q 567.811 115.937 560.274 115.937 Z  M 647.215 105.358 L 647.215 105.358 L 647.215 105.358 Q 660.637 105.358 667.744 114.284 L 667.744 114.284 L 667.744 114.284 Q 674.852 123.209 674.852 139.937 L 674.852 139.937 L 674.852 139.937 Q 674.852 152.631 671.513 165.16 L 671.513 165.16 L 671.513 165.16 Q 668.174 177.688 662.158 187.606 L 662.158 187.606 L 662.158 187.606 Q 656.009 197.523 647.711 202.647 L 647.711 202.647 L 647.711 202.647 Q 639.414 207.771 629.364 207.771 L 629.364 207.771 L 629.364 207.771 Q 616.406 207.771 609.331 198.779 L 609.331 198.779 L 609.331 198.779 Q 602.257 189.788 602.257 173.193 L 602.257 173.193 L 602.257 173.193 Q 602.257 160.631 605.662 148.036 L 605.662 148.036 L 605.662 148.036 Q 609.067 135.441 615.149 125.589 L 615.149 125.589 L 615.149 125.589 Q 621.232 115.672 629.397 110.515 L 629.397 110.515 L 629.397 110.515 Q 637.563 105.358 647.215 105.358 Z  M 646.422 115.937 L 646.422 115.937 L 646.422 115.937 Q 641.397 115.937 636.868 118.614 L 636.868 118.614 L 636.868 118.614 Q 632.339 121.292 628.703 126.515 L 628.703 126.515 L 628.703 126.515 Q 622.621 135.242 619.017 148.3 L 619.017 148.3 L 619.017 148.3 Q 615.414 161.358 615.414 175.11 L 615.414 175.11 L 615.414 175.11 Q 615.414 186.019 619.282 191.606 L 619.282 191.606 L 619.282 191.606 Q 623.149 197.192 630.687 197.192 L 630.687 197.192 L 630.687 197.192 Q 635.976 197.192 640.472 194.515 L 640.472 194.515 L 640.472 194.515 Q 644.968 191.837 648.604 186.614 L 648.604 186.614 L 648.604 186.614 Q 654.62 177.953 658.158 164.895 L 658.158 164.895 L 658.158 164.895 Q 661.695 151.837 661.695 138.019 L 661.695 138.019 L 661.695 138.019 Q 661.695 127.11 657.827 121.523 L 657.827 121.523 L 657.827 121.523 Q 653.959 115.937 646.422 115.937 Z  M 733.364 105.358 L 733.364 105.358 L 733.364 105.358 Q 746.785 105.358 753.893 114.284 L 753.893 114.284 L 753.893 114.284 Q 761 123.209 761 139.937 L 761 139.937 L 761 139.937 Q 761 152.631 757.661 165.16 L 757.661 165.16 L 757.661 165.16 Q 754.322 177.688 748.306 187.606 L 748.306 187.606 L 748.306 187.606 Q 742.157 197.523 733.86 202.647 L 733.86 202.647 L 733.86 202.647 Q 725.562 207.771 715.513 207.771 L 715.513 207.771 L 715.513 207.771 Q 702.554 207.771 695.48 198.779 L 695.48 198.779 L 695.48 198.779 Q 688.405 189.788 688.405 173.193 L 688.405 173.193 L 688.405 173.193 Q 688.405 160.631 691.81 148.036 L 691.81 148.036 L 691.81 148.036 Q 695.215 135.441 701.298 125.589 L 701.298 125.589 L 701.298 125.589 Q 707.38 115.672 715.546 110.515 L 715.546 110.515 L 715.546 110.515 Q 723.711 105.358 733.364 105.358 Z  M 732.57 115.937 L 732.57 115.937 L 732.57 115.937 Q 727.546 115.937 723.017 118.614 L 723.017 118.614 L 723.017 118.614 Q 718.488 121.292 714.851 126.515 L 714.851 126.515 L 714.851 126.515 Q 708.769 135.242 705.166 148.3 L 705.166 148.3 L 705.166 148.3 Q 701.562 161.358 701.562 175.11 L 701.562 175.11 L 701.562 175.11 Q 701.562 186.019 705.43 191.606 L 705.43 191.606 L 705.43 191.606 Q 709.298 197.192 716.835 197.192 L 716.835 197.192 L 716.835 197.192 Q 722.124 197.192 726.62 194.515 L 726.62 194.515 L 726.62 194.515 Q 731.116 191.837 734.752 186.614 L 734.752 186.614 L 734.752 186.614 Q 740.769 177.953 744.306 164.895 L 744.306 164.895 L 744.306 164.895 Q 747.843 151.837 747.843 138.019 L 747.843 138.019 L 747.843 138.019 Q 747.843 127.11 743.975 121.523 L 743.975 121.523 L 743.975 121.523 Q 740.108 115.937 732.57 115.937 Z " fill="rgb(244,244,244)"/><path d=" M 211.899 106.849 L 282.714 106.849 L 322.735 209.569 L 251.92 209.569 L 211.899 106.849 Z  M 219.703 112.185 L 279.068 112.185 L 314.927 204.233 L 255.569 204.233 L 219.703 112.185 Z " fill-rule="evenodd" fill="rgb(244,244,244)"/><path d=" M 297.055 106.849 L 348.415 106.849 L 314.842 151.609 L 297.055 106.849 Z  M 304.915 112.185 L 337.745 112.185 L 316.287 140.793 L 304.915 112.185 Z " fill-rule="evenodd" fill="rgb(244,244,244)"/><path d=" M 237.579 209.569 L 186.219 209.569 L 219.792 164.81 L 237.579 209.569 Z  M 229.715 204.233 L 196.891 204.233 L 218.349 175.625 L 229.715 204.233 Z " fill-rule="evenodd" fill="rgb(244,244,244)"/></g></svg>