<?xml version="1.0" encoding="UTF-8" standalone="no"?><!-- Generator: Gravit.io --><svg xmlns="http://www.w3.org/2000/svg" xmlns:xlink="http://www.w3.org/1999/xlink" style="isolation:isolate" viewBox="0 0 992 250" width="992pt" height="250pt"><defs><clipPath id="_clipPath_39Kh8tXet1eGC2a6zncK6uxEJLrsSYcD"><rect width="992" height="250"/></clipPath></defs><g clip-path="url(#_clipPath_39Kh8tXet1eGC2a6zncK6uxEJLrsSYcD)"><path d=" M 198.847 142.264 L 185.967 135.357 L 185.967 123.005 L 228.287 123.005 L 228.287 123.005 Q 231.231 123.005 231.231 120.083 L 231.231 120.083 L 231.231 120.083 Q 231.231 117.028 228.471 116.63 L 228.471 116.63 L 209.703 114.372 L 209.703 114.372 Q 185.967 111.45 185.967 94.051 L 185.967 94.051 L 185.967 94.051 Q 185.967 71.605 216.879 71.605 L 216.879 71.605 L 244.295 71.605 L 257.175 78.511 L 257.175 90.863 L 219.271 90.863 L 219.271 90.863 Q 216.327 90.863 216.327 93.785 L 216.327 93.785 L 216.327 93.785 Q 216.327 97.637 219.271 97.903 L 219.271 97.903 L 238.039 100.16 L 238.039 100.16 Q 261.591 102.95 261.591 119.817 L 261.591 119.817 L 261.591 119.817 Q 261.591 142.264 230.679 142.264 L 230.679 142.264 L 198.847 142.264 Z  M 314.399 60.714 L 282.935 60.714 L 282.935 40.127 L 314.399 40.127 L 314.399 60.714 Z  M 314.031 142.264 L 283.303 142.264 L 283.303 71.605 L 314.031 71.605 L 314.031 142.264 Z  M 369.783 142.264 L 339.055 142.264 L 339.055 71.605 L 393.887 71.605 L 393.887 71.605 Q 424.799 71.605 424.799 93.918 L 424.799 93.918 L 424.799 142.264 L 394.071 142.264 L 394.071 92.59 L 394.071 92.59 Q 394.071 90.863 391.679 90.863 L 391.679 90.863 L 369.783 90.863 L 369.783 142.264 Z  M 447.615 119.95 L 447.615 119.95 L 447.615 93.918 L 447.615 93.918 Q 447.615 71.605 478.527 71.605 L 478.527 71.605 L 511.831 71.605 L 524.711 78.511 L 524.711 90.863 L 480.735 90.863 L 480.735 90.863 Q 478.343 90.863 478.343 92.59 L 478.343 92.59 L 478.343 121.278 L 478.343 121.278 Q 478.343 123.005 480.735 123.005 L 480.735 123.005 L 524.711 123.005 L 524.711 135.357 L 511.831 142.264 L 478.527 142.264 L 478.527 142.264 Q 447.615 142.264 447.615 119.95 Z  M 544.951 113.442 L 544.951 113.442 L 544.951 43.979 L 575.68 43.979 L 575.68 115.7 L 575.68 115.7 Q 575.68 123.536 586.904 124.466 L 586.904 124.466 L 586.904 143.725 L 586.904 143.725 Q 544.951 143.725 544.951 113.442 Z  M 684.976 142.264 L 633.088 142.264 L 633.088 142.264 Q 602.176 142.264 602.176 120.614 L 602.176 120.614 L 602.176 120.614 Q 602.176 98.965 633.088 98.965 L 633.088 98.965 L 654.248 98.965 L 654.248 92.59 L 654.248 92.59 Q 654.248 90.863 651.856 90.863 L 651.856 90.863 L 613.032 90.863 L 613.032 78.511 L 625.912 71.605 L 654.064 71.605 L 654.064 71.605 Q 684.976 71.605 684.976 93.918 L 684.976 93.918 L 684.976 142.264 Z  M 632.904 117.427 L 632.904 121.278 L 632.904 121.278 Q 632.904 123.005 635.296 123.005 L 635.296 123.005 L 654.248 123.005 L 654.248 115.7 L 635.296 115.7 L 635.296 115.7 Q 632.904 115.7 632.904 117.427 L 632.904 117.427 Z  M 740.36 60.714 L 708.896 60.714 L 708.896 40.127 L 740.36 40.127 L 740.36 60.714 Z  M 739.992 142.264 L 709.264 142.264 L 709.264 71.605 L 739.992 71.605 L 739.992 142.264 Z  M 795.008 142.264 L 764.28 142.264 L 764.28 81.168 L 764.28 81.168 Q 771.272 71.605 791.512 71.605 L 791.512 71.605 L 812.12 71.605 L 825 78.511 L 825 90.863 L 800.712 90.863 L 800.712 90.863 Q 796.296 90.863 795.008 92.324 L 795.008 92.324 L 795.008 142.264 Z " fill="rgb(113,113,113)"/><path d=" M 196.655 139.961 L 183.775 133.054 L 183.775 120.702 L 226.095 120.702 L 226.095 120.702 Q 229.039 120.702 229.039 117.78 L 229.039 117.78 L 229.039 117.78 Q 229.039 114.725 226.279 114.327 L 226.279 114.327 L 207.511 112.069 L 207.511 112.069 Q 183.775 109.147 183.775 91.748 L 183.775 91.748 L 183.775 91.748 Q 183.775 69.302 214.687 69.302 L 214.687 69.302 L 242.103 69.302 L 254.983 76.208 L 254.983 88.56 L 217.079 88.56 L 217.079 88.56 Q 214.135 88.56 214.135 91.482 L 214.135 91.482 L 214.135 91.482 Q 214.135 95.334 217.079 95.6 L 217.079 95.6 L 235.847 97.858 L 235.847 97.858 Q 259.399 100.647 259.399 117.515 L 259.399 117.515 L 259.399 117.515 Q 259.399 139.961 228.487 139.961 L 228.487 139.961 L 196.655 139.961 Z  M 312.207 58.411 L 280.743 58.411 L 280.743 37.824 L 312.207 37.824 L 312.207 58.411 Z  M 311.839 139.961 L 281.111 139.961 L 281.111 69.302 L 311.839 69.302 L 311.839 139.961 Z  M 367.591 139.961 L 336.863 139.961 L 336.863 69.302 L 391.695 69.302 L 391.695 69.302 Q 422.607 69.302 422.607 91.615 L 422.607 91.615 L 422.607 139.961 L 391.879 139.961 L 391.879 90.287 L 391.879 90.287 Q 391.879 88.56 389.487 88.56 L 389.487 88.56 L 367.591 88.56 L 367.591 139.961 Z  M 445.424 117.647 L 445.424 117.647 L 445.424 91.615 L 445.424 91.615 Q 445.424 69.302 476.336 69.302 L 476.336 69.302 L 509.64 69.302 L 522.52 76.208 L 522.52 88.56 L 478.544 88.56 L 478.544 88.56 Q 476.152 88.56 476.152 90.287 L 476.152 90.287 L 476.152 118.976 L 476.152 118.976 Q 476.152 120.702 478.544 120.702 L 478.544 120.702 L 522.52 120.702 L 522.52 133.054 L 509.64 139.961 L 476.336 139.961 L 476.336 139.961 Q 445.424 139.961 445.424 117.647 Z  M 542.76 111.139 L 542.76 111.139 L 542.76 41.676 L 573.488 41.676 L 573.488 113.397 L 573.488 113.397 Q 573.488 121.234 584.712 122.163 L 584.712 122.163 L 584.712 141.422 L 584.712 141.422 Q 542.76 141.422 542.76 111.139 Z  M 682.784 139.961 L 630.896 139.961 L 630.896 139.961 Q 599.984 139.961 599.984 118.312 L 599.984 118.312 L 599.984 118.312 Q 599.984 96.662 630.896 96.662 L 630.896 96.662 L 652.056 96.662 L 652.056 90.287 L 652.056 90.287 Q 652.056 88.56 649.664 88.56 L 649.664 88.56 L 610.84 88.56 L 610.84 76.208 L 623.72 69.302 L 651.872 69.302 L 651.872 69.302 Q 682.784 69.302 682.784 91.615 L 682.784 91.615 L 682.784 139.961 Z  M 630.712 115.124 L 630.712 118.976 L 630.712 118.976 Q 630.712 120.702 633.104 120.702 L 633.104 120.702 L 652.056 120.702 L 652.056 113.397 L 633.104 113.397 L 633.104 113.397 Q 630.712 113.397 630.712 115.124 L 630.712 115.124 Z  M 738.168 58.411 L 706.704 58.411 L 706.704 37.824 L 738.168 37.824 L 738.168 58.411 Z  M 737.8 139.961 L 707.072 139.961 L 707.072 69.302 L 737.8 69.302 L 737.8 139.961 Z  M 792.816 139.961 L 762.088 139.961 L 762.088 78.865 L 762.088 78.865 Q 769.08 69.302 789.32 69.302 L 789.32 69.302 L 809.928 69.302 L 822.808 76.208 L 822.808 88.56 L 798.52 88.56 L 798.52 88.56 Q 794.104 88.56 792.816 90.021 L 792.816 90.021 L 792.816 139.961 Z " fill="rgb(251,251,251)"/><path d=" M 234.404 160.291 L 202.166 207.121 L 235.122 207.121 L 235.122 217.941 L 185.329 217.941 L 185.329 210.039 L 217.656 163.479 L 185.374 163.479 L 185.374 152.569 L 234.404 152.569 L 234.404 160.291 Z  M 254.743 152.569 L 267 175.108 L 279.257 152.569 L 294.748 152.569 L 275.71 184.985 L 295.241 217.941 L 279.572 217.941 L 267 195.043 L 254.428 217.941 L 238.759 217.941 L 258.29 184.985 L 239.253 152.569 L 254.743 152.569 Z  M 343.238 169.944 L 343.238 169.944 L 343.238 169.944 Q 343.238 174.704 340.859 178.385 L 340.859 178.385 L 340.859 178.385 Q 338.479 182.067 334.303 184.267 L 334.303 184.267 L 334.303 184.267 Q 339.063 186.557 341.846 190.575 L 341.846 190.575 L 341.846 190.575 Q 344.63 194.594 344.63 200.027 L 344.63 200.027 L 344.63 200.027 Q 344.63 208.737 338.703 213.788 L 338.703 213.788 L 338.703 213.788 Q 332.777 218.839 322.585 218.839 L 322.585 218.839 L 322.585 218.839 Q 312.393 218.839 306.421 213.766 L 306.421 213.766 L 306.421 213.766 Q 300.45 208.692 300.45 200.027 L 300.45 200.027 L 300.45 200.027 Q 300.45 194.594 303.233 190.553 L 303.233 190.553 L 303.233 190.553 Q 306.017 186.512 310.732 184.267 L 310.732 184.267 L 310.732 184.267 Q 306.556 182.067 304.199 178.385 L 304.199 178.385 L 304.199 178.385 Q 301.842 174.704 301.842 169.944 L 301.842 169.944 L 301.842 169.944 Q 301.842 161.593 307.409 156.632 L 307.409 156.632 L 307.409 156.632 Q 312.976 151.671 322.54 151.671 L 322.54 151.671 L 322.54 151.671 Q 332.058 151.671 337.648 156.587 L 337.648 156.587 L 337.648 156.587 Q 343.238 161.503 343.238 169.944 Z  M 331.609 199.084 L 331.609 199.084 L 331.609 199.084 Q 331.609 194.818 329.14 192.259 L 329.14 192.259 L 329.14 192.259 Q 326.671 189.7 322.495 189.7 L 322.495 189.7 L 322.495 189.7 Q 318.364 189.7 315.895 192.237 L 315.895 192.237 L 315.895 192.237 Q 313.425 194.773 313.425 199.084 L 313.425 199.084 L 313.425 199.084 Q 313.425 203.259 315.85 205.818 L 315.85 205.818 L 315.85 205.818 Q 318.275 208.378 322.585 208.378 L 322.585 208.378 L 322.585 208.378 Q 326.805 208.378 329.207 205.908 L 329.207 205.908 L 329.207 205.908 Q 331.609 203.439 331.609 199.084 Z  M 330.263 170.573 L 330.263 170.573 L 330.263 170.573 Q 330.263 166.757 328.242 164.444 L 328.242 164.444 L 328.242 164.444 Q 326.222 162.132 322.54 162.132 L 322.54 162.132 L 322.54 162.132 Q 318.903 162.132 316.883 164.377 L 316.883 164.377 L 316.883 164.377 Q 314.862 166.622 314.862 170.573 L 314.862 170.573 L 314.862 170.573 Q 314.862 174.479 316.883 176.859 L 316.883 176.859 L 316.883 176.859 Q 318.903 179.238 322.585 179.238 L 322.585 179.238 L 322.585 179.238 Q 326.267 179.238 328.265 176.859 L 328.265 176.859 L 328.265 176.859 Q 330.263 174.479 330.263 170.573 Z  M 384.904 152.479 L 384.904 217.941 L 371.929 217.941 L 371.929 167.924 L 356.439 172.728 L 356.439 162.177 L 383.512 152.479 L 384.904 152.479 Z " fill="rgb(251,0,0)"/></g></svg>