<?xml version="1.0" encoding="UTF-8" standalone="no"?><!-- Generator: Gravit.io --><svg xmlns="http://www.w3.org/2000/svg" xmlns:xlink="http://www.w3.org/1999/xlink" style="isolation:isolate" viewBox="0 0 992 250" width="992pt" height="250pt"><defs><clipPath id="_clipPath_akAr1GEo3ZLkfbhdne8xVGCKgvEyWwil"><rect width="992" height="250"/></clipPath></defs><g clip-path="url(#_clipPath_akAr1GEo3ZLkfbhdne8xVGCKgvEyWwil)"><path d=" M 79.83 191.799 L 67.875 185.389 L 67.875 173.924 L 107.155 173.924 L 107.155 173.924 Q 109.887 173.924 109.887 171.212 L 109.887 171.212 L 109.887 171.212 Q 109.887 168.377 107.326 168.007 L 107.326 168.007 L 89.906 165.911 L 89.906 165.911 Q 67.875 163.199 67.875 147.05 L 67.875 147.05 L 67.875 147.05 Q 67.875 126.216 96.566 126.216 L 96.566 126.216 L 122.013 126.216 L 133.968 132.627 L 133.968 144.091 L 98.787 144.091 L 98.787 144.091 Q 96.054 144.091 96.054 146.803 L 96.054 146.803 L 96.054 146.803 Q 96.054 150.378 98.787 150.625 L 98.787 150.625 L 116.206 152.721 L 116.206 152.721 Q 138.066 155.309 138.066 170.965 L 138.066 170.965 L 138.066 170.965 Q 138.066 191.799 109.375 191.799 L 109.375 191.799 L 79.83 191.799 Z  M 187.081 116.108 L 157.877 116.108 L 157.877 97 L 187.081 97 L 187.081 116.108 Z  M 186.739 191.799 L 158.219 191.799 L 158.219 126.216 L 186.739 126.216 L 186.739 191.799 Z  M 238.486 191.799 L 209.965 191.799 L 209.965 126.216 L 260.858 126.216 L 260.858 126.216 Q 289.55 126.216 289.55 146.927 L 289.55 146.927 L 289.55 191.799 L 261.029 191.799 L 261.029 145.694 L 261.029 145.694 Q 261.029 144.091 258.809 144.091 L 258.809 144.091 L 238.486 144.091 L 238.486 191.799 Z  M 310.727 171.089 L 310.727 171.089 L 310.727 146.927 L 310.727 146.927 Q 310.727 126.216 339.418 126.216 L 339.418 126.216 L 370.329 126.216 L 382.284 132.627 L 382.284 144.091 L 341.467 144.091 L 341.467 144.091 Q 339.247 144.091 339.247 145.694 L 339.247 145.694 L 339.247 172.321 L 339.247 172.321 Q 339.247 173.924 341.467 173.924 L 341.467 173.924 L 382.284 173.924 L 382.284 185.389 L 370.329 191.799 L 339.418 191.799 L 339.418 191.799 Q 310.727 191.799 310.727 171.089 Z  M 401.07 165.048 L 401.07 165.048 L 401.07 100.575 L 429.591 100.575 L 429.591 167.144 L 429.591 167.144 Q 429.591 174.417 440.008 175.28 L 440.008 175.28 L 440.008 193.155 L 440.008 193.155 Q 401.07 193.155 401.07 165.048 Z  M 531.035 191.799 L 482.875 191.799 L 482.875 191.799 Q 454.183 191.799 454.183 171.705 L 454.183 171.705 L 454.183 171.705 Q 454.183 151.611 482.875 151.611 L 482.875 151.611 L 502.515 151.611 L 502.515 145.694 L 502.515 145.694 Q 502.515 144.091 500.294 144.091 L 500.294 144.091 L 464.259 144.091 L 464.259 132.627 L 476.214 126.216 L 502.344 126.216 L 502.344 126.216 Q 531.035 126.216 531.035 146.927 L 531.035 146.927 L 531.035 191.799 Z  M 482.704 168.746 L 482.704 172.321 L 482.704 172.321 Q 482.704 173.924 484.924 173.924 L 484.924 173.924 L 502.515 173.924 L 502.515 167.144 L 484.924 167.144 L 484.924 167.144 Q 482.704 167.144 482.704 168.746 L 482.704 168.746 Z  M 582.44 116.108 L 553.237 116.108 L 553.237 97 L 582.44 97 L 582.44 116.108 Z  M 582.099 191.799 L 553.578 191.799 L 553.578 126.216 L 582.099 126.216 L 582.099 191.799 Z  M 633.163 191.799 L 604.642 191.799 L 604.642 135.092 L 604.642 135.092 Q 611.132 126.216 629.918 126.216 L 629.918 126.216 L 649.045 126.216 L 661 132.627 L 661 144.091 L 638.457 144.091 L 638.457 144.091 Q 634.358 144.091 633.163 145.447 L 633.163 145.447 L 633.163 191.799 Z " fill="rgb(0,0,0)"/><path d=" M 138.219 214.214 L 138.219 214.214 L 138.219 214.214 Q 138.219 212.673 137.128 211.812 L 137.128 211.812 L 137.128 211.812 Q 136.037 210.951 133.294 210.03 L 133.294 210.03 L 133.294 210.03 Q 130.551 209.109 128.81 208.249 L 128.81 208.249 L 128.81 208.249 Q 123.144 205.466 123.144 200.601 L 123.144 200.601 L 123.144 200.601 Q 123.144 198.179 124.555 196.327 L 124.555 196.327 L 124.555 196.327 Q 125.967 194.475 128.549 193.444 L 128.549 193.444 L 128.549 193.444 Q 131.132 192.413 134.355 192.413 L 134.355 192.413 L 134.355 192.413 Q 137.498 192.413 139.99 193.534 L 139.99 193.534 L 139.99 193.534 Q 142.483 194.655 143.864 196.727 L 143.864 196.727 L 143.864 196.727 Q 145.246 198.799 145.246 201.462 L 145.246 201.462 L 138.239 201.462 L 138.239 201.462 Q 138.239 199.68 137.148 198.699 L 137.148 198.699 L 137.148 198.699 Q 136.057 197.718 134.195 197.718 L 134.195 197.718 L 134.195 197.718 Q 132.313 197.718 131.222 198.549 L 131.222 198.549 L 131.222 198.549 Q 130.131 199.38 130.131 200.661 L 130.131 200.661 L 130.131 200.661 Q 130.131 201.782 131.332 202.693 L 131.332 202.693 L 131.332 202.693 Q 132.533 203.604 135.556 204.575 L 135.556 204.575 L 135.556 204.575 Q 138.579 205.546 140.521 206.667 L 140.521 206.667 L 140.521 206.667 Q 145.246 209.39 145.246 214.174 L 145.246 214.174 L 145.246 214.174 Q 145.246 217.998 142.363 220.18 L 142.363 220.18 L 142.363 220.18 Q 139.48 222.362 134.455 222.362 L 134.455 222.362 L 134.455 222.362 Q 130.912 222.362 128.039 221.091 L 128.039 221.091 L 128.039 221.091 Q 125.166 219.82 123.715 217.608 L 123.715 217.608 L 123.715 217.608 Q 122.263 215.396 122.263 212.513 L 122.263 212.513 L 129.31 212.513 L 129.31 212.513 Q 129.31 214.855 130.521 215.966 L 130.521 215.966 L 130.521 215.966 Q 131.732 217.077 134.455 217.077 L 134.455 217.077 L 134.455 217.077 Q 136.197 217.077 137.208 216.326 L 137.208 216.326 L 137.208 216.326 Q 138.219 215.576 138.219 214.214 Z  M 168.648 210.971 L 168.648 211.292 L 168.648 211.292 Q 168.648 216.336 166.376 219.349 L 166.376 219.349 L 166.376 219.349 Q 164.104 222.362 160.24 222.362 L 160.24 222.362 L 160.24 222.362 Q 157.257 222.362 155.335 220.18 L 155.335 220.18 L 155.335 230.29 L 148.589 230.29 L 148.589 200.301 L 154.895 200.301 L 155.095 202.303 L 155.095 202.303 Q 157.037 199.9 160.2 199.9 L 160.2 199.9 L 160.2 199.9 Q 164.204 199.9 166.426 202.853 L 166.426 202.853 L 166.426 202.853 Q 168.648 205.806 168.648 210.971 L 168.648 210.971 Z  M 161.902 211.592 L 161.902 210.871 L 161.902 210.871 Q 161.902 205.105 158.539 205.105 L 158.539 205.105 L 158.539 205.105 Q 156.136 205.105 155.335 206.827 L 155.335 206.827 L 155.335 215.355 L 155.335 215.355 Q 156.216 217.157 158.579 217.157 L 158.579 217.157 L 158.579 217.157 Q 161.802 217.157 161.902 211.592 L 161.902 211.592 Z  M 182.102 222.362 L 182.102 222.362 L 182.102 222.362 Q 177.117 222.362 174.034 219.389 L 174.034 219.389 L 174.034 219.389 Q 170.951 216.417 170.951 211.652 L 170.951 211.652 L 170.951 211.091 L 170.951 211.091 Q 170.951 207.768 172.182 205.226 L 172.182 205.226 L 172.182 205.226 Q 173.413 202.683 175.775 201.292 L 175.775 201.292 L 175.775 201.292 Q 178.138 199.9 181.381 199.9 L 181.381 199.9 L 181.381 199.9 Q 185.945 199.9 188.588 202.733 L 188.588 202.733 L 188.588 202.733 Q 191.23 205.566 191.23 210.631 L 191.23 210.631 L 191.23 213.253 L 177.817 213.253 L 177.817 213.253 Q 178.178 215.075 179.399 216.116 L 179.399 216.116 L 179.399 216.116 Q 180.62 217.157 182.562 217.157 L 182.562 217.157 L 182.562 217.157 Q 185.765 217.157 187.567 214.915 L 187.567 214.915 L 190.65 218.559 L 190.65 218.559 Q 189.389 220.3 187.076 221.331 L 187.076 221.331 L 187.076 221.331 Q 184.764 222.362 182.102 222.362 Z  M 181.341 205.105 L 181.341 205.105 L 181.341 205.105 Q 178.378 205.105 177.817 209.029 L 177.817 209.029 L 184.624 209.029 L 184.624 208.509 L 184.624 208.509 Q 184.664 206.887 183.803 205.996 L 183.803 205.996 L 183.803 205.996 Q 182.942 205.105 181.341 205.105 Z  M 203.102 217.157 L 203.102 217.157 L 203.102 217.157 Q 204.523 217.157 205.304 216.386 L 205.304 216.386 L 205.304 216.386 Q 206.085 215.616 206.065 214.234 L 206.065 214.234 L 212.391 214.234 L 212.391 214.234 Q 212.391 217.798 209.839 220.08 L 209.839 220.08 L 209.839 220.08 Q 207.286 222.362 203.262 222.362 L 203.262 222.362 L 203.262 222.362 Q 198.538 222.362 195.815 219.399 L 195.815 219.399 L 195.815 219.399 Q 193.092 216.437 193.092 211.191 L 193.092 211.191 L 193.092 210.911 L 193.092 210.911 Q 193.092 207.628 194.303 205.115 L 194.303 205.115 L 194.303 205.115 Q 195.515 202.603 197.797 201.252 L 197.797 201.252 L 197.797 201.252 Q 200.079 199.9 203.202 199.9 L 203.202 199.9 L 203.202 199.9 Q 207.426 199.9 209.909 202.243 L 209.909 202.243 L 209.909 202.243 Q 212.391 204.585 212.391 208.589 L 212.391 208.589 L 206.065 208.589 L 206.065 208.589 Q 206.065 206.907 205.244 206.006 L 205.244 206.006 L 205.244 206.006 Q 204.423 205.105 203.042 205.105 L 203.042 205.105 L 203.042 205.105 Q 200.419 205.105 199.979 208.449 L 199.979 208.449 L 199.979 208.449 Q 199.839 209.51 199.839 211.372 L 199.839 211.372 L 199.839 211.372 Q 199.839 214.635 200.62 215.896 L 200.62 215.896 L 200.62 215.896 Q 201.4 217.157 203.102 217.157 Z  M 216.355 194.916 L 223.102 194.916 L 223.102 200.301 L 226.665 200.301 L 226.665 204.985 L 223.102 204.985 L 223.102 214.895 L 223.102 214.895 Q 223.102 216.116 223.542 216.597 L 223.542 216.597 L 223.542 216.597 Q 223.982 217.077 225.284 217.077 L 225.284 217.077 L 225.284 217.077 Q 226.285 217.077 226.965 216.957 L 226.965 216.957 L 226.965 221.782 L 226.965 221.782 Q 225.144 222.362 223.162 222.362 L 223.162 222.362 L 223.162 222.362 Q 219.678 222.362 218.017 220.721 L 218.017 220.721 L 218.017 220.721 Q 216.355 219.079 216.355 215.736 L 216.355 215.736 L 216.355 204.985 L 213.592 204.985 L 213.592 200.301 L 216.355 200.301 L 216.355 194.916 Z  M 242.541 200.141 L 242.42 206.407 L 240.198 206.247 L 240.198 206.247 Q 237.015 206.247 236.114 208.249 L 236.114 208.249 L 236.114 221.962 L 229.368 221.962 L 229.368 200.301 L 235.694 200.301 L 235.914 203.083 L 235.914 203.083 Q 237.616 199.9 240.659 199.9 L 240.659 199.9 L 240.659 199.9 Q 241.74 199.9 242.541 200.141 L 242.541 200.141 Z  M 257.956 221.962 L 257.755 219.62 L 257.755 219.62 Q 255.613 222.362 251.97 222.362 L 251.97 222.362 L 251.97 222.362 Q 248.406 222.362 246.574 220.29 L 246.574 220.29 L 246.574 220.29 Q 244.743 218.218 244.743 214.334 L 244.743 214.334 L 244.743 200.301 L 251.489 200.301 L 251.489 214.375 L 251.489 214.375 Q 251.489 217.157 254.192 217.157 L 254.192 217.157 L 254.192 217.157 Q 256.514 217.157 257.495 215.496 L 257.495 215.496 L 257.495 200.301 L 264.282 200.301 L 264.282 221.962 L 257.956 221.962 Z  M 268.025 200.301 L 274.352 200.301 L 274.572 202.843 L 274.572 202.843 Q 276.874 199.9 280.758 199.9 L 280.758 199.9 L 280.758 199.9 Q 284.862 199.9 286.303 203.164 L 286.303 203.164 L 286.303 203.164 Q 288.505 199.9 292.669 199.9 L 292.669 199.9 L 292.669 199.9 Q 299.256 199.9 299.436 207.868 L 299.436 207.868 L 299.436 221.962 L 292.669 221.962 L 292.669 208.289 L 292.669 208.289 Q 292.669 206.627 292.109 205.866 L 292.109 205.866 L 292.109 205.866 Q 291.548 205.105 290.067 205.105 L 290.067 205.105 L 290.067 205.105 Q 288.065 205.105 287.084 206.887 L 287.084 206.887 L 287.104 207.167 L 287.104 221.962 L 280.337 221.962 L 280.337 208.329 L 280.337 208.329 Q 280.337 206.627 279.797 205.866 L 279.797 205.866 L 279.797 205.866 Q 279.256 205.105 277.735 205.105 L 277.735 205.105 L 277.735 205.105 Q 275.793 205.105 274.772 206.887 L 274.772 206.887 L 274.772 221.962 L 268.025 221.962 L 268.025 200.301 Z  M 83.485 196.417 L 69.692 216.557 L 83.625 216.557 L 83.625 221.962 L 60.923 221.962 L 60.923 218.258 L 74.817 198.239 L 60.843 198.239 L 60.843 192.813 L 83.485 192.813 L 83.485 196.417 Z  M 92.915 192.813 L 97.679 202.503 L 102.444 192.813 L 110.472 192.813 L 102.324 207.268 L 110.692 221.962 L 102.584 221.962 L 97.679 212.092 L 92.774 221.962 L 84.687 221.962 L 93.035 207.268 L 84.907 192.813 L 92.915 192.813 Z " fill="rgb(0,0,0)"/><path d=" M 76.83 185.799 L 64.875 179.389 L 64.875 167.924 L 104.155 167.924 L 104.155 167.924 Q 106.887 167.924 106.887 165.212 L 106.887 165.212 L 106.887 165.212 Q 106.887 162.377 104.326 162.007 L 104.326 162.007 L 86.906 159.911 L 86.906 159.911 Q 64.875 157.199 64.875 141.05 L 64.875 141.05 L 64.875 141.05 Q 64.875 120.216 93.566 120.216 L 93.566 120.216 L 119.013 120.216 L 130.968 126.627 L 130.968 138.091 L 95.786 138.091 L 95.786 138.091 Q 93.054 138.091 93.054 140.803 L 93.054 140.803 L 93.054 140.803 Q 93.054 144.378 95.786 144.625 L 95.786 144.625 L 113.206 146.721 L 113.206 146.721 Q 135.066 149.309 135.066 164.965 L 135.066 164.965 L 135.066 164.965 Q 135.066 185.799 106.375 185.799 L 106.375 185.799 L 76.83 185.799 Z  M 184.081 110.108 L 154.877 110.108 L 154.877 91 L 184.081 91 L 184.081 110.108 Z  M 183.739 185.799 L 155.219 185.799 L 155.219 120.216 L 183.739 120.216 L 183.739 185.799 Z  M 235.486 185.799 L 206.965 185.799 L 206.965 120.216 L 257.858 120.216 L 257.858 120.216 Q 286.55 120.216 286.55 140.927 L 286.55 140.927 L 286.55 185.799 L 258.029 185.799 L 258.029 139.694 L 258.029 139.694 Q 258.029 138.091 255.809 138.091 L 255.809 138.091 L 235.486 138.091 L 235.486 185.799 Z  M 307.727 165.089 L 307.727 165.089 L 307.727 140.927 L 307.727 140.927 Q 307.727 120.216 336.418 120.216 L 336.418 120.216 L 367.329 120.216 L 379.284 126.627 L 379.284 138.091 L 338.467 138.091 L 338.467 138.091 Q 336.247 138.091 336.247 139.694 L 336.247 139.694 L 336.247 166.321 L 336.247 166.321 Q 336.247 167.924 338.467 167.924 L 338.467 167.924 L 379.284 167.924 L 379.284 179.389 L 367.329 185.799 L 336.418 185.799 L 336.418 185.799 Q 307.727 185.799 307.727 165.089 Z  M 398.07 159.048 L 398.07 159.048 L 398.07 94.575 L 426.591 94.575 L 426.591 161.144 L 426.591 161.144 Q 426.591 168.417 437.008 169.28 L 437.008 169.28 L 437.008 187.155 L 437.008 187.155 Q 398.07 187.155 398.07 159.048 Z  M 528.035 185.799 L 479.875 185.799 L 479.875 185.799 Q 451.183 185.799 451.183 165.705 L 451.183 165.705 L 451.183 165.705 Q 451.183 145.611 479.875 145.611 L 479.875 145.611 L 499.515 145.611 L 499.515 139.694 L 499.515 139.694 Q 499.515 138.091 497.294 138.091 L 497.294 138.091 L 461.259 138.091 L 461.259 126.627 L 473.214 120.216 L 499.344 120.216 L 499.344 120.216 Q 528.035 120.216 528.035 140.927 L 528.035 140.927 L 528.035 185.799 Z  M 479.704 162.746 L 479.704 166.321 L 479.704 166.321 Q 479.704 167.924 481.924 167.924 L 481.924 167.924 L 499.515 167.924 L 499.515 161.144 L 481.924 161.144 L 481.924 161.144 Q 479.704 161.144 479.704 162.746 L 479.704 162.746 Z  M 579.44 110.108 L 550.237 110.108 L 550.237 91 L 579.44 91 L 579.44 110.108 Z  M 579.099 185.799 L 550.578 185.799 L 550.578 120.216 L 579.099 120.216 L 579.099 185.799 Z  M 630.163 185.799 L 601.642 185.799 L 601.642 129.092 L 601.642 129.092 Q 608.132 120.216 626.918 120.216 L 626.918 120.216 L 646.045 120.216 L 658 126.627 L 658 138.091 L 635.457 138.091 L 635.457 138.091 Q 631.358 138.091 630.163 139.447 L 630.163 139.447 L 630.163 185.799 Z " fill="rgb(255,255,255)"/><path d=" M 137.219 213.214 L 137.219 213.214 L 137.219 213.214 Q 137.219 211.673 136.128 210.812 L 136.128 210.812 L 136.128 210.812 Q 135.037 209.951 132.294 209.03 L 132.294 209.03 L 132.294 209.03 Q 129.551 208.109 127.81 207.249 L 127.81 207.249 L 127.81 207.249 Q 122.144 204.466 122.144 199.601 L 122.144 199.601 L 122.144 199.601 Q 122.144 197.179 123.555 195.327 L 123.555 195.327 L 123.555 195.327 Q 124.967 193.475 127.549 192.444 L 127.549 192.444 L 127.549 192.444 Q 130.132 191.413 133.355 191.413 L 133.355 191.413 L 133.355 191.413 Q 136.498 191.413 138.99 192.534 L 138.99 192.534 L 138.99 192.534 Q 141.483 193.655 142.864 195.727 L 142.864 195.727 L 142.864 195.727 Q 144.246 197.799 144.246 200.462 L 144.246 200.462 L 137.239 200.462 L 137.239 200.462 Q 137.239 198.68 136.148 197.699 L 136.148 197.699 L 136.148 197.699 Q 135.057 196.718 133.195 196.718 L 133.195 196.718 L 133.195 196.718 Q 131.313 196.718 130.222 197.549 L 130.222 197.549 L 130.222 197.549 Q 129.131 198.38 129.131 199.661 L 129.131 199.661 L 129.131 199.661 Q 129.131 200.782 130.332 201.693 L 130.332 201.693 L 130.332 201.693 Q 131.533 202.604 134.556 203.575 L 134.556 203.575 L 134.556 203.575 Q 137.579 204.546 139.521 205.667 L 139.521 205.667 L 139.521 205.667 Q 144.246 208.39 144.246 213.174 L 144.246 213.174 L 144.246 213.174 Q 144.246 216.998 141.363 219.18 L 141.363 219.18 L 141.363 219.18 Q 138.48 221.362 133.455 221.362 L 133.455 221.362 L 133.455 221.362 Q 129.912 221.362 127.039 220.091 L 127.039 220.091 L 127.039 220.091 Q 124.166 218.82 122.715 216.608 L 122.715 216.608 L 122.715 216.608 Q 121.263 214.396 121.263 211.513 L 121.263 211.513 L 128.31 211.513 L 128.31 211.513 Q 128.31 213.855 129.521 214.966 L 129.521 214.966 L 129.521 214.966 Q 130.732 216.077 133.455 216.077 L 133.455 216.077 L 133.455 216.077 Q 135.197 216.077 136.208 215.326 L 136.208 215.326 L 136.208 215.326 Q 137.219 214.576 137.219 213.214 Z  M 167.648 209.971 L 167.648 210.292 L 167.648 210.292 Q 167.648 215.336 165.376 218.349 L 165.376 218.349 L 165.376 218.349 Q 163.104 221.362 159.24 221.362 L 159.24 221.362 L 159.24 221.362 Q 156.257 221.362 154.335 219.18 L 154.335 219.18 L 154.335 229.29 L 147.589 229.29 L 147.589 199.301 L 153.895 199.301 L 154.095 201.303 L 154.095 201.303 Q 156.037 198.9 159.2 198.9 L 159.2 198.9 L 159.2 198.9 Q 163.204 198.9 165.426 201.853 L 165.426 201.853 L 165.426 201.853 Q 167.648 204.806 167.648 209.971 L 167.648 209.971 L 167.648 209.971 Z  M 160.902 210.592 L 160.902 209.871 L 160.902 209.871 Q 160.902 204.105 157.539 204.105 L 157.539 204.105 L 157.539 204.105 Q 155.136 204.105 154.335 205.827 L 154.335 205.827 L 154.335 214.355 L 154.335 214.355 Q 155.216 216.157 157.579 216.157 L 157.579 216.157 L 157.579 216.157 Q 160.802 216.157 160.902 210.592 L 160.902 210.592 L 160.902 210.592 Z  M 181.102 221.362 L 181.102 221.362 L 181.102 221.362 Q 176.117 221.362 173.034 218.389 L 173.034 218.389 L 173.034 218.389 Q 169.951 215.417 169.951 210.652 L 169.951 210.652 L 169.951 210.091 L 169.951 210.091 Q 169.951 206.768 171.182 204.226 L 171.182 204.226 L 171.182 204.226 Q 172.413 201.683 174.775 200.292 L 174.775 200.292 L 174.775 200.292 Q 177.138 198.9 180.381 198.9 L 180.381 198.9 L 180.381 198.9 Q 184.945 198.9 187.588 201.733 L 187.588 201.733 L 187.588 201.733 Q 190.23 204.566 190.23 209.631 L 190.23 209.631 L 190.23 212.253 L 176.817 212.253 L 176.817 212.253 Q 177.178 214.075 178.399 215.116 L 178.399 215.116 L 178.399 215.116 Q 179.62 216.157 181.562 216.157 L 181.562 216.157 L 181.562 216.157 Q 184.765 216.157 186.567 213.915 L 186.567 213.915 L 189.65 217.559 L 189.65 217.559 Q 188.389 219.3 186.076 220.331 L 186.076 220.331 L 186.076 220.331 Q 183.764 221.362 181.102 221.362 Z  M 180.341 204.105 L 180.341 204.105 L 180.341 204.105 Q 177.378 204.105 176.817 208.029 L 176.817 208.029 L 183.624 208.029 L 183.624 207.509 L 183.624 207.509 Q 183.664 205.887 182.803 204.996 L 182.803 204.996 L 182.803 204.996 Q 181.942 204.105 180.341 204.105 Z  M 202.102 216.157 L 202.102 216.157 L 202.102 216.157 Q 203.523 216.157 204.304 215.386 L 204.304 215.386 L 204.304 215.386 Q 205.085 214.616 205.065 213.234 L 205.065 213.234 L 211.391 213.234 L 211.391 213.234 Q 211.391 216.798 208.839 219.08 L 208.839 219.08 L 208.839 219.08 Q 206.286 221.362 202.262 221.362 L 202.262 221.362 L 202.262 221.362 Q 197.538 221.362 194.815 218.399 L 194.815 218.399 L 194.815 218.399 Q 192.092 215.437 192.092 210.191 L 192.092 210.191 L 192.092 209.911 L 192.092 209.911 Q 192.092 206.628 193.303 204.115 L 193.303 204.115 L 193.303 204.115 Q 194.515 201.603 196.797 200.252 L 196.797 200.252 L 196.797 200.252 Q 199.079 198.9 202.202 198.9 L 202.202 198.9 L 202.202 198.9 Q 206.426 198.9 208.909 201.243 L 208.909 201.243 L 208.909 201.243 Q 211.391 203.585 211.391 207.589 L 211.391 207.589 L 205.065 207.589 L 205.065 207.589 Q 205.065 205.907 204.244 205.006 L 204.244 205.006 L 204.244 205.006 Q 203.423 204.105 202.042 204.105 L 202.042 204.105 L 202.042 204.105 Q 199.419 204.105 198.979 207.449 L 198.979 207.449 L 198.979 207.449 Q 198.839 208.51 198.839 210.372 L 198.839 210.372 L 198.839 210.372 Q 198.839 213.635 199.62 214.896 L 199.62 214.896 L 199.62 214.896 Q 200.4 216.157 202.102 216.157 Z  M 215.355 193.916 L 222.102 193.916 L 222.102 199.301 L 225.665 199.301 L 225.665 203.985 L 222.102 203.985 L 222.102 213.895 L 222.102 213.895 Q 222.102 215.116 222.542 215.597 L 222.542 215.597 L 222.542 215.597 Q 222.982 216.077 224.284 216.077 L 224.284 216.077 L 224.284 216.077 Q 225.285 216.077 225.965 215.957 L 225.965 215.957 L 225.965 220.782 L 225.965 220.782 Q 224.144 221.362 222.162 221.362 L 222.162 221.362 L 222.162 221.362 Q 218.678 221.362 217.017 219.721 L 217.017 219.721 L 217.017 219.721 Q 215.355 218.079 215.355 214.736 L 215.355 214.736 L 215.355 203.985 L 212.592 203.985 L 212.592 199.301 L 215.355 199.301 L 215.355 193.916 L 215.355 193.916 Z  M 241.541 199.141 L 241.42 205.407 L 239.198 205.247 L 239.198 205.247 Q 236.015 205.247 235.114 207.249 L 235.114 207.249 L 235.114 220.962 L 228.368 220.962 L 228.368 199.301 L 234.694 199.301 L 234.914 202.083 L 234.914 202.083 Q 236.616 198.9 239.659 198.9 L 239.659 198.9 L 239.659 198.9 Q 240.74 198.9 241.541 199.141 L 241.541 199.141 L 241.541 199.141 Z  M 256.956 220.962 L 256.755 218.62 L 256.755 218.62 Q 254.613 221.362 250.97 221.362 L 250.97 221.362 L 250.97 221.362 Q 247.406 221.362 245.574 219.29 L 245.574 219.29 L 245.574 219.29 Q 243.743 217.218 243.743 213.334 L 243.743 213.334 L 243.743 199.301 L 250.489 199.301 L 250.489 213.375 L 250.489 213.375 Q 250.489 216.157 253.192 216.157 L 253.192 216.157 L 253.192 216.157 Q 255.514 216.157 256.495 214.496 L 256.495 214.496 L 256.495 199.301 L 263.282 199.301 L 263.282 220.962 L 256.956 220.962 L 256.956 220.962 Z  M 267.025 199.301 L 273.352 199.301 L 273.572 201.843 L 273.572 201.843 Q 275.874 198.9 279.758 198.9 L 279.758 198.9 L 279.758 198.9 Q 283.862 198.9 285.303 202.164 L 285.303 202.164 L 285.303 202.164 Q 287.505 198.9 291.669 198.9 L 291.669 198.9 L 291.669 198.9 Q 298.256 198.9 298.436 206.868 L 298.436 206.868 L 298.436 220.962 L 291.669 220.962 L 291.669 207.289 L 291.669 207.289 Q 291.669 205.627 291.109 204.866 L 291.109 204.866 L 291.109 204.866 Q 290.548 204.105 289.067 204.105 L 289.067 204.105 L 289.067 204.105 Q 287.065 204.105 286.084 205.887 L 286.084 205.887 L 286.104 206.167 L 286.104 220.962 L 279.337 220.962 L 279.337 207.329 L 279.337 207.329 Q 279.337 205.627 278.797 204.866 L 278.797 204.866 L 278.797 204.866 Q 278.256 204.105 276.735 204.105 L 276.735 204.105 L 276.735 204.105 Q 274.793 204.105 273.772 205.887 L 273.772 205.887 L 273.772 220.962 L 267.025 220.962 L 267.025 199.301 L 267.025 199.301 Z  M 82.485 195.417 L 68.692 215.557 L 82.625 215.557 L 82.625 220.962 L 59.923 220.962 L 59.923 217.258 L 73.817 197.239 L 59.843 197.239 L 59.843 191.813 L 82.485 191.813 L 82.485 195.417 L 82.485 195.417 Z  M 91.915 191.813 L 96.679 201.503 L 101.444 191.813 L 109.472 191.813 L 101.324 206.268 L 109.692 220.962 L 101.584 220.962 L 96.679 211.092 L 91.774 220.962 L 83.687 220.962 L 92.035 206.268 L 83.907 191.813 L 91.915 191.813 L 91.915 191.813 Z " fill="rgb(255,255,255)"/><path d=" M 887 61.492 L 887 61.492 L 842.333 61.492 L 842.333 61.492 L 797.667 61.492 L 797.667 61.492 L 753 61.492 L 695.333 190.941 L 740 190.941 L 740 190.941 L 740 190.941 L 784.667 190.941 L 784.667 190.941 L 829.333 190.941 L 829.333 190.941 L 829.333 190.941 L 874 190.941 L 931.667 61.492 L 887 61.492 Z " fill="rgb(0,0,0)"/><path d=" M 749 55.492 L 793.667 55.492 L 736 184.941 L 691.333 184.941 L 749 55.492 Z " fill="rgb(254,0,0)"/><path d=" M 793.667 55.492 L 838.333 55.492 L 780.667 184.941 L 736 184.941 L 793.667 55.492 Z " fill="rgb(254,254,0)"/><path d=" M 838.333 55.492 L 883 55.492 L 825.333 184.941 L 780.667 184.941 L 838.333 55.492 Z " fill="rgb(0,254,16)"/><path d=" M 883 55.492 L 927.667 55.492 L 870 184.941 L 825.333 184.941 L 883 55.492 Z " fill="rgb(0,254,254)"/></g></svg>