<?xml version="1.0" encoding="UTF-8" standalone="no"?><!-- Generator: Gravit.io --><svg xmlns="http://www.w3.org/2000/svg" xmlns:xlink="http://www.w3.org/1999/xlink" style="isolation:isolate" viewBox="0 0 350 350" width="350pt" height="350pt"><defs><clipPath id="_clipPath_egdtKCro3BJuEe8HNEELhgXmtcgGMB4B"><rect width="350" height="350"/></clipPath></defs><g clip-path="url(#_clipPath_egdtKCro3BJuEe8HNEELhgXmtcgGMB4B)"><rect x="0" y="43.75" width="350" height="262.5" transform="matrix(1,0,0,1,0,0)" fill="rgb(168,20,4)"/><rect x="2.5" y="46.5" width="296" height="256.5" transform="matrix(1,0,0,1,0,0)" fill="rgb(0,0,0)"/><path d=" M 73.125 262.313 L 230.813 262.313 L 227.063 279.375 L 77.813 279.375 L 73.125 262.313 Z " fill="rgb(77,1,1)"/><path d=" M 78 69 L 81 100.125 L 223.5 100.125 L 227.063 69 L 78 69 Z " fill="rgb(172,3,1)"/><path d=" M 214.875 119.063 L 223.5 100.125 L 81 100.125 L 89.063 119.063 L 214.875 119.063 Z " fill="rgb(241,5,2)"/><path d=" M 85.875 234 L 73.125 262.313 L 230.813 262.313 L 219.563 234 L 85.875 234 Z " fill="rgb(213,6,1)"/><path d=" M 112.148 178.305 L 112.148 188.484 L 110.117 188.484 L 110.117 185.734 L 102.977 185.734 L 102.977 188.484 L 100.945 188.484 L 100.945 182.883 L 100.945 182.883 Q 100.945 181.656 101.367 180.625 L 101.367 180.625 L 101.367 180.625 Q 101.789 179.594 102.539 178.852 L 102.539 178.852 L 102.539 178.852 Q 103.289 178.109 104.313 177.695 L 104.313 177.695 L 104.313 177.695 Q 105.336 177.281 106.547 177.281 L 106.547 177.281 L 111.125 177.281 L 111.125 177.281 Q 111.336 177.281 111.523 177.359 L 111.523 177.359 L 111.523 177.359 Q 111.711 177.438 111.852 177.578 L 111.852 177.578 L 111.852 177.578 Q 111.992 177.719 112.07 177.906 L 112.07 177.906 L 112.07 177.906 Q 112.148 178.094 112.148 178.305 L 112.148 178.305 Z  M 102.977 182.883 L 102.977 183.703 L 110.117 183.703 L 110.117 179.313 L 106.547 179.313 L 106.547 179.313 Q 106.453 179.313 106.152 179.34 L 106.152 179.34 L 106.152 179.34 Q 105.852 179.367 105.457 179.477 L 105.457 179.477 L 105.457 179.477 Q 105.063 179.586 104.625 179.813 L 104.625 179.813 L 104.625 179.813 Q 104.188 180.039 103.82 180.438 L 103.82 180.438 L 103.82 180.438 Q 103.453 180.836 103.215 181.434 L 103.215 181.434 L 103.215 181.434 Q 102.977 182.031 102.977 182.883 L 102.977 182.883 Z  M 123.453 177.281 L 125.719 177.281 L 120.414 188.086 L 120.414 188.086 Q 120.289 188.336 120.043 188.488 L 120.043 188.488 L 120.043 188.488 Q 119.797 188.641 119.5 188.641 L 119.5 188.641 L 119.5 188.641 Q 119.211 188.641 118.965 188.488 L 118.965 188.488 L 118.965 188.488 Q 118.719 188.336 118.586 188.086 L 118.586 188.086 L 113.289 177.281 L 115.563 177.281 L 119.5 185.352 L 123.453 177.281 Z  M 137.57 178.305 L 137.57 188.484 L 135.539 188.484 L 135.539 185.734 L 128.398 185.734 L 128.398 188.484 L 126.367 188.484 L 126.367 182.883 L 126.367 182.883 Q 126.367 181.656 126.789 180.625 L 126.789 180.625 L 126.789 180.625 Q 127.211 179.594 127.961 178.852 L 127.961 178.852 L 127.961 178.852 Q 128.711 178.109 129.734 177.695 L 129.734 177.695 L 129.734 177.695 Q 130.758 177.281 131.969 177.281 L 131.969 177.281 L 136.547 177.281 L 136.547 177.281 Q 136.758 177.281 136.945 177.359 L 136.945 177.359 L 136.945 177.359 Q 137.133 177.438 137.273 177.578 L 137.273 177.578 L 137.273 177.578 Q 137.414 177.719 137.492 177.906 L 137.492 177.906 L 137.492 177.906 Q 137.57 178.094 137.57 178.305 L 137.57 178.305 Z  M 128.398 182.883 L 128.398 183.703 L 135.539 183.703 L 135.539 179.313 L 131.969 179.313 L 131.969 179.313 Q 131.875 179.313 131.574 179.34 L 131.574 179.34 L 131.574 179.34 Q 131.273 179.367 130.879 179.477 L 130.879 179.477 L 130.879 179.477 Q 130.484 179.586 130.047 179.813 L 130.047 179.813 L 130.047 179.813 Q 129.609 180.039 129.242 180.438 L 129.242 180.438 L 129.242 180.438 Q 128.875 180.836 128.637 181.434 L 128.637 181.434 L 128.637 181.434 Q 128.398 182.031 128.398 182.883 L 128.398 182.883 Z  M 141.977 177.281 L 141.977 188.484 L 139.945 188.484 L 139.945 177.281 L 141.977 177.281 Z  M 154.641 186.453 L 154.641 188.484 L 145.375 188.484 L 145.375 188.484 Q 145.156 188.484 144.969 188.406 L 144.969 188.406 L 144.969 188.406 Q 144.781 188.328 144.645 188.191 L 144.645 188.191 L 144.645 188.191 Q 144.508 188.055 144.43 187.867 L 144.43 187.867 L 144.43 187.867 Q 144.352 187.68 144.352 187.461 L 144.352 187.461 L 144.352 177.281 L 146.383 177.281 L 146.383 186.453 L 154.641 186.453 Z  M 167.125 178.305 L 167.125 188.484 L 165.094 188.484 L 165.094 185.734 L 157.953 185.734 L 157.953 188.484 L 155.922 188.484 L 155.922 182.883 L 155.922 182.883 Q 155.922 181.656 156.344 180.625 L 156.344 180.625 L 156.344 180.625 Q 156.766 179.594 157.516 178.852 L 157.516 178.852 L 157.516 178.852 Q 158.266 178.109 159.289 177.695 L 159.289 177.695 L 159.289 177.695 Q 160.313 177.281 161.523 177.281 L 161.523 177.281 L 166.102 177.281 L 166.102 177.281 Q 166.313 177.281 166.5 177.359 L 166.5 177.359 L 166.5 177.359 Q 166.688 177.438 166.828 177.578 L 166.828 177.578 L 166.828 177.578 Q 166.969 177.719 167.047 177.906 L 167.047 177.906 L 167.047 177.906 Q 167.125 178.094 167.125 178.305 L 167.125 178.305 Z  M 157.953 182.883 L 157.953 183.703 L 165.094 183.703 L 165.094 179.313 L 161.523 179.313 L 161.523 179.313 Q 161.43 179.313 161.129 179.34 L 161.129 179.34 L 161.129 179.34 Q 160.828 179.367 160.434 179.477 L 160.434 179.477 L 160.434 179.477 Q 160.039 179.586 159.602 179.813 L 159.602 179.813 L 159.602 179.813 Q 159.164 180.039 158.797 180.438 L 158.797 180.438 L 158.797 180.438 Q 158.43 180.836 158.191 181.434 L 158.191 181.434 L 158.191 181.434 Q 157.953 182.031 157.953 182.883 L 157.953 182.883 Z  M 180.664 185.633 L 180.664 186.023 L 180.664 186.023 Q 180.664 186.398 180.535 186.828 L 180.535 186.828 L 180.535 186.828 Q 180.406 187.258 180.113 187.625 L 180.113 187.625 L 180.113 187.625 Q 179.82 187.992 179.352 188.238 L 179.352 188.238 L 179.352 188.238 Q 178.883 188.484 178.203 188.484 L 178.203 188.484 L 170.492 188.484 L 170.492 188.484 Q 170.273 188.484 170.086 188.406 L 170.086 188.406 L 170.086 188.406 Q 169.898 188.328 169.762 188.191 L 169.762 188.191 L 169.762 188.191 Q 169.625 188.055 169.547 187.867 L 169.547 187.867 L 169.547 187.867 Q 169.469 187.68 169.469 187.461 L 169.469 187.461 L 169.469 178.305 L 169.469 178.305 Q 169.469 178.094 169.547 177.906 L 169.547 177.906 L 169.547 177.906 Q 169.625 177.719 169.762 177.578 L 169.762 177.578 L 169.762 177.578 Q 169.898 177.438 170.086 177.359 L 170.086 177.359 L 170.086 177.359 Q 170.273 177.281 170.492 177.281 L 170.492 177.281 L 177.289 177.281 L 177.289 177.281 Q 177.664 177.281 178.094 177.414 L 178.094 177.414 L 178.094 177.414 Q 178.523 177.547 178.895 177.84 L 178.895 177.84 L 178.895 177.84 Q 179.266 178.133 179.512 178.602 L 179.512 178.602 L 179.512 178.602 Q 179.758 179.07 179.758 179.75 L 179.758 179.75 L 179.758 180.133 L 179.758 180.133 Q 179.758 180.672 179.578 181.293 L 179.578 181.293 L 179.578 181.293 Q 179.398 181.914 179 182.469 L 179 182.469 L 179 182.469 Q 179.344 182.68 179.645 182.977 L 179.645 182.977 L 179.645 182.977 Q 179.945 183.273 180.172 183.664 L 180.172 183.664 L 180.172 183.664 Q 180.398 184.055 180.531 184.547 L 180.531 184.547 L 180.531 184.547 Q 180.664 185.039 180.664 185.633 L 180.664 185.633 Z  M 178.633 186.008 L 178.633 185.633 L 178.633 185.633 Q 178.633 185.234 178.508 184.918 L 178.508 184.918 L 178.508 184.918 Q 178.383 184.602 178.156 184.375 L 178.156 184.375 L 178.156 184.375 Q 177.93 184.148 177.609 184.027 L 177.609 184.027 L 177.609 184.027 Q 177.289 183.906 176.891 183.906 L 176.891 183.906 L 172.313 183.906 L 172.313 181.859 L 175.977 181.859 L 175.977 181.859 Q 176.375 181.859 176.695 181.738 L 176.695 181.738 L 176.695 181.738 Q 177.016 181.617 177.242 181.391 L 177.242 181.391 L 177.242 181.391 Q 177.469 181.164 177.59 180.848 L 177.59 180.848 L 177.59 180.848 Q 177.711 180.531 177.711 180.133 L 177.711 180.133 L 177.711 179.75 L 177.711 179.75 Q 177.711 179.313 177.289 179.313 L 177.289 179.313 L 171.5 179.313 L 171.5 186.453 L 178.203 186.453 L 178.203 186.453 Q 178.258 186.453 178.336 186.445 L 178.336 186.445 L 178.336 186.445 Q 178.414 186.438 178.477 186.398 L 178.477 186.398 L 178.477 186.398 Q 178.539 186.359 178.586 186.266 L 178.586 186.266 L 178.586 186.266 Q 178.633 186.172 178.633 186.008 L 178.633 186.008 Z  M 192.719 186.453 L 192.719 188.484 L 183.453 188.484 L 183.453 188.484 Q 183.234 188.484 183.047 188.406 L 183.047 188.406 L 183.047 188.406 Q 182.859 188.328 182.723 188.191 L 182.723 188.191 L 182.723 188.191 Q 182.586 188.055 182.508 187.867 L 182.508 187.867 L 182.508 187.867 Q 182.43 187.68 182.43 187.461 L 182.43 187.461 L 182.43 177.281 L 184.461 177.281 L 184.461 186.453 L 192.719 186.453 Z  M 203.375 181.859 L 203.375 183.906 L 196.961 183.906 L 196.961 181.859 L 203.375 181.859 Z  M 204.289 186.453 L 204.289 188.484 L 196.961 188.484 L 196.961 188.484 Q 196.539 188.484 196.039 188.336 L 196.039 188.336 L 196.039 188.336 Q 195.539 188.188 195.113 187.848 L 195.113 187.848 L 195.113 187.848 Q 194.688 187.508 194.402 186.965 L 194.402 186.965 L 194.402 186.965 Q 194.117 186.422 194.117 185.633 L 194.117 185.633 L 194.117 178.305 L 194.117 178.305 Q 194.117 178.094 194.195 177.906 L 194.195 177.906 L 194.195 177.906 Q 194.273 177.719 194.41 177.578 L 194.41 177.578 L 194.41 177.578 Q 194.547 177.438 194.734 177.359 L 194.734 177.359 L 194.734 177.359 Q 194.922 177.281 195.141 177.281 L 195.141 177.281 L 204.289 177.281 L 204.289 179.313 L 196.148 179.313 L 196.148 185.633 L 196.148 185.633 Q 196.148 186.031 196.359 186.242 L 196.359 186.242 L 196.359 186.242 Q 196.57 186.453 196.977 186.453 L 196.977 186.453 L 204.289 186.453 Z  M 181.859 157.906 L 181.859 168.086 L 179.828 168.086 L 179.828 165.336 L 172.688 165.336 L 172.688 168.086 L 170.656 168.086 L 170.656 162.484 L 170.656 162.484 Q 170.656 161.258 171.078 160.227 L 171.078 160.227 L 171.078 160.227 Q 171.5 159.195 172.25 158.453 L 172.25 158.453 L 172.25 158.453 Q 173 157.711 174.023 157.297 L 174.023 157.297 L 174.023 157.297 Q 175.047 156.883 176.258 156.883 L 176.258 156.883 L 180.836 156.883 L 180.836 156.883 Q 181.047 156.883 181.234 156.961 L 181.234 156.961 L 181.234 156.961 Q 181.422 157.039 181.563 157.18 L 181.563 157.18 L 181.563 157.18 Q 181.703 157.32 181.781 157.508 L 181.781 157.508 L 181.781 157.508 Q 181.859 157.695 181.859 157.906 L 181.859 157.906 Z  M 172.688 162.484 L 172.688 163.305 L 179.828 163.305 L 179.828 158.914 L 176.258 158.914 L 176.258 158.914 Q 176.164 158.914 175.863 158.941 L 175.863 158.941 L 175.863 158.941 Q 175.563 158.969 175.168 159.078 L 175.168 159.078 L 175.168 159.078 Q 174.773 159.188 174.336 159.414 L 174.336 159.414 L 174.336 159.414 Q 173.898 159.641 173.531 160.039 L 173.531 160.039 L 173.531 160.039 Q 173.164 160.438 172.926 161.035 L 172.926 161.035 L 172.926 161.035 Q 172.688 161.633 172.688 162.484 L 172.688 162.484 Z  M 195.414 159.352 L 195.414 160.648 L 195.414 160.648 Q 195.414 161.344 195.242 161.891 L 195.242 161.891 L 195.242 161.891 Q 195.07 162.438 194.777 162.855 L 194.777 162.855 L 194.777 162.855 Q 194.484 163.273 194.102 163.57 L 194.102 163.57 L 194.102 163.57 Q 193.719 163.867 193.301 164.059 L 193.301 164.059 L 193.301 164.059 Q 192.883 164.25 192.457 164.336 L 192.457 164.336 L 192.457 164.336 Q 192.031 164.422 191.656 164.422 L 191.656 164.422 L 195.898 168.086 L 192.758 168.086 L 188.523 164.422 L 187.063 164.422 L 187.063 162.391 L 191.656 162.391 L 191.656 162.391 Q 192.039 162.359 192.355 162.23 L 192.355 162.23 L 192.355 162.23 Q 192.672 162.102 192.902 161.883 L 192.902 161.883 L 192.902 161.883 Q 193.133 161.664 193.258 161.355 L 193.258 161.355 L 193.258 161.355 Q 193.383 161.047 193.383 160.648 L 193.383 160.648 L 193.383 159.367 L 193.383 159.367 Q 193.383 159.195 193.34 159.105 L 193.34 159.105 L 193.34 159.105 Q 193.297 159.016 193.23 158.973 L 193.23 158.973 L 193.23 158.973 Q 193.164 158.93 193.09 158.922 L 193.09 158.922 L 193.09 158.922 Q 193.016 158.914 192.953 158.914 L 192.953 158.914 L 186.25 158.914 L 186.25 168.086 L 184.219 168.086 L 184.219 157.906 L 184.219 157.906 Q 184.219 157.695 184.297 157.508 L 184.297 157.508 L 184.297 157.508 Q 184.375 157.32 184.512 157.18 L 184.512 157.18 L 184.512 157.18 Q 184.648 157.039 184.836 156.961 L 184.836 156.961 L 184.836 156.961 Q 185.023 156.883 185.242 156.883 L 185.242 156.883 L 192.953 156.883 L 192.953 156.883 Q 193.633 156.883 194.102 157.129 L 194.102 157.129 L 194.102 157.129 Q 194.57 157.375 194.863 157.746 L 194.863 157.746 L 194.863 157.746 Q 195.156 158.117 195.285 158.547 L 195.285 158.547 L 195.285 158.547 Q 195.414 158.977 195.414 159.352 L 195.414 159.352 Z  M 207.492 156.883 L 207.492 158.914 L 203.016 158.914 L 203.016 168.086 L 200.984 168.086 L 200.984 158.914 L 196.5 158.914 L 196.5 156.883 L 207.492 156.883 Z  M 138.133 165.234 L 138.133 165.625 L 138.133 165.625 Q 138.133 166 138.004 166.43 L 138.004 166.43 L 138.004 166.43 Q 137.875 166.859 137.582 167.227 L 137.582 167.227 L 137.582 167.227 Q 137.289 167.594 136.82 167.84 L 136.82 167.84 L 136.82 167.84 Q 136.352 168.086 135.672 168.086 L 135.672 168.086 L 127.961 168.086 L 127.961 168.086 Q 127.742 168.086 127.555 168.008 L 127.555 168.008 L 127.555 168.008 Q 127.367 167.93 127.23 167.793 L 127.23 167.793 L 127.23 167.793 Q 127.094 167.656 127.016 167.469 L 127.016 167.469 L 127.016 167.469 Q 126.938 167.281 126.938 167.063 L 126.938 167.063 L 126.938 157.906 L 126.938 157.906 Q 126.938 157.695 127.016 157.508 L 127.016 157.508 L 127.016 157.508 Q 127.094 157.32 127.23 157.18 L 127.23 157.18 L 127.23 157.18 Q 127.367 157.039 127.555 156.961 L 127.555 156.961 L 127.555 156.961 Q 127.742 156.883 127.961 156.883 L 127.961 156.883 L 134.758 156.883 L 134.758 156.883 Q 135.133 156.883 135.563 157.016 L 135.563 157.016 L 135.563 157.016 Q 135.992 157.148 136.363 157.441 L 136.363 157.441 L 136.363 157.441 Q 136.734 157.734 136.98 158.203 L 136.98 158.203 L 136.98 158.203 Q 137.227 158.672 137.227 159.352 L 137.227 159.352 L 137.227 159.734 L 137.227 159.734 Q 137.227 160.273 137.047 160.895 L 137.047 160.895 L 137.047 160.895 Q 136.867 161.516 136.469 162.07 L 136.469 162.07 L 136.469 162.07 Q 136.813 162.281 137.113 162.578 L 137.113 162.578 L 137.113 162.578 Q 137.414 162.875 137.641 163.266 L 137.641 163.266 L 137.641 163.266 Q 137.867 163.656 138 164.148 L 138 164.148 L 138 164.148 Q 138.133 164.641 138.133 165.234 L 138.133 165.234 Z  M 136.102 165.609 L 136.102 165.234 L 136.102 165.234 Q 136.102 164.836 135.977 164.52 L 135.977 164.52 L 135.977 164.52 Q 135.852 164.203 135.625 163.977 L 135.625 163.977 L 135.625 163.977 Q 135.398 163.75 135.078 163.629 L 135.078 163.629 L 135.078 163.629 Q 134.758 163.508 134.359 163.508 L 134.359 163.508 L 129.781 163.508 L 129.781 161.461 L 133.445 161.461 L 133.445 161.461 Q 133.844 161.461 134.164 161.34 L 134.164 161.34 L 134.164 161.34 Q 134.484 161.219 134.711 160.992 L 134.711 160.992 L 134.711 160.992 Q 134.938 160.766 135.059 160.449 L 135.059 160.449 L 135.059 160.449 Q 135.18 160.133 135.18 159.734 L 135.18 159.734 L 135.18 159.352 L 135.18 159.352 Q 135.18 158.914 134.758 158.914 L 134.758 158.914 L 128.969 158.914 L 128.969 166.055 L 135.672 166.055 L 135.672 166.055 Q 135.727 166.055 135.805 166.047 L 135.805 166.047 L 135.805 166.047 Q 135.883 166.039 135.945 166 L 135.945 166 L 135.945 166 Q 136.008 165.961 136.055 165.867 L 136.055 165.867 L 136.055 165.867 Q 136.102 165.773 136.102 165.609 L 136.102 165.609 Z  M 151.656 161.414 L 151.656 163.555 L 151.656 163.555 Q 151.656 164.578 151.305 165.438 L 151.305 165.438 L 151.305 165.438 Q 150.953 166.297 150.328 166.922 L 150.328 166.922 L 150.328 166.922 Q 149.703 167.547 148.848 167.895 L 148.848 167.895 L 148.848 167.895 Q 147.992 168.242 146.984 168.242 L 146.984 168.242 L 144.234 168.242 L 144.234 168.242 Q 143.227 168.242 142.367 167.895 L 142.367 167.895 L 142.367 167.895 Q 141.508 167.547 140.883 166.922 L 140.883 166.922 L 140.883 166.922 Q 140.258 166.297 139.902 165.438 L 139.902 165.438 L 139.902 165.438 Q 139.547 164.578 139.547 163.555 L 139.547 163.555 L 139.547 161.414 L 139.547 161.414 Q 139.547 160.398 139.902 159.535 L 139.902 159.535 L 139.902 159.535 Q 140.258 158.672 140.883 158.051 L 140.883 158.051 L 140.883 158.051 Q 141.508 157.43 142.367 157.078 L 142.367 157.078 L 142.367 157.078 Q 143.227 156.727 144.234 156.727 L 144.234 156.727 L 146.984 156.727 L 146.984 156.727 Q 147.992 156.727 148.848 157.078 L 148.848 157.078 L 148.848 157.078 Q 149.703 157.43 150.328 158.051 L 150.328 158.051 L 150.328 158.051 Q 150.953 158.672 151.305 159.535 L 151.305 159.535 L 151.305 159.535 Q 151.656 160.398 151.656 161.414 L 151.656 161.414 Z  M 149.625 163.555 L 149.625 161.414 L 149.625 161.414 Q 149.625 160.813 149.434 160.324 L 149.434 160.324 L 149.434 160.324 Q 149.242 159.836 148.895 159.488 L 148.895 159.488 L 148.895 159.488 Q 148.547 159.141 148.059 158.949 L 148.059 158.949 L 148.059 158.949 Q 147.57 158.758 146.984 158.758 L 146.984 158.758 L 144.234 158.758 L 144.234 158.758 Q 143.641 158.758 143.152 158.949 L 143.152 158.949 L 143.152 158.949 Q 142.664 159.141 142.313 159.488 L 142.313 159.488 L 142.313 159.488 Q 141.961 159.836 141.77 160.324 L 141.77 160.324 L 141.77 160.324 Q 141.578 160.813 141.578 161.414 L 141.578 161.414 L 141.578 163.555 L 141.578 163.555 Q 141.578 164.156 141.77 164.645 L 141.77 164.645 L 141.77 164.645 Q 141.961 165.133 142.313 165.48 L 142.313 165.48 L 142.313 165.48 Q 142.664 165.828 143.152 166.02 L 143.152 166.02 L 143.152 166.02 Q 143.641 166.211 144.234 166.211 L 144.234 166.211 L 146.969 166.211 L 146.969 166.211 Q 147.563 166.211 148.051 166.02 L 148.051 166.02 L 148.051 166.02 Q 148.539 165.828 148.891 165.48 L 148.891 165.48 L 148.891 165.48 Q 149.242 165.133 149.434 164.645 L 149.434 164.645 L 149.434 164.645 Q 149.625 164.156 149.625 163.555 L 149.625 163.555 Z  M 155.063 156.883 L 158.484 160.883 L 161.906 156.883 L 164.68 156.883 L 159.859 162.5 L 164.648 168.086 L 161.891 168.086 L 158.484 164.117 L 155.094 168.086 L 152.328 168.086 L 157.109 162.5 L 152.313 156.883 L 155.063 156.883 Z  M 105.625 156.883 L 105.625 167.219 L 105.625 167.219 Q 105.625 167.438 105.543 167.625 L 105.543 167.625 L 105.543 167.625 Q 105.461 167.813 105.324 167.949 L 105.324 167.949 L 105.324 167.949 Q 105.188 168.086 105 168.164 L 105 168.164 L 105 168.164 Q 104.813 168.242 104.602 168.242 L 104.602 168.242 L 104.602 168.242 Q 104.414 168.242 104.223 168.172 L 104.223 168.172 L 104.223 168.172 Q 104.031 168.102 103.883 167.945 L 103.883 167.945 L 96.461 160.195 L 96.461 168.086 L 94.43 168.086 L 94.43 157.75 L 94.43 157.75 Q 94.43 157.438 94.605 157.184 L 94.605 157.184 L 94.605 157.184 Q 94.781 156.93 95.055 156.805 L 95.055 156.805 L 95.055 156.805 Q 95.344 156.688 95.648 156.746 L 95.648 156.746 L 95.648 156.746 Q 95.953 156.805 96.172 157.031 L 96.172 157.031 L 103.594 164.773 L 103.594 156.883 L 105.625 156.883 Z  M 119.742 161.414 L 119.742 163.555 L 119.742 163.555 Q 119.742 164.578 119.391 165.438 L 119.391 165.438 L 119.391 165.438 Q 119.039 166.297 118.414 166.922 L 118.414 166.922 L 118.414 166.922 Q 117.789 167.547 116.934 167.895 L 116.934 167.895 L 116.934 167.895 Q 116.078 168.242 115.07 168.242 L 115.07 168.242 L 112.32 168.242 L 112.32 168.242 Q 111.313 168.242 110.453 167.895 L 110.453 167.895 L 110.453 167.895 Q 109.594 167.547 108.969 166.922 L 108.969 166.922 L 108.969 166.922 Q 108.344 166.297 107.988 165.438 L 107.988 165.438 L 107.988 165.438 Q 107.633 164.578 107.633 163.555 L 107.633 163.555 L 107.633 161.414 L 107.633 161.414 Q 107.633 160.398 107.988 159.535 L 107.988 159.535 L 107.988 159.535 Q 108.344 158.672 108.969 158.051 L 108.969 158.051 L 108.969 158.051 Q 109.594 157.43 110.453 157.078 L 110.453 157.078 L 110.453 157.078 Q 111.313 156.727 112.32 156.727 L 112.32 156.727 L 115.07 156.727 L 115.07 156.727 Q 116.078 156.727 116.934 157.078 L 116.934 157.078 L 116.934 157.078 Q 117.789 157.43 118.414 158.051 L 118.414 158.051 L 118.414 158.051 Q 119.039 158.672 119.391 159.535 L 119.391 159.535 L 119.391 159.535 Q 119.742 160.398 119.742 161.414 L 119.742 161.414 Z  M 117.711 163.555 L 117.711 161.414 L 117.711 161.414 Q 117.711 160.813 117.52 160.324 L 117.52 160.324 L 117.52 160.324 Q 117.328 159.836 116.98 159.488 L 116.98 159.488 L 116.98 159.488 Q 116.633 159.141 116.145 158.949 L 116.145 158.949 L 116.145 158.949 Q 115.656 158.758 115.07 158.758 L 115.07 158.758 L 112.32 158.758 L 112.32 158.758 Q 111.727 158.758 111.238 158.949 L 111.238 158.949 L 111.238 158.949 Q 110.75 159.141 110.398 159.488 L 110.398 159.488 L 110.398 159.488 Q 110.047 159.836 109.855 160.324 L 109.855 160.324 L 109.855 160.324 Q 109.664 160.813 109.664 161.414 L 109.664 161.414 L 109.664 163.555 L 109.664 163.555 Q 109.664 164.156 109.855 164.645 L 109.855 164.645 L 109.855 164.645 Q 110.047 165.133 110.398 165.48 L 110.398 165.48 L 110.398 165.48 Q 110.75 165.828 111.238 166.02 L 111.238 166.02 L 111.238 166.02 Q 111.727 166.211 112.32 166.211 L 112.32 166.211 L 115.055 166.211 L 115.055 166.211 Q 115.648 166.211 116.137 166.02 L 116.137 166.02 L 116.137 166.02 Q 116.625 165.828 116.977 165.48 L 116.977 165.48 L 116.977 165.48 Q 117.328 165.133 117.52 164.645 L 117.52 164.645 L 117.52 164.645 Q 117.711 164.156 117.711 163.555 L 117.711 163.555 Z " fill="rgb(255,255,255)"/><path d=" M 315.041 110.609 L 315.041 108.031 L 328.166 110.375 L 328.166 110.375 Q 328.557 110.453 328.84 110.727 L 328.84 110.727 L 328.84 110.727 Q 329.123 111 329.201 111.391 L 329.201 111.391 L 329.201 111.391 Q 329.27 111.791 329.113 112.147 L 329.113 112.147 L 329.113 112.147 Q 328.957 112.504 328.625 112.709 L 328.625 112.709 L 320.988 117.357 L 328.625 122.016 L 328.625 122.016 Q 328.908 122.182 329.064 122.47 L 329.064 122.47 L 329.064 122.47 Q 329.221 122.758 329.221 123.09 L 329.221 123.09 L 329.221 123.09 Q 329.221 123.549 328.928 123.9 L 328.928 123.9 L 328.928 123.9 Q 328.635 124.252 328.166 124.33 L 328.166 124.33 L 315.041 126.693 L 315.041 124.115 L 324.289 122.436 L 317.902 118.432 L 317.902 118.432 Q 317.619 118.266 317.463 117.978 L 317.463 117.978 L 317.463 117.978 Q 317.307 117.689 317.307 117.357 L 317.307 117.357 L 317.307 117.357 Q 317.307 117.025 317.463 116.742 L 317.463 116.742 L 317.463 116.742 Q 317.619 116.459 317.902 116.273 L 317.902 116.273 L 324.289 112.289 L 315.041 110.609 Z  M 320.705 91.273 L 323.381 91.273 L 323.381 91.273 Q 324.66 91.273 325.734 91.713 L 325.734 91.713 L 325.734 91.713 Q 326.809 92.152 327.59 92.934 L 327.59 92.934 L 327.59 92.934 Q 328.371 93.715 328.806 94.784 L 328.806 94.784 L 328.806 94.784 Q 329.24 95.854 329.24 97.113 L 329.24 97.113 L 329.24 100.551 L 329.24 100.551 Q 329.24 101.811 328.806 102.885 L 328.806 102.885 L 328.806 102.885 Q 328.371 103.959 327.59 104.74 L 327.59 104.74 L 327.59 104.74 Q 326.809 105.521 325.734 105.966 L 325.734 105.966 L 325.734 105.966 Q 324.66 106.41 323.381 106.41 L 323.381 106.41 L 320.705 106.41 L 320.705 106.41 Q 319.436 106.41 318.356 105.966 L 318.356 105.966 L 318.356 105.966 Q 317.277 105.521 316.501 104.74 L 316.501 104.74 L 316.501 104.74 Q 315.725 103.959 315.285 102.885 L 315.285 102.885 L 315.285 102.885 Q 314.846 101.811 314.846 100.551 L 314.846 100.551 L 314.846 97.113 L 314.846 97.113 Q 314.846 95.854 315.285 94.784 L 315.285 94.784 L 315.285 94.784 Q 315.725 93.715 316.501 92.934 L 316.501 92.934 L 316.501 92.934 Q 317.277 92.152 318.356 91.713 L 318.356 91.713 L 318.356 91.713 Q 319.436 91.273 320.705 91.273 L 320.705 91.273 Z  M 323.381 93.813 L 320.705 93.813 L 320.705 93.813 Q 319.953 93.813 319.343 94.052 L 319.343 94.052 L 319.343 94.052 Q 318.732 94.291 318.298 94.726 L 318.298 94.726 L 318.298 94.726 Q 317.863 95.16 317.624 95.771 L 317.624 95.771 L 317.624 95.771 Q 317.385 96.381 317.385 97.113 L 317.385 97.113 L 317.385 100.551 L 317.385 100.551 Q 317.385 101.293 317.624 101.903 L 317.624 101.903 L 317.624 101.903 Q 317.863 102.514 318.298 102.953 L 318.298 102.953 L 318.298 102.953 Q 318.732 103.393 319.343 103.632 L 319.343 103.632 L 319.343 103.632 Q 319.953 103.871 320.705 103.871 L 320.705 103.871 L 323.381 103.871 L 323.381 103.871 Q 324.133 103.871 324.743 103.632 L 324.743 103.632 L 324.743 103.632 Q 325.354 103.393 325.788 102.953 L 325.788 102.953 L 325.788 102.953 Q 326.223 102.514 326.462 101.903 L 326.462 101.903 L 326.462 101.903 Q 326.701 101.293 326.701 100.551 L 326.701 100.551 L 326.701 97.133 L 326.701 97.133 Q 326.701 96.391 326.462 95.78 L 326.462 95.78 L 326.462 95.78 Q 326.223 95.17 325.788 94.73 L 325.788 94.73 L 325.788 94.73 Q 325.354 94.291 324.743 94.052 L 324.743 94.052 L 324.743 94.052 Q 324.133 93.813 323.381 93.813 L 323.381 93.813 Z  M 318.127 74.77 L 319.748 74.77 L 319.748 74.77 Q 320.617 74.77 321.301 74.984 L 321.301 74.984 L 321.301 74.984 Q 321.984 75.199 322.507 75.565 L 322.507 75.565 L 322.507 75.565 Q 323.029 75.932 323.4 76.41 L 323.4 76.41 L 323.4 76.41 Q 323.771 76.889 324.011 77.411 L 324.011 77.411 L 324.011 77.411 Q 324.25 77.934 324.357 78.466 L 324.357 78.466 L 324.357 78.466 Q 324.465 78.998 324.465 79.467 L 324.465 79.467 L 329.045 74.164 L 329.045 78.09 L 324.465 83.383 L 324.465 85.209 L 321.926 85.209 L 321.926 79.467 L 321.926 79.467 Q 321.887 78.988 321.726 78.593 L 321.726 78.593 L 321.726 78.593 Q 321.564 78.197 321.291 77.909 L 321.291 77.909 L 321.291 77.909 Q 321.018 77.621 320.632 77.465 L 320.632 77.465 L 320.632 77.465 Q 320.246 77.309 319.748 77.309 L 319.748 77.309 L 318.146 77.309 L 318.146 77.309 Q 317.932 77.309 317.819 77.362 L 317.819 77.362 L 317.819 77.362 Q 317.707 77.416 317.653 77.499 L 317.653 77.499 L 317.653 77.499 Q 317.6 77.582 317.59 77.675 L 317.59 77.675 L 317.59 77.675 Q 317.58 77.768 317.58 77.846 L 317.58 77.846 L 317.58 86.225 L 329.045 86.225 L 329.045 88.764 L 316.32 88.764 L 316.32 88.764 Q 316.057 88.764 315.822 88.666 L 315.822 88.666 L 315.822 88.666 Q 315.588 88.568 315.412 88.397 L 315.412 88.397 L 315.412 88.397 Q 315.236 88.227 315.139 87.992 L 315.139 87.992 L 315.139 87.992 Q 315.041 87.758 315.041 87.484 L 315.041 87.484 L 315.041 77.846 L 315.041 77.846 Q 315.041 76.996 315.349 76.41 L 315.349 76.41 L 315.349 76.41 Q 315.656 75.824 316.12 75.458 L 316.12 75.458 L 316.12 75.458 Q 316.584 75.092 317.121 74.931 L 317.121 74.931 L 317.121 74.931 Q 317.658 74.77 318.127 74.77 L 318.127 74.77 Z  M 322.043 64.74 L 329.045 57.543 L 329.045 61.146 L 323.322 66.859 L 323.322 68.646 L 320.764 68.646 L 320.764 66.859 L 315.041 61.146 L 315.041 57.543 L 322.043 64.74 Z  M 315.041 69.662 L 329.045 69.662 L 329.045 72.201 L 315.041 72.201 L 315.041 69.662 Z  M 315.041 152.572 L 327.961 152.572 L 327.961 152.572 Q 328.234 152.572 328.469 152.675 L 328.469 152.675 L 328.469 152.675 Q 328.703 152.777 328.874 152.948 L 328.874 152.948 L 328.874 152.948 Q 329.045 153.119 329.143 153.354 L 329.143 153.354 L 329.143 153.354 Q 329.24 153.588 329.24 153.852 L 329.24 153.852 L 329.24 153.852 Q 329.24 154.086 329.152 154.325 L 329.152 154.325 L 329.152 154.325 Q 329.064 154.564 328.869 154.75 L 328.869 154.75 L 319.182 164.027 L 329.045 164.027 L 329.045 166.566 L 316.125 166.566 L 316.125 166.566 Q 315.734 166.566 315.417 166.347 L 315.417 166.347 L 315.417 166.347 Q 315.1 166.127 314.943 165.785 L 314.943 165.785 L 314.943 165.785 Q 314.797 165.424 314.87 165.043 L 314.87 165.043 L 314.87 165.043 Q 314.943 164.662 315.227 164.389 L 315.227 164.389 L 324.904 155.111 L 315.041 155.111 L 315.041 152.572 Z  M 320.705 134.926 L 323.381 134.926 L 323.381 134.926 Q 324.66 134.926 325.734 135.365 L 325.734 135.365 L 325.734 135.365 Q 326.809 135.805 327.59 136.586 L 327.59 136.586 L 327.59 136.586 Q 328.371 137.367 328.806 138.437 L 328.806 138.437 L 328.806 138.437 Q 329.24 139.506 329.24 140.766 L 329.24 140.766 L 329.24 144.203 L 329.24 144.203 Q 329.24 145.463 328.806 146.537 L 328.806 146.537 L 328.806 146.537 Q 328.371 147.611 327.59 148.393 L 327.59 148.393 L 327.59 148.393 Q 326.809 149.174 325.734 149.618 L 325.734 149.618 L 325.734 149.618 Q 324.66 150.063 323.381 150.063 L 323.381 150.063 L 320.705 150.063 L 320.705 150.063 Q 319.436 150.063 318.356 149.618 L 318.356 149.618 L 318.356 149.618 Q 317.277 149.174 316.501 148.393 L 316.501 148.393 L 316.501 148.393 Q 315.725 147.611 315.285 146.537 L 315.285 146.537 L 315.285 146.537 Q 314.846 145.463 314.846 144.203 L 314.846 144.203 L 314.846 140.766 L 314.846 140.766 Q 314.846 139.506 315.285 138.437 L 315.285 138.437 L 315.285 138.437 Q 315.725 137.367 316.501 136.586 L 316.501 136.586 L 316.501 136.586 Q 317.277 135.805 318.356 135.365 L 318.356 135.365 L 318.356 135.365 Q 319.436 134.926 320.705 134.926 L 320.705 134.926 Z  M 323.381 137.465 L 320.705 137.465 L 320.705 137.465 Q 319.953 137.465 319.343 137.704 L 319.343 137.704 L 319.343 137.704 Q 318.732 137.943 318.298 138.378 L 318.298 138.378 L 318.298 138.378 Q 317.863 138.813 317.624 139.423 L 317.624 139.423 L 317.624 139.423 Q 317.385 140.033 317.385 140.766 L 317.385 140.766 L 317.385 144.203 L 317.385 144.203 Q 317.385 144.945 317.624 145.556 L 317.624 145.556 L 317.624 145.556 Q 317.863 146.166 318.298 146.605 L 318.298 146.605 L 318.298 146.605 Q 318.732 147.045 319.343 147.284 L 319.343 147.284 L 319.343 147.284 Q 319.953 147.523 320.705 147.523 L 320.705 147.523 L 323.381 147.523 L 323.381 147.523 Q 324.133 147.523 324.743 147.284 L 324.743 147.284 L 324.743 147.284 Q 325.354 147.045 325.788 146.605 L 325.788 146.605 L 325.788 146.605 Q 326.223 146.166 326.462 145.556 L 326.462 145.556 L 326.462 145.556 Q 326.701 144.945 326.701 144.203 L 326.701 144.203 L 326.701 140.785 L 326.701 140.785 Q 326.701 140.043 326.462 139.433 L 326.462 139.433 L 326.462 139.433 Q 326.223 138.822 325.788 138.383 L 325.788 138.383 L 325.788 138.383 Q 325.354 137.943 324.743 137.704 L 324.743 137.704 L 324.743 137.704 Q 324.133 137.465 323.381 137.465 L 323.381 137.465 Z  M 320.9 175.678 L 323.186 175.678 L 323.186 184.838 L 320.9 184.838 L 320.9 175.678 Z  M 320.764 227.797 L 323.322 227.797 L 323.322 235.824 L 320.764 235.824 L 320.764 227.797 Z  M 315.041 226.664 L 317.58 226.664 L 317.58 236.84 L 329.045 236.84 L 329.045 239.379 L 316.32 239.379 L 316.32 239.379 Q 316.057 239.379 315.822 239.281 L 315.822 239.281 L 315.822 239.281 Q 315.588 239.184 315.412 239.013 L 315.412 239.013 L 315.412 239.013 Q 315.236 238.842 315.139 238.607 L 315.139 238.607 L 315.139 238.607 Q 315.041 238.373 315.041 238.1 L 315.041 238.1 L 315.041 226.664 Z  M 315.041 210.893 L 327.766 210.893 L 327.766 210.893 Q 328.039 210.893 328.273 210.99 L 328.273 210.99 L 328.273 210.99 Q 328.508 211.088 328.679 211.264 L 328.679 211.264 L 328.679 211.264 Q 328.85 211.439 328.947 211.674 L 328.947 211.674 L 328.947 211.674 Q 329.045 211.908 329.045 212.172 L 329.045 212.172 L 329.045 217.895 L 329.045 217.895 Q 329.045 218.705 328.869 219.535 L 328.869 219.535 L 328.869 219.535 Q 328.693 220.365 328.327 221.142 L 328.327 221.142 L 328.327 221.142 Q 327.961 221.918 327.395 222.602 L 327.395 222.602 L 327.395 222.602 Q 326.828 223.285 326.052 223.798 L 326.052 223.798 L 326.052 223.798 Q 325.275 224.311 324.274 224.604 L 324.274 224.604 L 324.274 224.604 Q 323.273 224.896 322.043 224.896 L 322.043 224.896 L 315.041 224.896 L 315.041 222.357 L 322.043 222.357 L 322.043 222.357 Q 323.117 222.357 323.859 222.06 L 323.859 222.06 L 323.859 222.06 Q 324.602 221.762 325.1 221.303 L 325.1 221.303 L 325.1 221.303 Q 325.598 220.844 325.881 220.297 L 325.881 220.297 L 325.881 220.297 Q 326.164 219.75 326.301 219.257 L 326.301 219.257 L 326.301 219.257 Q 326.438 218.764 326.472 218.388 L 326.472 218.388 L 326.472 218.388 Q 326.506 218.012 326.506 217.895 L 326.506 217.895 L 326.506 213.432 L 315.041 213.432 L 315.041 210.893 Z  M 315.041 193.949 L 327.961 193.949 L 327.961 193.949 Q 328.234 193.949 328.469 194.052 L 328.469 194.052 L 328.469 194.052 Q 328.703 194.154 328.874 194.325 L 328.874 194.325 L 328.874 194.325 Q 329.045 194.496 329.143 194.73 L 329.143 194.73 L 329.143 194.73 Q 329.24 194.965 329.24 195.229 L 329.24 195.229 L 329.24 195.229 Q 329.24 195.463 329.152 195.702 L 329.152 195.702 L 329.152 195.702 Q 329.064 195.941 328.869 196.127 L 328.869 196.127 L 319.182 205.404 L 329.045 205.404 L 329.045 207.943 L 316.125 207.943 L 316.125 207.943 Q 315.734 207.943 315.417 207.724 L 315.417 207.724 L 315.417 207.724 Q 315.1 207.504 314.943 207.162 L 314.943 207.162 L 314.943 207.162 Q 314.797 206.801 314.87 206.42 L 314.87 206.42 L 314.87 206.42 Q 314.943 206.039 315.227 205.766 L 315.227 205.766 L 324.904 196.488 L 315.041 196.488 L 315.041 193.949 Z  M 316.32 278.285 L 329.045 278.285 L 329.045 280.824 L 325.607 280.824 L 325.607 289.75 L 329.045 289.75 L 329.045 292.289 L 322.043 292.289 L 322.043 292.289 Q 320.51 292.289 319.221 291.762 L 319.221 291.762 L 319.221 291.762 Q 317.932 291.234 317.004 290.297 L 317.004 290.297 L 317.004 290.297 Q 316.076 289.359 315.559 288.08 L 315.559 288.08 L 315.559 288.08 Q 315.041 286.801 315.041 285.287 L 315.041 285.287 L 315.041 279.564 L 315.041 279.564 Q 315.041 279.301 315.139 279.066 L 315.139 279.066 L 315.139 279.066 Q 315.236 278.832 315.412 278.656 L 315.412 278.656 L 315.412 278.656 Q 315.588 278.48 315.822 278.383 L 315.822 278.383 L 315.822 278.383 Q 316.057 278.285 316.32 278.285 L 316.32 278.285 Z  M 322.043 289.75 L 323.068 289.75 L 323.068 280.824 L 317.58 280.824 L 317.58 285.287 L 317.58 285.287 Q 317.58 285.404 317.614 285.78 L 317.614 285.78 L 317.614 285.78 Q 317.648 286.156 317.785 286.649 L 317.785 286.649 L 317.785 286.649 Q 317.922 287.143 318.205 287.689 L 318.205 287.689 L 318.205 287.689 Q 318.488 288.236 318.986 288.695 L 318.986 288.695 L 318.986 288.695 Q 319.484 289.154 320.231 289.452 L 320.231 289.452 L 320.231 289.452 Q 320.979 289.75 322.043 289.75 L 322.043 289.75 Z  M 326.506 262.475 L 329.045 262.475 L 329.045 274.057 L 329.045 274.057 Q 329.045 274.33 328.947 274.564 L 328.947 274.564 L 328.947 274.564 Q 328.85 274.799 328.679 274.97 L 328.679 274.97 L 328.679 274.97 Q 328.508 275.141 328.273 275.238 L 328.273 275.238 L 328.273 275.238 Q 328.039 275.336 327.766 275.336 L 327.766 275.336 L 315.041 275.336 L 315.041 272.797 L 326.506 272.797 L 326.506 262.475 Z  M 326.506 247.748 L 329.045 247.748 L 329.045 259.33 L 329.045 259.33 Q 329.045 259.604 328.947 259.838 L 328.947 259.838 L 328.947 259.838 Q 328.85 260.072 328.679 260.243 L 328.679 260.243 L 328.679 260.243 Q 328.508 260.414 328.273 260.512 L 328.273 260.512 L 328.273 260.512 Q 328.039 260.609 327.766 260.609 L 327.766 260.609 L 315.041 260.609 L 315.041 258.07 L 326.506 258.07 L 326.506 247.748 Z " fill="rgb(0,0,0)"/><circle vector-effect="non-scaling-stroke" cx="96.1875" cy="104.625" r="2.3125" fill="rgb(5,3,2)"/><circle vector-effect="non-scaling-stroke" cx="113.75" cy="104.81249999999999" r="2.3125" fill="rgb(5,3,2)"/><circle vector-effect="non-scaling-stroke" cx="116" cy="114.74999999999999" r="2.3125" fill="rgb(5,3,2)"/><circle vector-effect="non-scaling-stroke" cx="100.5625" cy="114.99999999999999" r="2.3125" fill="rgb(5,3,2)"/><path d=" M 93.979 109.191 C 94.195 104.916 100.038 101.731 107.02 102.082 C 114.002 102.434 119.496 106.19 119.281 110.465 C 119.066 114.74 113.222 117.925 106.24 117.574 C 99.258 117.222 93.764 113.466 93.979 109.191 Z " fill="rgb(15,30,29)"/><path d=" M 95.805 109.283 C 95.986 105.692 100.983 103.02 106.958 103.321 C 112.932 103.622 117.636 106.782 117.455 110.373 C 117.274 113.965 112.277 116.636 106.302 116.336 C 100.328 116.035 95.624 112.875 95.805 109.283 Z " fill="rgb(5,3,2)"/><path d=" M 101.44 109.567 C 101.549 107.409 103.963 105.775 106.827 105.919 C 109.691 106.063 111.928 107.932 111.82 110.089 C 111.711 112.247 109.298 113.881 106.433 113.737 C 103.569 113.593 101.332 111.724 101.44 109.567 Z " fill="rgb(15,30,29)"/><path d=" M 104.206 109.706 C 104.257 108.698 105.384 107.935 106.722 108.002 C 108.06 108.07 109.105 108.942 109.054 109.95 C 109.003 110.958 107.876 111.721 106.538 111.654 C 105.2 111.587 104.155 110.714 104.206 109.706 Z " fill="rgb(5,3,2)"/><circle vector-effect="non-scaling-stroke" cx="208.8729030213102" cy="104.625" r="2.3125" fill="rgb(5,3,2)"/><circle vector-effect="non-scaling-stroke" cx="191.31040302131018" cy="104.81249999999999" r="2.3125" fill="rgb(5,3,2)"/><circle vector-effect="non-scaling-stroke" cx="189.0604030213102" cy="114.74999999999999" r="2.3125" fill="rgb(5,3,2)"/><circle vector-effect="non-scaling-stroke" cx="204.4979030213102" cy="115.00000000000001" r="2.3125" fill="rgb(5,3,2)"/><path d=" M 211.081 109.191 C 210.866 104.916 205.022 101.731 198.04 102.082 C 191.058 102.434 185.564 106.19 185.78 110.465 C 185.995 114.74 191.838 117.925 198.82 117.574 C 205.802 117.222 211.296 113.466 211.081 109.191 Z " fill="rgb(15,30,29)"/><path d=" M 209.255 109.283 C 209.074 105.692 204.077 103.02 198.103 103.321 C 192.128 103.622 187.425 106.782 187.605 110.373 C 187.786 113.965 192.783 116.636 198.758 116.336 C 204.732 116.035 209.436 112.875 209.255 109.283 Z " fill="rgb(5,3,2)"/><path d=" M 203.62 109.567 C 203.511 107.409 201.098 105.775 198.233 105.919 C 195.369 106.063 193.132 107.932 193.241 110.089 C 193.349 112.247 195.763 113.881 198.627 113.737 C 201.491 113.593 203.729 111.724 203.62 109.567 Z " fill="rgb(15,30,29)"/><path d=" M 200.854 109.706 C 200.803 108.698 199.676 107.935 198.338 108.002 C 197.001 108.07 195.956 108.942 196.006 109.95 C 196.057 110.958 197.184 111.721 198.522 111.654 C 199.86 111.587 200.905 110.714 200.854 109.706 Z " fill="rgb(5,3,2)"/><path d=" M 164.054 247.47 C 163.589 245.063 165.667 242.634 168.691 242.051 C 171.714 241.467 174.547 242.948 175.011 245.355 C 175.476 247.763 173.398 250.191 170.374 250.775 C 167.351 251.359 164.518 249.878 164.054 247.47 Z " fill="rgb(11,11,11)"/><linearGradient id="_lgradient_0" x1="0.1464466094067262" y1="0.8535533905932737" x2="0.8535533905932737" y2="0.14644660940672627" gradientTransform="matrix(10.816,-2.088,1.523,7.89,163.353,243.081)" gradientUnits="userSpaceOnUse"><stop offset="0%" stop-opacity="1" style="stop-color:rgb(0,0,0)"/><stop offset="0%" stop-opacity="1" style="stop-color:rgb(34,70,122)"/><stop offset="100%" stop-opacity="1" style="stop-color:rgb(117,169,220)"/></linearGradient><path d=" M 164.115 247.026 C 163.695 244.849 165.777 242.613 168.761 242.037 C 171.746 241.461 174.511 242.761 174.931 244.938 C 175.351 247.116 173.269 249.351 170.284 249.927 C 167.3 250.503 164.535 249.203 164.115 247.026 Z " fill="url(#_lgradient_0)"/><path d=" M 89.818 248.71 C 89.353 246.303 91.431 243.874 94.455 243.291 C 97.479 242.707 100.311 244.188 100.776 246.595 C 101.24 249.003 99.163 251.431 96.139 252.015 C 93.115 252.599 90.283 251.118 89.818 248.71 Z " fill="rgb(11,11,11)"/><linearGradient id="_lgradient_1" x1="0.1464466094067262" y1="0.8535533905932737" x2="0.8535533905932737" y2="0.14644660940672627" gradientTransform="matrix(10.816,-2.088,1.523,7.89,89.118,244.321)" gradientUnits="userSpaceOnUse"><stop offset="0%" stop-opacity="1" style="stop-color:rgb(0,0,0)"/><stop offset="0%" stop-opacity="1" style="stop-color:rgb(34,70,122)"/><stop offset="100%" stop-opacity="1" style="stop-color:rgb(117,169,220)"/></linearGradient><path d=" M 89.879 248.266 C 89.459 246.089 91.541 243.853 94.526 243.277 C 97.511 242.701 100.275 244.001 100.695 246.178 C 101.115 248.356 99.033 250.591 96.049 251.167 C 93.064 251.743 90.299 250.443 89.879 248.266 Z " fill="url(#_lgradient_1)"/><rect x="168.25" y="234.23" width="2.938" height="10.977" transform="matrix(1,0,0,1,0,0)" fill="rgb(228,219,216)"/><circle vector-effect="non-scaling-stroke" cx="169.70312499999997" cy="245.20703124999997" r="1.453125" fill="rgb(228,219,216)"/><rect x="93.875" y="235.727" width="2.938" height="10.977" transform="matrix(1,0,0,1,0,0)" fill="rgb(228,219,216)"/><circle vector-effect="non-scaling-stroke" cx="95.32812499999997" cy="246.70312499999986" r="1.453125" fill="rgb(228,219,216)"/><radialGradient id="_rgradient_0" fx="0.49113895892036474" fy="0.45779220779220253" cx="0.5" cy="0.5" r="0.5" gradientTransform="matrix(6.529,-0.216,0.753,6.461,90.605,228.283)" gradientUnits="userSpaceOnUse"><stop offset="0%" stop-opacity="1" style="stop-color:rgb(252,207,180)"/><stop offset="100%" stop-opacity="1" style="stop-color:rgb(151,0,0)"/></radialGradient><circle vector-effect="non-scaling-stroke" cx="95.29687499999999" cy="234.23437499999997" r="5.109375" fill="url(#_rgradient_0)"/><radialGradient id="_rgradient_1" fx="0.49113895892036474" fy="0.45779220779220253" cx="0.5" cy="0.5" r="0.5" gradientTransform="matrix(6.529,-0.216,0.753,6.461,165.417,226.689)" gradientUnits="userSpaceOnUse"><stop offset="0%" stop-opacity="1" style="stop-color:rgb(252,207,180)"/><stop offset="100%" stop-opacity="1" style="stop-color:rgb(151,0,0)"/></radialGradient><circle vector-effect="non-scaling-stroke" cx="170.109375" cy="232.64062499999997" r="5.109375" fill="url(#_rgradient_1)"/><ellipse vector-effect="non-scaling-stroke" cx="122.81159855769234" cy="239.94140625000006" rx="4.475661057692321" ry="3.69140625" fill="rgb(11,11,11)"/><ellipse vector-effect="non-scaling-stroke" cx="122.76562500000001" cy="239.44921875000003" rx="3.9375" ry="3.19921875" fill="rgb(3,215,14)"/><ellipse vector-effect="non-scaling-stroke" cx="134.90534855769232" cy="239.44921875" rx="4.475661057692321" ry="3.69140625" fill="rgb(11,11,11)"/><ellipse vector-effect="non-scaling-stroke" cx="134.859375" cy="238.95703125" rx="3.9375" ry="3.19921875" fill="rgb(1,235,251)"/><ellipse vector-effect="non-scaling-stroke" cx="125.20222355769232" cy="248.89843749999997" rx="4.475661057692314" ry="3.69140625" fill="rgb(11,11,11)"/><ellipse vector-effect="non-scaling-stroke" cx="125.15625000000003" cy="248.40624999999997" rx="3.937500000000007" ry="3.19921875" fill="rgb(252,254,247)"/><ellipse vector-effect="non-scaling-stroke" cx="137.78816105769232" cy="248.51953125000003" rx="4.475661057692321" ry="3.69140625" fill="rgb(11,11,11)"/><ellipse vector-effect="non-scaling-stroke" cx="137.7421875" cy="248.02734375000003" rx="3.9375" ry="3.19921875" fill="rgb(254,55,254)"/><ellipse vector-effect="non-scaling-stroke" cx="110.78816105769234" cy="243.73828125000003" rx="4.475661057692321" ry="3.69140625" fill="rgb(11,11,11)"/><ellipse vector-effect="non-scaling-stroke" cx="110.74218750000001" cy="243.24609375000003" rx="3.9375" ry="3.19921875" fill="rgb(168,20,4)"/><ellipse vector-effect="non-scaling-stroke" cx="113.03816105769234" cy="253.08984375000006" rx="4.475661057692321" ry="3.691406250000014" fill="rgb(11,11,11)"/><ellipse vector-effect="non-scaling-stroke" cx="112.99218750000001" cy="252.59765625000003" rx="3.9375" ry="3.19921875" fill="rgb(245,246,31)"/><ellipse vector-effect="non-scaling-stroke" cx="194.91706730769232" cy="239.4140625" rx="4.475661057692321" ry="3.69140625" fill="rgb(11,11,11)"/><ellipse vector-effect="non-scaling-stroke" cx="194.87109375" cy="238.921875" rx="3.9375" ry="3.19921875" fill="rgb(3,215,14)"/><ellipse vector-effect="non-scaling-stroke" cx="206.76472355769232" cy="239.20312499999997" rx="4.475661057692321" ry="3.69140625" fill="rgb(11,11,11)"/><ellipse vector-effect="non-scaling-stroke" cx="206.71875" cy="238.71093750000003" rx="3.9375" ry="3.19921875" fill="rgb(1,235,251)"/><ellipse vector-effect="non-scaling-stroke" cx="200.61237980769232" cy="249.10937499999991" rx="4.475661057692321" ry="3.69140625" fill="rgb(11,11,11)"/><ellipse vector-effect="non-scaling-stroke" cx="200.56640625000003" cy="248.61718749999997" rx="3.9375" ry="3.19921875" fill="rgb(252,254,247)"/><ellipse vector-effect="non-scaling-stroke" cx="213.19831730769232" cy="248.34374999999997" rx="4.475661057692321" ry="3.69140625" fill="rgb(11,11,11)"/><ellipse vector-effect="non-scaling-stroke" cx="213.15234375000003" cy="247.85156250000003" rx="3.9375" ry="3.19921875" fill="rgb(254,55,254)"/><ellipse vector-effect="non-scaling-stroke" cx="184.40534855769232" cy="243.52734375000006" rx="4.475661057692321" ry="3.69140625" fill="rgb(11,11,11)"/><ellipse vector-effect="non-scaling-stroke" cx="184.359375" cy="243.03515625000006" rx="3.9375" ry="3.19921875" fill="rgb(168,20,4)"/><ellipse vector-effect="non-scaling-stroke" cx="189.57331730769232" cy="252.7031250000001" rx="4.475661057692321" ry="3.691406250000014" fill="rgb(11,11,11)"/><ellipse vector-effect="non-scaling-stroke" cx="189.52734375" cy="252.21093750000003" rx="3.9375" ry="3.19921875" fill="rgb(245,246,31)"/><path d=" M 193 72.375 L 193 78.469 L 207.438 78.469 L 207.438 72.375 L 193 72.375 Z " fill="rgb(244,19,191)"/><path d=" M 207.438 72.375 L 207.438 78.469 L 193 78.469 L 193 72.375 L 207.438 72.375 Z  M 208.44 71.38 L 208.44 79.47 L 192 79.47 L 192 71.38 L 208.44 71.38 Z " fill-rule="evenodd" fill="rgb(9,0,77)"/><path d=" M 72.703 74.109 Q 73.055 66.469 69.914 66.516 Q 66.773 66.563 67.43 74.109 Q 68.602 82.266 68.977 91.172 C 69.355 100.164 68.039 107.953 73.852 113.766 Q 79.664 119.578 79.477 128.203 Q 78.539 227.016 77.414 229.078 Q 76.289 231.141 66.914 258.328 Q 62.789 265.828 65.789 273.891 Q 68.789 281.953 70.289 284.391 Q 70.852 288.328 73.102 287.203 Q 75.352 286.078 72.352 278.766 L 69.539 267.141 Q 68.978 264.426 71.438 259.031 Q 74.227 252.914 82.102 233.016 Q 83.039 230.203 83.039 222.703 Q 83.039 215.203 84.727 129.328 Q 85.008 117.633 78.164 110.016 C 73.189 104.479 73.688 99.703 73.336 93.938 Q 72.984 88.172 72.703 74.109 Z " fill="rgb(238,238,239)"/><path d=" M 231.271 72.969 Q 230.92 65.328 234.06 65.375 Q 237.201 65.422 236.545 72.969 Q 235.373 81.125 234.998 90.031 C 234.619 99.023 235.935 106.813 230.123 112.625 Q 224.31 118.438 224.498 127.063 Q 225.435 225.875 226.56 227.938 Q 227.685 230 237.06 257.188 Q 241.185 264.688 238.185 272.75 Q 235.185 280.813 233.685 283.25 Q 233.123 287.188 230.873 286.063 Q 228.623 284.938 231.623 277.625 L 234.435 266 Q 234.997 263.286 232.537 257.891 Q 229.748 251.773 221.873 231.875 Q 220.935 229.063 220.935 221.563 Q 220.935 214.063 219.248 128.188 Q 218.967 116.492 225.81 108.875 C 230.785 103.338 230.287 98.563 230.639 92.797 Q 230.99 87.031 231.271 72.969 Z " fill="rgb(238,238,239)"/><g style="isolation:isolate"><path d=" M 159.125 93.75 L 163.5 93.75 L 163.5 87.563 Q 163.75 86.563 165 86.563 Q 166.25 86.563 167.73 86.563 Q 169 86.5 169 88.563 Q 169 90.625 169 93.75 L 173.25 93.75 L 173.25 77 Q 172.438 72.563 169 72.563 Q 166.781 72.563 163.5 72.563 Q 159.125 72.949 159.125 77 Q 159.125 80 159.125 93.75 Z " fill="rgb(5,230,0)"/><rect x="95.508" y="80.791" width="7.605" height="3.623" transform="matrix(1,0,0,1,0,0)" fill="rgb(235,235,235)"/><rect x="121.922" y="80.844" width="7.172" height="3.623" transform="matrix(1,0,0,1,0,0)" fill="rgb(235,235,235)"/><path d=" M 105.938 93.75 L 109.688 93.75 L 109.688 85.875 L 111.094 85.875 L 114.75 93.75 L 119.344 93.75 L 115.406 85.875 Q 119.25 84.844 119.25 82.406 Q 119.25 79.969 119.25 76.406 Q 119.063 72.094 114.75 72.094 Q 110.438 72.094 105.938 72.094 L 105.938 78.469 L 113.344 78.469 L 115.031 79.219 L 113.438 79.969 L 105.938 79.969 L 105.938 93.75 Z " fill="rgb(224,0,0)"/><path d=" M 155.688 77 Q 152 70.125 144.375 70.125 C 136.75 70.125 132 77.688 132 81.813 C 132 85.938 132.75 95.199 144.375 95.125 Q 154.25 95.063 156.75 87.125 L 147.063 82.875 L 155.688 77 Z " fill="rgb(238,245,21)"/><path d=" M 176 78.813 L 185.813 78.813 L 185.813 87.563 L 181.188 87.563 L 181.188 80.625 L 176 80.625 L 176 93.75 L 185.813 93.75 Q 190.438 92.063 190.438 89.125 Q 190.438 86.188 190.438 76.406 Q 188.938 72.094 185.813 72.094 Q 182.688 72.094 176 72.094 L 176 78.813 Z " fill="rgb(0,210,229)"/><path d=" M 205.875 80.25 L 205.875 85.875 L 198.063 85.875 Q 197.063 85.75 197.063 86.688 C 197.063 87.625 197.188 88.063 198.063 88.063 Q 198.938 88.063 207.438 88.063 L 207.438 93.75 L 193 93.75 L 193 80.25 L 205.875 80.25 Z " fill="rgb(244,19,191)"/><path d=" M 159.125 77 Q 159.125 72.949 163.5 72.563 Q 166.781 72.563 169 72.563 Q 172.438 72.563 173.25 77 L 173.25 93.75 L 169 93.75 Q 169 90.625 169 88.563 Q 169 86.5 167.73 86.563 Q 166.25 86.563 165 86.563 Q 163.75 86.563 163.5 87.563 L 163.5 93.75 L 159.125 93.75 Q 159.125 80 159.125 77 Z  M 167.83 87.56 C 167.82 87.56 167.8 87.56 167.78 87.56 C 167.76 87.56 167.75 87.56 167.73 87.56 L 166.25 87.56 L 165 87.56 C 164.88 87.56 164.76 87.58 164.64 87.61 C 164.61 87.62 164.58 87.63 164.55 87.65 C 164.54 87.65 164.54 87.66 164.53 87.67 C 164.52 87.69 164.51 87.7 164.5 87.72 L 164.5 94.75 L 158.13 94.75 L 158.13 80 L 158.13 77 C 158.13 76.59 158.16 76.18 158.22 75.78 C 158.28 75.43 158.37 75.09 158.5 74.76 C 158.61 74.46 158.75 74.17 158.92 73.9 C 159.09 73.64 159.28 73.4 159.49 73.18 C 159.72 72.95 159.97 72.74 160.23 72.57 C 160.52 72.38 160.82 72.22 161.14 72.09 C 161.47 71.95 161.81 71.84 162.16 71.76 C 162.57 71.67 162.99 71.6 163.41 71.57 C 163.44 71.56 163.47 71.56 163.5 71.56 L 166.78 71.56 L 169 71.56 C 169.36 71.56 169.72 71.6 170.08 71.66 C 170.41 71.73 170.72 71.82 171.03 71.95 C 171.32 72.08 171.6 72.24 171.86 72.42 C 172.12 72.61 172.37 72.83 172.59 73.07 C 172.99 73.51 173.32 74.02 173.55 74.57 C 173.86 75.29 174.09 76.05 174.23 76.82 C 174.24 76.88 174.25 76.94 174.25 77 L 174.25 94.75 L 168 94.75 L 168 90.63 L 168 88.56 C 168 88.31 167.98 88.07 167.93 87.82 C 167.92 87.74 167.89 87.66 167.85 87.59 C 167.85 87.58 167.84 87.57 167.83 87.56 Z " fill-rule="evenodd" fill="rgb(9,0,77)"/><path d=" M 95.508 80.791 L 103.113 80.791 L 103.113 84.414 L 95.508 84.414 L 95.508 80.791 Z  M 94.51 80.041 L 104.11 80.041 L 104.11 85.166 L 94.51 85.166 L 94.51 80.041 Z " fill-rule="evenodd" fill="rgb(9,0,77)"/><path d=" M 121.922 80.844 L 129.094 80.844 L 129.094 84.467 L 121.922 84.467 L 121.922 80.844 Z  M 120.92 80.094 L 130.09 80.094 L 130.09 85.219 L 120.92 85.219 L 120.92 80.094 Z " fill-rule="evenodd" fill="rgb(9,0,77)"/><path d=" M 105.938 79.969 L 113.438 79.969 L 115.031 79.219 L 113.344 78.469 L 105.938 78.469 L 105.938 72.094 Q 110.438 72.094 114.75 72.094 Q 119.063 72.094 119.25 76.406 Q 119.25 79.969 119.25 82.406 Q 119.25 84.844 115.406 85.875 L 119.344 93.75 L 114.75 93.75 L 111.094 85.875 L 109.688 85.875 L 109.688 93.75 L 105.938 93.75 L 105.938 79.969 Z  M 110.69 87.37 L 110.69 94.75 L 104.94 94.75 L 104.94 79.47 L 104.94 78.97 L 104.94 71.09 L 110.44 71.09 L 114.75 71.09 C 115.19 71.09 115.62 71.13 116.05 71.19 C 116.42 71.25 116.77 71.34 117.12 71.47 C 117.42 71.58 117.72 71.72 117.99 71.89 C 118.26 72.05 118.5 72.24 118.72 72.45 C 118.95 72.67 119.16 72.92 119.34 73.19 C 119.52 73.47 119.68 73.78 119.81 74.09 C 119.94 74.42 120.04 74.77 120.1 75.12 C 120.18 75.53 120.23 75.94 120.25 76.36 C 120.25 76.38 120.25 76.39 120.25 76.41 L 120.25 79.97 L 120.25 82.41 C 120.25 82.69 120.22 82.97 120.16 83.24 C 120.1 83.51 120.01 83.77 119.89 84.02 C 119.76 84.27 119.61 84.51 119.43 84.73 C 119.24 84.97 119.03 85.19 118.79 85.38 C 118.41 85.69 117.99 85.96 117.54 86.16 C 117.31 86.27 117.06 86.37 116.82 86.47 L 120.96 94.75 L 114.11 94.75 L 110.69 87.37 Z " fill-rule="evenodd" fill="rgb(9,0,77)"/><path d=" M 147.063 82.875 L 156.75 87.125 Q 154.25 95.063 144.375 95.125 C 132.75 95.199 132 85.938 132 81.813 C 132 77.688 136.75 70.125 144.375 70.125 Q 152 70.125 155.688 77 L 147.063 82.875 Z  M 144.38 96.12 L 144.24 96.13 C 142.88 96.14 141.52 95.99 140.19 95.7 C 139.08 95.45 138 95.04 137 94.5 C 135.3 93.56 133.9 92.18 132.94 90.5 C 132.12 89.04 131.57 87.44 131.31 85.79 C 131.09 84.47 130.99 83.14 131 81.8 C 131.01 81.16 131.09 80.51 131.25 79.88 C 131.42 79.18 131.65 78.5 131.95 77.84 C 132.6 76.35 133.49 74.97 134.58 73.76 C 135.76 72.42 137.18 71.3 138.77 70.48 C 140.5 69.59 142.42 69.13 144.37 69.13 C 145.69 69.12 147.01 69.29 148.29 69.62 C 149.42 69.91 150.5 70.37 151.5 70.97 C 152.51 71.58 153.43 72.33 154.22 73.21 C 155.14 74.21 155.93 75.33 156.57 76.53 C 156.69 76.74 156.72 77 156.66 77.24 C 156.6 77.48 156.45 77.69 156.25 77.83 L 149.12 82.68 L 157.15 86.21 C 157.38 86.31 157.56 86.49 157.66 86.71 C 157.76 86.94 157.78 87.19 157.7 87.43 C 157.48 88.13 157.21 88.82 156.88 89.48 C 156.59 90.08 156.24 90.65 155.85 91.19 C 155.48 91.7 155.07 92.17 154.61 92.61 C 154.16 93.05 153.68 93.44 153.16 93.8 C 152.63 94.15 152.08 94.46 151.5 94.73 C 150.87 95.02 150.22 95.26 149.55 95.45 C 148.78 95.67 148 95.83 147.21 95.93 C 146.27 96.05 145.33 96.12 144.38 96.12 C 144.38 96.12 144.38 96.12 144.38 96.12 Z " fill-rule="evenodd" fill="rgb(9,0,77)"/><path d=" M 176 72.094 Q 182.688 72.094 185.813 72.094 Q 188.938 72.094 190.438 76.406 Q 190.438 86.188 190.438 89.125 Q 190.438 92.063 185.813 93.75 L 176 93.75 L 176 80.625 L 181.188 80.625 L 181.188 87.563 L 185.813 87.563 L 185.813 78.813 L 176 78.813 L 176 72.094 Z  M 175 79.81 L 175 79.63 L 175 71.09 L 182.69 71.09 L 185.81 71.09 C 186.14 71.09 186.47 71.12 186.79 71.19 C 187.1 71.25 187.41 71.34 187.7 71.46 C 187.99 71.58 188.27 71.73 188.54 71.91 C 188.82 72.09 189.08 72.31 189.32 72.54 C 189.74 72.96 190.11 73.43 190.41 73.94 C 190.8 74.62 191.12 75.34 191.38 76.08 C 191.42 76.18 191.44 76.29 191.44 76.41 L 191.44 86.19 L 191.44 89.13 C 191.44 89.44 191.4 89.76 191.34 90.08 C 191.27 90.38 191.17 90.68 191.04 90.97 C 190.9 91.27 190.73 91.56 190.53 91.83 C 190.31 92.12 190.07 92.39 189.8 92.64 C 189.36 93.04 188.88 93.39 188.36 93.68 C 187.66 94.07 186.92 94.41 186.16 94.69 C 186.05 94.73 185.93 94.75 185.81 94.75 L 175 94.75 L 175 79.81 L 175 79.63 M 182.19 79.81 L 182.19 86.56 L 184.81 86.56 L 184.81 79.81 L 182.19 79.81 Z " fill-rule="evenodd" fill="rgb(9,0,77)"/><path d=" M 205.875 80.25 L 205.875 85.875 L 198.063 85.875 Q 197.063 85.75 197.063 86.688 C 197.063 87.625 197.188 88.063 198.063 88.063 Q 198.938 88.063 207.438 88.063 L 207.438 93.75 L 193 93.75 L 193 80.25 L 205.875 80.25 Z  M 198.06 86.88 C 198.07 86.94 198.07 87 198.08 87.06 L 198.94 87.06 L 208.44 87.06 L 208.44 94.75 L 192 94.75 L 192 79.25 L 206.88 79.25 L 206.88 86.88 L 198.06 86.88 Z " fill-rule="evenodd" fill="rgb(9,0,77)"/><rect x="163.641" y="78.469" width="4.969" height="2.906" transform="matrix(1,0,0,1,0,0)" fill="rgb(172,3,1)"/><path d=" M 163.641 78.469 L 168.609 78.469 L 168.609 81.375 L 163.641 81.375 L 163.641 78.469 Z  M 164.64 79.47 L 167.61 79.47 L 167.61 80.38 L 164.64 80.38 L 164.64 79.47 Z " fill-rule="evenodd" fill="rgb(9,0,77)"/></g></g></svg>