<?xml version="1.0" encoding="UTF-8"?>
<svg xmlns="http://www.w3.org/2000/svg" xmlns:xlink="http://www.w3.org/1999/xlink" width="50.000mm" height="55.519mm" viewBox="62.000000 53.584625 49.999939 55.519379">
    <path style="stroke:none;fill:#ffffff;fill-rule:evenodd" d="M111.999939,89.87326L62,70.642487L62,109.104004L111.999939,89.87326z"/>
    <path style="stroke:none;fill:#ffffff;fill-rule:evenodd" d="M70.077881,54.060944L70.403564,54.097076C71.378319,54.228012,72.238647,54.801594,72.734375,55.651031L72.918213,55.974518L71.508301,56.799957L71.411621,56.600006C71.149567,56.101948,70.660751,55.762463,70.102539,55.690826C69.607346,55.593754,69.093651,55.69315,68.67041,55.967926C68.136238,56.355721,67.981651,57.084087,68.312256,57.655426C68.579216,58.017361,68.950356,58.288685,69.376221,58.433258L70.528076,58.897614C71.310272,59.182304,72.007095,59.661583,72.552734,60.290192C73.080849,60.962452,73.318062,61.818199,73.211426,62.666412C73.099846,64.428894,71.689178,65.830658,69.926025,65.931061C69.155457,66.014992,68.377487,65.863655,67.69458,65.496979C66.644974,64.872528,65.964134,63.777298,65.868652,62.559723L67.605225,62.181549C67.57946,62.929596,67.937637,63.638863,68.554932,64.062164C69.317863,64.513374,70.286995,64.405586,70.932129,63.79776C71.583351,63.115452,71.663879,62.071632,71.125,61.297516C70.756897,60.923615,70.313103,60.632969,69.823242,60.444977L68.7229,59.980621C68.0466,59.726631,67.443924,59.308678,66.968994,58.764313C66.077698,57.597603,66.215172,55.946301,67.287109,54.943024C67.849106,54.408642,68.585556,54.096008,69.360352,54.062897C69.599159,54.044689,69.838982,54.044037,70.077881,54.060944z"/>
    <path style="stroke:none;fill:#ffffff;fill-rule:evenodd" d="M80.964844,55.90567L78.334229,55.90567L78.334229,65.723541L76.580566,65.723541L76.580566,55.90567L73.949707,55.90567L73.949707,54.255035L80.964844,54.255035L80.964844,55.90567z"/>
    <path style="stroke:none;fill:#ffffff;fill-rule:evenodd" d="M91.693848,65.723541L89.80249,65.723541L88.599121,62.955231L83.69873,62.955231L82.443604,65.723541L80.552246,65.723541L86.260742,53.584625L91.693848,65.723541zM84.420898,61.304596L87.894043,61.304596L86.191895,57.418854L84.420898,61.304596z"/>
    <path style="stroke:none;fill:#ffffff;fill-rule:evenodd" d="M95.744141,54.265533C96.417412,54.275375,97.084267,54.399384,97.716064,54.632233C98.790222,55.047012,99.530045,56.043571,99.616211,57.191803C99.722893,57.992645,99.541504,58.805496,99.104492,59.485016C98.634621,60.176842,97.912445,60.657211,97.092773,60.823151L100.669189,65.723541L98.554443,65.723541L95.270264,61.029694L94.960693,61.029694L94.960693,65.723541L93.207031,65.723541L93.207031,54.255035C94.052711,54.240456,94.898636,54.243958,95.744141,54.265533zM94.960693,55.87149L94.960693,59.51651C95.381912,59.54837,95.805656,59.529594,96.222412,59.460602C96.64003,59.403221,97.03685,59.242294,97.376465,58.992584C97.857727,58.542183,98.063019,57.869587,97.915283,57.227203C97.808105,56.656204,97.383667,56.196571,96.822998,56.044342C96.414497,55.920883,95.989159,55.862556,95.5625,55.87149L94.960693,55.87149z"/>
    <path style="stroke:none;fill:#ffffff;fill-rule:evenodd" d="M108.131348,55.90567L105.500732,55.90567L105.500732,65.723541L103.746826,65.723541L103.746826,55.90567L101.116211,55.90567L101.116211,54.255035L108.131348,54.255035L108.131348,55.90567z"/>
</svg>
