<?xml version="1.0" encoding="UTF-8"?>
<svg xmlns="http://www.w3.org/2000/svg" xmlns:xlink="http://www.w3.org/1999/xlink" width="50.000mm" height="55.055mm" viewBox="62.000000 54.048737 50.000000 55.055267">
    <path style="stroke:none;fill:#ffffff;fill-rule:evenodd" d="M62.000031,89.87326L111.999969,70.642487L111.999969,109.104004L62.000031,89.87326z"/>
    <path style="stroke:none;fill:#ffffff;fill-rule:evenodd" d="M66.209229,54.060944L66.534912,54.097076C67.509666,54.228012,68.369995,54.801594,68.865723,55.651031L69.049561,55.974518L67.639648,56.799957L67.542969,56.600006C67.280914,56.101952,66.792099,55.762463,66.233887,55.690826C65.738701,55.593754,65.224998,55.69315,64.801758,55.967926C64.267586,56.355724,64.112999,57.084087,64.443604,57.655426C64.710564,58.017361,65.081703,58.288685,65.507568,58.433258L66.659424,58.897614C67.44162,59.182304,68.138435,59.661583,68.684082,60.290192C69.212219,60.96244,69.449432,61.818195,69.342773,62.666412C69.231201,64.428894,67.820526,65.83065,66.057373,65.931061C65.286812,66.014999,64.508835,65.863655,63.825928,65.496979C62.776321,64.872528,62.095482,63.777302,62,62.559723L63.736572,62.181549C63.710812,62.929596,64.068985,63.638859,64.686279,64.062164C65.449211,64.513367,66.418335,64.405579,67.063477,63.79776C67.714706,63.115452,67.795227,62.071632,67.256348,61.297516C66.888252,60.923599,66.444458,60.632954,65.95459,60.444977L64.854248,59.980621C64.177948,59.726631,63.575264,59.308678,63.100342,58.764313C62.209061,57.597599,62.346527,55.946304,63.418457,54.943024C63.980522,54.408592,64.717064,54.095955,65.491943,54.062897C65.730667,54.044689,65.970406,54.044037,66.209229,54.060944z"/>
    <path style="stroke:none;fill:#ffffff;fill-rule:evenodd" d="M101.396729,54.061676C102.327438,54.100121,103.232262,54.380157,104.021973,54.874176L104.021973,56.937408C103.287712,56.234573,102.341354,55.794147,101.330811,55.684967C100.48024,55.594566,99.621788,55.754513,98.86084,56.145172C97.75238,56.765915,96.993202,57.864216,96.804199,59.120514C96.650269,59.991501,96.727539,60.887615,97.02832,61.719391C97.643211,63.32769,99.205719,64.374252,100.927002,64.330719C101.93148,64.324524,102.901886,63.965862,103.668945,63.317291L104.021973,63.006989L104.021973,65.087311C102.070396,66.250015,99.637222,66.238464,97.696777,65.057281C96.699463,64.422119,95.913246,63.504955,95.437988,62.422272C94.69342,60.561779,94.844383,58.463875,95.847656,56.729156C96.694519,55.329132,98.122879,54.380241,99.741699,54.142242C100.288956,54.056694,100.843758,54.029686,101.396729,54.061676z"/>
    <path style="stroke:none;fill:#ffffff;fill-rule:evenodd" d="M77.956055,55.90567L73.382324,55.90567L73.382324,58.811432L77.818359,58.811432L77.818359,60.462067L73.382324,60.462067L73.382324,64.072906L77.956055,64.072906L77.956055,65.723541L71.628662,65.723541L71.628662,54.255035L77.956055,54.255035L77.956055,55.90567z"/>
    <path style="stroke:none;fill:#ffffff;fill-rule:evenodd" d="M81.979248,64.072906L85.349365,64.072906L85.349365,65.723541L80.225586,65.723541L80.225586,54.255035L81.979248,54.255035L81.979248,64.072906z"/>
    <path style="stroke:none;fill:#ffffff;fill-rule:evenodd" d="M93.258545,55.90567L88.685059,55.90567L88.685059,58.811432L93.121094,58.811432L93.121094,60.462067L88.685059,60.462067L88.685059,64.072906L93.258545,64.072906L93.258545,65.723541L86.931152,65.723541L86.931152,54.255035L93.258545,54.255035L93.258545,55.90567z"/>
    <path style="stroke:none;fill:#ffffff;fill-rule:evenodd" d="M112,55.90567L109.369385,55.90567L109.369385,65.723541L107.615479,65.723541L107.615479,55.90567L104.984863,55.90567L104.984863,54.255035L112,54.255035L112,55.90567z"/>
</svg>
